<?xml version="1.0" encoding="UTF-8"?>
<!DOCTYPE svg PUBLIC "-//W3C//DTD SVG 1.1//EN"
    "http://www.w3.org/Graphics/SVG/1.1/DTD/svg11.dtd"><svg xmlns="http://www.w3.org/2000/svg" height="600.0000" stroke-opacity="1" viewBox="0 0 800 600" font-size="1" width="800.0000" xmlns:xlink="http://www.w3.org/1999/xlink" stroke="rgb(0,0,0)" version="1.1"><defs></defs><defs></defs><g stroke-linejoin="bevel" stroke-opacity="0.0" fill-opacity="1.0" stroke="rgb(0,0,0)" stroke-width="0.0" fill="rgb(255,255,255)" stroke-linecap="butt" stroke-miterlimit="10.0"><path d="M 0.0000,0.0000 v 600.0000 h 800.0000 v -600.0000 Z"/></g><defs></defs><g stroke-linejoin="miter" stroke-opacity="1.0" fill-opacity="0.0" stroke="rgb(211,211,211)" stroke-width="0.9999999999999997" fill="rgb(0,0,0)" stroke-dashoffset="0.0" stroke-linecap="butt" stroke-miterlimit="10.0" stroke-dasharray="4.999999999999998,4.999999999999998"><path d="M 27.7626,15.0000 v 535.0000 "/></g><defs></defs><g stroke-linejoin="miter" stroke-opacity="1.0" fill-opacity="0.0" stroke="rgb(211,211,211)" stroke-width="0.9999999999999997" fill="rgb(0,0,0)" stroke-dashoffset="0.0" stroke-linecap="butt" stroke-miterlimit="10.0" stroke-dasharray="4.999999999999998,4.999999999999998"><path d="M 215.8732,15.0000 v 535.0000 "/></g><defs></defs><g stroke-linejoin="miter" stroke-opacity="1.0" fill-opacity="0.0" stroke="rgb(211,211,211)" stroke-width="0.9999999999999997" fill="rgb(0,0,0)" stroke-dashoffset="0.0" stroke-linecap="butt" stroke-miterlimit="10.0" stroke-dasharray="4.999999999999998,4.999999999999998"><path d="M 403.9837,15.0000 v 535.0000 "/></g><defs></defs><g stroke-linejoin="miter" stroke-opacity="1.0" fill-opacity="0.0" stroke="rgb(211,211,211)" stroke-width="0.9999999999999997" fill="rgb(0,0,0)" stroke-dashoffset="0.0" stroke-linecap="butt" stroke-miterlimit="10.0" stroke-dasharray="4.999999999999998,4.999999999999998"><path d="M 592.0943,15.0000 v 535.0000 "/></g><defs></defs><g stroke-linejoin="miter" stroke-opacity="1.0" fill-opacity="0.0" stroke="rgb(211,211,211)" stroke-width="0.9999999999999997" fill="rgb(0,0,0)" stroke-dashoffset="0.0" stroke-linecap="butt" stroke-miterlimit="10.0" stroke-dasharray="4.999999999999998,4.999999999999998"><path d="M 780.2048,15.0000 v 535.0000 "/></g><defs></defs><g stroke-linejoin="miter" stroke-opacity="1.0" fill-opacity="0.0" stroke="rgb(211,211,211)" stroke-width="0.9999999999999997" fill="rgb(0,0,0)" stroke-dashoffset="0.0" stroke-linecap="butt" stroke-miterlimit="10.0" stroke-dasharray="4.999999999999998,4.999999999999998"><path d="M 27.7626,550.0000 h 752.4422 "/></g><defs></defs><g stroke-linejoin="miter" stroke-opacity="1.0" fill-opacity="0.0" stroke="rgb(211,211,211)" stroke-width="0.9999999999999997" fill="rgb(0,0,0)" stroke-dashoffset="0.0" stroke-linecap="butt" stroke-miterlimit="10.0" stroke-dasharray="4.999999999999998,4.999999999999998"><path d="M 27.7626,460.8333 h 752.4422 "/></g><defs></defs><g stroke-linejoin="miter" stroke-opacity="1.0" fill-opacity="0.0" stroke="rgb(211,211,211)" stroke-width="0.9999999999999997" fill="rgb(0,0,0)" stroke-dashoffset="0.0" stroke-linecap="butt" stroke-miterlimit="10.0" stroke-dasharray="4.999999999999998,4.999999999999998"><path d="M 27.7626,371.6667 h 752.4422 "/></g><defs></defs><g stroke-linejoin="miter" stroke-opacity="1.0" fill-opacity="0.0" stroke="rgb(211,211,211)" stroke-width="0.9999999999999997" fill="rgb(0,0,0)" stroke-dashoffset="0.0" stroke-linecap="butt" stroke-miterlimit="10.0" stroke-dasharray="4.999999999999998,4.999999999999998"><path d="M 27.7626,282.5000 h 752.4422 "/></g><defs></defs><g stroke-linejoin="miter" stroke-opacity="1.0" fill-opacity="0.0" stroke="rgb(211,211,211)" stroke-width="0.9999999999999997" fill="rgb(0,0,0)" stroke-dashoffset="0.0" stroke-linecap="butt" stroke-miterlimit="10.0" stroke-dasharray="4.999999999999998,4.999999999999998"><path d="M 27.7626,193.3333 h 752.4422 "/></g><defs></defs><g stroke-linejoin="miter" stroke-opacity="1.0" fill-opacity="0.0" stroke="rgb(211,211,211)" stroke-width="0.9999999999999997" fill="rgb(0,0,0)" stroke-dashoffset="0.0" stroke-linecap="butt" stroke-miterlimit="10.0" stroke-dasharray="4.999999999999998,4.999999999999998"><path d="M 27.7626,104.1667 h 752.4422 "/></g><defs></defs><g stroke-linejoin="miter" stroke-opacity="1.0" fill-opacity="0.0" stroke="rgb(211,211,211)" stroke-width="0.9999999999999997" fill="rgb(0,0,0)" stroke-dashoffset="0.0" stroke-linecap="butt" stroke-miterlimit="10.0" stroke-dasharray="4.999999999999998,4.999999999999998"><path d="M 27.7626,15.0000 h 752.4422 "/></g><defs></defs><g stroke-linejoin="round" stroke-opacity="1.0" fill-opacity="0.0" stroke="rgb(0,0,255)" stroke-width="0.9999999999999997" fill="rgb(0,0,0)" stroke-linecap="round" stroke-miterlimit="10.0"><defs><clipPath id="myClip1"><path d="M 27.7626,15.0000 v 535.0000 h 752.4422 v -535.0000 Z"/></clipPath></defs><g clip-path="url(#myClip1)"><path d="M 28.5150,385.0585 l 0.7524,-39.3876 l 0.7524,-38.7697 l 0.7524,69.2492 l 0.7524,14.7065 l 0.7524,43.5863 l 0.7524,-22.4809 l 0.7524,27.5104 l 0.7524,-80.6206 l 0.7524,0.0220 l 0.7524,-23.9724 l 0.7524,3.2335 l 0.7524,63.6232 l 0.7524,-8.4149 l 0.7524,-78.2688 l 0.7524,67.6591 l 0.7524,-2.5544 l 0.7524,63.6503 l 0.7524,-40.7612 l 0.7524,-29.4908 l 0.7524,-2.1503 l 0.7524,-20.8161 l 0.7524,-0.8054 l 0.7524,28.1422 l 0.7524,-71.0908 l 0.7524,35.4327 l 0.7524,-5.4040 l 0.7524,-11.9233 l 0.7524,60.9094 l 0.7524,-15.2724 l 0.7524,-26.4732 l 0.7524,20.2759 l 0.7524,-10.9163 l 0.7524,0.3670 l 0.7524,120.4517 l 0.7524,-9.9808 l 0.7524,-126.2694 l 0.7524,24.5629 l 0.7524,9.3696 l 0.7524,-43.3524 l 0.7524,23.0927 l 0.7524,-3.4186 l 0.7524,87.7223 l 0.7524,-29.0225 l 0.7524,-39.8052 l 0.7524,-1.9149 l 0.7524,-5.7554 l 0.7524,46.8065 l 0.7524,-36.8499 l 0.7524,-15.7020 l 0.7524,15.0329 l 0.7524,-31.6422 l 0.7524,40.3560 l 0.7524,44.3243 l 0.7524,-1.9129 l 0.7524,25.9273 l 0.7524,35.6060 l 0.7524,-20.6124 l 0.7524,-33.1585 l 0.7524,-12.2829 l 0.7524,-48.1500 l 0.7524,39.1344 l 0.7524,-82.9921 l 0.7524,34.4141 l 0.7524,-53.4197 l 0.7524,41.2429 l 0.7524,-16.3704 l 0.7524,-0.1889 l 0.7524,-2.6226 l 0.7524,-43.8949 l 0.7524,15.7299 l 0.7524,18.3160 l 0.7524,94.0304 l 0.7524,-31.3444 l 0.7524,35.3008 l 0.7524,55.3080 l 0.7524,-204.0315 l 0.7524,4.8506 l 0.7524,129.1308 l 0.7524,-9.0056 l 0.7524,-49.2592 l 0.7524,19.7562 l 0.7524,21.6312 l 0.7524,-23.5033 l 0.7524,-50.2399 l 0.7524,-14.8374 l 0.7524,27.3060 l 0.7524,-13.0891 l 0.7524,-14.4047 l 0.7524,-12.8615 l 0.7524,68.1178 l 0.7524,-24.1832 l 0.7524,19.3974 l 0.7524,-2.3574 l 0.7524,-37.2010 l 0.7524,40.2655 l 0.7524,-86.9716 l 0.7524,51.2315 l 0.7524,33.1763 l 0.7524,1.1502 l 0.7524,-144.0764 l 0.7524,55.2203 l 0.7524,-44.0445 l 0.7524,13.9625 l 0.7524,76.0364 l 0.7524,-41.0431 l 0.7524,74.7258 l 0.7524,-56.9614 l 0.7524,16.9661 l 0.7524,45.0370 l 0.7524,-18.9557 l 0.7524,6.4778 l 0.7524,-1.6600 l 0.7524,-19.5445 l 0.7524,-7.4617 l 0.7524,-24.9217 l 0.7524,108.3023 l 0.7524,11.4416 l 0.7524,-29.7275 l 0.7524,34.1774 l 0.7524,-88.4088 l 0.7524,-1.6224 l 0.7524,-13.8744 l 0.7524,5.1386 l 0.7524,-89.5606 l 0.7524,73.1698 l 0.7524,-40.2345 l 0.7524,1.9399 l 0.7524,45.8160 l 0.7524,39.4721 l 0.7524,14.0416 l 0.7524,-1.7356 l 0.7524,109.4725 l 0.7524,-38.6812 l 0.7524,-61.0169 l 0.7524,63.0815 l 0.7524,17.9225 l 0.7524,3.9293 l 0.7524,-17.8907 l 0.7524,3.3575 l 0.7524,60.0614 l 0.7524,-7.1619 l 0.7524,-67.1195 l 0.7524,-55.3789 l 0.7524,-20.6873 l 0.7524,-11.3344 l 0.7524,8.9805 l 0.7524,12.3160 l 0.7524,-9.1869 l 0.7524,10.7054 l 0.7524,-35.5906 l 0.7524,16.4687 l 0.7524,-32.0183 l 0.7524,32.8083 l 0.7524,50.3932 l 0.7524,-25.8975 l 0.7524,39.6552 l 0.7524,-52.3446 l 0.7524,8.2545 l 0.7524,-18.8060 l 0.7524,126.0407 l 0.7524,-10.6303 l 0.7524,-73.8291 l 0.7524,-6.2236 l 0.7524,3.8132 l 0.7524,-9.6194 l 0.7524,16.3315 l 0.7524,5.7786 l 0.7524,-2.0225 l 0.7524,0.2480 l 0.7524,63.2742 l 0.7524,22.7963 l 0.7524,-39.4762 l 0.7524,-60.8599 l 0.7524,-15.0389 l 0.7524,-0.5470 l 0.7524,79.3900 l 0.7524,19.1396 l 0.7524,-4.6766 l 0.7524,14.5917 l 0.7524,7.8904 l 0.7524,62.8874 l 0.7524,-86.5336 l 0.7524,-2.8695 l 0.7524,15.9710 l 0.7524,-44.1957 l 0.7524,-23.5477 l 0.7524,34.2826 l 0.7524,10.2192 l 0.7524,-33.7275 l 0.7524,-4.8503 l 0.7524,-43.0295 l 0.7524,100.7665 l 0.7524,28.1678 l 0.7524,-62.7525 l 0.7524,3.2489 l 0.7524,-18.1448 l 0.7524,61.1552 l 0.7524,-97.2577 l 0.7524,-5.9426 l 0.7524,85.2204 l 0.7524,-23.2126 l 0.7524,-14.2634 l 0.7524,14.9921 l 0.7524,16.4483 l 0.7524,4.5342 l 0.7524,-16.5680 l 0.7524,-13.2241 l 0.7524,-121.5094 l 0.7524,-4.3086 l 0.7524,50.8204 l 0.7524,-56.8895 l 0.7524,63.9330 l 0.7524,-19.4697 l 0.7524,21.8644 l 0.7524,-7.8837 l 0.7524,-57.9569 l 0.7524,5.0705 l 0.7524,67.1168 l 0.7524,-7.7451 l 0.7524,16.4544 l 0.7524,-9.7591 l 0.7524,-28.5908 l 0.7524,4.9180 l 0.7524,-22.4521 l 0.7524,-7.3659 l 0.7524,5.4628 l 0.7524,0.9757 l 0.7524,27.5584 l 0.7524,-21.4614 l 0.7524,-23.1207 l 0.7524,-21.4406 l 0.7524,59.2043 l 0.7524,16.5190 l 0.7524,-19.3026 l 0.7524,-2.5852 l 0.7524,-68.2821 l 0.7524,11.1443 l 0.7524,79.8695 l 0.7524,-5.5996 l 0.7524,66.1631 l 0.7524,-26.9888 l 0.7524,27.5101 l 0.7524,0.6931 l 0.7524,-43.5935 l 0.7524,26.9352 l 0.7524,-88.8256 l 0.7524,9.0559 l 0.7524,34.7620 l 0.7524,6.0908 l 0.7524,-11.4961 l 0.7524,-1.3453 l 0.7524,-48.7764 l 0.7524,-1.0971 l 0.7524,-7.4447 l 0.7524,4.9751 l 0.7524,13.6121 l 0.7524,0.4232 l 0.7524,-3.8711 l 0.7524,24.6660 l 0.7524,23.5361 l 0.7524,26.6709 l 0.7524,-9.9066 l 0.7524,6.3247 l 0.7524,-48.8568 l 0.7524,23.5730 l 0.7524,-32.5295 l 0.7524,65.5888 l 0.7524,-44.3567 l 0.7524,-26.0770 l 0.7524,67.4200 l 0.7524,2.4437 l 0.7524,-51.2314 l 0.7524,-7.4524 l 0.7524,25.5018 l 0.7524,-0.2886 l 0.7524,-25.7992 l 0.7524,6.4563 l 0.7524,-3.3092 l 0.7524,2.4973 l 0.7524,-27.2866 l 0.7524,-70.5127 l 0.7524,15.6744 l 0.7524,38.8701 l 0.7524,-26.8274 l 0.7524,-47.7849 l 0.7524,90.4107 l 0.7524,-52.7417 l 0.7524,44.4672 l 0.7524,13.7206 l 0.7524,-68.2254 l 0.7524,21.9563 l 0.7524,-26.7076 l 0.7524,34.3629 l 0.7524,-18.8320 l 0.7524,5.4653 l 0.7524,45.0120 l 0.7524,-40.1200 l 0.7524,-11.9637 l 0.7524,-16.3657 l 0.7524,-55.2522 l 0.7524,-6.7145 l 0.7524,29.5282 l 0.7524,33.2758 l 0.7524,58.5141 l 0.7524,-41.1808 l 0.7524,6.9693 l 0.7524,27.2592 l 0.7524,36.6163 l 0.7524,-1.2255 l 0.7524,-60.7289 l 0.7524,21.7500 l 0.7524,54.0169 l 0.7524,-58.8095 l 0.7524,12.8916 l 0.7524,48.7566 l 0.7524,-70.1215 l 0.7524,15.2038 l 0.7524,69.1721 l 0.7524,-20.4385 l 0.7524,-4.8382 l 0.7524,-2.3580 l 0.7524,91.4925 l 0.7524,-45.6991 l 0.7524,26.7641 l 0.7524,2.8057 l 0.7524,-4.5620 l 0.7524,44.2128 l 0.7524,30.7865 l 0.7524,-19.0834 l 0.7524,-27.9587 l 0.7524,-28.5801 l 0.7524,-111.5628 l 0.7524,66.3526 l 0.7524,27.4082 l 0.7524,-29.6059 l 0.7524,77.0189 l 0.7524,13.8725 l 0.7524,39.0928 l 0.7524,-46.3075 l 0.7524,-13.6332 l 0.7524,-49.1539 l 0.7524,-21.7950 l 0.7524,20.7291 l 0.7524,69.8395 l 0.7524,-28.0465 l 0.7524,-23.1292 l 0.7524,-5.1158 l 0.7524,-32.9327 l 0.7524,-44.7387 l 0.7524,102.4979 l 0.7524,43.6822 l 0.7524,-87.4675 l 0.7524,-39.2522 l 0.7524,41.8421 l 0.7524,20.4056 l 0.7524,0.7054 l 0.7524,-26.4402 l 0.7524,43.0685 l 0.7524,0.2112 l 0.7524,40.2407 l 0.7524,-56.2410 l 0.7524,-43.0332 l 0.7524,63.2495 l 0.7524,-25.6647 l 0.7524,-44.6088 l 0.7524,4.5699 l 0.7524,34.5374 l 0.7524,73.1609 l 0.7524,-75.9009 l 0.7524,83.8152 l 0.7524,-38.3911 l 0.7524,29.3950 l 0.7524,-60.5530 l 0.7524,50.3738 l 0.7524,32.4351 l 0.7524,16.7243 l 0.7524,-10.9054 l 0.7524,-69.8506 l 0.7524,-3.0906 l 0.7524,24.3301 l 0.7524,35.3682 l 0.7524,-9.6986 l 0.7524,-25.8823 l 0.7524,-119.3539 l 0.7524,10.5815 l 0.7524,-24.2459 l 0.7524,-7.0612 l 0.7524,-33.7300 l 0.7524,-5.8527 l 0.7524,-4.9632 l 0.7524,31.2641 l 0.7524,46.3165 l 0.7524,-6.2619 l 0.7524,-18.7020 l 0.7524,-72.5747 l 0.7524,-51.6724 l 0.7524,45.2582 l 0.7524,-16.3535 l 0.7524,-22.5425 l 0.7524,117.2548 l 0.7524,-53.3343 l 0.7524,-31.0668 l 0.7524,-7.2635 l 0.7524,-50.0288 l 0.7524,-2.5547 l 0.7524,62.4977 l 0.7524,-9.5537 l 0.7524,41.9587 l 0.7524,31.5381 l 0.7524,-6.3403 l 0.7524,34.8921 l 0.7524,-59.1062 l 0.7524,5.9966 l 0.7524,46.4060 l 0.7524,17.1153 l 0.7524,-17.8153 l 0.7524,35.9634 l 0.7524,82.4799 l 0.7524,-54.9724 l 0.7524,152.9535 l 0.7524,-53.5457 l 0.7524,-63.2463 l 0.7524,-25.6853 l 0.7524,45.3863 l 0.7524,-24.7736 l 0.7524,78.1586 l 0.7524,0.6399 l 0.7524,-64.9445 l 0.7524,18.9315 l 0.7524,46.4989 l 0.7524,-34.4695 l 0.7524,-65.3679 l 0.7524,36.7974 l 0.7524,-27.6617 l 0.7524,-30.6559 l 0.7524,-30.4603 l 0.7524,33.6193 l 0.7524,-28.8289 l 0.7524,-1.3605 l 0.7524,65.6061 l 0.7524,10.2321 l 0.7524,13.9852 l 0.7524,2.4591 l 0.7524,37.5488 l 0.7524,-17.1318 l 0.7524,-50.9349 l 0.7524,0.3468 l 0.7524,18.5000 l 0.7524,-29.7739 l 0.7524,-26.4936 l 0.7524,-26.4626 l 0.7524,39.4866 l 0.7524,14.2302 l 0.7524,-92.0943 l 0.7524,-14.0762 l 0.7524,100.1532 l 0.7524,33.6406 l 0.7524,-58.3711 l 0.7524,8.6716 l 0.7524,92.5739 l 0.7524,-68.6531 l 0.7524,46.5589 l 0.7524,-56.8254 l 0.7524,62.6354 l 0.7524,-17.9644 l 0.7524,74.4447 l 0.7524,-35.2698 l 0.7524,-86.1653 l 0.7524,-3.7052 l 0.7524,55.7757 l 0.7524,-54.2875 l 0.7524,15.7825 l 0.7524,-16.9681 l 0.7524,64.6524 l 0.7524,-11.9545 l 0.7524,1.0374 l 0.7524,56.7671 l 0.7524,-97.7546 l 0.7524,53.6895 l 0.7524,-130.9858 l 0.7524,41.1434 l 0.7524,52.3711 l 0.7524,-53.7823 l 0.7524,-14.5741 l 0.7524,-13.5175 l 0.7524,99.5363 l 0.7524,-31.0506 l 0.7524,-46.6950 l 0.7524,47.3500 l 0.7524,-12.9405 l 0.7524,18.1570 l 0.7524,-9.0517 l 0.7524,-14.0338 l 0.7524,53.6558 l 0.7524,0.2835 l 0.7524,-131.8754 l 0.7524,13.6783 l 0.7524,-34.4986 l 0.7524,32.7462 l 0.7524,-10.7305 l 0.7524,-26.0818 l 0.7524,16.5816 l 0.7524,6.3938 l 0.7524,-7.7426 l 0.7524,-69.3322 l 0.7524,44.0905 l 0.7524,-23.2472 l 0.7524,28.3212 l 0.7524,8.9281 l 0.7524,-13.4327 l 0.7524,21.8706 l 0.7524,253.8386 l 0.7524,14.6746 l 0.7524,-56.3971 l 0.7524,-25.1649 l 0.7524,-25.1065 l 0.7524,38.2786 l 0.7524,54.2473 l 0.7524,-3.5642 l 0.7524,-103.0673 l 0.7524,13.0536 l 0.7524,-57.8691 l 0.7524,20.0983 l 0.7524,20.4216 l 0.7524,-12.7140 l 0.7524,28.9326 l 0.7524,43.8631 l 0.7524,-167.9891 l 0.7524,32.3333 l 0.7524,-27.2242 l 0.7524,24.5494 l 0.7524,0.3133 l 0.7524,21.1061 l 0.7524,-99.3677 l 0.7524,-5.7814 l 0.7524,87.5932 l 0.7524,8.3742 l 0.7524,-12.5169 l 0.7524,44.1078 l 0.7524,-31.1129 l 0.7524,20.6617 l 0.7524,-1.8213 l 0.7524,0.5692 l 0.7524,75.0478 l 0.7524,-22.4366 l 0.7524,-35.5225 l 0.7524,56.7552 l 0.7524,-37.1225 l 0.7524,38.0328 l 0.7524,-26.6003 l 0.7524,-26.6098 l 0.7524,41.7659 l 0.7524,-40.0901 l 0.7524,42.6087 l 0.7524,11.2975 l 0.7524,-2.4241 l 0.7524,-43.5061 l 0.7524,27.4348 l 0.7524,54.2233 l 0.7524,-199.3362 l 0.7524,60.7689 l 0.7524,6.4399 l 0.7524,-49.0200 l 0.7524,31.9606 l 0.7524,-45.3016 l 0.7524,111.4727 l 0.7524,-32.1765 l 0.7524,-88.1114 l 0.7524,24.7976 l 0.7524,16.2392 l 0.7524,-7.4666 l 0.7524,40.5148 l 0.7524,59.8712 l 0.7524,-88.7145 l 0.7524,0.6319 l 0.7524,20.0335 l 0.7524,-25.8342 l 0.7524,105.2078 l 0.7524,-23.3093 l 0.7524,18.9261 l 0.7524,-14.6759 l 0.7524,-56.5798 l 0.7524,-13.1629 l 0.7524,53.1214 l 0.7524,11.3073 l 0.7524,15.3427 l 0.7524,-44.6731 l 0.7524,-10.6203 l 0.7524,-47.4050 l 0.7524,1.2505 l 0.7524,26.4423 l 0.7524,27.2781 l 0.7524,15.2500 l 0.7524,36.8119 l 0.7524,-5.3533 l 0.7524,17.8485 l 0.7524,-6.1383 l 0.7524,-61.6432 l 0.7524,-0.8047 l 0.7524,46.3037 l 0.7524,31.6456 l 0.7524,-6.5387 l 0.7524,-27.8415 l 0.7524,40.6299 l 0.7524,2.1507 l 0.7524,-74.1545 l 0.7524,57.9445 l 0.7524,-101.1961 l 0.7524,37.7638 l 0.7524,-46.5764 l 0.7524,-29.3134 l 0.7524,93.3088 l 0.7524,-10.0375 l 0.7524,-5.2105 l 0.7524,71.7161 l 0.7524,-75.9321 l 0.7524,44.0220 l 0.7524,-32.1106 l 0.7524,-1.7246 l 0.7524,16.8857 l 0.7524,4.0671 l 0.7524,34.1012 l 0.7524,22.1034 l 0.7524,-2.7818 l 0.7524,-40.1275 l 0.7524,8.2878 l 0.7524,53.1311 l 0.7524,-49.1658 l 0.7524,-61.3360 l 0.7524,70.5829 l 0.7524,19.4237 l 0.7524,-107.9187 l 0.7524,21.5213 l 0.7524,50.7978 l 0.7524,-25.2435 l 0.7524,69.0787 l 0.7524,-43.2321 l 0.7524,63.7626 l 0.7524,-44.5418 l 0.7524,-212.9349 l 0.7524,1.0302 l 0.7524,14.1105 l 0.7524,0.5764 l 0.7524,37.7874 l 0.7524,-49.0961 l 0.7524,66.6357 l 0.7524,37.7316 l 0.7524,-36.7457 l 0.7524,74.3463 l 0.7524,43.3468 l 0.7524,-67.1365 l 0.7524,46.6530 l 0.7524,-3.5909 l 0.7524,-18.0426 l 0.7524,22.1289 l 0.7524,-6.1240 l 0.7524,-29.5777 l 0.7524,-14.1492 l 0.7524,-14.6914 l 0.7524,-22.7448 l 0.7524,-2.5656 l 0.7524,6.1212 l 0.7524,26.0844 l 0.7524,-69.5208 l 0.7524,13.1507 l 0.7524,-2.2292 l 0.7524,16.3333 l 0.7524,8.9242 l 0.7524,9.5472 l 0.7524,-3.8397 l 0.7524,-37.4700 l 0.7524,7.2135 l 0.7524,35.2878 l 0.7524,-41.8735 l 0.7524,-36.7600 l 0.7524,39.1978 l 0.7524,-66.2705 l 0.7524,116.8993 l 0.7524,-31.2677 l 0.7524,4.3060 l 0.7524,-23.5014 l 0.7524,-34.3219 l 0.7524,45.8926 l 0.7524,15.4870 l 0.7524,13.9175 l 0.7524,-82.6483 l 0.7524,35.9587 l 0.7524,-36.6824 l 0.7524,43.6226 l 0.7524,-60.5304 l 0.7524,28.2747 l 0.7524,-14.0526 l 0.7524,9.2146 l 0.7524,11.8289 l 0.7524,-37.0662 l 0.7524,25.8342 l 0.7524,-1.8595 l 0.7524,37.4161 l 0.7524,-32.6904 l 0.7524,13.8057 l 0.7524,-40.3432 l 0.7524,70.4011 l 0.7524,13.8646 l 0.7524,137.4450 l 0.7524,-18.2621 l 0.7524,-50.6303 l 0.7524,-24.2841 l 0.7524,-25.6303 l 0.7524,-4.2147 l 0.7524,69.0980 l 0.7524,-17.1039 l 0.7524,140.9601 l 0.7524,-15.3782 l 0.7524,-54.7694 l 0.7524,38.8136 l 0.7524,-79.2885 l 0.7524,-68.3578 l 0.7524,43.5916 l 0.7524,53.5131 l 0.7524,-92.5668 l 0.7524,20.6868 l 0.7524,-17.5060 l 0.7524,16.2456 l 0.7524,-20.9509 l 0.7524,5.4048 l 0.7524,-53.5813 l 0.7524,32.0502 l 0.7524,138.1213 l 0.7524,-59.1475 l 0.7524,-32.8543 l 0.7524,53.4809 l 0.7524,-47.1777 l 0.7524,39.1392 l 0.7524,-24.0096 l 0.7524,53.7774 l 0.7524,-126.0520 l 0.7524,38.1450 l 0.7524,27.6178 l 0.7524,-47.0513 l 0.7524,23.8253 l 0.7524,6.6238 l 0.7524,-64.7184 l 0.7524,22.7264 l 0.7524,39.8938 l 0.7524,-40.0608 l 0.7524,66.5605 l 0.7524,-79.8526 l 0.7524,122.4816 l 0.7524,-66.7471 l 0.7524,14.0758 l 0.7524,42.2711 l 0.7524,-43.6777 l 0.7524,-15.3881 l 0.7524,-51.9586 l 0.7524,45.0152 l 0.7524,53.6993 l 0.7524,-38.1906 l 0.7524,30.1389 l 0.7524,-49.1489 l 0.7524,42.6412 l 0.7524,-17.9310 l 0.7524,-93.9556 l 0.7524,67.7056 l 0.7524,86.7291 l 0.7524,-1.6146 l 0.7524,-37.0505 l 0.7524,58.8765 l 0.7524,-57.0189 l 0.7524,-41.7943 l 0.7524,53.0736 l 0.7524,-59.7458 l 0.7524,51.3273 l 0.7524,-0.4674 l 0.7524,-23.6950 l 0.7524,10.4947 l 0.7524,-44.7060 l 0.7524,26.4275 l 0.7524,-7.1045 l 0.7524,-26.2405 l 0.7524,-50.7338 l 0.7524,69.2737 l 0.7524,-18.1581 l 0.7524,-12.9464 l 0.7524,105.6026 l 0.7524,-50.7895 l 0.7524,24.9361 l 0.7524,-9.0157 l 0.7524,-33.3923 l 0.7524,-39.9355 l 0.7524,27.6158 l 0.7524,-65.8706 l 0.7524,-13.9073 l 0.7524,-11.0176 l 0.7524,23.7592 l 0.7524,-52.0178 l 0.7524,125.2206 l 0.7524,-27.7427 l 0.7524,-24.5845 l 0.7524,37.2584 l 0.7524,48.3119 l 0.7524,-7.5351 l 0.7524,46.5330 l 0.7524,-48.0885 l 0.7524,-56.5253 l 0.7524,-27.7345 l 0.7524,28.4089 l 0.7524,10.5351 l 0.7524,77.3244 l 0.7524,-18.7209 l 0.7524,-39.3305 l 0.7524,48.7303 l 0.7524,-67.0145 l 0.7524,-21.3608 l 0.7524,28.6529 l 0.7524,-7.6274 l 0.7524,55.1051 l 0.7524,-48.3936 l 0.7524,119.5382 l 0.7524,-21.8307 l 0.7524,-81.7988 l 0.7524,13.3961 l 0.7524,25.0670 l 0.7524,-17.7238 l 0.7524,-28.3740 l 0.7524,20.1743 l 0.7524,-30.2365 l 0.7524,7.6481 l 0.7524,51.6730 l 0.7524,-64.6829 l 0.7524,80.8562 l 0.7524,-23.8954 l 0.7524,-91.6461 l 0.7524,70.3721 l 0.7524,-10.6386 l 0.7524,26.5947 l 0.7524,1.1209 l 0.7524,-13.9698 l 0.7524,-65.3031 l 0.7524,15.3328 l 0.7524,-9.6471 l 0.7524,-4.4978 l 0.7524,35.9239 l 0.7524,-40.1087 l 0.7524,-31.6991 l 0.7524,17.1889 l 0.7524,29.5107 l 0.7524,24.8967 l 0.7524,61.4358 l 0.7524,12.0026 l 0.7524,-7.5108 l 0.7524,-28.7206 l 0.7524,-39.8966 l 0.7524,26.7603 l 0.7524,-39.0370 l 0.7524,19.9793 l 0.7524,-22.6095 l 0.7524,-65.0280 l 0.7524,137.3698 l 0.7524,-66.9688 l 0.7524,10.8931 l 0.7524,15.8244 l 0.7524,22.5952 l 0.7524,14.0552 l 0.7524,-24.8924 l 0.7524,-27.7033 l 0.7524,39.9711 l 0.7524,-50.0988 l 0.7524,100.9681 l 0.7524,1.4505 l 0.7524,-92.7732 l 0.7524,18.5781 l 0.7524,-108.7037 l 0.7524,13.1263 l 0.7524,10.6259 l 0.7524,-33.7395 l 0.7524,24.3700 l 0.7524,75.3549 l 0.7524,-26.3758 l 0.7524,-0.8694 l 0.7524,-13.9611 l 0.7524,25.8231 l 0.7524,-40.1835 l 0.7524,45.0608 l 0.7524,-38.6214 l 0.7524,-0.5978 l 0.7524,-12.4306 l 0.7524,14.1010 l 0.7524,-59.1396 l 0.7524,41.6316 l 0.7524,2.1330 l 0.7524,-12.1309 l 0.7524,121.4249 l 0.7524,-7.5492 l 0.7524,-32.4403 l 0.7524,-37.4670 l 0.7524,43.9511 l 0.7524,-42.2961 l 0.7524,38.1343 l 0.7524,-4.0791 l 0.7524,-36.1849 l 0.7524,-34.2818 l 0.7524,88.1858 l 0.7524,1.5687 l 0.7524,-84.9183 l 0.7524,-11.0740 l 0.7524,1.2998 l 0.7524,70.9661 l 0.7524,-50.7228 l 0.7524,34.9234 l 0.7524,-103.2617 l 0.7524,0.6573 l 0.7524,-16.3104 l 0.7524,21.6915 l 0.7524,39.2379 l 0.7524,-39.7727 l 0.7524,29.0900 l 0.7524,15.4555 l 0.7524,-15.4716 l 0.7524,37.0248 l 0.7524,71.7807 l 0.7524,3.2234 l 0.7524,-37.5675 l 0.7524,16.1861 l 0.7524,-27.7052 l 0.7524,22.0306 l 0.7524,19.7326 l 0.7524,39.0072 l 0.7524,-121.7993 l 0.7524,-14.9734 l 0.7524,17.9366 l 0.7524,13.9685 l 0.7524,-43.6951 l 0.7524,46.9293 l 0.7524,10.0994 l 0.7524,23.7550 l 0.7524,-76.7186 l 0.7524,10.1296 l 0.7524,35.2813 l 0.7524,6.2683 l 0.7524,71.3301 l 0.7524,-13.7589 l 0.7524,-42.3361 l 0.7524,11.8214 l 0.7524,104.8661 l 0.7524,-42.1207 l 0.7524,-35.1679 l 0.7524,15.6607 l 0.7524,-11.3289 l 0.7524,37.5348 l 0.7524,-20.9692 l 0.7524,55.6374 l 0.7524,-136.1177 l 0.7524,28.5565 l 0.7524,-25.1692 l 0.7524,2.2979 l 0.7524,-20.7921 l 0.7524,-13.9689 l 0.7524,69.3326 l 0.7524,-26.1290 l 0.7524,-48.8315 l 0.7524,7.6405 l 0.7524,-97.9819 l 0.7524,71.8221 l 0.7524,0.6722 l 0.7524,13.5660 l 0.7524,-61.4886 l 0.7524,15.8839 l 0.7524,121.1623 l 0.7524,-70.0314 l 0.7524,-38.8127 l 0.7524,41.0600 l 0.7524,-99.7436 l 0.7524,-27.4836 l 0.7524,11.8986 l 0.7524,65.0576 l 0.7524,13.5240 l 0.7524,-14.1209 l 0.7524,13.6641 l 0.7524,-38.2785 l 0.7524,37.4211 l 0.7524,37.3339 l 0.7524,-110.2752 l 0.7524,70.4551 l 0.7524,-3.2807 l 0.7524,-12.6754 l 0.7524,-48.8009 l 0.7524,42.5982 l 0.7524,-58.1899 l 0.7524,-30.0602 l 0.7524,48.0029 l 0.7524,8.0271 l 0.7524,70.5534 l 0.7524,17.4634 l 0.7524,13.8064 l 0.7524,-13.9594 l 0.7524,26.7216 l 0.7524,8.5387 l 0.7524,-72.2615 l 0.7524,-25.8898 "/></g></g><defs></defs><g stroke-linejoin="miter" stroke-opacity="1.0" fill-opacity="0.0" stroke="rgb(0,0,0)" stroke-width="0.9999999999999997" fill="rgb(0,0,0)" stroke-linecap="square" stroke-miterlimit="10.0"><path d="M 27.7626,550.0000 v -535.0000 "/></g><defs></defs><g stroke-linejoin="miter" stroke-opacity="1.0" fill-opacity="0.0" stroke="rgb(0,0,0)" stroke-width="0.9999999999999997" fill="rgb(0,0,0)" stroke-linecap="butt" stroke-miterlimit="10.0"><path d="M 27.7626,550.0000 h 2.0000 "/></g><defs></defs><g stroke-linejoin="miter" stroke-opacity="1.0" fill-opacity="0.0" stroke="rgb(0,0,0)" stroke-width="0.9999999999999997" fill="rgb(0,0,0)" stroke-linecap="butt" stroke-miterlimit="10.0"><path d="M 27.7626,538.8542 h 2.0000 "/></g><defs></defs><g stroke-linejoin="miter" stroke-opacity="1.0" fill-opacity="0.0" stroke="rgb(0,0,0)" stroke-width="0.9999999999999997" fill="rgb(0,0,0)" stroke-linecap="butt" stroke-miterlimit="10.0"><path d="M 27.7626,527.7083 h 2.0000 "/></g><defs></defs><g stroke-linejoin="miter" stroke-opacity="1.0" fill-opacity="0.0" stroke="rgb(0,0,0)" stroke-width="0.9999999999999997" fill="rgb(0,0,0)" stroke-linecap="butt" stroke-miterlimit="10.0"><path d="M 27.7626,516.5625 h 2.0000 "/></g><defs></defs><g stroke-linejoin="miter" stroke-opacity="1.0" fill-opacity="0.0" stroke="rgb(0,0,0)" stroke-width="0.9999999999999997" fill="rgb(0,0,0)" stroke-linecap="butt" stroke-miterlimit="10.0"><path d="M 27.7626,505.4167 h 2.0000 "/></g><defs></defs><g stroke-linejoin="miter" stroke-opacity="1.0" fill-opacity="0.0" stroke="rgb(0,0,0)" stroke-width="0.9999999999999997" fill="rgb(0,0,0)" stroke-linecap="butt" stroke-miterlimit="10.0"><path d="M 27.7626,494.2708 h 2.0000 "/></g><defs></defs><g stroke-linejoin="miter" stroke-opacity="1.0" fill-opacity="0.0" stroke="rgb(0,0,0)" stroke-width="0.9999999999999997" fill="rgb(0,0,0)" stroke-linecap="butt" stroke-miterlimit="10.0"><path d="M 27.7626,483.1250 h 2.0000 "/></g><defs></defs><g stroke-linejoin="miter" stroke-opacity="1.0" fill-opacity="0.0" stroke="rgb(0,0,0)" stroke-width="0.9999999999999997" fill="rgb(0,0,0)" stroke-linecap="butt" stroke-miterlimit="10.0"><path d="M 27.7626,471.9792 h 2.0000 "/></g><defs></defs><g stroke-linejoin="miter" stroke-opacity="1.0" fill-opacity="0.0" stroke="rgb(0,0,0)" stroke-width="0.9999999999999997" fill="rgb(0,0,0)" stroke-linecap="butt" stroke-miterlimit="10.0"><path d="M 27.7626,460.8333 h 2.0000 "/></g><defs></defs><g stroke-linejoin="miter" stroke-opacity="1.0" fill-opacity="0.0" stroke="rgb(0,0,0)" stroke-width="0.9999999999999997" fill="rgb(0,0,0)" stroke-linecap="butt" stroke-miterlimit="10.0"><path d="M 27.7626,449.6875 h 2.0000 "/></g><defs></defs><g stroke-linejoin="miter" stroke-opacity="1.0" fill-opacity="0.0" stroke="rgb(0,0,0)" stroke-width="0.9999999999999997" fill="rgb(0,0,0)" stroke-linecap="butt" stroke-miterlimit="10.0"><path d="M 27.7626,438.5417 h 2.0000 "/></g><defs></defs><g stroke-linejoin="miter" stroke-opacity="1.0" fill-opacity="0.0" stroke="rgb(0,0,0)" stroke-width="0.9999999999999997" fill="rgb(0,0,0)" stroke-linecap="butt" stroke-miterlimit="10.0"><path d="M 27.7626,427.3958 h 2.0000 "/></g><defs></defs><g stroke-linejoin="miter" stroke-opacity="1.0" fill-opacity="0.0" stroke="rgb(0,0,0)" stroke-width="0.9999999999999997" fill="rgb(0,0,0)" stroke-linecap="butt" stroke-miterlimit="10.0"><path d="M 27.7626,416.2500 h 2.0000 "/></g><defs></defs><g stroke-linejoin="miter" stroke-opacity="1.0" fill-opacity="0.0" stroke="rgb(0,0,0)" stroke-width="0.9999999999999997" fill="rgb(0,0,0)" stroke-linecap="butt" stroke-miterlimit="10.0"><path d="M 27.7626,405.1042 h 2.0000 "/></g><defs></defs><g stroke-linejoin="miter" stroke-opacity="1.0" fill-opacity="0.0" stroke="rgb(0,0,0)" stroke-width="0.9999999999999997" fill="rgb(0,0,0)" stroke-linecap="butt" stroke-miterlimit="10.0"><path d="M 27.7626,393.9583 h 2.0000 "/></g><defs></defs><g stroke-linejoin="miter" stroke-opacity="1.0" fill-opacity="0.0" stroke="rgb(0,0,0)" stroke-width="0.9999999999999997" fill="rgb(0,0,0)" stroke-linecap="butt" stroke-miterlimit="10.0"><path d="M 27.7626,382.8125 h 2.0000 "/></g><defs></defs><g stroke-linejoin="miter" stroke-opacity="1.0" fill-opacity="0.0" stroke="rgb(0,0,0)" stroke-width="0.9999999999999997" fill="rgb(0,0,0)" stroke-linecap="butt" stroke-miterlimit="10.0"><path d="M 27.7626,371.6667 h 2.0000 "/></g><defs></defs><g stroke-linejoin="miter" stroke-opacity="1.0" fill-opacity="0.0" stroke="rgb(0,0,0)" stroke-width="0.9999999999999997" fill="rgb(0,0,0)" stroke-linecap="butt" stroke-miterlimit="10.0"><path d="M 27.7626,360.5208 h 2.0000 "/></g><defs></defs><g stroke-linejoin="miter" stroke-opacity="1.0" fill-opacity="0.0" stroke="rgb(0,0,0)" stroke-width="0.9999999999999997" fill="rgb(0,0,0)" stroke-linecap="butt" stroke-miterlimit="10.0"><path d="M 27.7626,349.3750 h 2.0000 "/></g><defs></defs><g stroke-linejoin="miter" stroke-opacity="1.0" fill-opacity="0.0" stroke="rgb(0,0,0)" stroke-width="0.9999999999999997" fill="rgb(0,0,0)" stroke-linecap="butt" stroke-miterlimit="10.0"><path d="M 27.7626,338.2292 h 2.0000 "/></g><defs></defs><g stroke-linejoin="miter" stroke-opacity="1.0" fill-opacity="0.0" stroke="rgb(0,0,0)" stroke-width="0.9999999999999997" fill="rgb(0,0,0)" stroke-linecap="butt" stroke-miterlimit="10.0"><path d="M 27.7626,327.0833 h 2.0000 "/></g><defs></defs><g stroke-linejoin="miter" stroke-opacity="1.0" fill-opacity="0.0" stroke="rgb(0,0,0)" stroke-width="0.9999999999999997" fill="rgb(0,0,0)" stroke-linecap="butt" stroke-miterlimit="10.0"><path d="M 27.7626,315.9375 h 2.0000 "/></g><defs></defs><g stroke-linejoin="miter" stroke-opacity="1.0" fill-opacity="0.0" stroke="rgb(0,0,0)" stroke-width="0.9999999999999997" fill="rgb(0,0,0)" stroke-linecap="butt" stroke-miterlimit="10.0"><path d="M 27.7626,304.7917 h 2.0000 "/></g><defs></defs><g stroke-linejoin="miter" stroke-opacity="1.0" fill-opacity="0.0" stroke="rgb(0,0,0)" stroke-width="0.9999999999999997" fill="rgb(0,0,0)" stroke-linecap="butt" stroke-miterlimit="10.0"><path d="M 27.7626,293.6458 h 2.0000 "/></g><defs></defs><g stroke-linejoin="miter" stroke-opacity="1.0" fill-opacity="0.0" stroke="rgb(0,0,0)" stroke-width="0.9999999999999997" fill="rgb(0,0,0)" stroke-linecap="butt" stroke-miterlimit="10.0"><path d="M 27.7626,282.5000 h 2.0000 "/></g><defs></defs><g stroke-linejoin="miter" stroke-opacity="1.0" fill-opacity="0.0" stroke="rgb(0,0,0)" stroke-width="0.9999999999999997" fill="rgb(0,0,0)" stroke-linecap="butt" stroke-miterlimit="10.0"><path d="M 27.7626,271.3542 h 2.0000 "/></g><defs></defs><g stroke-linejoin="miter" stroke-opacity="1.0" fill-opacity="0.0" stroke="rgb(0,0,0)" stroke-width="0.9999999999999997" fill="rgb(0,0,0)" stroke-linecap="butt" stroke-miterlimit="10.0"><path d="M 27.7626,260.2083 h 2.0000 "/></g><defs></defs><g stroke-linejoin="miter" stroke-opacity="1.0" fill-opacity="0.0" stroke="rgb(0,0,0)" stroke-width="0.9999999999999997" fill="rgb(0,0,0)" stroke-linecap="butt" stroke-miterlimit="10.0"><path d="M 27.7626,249.0625 h 2.0000 "/></g><defs></defs><g stroke-linejoin="miter" stroke-opacity="1.0" fill-opacity="0.0" stroke="rgb(0,0,0)" stroke-width="0.9999999999999997" fill="rgb(0,0,0)" stroke-linecap="butt" stroke-miterlimit="10.0"><path d="M 27.7626,237.9167 h 2.0000 "/></g><defs></defs><g stroke-linejoin="miter" stroke-opacity="1.0" fill-opacity="0.0" stroke="rgb(0,0,0)" stroke-width="0.9999999999999997" fill="rgb(0,0,0)" stroke-linecap="butt" stroke-miterlimit="10.0"><path d="M 27.7626,226.7708 h 2.0000 "/></g><defs></defs><g stroke-linejoin="miter" stroke-opacity="1.0" fill-opacity="0.0" stroke="rgb(0,0,0)" stroke-width="0.9999999999999997" fill="rgb(0,0,0)" stroke-linecap="butt" stroke-miterlimit="10.0"><path d="M 27.7626,215.6250 h 2.0000 "/></g><defs></defs><g stroke-linejoin="miter" stroke-opacity="1.0" fill-opacity="0.0" stroke="rgb(0,0,0)" stroke-width="0.9999999999999997" fill="rgb(0,0,0)" stroke-linecap="butt" stroke-miterlimit="10.0"><path d="M 27.7626,204.4792 h 2.0000 "/></g><defs></defs><g stroke-linejoin="miter" stroke-opacity="1.0" fill-opacity="0.0" stroke="rgb(0,0,0)" stroke-width="0.9999999999999997" fill="rgb(0,0,0)" stroke-linecap="butt" stroke-miterlimit="10.0"><path d="M 27.7626,193.3333 h 2.0000 "/></g><defs></defs><g stroke-linejoin="miter" stroke-opacity="1.0" fill-opacity="0.0" stroke="rgb(0,0,0)" stroke-width="0.9999999999999997" fill="rgb(0,0,0)" stroke-linecap="butt" stroke-miterlimit="10.0"><path d="M 27.7626,182.1875 h 2.0000 "/></g><defs></defs><g stroke-linejoin="miter" stroke-opacity="1.0" fill-opacity="0.0" stroke="rgb(0,0,0)" stroke-width="0.9999999999999997" fill="rgb(0,0,0)" stroke-linecap="butt" stroke-miterlimit="10.0"><path d="M 27.7626,171.0417 h 2.0000 "/></g><defs></defs><g stroke-linejoin="miter" stroke-opacity="1.0" fill-opacity="0.0" stroke="rgb(0,0,0)" stroke-width="0.9999999999999997" fill="rgb(0,0,0)" stroke-linecap="butt" stroke-miterlimit="10.0"><path d="M 27.7626,159.8958 h 2.0000 "/></g><defs></defs><g stroke-linejoin="miter" stroke-opacity="1.0" fill-opacity="0.0" stroke="rgb(0,0,0)" stroke-width="0.9999999999999997" fill="rgb(0,0,0)" stroke-linecap="butt" stroke-miterlimit="10.0"><path d="M 27.7626,148.7500 h 2.0000 "/></g><defs></defs><g stroke-linejoin="miter" stroke-opacity="1.0" fill-opacity="0.0" stroke="rgb(0,0,0)" stroke-width="0.9999999999999997" fill="rgb(0,0,0)" stroke-linecap="butt" stroke-miterlimit="10.0"><path d="M 27.7626,137.6042 h 2.0000 "/></g><defs></defs><g stroke-linejoin="miter" stroke-opacity="1.0" fill-opacity="0.0" stroke="rgb(0,0,0)" stroke-width="0.9999999999999997" fill="rgb(0,0,0)" stroke-linecap="butt" stroke-miterlimit="10.0"><path d="M 27.7626,126.4583 h 2.0000 "/></g><defs></defs><g stroke-linejoin="miter" stroke-opacity="1.0" fill-opacity="0.0" stroke="rgb(0,0,0)" stroke-width="0.9999999999999997" fill="rgb(0,0,0)" stroke-linecap="butt" stroke-miterlimit="10.0"><path d="M 27.7626,115.3125 h 2.0000 "/></g><defs></defs><g stroke-linejoin="miter" stroke-opacity="1.0" fill-opacity="0.0" stroke="rgb(0,0,0)" stroke-width="0.9999999999999997" fill="rgb(0,0,0)" stroke-linecap="butt" stroke-miterlimit="10.0"><path d="M 27.7626,104.1667 h 2.0000 "/></g><defs></defs><g stroke-linejoin="miter" stroke-opacity="1.0" fill-opacity="0.0" stroke="rgb(0,0,0)" stroke-width="0.9999999999999997" fill="rgb(0,0,0)" stroke-linecap="butt" stroke-miterlimit="10.0"><path d="M 27.7626,93.0208 h 2.0000 "/></g><defs></defs><g stroke-linejoin="miter" stroke-opacity="1.0" fill-opacity="0.0" stroke="rgb(0,0,0)" stroke-width="0.9999999999999997" fill="rgb(0,0,0)" stroke-linecap="butt" stroke-miterlimit="10.0"><path d="M 27.7626,81.8750 h 2.0000 "/></g><defs></defs><g stroke-linejoin="miter" stroke-opacity="1.0" fill-opacity="0.0" stroke="rgb(0,0,0)" stroke-width="0.9999999999999997" fill="rgb(0,0,0)" stroke-linecap="butt" stroke-miterlimit="10.0"><path d="M 27.7626,70.7292 h 2.0000 "/></g><defs></defs><g stroke-linejoin="miter" stroke-opacity="1.0" fill-opacity="0.0" stroke="rgb(0,0,0)" stroke-width="0.9999999999999997" fill="rgb(0,0,0)" stroke-linecap="butt" stroke-miterlimit="10.0"><path d="M 27.7626,59.5833 h 2.0000 "/></g><defs></defs><g stroke-linejoin="miter" stroke-opacity="1.0" fill-opacity="0.0" stroke="rgb(0,0,0)" stroke-width="0.9999999999999997" fill="rgb(0,0,0)" stroke-linecap="butt" stroke-miterlimit="10.0"><path d="M 27.7626,48.4375 h 2.0000 "/></g><defs></defs><g stroke-linejoin="miter" stroke-opacity="1.0" fill-opacity="0.0" stroke="rgb(0,0,0)" stroke-width="0.9999999999999997" fill="rgb(0,0,0)" stroke-linecap="butt" stroke-miterlimit="10.0"><path d="M 27.7626,37.2917 h 2.0000 "/></g><defs></defs><g stroke-linejoin="miter" stroke-opacity="1.0" fill-opacity="0.0" stroke="rgb(0,0,0)" stroke-width="0.9999999999999997" fill="rgb(0,0,0)" stroke-linecap="butt" stroke-miterlimit="10.0"><path d="M 27.7626,26.1458 h 2.0000 "/></g><defs></defs><g stroke-linejoin="miter" stroke-opacity="1.0" fill-opacity="0.0" stroke="rgb(0,0,0)" stroke-width="0.9999999999999997" fill="rgb(0,0,0)" stroke-linecap="butt" stroke-miterlimit="10.0"><path d="M 27.7626,15.0000 h 2.0000 "/></g><defs></defs><g stroke-linejoin="miter" stroke-opacity="1.0" fill-opacity="0.0" stroke="rgb(0,0,0)" stroke-width="0.9999999999999997" fill="rgb(0,0,0)" stroke-linecap="butt" stroke-miterlimit="10.0"><path d="M 27.7626,550.0000 h 5.0000 "/></g><defs></defs><g stroke-linejoin="miter" stroke-opacity="1.0" fill-opacity="0.0" stroke="rgb(0,0,0)" stroke-width="0.9999999999999997" fill="rgb(0,0,0)" stroke-linecap="butt" stroke-miterlimit="10.0"><path d="M 27.7626,460.8333 h 5.0000 "/></g><defs></defs><g stroke-linejoin="miter" stroke-opacity="1.0" fill-opacity="0.0" stroke="rgb(0,0,0)" stroke-width="0.9999999999999997" fill="rgb(0,0,0)" stroke-linecap="butt" stroke-miterlimit="10.0"><path d="M 27.7626,371.6667 h 5.0000 "/></g><defs></defs><g stroke-linejoin="miter" stroke-opacity="1.0" fill-opacity="0.0" stroke="rgb(0,0,0)" stroke-width="0.9999999999999997" fill="rgb(0,0,0)" stroke-linecap="butt" stroke-miterlimit="10.0"><path d="M 27.7626,282.5000 h 5.0000 "/></g><defs></defs><g stroke-linejoin="miter" stroke-opacity="1.0" fill-opacity="0.0" stroke="rgb(0,0,0)" stroke-width="0.9999999999999997" fill="rgb(0,0,0)" stroke-linecap="butt" stroke-miterlimit="10.0"><path d="M 27.7626,193.3333 h 5.0000 "/></g><defs></defs><g stroke-linejoin="miter" stroke-opacity="1.0" fill-opacity="0.0" stroke="rgb(0,0,0)" stroke-width="0.9999999999999997" fill="rgb(0,0,0)" stroke-linecap="butt" stroke-miterlimit="10.0"><path d="M 27.7626,104.1667 h 5.0000 "/></g><defs></defs><g stroke-linejoin="miter" stroke-opacity="1.0" fill-opacity="0.0" stroke="rgb(0,0,0)" stroke-width="0.9999999999999997" fill="rgb(0,0,0)" stroke-linecap="butt" stroke-miterlimit="10.0"><path d="M 27.7626,15.0000 h 5.0000 "/></g><defs></defs><g stroke-linejoin="bevel" stroke-opacity="0.0" fill-opacity="1.0" stroke="rgb(0,0,0)" stroke-width="0.0" fill="rgb(0,0,0)" stroke-linecap="butt" stroke-miterlimit="10.0"><path d="M 10.0000,553.4454 ZM 10.4307,550.4832 h 2.4160 v 0.6618 h -2.4160 v -0.6618 ZM 13.2668,553.4454 ZM 16.4601,550.9034 v -1.9433 c 0.0000,-0.2731 0.0158,-0.6460 0.0158 -0.6460c 0.0158,-0.3729 0.0368,-0.6460 0.0368 -0.6460h -0.0420 c -0.1261,0.2416 -0.2626,0.4727 -0.2626 0.4727c -0.1366,0.2311 -0.2836,0.4727 -0.2836 0.4727l -1.5651,2.2899 h 2.1008 ZM 16.4601,550.9034 ZM 18.1933,551.5966 h -0.9139 v 1.8487 h -0.8193 v -1.8487 h -3.0147 v -0.5672 l 2.8676,-4.2857 h 0.9664 v 4.1597 h 0.9139 v 0.6933 Z"/></g><defs></defs><g stroke-linejoin="bevel" stroke-opacity="0.0" fill-opacity="1.0" stroke="rgb(0,0,0)" stroke-width="0.0" fill="rgb(0,0,0)" stroke-linecap="butt" stroke-miterlimit="10.0"><path d="M 10.1786,464.2787 ZM 10.6092,461.3165 h 2.4160 v 0.6618 h -2.4160 v -0.6618 ZM 13.4454,464.2787 ZM 13.8655,463.7640 c 0.7563,-0.7563 1.3445,-1.3655 1.3445 -1.3655c 0.5882,-0.6092 0.9874,-1.1292 0.9874 -1.1292c 0.3992,-0.5200 0.6092,-0.9559 0.6092 -0.9559c 0.2101,-0.4359 0.2101,-0.8456 0.2101 -0.8456c 0.0000,-0.5777 -0.3151,-0.9454 -0.3151 -0.9454c -0.3151,-0.3676 -0.9559,-0.3676 -0.9559 -0.3676c -0.4202,-0.0000 -0.7773,0.2363 -0.7773 0.2363c -0.3571,0.2363 -0.6513,0.5725 -0.6513 0.5725l -0.4937,-0.4937 c 0.4202,-0.4622 0.8929,-0.7405 0.8929 -0.7405c 0.4727,-0.2784 1.1345,-0.2784 1.1345 -0.2784c 0.9349,0.0000 1.4706,0.5410 1.4706 0.5410c 0.5357,0.5410 0.5357,1.4338 0.5357 1.4338c 0.0000,0.4727 -0.2048,0.9506 -0.2048 0.9506c -0.2048,0.4779 -0.5672,0.9874 -0.5672 0.9874c -0.3624,0.5095 -0.8613,1.0609 -0.8613 1.0609c -0.4989,0.5515 -1.0977,1.1712 -1.0977 1.1712c 0.2731,-0.0210 0.5672,-0.0420 0.5672 -0.0420c 0.2941,-0.0210 0.5567,-0.0210 0.5567 -0.0210h 1.9433 v 0.7458 h -4.3277 v -0.5147 Z"/></g><defs></defs><g stroke-linejoin="bevel" stroke-opacity="0.0" fill-opacity="1.0" stroke="rgb(0,0,0)" stroke-width="0.0" fill="rgb(0,0,0)" stroke-linecap="butt" stroke-miterlimit="10.0"><path d="M 13.4664,375.1120 ZM 16.0819,375.2381 c -1.0189,-0.0000 -1.5861,-0.9034 -1.5861 -0.9034c -0.5672,-0.9034 -0.5672,-2.5945 -0.5672 -2.5945c 0.0000,-1.6912 0.5672,-2.5735 0.5672 -2.5735c 0.5672,-0.8824 1.5861,-0.8824 1.5861 -0.8824c 1.0084,0.0000 1.5756,0.8824 1.5756 0.8824c 0.5672,0.8824 0.5672,2.5735 0.5672 2.5735c 0.0000,1.6912 -0.5672,2.5945 -0.5672 2.5945c -0.5672,0.9034 -1.5756,0.9034 -1.5756 0.9034ZM 16.0819,375.2381 ZM 16.0819,374.5448 c 0.2941,0.0000 0.5305,-0.1628 0.5305 -0.1628c 0.2363,-0.1628 0.4097,-0.5042 0.4097 -0.5042c 0.1733,-0.3414 0.2679,-0.8718 0.2679 -0.8718c 0.0945,-0.5305 0.0945,-1.2658 0.0945 -1.2658c 0.0000,-0.7353 -0.0945,-1.2605 -0.0945 -1.2605c -0.0945,-0.5252 -0.2679,-0.8561 -0.2679 -0.8561c -0.1733,-0.3309 -0.4097,-0.4884 -0.4097 -0.4884c -0.2363,-0.1576 -0.5305,-0.1576 -0.5305 -0.1576c -0.2941,-0.0000 -0.5357,0.1576 -0.5357 0.1576c -0.2416,0.1576 -0.4149,0.4884 -0.4149 0.4884c -0.1733,0.3309 -0.2679,0.8561 -0.2679 0.8561c -0.0945,0.5252 -0.0945,1.2605 -0.0945 1.2605c 0.0000,1.4706 0.3624,2.1376 0.3624 2.1376c 0.3624,0.6670 0.9506,0.6670 0.9506 0.6670Z"/></g><defs></defs><g stroke-linejoin="bevel" stroke-opacity="0.0" fill-opacity="1.0" stroke="rgb(0,0,0)" stroke-width="0.0" fill="rgb(0,0,0)" stroke-linecap="butt" stroke-miterlimit="10.0"><path d="M 13.3929,285.9454 ZM 13.8130,285.4307 c 0.7563,-0.7563 1.3445,-1.3655 1.3445 -1.3655c 0.5882,-0.6092 0.9874,-1.1292 0.9874 -1.1292c 0.3992,-0.5200 0.6092,-0.9559 0.6092 -0.9559c 0.2101,-0.4359 0.2101,-0.8456 0.2101 -0.8456c 0.0000,-0.5777 -0.3151,-0.9454 -0.3151 -0.9454c -0.3151,-0.3676 -0.9559,-0.3676 -0.9559 -0.3676c -0.4202,-0.0000 -0.7773,0.2363 -0.7773 0.2363c -0.3571,0.2363 -0.6513,0.5725 -0.6513 0.5725l -0.4937,-0.4937 c 0.4202,-0.4622 0.8929,-0.7405 0.8929 -0.7405c 0.4727,-0.2784 1.1345,-0.2784 1.1345 -0.2784c 0.9349,0.0000 1.4706,0.5410 1.4706 0.5410c 0.5357,0.5410 0.5357,1.4338 0.5357 1.4338c 0.0000,0.4727 -0.2048,0.9506 -0.2048 0.9506c -0.2048,0.4779 -0.5672,0.9874 -0.5672 0.9874c -0.3624,0.5095 -0.8613,1.0609 -0.8613 1.0609c -0.4989,0.5515 -1.0977,1.1712 -1.0977 1.1712c 0.2731,-0.0210 0.5672,-0.0420 0.5672 -0.0420c 0.2941,-0.0210 0.5567,-0.0210 0.5567 -0.0210h 1.9433 v 0.7458 h -4.3277 v -0.5147 Z"/></g><defs></defs><g stroke-linejoin="bevel" stroke-opacity="0.0" fill-opacity="1.0" stroke="rgb(0,0,0)" stroke-width="0.0" fill="rgb(0,0,0)" stroke-linecap="butt" stroke-miterlimit="10.0"><path d="M 13.0147,196.7787 ZM 16.2080,194.2367 v -1.9433 c 0.0000,-0.2731 0.0158,-0.6460 0.0158 -0.6460c 0.0158,-0.3729 0.0368,-0.6460 0.0368 -0.6460h -0.0420 c -0.1261,0.2416 -0.2626,0.4727 -0.2626 0.4727c -0.1366,0.2311 -0.2836,0.4727 -0.2836 0.4727l -1.5651,2.2899 h 2.1008 ZM 16.2080,194.2367 ZM 17.9412,194.9300 h -0.9139 v 1.8487 h -0.8193 v -1.8487 h -3.0147 v -0.5672 l 2.8676,-4.2857 h 0.9664 v 4.1597 h 0.9139 v 0.6933 Z"/></g><defs></defs><g stroke-linejoin="bevel" stroke-opacity="0.0" fill-opacity="1.0" stroke="rgb(0,0,0)" stroke-width="0.0" fill="rgb(0,0,0)" stroke-linecap="butt" stroke-miterlimit="10.0"><path d="M 13.4664,107.6120 ZM 16.2815,107.0553 c 0.2521,0.0000 0.4622,-0.1050 0.4622 -0.1050c 0.2101,-0.1050 0.3676,-0.2994 0.3676 -0.2994c 0.1576,-0.1943 0.2468,-0.4622 0.2468 -0.4622c 0.0893,-0.2679 0.0893,-0.6040 0.0893 -0.6040c 0.0000,-0.6618 -0.3046,-1.0399 -0.3046 -1.0399c -0.3046,-0.3782 -0.9349,-0.3782 -0.9349 -0.3782c -0.3151,-0.0000 -0.6880,0.2048 -0.6880 0.2048c -0.3729,0.2048 -0.7090,0.6775 -0.7090 0.6775c 0.0840,0.9874 0.4569,1.4968 0.4569 1.4968c 0.3729,0.5095 1.0137,0.5095 1.0137 0.5095ZM 16.2815,107.0553 ZM 17.6576,102.0343 c -0.2101,-0.2416 -0.4989,-0.3834 -0.4989 -0.3834c -0.2889,-0.1418 -0.6040,-0.1418 -0.6040 -0.1418c -0.3466,-0.0000 -0.6618,0.1471 -0.6618 0.1471c -0.3151,0.1471 -0.5567,0.4832 -0.5567 0.4832c -0.2416,0.3361 -0.3887,0.8771 -0.3887 0.8771c -0.1471,0.5410 -0.1576,1.3393 -0.1576 1.3393c 0.3151,-0.3887 0.7353,-0.6145 0.7353 -0.6145c 0.4202,-0.2258 0.8298,-0.2258 0.8298 -0.2258c 0.8718,0.0000 1.3918,0.5147 1.3918 0.5147c 0.5200,0.5147 0.5200,1.5546 0.5200 1.5546c 0.0000,0.4832 -0.1576,0.8771 -0.1576 0.8771c -0.1576,0.3939 -0.4307,0.6775 -0.4307 0.6775c -0.2731,0.2836 -0.6303,0.4412 -0.6303 0.4412c -0.3571,0.1576 -0.7668,0.1576 -0.7668 0.1576c -0.4937,-0.0000 -0.9139,-0.1996 -0.9139 -0.1996c -0.4202,-0.1996 -0.7300,-0.6040 -0.7300 -0.6040c -0.3099,-0.4044 -0.4884,-1.0084 -0.4884 -1.0084c -0.1786,-0.6040 -0.1786,-1.4128 -0.1786 -1.4128c 0.0000,-1.0084 0.2101,-1.7174 0.2101 -1.7174c 0.2101,-0.7090 0.5672,-1.1555 0.5672 -1.1555c 0.3571,-0.4464 0.8141,-0.6513 0.8141 -0.6513c 0.4569,-0.2048 0.9611,-0.2048 0.9611 -0.2048c 0.5462,0.0000 0.9401,0.2048 0.9401 0.2048c 0.3939,0.2048 0.6775,0.5095 0.6775 0.5095Z"/></g><defs></defs><g stroke-linejoin="bevel" stroke-opacity="0.0" fill-opacity="1.0" stroke="rgb(0,0,0)" stroke-width="0.0" fill="rgb(0,0,0)" stroke-linecap="butt" stroke-miterlimit="10.0"><path d="M 13.4034,18.4454 ZM 14.6113,16.6492 c 0.0000,0.2836 0.1103,0.5147 0.1103 0.5147c 0.1103,0.2311 0.3046,0.4044 0.3046 0.4044c 0.1943,0.1733 0.4569,0.2679 0.4569 0.2679c 0.2626,0.0945 0.5672,0.0945 0.5672 0.0945c 0.5882,0.0000 0.9506,-0.3256 0.9506 -0.3256c 0.3624,-0.3256 0.3624,-0.8508 0.3624 -0.8508c 0.0000,-0.3256 -0.1471,-0.5567 -0.1471 -0.5567c -0.1471,-0.2311 -0.3992,-0.4044 -0.3992 -0.4044c -0.2521,-0.1733 -0.5830,-0.3151 -0.5830 -0.3151c -0.3309,-0.1418 -0.6880,-0.2889 -0.6880 -0.2889c -0.3992,0.2731 -0.6670,0.6355 -0.6670 0.6355c -0.2679,0.3624 -0.2679,0.8246 -0.2679 0.8246ZM 14.6113,16.6492 ZM 16.5021,14.7899 c 0.3361,-0.3046 0.5200,-0.6408 0.5200 -0.6408c 0.1838,-0.3361 0.1838,-0.7038 0.1838 -0.7038c 0.0000,-0.5042 -0.3046,-0.8456 -0.3046 -0.8456c -0.3046,-0.3414 -0.8613,-0.3414 -0.8613 -0.3414c -0.4727,-0.0000 -0.7773,0.2941 -0.7773 0.2941c -0.3046,0.2941 -0.3046,0.7878 -0.3046 0.7878c 0.0000,0.3046 0.1261,0.5200 0.1261 0.5200c 0.1261,0.2153 0.3414,0.3834 0.3414 0.3834c 0.2153,0.1681 0.4937,0.2994 0.4937 0.2994c 0.2784,0.1313 0.5830,0.2468 0.5830 0.2468ZM 16.5021,14.7899 ZM 13.8340,16.7332 c 0.0000,-0.3256 0.1103,-0.6040 0.1103 -0.6040c 0.1103,-0.2784 0.2836,-0.5042 0.2836 -0.5042c 0.1733,-0.2258 0.3992,-0.3992 0.3992 -0.3992c 0.2258,-0.1733 0.4674,-0.2994 0.4674 -0.2994v -0.0420 c -0.3676,-0.2626 -0.6513,-0.6355 -0.6513 -0.6355c -0.2836,-0.3729 -0.2836,-0.9086 -0.2836 -0.9086c 0.0000,-0.3887 0.1471,-0.7038 0.1471 -0.7038c 0.1471,-0.3151 0.3992,-0.5410 0.3992 -0.5410c 0.2521,-0.2258 0.5987,-0.3519 0.5987 -0.3519c 0.3466,-0.1261 0.7563,-0.1261 0.7563 -0.1261c 0.4412,0.0000 0.7878,0.1313 0.7878 0.1313c 0.3466,0.1313 0.5935,0.3676 0.5935 0.3676c 0.2468,0.2363 0.3782,0.5672 0.3782 0.5672c 0.1313,0.3309 0.1313,0.7195 0.1313 0.7195c 0.0000,0.2626 -0.0893,0.5042 -0.0893 0.5042c -0.0893,0.2416 -0.2206,0.4517 -0.2206 0.4517c -0.1313,0.2101 -0.2941,0.3782 -0.2941 0.3782c -0.1628,0.1681 -0.3204,0.2836 -0.3204 0.2836v 0.0420 c 0.2206,0.1261 0.4307,0.2889 0.4307 0.2889c 0.2101,0.1628 0.3729,0.3676 0.3729 0.3676c 0.1628,0.2048 0.2626,0.4674 0.2626 0.4674c 0.0998,0.2626 0.0998,0.5987 0.0998 0.5987c 0.0000,0.3782 -0.1576,0.7038 -0.1576 0.7038c -0.1576,0.3256 -0.4412,0.5672 -0.4412 0.5672c -0.2836,0.2416 -0.6828,0.3782 -0.6828 0.3782c -0.3992,0.1366 -0.8824,0.1366 -0.8824 0.1366c -0.4727,-0.0000 -0.8771,-0.1366 -0.8771 -0.1366c -0.4044,-0.1366 -0.6933,-0.3834 -0.6933 -0.3834c -0.2889,-0.2468 -0.4569,-0.5830 -0.4569 -0.5830c -0.1681,-0.3361 -0.1681,-0.7353 -0.1681 -0.7353Z"/></g><defs></defs><g stroke-linejoin="miter" stroke-opacity="1.0" fill-opacity="0.0" stroke="rgb(0,0,0)" stroke-width="0.9999999999999997" fill="rgb(0,0,0)" stroke-linecap="square" stroke-miterlimit="10.0"><path d="M 27.7626,550.0000 h 752.4422 "/></g><defs></defs><g stroke-linejoin="miter" stroke-opacity="1.0" fill-opacity="0.0" stroke="rgb(0,0,0)" stroke-width="0.9999999999999997" fill="rgb(0,0,0)" stroke-linecap="butt" stroke-miterlimit="10.0"><path d="M 27.7626,550.0000 v -2.0000 "/></g><defs></defs><g stroke-linejoin="miter" stroke-opacity="1.0" fill-opacity="0.0" stroke="rgb(0,0,0)" stroke-width="0.9999999999999997" fill="rgb(0,0,0)" stroke-linecap="butt" stroke-miterlimit="10.0"><path d="M 103.0068,550.0000 v -2.0000 "/></g><defs></defs><g stroke-linejoin="miter" stroke-opacity="1.0" fill-opacity="0.0" stroke="rgb(0,0,0)" stroke-width="0.9999999999999997" fill="rgb(0,0,0)" stroke-linecap="butt" stroke-miterlimit="10.0"><path d="M 178.2511,550.0000 v -2.0000 "/></g><defs></defs><g stroke-linejoin="miter" stroke-opacity="1.0" fill-opacity="0.0" stroke="rgb(0,0,0)" stroke-width="0.9999999999999997" fill="rgb(0,0,0)" stroke-linecap="butt" stroke-miterlimit="10.0"><path d="M 253.4953,550.0000 v -2.0000 "/></g><defs></defs><g stroke-linejoin="miter" stroke-opacity="1.0" fill-opacity="0.0" stroke="rgb(0,0,0)" stroke-width="0.9999999999999997" fill="rgb(0,0,0)" stroke-linecap="butt" stroke-miterlimit="10.0"><path d="M 328.7395,550.0000 v -2.0000 "/></g><defs></defs><g stroke-linejoin="miter" stroke-opacity="1.0" fill-opacity="0.0" stroke="rgb(0,0,0)" stroke-width="0.9999999999999997" fill="rgb(0,0,0)" stroke-linecap="butt" stroke-miterlimit="10.0"><path d="M 403.9837,550.0000 v -2.0000 "/></g><defs></defs><g stroke-linejoin="miter" stroke-opacity="1.0" fill-opacity="0.0" stroke="rgb(0,0,0)" stroke-width="0.9999999999999997" fill="rgb(0,0,0)" stroke-linecap="butt" stroke-miterlimit="10.0"><path d="M 479.2279,550.0000 v -2.0000 "/></g><defs></defs><g stroke-linejoin="miter" stroke-opacity="1.0" fill-opacity="0.0" stroke="rgb(0,0,0)" stroke-width="0.9999999999999997" fill="rgb(0,0,0)" stroke-linecap="butt" stroke-miterlimit="10.0"><path d="M 554.4722,550.0000 v -2.0000 "/></g><defs></defs><g stroke-linejoin="miter" stroke-opacity="1.0" fill-opacity="0.0" stroke="rgb(0,0,0)" stroke-width="0.9999999999999997" fill="rgb(0,0,0)" stroke-linecap="butt" stroke-miterlimit="10.0"><path d="M 629.7164,550.0000 v -2.0000 "/></g><defs></defs><g stroke-linejoin="miter" stroke-opacity="1.0" fill-opacity="0.0" stroke="rgb(0,0,0)" stroke-width="0.9999999999999997" fill="rgb(0,0,0)" stroke-linecap="butt" stroke-miterlimit="10.0"><path d="M 704.9606,550.0000 v -2.0000 "/></g><defs></defs><g stroke-linejoin="miter" stroke-opacity="1.0" fill-opacity="0.0" stroke="rgb(0,0,0)" stroke-width="0.9999999999999997" fill="rgb(0,0,0)" stroke-linecap="butt" stroke-miterlimit="10.0"><path d="M 780.2048,550.0000 v -2.0000 "/></g><defs></defs><g stroke-linejoin="miter" stroke-opacity="1.0" fill-opacity="0.0" stroke="rgb(0,0,0)" stroke-width="0.9999999999999997" fill="rgb(0,0,0)" stroke-linecap="butt" stroke-miterlimit="10.0"><path d="M 27.7626,550.0000 v -5.0000 "/></g><defs></defs><g stroke-linejoin="miter" stroke-opacity="1.0" fill-opacity="0.0" stroke="rgb(0,0,0)" stroke-width="0.9999999999999997" fill="rgb(0,0,0)" stroke-linecap="butt" stroke-miterlimit="10.0"><path d="M 215.8732,550.0000 v -5.0000 "/></g><defs></defs><g stroke-linejoin="miter" stroke-opacity="1.0" fill-opacity="0.0" stroke="rgb(0,0,0)" stroke-width="0.9999999999999997" fill="rgb(0,0,0)" stroke-linecap="butt" stroke-miterlimit="10.0"><path d="M 403.9837,550.0000 v -5.0000 "/></g><defs></defs><g stroke-linejoin="miter" stroke-opacity="1.0" fill-opacity="0.0" stroke="rgb(0,0,0)" stroke-width="0.9999999999999997" fill="rgb(0,0,0)" stroke-linecap="butt" stroke-miterlimit="10.0"><path d="M 592.0943,550.0000 v -5.0000 "/></g><defs></defs><g stroke-linejoin="miter" stroke-opacity="1.0" fill-opacity="0.0" stroke="rgb(0,0,0)" stroke-width="0.9999999999999997" fill="rgb(0,0,0)" stroke-linecap="butt" stroke-miterlimit="10.0"><path d="M 780.2048,550.0000 v -5.0000 "/></g><defs></defs><g stroke-linejoin="bevel" stroke-opacity="0.0" fill-opacity="1.0" stroke="rgb(0,0,0)" stroke-width="0.0" fill="rgb(0,0,0)" stroke-linecap="butt" stroke-miterlimit="10.0"><path d="M 25.6145,570.0000 ZM 28.2300,570.1261 c -1.0189,-0.0000 -1.5861,-0.9034 -1.5861 -0.9034c -0.5672,-0.9034 -0.5672,-2.5945 -0.5672 -2.5945c 0.0000,-1.6912 0.5672,-2.5735 0.5672 -2.5735c 0.5672,-0.8824 1.5861,-0.8824 1.5861 -0.8824c 1.0084,0.0000 1.5756,0.8824 1.5756 0.8824c 0.5672,0.8824 0.5672,2.5735 0.5672 2.5735c 0.0000,1.6912 -0.5672,2.5945 -0.5672 2.5945c -0.5672,0.9034 -1.5756,0.9034 -1.5756 0.9034ZM 28.2300,570.1261 ZM 28.2300,569.4328 c 0.2941,0.0000 0.5305,-0.1628 0.5305 -0.1628c 0.2363,-0.1628 0.4097,-0.5042 0.4097 -0.5042c 0.1733,-0.3414 0.2679,-0.8718 0.2679 -0.8718c 0.0945,-0.5305 0.0945,-1.2658 0.0945 -1.2658c 0.0000,-0.7353 -0.0945,-1.2605 -0.0945 -1.2605c -0.0945,-0.5252 -0.2679,-0.8561 -0.2679 -0.8561c -0.1733,-0.3309 -0.4097,-0.4884 -0.4097 -0.4884c -0.2363,-0.1576 -0.5305,-0.1576 -0.5305 -0.1576c -0.2941,-0.0000 -0.5357,0.1576 -0.5357 0.1576c -0.2416,0.1576 -0.4149,0.4884 -0.4149 0.4884c -0.1733,0.3309 -0.2679,0.8561 -0.2679 0.8561c -0.0945,0.5252 -0.0945,1.2605 -0.0945 1.2605c 0.0000,1.4706 0.3624,2.1376 0.3624 2.1376c 0.3624,0.6670 0.9506,0.6670 0.9506 0.6670Z"/></g><defs></defs><g stroke-linejoin="bevel" stroke-opacity="0.0" fill-opacity="1.0" stroke="rgb(0,0,0)" stroke-width="0.0" fill="rgb(0,0,0)" stroke-linecap="butt" stroke-miterlimit="10.0"><path d="M 208.4624,570.0000 ZM 208.8826,569.4853 c 0.7563,-0.7563 1.3445,-1.3655 1.3445 -1.3655c 0.5882,-0.6092 0.9874,-1.1292 0.9874 -1.1292c 0.3992,-0.5200 0.6092,-0.9559 0.6092 -0.9559c 0.2101,-0.4359 0.2101,-0.8456 0.2101 -0.8456c 0.0000,-0.5777 -0.3151,-0.9454 -0.3151 -0.9454c -0.3151,-0.3676 -0.9559,-0.3676 -0.9559 -0.3676c -0.4202,-0.0000 -0.7773,0.2363 -0.7773 0.2363c -0.3571,0.2363 -0.6513,0.5725 -0.6513 0.5725l -0.4937,-0.4937 c 0.4202,-0.4622 0.8929,-0.7405 0.8929 -0.7405c 0.4727,-0.2784 1.1345,-0.2784 1.1345 -0.2784c 0.9349,0.0000 1.4706,0.5410 1.4706 0.5410c 0.5357,0.5410 0.5357,1.4338 0.5357 1.4338c 0.0000,0.4727 -0.2048,0.9506 -0.2048 0.9506c -0.2048,0.4779 -0.5672,0.9874 -0.5672 0.9874c -0.3624,0.5095 -0.8613,1.0609 -0.8613 1.0609c -0.4989,0.5515 -1.0977,1.1712 -1.0977 1.1712c 0.2731,-0.0210 0.5672,-0.0420 0.5672 -0.0420c 0.2941,-0.0210 0.5567,-0.0210 0.5567 -0.0210h 1.9433 v 0.7458 h -4.3277 v -0.5147 ZM 213.6830,570.0000 ZM 214.3658,568.6450 c 0.2941,0.3046 0.6985,0.5357 0.6985 0.5357c 0.4044,0.2311 0.9926,0.2311 0.9926 0.2311c 0.3046,0.0000 0.5725,-0.1103 0.5725 -0.1103c 0.2679,-0.1103 0.4674,-0.3099 0.4674 -0.3099c 0.1996,-0.1996 0.3151,-0.4832 0.3151 -0.4832c 0.1155,-0.2836 0.1155,-0.6303 0.1155 -0.6303c 0.0000,-0.6933 -0.3887,-1.0819 -0.3887 -1.0819c -0.3887,-0.3887 -1.0399,-0.3887 -1.0399 -0.3887c -0.3466,-0.0000 -0.5935,0.1050 -0.5935 0.1050c -0.2468,0.1050 -0.5515,0.3046 -0.5515 0.3046l -0.4622,-0.2941 l 0.2206,-3.2248 h 3.3508 v 0.7458 h -2.5945 l -0.1786,1.9853 c 0.2416,-0.1261 0.4832,-0.1996 0.4832 -0.1996c 0.2416,-0.0735 0.5462,-0.0735 0.5462 -0.0735c 0.4307,0.0000 0.8088,0.1261 0.8088 0.1261c 0.3782,0.1261 0.6618,0.3834 0.6618 0.3834c 0.2836,0.2574 0.4464,0.6513 0.4464 0.6513c 0.1628,0.3939 0.1628,0.9401 0.1628 0.9401c 0.0000,0.5462 -0.1891,0.9664 -0.1891 0.9664c -0.1891,0.4202 -0.5042,0.7090 -0.5042 0.7090c -0.3151,0.2889 -0.7195,0.4412 -0.7195 0.4412c -0.4044,0.1523 -0.8456,0.1523 -0.8456 0.1523c -0.3992,-0.0000 -0.7300,-0.0788 -0.7300 -0.0788c -0.3309,-0.0788 -0.5987,-0.2048 -0.5987 -0.2048c -0.2679,-0.1261 -0.4832,-0.2889 -0.4832 -0.2889c -0.2153,-0.1628 -0.3834,-0.3414 -0.3834 -0.3414ZM 218.9036,570.0000 ZM 221.5192,570.1261 c -1.0189,-0.0000 -1.5861,-0.9034 -1.5861 -0.9034c -0.5672,-0.9034 -0.5672,-2.5945 -0.5672 -2.5945c 0.0000,-1.6912 0.5672,-2.5735 0.5672 -2.5735c 0.5672,-0.8824 1.5861,-0.8824 1.5861 -0.8824c 1.0084,0.0000 1.5756,0.8824 1.5756 0.8824c 0.5672,0.8824 0.5672,2.5735 0.5672 2.5735c 0.0000,1.6912 -0.5672,2.5945 -0.5672 2.5945c -0.5672,0.9034 -1.5756,0.9034 -1.5756 0.9034ZM 221.5192,570.1261 ZM 221.5192,569.4328 c 0.2941,0.0000 0.5305,-0.1628 0.5305 -0.1628c 0.2363,-0.1628 0.4097,-0.5042 0.4097 -0.5042c 0.1733,-0.3414 0.2679,-0.8718 0.2679 -0.8718c 0.0945,-0.5305 0.0945,-1.2658 0.0945 -1.2658c 0.0000,-0.7353 -0.0945,-1.2605 -0.0945 -1.2605c -0.0945,-0.5252 -0.2679,-0.8561 -0.2679 -0.8561c -0.1733,-0.3309 -0.4097,-0.4884 -0.4097 -0.4884c -0.2363,-0.1576 -0.5305,-0.1576 -0.5305 -0.1576c -0.2941,-0.0000 -0.5357,0.1576 -0.5357 0.1576c -0.2416,0.1576 -0.4149,0.4884 -0.4149 0.4884c -0.1733,0.3309 -0.2679,0.8561 -0.2679 0.8561c -0.0945,0.5252 -0.0945,1.2605 -0.0945 1.2605c 0.0000,1.4706 0.3624,2.1376 0.3624 2.1376c 0.3624,0.6670 0.9506,0.6670 0.9506 0.6670Z"/></g><defs></defs><g stroke-linejoin="bevel" stroke-opacity="0.0" fill-opacity="1.0" stroke="rgb(0,0,0)" stroke-width="0.0" fill="rgb(0,0,0)" stroke-linecap="butt" stroke-miterlimit="10.0"><path d="M 396.5152,570.0000 ZM 397.1980,568.6450 c 0.2941,0.3046 0.6985,0.5357 0.6985 0.5357c 0.4044,0.2311 0.9926,0.2311 0.9926 0.2311c 0.3046,0.0000 0.5725,-0.1103 0.5725 -0.1103c 0.2679,-0.1103 0.4674,-0.3099 0.4674 -0.3099c 0.1996,-0.1996 0.3151,-0.4832 0.3151 -0.4832c 0.1155,-0.2836 0.1155,-0.6303 0.1155 -0.6303c 0.0000,-0.6933 -0.3887,-1.0819 -0.3887 -1.0819c -0.3887,-0.3887 -1.0399,-0.3887 -1.0399 -0.3887c -0.3466,-0.0000 -0.5935,0.1050 -0.5935 0.1050c -0.2468,0.1050 -0.5515,0.3046 -0.5515 0.3046l -0.4622,-0.2941 l 0.2206,-3.2248 h 3.3508 v 0.7458 h -2.5945 l -0.1786,1.9853 c 0.2416,-0.1261 0.4832,-0.1996 0.4832 -0.1996c 0.2416,-0.0735 0.5462,-0.0735 0.5462 -0.0735c 0.4307,0.0000 0.8088,0.1261 0.8088 0.1261c 0.3782,0.1261 0.6618,0.3834 0.6618 0.3834c 0.2836,0.2574 0.4464,0.6513 0.4464 0.6513c 0.1628,0.3939 0.1628,0.9401 0.1628 0.9401c 0.0000,0.5462 -0.1891,0.9664 -0.1891 0.9664c -0.1891,0.4202 -0.5042,0.7090 -0.5042 0.7090c -0.3151,0.2889 -0.7195,0.4412 -0.7195 0.4412c -0.4044,0.1523 -0.8456,0.1523 -0.8456 0.1523c -0.3992,-0.0000 -0.7300,-0.0788 -0.7300 -0.0788c -0.3309,-0.0788 -0.5987,-0.2048 -0.5987 -0.2048c -0.2679,-0.1261 -0.4832,-0.2889 -0.4832 -0.2889c -0.2153,-0.1628 -0.3834,-0.3414 -0.3834 -0.3414ZM 401.7358,570.0000 ZM 404.3514,570.1261 c -1.0189,-0.0000 -1.5861,-0.9034 -1.5861 -0.9034c -0.5672,-0.9034 -0.5672,-2.5945 -0.5672 -2.5945c 0.0000,-1.6912 0.5672,-2.5735 0.5672 -2.5735c 0.5672,-0.8824 1.5861,-0.8824 1.5861 -0.8824c 1.0084,0.0000 1.5756,0.8824 1.5756 0.8824c 0.5672,0.8824 0.5672,2.5735 0.5672 2.5735c 0.0000,1.6912 -0.5672,2.5945 -0.5672 2.5945c -0.5672,0.9034 -1.5756,0.9034 -1.5756 0.9034ZM 404.3514,570.1261 ZM 404.3514,569.4328 c 0.2941,0.0000 0.5305,-0.1628 0.5305 -0.1628c 0.2363,-0.1628 0.4097,-0.5042 0.4097 -0.5042c 0.1733,-0.3414 0.2679,-0.8718 0.2679 -0.8718c 0.0945,-0.5305 0.0945,-1.2658 0.0945 -1.2658c 0.0000,-0.7353 -0.0945,-1.2605 -0.0945 -1.2605c -0.0945,-0.5252 -0.2679,-0.8561 -0.2679 -0.8561c -0.1733,-0.3309 -0.4097,-0.4884 -0.4097 -0.4884c -0.2363,-0.1576 -0.5305,-0.1576 -0.5305 -0.1576c -0.2941,-0.0000 -0.5357,0.1576 -0.5357 0.1576c -0.2416,0.1576 -0.4149,0.4884 -0.4149 0.4884c -0.1733,0.3309 -0.2679,0.8561 -0.2679 0.8561c -0.0945,0.5252 -0.0945,1.2605 -0.0945 1.2605c 0.0000,1.4706 0.3624,2.1376 0.3624 2.1376c 0.3624,0.6670 0.9506,0.6670 0.9506 0.6670ZM 406.9564,570.0000 ZM 409.5720,570.1261 c -1.0189,-0.0000 -1.5861,-0.9034 -1.5861 -0.9034c -0.5672,-0.9034 -0.5672,-2.5945 -0.5672 -2.5945c 0.0000,-1.6912 0.5672,-2.5735 0.5672 -2.5735c 0.5672,-0.8824 1.5861,-0.8824 1.5861 -0.8824c 1.0084,0.0000 1.5756,0.8824 1.5756 0.8824c 0.5672,0.8824 0.5672,2.5735 0.5672 2.5735c 0.0000,1.6912 -0.5672,2.5945 -0.5672 2.5945c -0.5672,0.9034 -1.5756,0.9034 -1.5756 0.9034ZM 409.5720,570.1261 ZM 409.5720,569.4328 c 0.2941,0.0000 0.5305,-0.1628 0.5305 -0.1628c 0.2363,-0.1628 0.4097,-0.5042 0.4097 -0.5042c 0.1733,-0.3414 0.2679,-0.8718 0.2679 -0.8718c 0.0945,-0.5305 0.0945,-1.2658 0.0945 -1.2658c 0.0000,-0.7353 -0.0945,-1.2605 -0.0945 -1.2605c -0.0945,-0.5252 -0.2679,-0.8561 -0.2679 -0.8561c -0.1733,-0.3309 -0.4097,-0.4884 -0.4097 -0.4884c -0.2363,-0.1576 -0.5305,-0.1576 -0.5305 -0.1576c -0.2941,-0.0000 -0.5357,0.1576 -0.5357 0.1576c -0.2416,0.1576 -0.4149,0.4884 -0.4149 0.4884c -0.1733,0.3309 -0.2679,0.8561 -0.2679 0.8561c -0.0945,0.5252 -0.0945,1.2605 -0.0945 1.2605c 0.0000,1.4706 0.3624,2.1376 0.3624 2.1376c 0.3624,0.6670 0.9506,0.6670 0.9506 0.6670Z"/></g><defs></defs><g stroke-linejoin="bevel" stroke-opacity="0.0" fill-opacity="1.0" stroke="rgb(0,0,0)" stroke-width="0.0" fill="rgb(0,0,0)" stroke-linecap="butt" stroke-miterlimit="10.0"><path d="M 584.7256,570.0000 ZM 586.5848,570.0000 c 0.0420,-0.9454 0.1681,-1.7332 0.1681 -1.7332c 0.1261,-0.7878 0.3519,-1.4968 0.3519 -1.4968c 0.2258,-0.7090 0.5777,-1.3708 0.5777 -1.3708c 0.3519,-0.6618 0.8456,-1.3550 0.8456 -1.3550h -3.3403 v -0.7458 h 4.3172 v 0.5357 c -0.5987,0.7563 -0.9716,1.4496 -0.9716 1.4496c -0.3729,0.6933 -0.5935,1.4128 -0.5935 1.4128c -0.2206,0.7195 -0.3204,1.5231 -0.3204 1.5231c -0.0998,0.8036 -0.1418,1.7805 -0.1418 1.7805h -0.8929 h 0.0000 ZM 589.9462,570.0000 ZM 590.6289,568.6450 c 0.2941,0.3046 0.6985,0.5357 0.6985 0.5357c 0.4044,0.2311 0.9926,0.2311 0.9926 0.2311c 0.3046,0.0000 0.5725,-0.1103 0.5725 -0.1103c 0.2679,-0.1103 0.4674,-0.3099 0.4674 -0.3099c 0.1996,-0.1996 0.3151,-0.4832 0.3151 -0.4832c 0.1155,-0.2836 0.1155,-0.6303 0.1155 -0.6303c 0.0000,-0.6933 -0.3887,-1.0819 -0.3887 -1.0819c -0.3887,-0.3887 -1.0399,-0.3887 -1.0399 -0.3887c -0.3466,-0.0000 -0.5935,0.1050 -0.5935 0.1050c -0.2468,0.1050 -0.5515,0.3046 -0.5515 0.3046l -0.4622,-0.2941 l 0.2206,-3.2248 h 3.3508 v 0.7458 h -2.5945 l -0.1786,1.9853 c 0.2416,-0.1261 0.4832,-0.1996 0.4832 -0.1996c 0.2416,-0.0735 0.5462,-0.0735 0.5462 -0.0735c 0.4307,0.0000 0.8088,0.1261 0.8088 0.1261c 0.3782,0.1261 0.6618,0.3834 0.6618 0.3834c 0.2836,0.2574 0.4464,0.6513 0.4464 0.6513c 0.1628,0.3939 0.1628,0.9401 0.1628 0.9401c 0.0000,0.5462 -0.1891,0.9664 -0.1891 0.9664c -0.1891,0.4202 -0.5042,0.7090 -0.5042 0.7090c -0.3151,0.2889 -0.7195,0.4412 -0.7195 0.4412c -0.4044,0.1523 -0.8456,0.1523 -0.8456 0.1523c -0.3992,-0.0000 -0.7300,-0.0788 -0.7300 -0.0788c -0.3309,-0.0788 -0.5987,-0.2048 -0.5987 -0.2048c -0.2679,-0.1261 -0.4832,-0.2889 -0.4832 -0.2889c -0.2153,-0.1628 -0.3834,-0.3414 -0.3834 -0.3414ZM 595.1668,570.0000 ZM 597.7823,570.1261 c -1.0189,-0.0000 -1.5861,-0.9034 -1.5861 -0.9034c -0.5672,-0.9034 -0.5672,-2.5945 -0.5672 -2.5945c 0.0000,-1.6912 0.5672,-2.5735 0.5672 -2.5735c 0.5672,-0.8824 1.5861,-0.8824 1.5861 -0.8824c 1.0084,0.0000 1.5756,0.8824 1.5756 0.8824c 0.5672,0.8824 0.5672,2.5735 0.5672 2.5735c 0.0000,1.6912 -0.5672,2.5945 -0.5672 2.5945c -0.5672,0.9034 -1.5756,0.9034 -1.5756 0.9034ZM 597.7823,570.1261 ZM 597.7823,569.4328 c 0.2941,0.0000 0.5305,-0.1628 0.5305 -0.1628c 0.2363,-0.1628 0.4097,-0.5042 0.4097 -0.5042c 0.1733,-0.3414 0.2679,-0.8718 0.2679 -0.8718c 0.0945,-0.5305 0.0945,-1.2658 0.0945 -1.2658c 0.0000,-0.7353 -0.0945,-1.2605 -0.0945 -1.2605c -0.0945,-0.5252 -0.2679,-0.8561 -0.2679 -0.8561c -0.1733,-0.3309 -0.4097,-0.4884 -0.4097 -0.4884c -0.2363,-0.1576 -0.5305,-0.1576 -0.5305 -0.1576c -0.2941,-0.0000 -0.5357,0.1576 -0.5357 0.1576c -0.2416,0.1576 -0.4149,0.4884 -0.4149 0.4884c -0.1733,0.3309 -0.2679,0.8561 -0.2679 0.8561c -0.0945,0.5252 -0.0945,1.2605 -0.0945 1.2605c 0.0000,1.4706 0.3624,2.1376 0.3624 2.1376c 0.3624,0.6670 0.9506,0.6670 0.9506 0.6670Z"/></g><defs></defs><g stroke-linejoin="bevel" stroke-opacity="0.0" fill-opacity="1.0" stroke="rgb(0,0,0)" stroke-width="0.0" fill="rgb(0,0,0)" stroke-linecap="butt" stroke-miterlimit="10.0"><path d="M 770.4097,570.0000 ZM 771.2395,569.2857 h 1.5336 v -4.9370 h -1.2185 v -0.5567 c 0.4622,-0.0840 0.8036,-0.2048 0.8036 -0.2048c 0.3414,-0.1208 0.6145,-0.2889 0.6145 -0.2889h 0.6618 v 5.9874 h 1.3866 v 0.7143 h -3.7815 v -0.7143 ZM 775.6303,570.0000 ZM 778.2458,570.1261 c -1.0189,-0.0000 -1.5861,-0.9034 -1.5861 -0.9034c -0.5672,-0.9034 -0.5672,-2.5945 -0.5672 -2.5945c 0.0000,-1.6912 0.5672,-2.5735 0.5672 -2.5735c 0.5672,-0.8824 1.5861,-0.8824 1.5861 -0.8824c 1.0084,0.0000 1.5756,0.8824 1.5756 0.8824c 0.5672,0.8824 0.5672,2.5735 0.5672 2.5735c 0.0000,1.6912 -0.5672,2.5945 -0.5672 2.5945c -0.5672,0.9034 -1.5756,0.9034 -1.5756 0.9034ZM 778.2458,570.1261 ZM 778.2458,569.4328 c 0.2941,0.0000 0.5305,-0.1628 0.5305 -0.1628c 0.2363,-0.1628 0.4097,-0.5042 0.4097 -0.5042c 0.1733,-0.3414 0.2679,-0.8718 0.2679 -0.8718c 0.0945,-0.5305 0.0945,-1.2658 0.0945 -1.2658c 0.0000,-0.7353 -0.0945,-1.2605 -0.0945 -1.2605c -0.0945,-0.5252 -0.2679,-0.8561 -0.2679 -0.8561c -0.1733,-0.3309 -0.4097,-0.4884 -0.4097 -0.4884c -0.2363,-0.1576 -0.5305,-0.1576 -0.5305 -0.1576c -0.2941,-0.0000 -0.5357,0.1576 -0.5357 0.1576c -0.2416,0.1576 -0.4149,0.4884 -0.4149 0.4884c -0.1733,0.3309 -0.2679,0.8561 -0.2679 0.8561c -0.0945,0.5252 -0.0945,1.2605 -0.0945 1.2605c 0.0000,1.4706 0.3624,2.1376 0.3624 2.1376c 0.3624,0.6670 0.9506,0.6670 0.9506 0.6670ZM 780.8508,570.0000 ZM 783.4664,570.1261 c -1.0189,-0.0000 -1.5861,-0.9034 -1.5861 -0.9034c -0.5672,-0.9034 -0.5672,-2.5945 -0.5672 -2.5945c 0.0000,-1.6912 0.5672,-2.5735 0.5672 -2.5735c 0.5672,-0.8824 1.5861,-0.8824 1.5861 -0.8824c 1.0084,0.0000 1.5756,0.8824 1.5756 0.8824c 0.5672,0.8824 0.5672,2.5735 0.5672 2.5735c 0.0000,1.6912 -0.5672,2.5945 -0.5672 2.5945c -0.5672,0.9034 -1.5756,0.9034 -1.5756 0.9034ZM 783.4664,570.1261 ZM 783.4664,569.4328 c 0.2941,0.0000 0.5305,-0.1628 0.5305 -0.1628c 0.2363,-0.1628 0.4097,-0.5042 0.4097 -0.5042c 0.1733,-0.3414 0.2679,-0.8718 0.2679 -0.8718c 0.0945,-0.5305 0.0945,-1.2658 0.0945 -1.2658c 0.0000,-0.7353 -0.0945,-1.2605 -0.0945 -1.2605c -0.0945,-0.5252 -0.2679,-0.8561 -0.2679 -0.8561c -0.1733,-0.3309 -0.4097,-0.4884 -0.4097 -0.4884c -0.2363,-0.1576 -0.5305,-0.1576 -0.5305 -0.1576c -0.2941,-0.0000 -0.5357,0.1576 -0.5357 0.1576c -0.2416,0.1576 -0.4149,0.4884 -0.4149 0.4884c -0.1733,0.3309 -0.2679,0.8561 -0.2679 0.8561c -0.0945,0.5252 -0.0945,1.2605 -0.0945 1.2605c 0.0000,1.4706 0.3624,2.1376 0.3624 2.1376c 0.3624,0.6670 0.9506,0.6670 0.9506 0.6670ZM 786.0714,570.0000 ZM 788.6870,570.1261 c -1.0189,-0.0000 -1.5861,-0.9034 -1.5861 -0.9034c -0.5672,-0.9034 -0.5672,-2.5945 -0.5672 -2.5945c 0.0000,-1.6912 0.5672,-2.5735 0.5672 -2.5735c 0.5672,-0.8824 1.5861,-0.8824 1.5861 -0.8824c 1.0084,0.0000 1.5756,0.8824 1.5756 0.8824c 0.5672,0.8824 0.5672,2.5735 0.5672 2.5735c 0.0000,1.6912 -0.5672,2.5945 -0.5672 2.5945c -0.5672,0.9034 -1.5756,0.9034 -1.5756 0.9034ZM 788.6870,570.1261 ZM 788.6870,569.4328 c 0.2941,0.0000 0.5305,-0.1628 0.5305 -0.1628c 0.2363,-0.1628 0.4097,-0.5042 0.4097 -0.5042c 0.1733,-0.3414 0.2679,-0.8718 0.2679 -0.8718c 0.0945,-0.5305 0.0945,-1.2658 0.0945 -1.2658c 0.0000,-0.7353 -0.0945,-1.2605 -0.0945 -1.2605c -0.0945,-0.5252 -0.2679,-0.8561 -0.2679 -0.8561c -0.1733,-0.3309 -0.4097,-0.4884 -0.4097 -0.4884c -0.2363,-0.1576 -0.5305,-0.1576 -0.5305 -0.1576c -0.2941,-0.0000 -0.5357,0.1576 -0.5357 0.1576c -0.2416,0.1576 -0.4149,0.4884 -0.4149 0.4884c -0.1733,0.3309 -0.2679,0.8561 -0.2679 0.8561c -0.0945,0.5252 -0.0945,1.2605 -0.0945 1.2605c 0.0000,1.4706 0.3624,2.1376 0.3624 2.1376c 0.3624,0.6670 0.9506,0.6670 0.9506 0.6670Z"/></g><defs></defs><g stroke-linejoin="round" stroke-opacity="1.0" fill-opacity="0.0" stroke="rgb(0,0,255)" stroke-width="0.9999999999999997" fill="rgb(0,0,0)" stroke-linecap="round" stroke-miterlimit="10.0"><path d="M 10.0000,585.0000 h 20.0000 "/></g><defs></defs><g stroke-linejoin="bevel" stroke-opacity="0.0" fill-opacity="1.0" stroke="rgb(0,0,0)" stroke-width="0.0" fill="rgb(0,0,0)" stroke-linecap="butt" stroke-miterlimit="10.0"><path d="M 35.0735,586.6071 ZM 38.9496,583.8025 l -0.3256,-1.0504 c -0.1891,-0.5777 -0.3571,-1.1502 -0.3571 -1.1502c -0.1681,-0.5725 -0.3361,-1.1712 -0.3361 -1.1712h -0.0420 c -0.1576,0.5987 -0.3256,1.1712 -0.3256 1.1712c -0.1681,0.5725 -0.3571,1.1502 -0.3571 1.1502l -0.3256,1.0504 h 2.0693 ZM 38.9496,583.8025 ZM 39.1702,584.5063 h -2.5105 l -0.6618,2.1008 h -0.8929 l 2.3319,-6.8908 h 0.9874 l 2.3319,6.8908 h -0.9349 ZM 40.7878,586.6071 ZM 41.7332,579.7164 h 1.7227 c 1.5966,0.0000 2.4265,0.8824 2.4265 0.8824c 0.8298,0.8824 0.8298,2.5315 0.8298 2.5315c 0.0000,0.8193 -0.2101,1.4653 -0.2101 1.4653c -0.2101,0.6460 -0.6197,1.0924 -0.6197 1.0924c -0.4097,0.4464 -1.0084,0.6828 -1.0084 0.6828c -0.5987,0.2363 -1.3761,0.2363 -1.3761 0.2363h -1.7647 v -6.8908 ZM 41.7332,579.7164 ZM 43.3929,585.8929 c 1.2080,0.0000 1.8120,-0.7248 1.8120 -0.7248c 0.6040,-0.7248 0.6040,-2.0378 0.6040 -2.0378c 0.0000,-1.3130 -0.6040,-2.0063 -0.6040 -2.0063c -0.6040,-0.6933 -1.8120,-0.6933 -1.8120 -0.6933h -0.7878 v 5.4622 h 0.7878 ZM 47.2479,586.6071 ZM 48.1933,579.7164 h 3.9706 v 0.7353 h -3.0987 v 2.1639 h 2.6155 v 0.7458 h -2.6155 v 2.5000 h 3.2038 v 0.7458 h -4.0756 v -6.8908 ZM 52.7836,586.6071 ZM 52.7836,579.7164 h 0.9349 l 1.1029,3.7185 c 0.1891,0.6197 0.3309,1.1450 0.3309 1.1450c 0.1418,0.5252 0.3414,1.1345 0.3414 1.1345h 0.0420 c 0.1891,-0.6092 0.3361,-1.1345 0.3361 -1.1345c 0.1471,-0.5252 0.3256,-1.1450 0.3256 -1.1450l 1.1029,-3.7185 h 0.8929 l -2.1849,6.8908 h -1.0189 Z"/></g></svg>