<?xml version="1.0" encoding="UTF-8"?>
<!DOCTYPE svg PUBLIC "-//W3C//DTD SVG 1.1//EN"
    "http://www.w3.org/Graphics/SVG/1.1/DTD/svg11.dtd"><svg xmlns="http://www.w3.org/2000/svg" height="600.0000" stroke-opacity="1" viewBox="0 0 800 600" font-size="1" width="800.0000" xmlns:xlink="http://www.w3.org/1999/xlink" stroke="rgb(0,0,0)" version="1.1"><defs></defs><defs></defs><g stroke-linejoin="bevel" stroke-opacity="0.0" fill-opacity="1.0" stroke="rgb(0,0,0)" stroke-width="0.0" fill="rgb(255,255,255)" stroke-linecap="butt" stroke-miterlimit="10.0"><path d="M 0.0000,0.0000 v 600.0000 h 800.0000 v -600.0000 Z"/></g><defs></defs><g stroke-linejoin="miter" stroke-opacity="1.0" fill-opacity="0.0" stroke="rgb(211,211,211)" stroke-width="0.9999999999999997" fill="rgb(0,0,0)" stroke-dashoffset="0.0" stroke-linecap="butt" stroke-miterlimit="10.0" stroke-dasharray="4.999999999999998,4.999999999999998"><path d="M 27.7626,15.0000 v 535.0000 "/></g><defs></defs><g stroke-linejoin="miter" stroke-opacity="1.0" fill-opacity="0.0" stroke="rgb(211,211,211)" stroke-width="0.9999999999999997" fill="rgb(0,0,0)" stroke-dashoffset="0.0" stroke-linecap="butt" stroke-miterlimit="10.0" stroke-dasharray="4.999999999999998,4.999999999999998"><path d="M 215.8732,15.0000 v 535.0000 "/></g><defs></defs><g stroke-linejoin="miter" stroke-opacity="1.0" fill-opacity="0.0" stroke="rgb(211,211,211)" stroke-width="0.9999999999999997" fill="rgb(0,0,0)" stroke-dashoffset="0.0" stroke-linecap="butt" stroke-miterlimit="10.0" stroke-dasharray="4.999999999999998,4.999999999999998"><path d="M 403.9837,15.0000 v 535.0000 "/></g><defs></defs><g stroke-linejoin="miter" stroke-opacity="1.0" fill-opacity="0.0" stroke="rgb(211,211,211)" stroke-width="0.9999999999999997" fill="rgb(0,0,0)" stroke-dashoffset="0.0" stroke-linecap="butt" stroke-miterlimit="10.0" stroke-dasharray="4.999999999999998,4.999999999999998"><path d="M 592.0943,15.0000 v 535.0000 "/></g><defs></defs><g stroke-linejoin="miter" stroke-opacity="1.0" fill-opacity="0.0" stroke="rgb(211,211,211)" stroke-width="0.9999999999999997" fill="rgb(0,0,0)" stroke-dashoffset="0.0" stroke-linecap="butt" stroke-miterlimit="10.0" stroke-dasharray="4.999999999999998,4.999999999999998"><path d="M 780.2048,15.0000 v 535.0000 "/></g><defs></defs><g stroke-linejoin="miter" stroke-opacity="1.0" fill-opacity="0.0" stroke="rgb(211,211,211)" stroke-width="0.9999999999999997" fill="rgb(0,0,0)" stroke-dashoffset="0.0" stroke-linecap="butt" stroke-miterlimit="10.0" stroke-dasharray="4.999999999999998,4.999999999999998"><path d="M 27.7626,550.0000 h 752.4422 "/></g><defs></defs><g stroke-linejoin="miter" stroke-opacity="1.0" fill-opacity="0.0" stroke="rgb(211,211,211)" stroke-width="0.9999999999999997" fill="rgb(0,0,0)" stroke-dashoffset="0.0" stroke-linecap="butt" stroke-miterlimit="10.0" stroke-dasharray="4.999999999999998,4.999999999999998"><path d="M 27.7626,416.2500 h 752.4422 "/></g><defs></defs><g stroke-linejoin="miter" stroke-opacity="1.0" fill-opacity="0.0" stroke="rgb(211,211,211)" stroke-width="0.9999999999999997" fill="rgb(0,0,0)" stroke-dashoffset="0.0" stroke-linecap="butt" stroke-miterlimit="10.0" stroke-dasharray="4.999999999999998,4.999999999999998"><path d="M 27.7626,282.5000 h 752.4422 "/></g><defs></defs><g stroke-linejoin="miter" stroke-opacity="1.0" fill-opacity="0.0" stroke="rgb(211,211,211)" stroke-width="0.9999999999999997" fill="rgb(0,0,0)" stroke-dashoffset="0.0" stroke-linecap="butt" stroke-miterlimit="10.0" stroke-dasharray="4.999999999999998,4.999999999999998"><path d="M 27.7626,148.7500 h 752.4422 "/></g><defs></defs><g stroke-linejoin="miter" stroke-opacity="1.0" fill-opacity="0.0" stroke="rgb(211,211,211)" stroke-width="0.9999999999999997" fill="rgb(0,0,0)" stroke-dashoffset="0.0" stroke-linecap="butt" stroke-miterlimit="10.0" stroke-dasharray="4.999999999999998,4.999999999999998"><path d="M 27.7626,15.0000 h 752.4422 "/></g><defs></defs><g stroke-linejoin="round" stroke-opacity="1.0" fill-opacity="0.0" stroke="rgb(0,0,255)" stroke-width="0.9999999999999997" fill="rgb(0,0,0)" stroke-linecap="round" stroke-miterlimit="10.0"><defs><clipPath id="myClip1"><path d="M 27.7626,15.0000 v 535.0000 h 752.4422 v -535.0000 Z"/></clipPath></defs><g clip-path="url(#myClip1)"><path d="M 28.5150,280.2293 l 0.7524,-12.4187 l 0.7524,-52.3816 l 0.7524,-14.8750 l 0.7524,-59.4798 l 0.7524,39.3560 l 0.7524,3.5038 l 0.7524,18.7352 l 0.7524,90.2331 l 0.7524,-69.0319 l 0.7524,10.0449 l 0.7524,4.4392 l 0.7524,-7.0470 l 0.7524,7.4087 l 0.7524,34.7689 l 0.7524,-62.8972 l 0.7524,-129.5589 l 0.7524,-23.1143 l 0.7524,4.5507 l 0.7524,-15.5207 l 0.7524,107.0649 l 0.7524,-14.4013 l 0.7524,11.4541 l 0.7524,9.0895 l 0.7524,45.9872 l 0.7524,-9.6642 l 0.7524,64.8719 l 0.7524,-50.6528 l 0.7524,5.9265 l 0.7524,-21.6864 l 0.7524,83.9820 l 0.7524,-72.5225 l 0.7524,-37.9737 l 0.7524,35.6851 l 0.7524,-65.0516 l 0.7524,-0.9515 l 0.7524,88.3865 l 0.7524,4.7681 l 0.7524,-143.9372 l 0.7524,62.0280 l 0.7524,-70.1303 l 0.7524,22.5951 l 0.7524,-39.1865 l 0.7524,48.3978 l 0.7524,55.5322 l 0.7524,23.1335 l 0.7524,-64.7094 l 0.7524,81.2418 l 0.7524,-10.7975 l 0.7524,35.0196 l 0.7524,-28.4757 l 0.7524,13.1068 l 0.7524,-83.1341 l 0.7524,21.9780 l 0.7524,39.7309 l 0.7524,19.3229 l 0.7524,-197.4308 l 0.7524,2.8599 l 0.7524,74.1212 l 0.7524,-7.8806 l 0.7524,-26.3958 l 0.7524,33.6467 l 0.7524,-13.0970 l 0.7524,-4.1173 l 0.7524,78.3869 l 0.7524,-11.3677 l 0.7524,113.7423 l 0.7524,-86.5304 l 0.7524,123.7422 l 0.7524,-56.8362 l 0.7524,-43.7297 l 0.7524,49.6914 l 0.7524,18.9923 l 0.7524,-77.3829 l 0.7524,87.2578 l 0.7524,-20.6776 l 0.7524,-55.1165 l 0.7524,-5.8139 l 0.7524,-23.8112 l 0.7524,18.4686 l 0.7524,-46.6551 l 0.7524,17.1531 l 0.7524,60.7648 l 0.7524,27.2070 l 0.7524,7.8860 l 0.7524,-67.2883 l 0.7524,-3.5582 l 0.7524,5.0405 l 0.7524,53.0383 l 0.7524,3.3212 l 0.7524,18.8821 l 0.7524,3.7836 l 0.7524,26.5339 l 0.7524,25.4076 l 0.7524,-65.8892 l 0.7524,-7.6585 l 0.7524,-50.7682 l 0.7524,0.8734 l 0.7524,23.7278 l 0.7524,49.8401 l 0.7524,-30.1964 l 0.7524,78.1911 l 0.7524,-6.5864 l 0.7524,-17.4952 l 0.7524,-108.0233 l 0.7524,42.3696 l 0.7524,33.9001 l 0.7524,-39.7440 l 0.7524,-6.2223 l 0.7524,51.3257 l 0.7524,-12.2647 l 0.7524,11.1107 l 0.7524,30.1889 l 0.7524,-52.6827 l 0.7524,29.8164 l 0.7524,1.9730 l 0.7524,-53.9792 l 0.7524,-36.8028 l 0.7524,31.8639 l 0.7524,9.3145 l 0.7524,1.3852 l 0.7524,-33.2694 l 0.7524,41.7830 l 0.7524,-73.1656 l 0.7524,46.7862 l 0.7524,7.2629 l 0.7524,36.2836 l 0.7524,-29.2056 l 0.7524,-12.6750 l 0.7524,35.9742 l 0.7524,-43.0549 l 0.7524,46.2163 l 0.7524,24.9535 l 0.7524,-13.8755 l 0.7524,-28.8669 l 0.7524,-8.5382 l 0.7524,0.3314 l 0.7524,-78.4902 l 0.7524,69.1099 l 0.7524,-54.4896 l 0.7524,21.8237 l 0.7524,42.7091 l 0.7524,12.7143 l 0.7524,-18.3686 l 0.7524,20.7914 l 0.7524,40.7598 l 0.7524,-14.7725 l 0.7524,-36.9218 l 0.7524,9.0085 l 0.7524,-2.8307 l 0.7524,-25.0996 l 0.7524,9.8077 l 0.7524,-24.8976 l 0.7524,46.0117 l 0.7524,-19.7651 l 0.7524,29.7537 l 0.7524,-35.1685 l 0.7524,-49.9912 l 0.7524,20.6060 l 0.7524,45.7295 l 0.7524,46.1071 l 0.7524,1.3141 l 0.7524,-63.4303 l 0.7524,73.6738 l 0.7524,-54.5322 l 0.7524,20.0568 l 0.7524,-84.1636 l 0.7524,-34.4825 l 0.7524,181.8174 l 0.7524,-13.4626 l 0.7524,-18.7539 l 0.7524,-75.5072 l 0.7524,46.7138 l 0.7524,-51.3284 l 0.7524,68.9664 l 0.7524,-5.0801 l 0.7524,11.0357 l 0.7524,12.5945 l 0.7524,-43.5791 l 0.7524,3.2687 l 0.7524,-34.0088 l 0.7524,-21.0386 l 0.7524,45.6277 l 0.7524,-51.0528 l 0.7524,20.8206 l 0.7524,21.6393 l 0.7524,-81.2632 l 0.7524,45.4263 l 0.7524,-41.0915 l 0.7524,-24.4706 l 0.7524,79.3892 l 0.7524,-16.5028 l 0.7524,-21.1779 l 0.7524,-37.4745 l 0.7524,-11.1686 l 0.7524,55.8403 l 0.7524,52.8394 l 0.7524,-44.7563 l 0.7524,-108.1708 l 0.7524,83.6926 l 0.7524,77.2755 l 0.7524,27.8269 l 0.7524,-50.2537 l 0.7524,33.4651 l 0.7524,7.5298 l 0.7524,64.8586 l 0.7524,-25.2014 l 0.7524,15.3428 l 0.7524,-72.0983 l 0.7524,-20.1556 l 0.7524,-18.0754 l 0.7524,4.8664 l 0.7524,113.6053 l 0.7524,-5.6676 l 0.7524,-9.8857 l 0.7524,1.4086 l 0.7524,-179.7329 l 0.7524,8.9568 l 0.7524,82.3726 l 0.7524,-78.0994 l 0.7524,77.3549 l 0.7524,-12.3052 l 0.7524,60.7274 l 0.7524,-70.9235 l 0.7524,-73.7663 l 0.7524,-32.2238 l 0.7524,72.6650 l 0.7524,-10.1534 l 0.7524,-50.0393 l 0.7524,88.3934 l 0.7524,-7.7930 l 0.7524,0.8551 l 0.7524,-3.2337 l 0.7524,1.1732 l 0.7524,22.6050 l 0.7524,-47.7464 l 0.7524,-18.1887 l 0.7524,19.7057 l 0.7524,59.8738 l 0.7524,-28.7511 l 0.7524,88.3435 l 0.7524,-27.7974 l 0.7524,-40.6887 l 0.7524,-46.6851 l 0.7524,-57.7248 l 0.7524,37.3673 l 0.7524,3.4191 l 0.7524,-52.9744 l 0.7524,56.7695 l 0.7524,57.5537 l 0.7524,13.6184 l 0.7524,-17.6656 l 0.7524,-8.6041 l 0.7524,8.7275 l 0.7524,0.6587 l 0.7524,-35.7418 l 0.7524,109.0809 l 0.7524,65.6247 l 0.7524,-26.4243 l 0.7524,-14.5363 l 0.7524,25.8904 l 0.7524,-3.3228 l 0.7524,-61.1329 l 0.7524,65.8998 l 0.7524,-20.8486 l 0.7524,39.4586 l 0.7524,-46.4749 l 0.7524,21.7608 l 0.7524,-59.2633 l 0.7524,-3.3221 l 0.7524,33.9482 l 0.7524,-7.3816 l 0.7524,-10.4269 l 0.7524,26.7171 l 0.7524,-57.5191 l 0.7524,18.3862 l 0.7524,76.0356 l 0.7524,64.0689 l 0.7524,-56.2759 l 0.7524,-7.4598 l 0.7524,-70.4517 l 0.7524,16.9695 l 0.7524,-3.5534 l 0.7524,21.7004 l 0.7524,-15.2419 l 0.7524,34.8566 l 0.7524,-14.9523 l 0.7524,-9.3390 l 0.7524,74.2633 l 0.7524,-31.5108 l 0.7524,-33.1776 l 0.7524,-29.5786 l 0.7524,-48.2015 l 0.7524,36.2189 l 0.7524,6.8117 l 0.7524,3.1626 l 0.7524,79.7745 l 0.7524,52.9590 l 0.7524,-20.5001 l 0.7524,-27.7752 l 0.7524,-58.7204 l 0.7524,11.1833 l 0.7524,20.9103 l 0.7524,61.3822 l 0.7524,-91.3271 l 0.7524,43.1598 l 0.7524,0.8139 l 0.7524,21.0548 l 0.7524,-92.5009 l 0.7524,5.4135 l 0.7524,9.1068 l 0.7524,47.0065 l 0.7524,40.2041 l 0.7524,-21.5611 l 0.7524,10.5265 l 0.7524,-25.7009 l 0.7524,-4.7734 l 0.7524,-44.4329 l 0.7524,49.9727 l 0.7524,28.9305 l 0.7524,-176.2988 l 0.7524,38.6639 l 0.7524,5.4175 l 0.7524,-47.6648 l 0.7524,137.3925 l 0.7524,-52.8114 l 0.7524,-64.6433 l 0.7524,9.2540 l 0.7524,54.3558 l 0.7524,2.2509 l 0.7524,81.6153 l 0.7524,-87.1665 l 0.7524,77.5503 l 0.7524,-43.1159 l 0.7524,-28.1549 l 0.7524,5.9322 l 0.7524,84.7101 l 0.7524,-70.9753 l 0.7524,44.8361 l 0.7524,8.9765 l 0.7524,-35.2474 l 0.7524,3.0323 l 0.7524,19.1402 l 0.7524,46.4193 l 0.7524,-111.7931 l 0.7524,53.5832 l 0.7524,-157.0573 l 0.7524,-9.1965 l 0.7524,79.2471 l 0.7524,-38.5712 l 0.7524,-7.1075 l 0.7524,1.7282 l 0.7524,63.1976 l 0.7524,-10.4761 l 0.7524,3.0116 l 0.7524,11.2479 l 0.7524,-25.8438 l 0.7524,-35.4131 l 0.7524,-40.2082 l 0.7524,-7.7684 l 0.7524,64.0912 l 0.7524,42.6944 l 0.7524,-18.0067 l 0.7524,-3.8526 l 0.7524,-19.1198 l 0.7524,15.7048 l 0.7524,145.8668 l 0.7524,-82.8881 l 0.7524,4.5579 l 0.7524,-31.4744 l 0.7524,-3.4642 l 0.7524,-27.6777 l 0.7524,40.7977 l 0.7524,26.0091 l 0.7524,-15.8208 l 0.7524,-116.7822 l 0.7524,105.1482 l 0.7524,-96.7655 l 0.7524,24.4849 l 0.7524,70.9252 l 0.7524,-102.3409 l 0.7524,70.6566 l 0.7524,52.3674 l 0.7524,-19.8845 l 0.7524,-51.4618 l 0.7524,-50.1917 l 0.7524,41.7113 l 0.7524,30.1790 l 0.7524,-217.9155 l 0.7524,91.2724 l 0.7524,1.5869 l 0.7524,21.2122 l 0.7524,-1.0033 l 0.7524,10.2972 l 0.7524,49.3346 l 0.7524,24.3169 l 0.7524,-41.2947 l 0.7524,33.6559 l 0.7524,-97.7545 l 0.7524,14.7247 l 0.7524,94.1420 l 0.7524,-61.9155 l 0.7524,159.2936 l 0.7524,-29.0026 l 0.7524,-148.2485 l 0.7524,66.6708 l 0.7524,-14.6764 l 0.7524,-61.4199 l 0.7524,37.1482 l 0.7524,0.5854 l 0.7524,42.1172 l 0.7524,-16.9027 l 0.7524,-13.3247 l 0.7524,37.2847 l 0.7524,-49.5568 l 0.7524,34.1280 l 0.7524,-112.8545 l 0.7524,14.2569 l 0.7524,-6.8285 l 0.7524,7.3117 l 0.7524,94.2236 l 0.7524,-88.1420 l 0.7524,36.0220 l 0.7524,43.5186 l 0.7524,-42.6251 l 0.7524,45.7756 l 0.7524,-89.7006 l 0.7524,48.8878 l 0.7524,23.2919 l 0.7524,12.8333 l 0.7524,61.7328 l 0.7524,-1.2000 l 0.7524,-17.2287 l 0.7524,-83.4005 l 0.7524,59.7661 l 0.7524,-29.4841 l 0.7524,21.5362 l 0.7524,-12.6947 l 0.7524,-15.8571 l 0.7524,24.5276 l 0.7524,-71.5526 l 0.7524,-36.6679 l 0.7524,76.8832 l 0.7524,-4.5769 l 0.7524,70.0703 l 0.7524,-37.9817 l 0.7524,7.7215 l 0.7524,-5.0170 l 0.7524,-74.5828 l 0.7524,2.4480 l 0.7524,77.7485 l 0.7524,-20.9061 l 0.7524,10.2570 l 0.7524,28.6803 l 0.7524,16.4560 l 0.7524,-24.5941 l 0.7524,-73.8724 l 0.7524,-44.0927 l 0.7524,-31.1921 l 0.7524,13.3319 l 0.7524,-15.6806 l 0.7524,-3.8837 l 0.7524,-9.1415 l 0.7524,-15.8127 l 0.7524,128.3884 l 0.7524,19.1038 l 0.7524,-21.3340 l 0.7524,42.4700 l 0.7524,-115.8162 l 0.7524,10.7889 l 0.7524,106.3836 l 0.7524,-34.5189 l 0.7524,-7.0527 l 0.7524,-14.3229 l 0.7524,77.1278 l 0.7524,-10.3691 l 0.7524,-19.7040 l 0.7524,29.8971 l 0.7524,-59.6869 l 0.7524,38.0591 l 0.7524,-51.2037 l 0.7524,2.7055 l 0.7524,-27.7246 l 0.7524,8.5907 l 0.7524,55.4407 l 0.7524,-46.9695 l 0.7524,72.2973 l 0.7524,-37.1517 l 0.7524,20.8170 l 0.7524,-69.7635 l 0.7524,65.9309 l 0.7524,-40.0903 l 0.7524,-9.0198 l 0.7524,64.1576 l 0.7524,-39.9535 l 0.7524,37.5934 l 0.7524,30.7179 l 0.7524,8.0382 l 0.7524,-69.8006 l 0.7524,-20.6131 l 0.7524,110.4632 l 0.7524,-56.9617 l 0.7524,22.8223 l 0.7524,-22.5592 l 0.7524,58.2828 l 0.7524,-23.6562 l 0.7524,-104.4687 l 0.7524,66.2399 l 0.7524,-36.5823 l 0.7524,-10.2709 l 0.7524,12.7075 l 0.7524,-59.6133 l 0.7524,136.1496 l 0.7524,-27.1150 l 0.7524,-61.0208 l 0.7524,61.0106 l 0.7524,10.5599 l 0.7524,27.0362 l 0.7524,-0.9635 l 0.7524,28.8178 l 0.7524,41.7226 l 0.7524,-21.7293 l 0.7524,-25.3176 l 0.7524,31.7215 l 0.7524,-2.1970 l 0.7524,27.3675 l 0.7524,-120.1766 l 0.7524,-29.2610 l 0.7524,-19.9497 l 0.7524,27.7802 l 0.7524,-10.9678 l 0.7524,27.3962 l 0.7524,39.6149 l 0.7524,-39.7130 l 0.7524,-4.0326 l 0.7524,-20.8997 l 0.7524,23.9197 l 0.7524,-13.8010 l 0.7524,-20.4838 l 0.7524,14.2752 l 0.7524,58.7154 l 0.7524,-33.0233 l 0.7524,61.2658 l 0.7524,-25.4654 l 0.7524,-41.9257 l 0.7524,-10.0789 l 0.7524,29.7786 l 0.7524,1.7083 l 0.7524,-92.6791 l 0.7524,-30.8670 l 0.7524,71.6511 l 0.7524,-45.1094 l 0.7524,-91.4560 l 0.7524,65.2637 l 0.7524,-4.9471 l 0.7524,65.3070 l 0.7524,-52.5258 l 0.7524,3.3772 l 0.7524,18.0228 l 0.7524,-26.4275 l 0.7524,50.8727 l 0.7524,21.0148 l 0.7524,-13.5763 l 0.7524,-3.5834 l 0.7524,40.4616 l 0.7524,18.0926 l 0.7524,-4.7891 l 0.7524,-21.4599 l 0.7524,-8.7879 l 0.7524,2.7815 l 0.7524,-8.5423 l 0.7524,-6.2209 l 0.7524,45.7910 l 0.7524,14.2724 l 0.7524,13.5213 l 0.7524,-21.6043 l 0.7524,150.5991 l 0.7524,24.7545 l 0.7524,-38.4372 l 0.7524,-32.1639 l 0.7524,-22.8978 l 0.7524,31.1889 l 0.7524,-46.6844 l 0.7524,61.4076 l 0.7524,-97.0615 l 0.7524,33.3078 l 0.7524,101.1296 l 0.7524,-30.1924 l 0.7524,-66.9101 l 0.7524,19.5093 l 0.7524,7.4777 l 0.7524,-68.0503 l 0.7524,-40.2725 l 0.7524,-0.4440 l 0.7524,84.3879 l 0.7524,-48.8111 l 0.7524,2.7987 l 0.7524,40.0705 l 0.7524,-65.0722 l 0.7524,20.6502 l 0.7524,-51.5956 l 0.7524,-5.2972 l 0.7524,-73.2468 l 0.7524,0.1322 l 0.7524,93.5972 l 0.7524,9.7728 l 0.7524,1.6477 l 0.7524,-41.1581 l 0.7524,107.7048 l 0.7524,44.9084 l 0.7524,-39.4231 l 0.7524,56.2625 l 0.7524,-61.6575 l 0.7524,-53.7241 l 0.7524,9.8674 l 0.7524,17.3812 l 0.7524,-55.2729 l 0.7524,-4.3393 l 0.7524,110.3144 l 0.7524,-82.9928 l 0.7524,-89.1129 l 0.7524,-22.8814 l 0.7524,83.8040 l 0.7524,19.4985 l 0.7524,68.6057 l 0.7524,15.8077 l 0.7524,24.1992 l 0.7524,-75.0991 l 0.7524,14.4046 l 0.7524,-16.2788 l 0.7524,-21.7205 l 0.7524,21.2219 l 0.7524,-24.8156 l 0.7524,-52.1967 l 0.7524,137.2201 l 0.7524,-89.8715 l 0.7524,20.5614 l 0.7524,-30.7745 l 0.7524,69.0392 l 0.7524,-54.3090 l 0.7524,-17.0260 l 0.7524,-0.2478 l 0.7524,18.1584 l 0.7524,-48.0766 l 0.7524,95.5915 l 0.7524,-31.4248 l 0.7524,5.5964 l 0.7524,-4.7135 l 0.7524,-56.5387 l 0.7524,0.8942 l 0.7524,-63.3392 l 0.7524,67.8981 l 0.7524,-30.3618 l 0.7524,74.3198 l 0.7524,39.1886 l 0.7524,-78.6232 l 0.7524,-21.0690 l 0.7524,22.2225 l 0.7524,-3.9891 l 0.7524,-26.6079 l 0.7524,-47.4195 l 0.7524,25.9927 l 0.7524,-5.8631 l 0.7524,39.0901 l 0.7524,36.2080 l 0.7524,17.3208 l 0.7524,-54.2232 l 0.7524,10.9170 l 0.7524,-38.3838 l 0.7524,-14.0757 l 0.7524,121.2563 l 0.7524,-39.7406 l 0.7524,126.1921 l 0.7524,-1.6727 l 0.7524,-117.6082 l 0.7524,51.8489 l 0.7524,44.6211 l 0.7524,-8.7098 l 0.7524,54.0495 l 0.7524,-41.1758 l 0.7524,-113.0203 l 0.7524,23.8277 l 0.7524,37.8274 l 0.7524,11.6664 l 0.7524,75.5479 l 0.7524,-38.8070 l 0.7524,-22.0191 l 0.7524,10.3766 l 0.7524,-48.0216 l 0.7524,-18.4016 l 0.7524,102.1713 l 0.7524,-49.6233 l 0.7524,-59.8945 l 0.7524,-20.3757 l 0.7524,63.0572 l 0.7524,9.9859 l 0.7524,-60.5889 l 0.7524,-40.5798 l 0.7524,114.8514 l 0.7524,-77.2288 l 0.7524,52.2698 l 0.7524,-24.7910 l 0.7524,35.0706 l 0.7524,-2.3181 l 0.7524,-219.8104 l 0.7524,-6.3389 l 0.7524,58.6700 l 0.7524,-27.8482 l 0.7524,-65.0513 l 0.7524,27.9143 l 0.7524,-27.7149 l 0.7524,23.1210 l 0.7524,208.5258 l 0.7524,-8.7135 l 0.7524,24.0909 l 0.7524,30.3610 l 0.7524,-103.1835 l 0.7524,75.3218 l 0.7524,-16.6747 l 0.7524,-43.8019 l 0.7524,-101.9383 l 0.7524,45.4672 l 0.7524,24.6303 l 0.7524,-51.6479 l 0.7524,85.1603 l 0.7524,-33.1249 l 0.7524,75.0475 l 0.7524,-27.0084 l 0.7524,39.6091 l 0.7524,-5.6880 l 0.7524,-100.4781 l 0.7524,35.0114 l 0.7524,-36.0267 l 0.7524,24.9199 l 0.7524,-23.2537 l 0.7524,-14.5664 l 0.7524,-57.9071 l 0.7524,44.4737 l 0.7524,29.9998 l 0.7524,24.0211 l 0.7524,8.2186 l 0.7524,44.0527 l 0.7524,-69.3242 l 0.7524,-7.2732 l 0.7524,-7.0333 l 0.7524,-4.1732 l 0.7524,47.8098 l 0.7524,-37.1362 l 0.7524,-26.9109 l 0.7524,76.9245 l 0.7524,-76.0795 l 0.7524,20.7871 l 0.7524,-51.5769 l 0.7524,18.2576 l 0.7524,-39.8774 l 0.7524,23.8702 l 0.7524,40.7712 l 0.7524,-7.8246 l 0.7524,2.1976 l 0.7524,61.8419 l 0.7524,-15.0731 l 0.7524,-35.9058 l 0.7524,86.4385 l 0.7524,-22.7611 l 0.7524,-18.2491 l 0.7524,-22.3335 l 0.7524,50.1435 l 0.7524,-38.8851 l 0.7524,133.1930 l 0.7524,2.3589 l 0.7524,-69.1147 l 0.7524,-21.4951 l 0.7524,84.4133 l 0.7524,-0.8281 l 0.7524,8.9926 l 0.7524,-41.4710 l 0.7524,-56.3340 l 0.7524,22.6896 l 0.7524,-49.7233 l 0.7524,101.8921 l 0.7524,31.7407 l 0.7524,-7.5257 l 0.7524,-38.4851 l 0.7524,12.2116 l 0.7524,-64.6431 l 0.7524,24.6470 l 0.7524,-9.5919 l 0.7524,-9.8496 l 0.7524,26.6922 l 0.7524,14.5153 l 0.7524,50.1981 l 0.7524,-37.6476 l 0.7524,-79.8031 l 0.7524,6.4223 l 0.7524,-46.3791 l 0.7524,-1.9398 l 0.7524,52.9225 l 0.7524,-48.2301 l 0.7524,8.6966 l 0.7524,63.4176 l 0.7524,46.5673 l 0.7524,-43.6828 l 0.7524,2.9347 l 0.7524,78.3574 l 0.7524,1.6219 l 0.7524,33.3979 l 0.7524,-9.6390 l 0.7524,-12.0857 l 0.7524,-46.4669 l 0.7524,22.8608 l 0.7524,43.3569 l 0.7524,-29.3403 l 0.7524,-43.1066 l 0.7524,11.2406 l 0.7524,26.9446 l 0.7524,55.1383 l 0.7524,-109.0746 l 0.7524,94.2022 l 0.7524,-65.8353 l 0.7524,-76.3874 l 0.7524,208.0148 l 0.7524,26.5883 l 0.7524,-66.1945 l 0.7524,67.8523 l 0.7524,-162.1939 l 0.7524,-57.5050 l 0.7524,-13.6128 l 0.7524,14.4276 l 0.7524,83.7061 l 0.7524,-31.2076 l 0.7524,-50.8302 l 0.7524,9.5457 l 0.7524,-8.8122 l 0.7524,51.5111 l 0.7524,26.8478 l 0.7524,-33.4874 l 0.7524,13.0129 l 0.7524,26.1303 l 0.7524,-73.3721 l 0.7524,-15.8645 l 0.7524,108.0305 l 0.7524,5.4105 l 0.7524,-90.6566 l 0.7524,-48.3997 l 0.7524,67.5533 l 0.7524,39.1542 l 0.7524,31.6820 l 0.7524,-20.8215 l 0.7524,-84.9366 l 0.7524,46.3685 l 0.7524,13.6257 l 0.7524,-52.0714 l 0.7524,-11.5444 l 0.7524,10.5563 l 0.7524,35.6969 l 0.7524,-27.9034 l 0.7524,21.9798 l 0.7524,-14.8504 l 0.7524,59.9567 l 0.7524,-86.4789 l 0.7524,21.2526 l 0.7524,45.7053 l 0.7524,-14.7850 l 0.7524,-20.2076 l 0.7524,24.0249 l 0.7524,-43.7322 l 0.7524,-58.6260 l 0.7524,26.1034 l 0.7524,78.6729 l 0.7524,23.0318 l 0.7524,-28.1520 l 0.7524,-37.5256 l 0.7524,133.9457 l 0.7524,-12.3800 l 0.7524,22.0510 l 0.7524,53.5305 l 0.7524,-118.6776 l 0.7524,-28.6981 l 0.7524,51.3417 l 0.7524,3.1765 l 0.7524,-129.4295 l 0.7524,47.5975 l 0.7524,-16.7004 l 0.7524,12.0771 l 0.7524,-52.0833 l 0.7524,17.0908 l 0.7524,40.8781 l 0.7524,3.1634 l 0.7524,56.5105 l 0.7524,31.9355 l 0.7524,-8.1152 l 0.7524,15.9199 l 0.7524,-13.7017 l 0.7524,-83.7932 l 0.7524,37.7262 l 0.7524,49.3197 l 0.7524,-181.8340 l 0.7524,-30.6210 l 0.7524,62.5641 l 0.7524,1.6773 l 0.7524,-109.9636 l 0.7524,40.3804 l 0.7524,5.4470 l 0.7524,-7.5011 l 0.7524,84.2953 l 0.7524,-32.3658 l 0.7524,2.9478 l 0.7524,29.9331 l 0.7524,26.9777 l 0.7524,11.6333 l 0.7524,-63.2494 l 0.7524,65.0352 l 0.7524,-71.4907 l 0.7524,-38.5027 l 0.7524,57.9516 l 0.7524,-31.4667 l 0.7524,-27.0763 l 0.7524,16.7513 l 0.7524,23.8175 l 0.7524,-47.1151 l 0.7524,-18.9815 l 0.7524,-13.8062 l 0.7524,15.8777 l 0.7524,-72.7768 l 0.7524,141.6275 l 0.7524,5.5558 l 0.7524,1.7916 l 0.7524,13.7717 l 0.7524,-180.3798 l 0.7524,42.7202 l 0.7524,-27.9001 l 0.7524,46.2201 l 0.7524,-32.2725 l 0.7524,20.1562 l 0.7524,51.1032 l 0.7524,-54.7082 l 0.7524,2.4613 l 0.7524,35.3239 l 0.7524,-57.3327 l 0.7524,23.1909 l 0.7524,33.5722 l 0.7524,23.2289 l 0.7524,-61.2170 l 0.7524,-3.8004 l 0.7524,93.6989 l 0.7524,-29.8783 l 0.7524,23.9136 l 0.7524,-17.6732 l 0.7524,53.7360 l 0.7524,-17.7492 l 0.7524,-93.7234 l 0.7524,45.1817 l 0.7524,5.6210 l 0.7524,-41.0641 l 0.7524,57.3660 l 0.7524,-63.0192 l 0.7524,43.1660 l 0.7524,-4.7263 l 0.7524,34.4083 l 0.7524,13.1056 l 0.7524,-22.3142 l 0.7524,9.0922 l 0.7524,-15.4229 l 0.7524,-16.9549 l 0.7524,65.3812 l 0.7524,32.5195 l 0.7524,-59.8319 l 0.7524,21.6345 l 0.7524,-46.9714 l 0.7524,28.0781 l 0.7524,-0.6742 l 0.7524,6.5622 l 0.7524,52.6202 l 0.7524,40.4172 l 0.7524,-21.1381 l 0.7524,-10.6491 l 0.7524,-35.4071 l 0.7524,24.3173 l 0.7524,-40.1683 l 0.7524,-12.8541 l 0.7524,66.7099 l 0.7524,-6.7384 l 0.7524,17.8592 l 0.7524,-50.5852 l 0.7524,75.2364 l 0.7524,20.8571 l 0.7524,-1.9341 l 0.7524,51.6436 l 0.7524,-37.2201 l 0.7524,0.8734 l 0.7524,-29.3517 l 0.7524,-41.8708 l 0.7524,-26.2371 l 0.7524,-51.2647 l 0.7524,-42.4794 l 0.7524,30.6783 l 0.7524,6.2908 l 0.7524,8.7595 l 0.7524,29.9889 l 0.7524,-65.9838 "/></g></g><defs></defs><g stroke-linejoin="miter" stroke-opacity="1.0" fill-opacity="0.0" stroke="rgb(0,0,0)" stroke-width="0.9999999999999997" fill="rgb(0,0,0)" stroke-linecap="square" stroke-miterlimit="10.0"><path d="M 27.7626,550.0000 v -535.0000 "/></g><defs></defs><g stroke-linejoin="miter" stroke-opacity="1.0" fill-opacity="0.0" stroke="rgb(0,0,0)" stroke-width="0.9999999999999997" fill="rgb(0,0,0)" stroke-linecap="butt" stroke-miterlimit="10.0"><path d="M 27.7626,550.0000 h 2.0000 "/></g><defs></defs><g stroke-linejoin="miter" stroke-opacity="1.0" fill-opacity="0.0" stroke="rgb(0,0,0)" stroke-width="0.9999999999999997" fill="rgb(0,0,0)" stroke-linecap="butt" stroke-miterlimit="10.0"><path d="M 27.7626,536.6250 h 2.0000 "/></g><defs></defs><g stroke-linejoin="miter" stroke-opacity="1.0" fill-opacity="0.0" stroke="rgb(0,0,0)" stroke-width="0.9999999999999997" fill="rgb(0,0,0)" stroke-linecap="butt" stroke-miterlimit="10.0"><path d="M 27.7626,523.2500 h 2.0000 "/></g><defs></defs><g stroke-linejoin="miter" stroke-opacity="1.0" fill-opacity="0.0" stroke="rgb(0,0,0)" stroke-width="0.9999999999999997" fill="rgb(0,0,0)" stroke-linecap="butt" stroke-miterlimit="10.0"><path d="M 27.7626,509.8750 h 2.0000 "/></g><defs></defs><g stroke-linejoin="miter" stroke-opacity="1.0" fill-opacity="0.0" stroke="rgb(0,0,0)" stroke-width="0.9999999999999997" fill="rgb(0,0,0)" stroke-linecap="butt" stroke-miterlimit="10.0"><path d="M 27.7626,496.5000 h 2.0000 "/></g><defs></defs><g stroke-linejoin="miter" stroke-opacity="1.0" fill-opacity="0.0" stroke="rgb(0,0,0)" stroke-width="0.9999999999999997" fill="rgb(0,0,0)" stroke-linecap="butt" stroke-miterlimit="10.0"><path d="M 27.7626,483.1250 h 2.0000 "/></g><defs></defs><g stroke-linejoin="miter" stroke-opacity="1.0" fill-opacity="0.0" stroke="rgb(0,0,0)" stroke-width="0.9999999999999997" fill="rgb(0,0,0)" stroke-linecap="butt" stroke-miterlimit="10.0"><path d="M 27.7626,469.7500 h 2.0000 "/></g><defs></defs><g stroke-linejoin="miter" stroke-opacity="1.0" fill-opacity="0.0" stroke="rgb(0,0,0)" stroke-width="0.9999999999999997" fill="rgb(0,0,0)" stroke-linecap="butt" stroke-miterlimit="10.0"><path d="M 27.7626,456.3750 h 2.0000 "/></g><defs></defs><g stroke-linejoin="miter" stroke-opacity="1.0" fill-opacity="0.0" stroke="rgb(0,0,0)" stroke-width="0.9999999999999997" fill="rgb(0,0,0)" stroke-linecap="butt" stroke-miterlimit="10.0"><path d="M 27.7626,443.0000 h 2.0000 "/></g><defs></defs><g stroke-linejoin="miter" stroke-opacity="1.0" fill-opacity="0.0" stroke="rgb(0,0,0)" stroke-width="0.9999999999999997" fill="rgb(0,0,0)" stroke-linecap="butt" stroke-miterlimit="10.0"><path d="M 27.7626,429.6250 h 2.0000 "/></g><defs></defs><g stroke-linejoin="miter" stroke-opacity="1.0" fill-opacity="0.0" stroke="rgb(0,0,0)" stroke-width="0.9999999999999997" fill="rgb(0,0,0)" stroke-linecap="butt" stroke-miterlimit="10.0"><path d="M 27.7626,416.2500 h 2.0000 "/></g><defs></defs><g stroke-linejoin="miter" stroke-opacity="1.0" fill-opacity="0.0" stroke="rgb(0,0,0)" stroke-width="0.9999999999999997" fill="rgb(0,0,0)" stroke-linecap="butt" stroke-miterlimit="10.0"><path d="M 27.7626,402.8750 h 2.0000 "/></g><defs></defs><g stroke-linejoin="miter" stroke-opacity="1.0" fill-opacity="0.0" stroke="rgb(0,0,0)" stroke-width="0.9999999999999997" fill="rgb(0,0,0)" stroke-linecap="butt" stroke-miterlimit="10.0"><path d="M 27.7626,389.5000 h 2.0000 "/></g><defs></defs><g stroke-linejoin="miter" stroke-opacity="1.0" fill-opacity="0.0" stroke="rgb(0,0,0)" stroke-width="0.9999999999999997" fill="rgb(0,0,0)" stroke-linecap="butt" stroke-miterlimit="10.0"><path d="M 27.7626,376.1250 h 2.0000 "/></g><defs></defs><g stroke-linejoin="miter" stroke-opacity="1.0" fill-opacity="0.0" stroke="rgb(0,0,0)" stroke-width="0.9999999999999997" fill="rgb(0,0,0)" stroke-linecap="butt" stroke-miterlimit="10.0"><path d="M 27.7626,362.7500 h 2.0000 "/></g><defs></defs><g stroke-linejoin="miter" stroke-opacity="1.0" fill-opacity="0.0" stroke="rgb(0,0,0)" stroke-width="0.9999999999999997" fill="rgb(0,0,0)" stroke-linecap="butt" stroke-miterlimit="10.0"><path d="M 27.7626,349.3750 h 2.0000 "/></g><defs></defs><g stroke-linejoin="miter" stroke-opacity="1.0" fill-opacity="0.0" stroke="rgb(0,0,0)" stroke-width="0.9999999999999997" fill="rgb(0,0,0)" stroke-linecap="butt" stroke-miterlimit="10.0"><path d="M 27.7626,336.0000 h 2.0000 "/></g><defs></defs><g stroke-linejoin="miter" stroke-opacity="1.0" fill-opacity="0.0" stroke="rgb(0,0,0)" stroke-width="0.9999999999999997" fill="rgb(0,0,0)" stroke-linecap="butt" stroke-miterlimit="10.0"><path d="M 27.7626,322.6250 h 2.0000 "/></g><defs></defs><g stroke-linejoin="miter" stroke-opacity="1.0" fill-opacity="0.0" stroke="rgb(0,0,0)" stroke-width="0.9999999999999997" fill="rgb(0,0,0)" stroke-linecap="butt" stroke-miterlimit="10.0"><path d="M 27.7626,309.2500 h 2.0000 "/></g><defs></defs><g stroke-linejoin="miter" stroke-opacity="1.0" fill-opacity="0.0" stroke="rgb(0,0,0)" stroke-width="0.9999999999999997" fill="rgb(0,0,0)" stroke-linecap="butt" stroke-miterlimit="10.0"><path d="M 27.7626,295.8750 h 2.0000 "/></g><defs></defs><g stroke-linejoin="miter" stroke-opacity="1.0" fill-opacity="0.0" stroke="rgb(0,0,0)" stroke-width="0.9999999999999997" fill="rgb(0,0,0)" stroke-linecap="butt" stroke-miterlimit="10.0"><path d="M 27.7626,282.5000 h 2.0000 "/></g><defs></defs><g stroke-linejoin="miter" stroke-opacity="1.0" fill-opacity="0.0" stroke="rgb(0,0,0)" stroke-width="0.9999999999999997" fill="rgb(0,0,0)" stroke-linecap="butt" stroke-miterlimit="10.0"><path d="M 27.7626,269.1250 h 2.0000 "/></g><defs></defs><g stroke-linejoin="miter" stroke-opacity="1.0" fill-opacity="0.0" stroke="rgb(0,0,0)" stroke-width="0.9999999999999997" fill="rgb(0,0,0)" stroke-linecap="butt" stroke-miterlimit="10.0"><path d="M 27.7626,255.7500 h 2.0000 "/></g><defs></defs><g stroke-linejoin="miter" stroke-opacity="1.0" fill-opacity="0.0" stroke="rgb(0,0,0)" stroke-width="0.9999999999999997" fill="rgb(0,0,0)" stroke-linecap="butt" stroke-miterlimit="10.0"><path d="M 27.7626,242.3750 h 2.0000 "/></g><defs></defs><g stroke-linejoin="miter" stroke-opacity="1.0" fill-opacity="0.0" stroke="rgb(0,0,0)" stroke-width="0.9999999999999997" fill="rgb(0,0,0)" stroke-linecap="butt" stroke-miterlimit="10.0"><path d="M 27.7626,229.0000 h 2.0000 "/></g><defs></defs><g stroke-linejoin="miter" stroke-opacity="1.0" fill-opacity="0.0" stroke="rgb(0,0,0)" stroke-width="0.9999999999999997" fill="rgb(0,0,0)" stroke-linecap="butt" stroke-miterlimit="10.0"><path d="M 27.7626,215.6250 h 2.0000 "/></g><defs></defs><g stroke-linejoin="miter" stroke-opacity="1.0" fill-opacity="0.0" stroke="rgb(0,0,0)" stroke-width="0.9999999999999997" fill="rgb(0,0,0)" stroke-linecap="butt" stroke-miterlimit="10.0"><path d="M 27.7626,202.2500 h 2.0000 "/></g><defs></defs><g stroke-linejoin="miter" stroke-opacity="1.0" fill-opacity="0.0" stroke="rgb(0,0,0)" stroke-width="0.9999999999999997" fill="rgb(0,0,0)" stroke-linecap="butt" stroke-miterlimit="10.0"><path d="M 27.7626,188.8750 h 2.0000 "/></g><defs></defs><g stroke-linejoin="miter" stroke-opacity="1.0" fill-opacity="0.0" stroke="rgb(0,0,0)" stroke-width="0.9999999999999997" fill="rgb(0,0,0)" stroke-linecap="butt" stroke-miterlimit="10.0"><path d="M 27.7626,175.5000 h 2.0000 "/></g><defs></defs><g stroke-linejoin="miter" stroke-opacity="1.0" fill-opacity="0.0" stroke="rgb(0,0,0)" stroke-width="0.9999999999999997" fill="rgb(0,0,0)" stroke-linecap="butt" stroke-miterlimit="10.0"><path d="M 27.7626,162.1250 h 2.0000 "/></g><defs></defs><g stroke-linejoin="miter" stroke-opacity="1.0" fill-opacity="0.0" stroke="rgb(0,0,0)" stroke-width="0.9999999999999997" fill="rgb(0,0,0)" stroke-linecap="butt" stroke-miterlimit="10.0"><path d="M 27.7626,148.7500 h 2.0000 "/></g><defs></defs><g stroke-linejoin="miter" stroke-opacity="1.0" fill-opacity="0.0" stroke="rgb(0,0,0)" stroke-width="0.9999999999999997" fill="rgb(0,0,0)" stroke-linecap="butt" stroke-miterlimit="10.0"><path d="M 27.7626,135.3750 h 2.0000 "/></g><defs></defs><g stroke-linejoin="miter" stroke-opacity="1.0" fill-opacity="0.0" stroke="rgb(0,0,0)" stroke-width="0.9999999999999997" fill="rgb(0,0,0)" stroke-linecap="butt" stroke-miterlimit="10.0"><path d="M 27.7626,122.0000 h 2.0000 "/></g><defs></defs><g stroke-linejoin="miter" stroke-opacity="1.0" fill-opacity="0.0" stroke="rgb(0,0,0)" stroke-width="0.9999999999999997" fill="rgb(0,0,0)" stroke-linecap="butt" stroke-miterlimit="10.0"><path d="M 27.7626,108.6250 h 2.0000 "/></g><defs></defs><g stroke-linejoin="miter" stroke-opacity="1.0" fill-opacity="0.0" stroke="rgb(0,0,0)" stroke-width="0.9999999999999997" fill="rgb(0,0,0)" stroke-linecap="butt" stroke-miterlimit="10.0"><path d="M 27.7626,95.2500 h 2.0000 "/></g><defs></defs><g stroke-linejoin="miter" stroke-opacity="1.0" fill-opacity="0.0" stroke="rgb(0,0,0)" stroke-width="0.9999999999999997" fill="rgb(0,0,0)" stroke-linecap="butt" stroke-miterlimit="10.0"><path d="M 27.7626,81.8750 h 2.0000 "/></g><defs></defs><g stroke-linejoin="miter" stroke-opacity="1.0" fill-opacity="0.0" stroke="rgb(0,0,0)" stroke-width="0.9999999999999997" fill="rgb(0,0,0)" stroke-linecap="butt" stroke-miterlimit="10.0"><path d="M 27.7626,68.5000 h 2.0000 "/></g><defs></defs><g stroke-linejoin="miter" stroke-opacity="1.0" fill-opacity="0.0" stroke="rgb(0,0,0)" stroke-width="0.9999999999999997" fill="rgb(0,0,0)" stroke-linecap="butt" stroke-miterlimit="10.0"><path d="M 27.7626,55.1250 h 2.0000 "/></g><defs></defs><g stroke-linejoin="miter" stroke-opacity="1.0" fill-opacity="0.0" stroke="rgb(0,0,0)" stroke-width="0.9999999999999997" fill="rgb(0,0,0)" stroke-linecap="butt" stroke-miterlimit="10.0"><path d="M 27.7626,41.7500 h 2.0000 "/></g><defs></defs><g stroke-linejoin="miter" stroke-opacity="1.0" fill-opacity="0.0" stroke="rgb(0,0,0)" stroke-width="0.9999999999999997" fill="rgb(0,0,0)" stroke-linecap="butt" stroke-miterlimit="10.0"><path d="M 27.7626,28.3750 h 2.0000 "/></g><defs></defs><g stroke-linejoin="miter" stroke-opacity="1.0" fill-opacity="0.0" stroke="rgb(0,0,0)" stroke-width="0.9999999999999997" fill="rgb(0,0,0)" stroke-linecap="butt" stroke-miterlimit="10.0"><path d="M 27.7626,15.0000 h 2.0000 "/></g><defs></defs><g stroke-linejoin="miter" stroke-opacity="1.0" fill-opacity="0.0" stroke="rgb(0,0,0)" stroke-width="0.9999999999999997" fill="rgb(0,0,0)" stroke-linecap="butt" stroke-miterlimit="10.0"><path d="M 27.7626,550.0000 h 5.0000 "/></g><defs></defs><g stroke-linejoin="miter" stroke-opacity="1.0" fill-opacity="0.0" stroke="rgb(0,0,0)" stroke-width="0.9999999999999997" fill="rgb(0,0,0)" stroke-linecap="butt" stroke-miterlimit="10.0"><path d="M 27.7626,416.2500 h 5.0000 "/></g><defs></defs><g stroke-linejoin="miter" stroke-opacity="1.0" fill-opacity="0.0" stroke="rgb(0,0,0)" stroke-width="0.9999999999999997" fill="rgb(0,0,0)" stroke-linecap="butt" stroke-miterlimit="10.0"><path d="M 27.7626,282.5000 h 5.0000 "/></g><defs></defs><g stroke-linejoin="miter" stroke-opacity="1.0" fill-opacity="0.0" stroke="rgb(0,0,0)" stroke-width="0.9999999999999997" fill="rgb(0,0,0)" stroke-linecap="butt" stroke-miterlimit="10.0"><path d="M 27.7626,148.7500 h 5.0000 "/></g><defs></defs><g stroke-linejoin="miter" stroke-opacity="1.0" fill-opacity="0.0" stroke="rgb(0,0,0)" stroke-width="0.9999999999999997" fill="rgb(0,0,0)" stroke-linecap="butt" stroke-miterlimit="10.0"><path d="M 27.7626,15.0000 h 5.0000 "/></g><defs></defs><g stroke-linejoin="bevel" stroke-opacity="0.0" fill-opacity="1.0" stroke="rgb(0,0,0)" stroke-width="0.0" fill="rgb(0,0,0)" stroke-linecap="butt" stroke-miterlimit="10.0"><path d="M 10.0000,553.4454 ZM 10.4307,550.4832 h 2.4160 v 0.6618 h -2.4160 v -0.6618 ZM 13.2668,553.4454 ZM 16.4601,550.9034 v -1.9433 c 0.0000,-0.2731 0.0158,-0.6460 0.0158 -0.6460c 0.0158,-0.3729 0.0368,-0.6460 0.0368 -0.6460h -0.0420 c -0.1261,0.2416 -0.2626,0.4727 -0.2626 0.4727c -0.1366,0.2311 -0.2836,0.4727 -0.2836 0.4727l -1.5651,2.2899 h 2.1008 ZM 16.4601,550.9034 ZM 18.1933,551.5966 h -0.9139 v 1.8487 h -0.8193 v -1.8487 h -3.0147 v -0.5672 l 2.8676,-4.2857 h 0.9664 v 4.1597 h 0.9139 v 0.6933 Z"/></g><defs></defs><g stroke-linejoin="bevel" stroke-opacity="0.0" fill-opacity="1.0" stroke="rgb(0,0,0)" stroke-width="0.0" fill="rgb(0,0,0)" stroke-linecap="butt" stroke-miterlimit="10.0"><path d="M 10.1786,419.6954 ZM 10.6092,416.7332 h 2.4160 v 0.6618 h -2.4160 v -0.6618 ZM 13.4454,419.6954 ZM 13.8655,419.1807 c 0.7563,-0.7563 1.3445,-1.3655 1.3445 -1.3655c 0.5882,-0.6092 0.9874,-1.1292 0.9874 -1.1292c 0.3992,-0.5200 0.6092,-0.9559 0.6092 -0.9559c 0.2101,-0.4359 0.2101,-0.8456 0.2101 -0.8456c 0.0000,-0.5777 -0.3151,-0.9454 -0.3151 -0.9454c -0.3151,-0.3676 -0.9559,-0.3676 -0.9559 -0.3676c -0.4202,-0.0000 -0.7773,0.2363 -0.7773 0.2363c -0.3571,0.2363 -0.6513,0.5725 -0.6513 0.5725l -0.4937,-0.4937 c 0.4202,-0.4622 0.8929,-0.7405 0.8929 -0.7405c 0.4727,-0.2784 1.1345,-0.2784 1.1345 -0.2784c 0.9349,0.0000 1.4706,0.5410 1.4706 0.5410c 0.5357,0.5410 0.5357,1.4338 0.5357 1.4338c 0.0000,0.4727 -0.2048,0.9506 -0.2048 0.9506c -0.2048,0.4779 -0.5672,0.9874 -0.5672 0.9874c -0.3624,0.5095 -0.8613,1.0609 -0.8613 1.0609c -0.4989,0.5515 -1.0977,1.1712 -1.0977 1.1712c 0.2731,-0.0210 0.5672,-0.0420 0.5672 -0.0420c 0.2941,-0.0210 0.5567,-0.0210 0.5567 -0.0210h 1.9433 v 0.7458 h -4.3277 v -0.5147 Z"/></g><defs></defs><g stroke-linejoin="bevel" stroke-opacity="0.0" fill-opacity="1.0" stroke="rgb(0,0,0)" stroke-width="0.0" fill="rgb(0,0,0)" stroke-linecap="butt" stroke-miterlimit="10.0"><path d="M 13.4664,285.9454 ZM 16.0819,286.0714 c -1.0189,-0.0000 -1.5861,-0.9034 -1.5861 -0.9034c -0.5672,-0.9034 -0.5672,-2.5945 -0.5672 -2.5945c 0.0000,-1.6912 0.5672,-2.5735 0.5672 -2.5735c 0.5672,-0.8824 1.5861,-0.8824 1.5861 -0.8824c 1.0084,0.0000 1.5756,0.8824 1.5756 0.8824c 0.5672,0.8824 0.5672,2.5735 0.5672 2.5735c 0.0000,1.6912 -0.5672,2.5945 -0.5672 2.5945c -0.5672,0.9034 -1.5756,0.9034 -1.5756 0.9034ZM 16.0819,286.0714 ZM 16.0819,285.3782 c 0.2941,0.0000 0.5305,-0.1628 0.5305 -0.1628c 0.2363,-0.1628 0.4097,-0.5042 0.4097 -0.5042c 0.1733,-0.3414 0.2679,-0.8718 0.2679 -0.8718c 0.0945,-0.5305 0.0945,-1.2658 0.0945 -1.2658c 0.0000,-0.7353 -0.0945,-1.2605 -0.0945 -1.2605c -0.0945,-0.5252 -0.2679,-0.8561 -0.2679 -0.8561c -0.1733,-0.3309 -0.4097,-0.4884 -0.4097 -0.4884c -0.2363,-0.1576 -0.5305,-0.1576 -0.5305 -0.1576c -0.2941,-0.0000 -0.5357,0.1576 -0.5357 0.1576c -0.2416,0.1576 -0.4149,0.4884 -0.4149 0.4884c -0.1733,0.3309 -0.2679,0.8561 -0.2679 0.8561c -0.0945,0.5252 -0.0945,1.2605 -0.0945 1.2605c 0.0000,1.4706 0.3624,2.1376 0.3624 2.1376c 0.3624,0.6670 0.9506,0.6670 0.9506 0.6670Z"/></g><defs></defs><g stroke-linejoin="bevel" stroke-opacity="0.0" fill-opacity="1.0" stroke="rgb(0,0,0)" stroke-width="0.0" fill="rgb(0,0,0)" stroke-linecap="butt" stroke-miterlimit="10.0"><path d="M 13.3929,152.1954 ZM 13.8130,151.6807 c 0.7563,-0.7563 1.3445,-1.3655 1.3445 -1.3655c 0.5882,-0.6092 0.9874,-1.1292 0.9874 -1.1292c 0.3992,-0.5200 0.6092,-0.9559 0.6092 -0.9559c 0.2101,-0.4359 0.2101,-0.8456 0.2101 -0.8456c 0.0000,-0.5777 -0.3151,-0.9454 -0.3151 -0.9454c -0.3151,-0.3676 -0.9559,-0.3676 -0.9559 -0.3676c -0.4202,-0.0000 -0.7773,0.2363 -0.7773 0.2363c -0.3571,0.2363 -0.6513,0.5725 -0.6513 0.5725l -0.4937,-0.4937 c 0.4202,-0.4622 0.8929,-0.7405 0.8929 -0.7405c 0.4727,-0.2784 1.1345,-0.2784 1.1345 -0.2784c 0.9349,0.0000 1.4706,0.5410 1.4706 0.5410c 0.5357,0.5410 0.5357,1.4338 0.5357 1.4338c 0.0000,0.4727 -0.2048,0.9506 -0.2048 0.9506c -0.2048,0.4779 -0.5672,0.9874 -0.5672 0.9874c -0.3624,0.5095 -0.8613,1.0609 -0.8613 1.0609c -0.4989,0.5515 -1.0977,1.1712 -1.0977 1.1712c 0.2731,-0.0210 0.5672,-0.0420 0.5672 -0.0420c 0.2941,-0.0210 0.5567,-0.0210 0.5567 -0.0210h 1.9433 v 0.7458 h -4.3277 v -0.5147 Z"/></g><defs></defs><g stroke-linejoin="bevel" stroke-opacity="0.0" fill-opacity="1.0" stroke="rgb(0,0,0)" stroke-width="0.0" fill="rgb(0,0,0)" stroke-linecap="butt" stroke-miterlimit="10.0"><path d="M 13.0147,18.4454 ZM 16.2080,15.9034 v -1.9433 c 0.0000,-0.2731 0.0158,-0.6460 0.0158 -0.6460c 0.0158,-0.3729 0.0368,-0.6460 0.0368 -0.6460h -0.0420 c -0.1261,0.2416 -0.2626,0.4727 -0.2626 0.4727c -0.1366,0.2311 -0.2836,0.4727 -0.2836 0.4727l -1.5651,2.2899 h 2.1008 ZM 16.2080,15.9034 ZM 17.9412,16.5966 h -0.9139 v 1.8487 h -0.8193 v -1.8487 h -3.0147 v -0.5672 l 2.8676,-4.2857 h 0.9664 v 4.1597 h 0.9139 v 0.6933 Z"/></g><defs></defs><g stroke-linejoin="miter" stroke-opacity="1.0" fill-opacity="0.0" stroke="rgb(0,0,0)" stroke-width="0.9999999999999997" fill="rgb(0,0,0)" stroke-linecap="square" stroke-miterlimit="10.0"><path d="M 27.7626,550.0000 h 752.4422 "/></g><defs></defs><g stroke-linejoin="miter" stroke-opacity="1.0" fill-opacity="0.0" stroke="rgb(0,0,0)" stroke-width="0.9999999999999997" fill="rgb(0,0,0)" stroke-linecap="butt" stroke-miterlimit="10.0"><path d="M 27.7626,550.0000 v -2.0000 "/></g><defs></defs><g stroke-linejoin="miter" stroke-opacity="1.0" fill-opacity="0.0" stroke="rgb(0,0,0)" stroke-width="0.9999999999999997" fill="rgb(0,0,0)" stroke-linecap="butt" stroke-miterlimit="10.0"><path d="M 103.0068,550.0000 v -2.0000 "/></g><defs></defs><g stroke-linejoin="miter" stroke-opacity="1.0" fill-opacity="0.0" stroke="rgb(0,0,0)" stroke-width="0.9999999999999997" fill="rgb(0,0,0)" stroke-linecap="butt" stroke-miterlimit="10.0"><path d="M 178.2511,550.0000 v -2.0000 "/></g><defs></defs><g stroke-linejoin="miter" stroke-opacity="1.0" fill-opacity="0.0" stroke="rgb(0,0,0)" stroke-width="0.9999999999999997" fill="rgb(0,0,0)" stroke-linecap="butt" stroke-miterlimit="10.0"><path d="M 253.4953,550.0000 v -2.0000 "/></g><defs></defs><g stroke-linejoin="miter" stroke-opacity="1.0" fill-opacity="0.0" stroke="rgb(0,0,0)" stroke-width="0.9999999999999997" fill="rgb(0,0,0)" stroke-linecap="butt" stroke-miterlimit="10.0"><path d="M 328.7395,550.0000 v -2.0000 "/></g><defs></defs><g stroke-linejoin="miter" stroke-opacity="1.0" fill-opacity="0.0" stroke="rgb(0,0,0)" stroke-width="0.9999999999999997" fill="rgb(0,0,0)" stroke-linecap="butt" stroke-miterlimit="10.0"><path d="M 403.9837,550.0000 v -2.0000 "/></g><defs></defs><g stroke-linejoin="miter" stroke-opacity="1.0" fill-opacity="0.0" stroke="rgb(0,0,0)" stroke-width="0.9999999999999997" fill="rgb(0,0,0)" stroke-linecap="butt" stroke-miterlimit="10.0"><path d="M 479.2279,550.0000 v -2.0000 "/></g><defs></defs><g stroke-linejoin="miter" stroke-opacity="1.0" fill-opacity="0.0" stroke="rgb(0,0,0)" stroke-width="0.9999999999999997" fill="rgb(0,0,0)" stroke-linecap="butt" stroke-miterlimit="10.0"><path d="M 554.4722,550.0000 v -2.0000 "/></g><defs></defs><g stroke-linejoin="miter" stroke-opacity="1.0" fill-opacity="0.0" stroke="rgb(0,0,0)" stroke-width="0.9999999999999997" fill="rgb(0,0,0)" stroke-linecap="butt" stroke-miterlimit="10.0"><path d="M 629.7164,550.0000 v -2.0000 "/></g><defs></defs><g stroke-linejoin="miter" stroke-opacity="1.0" fill-opacity="0.0" stroke="rgb(0,0,0)" stroke-width="0.9999999999999997" fill="rgb(0,0,0)" stroke-linecap="butt" stroke-miterlimit="10.0"><path d="M 704.9606,550.0000 v -2.0000 "/></g><defs></defs><g stroke-linejoin="miter" stroke-opacity="1.0" fill-opacity="0.0" stroke="rgb(0,0,0)" stroke-width="0.9999999999999997" fill="rgb(0,0,0)" stroke-linecap="butt" stroke-miterlimit="10.0"><path d="M 780.2048,550.0000 v -2.0000 "/></g><defs></defs><g stroke-linejoin="miter" stroke-opacity="1.0" fill-opacity="0.0" stroke="rgb(0,0,0)" stroke-width="0.9999999999999997" fill="rgb(0,0,0)" stroke-linecap="butt" stroke-miterlimit="10.0"><path d="M 27.7626,550.0000 v -5.0000 "/></g><defs></defs><g stroke-linejoin="miter" stroke-opacity="1.0" fill-opacity="0.0" stroke="rgb(0,0,0)" stroke-width="0.9999999999999997" fill="rgb(0,0,0)" stroke-linecap="butt" stroke-miterlimit="10.0"><path d="M 215.8732,550.0000 v -5.0000 "/></g><defs></defs><g stroke-linejoin="miter" stroke-opacity="1.0" fill-opacity="0.0" stroke="rgb(0,0,0)" stroke-width="0.9999999999999997" fill="rgb(0,0,0)" stroke-linecap="butt" stroke-miterlimit="10.0"><path d="M 403.9837,550.0000 v -5.0000 "/></g><defs></defs><g stroke-linejoin="miter" stroke-opacity="1.0" fill-opacity="0.0" stroke="rgb(0,0,0)" stroke-width="0.9999999999999997" fill="rgb(0,0,0)" stroke-linecap="butt" stroke-miterlimit="10.0"><path d="M 592.0943,550.0000 v -5.0000 "/></g><defs></defs><g stroke-linejoin="miter" stroke-opacity="1.0" fill-opacity="0.0" stroke="rgb(0,0,0)" stroke-width="0.9999999999999997" fill="rgb(0,0,0)" stroke-linecap="butt" stroke-miterlimit="10.0"><path d="M 780.2048,550.0000 v -5.0000 "/></g><defs></defs><g stroke-linejoin="bevel" stroke-opacity="0.0" fill-opacity="1.0" stroke="rgb(0,0,0)" stroke-width="0.0" fill="rgb(0,0,0)" stroke-linecap="butt" stroke-miterlimit="10.0"><path d="M 25.6145,570.0000 ZM 28.2300,570.1261 c -1.0189,-0.0000 -1.5861,-0.9034 -1.5861 -0.9034c -0.5672,-0.9034 -0.5672,-2.5945 -0.5672 -2.5945c 0.0000,-1.6912 0.5672,-2.5735 0.5672 -2.5735c 0.5672,-0.8824 1.5861,-0.8824 1.5861 -0.8824c 1.0084,0.0000 1.5756,0.8824 1.5756 0.8824c 0.5672,0.8824 0.5672,2.5735 0.5672 2.5735c 0.0000,1.6912 -0.5672,2.5945 -0.5672 2.5945c -0.5672,0.9034 -1.5756,0.9034 -1.5756 0.9034ZM 28.2300,570.1261 ZM 28.2300,569.4328 c 0.2941,0.0000 0.5305,-0.1628 0.5305 -0.1628c 0.2363,-0.1628 0.4097,-0.5042 0.4097 -0.5042c 0.1733,-0.3414 0.2679,-0.8718 0.2679 -0.8718c 0.0945,-0.5305 0.0945,-1.2658 0.0945 -1.2658c 0.0000,-0.7353 -0.0945,-1.2605 -0.0945 -1.2605c -0.0945,-0.5252 -0.2679,-0.8561 -0.2679 -0.8561c -0.1733,-0.3309 -0.4097,-0.4884 -0.4097 -0.4884c -0.2363,-0.1576 -0.5305,-0.1576 -0.5305 -0.1576c -0.2941,-0.0000 -0.5357,0.1576 -0.5357 0.1576c -0.2416,0.1576 -0.4149,0.4884 -0.4149 0.4884c -0.1733,0.3309 -0.2679,0.8561 -0.2679 0.8561c -0.0945,0.5252 -0.0945,1.2605 -0.0945 1.2605c 0.0000,1.4706 0.3624,2.1376 0.3624 2.1376c 0.3624,0.6670 0.9506,0.6670 0.9506 0.6670Z"/></g><defs></defs><g stroke-linejoin="bevel" stroke-opacity="0.0" fill-opacity="1.0" stroke="rgb(0,0,0)" stroke-width="0.0" fill="rgb(0,0,0)" stroke-linecap="butt" stroke-miterlimit="10.0"><path d="M 208.4624,570.0000 ZM 208.8826,569.4853 c 0.7563,-0.7563 1.3445,-1.3655 1.3445 -1.3655c 0.5882,-0.6092 0.9874,-1.1292 0.9874 -1.1292c 0.3992,-0.5200 0.6092,-0.9559 0.6092 -0.9559c 0.2101,-0.4359 0.2101,-0.8456 0.2101 -0.8456c 0.0000,-0.5777 -0.3151,-0.9454 -0.3151 -0.9454c -0.3151,-0.3676 -0.9559,-0.3676 -0.9559 -0.3676c -0.4202,-0.0000 -0.7773,0.2363 -0.7773 0.2363c -0.3571,0.2363 -0.6513,0.5725 -0.6513 0.5725l -0.4937,-0.4937 c 0.4202,-0.4622 0.8929,-0.7405 0.8929 -0.7405c 0.4727,-0.2784 1.1345,-0.2784 1.1345 -0.2784c 0.9349,0.0000 1.4706,0.5410 1.4706 0.5410c 0.5357,0.5410 0.5357,1.4338 0.5357 1.4338c 0.0000,0.4727 -0.2048,0.9506 -0.2048 0.9506c -0.2048,0.4779 -0.5672,0.9874 -0.5672 0.9874c -0.3624,0.5095 -0.8613,1.0609 -0.8613 1.0609c -0.4989,0.5515 -1.0977,1.1712 -1.0977 1.1712c 0.2731,-0.0210 0.5672,-0.0420 0.5672 -0.0420c 0.2941,-0.0210 0.5567,-0.0210 0.5567 -0.0210h 1.9433 v 0.7458 h -4.3277 v -0.5147 ZM 213.6830,570.0000 ZM 214.3658,568.6450 c 0.2941,0.3046 0.6985,0.5357 0.6985 0.5357c 0.4044,0.2311 0.9926,0.2311 0.9926 0.2311c 0.3046,0.0000 0.5725,-0.1103 0.5725 -0.1103c 0.2679,-0.1103 0.4674,-0.3099 0.4674 -0.3099c 0.1996,-0.1996 0.3151,-0.4832 0.3151 -0.4832c 0.1155,-0.2836 0.1155,-0.6303 0.1155 -0.6303c 0.0000,-0.6933 -0.3887,-1.0819 -0.3887 -1.0819c -0.3887,-0.3887 -1.0399,-0.3887 -1.0399 -0.3887c -0.3466,-0.0000 -0.5935,0.1050 -0.5935 0.1050c -0.2468,0.1050 -0.5515,0.3046 -0.5515 0.3046l -0.4622,-0.2941 l 0.2206,-3.2248 h 3.3508 v 0.7458 h -2.5945 l -0.1786,1.9853 c 0.2416,-0.1261 0.4832,-0.1996 0.4832 -0.1996c 0.2416,-0.0735 0.5462,-0.0735 0.5462 -0.0735c 0.4307,0.0000 0.8088,0.1261 0.8088 0.1261c 0.3782,0.1261 0.6618,0.3834 0.6618 0.3834c 0.2836,0.2574 0.4464,0.6513 0.4464 0.6513c 0.1628,0.3939 0.1628,0.9401 0.1628 0.9401c 0.0000,0.5462 -0.1891,0.9664 -0.1891 0.9664c -0.1891,0.4202 -0.5042,0.7090 -0.5042 0.7090c -0.3151,0.2889 -0.7195,0.4412 -0.7195 0.4412c -0.4044,0.1523 -0.8456,0.1523 -0.8456 0.1523c -0.3992,-0.0000 -0.7300,-0.0788 -0.7300 -0.0788c -0.3309,-0.0788 -0.5987,-0.2048 -0.5987 -0.2048c -0.2679,-0.1261 -0.4832,-0.2889 -0.4832 -0.2889c -0.2153,-0.1628 -0.3834,-0.3414 -0.3834 -0.3414ZM 218.9036,570.0000 ZM 221.5192,570.1261 c -1.0189,-0.0000 -1.5861,-0.9034 -1.5861 -0.9034c -0.5672,-0.9034 -0.5672,-2.5945 -0.5672 -2.5945c 0.0000,-1.6912 0.5672,-2.5735 0.5672 -2.5735c 0.5672,-0.8824 1.5861,-0.8824 1.5861 -0.8824c 1.0084,0.0000 1.5756,0.8824 1.5756 0.8824c 0.5672,0.8824 0.5672,2.5735 0.5672 2.5735c 0.0000,1.6912 -0.5672,2.5945 -0.5672 2.5945c -0.5672,0.9034 -1.5756,0.9034 -1.5756 0.9034ZM 221.5192,570.1261 ZM 221.5192,569.4328 c 0.2941,0.0000 0.5305,-0.1628 0.5305 -0.1628c 0.2363,-0.1628 0.4097,-0.5042 0.4097 -0.5042c 0.1733,-0.3414 0.2679,-0.8718 0.2679 -0.8718c 0.0945,-0.5305 0.0945,-1.2658 0.0945 -1.2658c 0.0000,-0.7353 -0.0945,-1.2605 -0.0945 -1.2605c -0.0945,-0.5252 -0.2679,-0.8561 -0.2679 -0.8561c -0.1733,-0.3309 -0.4097,-0.4884 -0.4097 -0.4884c -0.2363,-0.1576 -0.5305,-0.1576 -0.5305 -0.1576c -0.2941,-0.0000 -0.5357,0.1576 -0.5357 0.1576c -0.2416,0.1576 -0.4149,0.4884 -0.4149 0.4884c -0.1733,0.3309 -0.2679,0.8561 -0.2679 0.8561c -0.0945,0.5252 -0.0945,1.2605 -0.0945 1.2605c 0.0000,1.4706 0.3624,2.1376 0.3624 2.1376c 0.3624,0.6670 0.9506,0.6670 0.9506 0.6670Z"/></g><defs></defs><g stroke-linejoin="bevel" stroke-opacity="0.0" fill-opacity="1.0" stroke="rgb(0,0,0)" stroke-width="0.0" fill="rgb(0,0,0)" stroke-linecap="butt" stroke-miterlimit="10.0"><path d="M 396.5152,570.0000 ZM 397.1980,568.6450 c 0.2941,0.3046 0.6985,0.5357 0.6985 0.5357c 0.4044,0.2311 0.9926,0.2311 0.9926 0.2311c 0.3046,0.0000 0.5725,-0.1103 0.5725 -0.1103c 0.2679,-0.1103 0.4674,-0.3099 0.4674 -0.3099c 0.1996,-0.1996 0.3151,-0.4832 0.3151 -0.4832c 0.1155,-0.2836 0.1155,-0.6303 0.1155 -0.6303c 0.0000,-0.6933 -0.3887,-1.0819 -0.3887 -1.0819c -0.3887,-0.3887 -1.0399,-0.3887 -1.0399 -0.3887c -0.3466,-0.0000 -0.5935,0.1050 -0.5935 0.1050c -0.2468,0.1050 -0.5515,0.3046 -0.5515 0.3046l -0.4622,-0.2941 l 0.2206,-3.2248 h 3.3508 v 0.7458 h -2.5945 l -0.1786,1.9853 c 0.2416,-0.1261 0.4832,-0.1996 0.4832 -0.1996c 0.2416,-0.0735 0.5462,-0.0735 0.5462 -0.0735c 0.4307,0.0000 0.8088,0.1261 0.8088 0.1261c 0.3782,0.1261 0.6618,0.3834 0.6618 0.3834c 0.2836,0.2574 0.4464,0.6513 0.4464 0.6513c 0.1628,0.3939 0.1628,0.9401 0.1628 0.9401c 0.0000,0.5462 -0.1891,0.9664 -0.1891 0.9664c -0.1891,0.4202 -0.5042,0.7090 -0.5042 0.7090c -0.3151,0.2889 -0.7195,0.4412 -0.7195 0.4412c -0.4044,0.1523 -0.8456,0.1523 -0.8456 0.1523c -0.3992,-0.0000 -0.7300,-0.0788 -0.7300 -0.0788c -0.3309,-0.0788 -0.5987,-0.2048 -0.5987 -0.2048c -0.2679,-0.1261 -0.4832,-0.2889 -0.4832 -0.2889c -0.2153,-0.1628 -0.3834,-0.3414 -0.3834 -0.3414ZM 401.7358,570.0000 ZM 404.3514,570.1261 c -1.0189,-0.0000 -1.5861,-0.9034 -1.5861 -0.9034c -0.5672,-0.9034 -0.5672,-2.5945 -0.5672 -2.5945c 0.0000,-1.6912 0.5672,-2.5735 0.5672 -2.5735c 0.5672,-0.8824 1.5861,-0.8824 1.5861 -0.8824c 1.0084,0.0000 1.5756,0.8824 1.5756 0.8824c 0.5672,0.8824 0.5672,2.5735 0.5672 2.5735c 0.0000,1.6912 -0.5672,2.5945 -0.5672 2.5945c -0.5672,0.9034 -1.5756,0.9034 -1.5756 0.9034ZM 404.3514,570.1261 ZM 404.3514,569.4328 c 0.2941,0.0000 0.5305,-0.1628 0.5305 -0.1628c 0.2363,-0.1628 0.4097,-0.5042 0.4097 -0.5042c 0.1733,-0.3414 0.2679,-0.8718 0.2679 -0.8718c 0.0945,-0.5305 0.0945,-1.2658 0.0945 -1.2658c 0.0000,-0.7353 -0.0945,-1.2605 -0.0945 -1.2605c -0.0945,-0.5252 -0.2679,-0.8561 -0.2679 -0.8561c -0.1733,-0.3309 -0.4097,-0.4884 -0.4097 -0.4884c -0.2363,-0.1576 -0.5305,-0.1576 -0.5305 -0.1576c -0.2941,-0.0000 -0.5357,0.1576 -0.5357 0.1576c -0.2416,0.1576 -0.4149,0.4884 -0.4149 0.4884c -0.1733,0.3309 -0.2679,0.8561 -0.2679 0.8561c -0.0945,0.5252 -0.0945,1.2605 -0.0945 1.2605c 0.0000,1.4706 0.3624,2.1376 0.3624 2.1376c 0.3624,0.6670 0.9506,0.6670 0.9506 0.6670ZM 406.9564,570.0000 ZM 409.5720,570.1261 c -1.0189,-0.0000 -1.5861,-0.9034 -1.5861 -0.9034c -0.5672,-0.9034 -0.5672,-2.5945 -0.5672 -2.5945c 0.0000,-1.6912 0.5672,-2.5735 0.5672 -2.5735c 0.5672,-0.8824 1.5861,-0.8824 1.5861 -0.8824c 1.0084,0.0000 1.5756,0.8824 1.5756 0.8824c 0.5672,0.8824 0.5672,2.5735 0.5672 2.5735c 0.0000,1.6912 -0.5672,2.5945 -0.5672 2.5945c -0.5672,0.9034 -1.5756,0.9034 -1.5756 0.9034ZM 409.5720,570.1261 ZM 409.5720,569.4328 c 0.2941,0.0000 0.5305,-0.1628 0.5305 -0.1628c 0.2363,-0.1628 0.4097,-0.5042 0.4097 -0.5042c 0.1733,-0.3414 0.2679,-0.8718 0.2679 -0.8718c 0.0945,-0.5305 0.0945,-1.2658 0.0945 -1.2658c 0.0000,-0.7353 -0.0945,-1.2605 -0.0945 -1.2605c -0.0945,-0.5252 -0.2679,-0.8561 -0.2679 -0.8561c -0.1733,-0.3309 -0.4097,-0.4884 -0.4097 -0.4884c -0.2363,-0.1576 -0.5305,-0.1576 -0.5305 -0.1576c -0.2941,-0.0000 -0.5357,0.1576 -0.5357 0.1576c -0.2416,0.1576 -0.4149,0.4884 -0.4149 0.4884c -0.1733,0.3309 -0.2679,0.8561 -0.2679 0.8561c -0.0945,0.5252 -0.0945,1.2605 -0.0945 1.2605c 0.0000,1.4706 0.3624,2.1376 0.3624 2.1376c 0.3624,0.6670 0.9506,0.6670 0.9506 0.6670Z"/></g><defs></defs><g stroke-linejoin="bevel" stroke-opacity="0.0" fill-opacity="1.0" stroke="rgb(0,0,0)" stroke-width="0.0" fill="rgb(0,0,0)" stroke-linecap="butt" stroke-miterlimit="10.0"><path d="M 584.7256,570.0000 ZM 586.5848,570.0000 c 0.0420,-0.9454 0.1681,-1.7332 0.1681 -1.7332c 0.1261,-0.7878 0.3519,-1.4968 0.3519 -1.4968c 0.2258,-0.7090 0.5777,-1.3708 0.5777 -1.3708c 0.3519,-0.6618 0.8456,-1.3550 0.8456 -1.3550h -3.3403 v -0.7458 h 4.3172 v 0.5357 c -0.5987,0.7563 -0.9716,1.4496 -0.9716 1.4496c -0.3729,0.6933 -0.5935,1.4128 -0.5935 1.4128c -0.2206,0.7195 -0.3204,1.5231 -0.3204 1.5231c -0.0998,0.8036 -0.1418,1.7805 -0.1418 1.7805h -0.8929 h 0.0000 ZM 589.9462,570.0000 ZM 590.6289,568.6450 c 0.2941,0.3046 0.6985,0.5357 0.6985 0.5357c 0.4044,0.2311 0.9926,0.2311 0.9926 0.2311c 0.3046,0.0000 0.5725,-0.1103 0.5725 -0.1103c 0.2679,-0.1103 0.4674,-0.3099 0.4674 -0.3099c 0.1996,-0.1996 0.3151,-0.4832 0.3151 -0.4832c 0.1155,-0.2836 0.1155,-0.6303 0.1155 -0.6303c 0.0000,-0.6933 -0.3887,-1.0819 -0.3887 -1.0819c -0.3887,-0.3887 -1.0399,-0.3887 -1.0399 -0.3887c -0.3466,-0.0000 -0.5935,0.1050 -0.5935 0.1050c -0.2468,0.1050 -0.5515,0.3046 -0.5515 0.3046l -0.4622,-0.2941 l 0.2206,-3.2248 h 3.3508 v 0.7458 h -2.5945 l -0.1786,1.9853 c 0.2416,-0.1261 0.4832,-0.1996 0.4832 -0.1996c 0.2416,-0.0735 0.5462,-0.0735 0.5462 -0.0735c 0.4307,0.0000 0.8088,0.1261 0.8088 0.1261c 0.3782,0.1261 0.6618,0.3834 0.6618 0.3834c 0.2836,0.2574 0.4464,0.6513 0.4464 0.6513c 0.1628,0.3939 0.1628,0.9401 0.1628 0.9401c 0.0000,0.5462 -0.1891,0.9664 -0.1891 0.9664c -0.1891,0.4202 -0.5042,0.7090 -0.5042 0.7090c -0.3151,0.2889 -0.7195,0.4412 -0.7195 0.4412c -0.4044,0.1523 -0.8456,0.1523 -0.8456 0.1523c -0.3992,-0.0000 -0.7300,-0.0788 -0.7300 -0.0788c -0.3309,-0.0788 -0.5987,-0.2048 -0.5987 -0.2048c -0.2679,-0.1261 -0.4832,-0.2889 -0.4832 -0.2889c -0.2153,-0.1628 -0.3834,-0.3414 -0.3834 -0.3414ZM 595.1668,570.0000 ZM 597.7823,570.1261 c -1.0189,-0.0000 -1.5861,-0.9034 -1.5861 -0.9034c -0.5672,-0.9034 -0.5672,-2.5945 -0.5672 -2.5945c 0.0000,-1.6912 0.5672,-2.5735 0.5672 -2.5735c 0.5672,-0.8824 1.5861,-0.8824 1.5861 -0.8824c 1.0084,0.0000 1.5756,0.8824 1.5756 0.8824c 0.5672,0.8824 0.5672,2.5735 0.5672 2.5735c 0.0000,1.6912 -0.5672,2.5945 -0.5672 2.5945c -0.5672,0.9034 -1.5756,0.9034 -1.5756 0.9034ZM 597.7823,570.1261 ZM 597.7823,569.4328 c 0.2941,0.0000 0.5305,-0.1628 0.5305 -0.1628c 0.2363,-0.1628 0.4097,-0.5042 0.4097 -0.5042c 0.1733,-0.3414 0.2679,-0.8718 0.2679 -0.8718c 0.0945,-0.5305 0.0945,-1.2658 0.0945 -1.2658c 0.0000,-0.7353 -0.0945,-1.2605 -0.0945 -1.2605c -0.0945,-0.5252 -0.2679,-0.8561 -0.2679 -0.8561c -0.1733,-0.3309 -0.4097,-0.4884 -0.4097 -0.4884c -0.2363,-0.1576 -0.5305,-0.1576 -0.5305 -0.1576c -0.2941,-0.0000 -0.5357,0.1576 -0.5357 0.1576c -0.2416,0.1576 -0.4149,0.4884 -0.4149 0.4884c -0.1733,0.3309 -0.2679,0.8561 -0.2679 0.8561c -0.0945,0.5252 -0.0945,1.2605 -0.0945 1.2605c 0.0000,1.4706 0.3624,2.1376 0.3624 2.1376c 0.3624,0.6670 0.9506,0.6670 0.9506 0.6670Z"/></g><defs></defs><g stroke-linejoin="bevel" stroke-opacity="0.0" fill-opacity="1.0" stroke="rgb(0,0,0)" stroke-width="0.0" fill="rgb(0,0,0)" stroke-linecap="butt" stroke-miterlimit="10.0"><path d="M 770.4097,570.0000 ZM 771.2395,569.2857 h 1.5336 v -4.9370 h -1.2185 v -0.5567 c 0.4622,-0.0840 0.8036,-0.2048 0.8036 -0.2048c 0.3414,-0.1208 0.6145,-0.2889 0.6145 -0.2889h 0.6618 v 5.9874 h 1.3866 v 0.7143 h -3.7815 v -0.7143 ZM 775.6303,570.0000 ZM 778.2458,570.1261 c -1.0189,-0.0000 -1.5861,-0.9034 -1.5861 -0.9034c -0.5672,-0.9034 -0.5672,-2.5945 -0.5672 -2.5945c 0.0000,-1.6912 0.5672,-2.5735 0.5672 -2.5735c 0.5672,-0.8824 1.5861,-0.8824 1.5861 -0.8824c 1.0084,0.0000 1.5756,0.8824 1.5756 0.8824c 0.5672,0.8824 0.5672,2.5735 0.5672 2.5735c 0.0000,1.6912 -0.5672,2.5945 -0.5672 2.5945c -0.5672,0.9034 -1.5756,0.9034 -1.5756 0.9034ZM 778.2458,570.1261 ZM 778.2458,569.4328 c 0.2941,0.0000 0.5305,-0.1628 0.5305 -0.1628c 0.2363,-0.1628 0.4097,-0.5042 0.4097 -0.5042c 0.1733,-0.3414 0.2679,-0.8718 0.2679 -0.8718c 0.0945,-0.5305 0.0945,-1.2658 0.0945 -1.2658c 0.0000,-0.7353 -0.0945,-1.2605 -0.0945 -1.2605c -0.0945,-0.5252 -0.2679,-0.8561 -0.2679 -0.8561c -0.1733,-0.3309 -0.4097,-0.4884 -0.4097 -0.4884c -0.2363,-0.1576 -0.5305,-0.1576 -0.5305 -0.1576c -0.2941,-0.0000 -0.5357,0.1576 -0.5357 0.1576c -0.2416,0.1576 -0.4149,0.4884 -0.4149 0.4884c -0.1733,0.3309 -0.2679,0.8561 -0.2679 0.8561c -0.0945,0.5252 -0.0945,1.2605 -0.0945 1.2605c 0.0000,1.4706 0.3624,2.1376 0.3624 2.1376c 0.3624,0.6670 0.9506,0.6670 0.9506 0.6670ZM 780.8508,570.0000 ZM 783.4664,570.1261 c -1.0189,-0.0000 -1.5861,-0.9034 -1.5861 -0.9034c -0.5672,-0.9034 -0.5672,-2.5945 -0.5672 -2.5945c 0.0000,-1.6912 0.5672,-2.5735 0.5672 -2.5735c 0.5672,-0.8824 1.5861,-0.8824 1.5861 -0.8824c 1.0084,0.0000 1.5756,0.8824 1.5756 0.8824c 0.5672,0.8824 0.5672,2.5735 0.5672 2.5735c 0.0000,1.6912 -0.5672,2.5945 -0.5672 2.5945c -0.5672,0.9034 -1.5756,0.9034 -1.5756 0.9034ZM 783.4664,570.1261 ZM 783.4664,569.4328 c 0.2941,0.0000 0.5305,-0.1628 0.5305 -0.1628c 0.2363,-0.1628 0.4097,-0.5042 0.4097 -0.5042c 0.1733,-0.3414 0.2679,-0.8718 0.2679 -0.8718c 0.0945,-0.5305 0.0945,-1.2658 0.0945 -1.2658c 0.0000,-0.7353 -0.0945,-1.2605 -0.0945 -1.2605c -0.0945,-0.5252 -0.2679,-0.8561 -0.2679 -0.8561c -0.1733,-0.3309 -0.4097,-0.4884 -0.4097 -0.4884c -0.2363,-0.1576 -0.5305,-0.1576 -0.5305 -0.1576c -0.2941,-0.0000 -0.5357,0.1576 -0.5357 0.1576c -0.2416,0.1576 -0.4149,0.4884 -0.4149 0.4884c -0.1733,0.3309 -0.2679,0.8561 -0.2679 0.8561c -0.0945,0.5252 -0.0945,1.2605 -0.0945 1.2605c 0.0000,1.4706 0.3624,2.1376 0.3624 2.1376c 0.3624,0.6670 0.9506,0.6670 0.9506 0.6670ZM 786.0714,570.0000 ZM 788.6870,570.1261 c -1.0189,-0.0000 -1.5861,-0.9034 -1.5861 -0.9034c -0.5672,-0.9034 -0.5672,-2.5945 -0.5672 -2.5945c 0.0000,-1.6912 0.5672,-2.5735 0.5672 -2.5735c 0.5672,-0.8824 1.5861,-0.8824 1.5861 -0.8824c 1.0084,0.0000 1.5756,0.8824 1.5756 0.8824c 0.5672,0.8824 0.5672,2.5735 0.5672 2.5735c 0.0000,1.6912 -0.5672,2.5945 -0.5672 2.5945c -0.5672,0.9034 -1.5756,0.9034 -1.5756 0.9034ZM 788.6870,570.1261 ZM 788.6870,569.4328 c 0.2941,0.0000 0.5305,-0.1628 0.5305 -0.1628c 0.2363,-0.1628 0.4097,-0.5042 0.4097 -0.5042c 0.1733,-0.3414 0.2679,-0.8718 0.2679 -0.8718c 0.0945,-0.5305 0.0945,-1.2658 0.0945 -1.2658c 0.0000,-0.7353 -0.0945,-1.2605 -0.0945 -1.2605c -0.0945,-0.5252 -0.2679,-0.8561 -0.2679 -0.8561c -0.1733,-0.3309 -0.4097,-0.4884 -0.4097 -0.4884c -0.2363,-0.1576 -0.5305,-0.1576 -0.5305 -0.1576c -0.2941,-0.0000 -0.5357,0.1576 -0.5357 0.1576c -0.2416,0.1576 -0.4149,0.4884 -0.4149 0.4884c -0.1733,0.3309 -0.2679,0.8561 -0.2679 0.8561c -0.0945,0.5252 -0.0945,1.2605 -0.0945 1.2605c 0.0000,1.4706 0.3624,2.1376 0.3624 2.1376c 0.3624,0.6670 0.9506,0.6670 0.9506 0.6670Z"/></g><defs></defs><g stroke-linejoin="round" stroke-opacity="1.0" fill-opacity="0.0" stroke="rgb(0,0,255)" stroke-width="0.9999999999999997" fill="rgb(0,0,0)" stroke-linecap="round" stroke-miterlimit="10.0"><path d="M 10.0000,585.0000 h 20.0000 "/></g><defs></defs><g stroke-linejoin="bevel" stroke-opacity="0.0" fill-opacity="1.0" stroke="rgb(0,0,0)" stroke-width="0.0" fill="rgb(0,0,0)" stroke-linecap="butt" stroke-miterlimit="10.0"><path d="M 35.0735,586.6071 ZM 36.0819,582.2059 h -0.7563 v -0.6513 l 0.7983,-0.0525 l 0.1050,-1.4286 h 0.7248 v 1.4286 h 1.3761 v 0.7038 h -1.3761 v 2.8361 c 0.0000,0.4727 0.1733,0.7300 0.1733 0.7300c 0.1733,0.2574 0.6145,0.2574 0.6145 0.2574c 0.1366,0.0000 0.2941,-0.0420 0.2941 -0.0420c 0.1576,-0.0420 0.2836,-0.0945 0.2836 -0.0945l 0.1681,0.6513 c -0.2101,0.0735 -0.4569,0.1313 -0.4569 0.1313c -0.2468,0.0578 -0.4884,0.0578 -0.4884 0.0578c -0.4097,-0.0000 -0.6880,-0.1261 -0.6880 -0.1261c -0.2784,-0.1261 -0.4517,-0.3466 -0.4517 -0.3466c -0.1733,-0.2206 -0.2468,-0.5357 -0.2468 -0.5357c -0.0735,-0.3151 -0.0735,-0.6933 -0.0735 -0.6933v -2.8256 ZM 38.6239,586.6071 ZM 39.9265,580.4517 c -0.2521,-0.0000 -0.4254,-0.1576 -0.4254 -0.1576c -0.1733,-0.1576 -0.1733,-0.3992 -0.1733 -0.3992c 0.0000,-0.2521 0.1733,-0.4044 0.1733 -0.4044c 0.1733,-0.1523 0.4254,-0.1523 0.4254 -0.1523c 0.2521,0.0000 0.4254,0.1523 0.4254 0.1523c 0.1733,0.1523 0.1733,0.4044 0.1733 0.4044c 0.0000,0.2416 -0.1733,0.3992 -0.1733 0.3992c -0.1733,0.1576 -0.4254,0.1576 -0.4254 0.1576ZM 39.9265,580.4517 ZM 39.4853,581.5021 h 0.8613 v 5.1050 h -0.8613 v -5.1050 ZM 41.2080,586.6071 ZM 42.0693,581.5021 h 0.7143 l 0.0735,0.7353 h 0.0315 c 0.3361,-0.3676 0.7300,-0.6145 0.7300 -0.6145c 0.3939,-0.2468 0.8561,-0.2468 0.8561 -0.2468c 0.5882,0.0000 0.9191,0.2574 0.9191 0.2574c 0.3309,0.2574 0.4884,0.7195 0.4884 0.7195c 0.3992,-0.4412 0.8036,-0.7090 0.8036 -0.7090c 0.4044,-0.2679 0.8771,-0.2679 0.8771 -0.2679c 0.7878,0.0000 1.1712,0.5042 1.1712 0.5042c 0.3834,0.5042 0.3834,1.4916 0.3834 1.4916v 3.2353 h -0.8613 v -3.1197 c 0.0000,-0.7248 -0.2311,-1.0452 -0.2311 -1.0452c -0.2311,-0.3204 -0.7143,-0.3204 -0.7143 -0.3204c -0.5777,-0.0000 -1.2815,0.7878 -1.2815 0.7878v 3.6975 h -0.8613 v -3.1197 c 0.0000,-0.7248 -0.2311,-1.0452 -0.2311 -1.0452c -0.2311,-0.3204 -0.7248,-0.3204 -0.7248 -0.3204c -0.5777,-0.0000 -1.2815,0.7878 -1.2815 0.7878v 3.6975 h -0.8613 v -5.1050 ZM 49.9160,586.6071 ZM 50.3992,584.0651 c 0.0000,-0.6303 0.1943,-1.1292 0.1943 -1.1292c 0.1943,-0.4989 0.5147,-0.8456 0.5147 -0.8456c 0.3204,-0.3466 0.7300,-0.5305 0.7300 -0.5305c 0.4097,-0.1838 0.8508,-0.1838 0.8508 -0.1838c 0.4832,0.0000 0.8666,0.1681 0.8666 0.1681c 0.3834,0.1681 0.6408,0.4832 0.6408 0.4832c 0.2574,0.3151 0.3939,0.7563 0.3939 0.7563c 0.1366,0.4412 0.1366,0.9874 0.1366 0.9874c 0.0000,0.2836 -0.0315,0.4727 -0.0315 0.4727h -3.4454 c 0.0525,0.8298 0.5095,1.3130 0.5095 1.3130c 0.4569,0.4832 1.1922,0.4832 1.1922 0.4832c 0.3676,0.0000 0.6775,-0.1103 0.6775 -0.1103c 0.3099,-0.1103 0.5935,-0.2889 0.5935 -0.2889l 0.3046,0.5672 c -0.3361,0.2101 -0.7458,0.3676 -0.7458 0.3676c -0.4097,0.1576 -0.9349,0.1576 -0.9349 0.1576c -0.5147,-0.0000 -0.9611,-0.1838 -0.9611 -0.1838c -0.4464,-0.1838 -0.7773,-0.5252 -0.7773 -0.5252c -0.3309,-0.3414 -0.5200,-0.8351 -0.5200 -0.8351c -0.1891,-0.4937 -0.1891,-1.1239 -0.1891 -1.1239ZM 50.3992,584.0651 ZM 53.9706,583.6765 c 0.0000,-0.7878 -0.3309,-1.2027 -0.3309 -1.2027c -0.3309,-0.4149 -0.9296,-0.4149 -0.9296 -0.4149c -0.2731,-0.0000 -0.5200,0.1103 -0.5200 0.1103c -0.2468,0.1103 -0.4464,0.3151 -0.4464 0.3151c -0.1996,0.2048 -0.3309,0.5042 -0.3309 0.5042c -0.1313,0.2994 -0.1733,0.6880 -0.1733 0.6880h 2.7311 ZM 57.2479,586.6071 ZM 57.7311,584.0651 c 0.0000,-0.6303 0.1943,-1.1292 0.1943 -1.1292c 0.1943,-0.4989 0.5147,-0.8456 0.5147 -0.8456c 0.3204,-0.3466 0.7300,-0.5305 0.7300 -0.5305c 0.4097,-0.1838 0.8508,-0.1838 0.8508 -0.1838c 0.4832,0.0000 0.8666,0.1681 0.8666 0.1681c 0.3834,0.1681 0.6408,0.4832 0.6408 0.4832c 0.2574,0.3151 0.3939,0.7563 0.3939 0.7563c 0.1366,0.4412 0.1366,0.9874 0.1366 0.9874c 0.0000,0.2836 -0.0315,0.4727 -0.0315 0.4727h -3.4454 c 0.0525,0.8298 0.5095,1.3130 0.5095 1.3130c 0.4569,0.4832 1.1922,0.4832 1.1922 0.4832c 0.3676,0.0000 0.6775,-0.1103 0.6775 -0.1103c 0.3099,-0.1103 0.5935,-0.2889 0.5935 -0.2889l 0.3046,0.5672 c -0.3361,0.2101 -0.7458,0.3676 -0.7458 0.3676c -0.4097,0.1576 -0.9349,0.1576 -0.9349 0.1576c -0.5147,-0.0000 -0.9611,-0.1838 -0.9611 -0.1838c -0.4464,-0.1838 -0.7773,-0.5252 -0.7773 -0.5252c -0.3309,-0.3414 -0.5200,-0.8351 -0.5200 -0.8351c -0.1891,-0.4937 -0.1891,-1.1239 -0.1891 -1.1239ZM 57.7311,584.0651 ZM 61.3025,583.6765 c 0.0000,-0.7878 -0.3309,-1.2027 -0.3309 -1.2027c -0.3309,-0.4149 -0.9296,-0.4149 -0.9296 -0.4149c -0.2731,-0.0000 -0.5200,0.1103 -0.5200 0.1103c -0.2468,0.1103 -0.4464,0.3151 -0.4464 0.3151c -0.1996,0.2048 -0.3309,0.5042 -0.3309 0.5042c -0.1313,0.2994 -0.1733,0.6880 -0.1733 0.6880h 2.7311 ZM 62.4580,586.6071 ZM 63.3193,581.5021 h 0.7143 l 0.0735,0.9244 h 0.0315 c 0.2626,-0.4832 0.6355,-0.7668 0.6355 -0.7668c 0.3729,-0.2836 0.8141,-0.2836 0.8141 -0.2836c 0.3046,0.0000 0.5462,0.1050 0.5462 0.1050l -0.1681,0.7563 c -0.1261,-0.0420 -0.2311,-0.0630 -0.2311 -0.0630c -0.1050,-0.0210 -0.2626,-0.0210 -0.2626 -0.0210c -0.3256,-0.0000 -0.6775,0.2626 -0.6775 0.2626c -0.3519,0.2626 -0.6145,0.9139 -0.6145 0.9139v 3.2773 h -0.8613 v -5.1050 ZM 66.1029,586.6071 ZM 66.9643,581.5021 h 0.7143 l 0.0735,0.9244 h 0.0315 c 0.2626,-0.4832 0.6355,-0.7668 0.6355 -0.7668c 0.3729,-0.2836 0.8141,-0.2836 0.8141 -0.2836c 0.3046,0.0000 0.5462,0.1050 0.5462 0.1050l -0.1681,0.7563 c -0.1261,-0.0420 -0.2311,-0.0630 -0.2311 -0.0630c -0.1050,-0.0210 -0.2626,-0.0210 -0.2626 -0.0210c -0.3256,-0.0000 -0.6775,0.2626 -0.6775 0.2626c -0.3519,0.2626 -0.6145,0.9139 -0.6145 0.9139v 3.2773 h -0.8613 v -5.1050 ZM 69.6429,586.6071 ZM 70.1261,584.0651 c 0.0000,-0.6408 0.1943,-1.1397 0.1943 -1.1397c 0.1943,-0.4989 0.5200,-0.8456 0.5200 -0.8456c 0.3256,-0.3466 0.7511,-0.5252 0.7511 -0.5252c 0.4254,-0.1786 0.8981,-0.1786 0.8981 -0.1786c 0.4727,0.0000 0.8981,0.1786 0.8981 0.1786c 0.4254,0.1786 0.7511,0.5252 0.7511 0.5252c 0.3256,0.3466 0.5200,0.8456 0.5200 0.8456c 0.1943,0.4989 0.1943,1.1397 0.1943 1.1397c 0.0000,0.6303 -0.1943,1.1292 -0.1943 1.1292c -0.1943,0.4989 -0.5200,0.8403 -0.5200 0.8403c -0.3256,0.3414 -0.7511,0.5200 -0.7511 0.5200c -0.4254,0.1786 -0.8981,0.1786 -0.8981 0.1786c -0.4727,-0.0000 -0.8981,-0.1786 -0.8981 -0.1786c -0.4254,-0.1786 -0.7511,-0.5200 -0.7511 -0.5200c -0.3256,-0.3414 -0.5200,-0.8403 -0.5200 -0.8403c -0.1943,-0.4989 -0.1943,-1.1292 -0.1943 -1.1292ZM 70.1261,584.0651 ZM 71.0189,584.0651 c 0.0000,0.4412 0.1050,0.7983 0.1050 0.7983c 0.1050,0.3571 0.2994,0.6145 0.2994 0.6145c 0.1943,0.2574 0.4674,0.3992 0.4674 0.3992c 0.2731,0.1418 0.5987,0.1418 0.5987 0.1418c 0.3256,0.0000 0.5987,-0.1418 0.5987 -0.1418c 0.2731,-0.1418 0.4674,-0.3992 0.4674 -0.3992c 0.1943,-0.2574 0.2994,-0.6145 0.2994 -0.6145c 0.1050,-0.3571 0.1050,-0.7983 0.1050 -0.7983c 0.0000,-0.4412 -0.1050,-0.8036 -0.1050 -0.8036c -0.1050,-0.3624 -0.2994,-0.6250 -0.2994 -0.6250c -0.1943,-0.2626 -0.4674,-0.4044 -0.4674 -0.4044c -0.2731,-0.1418 -0.5987,-0.1418 -0.5987 -0.1418c -0.3256,-0.0000 -0.5987,0.1418 -0.5987 0.1418c -0.2731,0.1418 -0.4674,0.4044 -0.4674 0.4044c -0.1943,0.2626 -0.2994,0.6250 -0.2994 0.6250c -0.1050,0.3624 -0.1050,0.8036 -0.1050 0.8036ZM 75.3361,586.6071 ZM 76.1975,581.5021 h 0.7143 l 0.0735,0.9244 h 0.0315 c 0.2626,-0.4832 0.6355,-0.7668 0.6355 -0.7668c 0.3729,-0.2836 0.8141,-0.2836 0.8141 -0.2836c 0.3046,0.0000 0.5462,0.1050 0.5462 0.1050l -0.1681,0.7563 c -0.1261,-0.0420 -0.2311,-0.0630 -0.2311 -0.0630c -0.1050,-0.0210 -0.2626,-0.0210 -0.2626 -0.0210c -0.3256,-0.0000 -0.6775,0.2626 -0.6775 0.2626c -0.3519,0.2626 -0.6145,0.9139 -0.6145 0.9139v 3.2773 h -0.8613 v -5.1050 Z"/></g></svg>