<?xml version="1.0" encoding="UTF-8"?>
<!DOCTYPE svg PUBLIC "-//W3C//DTD SVG 1.1//EN"
    "http://www.w3.org/Graphics/SVG/1.1/DTD/svg11.dtd"><svg xmlns="http://www.w3.org/2000/svg" height="600.0000" stroke-opacity="1" viewBox="0 0 800 600" font-size="1" width="800.0000" xmlns:xlink="http://www.w3.org/1999/xlink" stroke="rgb(0,0,0)" version="1.1"><defs></defs><defs></defs><g stroke-linejoin="bevel" stroke-opacity="0.0" fill-opacity="1.0" stroke="rgb(0,0,0)" stroke-width="0.0" fill="rgb(255,255,255)" stroke-linecap="butt" stroke-miterlimit="10.0"><path d="M 0.0000,0.0000 v 600.0000 h 800.0000 v -600.0000 Z"/></g><defs></defs><g stroke-linejoin="miter" stroke-opacity="1.0" fill-opacity="0.0" stroke="rgb(211,211,211)" stroke-width="0.9999999999999997" fill="rgb(0,0,0)" stroke-dashoffset="0.0" stroke-linecap="butt" stroke-miterlimit="10.0" stroke-dasharray="4.999999999999998,4.999999999999998"><path d="M 35.3887,15.0000 v 535.0000 "/></g><defs></defs><g stroke-linejoin="miter" stroke-opacity="1.0" fill-opacity="0.0" stroke="rgb(211,211,211)" stroke-width="0.9999999999999997" fill="rgb(0,0,0)" stroke-dashoffset="0.0" stroke-linecap="butt" stroke-miterlimit="10.0" stroke-dasharray="4.999999999999998,4.999999999999998"><path d="M 221.5927,15.0000 v 535.0000 "/></g><defs></defs><g stroke-linejoin="miter" stroke-opacity="1.0" fill-opacity="0.0" stroke="rgb(211,211,211)" stroke-width="0.9999999999999997" fill="rgb(0,0,0)" stroke-dashoffset="0.0" stroke-linecap="butt" stroke-miterlimit="10.0" stroke-dasharray="4.999999999999998,4.999999999999998"><path d="M 407.7967,15.0000 v 535.0000 "/></g><defs></defs><g stroke-linejoin="miter" stroke-opacity="1.0" fill-opacity="0.0" stroke="rgb(211,211,211)" stroke-width="0.9999999999999997" fill="rgb(0,0,0)" stroke-dashoffset="0.0" stroke-linecap="butt" stroke-miterlimit="10.0" stroke-dasharray="4.999999999999998,4.999999999999998"><path d="M 594.0008,15.0000 v 535.0000 "/></g><defs></defs><g stroke-linejoin="miter" stroke-opacity="1.0" fill-opacity="0.0" stroke="rgb(211,211,211)" stroke-width="0.9999999999999997" fill="rgb(0,0,0)" stroke-dashoffset="0.0" stroke-linecap="butt" stroke-miterlimit="10.0" stroke-dasharray="4.999999999999998,4.999999999999998"><path d="M 780.2048,15.0000 v 535.0000 "/></g><defs></defs><g stroke-linejoin="miter" stroke-opacity="1.0" fill-opacity="0.0" stroke="rgb(211,211,211)" stroke-width="0.9999999999999997" fill="rgb(0,0,0)" stroke-dashoffset="0.0" stroke-linecap="butt" stroke-miterlimit="10.0" stroke-dasharray="4.999999999999998,4.999999999999998"><path d="M 35.3887,550.0000 h 744.8162 "/></g><defs></defs><g stroke-linejoin="miter" stroke-opacity="1.0" fill-opacity="0.0" stroke="rgb(211,211,211)" stroke-width="0.9999999999999997" fill="rgb(0,0,0)" stroke-dashoffset="0.0" stroke-linecap="butt" stroke-miterlimit="10.0" stroke-dasharray="4.999999999999998,4.999999999999998"><path d="M 35.3887,460.8333 h 744.8162 "/></g><defs></defs><g stroke-linejoin="miter" stroke-opacity="1.0" fill-opacity="0.0" stroke="rgb(211,211,211)" stroke-width="0.9999999999999997" fill="rgb(0,0,0)" stroke-dashoffset="0.0" stroke-linecap="butt" stroke-miterlimit="10.0" stroke-dasharray="4.999999999999998,4.999999999999998"><path d="M 35.3887,371.6667 h 744.8162 "/></g><defs></defs><g stroke-linejoin="miter" stroke-opacity="1.0" fill-opacity="0.0" stroke="rgb(211,211,211)" stroke-width="0.9999999999999997" fill="rgb(0,0,0)" stroke-dashoffset="0.0" stroke-linecap="butt" stroke-miterlimit="10.0" stroke-dasharray="4.999999999999998,4.999999999999998"><path d="M 35.3887,282.5000 h 744.8162 "/></g><defs></defs><g stroke-linejoin="miter" stroke-opacity="1.0" fill-opacity="0.0" stroke="rgb(211,211,211)" stroke-width="0.9999999999999997" fill="rgb(0,0,0)" stroke-dashoffset="0.0" stroke-linecap="butt" stroke-miterlimit="10.0" stroke-dasharray="4.999999999999998,4.999999999999998"><path d="M 35.3887,193.3333 h 744.8162 "/></g><defs></defs><g stroke-linejoin="miter" stroke-opacity="1.0" fill-opacity="0.0" stroke="rgb(211,211,211)" stroke-width="0.9999999999999997" fill="rgb(0,0,0)" stroke-dashoffset="0.0" stroke-linecap="butt" stroke-miterlimit="10.0" stroke-dasharray="4.999999999999998,4.999999999999998"><path d="M 35.3887,104.1667 h 744.8162 "/></g><defs></defs><g stroke-linejoin="miter" stroke-opacity="1.0" fill-opacity="0.0" stroke="rgb(211,211,211)" stroke-width="0.9999999999999997" fill="rgb(0,0,0)" stroke-dashoffset="0.0" stroke-linecap="butt" stroke-miterlimit="10.0" stroke-dasharray="4.999999999999998,4.999999999999998"><path d="M 35.3887,15.0000 h 744.8162 "/></g><defs></defs><g stroke-linejoin="round" stroke-opacity="1.0" fill-opacity="0.0" stroke="rgb(0,0,255)" stroke-width="0.9999999999999997" fill="rgb(0,0,0)" stroke-linecap="round" stroke-miterlimit="10.0"><defs><clipPath id="myClip1"><path d="M 35.3887,15.0000 v 535.0000 h 744.8162 v -535.0000 Z"/></clipPath></defs><g clip-path="url(#myClip1)"><path d="M 36.1335,193.3333 l 0.7448,-3.9291 l 0.7448,0.5369 l 0.7448,-12.0591 l 0.7448,-8.2827 l 0.7448,-0.0188 l 0.7448,-1.1973 l 0.7448,3.0793 l 0.7448,4.2440 l 0.7448,-1.3220 l 0.7448,4.2204 l 0.7448,8.4902 l 0.7448,-9.8056 l 0.7448,3.4446 l 0.7448,-9.7752 l 0.7448,-3.6315 l 0.7448,-11.9843 l 0.7448,1.9163 l 0.7448,-23.0813 l 0.7448,11.2453 l 0.7448,1.4673 l 0.7448,-12.8455 l 0.7448,-37.1605 l 0.7448,-14.2756 l 0.7448,-3.9432 l 0.7448,4.3174 l 0.7448,-25.9187 l 0.7448,-9.5052 l 0.7448,5.1448 l 0.7448,-24.3074 l 0.7448,11.1774 l 0.7448,9.2252 l 0.7448,0.5358 l 0.7448,-23.3694 l 0.7448,-5.8086 l 0.7448,1.1704 l 0.7448,12.9294 l 0.7448,8.3688 l 0.7448,-13.0037 l 0.7448,5.8144 l 0.7448,44.2400 l 0.7448,18.1404 l 0.7448,6.1983 l 0.7448,6.9051 l 0.7448,20.1451 l 0.7448,-7.2639 l 0.7448,-0.0303 l 0.7448,10.9472 l 0.7448,-13.4389 l 0.7448,22.7208 l 0.7448,-6.8562 l 0.7448,26.7503 l 0.7448,10.9043 l 0.7448,-13.1534 l 0.7448,-8.2579 l 0.7448,-2.0851 l 0.7448,-0.6416 l 0.7448,-10.8272 l 0.7448,-9.4062 l 0.7448,1.6336 l 0.7448,2.5419 l 0.7448,-11.1776 l 0.7448,-11.5839 l 0.7448,20.9547 l 0.7448,2.4080 l 0.7448,-28.6539 l 0.7448,-3.2076 l 0.7448,-10.9438 l 0.7448,-4.9491 l 0.7448,14.7826 l 0.7448,-10.6535 l 0.7448,-1.3104 l 0.7448,26.5364 l 0.7448,6.8020 l 0.7448,23.3297 l 0.7448,-16.4163 l 0.7448,13.1957 l 0.7448,33.2326 l 0.7448,-4.8111 l 0.7448,18.6449 l 0.7448,6.6411 l 0.7448,22.4469 l 0.7448,3.3187 l 0.7448,-15.0595 l 0.7448,-1.1255 l 0.7448,-10.7447 l 0.7448,17.7557 l 0.7448,-8.8531 l 0.7448,-12.5210 l 0.7448,-15.8811 l 0.7448,2.4916 l 0.7448,4.5311 l 0.7448,-12.8390 l 0.7448,12.2192 l 0.7448,14.9227 l 0.7448,-0.4114 l 0.7448,6.2974 l 0.7448,-11.8926 l 0.7448,-8.4571 l 0.7448,6.3116 l 0.7448,3.1324 l 0.7448,-8.3537 l 0.7448,5.2536 l 0.7448,-19.3980 l 0.7448,9.0971 l 0.7448,7.0639 l 0.7448,19.1143 l 0.7448,-10.4222 l 0.7448,-9.7447 l 0.7448,-11.8921 l 0.7448,5.4034 l 0.7448,-6.1119 l 0.7448,12.2750 l 0.7448,-4.3540 l 0.7448,2.2442 l 0.7448,-39.2272 l 0.7448,17.3354 l 0.7448,-25.1071 l 0.7448,15.7352 l 0.7448,10.2234 l 0.7448,0.7296 l 0.7448,-7.4825 l 0.7448,-5.5073 l 0.7448,1.2700 l 0.7448,-0.7589 l 0.7448,10.3581 l 0.7448,0.3080 l 0.7448,-6.1999 l 0.7448,-2.5782 l 0.7448,34.1172 l 0.7448,-10.2873 l 0.7448,2.7922 l 0.7448,20.9586 l 0.7448,5.5789 l 0.7448,16.7627 l 0.7448,0.0875 l 0.7448,-25.5685 l 0.7448,-12.4144 l 0.7448,-16.0549 l 0.7448,20.1778 l 0.7448,0.0227 l 0.7448,17.7081 l 0.7448,-17.5517 l 0.7448,24.3613 l 0.7448,2.8071 l 0.7448,-22.6911 l 0.7448,22.6379 l 0.7448,9.0200 l 0.7448,2.6654 l 0.7448,5.5561 l 0.7448,13.4447 l 0.7448,-2.9845 l 0.7448,-15.6106 l 0.7448,18.0105 l 0.7448,0.4001 l 0.7448,-4.5039 l 0.7448,-16.5420 l 0.7448,17.2284 l 0.7448,0.1883 l 0.7448,-3.7429 l 0.7448,-7.1564 l 0.7448,16.3680 l 0.7448,17.2686 l 0.7448,9.8564 l 0.7448,6.6829 l 0.7448,2.3382 l 0.7448,9.0777 l 0.7448,14.8209 l 0.7448,-0.8309 l 0.7448,13.2055 l 0.7448,-5.1706 l 0.7448,1.2846 l 0.7448,-9.6635 l 0.7448,-0.0421 l 0.7448,-3.7453 l 0.7448,33.6805 l 0.7448,2.7475 l 0.7448,-17.0225 l 0.7448,-18.4628 l 0.7448,10.5235 l 0.7448,10.1725 l 0.7448,14.4970 l 0.7448,11.5755 l 0.7448,-28.7985 l 0.7448,-6.6421 l 0.7448,-10.2304 l 0.7448,-16.2381 l 0.7448,18.7376 l 0.7448,0.2956 l 0.7448,-5.8765 l 0.7448,3.2612 l 0.7448,0.9955 l 0.7448,-9.2894 l 0.7448,5.2466 l 0.7448,17.2313 l 0.7448,-4.0345 l 0.7448,-0.9359 l 0.7448,1.5153 l 0.7448,14.2143 l 0.7448,-7.1841 l 0.7448,2.0239 l 0.7448,-14.1260 l 0.7448,-28.7901 l 0.7448,-8.9080 l 0.7448,-28.8440 l 0.7448,-9.0125 l 0.7448,7.1593 l 0.7448,13.0778 l 0.7448,17.5507 l 0.7448,28.8444 l 0.7448,-1.3160 l 0.7448,2.0117 l 0.7448,-25.0633 l 0.7448,8.6948 l 0.7448,7.9922 l 0.7448,8.4226 l 0.7448,6.1550 l 0.7448,33.9608 l 0.7448,-7.4724 l 0.7448,-5.6048 l 0.7448,6.7740 l 0.7448,11.8270 l 0.7448,-2.2277 l 0.7448,-12.8766 l 0.7448,6.6100 l 0.7448,-14.4609 l 0.7448,-25.0355 l 0.7448,-7.8847 l 0.7448,19.5743 l 0.7448,24.1321 l 0.7448,-5.4577 l 0.7448,10.6407 l 0.7448,6.6708 l 0.7448,-32.8094 l 0.7448,7.7855 l 0.7448,1.1505 l 0.7448,-9.4876 l 0.7448,14.7967 l 0.7448,-1.8303 l 0.7448,11.4743 l 0.7448,-3.6003 l 0.7448,11.4453 l 0.7448,-37.0782 l 0.7448,2.9462 l 0.7448,-19.7587 l 0.7448,-10.4058 l 0.7448,4.5243 l 0.7448,-23.7010 l 0.7448,2.4329 l 0.7448,8.6157 l 0.7448,4.9622 l 0.7448,2.3254 l 0.7448,-4.0242 l 0.7448,11.9233 l 0.7448,-3.5454 l 0.7448,-3.2398 l 0.7448,-14.5958 l 0.7448,-19.1670 l 0.7448,9.1723 l 0.7448,3.9280 l 0.7448,24.5986 l 0.7448,-11.7470 l 0.7448,-25.3671 l 0.7448,-11.8627 l 0.7448,-9.1594 l 0.7448,-2.9663 l 0.7448,11.4898 l 0.7448,-3.5131 l 0.7448,17.3890 l 0.7448,-8.7367 l 0.7448,10.8528 l 0.7448,-10.0385 l 0.7448,14.0279 l 0.7448,-1.7581 l 0.7448,-22.8827 l 0.7448,-13.2634 l 0.7448,-4.4239 l 0.7448,-11.1644 l 0.7448,-11.9291 l 0.7448,13.6819 l 0.7448,-32.1857 l 0.7448,12.9398 l 0.7448,6.2729 l 0.7448,-20.2478 l 0.7448,4.3534 l 0.7448,22.9507 l 0.7448,-3.2215 l 0.7448,3.1930 l 0.7448,19.6321 l 0.7448,15.3055 l 0.7448,-1.4513 l 0.7448,-16.3411 l 0.7448,-9.2210 l 0.7448,0.1682 l 0.7448,-28.0540 l 0.7448,-16.7351 l 0.7448,-21.8745 l 0.7448,1.6561 l 0.7448,-9.1725 l 0.7448,-4.0416 l 0.7448,-6.6078 l 0.7448,13.1026 l 0.7448,-7.9274 l 0.7448,3.4406 l 0.7448,19.0838 l 0.7448,16.2896 l 0.7448,-4.4183 l 0.7448,20.8653 l 0.7448,26.0454 l 0.7448,1.7737 l 0.7448,-15.9386 l 0.7448,-9.9117 l 0.7448,31.5462 l 0.7448,-20.1054 l 0.7448,-37.7481 l 0.7448,-8.7878 l 0.7448,-25.6191 l 0.7448,18.1588 l 0.7448,-5.0927 l 0.7448,4.8850 l 0.7448,12.8186 l 0.7448,-3.4510 l 0.7448,6.0290 l 0.7448,-13.6389 l 0.7448,18.7900 l 0.7448,24.5669 l 0.7448,15.5892 l 0.7448,2.2367 l 0.7448,30.8977 l 0.7448,-6.5975 l 0.7448,-11.1455 l 0.7448,-16.3317 l 0.7448,0.8626 l 0.7448,30.2414 l 0.7448,-2.0832 l 0.7448,4.5821 l 0.7448,-21.3099 l 0.7448,-9.0229 l 0.7448,15.1934 l 0.7448,-35.9738 l 0.7448,21.3157 l 0.7448,26.2352 l 0.7448,20.9589 l 0.7448,-7.6157 l 0.7448,14.7691 l 0.7448,12.9847 l 0.7448,-27.2981 l 0.7448,21.0695 l 0.7448,18.1915 l 0.7448,-9.6172 l 0.7448,8.7821 l 0.7448,-9.3292 l 0.7448,-15.0622 l 0.7448,-4.0969 l 0.7448,6.3052 l 0.7448,10.5151 l 0.7448,-5.3687 l 0.7448,-15.0372 l 0.7448,23.5642 l 0.7448,3.1252 l 0.7448,1.8702 l 0.7448,17.0042 l 0.7448,4.1538 l 0.7448,3.1986 l 0.7448,-25.0609 l 0.7448,7.7882 l 0.7448,0.7066 l 0.7448,-7.9490 l 0.7448,-6.6875 l 0.7448,19.7229 l 0.7448,-10.0928 l 0.7448,-6.5505 l 0.7448,-7.5999 l 0.7448,11.0406 l 0.7448,-10.0070 l 0.7448,19.3864 l 0.7448,7.5179 l 0.7448,-7.0371 l 0.7448,-6.4832 l 0.7448,14.4445 l 0.7448,3.1697 l 0.7448,20.7761 l 0.7448,-17.6187 l 0.7448,-9.4119 l 0.7448,-11.9990 l 0.7448,-6.0013 l 0.7448,-7.8379 l 0.7448,3.8323 l 0.7448,3.8156 l 0.7448,7.5775 l 0.7448,-30.9359 l 0.7448,9.5391 l 0.7448,-21.7828 l 0.7448,7.8544 l 0.7448,2.1779 l 0.7448,15.4713 l 0.7448,8.4586 l 0.7448,-12.8535 l 0.7448,-1.0805 l 0.7448,-4.4949 l 0.7448,1.7300 l 0.7448,5.1273 l 0.7448,5.5852 l 0.7448,1.5870 l 0.7448,19.2201 l 0.7448,18.0316 l 0.7448,-3.4918 l 0.7448,6.0577 l 0.7448,-7.2480 l 0.7448,-5.1789 l 0.7448,-11.4350 l 0.7448,-5.9966 l 0.7448,33.1938 l 0.7448,7.8825 l 0.7448,12.7528 l 0.7448,0.5884 l 0.7448,-6.8783 l 0.7448,5.8551 l 0.7448,2.4414 l 0.7448,6.1511 l 0.7448,2.1711 l 0.7448,-19.2553 l 0.7448,-9.8706 l 0.7448,11.0782 l 0.7448,12.6544 l 0.7448,16.0187 l 0.7448,-1.4785 l 0.7448,8.5764 l 0.7448,15.8492 l 0.7448,-9.6645 l 0.7448,13.1315 l 0.7448,-12.4084 l 0.7448,-1.8820 l 0.7448,-18.9966 l 0.7448,-24.2290 l 0.7448,-11.1249 l 0.7448,-14.3552 l 0.7448,9.0554 l 0.7448,8.9678 l 0.7448,7.0337 l 0.7448,22.8605 l 0.7448,-8.7833 l 0.7448,14.7715 l 0.7448,-0.4764 l 0.7448,-11.1048 l 0.7448,-20.6302 l 0.7448,-20.4198 l 0.7448,-7.9349 l 0.7448,-8.2356 l 0.7448,14.2631 l 0.7448,-4.9702 l 0.7448,-8.9532 l 0.7448,30.7203 l 0.7448,-18.8018 l 0.7448,0.9654 l 0.7448,10.8050 l 0.7448,10.1722 l 0.7448,1.6964 l 0.7448,14.2933 l 0.7448,-20.0478 l 0.7448,-10.8119 l 0.7448,-21.9825 l 0.7448,36.0579 l 0.7448,-5.7712 l 0.7448,-4.0515 l 0.7448,-2.9455 l 0.7448,6.4974 l 0.7448,21.3548 l 0.7448,2.9972 l 0.7448,-15.4777 l 0.7448,-6.2565 l 0.7448,12.6800 l 0.7448,6.2583 l 0.7448,10.2944 l 0.7448,8.0895 l 0.7448,-28.5155 l 0.7448,-12.0261 l 0.7448,7.7789 l 0.7448,-22.0172 l 0.7448,11.4958 l 0.7448,-5.7262 l 0.7448,15.5771 l 0.7448,20.7916 l 0.7448,16.4414 l 0.7448,21.4816 l 0.7448,0.7118 l 0.7448,-16.9586 l 0.7448,-16.6045 l 0.7448,17.0129 l 0.7448,27.6004 l 0.7448,11.6001 l 0.7448,-31.1044 l 0.7448,16.9880 l 0.7448,0.0562 l 0.7448,7.6584 l 0.7448,18.0345 l 0.7448,-4.0093 l 0.7448,9.9291 l 0.7448,23.2843 l 0.7448,-6.6391 l 0.7448,-1.0692 l 0.7448,-2.9438 l 0.7448,-7.1406 l 0.7448,-4.4776 l 0.7448,1.1789 l 0.7448,-7.9076 l 0.7448,-1.0452 l 0.7448,19.5614 l 0.7448,16.6957 l 0.7448,-0.6862 l 0.7448,1.8997 l 0.7448,-8.9576 l 0.7448,-8.0038 l 0.7448,8.8872 l 0.7448,-4.2871 l 0.7448,9.6790 l 0.7448,-10.5516 l 0.7448,15.2745 l 0.7448,-23.5487 l 0.7448,11.4783 l 0.7448,3.7458 l 0.7448,-8.3649 l 0.7448,-9.1848 l 0.7448,2.2964 l 0.7448,-15.2787 l 0.7448,-9.1937 l 0.7448,-19.5404 l 0.7448,-26.1714 l 0.7448,10.3622 l 0.7448,9.5269 l 0.7448,-14.2285 l 0.7448,21.5395 l 0.7448,5.9848 l 0.7448,6.3809 l 0.7448,10.4195 l 0.7448,15.8218 l 0.7448,6.3936 l 0.7448,-8.7489 l 0.7448,0.9208 l 0.7448,0.5004 l 0.7448,7.7581 l 0.7448,-5.8859 l 0.7448,-14.5320 l 0.7448,9.5117 l 0.7448,7.6912 l 0.7448,-0.0836 l 0.7448,1.7093 l 0.7448,12.9935 l 0.7448,-1.9471 l 0.7448,-12.0919 l 0.7448,-32.5481 l 0.7448,-25.0874 l 0.7448,7.0906 l 0.7448,-10.5475 l 0.7448,8.0316 l 0.7448,-14.1578 l 0.7448,14.5936 l 0.7448,-27.6408 l 0.7448,9.0759 l 0.7448,6.1701 l 0.7448,9.5827 l 0.7448,10.3303 l 0.7448,-12.1425 l 0.7448,38.8380 l 0.7448,7.5832 l 0.7448,-26.4206 l 0.7448,6.8931 l 0.7448,-1.8477 l 0.7448,7.2901 l 0.7448,21.6682 l 0.7448,-18.0937 l 0.7448,31.7845 l 0.7448,8.2230 l 0.7448,-14.0091 l 0.7448,-5.1372 l 0.7448,8.6361 l 0.7448,-5.7838 l 0.7448,-1.5605 l 0.7448,25.7166 l 0.7448,-1.6968 l 0.7448,-18.1391 l 0.7448,-1.8581 l 0.7448,-3.9043 l 0.7448,-22.4681 l 0.7448,5.3429 l 0.7448,9.2882 l 0.7448,12.4992 l 0.7448,17.8672 l 0.7448,9.1362 l 0.7448,-3.8572 l 0.7448,-2.5173 l 0.7448,8.2242 l 0.7448,4.1838 l 0.7448,-3.7636 l 0.7448,3.0460 l 0.7448,-8.2263 l 0.7448,-24.0251 l 0.7448,17.0650 l 0.7448,27.9998 l 0.7448,6.9875 l 0.7448,0.1693 l 0.7448,4.0484 l 0.7448,-5.5410 l 0.7448,15.0979 l 0.7448,-21.3404 l 0.7448,-10.1153 l 0.7448,-14.9584 l 0.7448,9.0047 l 0.7448,16.9873 l 0.7448,11.2980 l 0.7448,10.0897 l 0.7448,7.5945 l 0.7448,3.8183 l 0.7448,-5.6071 l 0.7448,3.6241 l 0.7448,-10.8849 l 0.7448,11.4692 l 0.7448,-26.6664 l 0.7448,2.8563 l 0.7448,-21.3201 l 0.7448,11.1922 l 0.7448,11.9104 l 0.7448,-15.3203 l 0.7448,4.4926 l 0.7448,-17.2091 l 0.7448,1.4174 l 0.7448,-11.7286 l 0.7448,13.4781 l 0.7448,3.7707 l 0.7448,-6.6246 l 0.7448,6.9428 l 0.7448,-9.8327 l 0.7448,36.8121 l 0.7448,-11.2569 l 0.7448,-20.6427 l 0.7448,18.9352 l 0.7448,4.2157 l 0.7448,-12.1591 l 0.7448,-43.2611 l 0.7448,-6.2208 l 0.7448,15.7337 l 0.7448,-9.0483 l 0.7448,3.3679 l 0.7448,20.9079 l 0.7448,-2.3290 l 0.7448,-1.2632 l 0.7448,2.7292 l 0.7448,-1.9708 l 0.7448,-2.8601 l 0.7448,10.1843 l 0.7448,3.7266 l 0.7448,-8.3337 l 0.7448,14.4839 l 0.7448,21.6110 l 0.7448,-8.7993 l 0.7448,-12.9480 l 0.7448,-13.4064 l 0.7448,-12.8844 l 0.7448,6.4463 l 0.7448,3.8766 l 0.7448,-22.1483 l 0.7448,-12.0959 l 0.7448,12.6276 l 0.7448,-8.2453 l 0.7448,-14.2117 l 0.7448,6.9996 l 0.7448,4.0355 l 0.7448,-3.8439 l 0.7448,22.9380 l 0.7448,15.0678 l 0.7448,-10.3562 l 0.7448,2.6758 l 0.7448,-2.7525 l 0.7448,-13.6027 l 0.7448,12.1555 l 0.7448,7.7504 l 0.7448,27.7263 l 0.7448,-12.7665 l 0.7448,-37.4160 l 0.7448,9.9106 l 0.7448,10.9607 l 0.7448,-29.7702 l 0.7448,14.8569 l 0.7448,1.9248 l 0.7448,-7.7959 l 0.7448,2.8256 l 0.7448,1.1075 l 0.7448,-11.1120 l 0.7448,-3.6145 l 0.7448,23.7401 l 0.7448,21.0627 l 0.7448,-3.4118 l 0.7448,8.9919 l 0.7448,-18.4313 l 0.7448,-21.6648 l 0.7448,-7.0317 l 0.7448,-6.7949 l 0.7448,15.3149 l 0.7448,20.9262 l 0.7448,-12.8650 l 0.7448,-24.9767 l 0.7448,3.1569 l 0.7448,22.9436 l 0.7448,-20.6168 l 0.7448,-26.2490 l 0.7448,18.1709 l 0.7448,1.8915 l 0.7448,-10.7783 l 0.7448,4.3593 l 0.7448,-34.2056 l 0.7448,-9.0535 l 0.7448,12.7934 l 0.7448,-10.5157 l 0.7448,-11.7327 l 0.7448,2.5305 l 0.7448,7.5974 l 0.7448,-5.2079 l 0.7448,-18.1385 l 0.7448,-30.3164 l 0.7448,-7.5683 l 0.7448,7.6259 l 0.7448,0.4574 l 0.7448,-4.0649 l 0.7448,-8.4737 l 0.7448,-2.7228 l 0.7448,5.9981 l 0.7448,-13.9516 l 0.7448,-1.7406 l 0.7448,10.6496 l 0.7448,26.8322 l 0.7448,6.4961 l 0.7448,3.1655 l 0.7448,17.0293 l 0.7448,-2.7649 l 0.7448,0.9566 l 0.7448,9.5690 l 0.7448,-17.0601 l 0.7448,10.9187 l 0.7448,-3.6556 l 0.7448,-1.6905 l 0.7448,-16.5068 l 0.7448,0.8317 l 0.7448,-10.0771 l 0.7448,4.5662 l 0.7448,-5.1206 l 0.7448,-1.7250 l 0.7448,-21.7097 l 0.7448,24.1243 l 0.7448,10.4206 l 0.7448,14.4138 l 0.7448,2.6881 l 0.7448,-0.6218 l 0.7448,4.2069 l 0.7448,-19.0716 l 0.7448,-15.0359 l 0.7448,-6.5170 l 0.7448,11.8301 l 0.7448,-13.5000 l 0.7448,-6.2296 l 0.7448,-17.9792 l 0.7448,3.1361 l 0.7448,-7.2422 l 0.7448,10.0038 l 0.7448,14.2293 l 0.7448,22.4412 l 0.7448,2.5773 l 0.7448,-9.9437 l 0.7448,29.2786 l 0.7448,36.5373 l 0.7448,1.8372 l 0.7448,-12.0545 l 0.7448,-5.0920 l 0.7448,0.4992 l 0.7448,-0.2830 l 0.7448,-11.8976 l 0.7448,-9.9449 l 0.7448,-6.4784 l 0.7448,12.7011 l 0.7448,-23.7250 l 0.7448,-2.1883 l 0.7448,-18.6991 l 0.7448,-12.6457 l 0.7448,-2.0889 l 0.7448,-26.1270 l 0.7448,4.4364 l 0.7448,-9.2301 l 0.7448,-6.4873 l 0.7448,13.1605 l 0.7448,11.2923 l 0.7448,2.0866 l 0.7448,-13.4656 l 0.7448,2.0186 l 0.7448,9.4264 l 0.7448,-14.3656 l 0.7448,-12.6209 l 0.7448,8.1054 l 0.7448,6.4644 l 0.7448,-4.9418 l 0.7448,8.7093 l 0.7448,8.7388 l 0.7448,-20.8301 l 0.7448,10.8788 l 0.7448,26.6778 l 0.7448,-17.2442 l 0.7448,-13.8651 l 0.7448,-6.9482 l 0.7448,-1.7048 l 0.7448,-8.1521 l 0.7448,-25.0955 l 0.7448,-7.4301 l 0.7448,-0.9891 l 0.7448,-3.0806 l 0.7448,2.6433 l 0.7448,29.5538 l 0.7448,2.8042 l 0.7448,14.3171 l 0.7448,5.7341 l 0.7448,-10.9478 l 0.7448,16.6983 l 0.7448,0.8818 l 0.7448,8.2811 l 0.7448,-4.0142 l 0.7448,-1.1469 l 0.7448,4.3131 l 0.7448,4.9428 l 0.7448,-3.9129 l 0.7448,4.3167 l 0.7448,-6.7554 l 0.7448,4.8219 l 0.7448,15.5724 l 0.7448,-2.4501 l 0.7448,-7.7801 l 0.7448,14.2328 l 0.7448,-1.7155 l 0.7448,7.9281 l 0.7448,-4.7913 l 0.7448,17.0856 l 0.7448,-5.6724 l 0.7448,2.5395 l 0.7448,11.9126 l 0.7448,3.7683 l 0.7448,4.2481 l 0.7448,-6.9577 l 0.7448,3.6119 l 0.7448,11.9308 l 0.7448,30.1998 l 0.7448,-0.4399 l 0.7448,-14.1991 l 0.7448,-41.5700 l 0.7448,-36.3612 l 0.7448,-7.0268 l 0.7448,7.2299 l 0.7448,-19.0119 l 0.7448,-2.2012 l 0.7448,24.0574 l 0.7448,15.9830 l 0.7448,7.9410 l 0.7448,12.8680 l 0.7448,-13.5245 l 0.7448,6.1429 l 0.7448,-19.6131 l 0.7448,15.6975 l 0.7448,-1.3885 l 0.7448,7.6413 l 0.7448,17.4092 l 0.7448,-36.6979 l 0.7448,1.1523 l 0.7448,-5.5212 l 0.7448,-2.2803 l 0.7448,-25.0957 l 0.7448,-24.7862 l 0.7448,18.2209 l 0.7448,1.6927 l 0.7448,6.7377 l 0.7448,-13.8565 l 0.7448,-5.0526 l 0.7448,-22.3372 l 0.7448,-21.1725 l 0.7448,7.6546 l 0.7448,5.8575 l 0.7448,7.9054 l 0.7448,6.2198 l 0.7448,-9.8783 l 0.7448,4.3631 l 0.7448,-7.0423 l 0.7448,-33.4569 l 0.7448,-24.4863 l 0.7448,3.2413 l 0.7448,-34.2507 l 0.7448,10.5979 l 0.7448,-16.1089 l 0.7448,12.6348 l 0.7448,-2.3686 l 0.7448,1.8843 l 0.7448,8.6409 l 0.7448,-7.0055 l 0.7448,7.2025 l 0.7448,10.9473 l 0.7448,0.1302 l 0.7448,-3.3081 l 0.7448,9.7301 l 0.7448,19.1459 l 0.7448,-5.8888 l 0.7448,-22.4674 l 0.7448,-17.9181 l 0.7448,20.2264 l 0.7448,11.7165 l 0.7448,-15.6365 l 0.7448,5.5501 l 0.7448,11.9217 l 0.7448,-3.1019 l 0.7448,0.5509 l 0.7448,-1.9588 l 0.7448,-18.1495 l 0.7448,-5.3976 l 0.7448,-4.1543 l 0.7448,-0.1157 l 0.7448,-27.7719 l 0.7448,-2.5637 l 0.7448,-6.0794 l 0.7448,19.4246 l 0.7448,19.5948 l 0.7448,22.7762 l 0.7448,22.4171 l 0.7448,5.8639 l 0.7448,7.0967 l 0.7448,0.8948 l 0.7448,-7.8488 l 0.7448,-8.9707 l 0.7448,-7.9766 l 0.7448,-18.1710 l 0.7448,30.1602 l 0.7448,2.7367 l 0.7448,-18.5909 l 0.7448,-13.8477 l 0.7448,14.3376 l 0.7448,-3.1493 l 0.7448,17.8878 l 0.7448,-20.5010 l 0.7448,-10.1031 l 0.7448,17.7713 l 0.7448,-20.0493 l 0.7448,16.7889 l 0.7448,-8.2473 l 0.7448,-14.1139 l 0.7448,14.1300 l 0.7448,17.1446 l 0.7448,-19.9522 l 0.7448,22.2763 l 0.7448,-3.1353 l 0.7448,-0.9919 l 0.7448,2.0738 l 0.7448,14.5242 l 0.7448,10.7460 l 0.7448,2.4940 l 0.7448,-3.4787 l 0.7448,-25.9018 l 0.7448,12.1074 l 0.7448,13.4331 l 0.7448,-3.1153 l 0.7448,2.2297 l 0.7448,-2.8799 l 0.7448,14.4687 l 0.7448,2.6998 l 0.7448,8.4098 l 0.7448,-4.3461 l 0.7448,-7.9767 l 0.7448,13.4489 l 0.7448,-5.2016 l 0.7448,-14.2904 l 0.7448,27.0324 l 0.7448,5.7076 l 0.7448,14.9255 l 0.7448,-19.1759 l 0.7448,2.9980 l 0.7448,-4.3378 l 0.7448,22.1251 l 0.7448,9.8921 l 0.7448,-6.7711 l 0.7448,7.5835 l 0.7448,2.8262 l 0.7448,-28.9406 l 0.7448,-5.5838 l 0.7448,-11.4639 l 0.7448,27.6899 l 0.7448,-2.4536 l 0.7448,26.0453 l 0.7448,-14.3379 l 0.7448,-6.2397 l 0.7448,22.7718 l 0.7448,-6.4127 l 0.7448,9.1995 l 0.7448,17.1479 l 0.7448,-1.1188 l 0.7448,8.8741 l 0.7448,7.7199 l 0.7448,-6.5090 l 0.7448,17.8080 l 0.7448,8.8755 l 0.7448,-5.6834 "/></g></g><defs></defs><g stroke-linejoin="miter" stroke-opacity="1.0" fill-opacity="0.0" stroke="rgb(0,0,0)" stroke-width="0.9999999999999997" fill="rgb(0,0,0)" stroke-linecap="square" stroke-miterlimit="10.0"><path d="M 35.3887,550.0000 v -535.0000 "/></g><defs></defs><g stroke-linejoin="miter" stroke-opacity="1.0" fill-opacity="0.0" stroke="rgb(0,0,0)" stroke-width="0.9999999999999997" fill="rgb(0,0,0)" stroke-linecap="butt" stroke-miterlimit="10.0"><path d="M 35.3887,550.0000 h 2.0000 "/></g><defs></defs><g stroke-linejoin="miter" stroke-opacity="1.0" fill-opacity="0.0" stroke="rgb(0,0,0)" stroke-width="0.9999999999999997" fill="rgb(0,0,0)" stroke-linecap="butt" stroke-miterlimit="10.0"><path d="M 35.3887,541.0833 h 2.0000 "/></g><defs></defs><g stroke-linejoin="miter" stroke-opacity="1.0" fill-opacity="0.0" stroke="rgb(0,0,0)" stroke-width="0.9999999999999997" fill="rgb(0,0,0)" stroke-linecap="butt" stroke-miterlimit="10.0"><path d="M 35.3887,532.1667 h 2.0000 "/></g><defs></defs><g stroke-linejoin="miter" stroke-opacity="1.0" fill-opacity="0.0" stroke="rgb(0,0,0)" stroke-width="0.9999999999999997" fill="rgb(0,0,0)" stroke-linecap="butt" stroke-miterlimit="10.0"><path d="M 35.3887,523.2500 h 2.0000 "/></g><defs></defs><g stroke-linejoin="miter" stroke-opacity="1.0" fill-opacity="0.0" stroke="rgb(0,0,0)" stroke-width="0.9999999999999997" fill="rgb(0,0,0)" stroke-linecap="butt" stroke-miterlimit="10.0"><path d="M 35.3887,514.3333 h 2.0000 "/></g><defs></defs><g stroke-linejoin="miter" stroke-opacity="1.0" fill-opacity="0.0" stroke="rgb(0,0,0)" stroke-width="0.9999999999999997" fill="rgb(0,0,0)" stroke-linecap="butt" stroke-miterlimit="10.0"><path d="M 35.3887,505.4167 h 2.0000 "/></g><defs></defs><g stroke-linejoin="miter" stroke-opacity="1.0" fill-opacity="0.0" stroke="rgb(0,0,0)" stroke-width="0.9999999999999997" fill="rgb(0,0,0)" stroke-linecap="butt" stroke-miterlimit="10.0"><path d="M 35.3887,496.5000 h 2.0000 "/></g><defs></defs><g stroke-linejoin="miter" stroke-opacity="1.0" fill-opacity="0.0" stroke="rgb(0,0,0)" stroke-width="0.9999999999999997" fill="rgb(0,0,0)" stroke-linecap="butt" stroke-miterlimit="10.0"><path d="M 35.3887,487.5833 h 2.0000 "/></g><defs></defs><g stroke-linejoin="miter" stroke-opacity="1.0" fill-opacity="0.0" stroke="rgb(0,0,0)" stroke-width="0.9999999999999997" fill="rgb(0,0,0)" stroke-linecap="butt" stroke-miterlimit="10.0"><path d="M 35.3887,478.6667 h 2.0000 "/></g><defs></defs><g stroke-linejoin="miter" stroke-opacity="1.0" fill-opacity="0.0" stroke="rgb(0,0,0)" stroke-width="0.9999999999999997" fill="rgb(0,0,0)" stroke-linecap="butt" stroke-miterlimit="10.0"><path d="M 35.3887,469.7500 h 2.0000 "/></g><defs></defs><g stroke-linejoin="miter" stroke-opacity="1.0" fill-opacity="0.0" stroke="rgb(0,0,0)" stroke-width="0.9999999999999997" fill="rgb(0,0,0)" stroke-linecap="butt" stroke-miterlimit="10.0"><path d="M 35.3887,460.8333 h 2.0000 "/></g><defs></defs><g stroke-linejoin="miter" stroke-opacity="1.0" fill-opacity="0.0" stroke="rgb(0,0,0)" stroke-width="0.9999999999999997" fill="rgb(0,0,0)" stroke-linecap="butt" stroke-miterlimit="10.0"><path d="M 35.3887,451.9167 h 2.0000 "/></g><defs></defs><g stroke-linejoin="miter" stroke-opacity="1.0" fill-opacity="0.0" stroke="rgb(0,0,0)" stroke-width="0.9999999999999997" fill="rgb(0,0,0)" stroke-linecap="butt" stroke-miterlimit="10.0"><path d="M 35.3887,443.0000 h 2.0000 "/></g><defs></defs><g stroke-linejoin="miter" stroke-opacity="1.0" fill-opacity="0.0" stroke="rgb(0,0,0)" stroke-width="0.9999999999999997" fill="rgb(0,0,0)" stroke-linecap="butt" stroke-miterlimit="10.0"><path d="M 35.3887,434.0833 h 2.0000 "/></g><defs></defs><g stroke-linejoin="miter" stroke-opacity="1.0" fill-opacity="0.0" stroke="rgb(0,0,0)" stroke-width="0.9999999999999997" fill="rgb(0,0,0)" stroke-linecap="butt" stroke-miterlimit="10.0"><path d="M 35.3887,425.1667 h 2.0000 "/></g><defs></defs><g stroke-linejoin="miter" stroke-opacity="1.0" fill-opacity="0.0" stroke="rgb(0,0,0)" stroke-width="0.9999999999999997" fill="rgb(0,0,0)" stroke-linecap="butt" stroke-miterlimit="10.0"><path d="M 35.3887,416.2500 h 2.0000 "/></g><defs></defs><g stroke-linejoin="miter" stroke-opacity="1.0" fill-opacity="0.0" stroke="rgb(0,0,0)" stroke-width="0.9999999999999997" fill="rgb(0,0,0)" stroke-linecap="butt" stroke-miterlimit="10.0"><path d="M 35.3887,407.3333 h 2.0000 "/></g><defs></defs><g stroke-linejoin="miter" stroke-opacity="1.0" fill-opacity="0.0" stroke="rgb(0,0,0)" stroke-width="0.9999999999999997" fill="rgb(0,0,0)" stroke-linecap="butt" stroke-miterlimit="10.0"><path d="M 35.3887,398.4167 h 2.0000 "/></g><defs></defs><g stroke-linejoin="miter" stroke-opacity="1.0" fill-opacity="0.0" stroke="rgb(0,0,0)" stroke-width="0.9999999999999997" fill="rgb(0,0,0)" stroke-linecap="butt" stroke-miterlimit="10.0"><path d="M 35.3887,389.5000 h 2.0000 "/></g><defs></defs><g stroke-linejoin="miter" stroke-opacity="1.0" fill-opacity="0.0" stroke="rgb(0,0,0)" stroke-width="0.9999999999999997" fill="rgb(0,0,0)" stroke-linecap="butt" stroke-miterlimit="10.0"><path d="M 35.3887,380.5833 h 2.0000 "/></g><defs></defs><g stroke-linejoin="miter" stroke-opacity="1.0" fill-opacity="0.0" stroke="rgb(0,0,0)" stroke-width="0.9999999999999997" fill="rgb(0,0,0)" stroke-linecap="butt" stroke-miterlimit="10.0"><path d="M 35.3887,371.6667 h 2.0000 "/></g><defs></defs><g stroke-linejoin="miter" stroke-opacity="1.0" fill-opacity="0.0" stroke="rgb(0,0,0)" stroke-width="0.9999999999999997" fill="rgb(0,0,0)" stroke-linecap="butt" stroke-miterlimit="10.0"><path d="M 35.3887,362.7500 h 2.0000 "/></g><defs></defs><g stroke-linejoin="miter" stroke-opacity="1.0" fill-opacity="0.0" stroke="rgb(0,0,0)" stroke-width="0.9999999999999997" fill="rgb(0,0,0)" stroke-linecap="butt" stroke-miterlimit="10.0"><path d="M 35.3887,353.8333 h 2.0000 "/></g><defs></defs><g stroke-linejoin="miter" stroke-opacity="1.0" fill-opacity="0.0" stroke="rgb(0,0,0)" stroke-width="0.9999999999999997" fill="rgb(0,0,0)" stroke-linecap="butt" stroke-miterlimit="10.0"><path d="M 35.3887,344.9167 h 2.0000 "/></g><defs></defs><g stroke-linejoin="miter" stroke-opacity="1.0" fill-opacity="0.0" stroke="rgb(0,0,0)" stroke-width="0.9999999999999997" fill="rgb(0,0,0)" stroke-linecap="butt" stroke-miterlimit="10.0"><path d="M 35.3887,336.0000 h 2.0000 "/></g><defs></defs><g stroke-linejoin="miter" stroke-opacity="1.0" fill-opacity="0.0" stroke="rgb(0,0,0)" stroke-width="0.9999999999999997" fill="rgb(0,0,0)" stroke-linecap="butt" stroke-miterlimit="10.0"><path d="M 35.3887,327.0833 h 2.0000 "/></g><defs></defs><g stroke-linejoin="miter" stroke-opacity="1.0" fill-opacity="0.0" stroke="rgb(0,0,0)" stroke-width="0.9999999999999997" fill="rgb(0,0,0)" stroke-linecap="butt" stroke-miterlimit="10.0"><path d="M 35.3887,318.1667 h 2.0000 "/></g><defs></defs><g stroke-linejoin="miter" stroke-opacity="1.0" fill-opacity="0.0" stroke="rgb(0,0,0)" stroke-width="0.9999999999999997" fill="rgb(0,0,0)" stroke-linecap="butt" stroke-miterlimit="10.0"><path d="M 35.3887,309.2500 h 2.0000 "/></g><defs></defs><g stroke-linejoin="miter" stroke-opacity="1.0" fill-opacity="0.0" stroke="rgb(0,0,0)" stroke-width="0.9999999999999997" fill="rgb(0,0,0)" stroke-linecap="butt" stroke-miterlimit="10.0"><path d="M 35.3887,300.3333 h 2.0000 "/></g><defs></defs><g stroke-linejoin="miter" stroke-opacity="1.0" fill-opacity="0.0" stroke="rgb(0,0,0)" stroke-width="0.9999999999999997" fill="rgb(0,0,0)" stroke-linecap="butt" stroke-miterlimit="10.0"><path d="M 35.3887,291.4167 h 2.0000 "/></g><defs></defs><g stroke-linejoin="miter" stroke-opacity="1.0" fill-opacity="0.0" stroke="rgb(0,0,0)" stroke-width="0.9999999999999997" fill="rgb(0,0,0)" stroke-linecap="butt" stroke-miterlimit="10.0"><path d="M 35.3887,282.5000 h 2.0000 "/></g><defs></defs><g stroke-linejoin="miter" stroke-opacity="1.0" fill-opacity="0.0" stroke="rgb(0,0,0)" stroke-width="0.9999999999999997" fill="rgb(0,0,0)" stroke-linecap="butt" stroke-miterlimit="10.0"><path d="M 35.3887,273.5833 h 2.0000 "/></g><defs></defs><g stroke-linejoin="miter" stroke-opacity="1.0" fill-opacity="0.0" stroke="rgb(0,0,0)" stroke-width="0.9999999999999997" fill="rgb(0,0,0)" stroke-linecap="butt" stroke-miterlimit="10.0"><path d="M 35.3887,264.6667 h 2.0000 "/></g><defs></defs><g stroke-linejoin="miter" stroke-opacity="1.0" fill-opacity="0.0" stroke="rgb(0,0,0)" stroke-width="0.9999999999999997" fill="rgb(0,0,0)" stroke-linecap="butt" stroke-miterlimit="10.0"><path d="M 35.3887,255.7500 h 2.0000 "/></g><defs></defs><g stroke-linejoin="miter" stroke-opacity="1.0" fill-opacity="0.0" stroke="rgb(0,0,0)" stroke-width="0.9999999999999997" fill="rgb(0,0,0)" stroke-linecap="butt" stroke-miterlimit="10.0"><path d="M 35.3887,246.8333 h 2.0000 "/></g><defs></defs><g stroke-linejoin="miter" stroke-opacity="1.0" fill-opacity="0.0" stroke="rgb(0,0,0)" stroke-width="0.9999999999999997" fill="rgb(0,0,0)" stroke-linecap="butt" stroke-miterlimit="10.0"><path d="M 35.3887,237.9167 h 2.0000 "/></g><defs></defs><g stroke-linejoin="miter" stroke-opacity="1.0" fill-opacity="0.0" stroke="rgb(0,0,0)" stroke-width="0.9999999999999997" fill="rgb(0,0,0)" stroke-linecap="butt" stroke-miterlimit="10.0"><path d="M 35.3887,229.0000 h 2.0000 "/></g><defs></defs><g stroke-linejoin="miter" stroke-opacity="1.0" fill-opacity="0.0" stroke="rgb(0,0,0)" stroke-width="0.9999999999999997" fill="rgb(0,0,0)" stroke-linecap="butt" stroke-miterlimit="10.0"><path d="M 35.3887,220.0833 h 2.0000 "/></g><defs></defs><g stroke-linejoin="miter" stroke-opacity="1.0" fill-opacity="0.0" stroke="rgb(0,0,0)" stroke-width="0.9999999999999997" fill="rgb(0,0,0)" stroke-linecap="butt" stroke-miterlimit="10.0"><path d="M 35.3887,211.1667 h 2.0000 "/></g><defs></defs><g stroke-linejoin="miter" stroke-opacity="1.0" fill-opacity="0.0" stroke="rgb(0,0,0)" stroke-width="0.9999999999999997" fill="rgb(0,0,0)" stroke-linecap="butt" stroke-miterlimit="10.0"><path d="M 35.3887,202.2500 h 2.0000 "/></g><defs></defs><g stroke-linejoin="miter" stroke-opacity="1.0" fill-opacity="0.0" stroke="rgb(0,0,0)" stroke-width="0.9999999999999997" fill="rgb(0,0,0)" stroke-linecap="butt" stroke-miterlimit="10.0"><path d="M 35.3887,193.3333 h 2.0000 "/></g><defs></defs><g stroke-linejoin="miter" stroke-opacity="1.0" fill-opacity="0.0" stroke="rgb(0,0,0)" stroke-width="0.9999999999999997" fill="rgb(0,0,0)" stroke-linecap="butt" stroke-miterlimit="10.0"><path d="M 35.3887,184.4167 h 2.0000 "/></g><defs></defs><g stroke-linejoin="miter" stroke-opacity="1.0" fill-opacity="0.0" stroke="rgb(0,0,0)" stroke-width="0.9999999999999997" fill="rgb(0,0,0)" stroke-linecap="butt" stroke-miterlimit="10.0"><path d="M 35.3887,175.5000 h 2.0000 "/></g><defs></defs><g stroke-linejoin="miter" stroke-opacity="1.0" fill-opacity="0.0" stroke="rgb(0,0,0)" stroke-width="0.9999999999999997" fill="rgb(0,0,0)" stroke-linecap="butt" stroke-miterlimit="10.0"><path d="M 35.3887,166.5833 h 2.0000 "/></g><defs></defs><g stroke-linejoin="miter" stroke-opacity="1.0" fill-opacity="0.0" stroke="rgb(0,0,0)" stroke-width="0.9999999999999997" fill="rgb(0,0,0)" stroke-linecap="butt" stroke-miterlimit="10.0"><path d="M 35.3887,157.6667 h 2.0000 "/></g><defs></defs><g stroke-linejoin="miter" stroke-opacity="1.0" fill-opacity="0.0" stroke="rgb(0,0,0)" stroke-width="0.9999999999999997" fill="rgb(0,0,0)" stroke-linecap="butt" stroke-miterlimit="10.0"><path d="M 35.3887,148.7500 h 2.0000 "/></g><defs></defs><g stroke-linejoin="miter" stroke-opacity="1.0" fill-opacity="0.0" stroke="rgb(0,0,0)" stroke-width="0.9999999999999997" fill="rgb(0,0,0)" stroke-linecap="butt" stroke-miterlimit="10.0"><path d="M 35.3887,139.8333 h 2.0000 "/></g><defs></defs><g stroke-linejoin="miter" stroke-opacity="1.0" fill-opacity="0.0" stroke="rgb(0,0,0)" stroke-width="0.9999999999999997" fill="rgb(0,0,0)" stroke-linecap="butt" stroke-miterlimit="10.0"><path d="M 35.3887,130.9167 h 2.0000 "/></g><defs></defs><g stroke-linejoin="miter" stroke-opacity="1.0" fill-opacity="0.0" stroke="rgb(0,0,0)" stroke-width="0.9999999999999997" fill="rgb(0,0,0)" stroke-linecap="butt" stroke-miterlimit="10.0"><path d="M 35.3887,122.0000 h 2.0000 "/></g><defs></defs><g stroke-linejoin="miter" stroke-opacity="1.0" fill-opacity="0.0" stroke="rgb(0,0,0)" stroke-width="0.9999999999999997" fill="rgb(0,0,0)" stroke-linecap="butt" stroke-miterlimit="10.0"><path d="M 35.3887,113.0833 h 2.0000 "/></g><defs></defs><g stroke-linejoin="miter" stroke-opacity="1.0" fill-opacity="0.0" stroke="rgb(0,0,0)" stroke-width="0.9999999999999997" fill="rgb(0,0,0)" stroke-linecap="butt" stroke-miterlimit="10.0"><path d="M 35.3887,104.1667 h 2.0000 "/></g><defs></defs><g stroke-linejoin="miter" stroke-opacity="1.0" fill-opacity="0.0" stroke="rgb(0,0,0)" stroke-width="0.9999999999999997" fill="rgb(0,0,0)" stroke-linecap="butt" stroke-miterlimit="10.0"><path d="M 35.3887,95.2500 h 2.0000 "/></g><defs></defs><g stroke-linejoin="miter" stroke-opacity="1.0" fill-opacity="0.0" stroke="rgb(0,0,0)" stroke-width="0.9999999999999997" fill="rgb(0,0,0)" stroke-linecap="butt" stroke-miterlimit="10.0"><path d="M 35.3887,86.3333 h 2.0000 "/></g><defs></defs><g stroke-linejoin="miter" stroke-opacity="1.0" fill-opacity="0.0" stroke="rgb(0,0,0)" stroke-width="0.9999999999999997" fill="rgb(0,0,0)" stroke-linecap="butt" stroke-miterlimit="10.0"><path d="M 35.3887,77.4167 h 2.0000 "/></g><defs></defs><g stroke-linejoin="miter" stroke-opacity="1.0" fill-opacity="0.0" stroke="rgb(0,0,0)" stroke-width="0.9999999999999997" fill="rgb(0,0,0)" stroke-linecap="butt" stroke-miterlimit="10.0"><path d="M 35.3887,68.5000 h 2.0000 "/></g><defs></defs><g stroke-linejoin="miter" stroke-opacity="1.0" fill-opacity="0.0" stroke="rgb(0,0,0)" stroke-width="0.9999999999999997" fill="rgb(0,0,0)" stroke-linecap="butt" stroke-miterlimit="10.0"><path d="M 35.3887,59.5833 h 2.0000 "/></g><defs></defs><g stroke-linejoin="miter" stroke-opacity="1.0" fill-opacity="0.0" stroke="rgb(0,0,0)" stroke-width="0.9999999999999997" fill="rgb(0,0,0)" stroke-linecap="butt" stroke-miterlimit="10.0"><path d="M 35.3887,50.6667 h 2.0000 "/></g><defs></defs><g stroke-linejoin="miter" stroke-opacity="1.0" fill-opacity="0.0" stroke="rgb(0,0,0)" stroke-width="0.9999999999999997" fill="rgb(0,0,0)" stroke-linecap="butt" stroke-miterlimit="10.0"><path d="M 35.3887,41.7500 h 2.0000 "/></g><defs></defs><g stroke-linejoin="miter" stroke-opacity="1.0" fill-opacity="0.0" stroke="rgb(0,0,0)" stroke-width="0.9999999999999997" fill="rgb(0,0,0)" stroke-linecap="butt" stroke-miterlimit="10.0"><path d="M 35.3887,32.8333 h 2.0000 "/></g><defs></defs><g stroke-linejoin="miter" stroke-opacity="1.0" fill-opacity="0.0" stroke="rgb(0,0,0)" stroke-width="0.9999999999999997" fill="rgb(0,0,0)" stroke-linecap="butt" stroke-miterlimit="10.0"><path d="M 35.3887,23.9167 h 2.0000 "/></g><defs></defs><g stroke-linejoin="miter" stroke-opacity="1.0" fill-opacity="0.0" stroke="rgb(0,0,0)" stroke-width="0.9999999999999997" fill="rgb(0,0,0)" stroke-linecap="butt" stroke-miterlimit="10.0"><path d="M 35.3887,15.0000 h 2.0000 "/></g><defs></defs><g stroke-linejoin="miter" stroke-opacity="1.0" fill-opacity="0.0" stroke="rgb(0,0,0)" stroke-width="0.9999999999999997" fill="rgb(0,0,0)" stroke-linecap="butt" stroke-miterlimit="10.0"><path d="M 35.3887,550.0000 h 5.0000 "/></g><defs></defs><g stroke-linejoin="miter" stroke-opacity="1.0" fill-opacity="0.0" stroke="rgb(0,0,0)" stroke-width="0.9999999999999997" fill="rgb(0,0,0)" stroke-linecap="butt" stroke-miterlimit="10.0"><path d="M 35.3887,460.8333 h 5.0000 "/></g><defs></defs><g stroke-linejoin="miter" stroke-opacity="1.0" fill-opacity="0.0" stroke="rgb(0,0,0)" stroke-width="0.9999999999999997" fill="rgb(0,0,0)" stroke-linecap="butt" stroke-miterlimit="10.0"><path d="M 35.3887,371.6667 h 5.0000 "/></g><defs></defs><g stroke-linejoin="miter" stroke-opacity="1.0" fill-opacity="0.0" stroke="rgb(0,0,0)" stroke-width="0.9999999999999997" fill="rgb(0,0,0)" stroke-linecap="butt" stroke-miterlimit="10.0"><path d="M 35.3887,282.5000 h 5.0000 "/></g><defs></defs><g stroke-linejoin="miter" stroke-opacity="1.0" fill-opacity="0.0" stroke="rgb(0,0,0)" stroke-width="0.9999999999999997" fill="rgb(0,0,0)" stroke-linecap="butt" stroke-miterlimit="10.0"><path d="M 35.3887,193.3333 h 5.0000 "/></g><defs></defs><g stroke-linejoin="miter" stroke-opacity="1.0" fill-opacity="0.0" stroke="rgb(0,0,0)" stroke-width="0.9999999999999997" fill="rgb(0,0,0)" stroke-linecap="butt" stroke-miterlimit="10.0"><path d="M 35.3887,104.1667 h 5.0000 "/></g><defs></defs><g stroke-linejoin="miter" stroke-opacity="1.0" fill-opacity="0.0" stroke="rgb(0,0,0)" stroke-width="0.9999999999999997" fill="rgb(0,0,0)" stroke-linecap="butt" stroke-miterlimit="10.0"><path d="M 35.3887,15.0000 h 5.0000 "/></g><defs></defs><g stroke-linejoin="bevel" stroke-opacity="0.0" fill-opacity="1.0" stroke="rgb(0,0,0)" stroke-width="0.0" fill="rgb(0,0,0)" stroke-linecap="butt" stroke-miterlimit="10.0"><path d="M 12.5735,553.4454 ZM 13.0042,550.4832 h 2.4160 v 0.6618 h -2.4160 v -0.6618 ZM 15.8403,553.4454 ZM 16.6702,552.7311 h 1.5336 v -4.9370 h -1.2185 v -0.5567 c 0.4622,-0.0840 0.8036,-0.2048 0.8036 -0.2048c 0.3414,-0.1208 0.6145,-0.2889 0.6145 -0.2889h 0.6618 v 5.9874 h 1.3866 v 0.7143 h -3.7815 v -0.7143 ZM 21.0609,553.4454 ZM 23.6765,553.5714 c -1.0189,-0.0000 -1.5861,-0.9034 -1.5861 -0.9034c -0.5672,-0.9034 -0.5672,-2.5945 -0.5672 -2.5945c 0.0000,-1.6912 0.5672,-2.5735 0.5672 -2.5735c 0.5672,-0.8824 1.5861,-0.8824 1.5861 -0.8824c 1.0084,0.0000 1.5756,0.8824 1.5756 0.8824c 0.5672,0.8824 0.5672,2.5735 0.5672 2.5735c 0.0000,1.6912 -0.5672,2.5945 -0.5672 2.5945c -0.5672,0.9034 -1.5756,0.9034 -1.5756 0.9034ZM 23.6765,553.5714 ZM 23.6765,552.8782 c 0.2941,0.0000 0.5305,-0.1628 0.5305 -0.1628c 0.2363,-0.1628 0.4097,-0.5042 0.4097 -0.5042c 0.1733,-0.3414 0.2679,-0.8718 0.2679 -0.8718c 0.0945,-0.5305 0.0945,-1.2658 0.0945 -1.2658c 0.0000,-0.7353 -0.0945,-1.2605 -0.0945 -1.2605c -0.0945,-0.5252 -0.2679,-0.8561 -0.2679 -0.8561c -0.1733,-0.3309 -0.4097,-0.4884 -0.4097 -0.4884c -0.2363,-0.1576 -0.5305,-0.1576 -0.5305 -0.1576c -0.2941,-0.0000 -0.5357,0.1576 -0.5357 0.1576c -0.2416,0.1576 -0.4149,0.4884 -0.4149 0.4884c -0.1733,0.3309 -0.2679,0.8561 -0.2679 0.8561c -0.0945,0.5252 -0.0945,1.2605 -0.0945 1.2605c 0.0000,1.4706 0.3624,2.1376 0.3624 2.1376c 0.3624,0.6670 0.9506,0.6670 0.9506 0.6670Z"/></g><defs></defs><g stroke-linejoin="bevel" stroke-opacity="0.0" fill-opacity="1.0" stroke="rgb(0,0,0)" stroke-width="0.0" fill="rgb(0,0,0)" stroke-linecap="butt" stroke-miterlimit="10.0"><path d="M 10.0000,464.2787 ZM 10.4307,461.3165 h 2.4160 v 0.6618 h -2.4160 v -0.6618 ZM 13.2668,464.2787 ZM 15.1261,464.2787 c 0.0420,-0.9454 0.1681,-1.7332 0.1681 -1.7332c 0.1261,-0.7878 0.3519,-1.4968 0.3519 -1.4968c 0.2258,-0.7090 0.5777,-1.3708 0.5777 -1.3708c 0.3519,-0.6618 0.8456,-1.3550 0.8456 -1.3550h -3.3403 v -0.7458 h 4.3172 v 0.5357 c -0.5987,0.7563 -0.9716,1.4496 -0.9716 1.4496c -0.3729,0.6933 -0.5935,1.4128 -0.5935 1.4128c -0.2206,0.7195 -0.3204,1.5231 -0.3204 1.5231c -0.0998,0.8036 -0.1418,1.7805 -0.1418 1.7805h -0.8929 h 0.0000 ZM 18.4874,464.2787 ZM 19.1702,463.7535 c 0.0000,-0.3046 0.1838,-0.4884 0.1838 -0.4884c 0.1838,-0.1838 0.4464,-0.1838 0.4464 -0.1838c 0.2521,0.0000 0.4359,0.1838 0.4359 0.1838c 0.1838,0.1838 0.1838,0.4884 0.1838 0.4884c 0.0000,0.2836 -0.1838,0.4674 -0.1838 0.4674c -0.1838,0.1838 -0.4359,0.1838 -0.4359 0.1838c -0.2626,-0.0000 -0.4464,-0.1838 -0.4464 -0.1838c -0.1838,-0.1838 -0.1838,-0.4674 -0.1838 -0.4674ZM 21.1029,464.2787 ZM 21.7857,462.9237 c 0.2941,0.3046 0.6985,0.5357 0.6985 0.5357c 0.4044,0.2311 0.9926,0.2311 0.9926 0.2311c 0.3046,0.0000 0.5725,-0.1103 0.5725 -0.1103c 0.2679,-0.1103 0.4674,-0.3099 0.4674 -0.3099c 0.1996,-0.1996 0.3151,-0.4832 0.3151 -0.4832c 0.1155,-0.2836 0.1155,-0.6303 0.1155 -0.6303c 0.0000,-0.6933 -0.3887,-1.0819 -0.3887 -1.0819c -0.3887,-0.3887 -1.0399,-0.3887 -1.0399 -0.3887c -0.3466,-0.0000 -0.5935,0.1050 -0.5935 0.1050c -0.2468,0.1050 -0.5515,0.3046 -0.5515 0.3046l -0.4622,-0.2941 l 0.2206,-3.2248 h 3.3508 v 0.7458 h -2.5945 l -0.1786,1.9853 c 0.2416,-0.1261 0.4832,-0.1996 0.4832 -0.1996c 0.2416,-0.0735 0.5462,-0.0735 0.5462 -0.0735c 0.4307,0.0000 0.8088,0.1261 0.8088 0.1261c 0.3782,0.1261 0.6618,0.3834 0.6618 0.3834c 0.2836,0.2574 0.4464,0.6513 0.4464 0.6513c 0.1628,0.3939 0.1628,0.9401 0.1628 0.9401c 0.0000,0.5462 -0.1891,0.9664 -0.1891 0.9664c -0.1891,0.4202 -0.5042,0.7090 -0.5042 0.7090c -0.3151,0.2889 -0.7195,0.4412 -0.7195 0.4412c -0.4044,0.1523 -0.8456,0.1523 -0.8456 0.1523c -0.3992,-0.0000 -0.7300,-0.0788 -0.7300 -0.0788c -0.3309,-0.0788 -0.5987,-0.2048 -0.5987 -0.2048c -0.2679,-0.1261 -0.4832,-0.2889 -0.4832 -0.2889c -0.2153,-0.1628 -0.3834,-0.3414 -0.3834 -0.3414Z"/></g><defs></defs><g stroke-linejoin="bevel" stroke-opacity="0.0" fill-opacity="1.0" stroke="rgb(0,0,0)" stroke-width="0.0" fill="rgb(0,0,0)" stroke-linecap="butt" stroke-miterlimit="10.0"><path d="M 17.8361,375.1120 ZM 18.2668,372.1499 h 2.4160 v 0.6618 h -2.4160 v -0.6618 ZM 21.1029,375.1120 ZM 21.7857,373.7570 c 0.2941,0.3046 0.6985,0.5357 0.6985 0.5357c 0.4044,0.2311 0.9926,0.2311 0.9926 0.2311c 0.3046,0.0000 0.5725,-0.1103 0.5725 -0.1103c 0.2679,-0.1103 0.4674,-0.3099 0.4674 -0.3099c 0.1996,-0.1996 0.3151,-0.4832 0.3151 -0.4832c 0.1155,-0.2836 0.1155,-0.6303 0.1155 -0.6303c 0.0000,-0.6933 -0.3887,-1.0819 -0.3887 -1.0819c -0.3887,-0.3887 -1.0399,-0.3887 -1.0399 -0.3887c -0.3466,-0.0000 -0.5935,0.1050 -0.5935 0.1050c -0.2468,0.1050 -0.5515,0.3046 -0.5515 0.3046l -0.4622,-0.2941 l 0.2206,-3.2248 h 3.3508 v 0.7458 h -2.5945 l -0.1786,1.9853 c 0.2416,-0.1261 0.4832,-0.1996 0.4832 -0.1996c 0.2416,-0.0735 0.5462,-0.0735 0.5462 -0.0735c 0.4307,0.0000 0.8088,0.1261 0.8088 0.1261c 0.3782,0.1261 0.6618,0.3834 0.6618 0.3834c 0.2836,0.2574 0.4464,0.6513 0.4464 0.6513c 0.1628,0.3939 0.1628,0.9401 0.1628 0.9401c 0.0000,0.5462 -0.1891,0.9664 -0.1891 0.9664c -0.1891,0.4202 -0.5042,0.7090 -0.5042 0.7090c -0.3151,0.2889 -0.7195,0.4412 -0.7195 0.4412c -0.4044,0.1523 -0.8456,0.1523 -0.8456 0.1523c -0.3992,-0.0000 -0.7300,-0.0788 -0.7300 -0.0788c -0.3309,-0.0788 -0.5987,-0.2048 -0.5987 -0.2048c -0.2679,-0.1261 -0.4832,-0.2889 -0.4832 -0.2889c -0.2153,-0.1628 -0.3834,-0.3414 -0.3834 -0.3414Z"/></g><defs></defs><g stroke-linejoin="bevel" stroke-opacity="0.0" fill-opacity="1.0" stroke="rgb(0,0,0)" stroke-width="0.0" fill="rgb(0,0,0)" stroke-linecap="butt" stroke-miterlimit="10.0"><path d="M 10.0000,285.9454 ZM 10.4307,282.9832 h 2.4160 v 0.6618 h -2.4160 v -0.6618 ZM 13.2668,285.9454 ZM 13.6870,285.4307 c 0.7563,-0.7563 1.3445,-1.3655 1.3445 -1.3655c 0.5882,-0.6092 0.9874,-1.1292 0.9874 -1.1292c 0.3992,-0.5200 0.6092,-0.9559 0.6092 -0.9559c 0.2101,-0.4359 0.2101,-0.8456 0.2101 -0.8456c 0.0000,-0.5777 -0.3151,-0.9454 -0.3151 -0.9454c -0.3151,-0.3676 -0.9559,-0.3676 -0.9559 -0.3676c -0.4202,-0.0000 -0.7773,0.2363 -0.7773 0.2363c -0.3571,0.2363 -0.6513,0.5725 -0.6513 0.5725l -0.4937,-0.4937 c 0.4202,-0.4622 0.8929,-0.7405 0.8929 -0.7405c 0.4727,-0.2784 1.1345,-0.2784 1.1345 -0.2784c 0.9349,0.0000 1.4706,0.5410 1.4706 0.5410c 0.5357,0.5410 0.5357,1.4338 0.5357 1.4338c 0.0000,0.4727 -0.2048,0.9506 -0.2048 0.9506c -0.2048,0.4779 -0.5672,0.9874 -0.5672 0.9874c -0.3624,0.5095 -0.8613,1.0609 -0.8613 1.0609c -0.4989,0.5515 -1.0977,1.1712 -1.0977 1.1712c 0.2731,-0.0210 0.5672,-0.0420 0.5672 -0.0420c 0.2941,-0.0210 0.5567,-0.0210 0.5567 -0.0210h 1.9433 v 0.7458 h -4.3277 v -0.5147 ZM 18.4874,285.9454 ZM 19.1702,285.4202 c 0.0000,-0.3046 0.1838,-0.4884 0.1838 -0.4884c 0.1838,-0.1838 0.4464,-0.1838 0.4464 -0.1838c 0.2521,0.0000 0.4359,0.1838 0.4359 0.1838c 0.1838,0.1838 0.1838,0.4884 0.1838 0.4884c 0.0000,0.2836 -0.1838,0.4674 -0.1838 0.4674c -0.1838,0.1838 -0.4359,0.1838 -0.4359 0.1838c -0.2626,-0.0000 -0.4464,-0.1838 -0.4464 -0.1838c -0.1838,-0.1838 -0.1838,-0.4674 -0.1838 -0.4674ZM 21.1029,285.9454 ZM 21.7857,284.5903 c 0.2941,0.3046 0.6985,0.5357 0.6985 0.5357c 0.4044,0.2311 0.9926,0.2311 0.9926 0.2311c 0.3046,0.0000 0.5725,-0.1103 0.5725 -0.1103c 0.2679,-0.1103 0.4674,-0.3099 0.4674 -0.3099c 0.1996,-0.1996 0.3151,-0.4832 0.3151 -0.4832c 0.1155,-0.2836 0.1155,-0.6303 0.1155 -0.6303c 0.0000,-0.6933 -0.3887,-1.0819 -0.3887 -1.0819c -0.3887,-0.3887 -1.0399,-0.3887 -1.0399 -0.3887c -0.3466,-0.0000 -0.5935,0.1050 -0.5935 0.1050c -0.2468,0.1050 -0.5515,0.3046 -0.5515 0.3046l -0.4622,-0.2941 l 0.2206,-3.2248 h 3.3508 v 0.7458 h -2.5945 l -0.1786,1.9853 c 0.2416,-0.1261 0.4832,-0.1996 0.4832 -0.1996c 0.2416,-0.0735 0.5462,-0.0735 0.5462 -0.0735c 0.4307,0.0000 0.8088,0.1261 0.8088 0.1261c 0.3782,0.1261 0.6618,0.3834 0.6618 0.3834c 0.2836,0.2574 0.4464,0.6513 0.4464 0.6513c 0.1628,0.3939 0.1628,0.9401 0.1628 0.9401c 0.0000,0.5462 -0.1891,0.9664 -0.1891 0.9664c -0.1891,0.4202 -0.5042,0.7090 -0.5042 0.7090c -0.3151,0.2889 -0.7195,0.4412 -0.7195 0.4412c -0.4044,0.1523 -0.8456,0.1523 -0.8456 0.1523c -0.3992,-0.0000 -0.7300,-0.0788 -0.7300 -0.0788c -0.3309,-0.0788 -0.5987,-0.2048 -0.5987 -0.2048c -0.2679,-0.1261 -0.4832,-0.2889 -0.4832 -0.2889c -0.2153,-0.1628 -0.3834,-0.3414 -0.3834 -0.3414Z"/></g><defs></defs><g stroke-linejoin="bevel" stroke-opacity="0.0" fill-opacity="1.0" stroke="rgb(0,0,0)" stroke-width="0.0" fill="rgb(0,0,0)" stroke-linecap="butt" stroke-miterlimit="10.0"><path d="M 21.0924,196.7787 ZM 23.7080,196.9048 c -1.0189,-0.0000 -1.5861,-0.9034 -1.5861 -0.9034c -0.5672,-0.9034 -0.5672,-2.5945 -0.5672 -2.5945c 0.0000,-1.6912 0.5672,-2.5735 0.5672 -2.5735c 0.5672,-0.8824 1.5861,-0.8824 1.5861 -0.8824c 1.0084,0.0000 1.5756,0.8824 1.5756 0.8824c 0.5672,0.8824 0.5672,2.5735 0.5672 2.5735c 0.0000,1.6912 -0.5672,2.5945 -0.5672 2.5945c -0.5672,0.9034 -1.5756,0.9034 -1.5756 0.9034ZM 23.7080,196.9048 ZM 23.7080,196.2115 c 0.2941,0.0000 0.5305,-0.1628 0.5305 -0.1628c 0.2363,-0.1628 0.4097,-0.5042 0.4097 -0.5042c 0.1733,-0.3414 0.2679,-0.8718 0.2679 -0.8718c 0.0945,-0.5305 0.0945,-1.2658 0.0945 -1.2658c 0.0000,-0.7353 -0.0945,-1.2605 -0.0945 -1.2605c -0.0945,-0.5252 -0.2679,-0.8561 -0.2679 -0.8561c -0.1733,-0.3309 -0.4097,-0.4884 -0.4097 -0.4884c -0.2363,-0.1576 -0.5305,-0.1576 -0.5305 -0.1576c -0.2941,-0.0000 -0.5357,0.1576 -0.5357 0.1576c -0.2416,0.1576 -0.4149,0.4884 -0.4149 0.4884c -0.1733,0.3309 -0.2679,0.8561 -0.2679 0.8561c -0.0945,0.5252 -0.0945,1.2605 -0.0945 1.2605c 0.0000,1.4706 0.3624,2.1376 0.3624 2.1376c 0.3624,0.6670 0.9506,0.6670 0.9506 0.6670Z"/></g><defs></defs><g stroke-linejoin="bevel" stroke-opacity="0.0" fill-opacity="1.0" stroke="rgb(0,0,0)" stroke-width="0.0" fill="rgb(0,0,0)" stroke-linecap="butt" stroke-miterlimit="10.0"><path d="M 13.2143,107.6120 ZM 13.6345,107.0973 c 0.7563,-0.7563 1.3445,-1.3655 1.3445 -1.3655c 0.5882,-0.6092 0.9874,-1.1292 0.9874 -1.1292c 0.3992,-0.5200 0.6092,-0.9559 0.6092 -0.9559c 0.2101,-0.4359 0.2101,-0.8456 0.2101 -0.8456c 0.0000,-0.5777 -0.3151,-0.9454 -0.3151 -0.9454c -0.3151,-0.3676 -0.9559,-0.3676 -0.9559 -0.3676c -0.4202,-0.0000 -0.7773,0.2363 -0.7773 0.2363c -0.3571,0.2363 -0.6513,0.5725 -0.6513 0.5725l -0.4937,-0.4937 c 0.4202,-0.4622 0.8929,-0.7405 0.8929 -0.7405c 0.4727,-0.2784 1.1345,-0.2784 1.1345 -0.2784c 0.9349,0.0000 1.4706,0.5410 1.4706 0.5410c 0.5357,0.5410 0.5357,1.4338 0.5357 1.4338c 0.0000,0.4727 -0.2048,0.9506 -0.2048 0.9506c -0.2048,0.4779 -0.5672,0.9874 -0.5672 0.9874c -0.3624,0.5095 -0.8613,1.0609 -0.8613 1.0609c -0.4989,0.5515 -1.0977,1.1712 -1.0977 1.1712c 0.2731,-0.0210 0.5672,-0.0420 0.5672 -0.0420c 0.2941,-0.0210 0.5567,-0.0210 0.5567 -0.0210h 1.9433 v 0.7458 h -4.3277 v -0.5147 ZM 18.4349,107.6120 ZM 19.1176,107.0868 c 0.0000,-0.3046 0.1838,-0.4884 0.1838 -0.4884c 0.1838,-0.1838 0.4464,-0.1838 0.4464 -0.1838c 0.2521,0.0000 0.4359,0.1838 0.4359 0.1838c 0.1838,0.1838 0.1838,0.4884 0.1838 0.4884c 0.0000,0.2836 -0.1838,0.4674 -0.1838 0.4674c -0.1838,0.1838 -0.4359,0.1838 -0.4359 0.1838c -0.2626,-0.0000 -0.4464,-0.1838 -0.4464 -0.1838c -0.1838,-0.1838 -0.1838,-0.4674 -0.1838 -0.4674ZM 21.0504,107.6120 ZM 21.7332,106.2570 c 0.2941,0.3046 0.6985,0.5357 0.6985 0.5357c 0.4044,0.2311 0.9926,0.2311 0.9926 0.2311c 0.3046,0.0000 0.5725,-0.1103 0.5725 -0.1103c 0.2679,-0.1103 0.4674,-0.3099 0.4674 -0.3099c 0.1996,-0.1996 0.3151,-0.4832 0.3151 -0.4832c 0.1155,-0.2836 0.1155,-0.6303 0.1155 -0.6303c 0.0000,-0.6933 -0.3887,-1.0819 -0.3887 -1.0819c -0.3887,-0.3887 -1.0399,-0.3887 -1.0399 -0.3887c -0.3466,-0.0000 -0.5935,0.1050 -0.5935 0.1050c -0.2468,0.1050 -0.5515,0.3046 -0.5515 0.3046l -0.4622,-0.2941 l 0.2206,-3.2248 h 3.3508 v 0.7458 h -2.5945 l -0.1786,1.9853 c 0.2416,-0.1261 0.4832,-0.1996 0.4832 -0.1996c 0.2416,-0.0735 0.5462,-0.0735 0.5462 -0.0735c 0.4307,0.0000 0.8088,0.1261 0.8088 0.1261c 0.3782,0.1261 0.6618,0.3834 0.6618 0.3834c 0.2836,0.2574 0.4464,0.6513 0.4464 0.6513c 0.1628,0.3939 0.1628,0.9401 0.1628 0.9401c 0.0000,0.5462 -0.1891,0.9664 -0.1891 0.9664c -0.1891,0.4202 -0.5042,0.7090 -0.5042 0.7090c -0.3151,0.2889 -0.7195,0.4412 -0.7195 0.4412c -0.4044,0.1523 -0.8456,0.1523 -0.8456 0.1523c -0.3992,-0.0000 -0.7300,-0.0788 -0.7300 -0.0788c -0.3309,-0.0788 -0.5987,-0.2048 -0.5987 -0.2048c -0.2679,-0.1261 -0.4832,-0.2889 -0.4832 -0.2889c -0.2153,-0.1628 -0.3834,-0.3414 -0.3834 -0.3414Z"/></g><defs></defs><g stroke-linejoin="bevel" stroke-opacity="0.0" fill-opacity="1.0" stroke="rgb(0,0,0)" stroke-width="0.0" fill="rgb(0,0,0)" stroke-linecap="butt" stroke-miterlimit="10.0"><path d="M 20.9349,18.4454 ZM 21.6176,17.0903 c 0.2941,0.3046 0.6985,0.5357 0.6985 0.5357c 0.4044,0.2311 0.9926,0.2311 0.9926 0.2311c 0.3046,0.0000 0.5725,-0.1103 0.5725 -0.1103c 0.2679,-0.1103 0.4674,-0.3099 0.4674 -0.3099c 0.1996,-0.1996 0.3151,-0.4832 0.3151 -0.4832c 0.1155,-0.2836 0.1155,-0.6303 0.1155 -0.6303c 0.0000,-0.6933 -0.3887,-1.0819 -0.3887 -1.0819c -0.3887,-0.3887 -1.0399,-0.3887 -1.0399 -0.3887c -0.3466,-0.0000 -0.5935,0.1050 -0.5935 0.1050c -0.2468,0.1050 -0.5515,0.3046 -0.5515 0.3046l -0.4622,-0.2941 l 0.2206,-3.2248 h 3.3508 v 0.7458 h -2.5945 l -0.1786,1.9853 c 0.2416,-0.1261 0.4832,-0.1996 0.4832 -0.1996c 0.2416,-0.0735 0.5462,-0.0735 0.5462 -0.0735c 0.4307,0.0000 0.8088,0.1261 0.8088 0.1261c 0.3782,0.1261 0.6618,0.3834 0.6618 0.3834c 0.2836,0.2574 0.4464,0.6513 0.4464 0.6513c 0.1628,0.3939 0.1628,0.9401 0.1628 0.9401c 0.0000,0.5462 -0.1891,0.9664 -0.1891 0.9664c -0.1891,0.4202 -0.5042,0.7090 -0.5042 0.7090c -0.3151,0.2889 -0.7195,0.4412 -0.7195 0.4412c -0.4044,0.1523 -0.8456,0.1523 -0.8456 0.1523c -0.3992,-0.0000 -0.7300,-0.0788 -0.7300 -0.0788c -0.3309,-0.0788 -0.5987,-0.2048 -0.5987 -0.2048c -0.2679,-0.1261 -0.4832,-0.2889 -0.4832 -0.2889c -0.2153,-0.1628 -0.3834,-0.3414 -0.3834 -0.3414Z"/></g><defs></defs><g stroke-linejoin="miter" stroke-opacity="1.0" fill-opacity="0.0" stroke="rgb(0,0,0)" stroke-width="0.9999999999999997" fill="rgb(0,0,0)" stroke-linecap="square" stroke-miterlimit="10.0"><path d="M 35.3887,550.0000 h 744.8162 "/></g><defs></defs><g stroke-linejoin="miter" stroke-opacity="1.0" fill-opacity="0.0" stroke="rgb(0,0,0)" stroke-width="0.9999999999999997" fill="rgb(0,0,0)" stroke-linecap="butt" stroke-miterlimit="10.0"><path d="M 35.3887,550.0000 v -2.0000 "/></g><defs></defs><g stroke-linejoin="miter" stroke-opacity="1.0" fill-opacity="0.0" stroke="rgb(0,0,0)" stroke-width="0.9999999999999997" fill="rgb(0,0,0)" stroke-linecap="butt" stroke-miterlimit="10.0"><path d="M 109.8703,550.0000 v -2.0000 "/></g><defs></defs><g stroke-linejoin="miter" stroke-opacity="1.0" fill-opacity="0.0" stroke="rgb(0,0,0)" stroke-width="0.9999999999999997" fill="rgb(0,0,0)" stroke-linecap="butt" stroke-miterlimit="10.0"><path d="M 184.3519,550.0000 v -2.0000 "/></g><defs></defs><g stroke-linejoin="miter" stroke-opacity="1.0" fill-opacity="0.0" stroke="rgb(0,0,0)" stroke-width="0.9999999999999997" fill="rgb(0,0,0)" stroke-linecap="butt" stroke-miterlimit="10.0"><path d="M 258.8335,550.0000 v -2.0000 "/></g><defs></defs><g stroke-linejoin="miter" stroke-opacity="1.0" fill-opacity="0.0" stroke="rgb(0,0,0)" stroke-width="0.9999999999999997" fill="rgb(0,0,0)" stroke-linecap="butt" stroke-miterlimit="10.0"><path d="M 333.3151,550.0000 v -2.0000 "/></g><defs></defs><g stroke-linejoin="miter" stroke-opacity="1.0" fill-opacity="0.0" stroke="rgb(0,0,0)" stroke-width="0.9999999999999997" fill="rgb(0,0,0)" stroke-linecap="butt" stroke-miterlimit="10.0"><path d="M 407.7967,550.0000 v -2.0000 "/></g><defs></defs><g stroke-linejoin="miter" stroke-opacity="1.0" fill-opacity="0.0" stroke="rgb(0,0,0)" stroke-width="0.9999999999999997" fill="rgb(0,0,0)" stroke-linecap="butt" stroke-miterlimit="10.0"><path d="M 482.2784,550.0000 v -2.0000 "/></g><defs></defs><g stroke-linejoin="miter" stroke-opacity="1.0" fill-opacity="0.0" stroke="rgb(0,0,0)" stroke-width="0.9999999999999997" fill="rgb(0,0,0)" stroke-linecap="butt" stroke-miterlimit="10.0"><path d="M 556.7600,550.0000 v -2.0000 "/></g><defs></defs><g stroke-linejoin="miter" stroke-opacity="1.0" fill-opacity="0.0" stroke="rgb(0,0,0)" stroke-width="0.9999999999999997" fill="rgb(0,0,0)" stroke-linecap="butt" stroke-miterlimit="10.0"><path d="M 631.2416,550.0000 v -2.0000 "/></g><defs></defs><g stroke-linejoin="miter" stroke-opacity="1.0" fill-opacity="0.0" stroke="rgb(0,0,0)" stroke-width="0.9999999999999997" fill="rgb(0,0,0)" stroke-linecap="butt" stroke-miterlimit="10.0"><path d="M 705.7232,550.0000 v -2.0000 "/></g><defs></defs><g stroke-linejoin="miter" stroke-opacity="1.0" fill-opacity="0.0" stroke="rgb(0,0,0)" stroke-width="0.9999999999999997" fill="rgb(0,0,0)" stroke-linecap="butt" stroke-miterlimit="10.0"><path d="M 780.2048,550.0000 v -2.0000 "/></g><defs></defs><g stroke-linejoin="miter" stroke-opacity="1.0" fill-opacity="0.0" stroke="rgb(0,0,0)" stroke-width="0.9999999999999997" fill="rgb(0,0,0)" stroke-linecap="butt" stroke-miterlimit="10.0"><path d="M 35.3887,550.0000 v -5.0000 "/></g><defs></defs><g stroke-linejoin="miter" stroke-opacity="1.0" fill-opacity="0.0" stroke="rgb(0,0,0)" stroke-width="0.9999999999999997" fill="rgb(0,0,0)" stroke-linecap="butt" stroke-miterlimit="10.0"><path d="M 221.5927,550.0000 v -5.0000 "/></g><defs></defs><g stroke-linejoin="miter" stroke-opacity="1.0" fill-opacity="0.0" stroke="rgb(0,0,0)" stroke-width="0.9999999999999997" fill="rgb(0,0,0)" stroke-linecap="butt" stroke-miterlimit="10.0"><path d="M 407.7967,550.0000 v -5.0000 "/></g><defs></defs><g stroke-linejoin="miter" stroke-opacity="1.0" fill-opacity="0.0" stroke="rgb(0,0,0)" stroke-width="0.9999999999999997" fill="rgb(0,0,0)" stroke-linecap="butt" stroke-miterlimit="10.0"><path d="M 594.0008,550.0000 v -5.0000 "/></g><defs></defs><g stroke-linejoin="miter" stroke-opacity="1.0" fill-opacity="0.0" stroke="rgb(0,0,0)" stroke-width="0.9999999999999997" fill="rgb(0,0,0)" stroke-linecap="butt" stroke-miterlimit="10.0"><path d="M 780.2048,550.0000 v -5.0000 "/></g><defs></defs><g stroke-linejoin="bevel" stroke-opacity="0.0" fill-opacity="1.0" stroke="rgb(0,0,0)" stroke-width="0.0" fill="rgb(0,0,0)" stroke-linecap="butt" stroke-miterlimit="10.0"><path d="M 33.2405,570.0000 ZM 35.8561,570.1261 c -1.0189,-0.0000 -1.5861,-0.9034 -1.5861 -0.9034c -0.5672,-0.9034 -0.5672,-2.5945 -0.5672 -2.5945c 0.0000,-1.6912 0.5672,-2.5735 0.5672 -2.5735c 0.5672,-0.8824 1.5861,-0.8824 1.5861 -0.8824c 1.0084,0.0000 1.5756,0.8824 1.5756 0.8824c 0.5672,0.8824 0.5672,2.5735 0.5672 2.5735c 0.0000,1.6912 -0.5672,2.5945 -0.5672 2.5945c -0.5672,0.9034 -1.5756,0.9034 -1.5756 0.9034ZM 35.8561,570.1261 ZM 35.8561,569.4328 c 0.2941,0.0000 0.5305,-0.1628 0.5305 -0.1628c 0.2363,-0.1628 0.4097,-0.5042 0.4097 -0.5042c 0.1733,-0.3414 0.2679,-0.8718 0.2679 -0.8718c 0.0945,-0.5305 0.0945,-1.2658 0.0945 -1.2658c 0.0000,-0.7353 -0.0945,-1.2605 -0.0945 -1.2605c -0.0945,-0.5252 -0.2679,-0.8561 -0.2679 -0.8561c -0.1733,-0.3309 -0.4097,-0.4884 -0.4097 -0.4884c -0.2363,-0.1576 -0.5305,-0.1576 -0.5305 -0.1576c -0.2941,-0.0000 -0.5357,0.1576 -0.5357 0.1576c -0.2416,0.1576 -0.4149,0.4884 -0.4149 0.4884c -0.1733,0.3309 -0.2679,0.8561 -0.2679 0.8561c -0.0945,0.5252 -0.0945,1.2605 -0.0945 1.2605c 0.0000,1.4706 0.3624,2.1376 0.3624 2.1376c 0.3624,0.6670 0.9506,0.6670 0.9506 0.6670Z"/></g><defs></defs><g stroke-linejoin="bevel" stroke-opacity="0.0" fill-opacity="1.0" stroke="rgb(0,0,0)" stroke-width="0.0" fill="rgb(0,0,0)" stroke-linecap="butt" stroke-miterlimit="10.0"><path d="M 214.1820,570.0000 ZM 214.6022,569.4853 c 0.7563,-0.7563 1.3445,-1.3655 1.3445 -1.3655c 0.5882,-0.6092 0.9874,-1.1292 0.9874 -1.1292c 0.3992,-0.5200 0.6092,-0.9559 0.6092 -0.9559c 0.2101,-0.4359 0.2101,-0.8456 0.2101 -0.8456c 0.0000,-0.5777 -0.3151,-0.9454 -0.3151 -0.9454c -0.3151,-0.3676 -0.9559,-0.3676 -0.9559 -0.3676c -0.4202,-0.0000 -0.7773,0.2363 -0.7773 0.2363c -0.3571,0.2363 -0.6513,0.5725 -0.6513 0.5725l -0.4937,-0.4937 c 0.4202,-0.4622 0.8929,-0.7405 0.8929 -0.7405c 0.4727,-0.2784 1.1345,-0.2784 1.1345 -0.2784c 0.9349,0.0000 1.4706,0.5410 1.4706 0.5410c 0.5357,0.5410 0.5357,1.4338 0.5357 1.4338c 0.0000,0.4727 -0.2048,0.9506 -0.2048 0.9506c -0.2048,0.4779 -0.5672,0.9874 -0.5672 0.9874c -0.3624,0.5095 -0.8613,1.0609 -0.8613 1.0609c -0.4989,0.5515 -1.0977,1.1712 -1.0977 1.1712c 0.2731,-0.0210 0.5672,-0.0420 0.5672 -0.0420c 0.2941,-0.0210 0.5567,-0.0210 0.5567 -0.0210h 1.9433 v 0.7458 h -4.3277 v -0.5147 ZM 219.4026,570.0000 ZM 220.0853,568.6450 c 0.2941,0.3046 0.6985,0.5357 0.6985 0.5357c 0.4044,0.2311 0.9926,0.2311 0.9926 0.2311c 0.3046,0.0000 0.5725,-0.1103 0.5725 -0.1103c 0.2679,-0.1103 0.4674,-0.3099 0.4674 -0.3099c 0.1996,-0.1996 0.3151,-0.4832 0.3151 -0.4832c 0.1155,-0.2836 0.1155,-0.6303 0.1155 -0.6303c 0.0000,-0.6933 -0.3887,-1.0819 -0.3887 -1.0819c -0.3887,-0.3887 -1.0399,-0.3887 -1.0399 -0.3887c -0.3466,-0.0000 -0.5935,0.1050 -0.5935 0.1050c -0.2468,0.1050 -0.5515,0.3046 -0.5515 0.3046l -0.4622,-0.2941 l 0.2206,-3.2248 h 3.3508 v 0.7458 h -2.5945 l -0.1786,1.9853 c 0.2416,-0.1261 0.4832,-0.1996 0.4832 -0.1996c 0.2416,-0.0735 0.5462,-0.0735 0.5462 -0.0735c 0.4307,0.0000 0.8088,0.1261 0.8088 0.1261c 0.3782,0.1261 0.6618,0.3834 0.6618 0.3834c 0.2836,0.2574 0.4464,0.6513 0.4464 0.6513c 0.1628,0.3939 0.1628,0.9401 0.1628 0.9401c 0.0000,0.5462 -0.1891,0.9664 -0.1891 0.9664c -0.1891,0.4202 -0.5042,0.7090 -0.5042 0.7090c -0.3151,0.2889 -0.7195,0.4412 -0.7195 0.4412c -0.4044,0.1523 -0.8456,0.1523 -0.8456 0.1523c -0.3992,-0.0000 -0.7300,-0.0788 -0.7300 -0.0788c -0.3309,-0.0788 -0.5987,-0.2048 -0.5987 -0.2048c -0.2679,-0.1261 -0.4832,-0.2889 -0.4832 -0.2889c -0.2153,-0.1628 -0.3834,-0.3414 -0.3834 -0.3414ZM 224.6232,570.0000 ZM 227.2387,570.1261 c -1.0189,-0.0000 -1.5861,-0.9034 -1.5861 -0.9034c -0.5672,-0.9034 -0.5672,-2.5945 -0.5672 -2.5945c 0.0000,-1.6912 0.5672,-2.5735 0.5672 -2.5735c 0.5672,-0.8824 1.5861,-0.8824 1.5861 -0.8824c 1.0084,0.0000 1.5756,0.8824 1.5756 0.8824c 0.5672,0.8824 0.5672,2.5735 0.5672 2.5735c 0.0000,1.6912 -0.5672,2.5945 -0.5672 2.5945c -0.5672,0.9034 -1.5756,0.9034 -1.5756 0.9034ZM 227.2387,570.1261 ZM 227.2387,569.4328 c 0.2941,0.0000 0.5305,-0.1628 0.5305 -0.1628c 0.2363,-0.1628 0.4097,-0.5042 0.4097 -0.5042c 0.1733,-0.3414 0.2679,-0.8718 0.2679 -0.8718c 0.0945,-0.5305 0.0945,-1.2658 0.0945 -1.2658c 0.0000,-0.7353 -0.0945,-1.2605 -0.0945 -1.2605c -0.0945,-0.5252 -0.2679,-0.8561 -0.2679 -0.8561c -0.1733,-0.3309 -0.4097,-0.4884 -0.4097 -0.4884c -0.2363,-0.1576 -0.5305,-0.1576 -0.5305 -0.1576c -0.2941,-0.0000 -0.5357,0.1576 -0.5357 0.1576c -0.2416,0.1576 -0.4149,0.4884 -0.4149 0.4884c -0.1733,0.3309 -0.2679,0.8561 -0.2679 0.8561c -0.0945,0.5252 -0.0945,1.2605 -0.0945 1.2605c 0.0000,1.4706 0.3624,2.1376 0.3624 2.1376c 0.3624,0.6670 0.9506,0.6670 0.9506 0.6670Z"/></g><defs></defs><g stroke-linejoin="bevel" stroke-opacity="0.0" fill-opacity="1.0" stroke="rgb(0,0,0)" stroke-width="0.0" fill="rgb(0,0,0)" stroke-linecap="butt" stroke-miterlimit="10.0"><path d="M 400.3283,570.0000 ZM 401.0110,568.6450 c 0.2941,0.3046 0.6985,0.5357 0.6985 0.5357c 0.4044,0.2311 0.9926,0.2311 0.9926 0.2311c 0.3046,0.0000 0.5725,-0.1103 0.5725 -0.1103c 0.2679,-0.1103 0.4674,-0.3099 0.4674 -0.3099c 0.1996,-0.1996 0.3151,-0.4832 0.3151 -0.4832c 0.1155,-0.2836 0.1155,-0.6303 0.1155 -0.6303c 0.0000,-0.6933 -0.3887,-1.0819 -0.3887 -1.0819c -0.3887,-0.3887 -1.0399,-0.3887 -1.0399 -0.3887c -0.3466,-0.0000 -0.5935,0.1050 -0.5935 0.1050c -0.2468,0.1050 -0.5515,0.3046 -0.5515 0.3046l -0.4622,-0.2941 l 0.2206,-3.2248 h 3.3508 v 0.7458 h -2.5945 l -0.1786,1.9853 c 0.2416,-0.1261 0.4832,-0.1996 0.4832 -0.1996c 0.2416,-0.0735 0.5462,-0.0735 0.5462 -0.0735c 0.4307,0.0000 0.8088,0.1261 0.8088 0.1261c 0.3782,0.1261 0.6618,0.3834 0.6618 0.3834c 0.2836,0.2574 0.4464,0.6513 0.4464 0.6513c 0.1628,0.3939 0.1628,0.9401 0.1628 0.9401c 0.0000,0.5462 -0.1891,0.9664 -0.1891 0.9664c -0.1891,0.4202 -0.5042,0.7090 -0.5042 0.7090c -0.3151,0.2889 -0.7195,0.4412 -0.7195 0.4412c -0.4044,0.1523 -0.8456,0.1523 -0.8456 0.1523c -0.3992,-0.0000 -0.7300,-0.0788 -0.7300 -0.0788c -0.3309,-0.0788 -0.5987,-0.2048 -0.5987 -0.2048c -0.2679,-0.1261 -0.4832,-0.2889 -0.4832 -0.2889c -0.2153,-0.1628 -0.3834,-0.3414 -0.3834 -0.3414ZM 405.5488,570.0000 ZM 408.1644,570.1261 c -1.0189,-0.0000 -1.5861,-0.9034 -1.5861 -0.9034c -0.5672,-0.9034 -0.5672,-2.5945 -0.5672 -2.5945c 0.0000,-1.6912 0.5672,-2.5735 0.5672 -2.5735c 0.5672,-0.8824 1.5861,-0.8824 1.5861 -0.8824c 1.0084,0.0000 1.5756,0.8824 1.5756 0.8824c 0.5672,0.8824 0.5672,2.5735 0.5672 2.5735c 0.0000,1.6912 -0.5672,2.5945 -0.5672 2.5945c -0.5672,0.9034 -1.5756,0.9034 -1.5756 0.9034ZM 408.1644,570.1261 ZM 408.1644,569.4328 c 0.2941,0.0000 0.5305,-0.1628 0.5305 -0.1628c 0.2363,-0.1628 0.4097,-0.5042 0.4097 -0.5042c 0.1733,-0.3414 0.2679,-0.8718 0.2679 -0.8718c 0.0945,-0.5305 0.0945,-1.2658 0.0945 -1.2658c 0.0000,-0.7353 -0.0945,-1.2605 -0.0945 -1.2605c -0.0945,-0.5252 -0.2679,-0.8561 -0.2679 -0.8561c -0.1733,-0.3309 -0.4097,-0.4884 -0.4097 -0.4884c -0.2363,-0.1576 -0.5305,-0.1576 -0.5305 -0.1576c -0.2941,-0.0000 -0.5357,0.1576 -0.5357 0.1576c -0.2416,0.1576 -0.4149,0.4884 -0.4149 0.4884c -0.1733,0.3309 -0.2679,0.8561 -0.2679 0.8561c -0.0945,0.5252 -0.0945,1.2605 -0.0945 1.2605c 0.0000,1.4706 0.3624,2.1376 0.3624 2.1376c 0.3624,0.6670 0.9506,0.6670 0.9506 0.6670ZM 410.7694,570.0000 ZM 413.3850,570.1261 c -1.0189,-0.0000 -1.5861,-0.9034 -1.5861 -0.9034c -0.5672,-0.9034 -0.5672,-2.5945 -0.5672 -2.5945c 0.0000,-1.6912 0.5672,-2.5735 0.5672 -2.5735c 0.5672,-0.8824 1.5861,-0.8824 1.5861 -0.8824c 1.0084,0.0000 1.5756,0.8824 1.5756 0.8824c 0.5672,0.8824 0.5672,2.5735 0.5672 2.5735c 0.0000,1.6912 -0.5672,2.5945 -0.5672 2.5945c -0.5672,0.9034 -1.5756,0.9034 -1.5756 0.9034ZM 413.3850,570.1261 ZM 413.3850,569.4328 c 0.2941,0.0000 0.5305,-0.1628 0.5305 -0.1628c 0.2363,-0.1628 0.4097,-0.5042 0.4097 -0.5042c 0.1733,-0.3414 0.2679,-0.8718 0.2679 -0.8718c 0.0945,-0.5305 0.0945,-1.2658 0.0945 -1.2658c 0.0000,-0.7353 -0.0945,-1.2605 -0.0945 -1.2605c -0.0945,-0.5252 -0.2679,-0.8561 -0.2679 -0.8561c -0.1733,-0.3309 -0.4097,-0.4884 -0.4097 -0.4884c -0.2363,-0.1576 -0.5305,-0.1576 -0.5305 -0.1576c -0.2941,-0.0000 -0.5357,0.1576 -0.5357 0.1576c -0.2416,0.1576 -0.4149,0.4884 -0.4149 0.4884c -0.1733,0.3309 -0.2679,0.8561 -0.2679 0.8561c -0.0945,0.5252 -0.0945,1.2605 -0.0945 1.2605c 0.0000,1.4706 0.3624,2.1376 0.3624 2.1376c 0.3624,0.6670 0.9506,0.6670 0.9506 0.6670Z"/></g><defs></defs><g stroke-linejoin="bevel" stroke-opacity="0.0" fill-opacity="1.0" stroke="rgb(0,0,0)" stroke-width="0.0" fill="rgb(0,0,0)" stroke-linecap="butt" stroke-miterlimit="10.0"><path d="M 586.6321,570.0000 ZM 588.4913,570.0000 c 0.0420,-0.9454 0.1681,-1.7332 0.1681 -1.7332c 0.1261,-0.7878 0.3519,-1.4968 0.3519 -1.4968c 0.2258,-0.7090 0.5777,-1.3708 0.5777 -1.3708c 0.3519,-0.6618 0.8456,-1.3550 0.8456 -1.3550h -3.3403 v -0.7458 h 4.3172 v 0.5357 c -0.5987,0.7563 -0.9716,1.4496 -0.9716 1.4496c -0.3729,0.6933 -0.5935,1.4128 -0.5935 1.4128c -0.2206,0.7195 -0.3204,1.5231 -0.3204 1.5231c -0.0998,0.8036 -0.1418,1.7805 -0.1418 1.7805h -0.8929 h 0.0000 ZM 591.8527,570.0000 ZM 592.5355,568.6450 c 0.2941,0.3046 0.6985,0.5357 0.6985 0.5357c 0.4044,0.2311 0.9926,0.2311 0.9926 0.2311c 0.3046,0.0000 0.5725,-0.1103 0.5725 -0.1103c 0.2679,-0.1103 0.4674,-0.3099 0.4674 -0.3099c 0.1996,-0.1996 0.3151,-0.4832 0.3151 -0.4832c 0.1155,-0.2836 0.1155,-0.6303 0.1155 -0.6303c 0.0000,-0.6933 -0.3887,-1.0819 -0.3887 -1.0819c -0.3887,-0.3887 -1.0399,-0.3887 -1.0399 -0.3887c -0.3466,-0.0000 -0.5935,0.1050 -0.5935 0.1050c -0.2468,0.1050 -0.5515,0.3046 -0.5515 0.3046l -0.4622,-0.2941 l 0.2206,-3.2248 h 3.3508 v 0.7458 h -2.5945 l -0.1786,1.9853 c 0.2416,-0.1261 0.4832,-0.1996 0.4832 -0.1996c 0.2416,-0.0735 0.5462,-0.0735 0.5462 -0.0735c 0.4307,0.0000 0.8088,0.1261 0.8088 0.1261c 0.3782,0.1261 0.6618,0.3834 0.6618 0.3834c 0.2836,0.2574 0.4464,0.6513 0.4464 0.6513c 0.1628,0.3939 0.1628,0.9401 0.1628 0.9401c 0.0000,0.5462 -0.1891,0.9664 -0.1891 0.9664c -0.1891,0.4202 -0.5042,0.7090 -0.5042 0.7090c -0.3151,0.2889 -0.7195,0.4412 -0.7195 0.4412c -0.4044,0.1523 -0.8456,0.1523 -0.8456 0.1523c -0.3992,-0.0000 -0.7300,-0.0788 -0.7300 -0.0788c -0.3309,-0.0788 -0.5987,-0.2048 -0.5987 -0.2048c -0.2679,-0.1261 -0.4832,-0.2889 -0.4832 -0.2889c -0.2153,-0.1628 -0.3834,-0.3414 -0.3834 -0.3414ZM 597.0733,570.0000 ZM 599.6888,570.1261 c -1.0189,-0.0000 -1.5861,-0.9034 -1.5861 -0.9034c -0.5672,-0.9034 -0.5672,-2.5945 -0.5672 -2.5945c 0.0000,-1.6912 0.5672,-2.5735 0.5672 -2.5735c 0.5672,-0.8824 1.5861,-0.8824 1.5861 -0.8824c 1.0084,0.0000 1.5756,0.8824 1.5756 0.8824c 0.5672,0.8824 0.5672,2.5735 0.5672 2.5735c 0.0000,1.6912 -0.5672,2.5945 -0.5672 2.5945c -0.5672,0.9034 -1.5756,0.9034 -1.5756 0.9034ZM 599.6888,570.1261 ZM 599.6888,569.4328 c 0.2941,0.0000 0.5305,-0.1628 0.5305 -0.1628c 0.2363,-0.1628 0.4097,-0.5042 0.4097 -0.5042c 0.1733,-0.3414 0.2679,-0.8718 0.2679 -0.8718c 0.0945,-0.5305 0.0945,-1.2658 0.0945 -1.2658c 0.0000,-0.7353 -0.0945,-1.2605 -0.0945 -1.2605c -0.0945,-0.5252 -0.2679,-0.8561 -0.2679 -0.8561c -0.1733,-0.3309 -0.4097,-0.4884 -0.4097 -0.4884c -0.2363,-0.1576 -0.5305,-0.1576 -0.5305 -0.1576c -0.2941,-0.0000 -0.5357,0.1576 -0.5357 0.1576c -0.2416,0.1576 -0.4149,0.4884 -0.4149 0.4884c -0.1733,0.3309 -0.2679,0.8561 -0.2679 0.8561c -0.0945,0.5252 -0.0945,1.2605 -0.0945 1.2605c 0.0000,1.4706 0.3624,2.1376 0.3624 2.1376c 0.3624,0.6670 0.9506,0.6670 0.9506 0.6670Z"/></g><defs></defs><g stroke-linejoin="bevel" stroke-opacity="0.0" fill-opacity="1.0" stroke="rgb(0,0,0)" stroke-width="0.0" fill="rgb(0,0,0)" stroke-linecap="butt" stroke-miterlimit="10.0"><path d="M 770.4097,570.0000 ZM 771.2395,569.2857 h 1.5336 v -4.9370 h -1.2185 v -0.5567 c 0.4622,-0.0840 0.8036,-0.2048 0.8036 -0.2048c 0.3414,-0.1208 0.6145,-0.2889 0.6145 -0.2889h 0.6618 v 5.9874 h 1.3866 v 0.7143 h -3.7815 v -0.7143 ZM 775.6303,570.0000 ZM 778.2458,570.1261 c -1.0189,-0.0000 -1.5861,-0.9034 -1.5861 -0.9034c -0.5672,-0.9034 -0.5672,-2.5945 -0.5672 -2.5945c 0.0000,-1.6912 0.5672,-2.5735 0.5672 -2.5735c 0.5672,-0.8824 1.5861,-0.8824 1.5861 -0.8824c 1.0084,0.0000 1.5756,0.8824 1.5756 0.8824c 0.5672,0.8824 0.5672,2.5735 0.5672 2.5735c 0.0000,1.6912 -0.5672,2.5945 -0.5672 2.5945c -0.5672,0.9034 -1.5756,0.9034 -1.5756 0.9034ZM 778.2458,570.1261 ZM 778.2458,569.4328 c 0.2941,0.0000 0.5305,-0.1628 0.5305 -0.1628c 0.2363,-0.1628 0.4097,-0.5042 0.4097 -0.5042c 0.1733,-0.3414 0.2679,-0.8718 0.2679 -0.8718c 0.0945,-0.5305 0.0945,-1.2658 0.0945 -1.2658c 0.0000,-0.7353 -0.0945,-1.2605 -0.0945 -1.2605c -0.0945,-0.5252 -0.2679,-0.8561 -0.2679 -0.8561c -0.1733,-0.3309 -0.4097,-0.4884 -0.4097 -0.4884c -0.2363,-0.1576 -0.5305,-0.1576 -0.5305 -0.1576c -0.2941,-0.0000 -0.5357,0.1576 -0.5357 0.1576c -0.2416,0.1576 -0.4149,0.4884 -0.4149 0.4884c -0.1733,0.3309 -0.2679,0.8561 -0.2679 0.8561c -0.0945,0.5252 -0.0945,1.2605 -0.0945 1.2605c 0.0000,1.4706 0.3624,2.1376 0.3624 2.1376c 0.3624,0.6670 0.9506,0.6670 0.9506 0.6670ZM 780.8508,570.0000 ZM 783.4664,570.1261 c -1.0189,-0.0000 -1.5861,-0.9034 -1.5861 -0.9034c -0.5672,-0.9034 -0.5672,-2.5945 -0.5672 -2.5945c 0.0000,-1.6912 0.5672,-2.5735 0.5672 -2.5735c 0.5672,-0.8824 1.5861,-0.8824 1.5861 -0.8824c 1.0084,0.0000 1.5756,0.8824 1.5756 0.8824c 0.5672,0.8824 0.5672,2.5735 0.5672 2.5735c 0.0000,1.6912 -0.5672,2.5945 -0.5672 2.5945c -0.5672,0.9034 -1.5756,0.9034 -1.5756 0.9034ZM 783.4664,570.1261 ZM 783.4664,569.4328 c 0.2941,0.0000 0.5305,-0.1628 0.5305 -0.1628c 0.2363,-0.1628 0.4097,-0.5042 0.4097 -0.5042c 0.1733,-0.3414 0.2679,-0.8718 0.2679 -0.8718c 0.0945,-0.5305 0.0945,-1.2658 0.0945 -1.2658c 0.0000,-0.7353 -0.0945,-1.2605 -0.0945 -1.2605c -0.0945,-0.5252 -0.2679,-0.8561 -0.2679 -0.8561c -0.1733,-0.3309 -0.4097,-0.4884 -0.4097 -0.4884c -0.2363,-0.1576 -0.5305,-0.1576 -0.5305 -0.1576c -0.2941,-0.0000 -0.5357,0.1576 -0.5357 0.1576c -0.2416,0.1576 -0.4149,0.4884 -0.4149 0.4884c -0.1733,0.3309 -0.2679,0.8561 -0.2679 0.8561c -0.0945,0.5252 -0.0945,1.2605 -0.0945 1.2605c 0.0000,1.4706 0.3624,2.1376 0.3624 2.1376c 0.3624,0.6670 0.9506,0.6670 0.9506 0.6670ZM 786.0714,570.0000 ZM 788.6870,570.1261 c -1.0189,-0.0000 -1.5861,-0.9034 -1.5861 -0.9034c -0.5672,-0.9034 -0.5672,-2.5945 -0.5672 -2.5945c 0.0000,-1.6912 0.5672,-2.5735 0.5672 -2.5735c 0.5672,-0.8824 1.5861,-0.8824 1.5861 -0.8824c 1.0084,0.0000 1.5756,0.8824 1.5756 0.8824c 0.5672,0.8824 0.5672,2.5735 0.5672 2.5735c 0.0000,1.6912 -0.5672,2.5945 -0.5672 2.5945c -0.5672,0.9034 -1.5756,0.9034 -1.5756 0.9034ZM 788.6870,570.1261 ZM 788.6870,569.4328 c 0.2941,0.0000 0.5305,-0.1628 0.5305 -0.1628c 0.2363,-0.1628 0.4097,-0.5042 0.4097 -0.5042c 0.1733,-0.3414 0.2679,-0.8718 0.2679 -0.8718c 0.0945,-0.5305 0.0945,-1.2658 0.0945 -1.2658c 0.0000,-0.7353 -0.0945,-1.2605 -0.0945 -1.2605c -0.0945,-0.5252 -0.2679,-0.8561 -0.2679 -0.8561c -0.1733,-0.3309 -0.4097,-0.4884 -0.4097 -0.4884c -0.2363,-0.1576 -0.5305,-0.1576 -0.5305 -0.1576c -0.2941,-0.0000 -0.5357,0.1576 -0.5357 0.1576c -0.2416,0.1576 -0.4149,0.4884 -0.4149 0.4884c -0.1733,0.3309 -0.2679,0.8561 -0.2679 0.8561c -0.0945,0.5252 -0.0945,1.2605 -0.0945 1.2605c 0.0000,1.4706 0.3624,2.1376 0.3624 2.1376c 0.3624,0.6670 0.9506,0.6670 0.9506 0.6670Z"/></g><defs></defs><g stroke-linejoin="round" stroke-opacity="1.0" fill-opacity="0.0" stroke="rgb(0,0,255)" stroke-width="0.9999999999999997" fill="rgb(0,0,0)" stroke-linecap="round" stroke-miterlimit="10.0"><path d="M 10.0000,585.0000 h 20.0000 "/></g><defs></defs><g stroke-linejoin="bevel" stroke-opacity="0.0" fill-opacity="1.0" stroke="rgb(0,0,0)" stroke-width="0.0" fill="rgb(0,0,0)" stroke-linecap="butt" stroke-miterlimit="10.0"><path d="M 35.0735,586.6071 ZM 38.2353,579.8319 c -0.2836,-0.1261 -0.5777,-0.1261 -0.5777 -0.1261c -0.7143,-0.0000 -0.7143,0.9874 -0.7143 0.9874v 0.8088 h 1.0819 v 0.7038 h -1.0819 v 4.4013 h -0.8613 v -4.4013 h -0.6933 v -0.6513 l 0.6933,-0.0525 v -0.8088 c 0.0000,-0.7878 0.3624,-1.2395 0.3624 -1.2395c 0.3624,-0.4517 1.1292,-0.4517 1.1292 -0.4517c 0.2416,0.0000 0.4569,0.0473 0.4569 0.0473c 0.2153,0.0473 0.3939,0.1208 0.3939 0.1208ZM 38.1408,586.6071 ZM 39.0021,581.5021 h 0.7143 l 0.0735,0.9244 h 0.0315 c 0.2626,-0.4832 0.6355,-0.7668 0.6355 -0.7668c 0.3729,-0.2836 0.8141,-0.2836 0.8141 -0.2836c 0.3046,0.0000 0.5462,0.1050 0.5462 0.1050l -0.1681,0.7563 c -0.1261,-0.0420 -0.2311,-0.0630 -0.2311 -0.0630c -0.1050,-0.0210 -0.2626,-0.0210 -0.2626 -0.0210c -0.3256,-0.0000 -0.6775,0.2626 -0.6775 0.2626c -0.3519,0.2626 -0.6145,0.9139 -0.6145 0.9139v 3.2773 h -0.8613 v -5.1050 ZM 41.6807,586.6071 ZM 42.1639,584.0651 c 0.0000,-0.6303 0.1943,-1.1292 0.1943 -1.1292c 0.1943,-0.4989 0.5147,-0.8456 0.5147 -0.8456c 0.3204,-0.3466 0.7300,-0.5305 0.7300 -0.5305c 0.4097,-0.1838 0.8508,-0.1838 0.8508 -0.1838c 0.4832,0.0000 0.8666,0.1681 0.8666 0.1681c 0.3834,0.1681 0.6408,0.4832 0.6408 0.4832c 0.2574,0.3151 0.3939,0.7563 0.3939 0.7563c 0.1366,0.4412 0.1366,0.9874 0.1366 0.9874c 0.0000,0.2836 -0.0315,0.4727 -0.0315 0.4727h -3.4454 c 0.0525,0.8298 0.5095,1.3130 0.5095 1.3130c 0.4569,0.4832 1.1922,0.4832 1.1922 0.4832c 0.3676,0.0000 0.6775,-0.1103 0.6775 -0.1103c 0.3099,-0.1103 0.5935,-0.2889 0.5935 -0.2889l 0.3046,0.5672 c -0.3361,0.2101 -0.7458,0.3676 -0.7458 0.3676c -0.4097,0.1576 -0.9349,0.1576 -0.9349 0.1576c -0.5147,-0.0000 -0.9611,-0.1838 -0.9611 -0.1838c -0.4464,-0.1838 -0.7773,-0.5252 -0.7773 -0.5252c -0.3309,-0.3414 -0.5200,-0.8351 -0.5200 -0.8351c -0.1891,-0.4937 -0.1891,-1.1239 -0.1891 -1.1239ZM 42.1639,584.0651 ZM 45.7353,583.6765 c 0.0000,-0.7878 -0.3309,-1.2027 -0.3309 -1.2027c -0.3309,-0.4149 -0.9296,-0.4149 -0.9296 -0.4149c -0.2731,-0.0000 -0.5200,0.1103 -0.5200 0.1103c -0.2468,0.1103 -0.4464,0.3151 -0.4464 0.3151c -0.1996,0.2048 -0.3309,0.5042 -0.3309 0.5042c -0.1313,0.2994 -0.1733,0.6880 -0.1733 0.6880h 2.7311 ZM 46.8908,586.6071 ZM 47.3845,584.0651 c 0.0000,-0.6197 0.1838,-1.1187 0.1838 -1.1187c 0.1838,-0.4989 0.4884,-0.8456 0.4884 -0.8456c 0.3046,-0.3466 0.7038,-0.5357 0.7038 -0.5357c 0.3992,-0.1891 0.8403,-0.1891 0.8403 -0.1891c 0.4412,0.0000 0.7773,0.1523 0.7773 0.1523c 0.3361,0.1523 0.6828,0.4569 0.6828 0.4569h 0.0210 l 0.0840,-0.4832 h 0.6933 v 7.2584 h -0.8718 v -1.8172 l 0.0420,-0.9034 c -0.3046,0.2836 -0.6985,0.4884 -0.6985 0.4884c -0.3939,0.2048 -0.8351,0.2048 -0.8351 0.2048c -0.9664,-0.0000 -1.5389,-0.6933 -1.5389 -0.6933c -0.5725,-0.6933 -0.5725,-1.9748 -0.5725 -1.9748ZM 47.3845,584.0651 ZM 48.2773,584.0546 c 0.0000,0.9244 0.3676,1.4391 0.3676 1.4391c 0.3676,0.5147 1.0399,0.5147 1.0399 0.5147c 0.3571,0.0000 0.6723,-0.1733 0.6723 -0.1733c 0.3151,-0.1733 0.6303,-0.5305 0.6303 -0.5305v -2.6681 c -0.3256,-0.2941 -0.6250,-0.4149 -0.6250 -0.4149c -0.2994,-0.1208 -0.6145,-0.1208 -0.6145 -0.1208c -0.3046,-0.0000 -0.5725,0.1418 -0.5725 0.1418c -0.2679,0.1418 -0.4674,0.3992 -0.4674 0.3992c -0.1996,0.2574 -0.3151,0.6145 -0.3151 0.6145c -0.1155,0.3571 -0.1155,0.7983 -0.1155 0.7983ZM 52.6681,586.6071 ZM 53.4559,581.5021 h 0.8718 v 3.1197 c 0.0000,0.7248 0.2258,1.0452 0.2258 1.0452c 0.2258,0.3204 0.7300,0.3204 0.7300 0.3204c 0.3992,0.0000 0.7038,-0.2048 0.7038 -0.2048c 0.3046,-0.2048 0.6723,-0.6565 0.6723 -0.6565v -3.6239 h 0.8613 v 5.1050 h -0.7143 l -0.0735,-0.7983 h -0.0315 c -0.3571,0.4202 -0.7511,0.6723 -0.7511 0.6723c -0.3939,0.2521 -0.9296,0.2521 -0.9296 0.2521c -0.8193,-0.0000 -1.1922,-0.5042 -1.1922 -0.5042c -0.3729,-0.5042 -0.3729,-1.4916 -0.3729 -1.4916v -3.2353 ZM 58.3824,586.6071 ZM 58.8655,584.0651 c 0.0000,-0.6303 0.1943,-1.1292 0.1943 -1.1292c 0.1943,-0.4989 0.5147,-0.8456 0.5147 -0.8456c 0.3204,-0.3466 0.7300,-0.5305 0.7300 -0.5305c 0.4097,-0.1838 0.8508,-0.1838 0.8508 -0.1838c 0.4832,0.0000 0.8666,0.1681 0.8666 0.1681c 0.3834,0.1681 0.6408,0.4832 0.6408 0.4832c 0.2574,0.3151 0.3939,0.7563 0.3939 0.7563c 0.1366,0.4412 0.1366,0.9874 0.1366 0.9874c 0.0000,0.2836 -0.0315,0.4727 -0.0315 0.4727h -3.4454 c 0.0525,0.8298 0.5095,1.3130 0.5095 1.3130c 0.4569,0.4832 1.1922,0.4832 1.1922 0.4832c 0.3676,0.0000 0.6775,-0.1103 0.6775 -0.1103c 0.3099,-0.1103 0.5935,-0.2889 0.5935 -0.2889l 0.3046,0.5672 c -0.3361,0.2101 -0.7458,0.3676 -0.7458 0.3676c -0.4097,0.1576 -0.9349,0.1576 -0.9349 0.1576c -0.5147,-0.0000 -0.9611,-0.1838 -0.9611 -0.1838c -0.4464,-0.1838 -0.7773,-0.5252 -0.7773 -0.5252c -0.3309,-0.3414 -0.5200,-0.8351 -0.5200 -0.8351c -0.1891,-0.4937 -0.1891,-1.1239 -0.1891 -1.1239ZM 58.8655,584.0651 ZM 62.4370,583.6765 c 0.0000,-0.7878 -0.3309,-1.2027 -0.3309 -1.2027c -0.3309,-0.4149 -0.9296,-0.4149 -0.9296 -0.4149c -0.2731,-0.0000 -0.5200,0.1103 -0.5200 0.1103c -0.2468,0.1103 -0.4464,0.3151 -0.4464 0.3151c -0.1996,0.2048 -0.3309,0.5042 -0.3309 0.5042c -0.1313,0.2994 -0.1733,0.6880 -0.1733 0.6880h 2.7311 ZM 63.5924,586.6071 ZM 64.4538,581.5021 h 0.7143 l 0.0735,0.7353 h 0.0315 c 0.3676,-0.3676 0.7721,-0.6145 0.7721 -0.6145c 0.4044,-0.2468 0.9401,-0.2468 0.9401 -0.2468c 0.8088,0.0000 1.1817,0.5042 1.1817 0.5042c 0.3729,0.5042 0.3729,1.4916 0.3729 1.4916v 3.2353 h -0.8613 v -3.1197 c 0.0000,-0.7248 -0.2311,-1.0452 -0.2311 -1.0452c -0.2311,-0.3204 -0.7353,-0.3204 -0.7353 -0.3204c -0.3992,-0.0000 -0.7038,0.1996 -0.7038 0.1996c -0.3046,0.1996 -0.6933,0.5882 -0.6933 0.5882v 3.6975 h -0.8613 v -5.1050 ZM 69.3382,586.6071 ZM 69.8214,584.0651 c 0.0000,-0.6408 0.1996,-1.1397 0.1996 -1.1397c 0.1996,-0.4989 0.5357,-0.8456 0.5357 -0.8456c 0.3361,-0.3466 0.7826,-0.5252 0.7826 -0.5252c 0.4464,-0.1786 0.9401,-0.1786 0.9401 -0.1786c 0.5042,0.0000 0.8666,0.1838 0.8666 0.1838c 0.3624,0.1838 0.6250,0.4254 0.6250 0.4254l -0.4307,0.5567 c -0.2311,-0.1996 -0.4779,-0.3256 -0.4779 -0.3256c -0.2468,-0.1261 -0.5515,-0.1261 -0.5515 -0.1261c -0.3466,-0.0000 -0.6408,0.1418 -0.6408 0.1418c -0.2941,0.1418 -0.5042,0.4044 -0.5042 0.4044c -0.2101,0.2626 -0.3309,0.6250 -0.3309 0.6250c -0.1208,0.3624 -0.1208,0.8036 -0.1208 0.8036c 0.0000,0.4412 0.1155,0.7983 0.1155 0.7983c 0.1155,0.3571 0.3204,0.6145 0.3204 0.6145c 0.2048,0.2574 0.4989,0.3992 0.4989 0.3992c 0.2941,0.1418 0.6408,0.1418 0.6408 0.1418c 0.3676,0.0000 0.6670,-0.1523 0.6670 -0.1523c 0.2994,-0.1523 0.5305,-0.3624 0.5305 -0.3624l 0.3887,0.5672 c -0.3466,0.3046 -0.7721,0.4832 -0.7721 0.4832c -0.4254,0.1786 -0.8876,0.1786 -0.8876 0.1786c -0.5042,-0.0000 -0.9454,-0.1786 -0.9454 -0.1786c -0.4412,-0.1786 -0.7616,-0.5200 -0.7616 -0.5200c -0.3204,-0.3414 -0.5042,-0.8403 -0.5042 -0.8403c -0.1838,-0.4989 -0.1838,-1.1292 -0.1838 -1.1292ZM 74.1912,586.6071 ZM 74.7059,588.0147 l 0.1891,0.0473 c 0.0000,0.0000 0.1996,0.0263 0.1996 0.0263c 0.4412,0.0000 0.7195,-0.3099 0.7195 -0.3099c 0.2784,-0.3099 0.4359,-0.7826 0.4359 -0.7826l 0.1155,-0.3782 l -2.0483,-5.1155 h 0.8929 l 1.0399,2.8256 c 0.1155,0.3361 0.2468,0.7090 0.2468 0.7090c 0.1313,0.3729 0.2468,0.7300 0.2468 0.7300h 0.0420 c 0.1155,-0.3466 0.2206,-0.7248 0.2206 -0.7248c 0.1050,-0.3782 0.2101,-0.7143 0.2101 -0.7143l 0.9139,-2.8256 h 0.8403 l -1.9223,5.5252 c -0.1366,0.3782 -0.3046,0.7038 -0.3046 0.7038c -0.1681,0.3256 -0.3992,0.5620 -0.3992 0.5620c -0.2311,0.2363 -0.5252,0.3729 -0.5252 0.3729c -0.2941,0.1366 -0.6828,0.1366 -0.6828 0.1366c -0.1786,-0.0000 -0.3256,-0.0263 -0.3256 -0.0263c -0.1471,-0.0263 -0.2731,-0.0788 -0.2731 -0.0788l 0.1681,-0.6828 h 0.0000 ZM 81.2185,586.6071 ZM 81.7017,584.0651 c 0.0000,-0.6303 0.1943,-1.1292 0.1943 -1.1292c 0.1943,-0.4989 0.5147,-0.8456 0.5147 -0.8456c 0.3204,-0.3466 0.7300,-0.5305 0.7300 -0.5305c 0.4097,-0.1838 0.8508,-0.1838 0.8508 -0.1838c 0.4832,0.0000 0.8666,0.1681 0.8666 0.1681c 0.3834,0.1681 0.6408,0.4832 0.6408 0.4832c 0.2574,0.3151 0.3939,0.7563 0.3939 0.7563c 0.1366,0.4412 0.1366,0.9874 0.1366 0.9874c 0.0000,0.2836 -0.0315,0.4727 -0.0315 0.4727h -3.4454 c 0.0525,0.8298 0.5095,1.3130 0.5095 1.3130c 0.4569,0.4832 1.1922,0.4832 1.1922 0.4832c 0.3676,0.0000 0.6775,-0.1103 0.6775 -0.1103c 0.3099,-0.1103 0.5935,-0.2889 0.5935 -0.2889l 0.3046,0.5672 c -0.3361,0.2101 -0.7458,0.3676 -0.7458 0.3676c -0.4097,0.1576 -0.9349,0.1576 -0.9349 0.1576c -0.5147,-0.0000 -0.9611,-0.1838 -0.9611 -0.1838c -0.4464,-0.1838 -0.7773,-0.5252 -0.7773 -0.5252c -0.3309,-0.3414 -0.5200,-0.8351 -0.5200 -0.8351c -0.1891,-0.4937 -0.1891,-1.1239 -0.1891 -1.1239ZM 81.7017,584.0651 ZM 85.2731,583.6765 c 0.0000,-0.7878 -0.3309,-1.2027 -0.3309 -1.2027c -0.3309,-0.4149 -0.9296,-0.4149 -0.9296 -0.4149c -0.2731,-0.0000 -0.5200,0.1103 -0.5200 0.1103c -0.2468,0.1103 -0.4464,0.3151 -0.4464 0.3151c -0.1996,0.2048 -0.3309,0.5042 -0.3309 0.5042c -0.1313,0.2994 -0.1733,0.6880 -0.1733 0.6880h 2.7311 ZM 86.4286,586.6071 ZM 87.2899,581.5021 h 0.7143 l 0.0735,0.9244 h 0.0315 c 0.2626,-0.4832 0.6355,-0.7668 0.6355 -0.7668c 0.3729,-0.2836 0.8141,-0.2836 0.8141 -0.2836c 0.3046,0.0000 0.5462,0.1050 0.5462 0.1050l -0.1681,0.7563 c -0.1261,-0.0420 -0.2311,-0.0630 -0.2311 -0.0630c -0.1050,-0.0210 -0.2626,-0.0210 -0.2626 -0.0210c -0.3256,-0.0000 -0.6775,0.2626 -0.6775 0.2626c -0.3519,0.2626 -0.6145,0.9139 -0.6145 0.9139v 3.2773 h -0.8613 v -5.1050 ZM 90.0735,586.6071 ZM 90.9349,581.5021 h 0.7143 l 0.0735,0.9244 h 0.0315 c 0.2626,-0.4832 0.6355,-0.7668 0.6355 -0.7668c 0.3729,-0.2836 0.8141,-0.2836 0.8141 -0.2836c 0.3046,0.0000 0.5462,0.1050 0.5462 0.1050l -0.1681,0.7563 c -0.1261,-0.0420 -0.2311,-0.0630 -0.2311 -0.0630c -0.1050,-0.0210 -0.2626,-0.0210 -0.2626 -0.0210c -0.3256,-0.0000 -0.6775,0.2626 -0.6775 0.2626c -0.3519,0.2626 -0.6145,0.9139 -0.6145 0.9139v 3.2773 h -0.8613 v -5.1050 ZM 93.6134,586.6071 ZM 94.0966,584.0651 c 0.0000,-0.6408 0.1943,-1.1397 0.1943 -1.1397c 0.1943,-0.4989 0.5200,-0.8456 0.5200 -0.8456c 0.3256,-0.3466 0.7511,-0.5252 0.7511 -0.5252c 0.4254,-0.1786 0.8981,-0.1786 0.8981 -0.1786c 0.4727,0.0000 0.8981,0.1786 0.8981 0.1786c 0.4254,0.1786 0.7511,0.5252 0.7511 0.5252c 0.3256,0.3466 0.5200,0.8456 0.5200 0.8456c 0.1943,0.4989 0.1943,1.1397 0.1943 1.1397c 0.0000,0.6303 -0.1943,1.1292 -0.1943 1.1292c -0.1943,0.4989 -0.5200,0.8403 -0.5200 0.8403c -0.3256,0.3414 -0.7511,0.5200 -0.7511 0.5200c -0.4254,0.1786 -0.8981,0.1786 -0.8981 0.1786c -0.4727,-0.0000 -0.8981,-0.1786 -0.8981 -0.1786c -0.4254,-0.1786 -0.7511,-0.5200 -0.7511 -0.5200c -0.3256,-0.3414 -0.5200,-0.8403 -0.5200 -0.8403c -0.1943,-0.4989 -0.1943,-1.1292 -0.1943 -1.1292ZM 94.0966,584.0651 ZM 94.9895,584.0651 c 0.0000,0.4412 0.1050,0.7983 0.1050 0.7983c 0.1050,0.3571 0.2994,0.6145 0.2994 0.6145c 0.1943,0.2574 0.4674,0.3992 0.4674 0.3992c 0.2731,0.1418 0.5987,0.1418 0.5987 0.1418c 0.3256,0.0000 0.5987,-0.1418 0.5987 -0.1418c 0.2731,-0.1418 0.4674,-0.3992 0.4674 -0.3992c 0.1943,-0.2574 0.2994,-0.6145 0.2994 -0.6145c 0.1050,-0.3571 0.1050,-0.7983 0.1050 -0.7983c 0.0000,-0.4412 -0.1050,-0.8036 -0.1050 -0.8036c -0.1050,-0.3624 -0.2994,-0.6250 -0.2994 -0.6250c -0.1943,-0.2626 -0.4674,-0.4044 -0.4674 -0.4044c -0.2731,-0.1418 -0.5987,-0.1418 -0.5987 -0.1418c -0.3256,-0.0000 -0.5987,0.1418 -0.5987 0.1418c -0.2731,0.1418 -0.4674,0.4044 -0.4674 0.4044c -0.1943,0.2626 -0.2994,0.6250 -0.2994 0.6250c -0.1050,0.3624 -0.1050,0.8036 -0.1050 0.8036ZM 99.3067,586.6071 ZM 100.1681,581.5021 h 0.7143 l 0.0735,0.9244 h 0.0315 c 0.2626,-0.4832 0.6355,-0.7668 0.6355 -0.7668c 0.3729,-0.2836 0.8141,-0.2836 0.8141 -0.2836c 0.3046,0.0000 0.5462,0.1050 0.5462 0.1050l -0.1681,0.7563 c -0.1261,-0.0420 -0.2311,-0.0630 -0.2311 -0.0630c -0.1050,-0.0210 -0.2626,-0.0210 -0.2626 -0.0210c -0.3256,-0.0000 -0.6775,0.2626 -0.6775 0.2626c -0.3519,0.2626 -0.6145,0.9139 -0.6145 0.9139v 3.2773 h -0.8613 v -5.1050 Z"/></g></svg>