<?xml version="1.0" encoding="UTF-8"?>
<!DOCTYPE svg PUBLIC "-//W3C//DTD SVG 1.1//EN"
    "http://www.w3.org/Graphics/SVG/1.1/DTD/svg11.dtd"><svg xmlns="http://www.w3.org/2000/svg" height="600.0000" stroke-opacity="1" viewBox="0 0 800 600" font-size="1" width="800.0000" xmlns:xlink="http://www.w3.org/1999/xlink" stroke="rgb(0,0,0)" version="1.1"><defs></defs><defs></defs><g stroke-linejoin="bevel" stroke-opacity="0.0" fill-opacity="1.0" stroke="rgb(0,0,0)" stroke-width="0.0" fill="rgb(255,255,255)" stroke-linecap="butt" stroke-miterlimit="10.0"><path d="M 0.0000,0.0000 v 600.0000 h 800.0000 v -600.0000 Z"/></g><defs></defs><g stroke-linejoin="miter" stroke-opacity="1.0" fill-opacity="0.0" stroke="rgb(211,211,211)" stroke-width="0.9999999999999997" fill="rgb(0,0,0)" stroke-dashoffset="0.0" stroke-linecap="butt" stroke-miterlimit="10.0" stroke-dasharray="4.999999999999998,4.999999999999998"><path d="M 32.8151,15.0000 v 535.0000 "/></g><defs></defs><g stroke-linejoin="miter" stroke-opacity="1.0" fill-opacity="0.0" stroke="rgb(211,211,211)" stroke-width="0.9999999999999997" fill="rgb(0,0,0)" stroke-dashoffset="0.0" stroke-linecap="butt" stroke-miterlimit="10.0" stroke-dasharray="4.999999999999998,4.999999999999998"><path d="M 219.6626,15.0000 v 535.0000 "/></g><defs></defs><g stroke-linejoin="miter" stroke-opacity="1.0" fill-opacity="0.0" stroke="rgb(211,211,211)" stroke-width="0.9999999999999997" fill="rgb(0,0,0)" stroke-dashoffset="0.0" stroke-linecap="butt" stroke-miterlimit="10.0" stroke-dasharray="4.999999999999998,4.999999999999998"><path d="M 406.5100,15.0000 v 535.0000 "/></g><defs></defs><g stroke-linejoin="miter" stroke-opacity="1.0" fill-opacity="0.0" stroke="rgb(211,211,211)" stroke-width="0.9999999999999997" fill="rgb(0,0,0)" stroke-dashoffset="0.0" stroke-linecap="butt" stroke-miterlimit="10.0" stroke-dasharray="4.999999999999998,4.999999999999998"><path d="M 593.3574,15.0000 v 535.0000 "/></g><defs></defs><g stroke-linejoin="miter" stroke-opacity="1.0" fill-opacity="0.0" stroke="rgb(211,211,211)" stroke-width="0.9999999999999997" fill="rgb(0,0,0)" stroke-dashoffset="0.0" stroke-linecap="butt" stroke-miterlimit="10.0" stroke-dasharray="4.999999999999998,4.999999999999998"><path d="M 780.2048,15.0000 v 535.0000 "/></g><defs></defs><g stroke-linejoin="miter" stroke-opacity="1.0" fill-opacity="0.0" stroke="rgb(211,211,211)" stroke-width="0.9999999999999997" fill="rgb(0,0,0)" stroke-dashoffset="0.0" stroke-linecap="butt" stroke-miterlimit="10.0" stroke-dasharray="4.999999999999998,4.999999999999998"><path d="M 32.8151,550.0000 h 747.3897 "/></g><defs></defs><g stroke-linejoin="miter" stroke-opacity="1.0" fill-opacity="0.0" stroke="rgb(211,211,211)" stroke-width="0.9999999999999997" fill="rgb(0,0,0)" stroke-dashoffset="0.0" stroke-linecap="butt" stroke-miterlimit="10.0" stroke-dasharray="4.999999999999998,4.999999999999998"><path d="M 32.8151,443.0000 h 747.3897 "/></g><defs></defs><g stroke-linejoin="miter" stroke-opacity="1.0" fill-opacity="0.0" stroke="rgb(211,211,211)" stroke-width="0.9999999999999997" fill="rgb(0,0,0)" stroke-dashoffset="0.0" stroke-linecap="butt" stroke-miterlimit="10.0" stroke-dasharray="4.999999999999998,4.999999999999998"><path d="M 32.8151,336.0000 h 747.3897 "/></g><defs></defs><g stroke-linejoin="miter" stroke-opacity="1.0" fill-opacity="0.0" stroke="rgb(211,211,211)" stroke-width="0.9999999999999997" fill="rgb(0,0,0)" stroke-dashoffset="0.0" stroke-linecap="butt" stroke-miterlimit="10.0" stroke-dasharray="4.999999999999998,4.999999999999998"><path d="M 32.8151,229.0000 h 747.3897 "/></g><defs></defs><g stroke-linejoin="miter" stroke-opacity="1.0" fill-opacity="0.0" stroke="rgb(211,211,211)" stroke-width="0.9999999999999997" fill="rgb(0,0,0)" stroke-dashoffset="0.0" stroke-linecap="butt" stroke-miterlimit="10.0" stroke-dasharray="4.999999999999998,4.999999999999998"><path d="M 32.8151,122.0000 h 747.3897 "/></g><defs></defs><g stroke-linejoin="miter" stroke-opacity="1.0" fill-opacity="0.0" stroke="rgb(211,211,211)" stroke-width="0.9999999999999997" fill="rgb(0,0,0)" stroke-dashoffset="0.0" stroke-linecap="butt" stroke-miterlimit="10.0" stroke-dasharray="4.999999999999998,4.999999999999998"><path d="M 32.8151,15.0000 h 747.3897 "/></g><defs></defs><g stroke-linejoin="round" stroke-opacity="1.0" fill-opacity="0.0" stroke="rgb(0,0,255)" stroke-width="0.9999999999999997" fill="rgb(0,0,0)" stroke-linecap="round" stroke-miterlimit="10.0"><defs><clipPath id="myClip1"><path d="M 32.8151,15.0000 v 535.0000 h 747.3897 v -535.0000 Z"/></clipPath></defs><g clip-path="url(#myClip1)"><path d="M 33.5625,122.0000 l 0.7474,-11.5275 l 0.7474,-15.4829 l 0.7474,-5.2687 l 0.7474,10.9840 l 0.7474,16.2613 l 0.7474,4.8074 l 0.7474,-7.2920 l 0.7474,19.4073 l 0.7474,2.3937 l 0.7474,-6.8265 l 0.7474,17.2925 l 0.7474,-4.5635 l 0.7474,-13.6592 l 0.7474,9.0884 l 0.7474,-2.0275 l 0.7474,9.3905 l 0.7474,8.0833 l 0.7474,19.1212 l 0.7474,11.3730 l 0.7474,-8.5089 l 0.7474,13.9533 l 0.7474,-11.0924 l 0.7474,-18.4411 l 0.7474,8.7501 l 0.7474,-17.7765 l 0.7474,-1.5463 l 0.7474,12.3743 l 0.7474,-14.6461 l 0.7474,-16.3955 l 0.7474,19.8121 l 0.7474,-3.6471 l 0.7474,-4.6726 l 0.7474,8.2215 l 0.7474,-0.6864 l 0.7474,7.7726 l 0.7474,-7.0812 l 0.7474,19.6171 l 0.7474,-13.4620 l 0.7474,-8.0648 l 0.7474,-8.3766 l 0.7474,-11.8048 l 0.7474,20.2150 l 0.7474,12.6181 l 0.7474,5.0003 l 0.7474,-8.7301 l 0.7474,-7.6406 l 0.7474,-17.1723 l 0.7474,-2.6927 l 0.7474,-2.9976 l 0.7474,18.4136 l 0.7474,-19.0513 l 0.7474,16.9441 l 0.7474,8.1930 l 0.7474,1.9998 l 0.7474,5.2889 l 0.7474,5.2359 l 0.7474,-4.0835 l 0.7474,-6.4632 l 0.7474,15.9808 l 0.7474,15.7738 l 0.7474,-13.3652 l 0.7474,14.4579 l 0.7474,18.1263 l 0.7474,-2.8139 l 0.7474,-14.0806 l 0.7474,2.9490 l 0.7474,19.0974 l 0.7474,-8.6181 l 0.7474,19.2678 l 0.7474,-4.3406 l 0.7474,6.4752 l 0.7474,-20.0310 l 0.7474,4.2957 l 0.7474,-18.3610 l 0.7474,-1.6563 l 0.7474,15.4719 l 0.7474,0.7267 l 0.7474,-5.2936 l 0.7474,-19.5871 l 0.7474,-17.1831 l 0.7474,-13.7443 l 0.7474,-5.1537 l 0.7474,16.6123 l 0.7474,9.3631 l 0.7474,-2.6388 l 0.7474,5.7195 l 0.7474,4.4068 l 0.7474,5.2965 l 0.7474,-16.4345 l 0.7474,-18.1637 l 0.7474,-4.9109 l 0.7474,15.0657 l 0.7474,0.7252 l 0.7474,-10.9501 l 0.7474,0.2896 l 0.7474,-15.8610 l 0.7474,18.3814 l 0.7474,-2.5079 l 0.7474,-3.1604 l 0.7474,12.7136 l 0.7474,8.9808 l 0.7474,-1.7900 l 0.7474,-13.3086 l 0.7474,-0.8517 l 0.7474,17.8262 l 0.7474,5.3697 l 0.7474,-1.5625 l 0.7474,18.6919 l 0.7474,-8.4869 l 0.7474,-16.8415 l 0.7474,14.8320 l 0.7474,10.4239 l 0.7474,18.7108 l 0.7474,6.5055 l 0.7474,-12.4559 l 0.7474,-15.6901 l 0.7474,-15.0052 l 0.7474,-6.0798 l 0.7474,14.7108 l 0.7474,4.6538 l 0.7474,-7.6802 l 0.7474,3.2019 l 0.7474,19.0170 l 0.7474,-1.4128 l 0.7474,7.9928 l 0.7474,-18.8991 l 0.7474,0.1701 l 0.7474,13.2658 l 0.7474,14.8038 l 0.7474,-13.4386 l 0.7474,7.9910 l 0.7474,-7.2628 l 0.7474,12.6209 l 0.7474,-7.0537 l 0.7474,11.3201 l 0.7474,9.5165 l 0.7474,12.4454 l 0.7474,7.7673 l 0.7474,15.0400 l 0.7474,-3.4343 l 0.7474,15.0538 l 0.7474,-9.2671 l 0.7474,-13.6546 l 0.7474,-5.7262 l 0.7474,1.7423 l 0.7474,-0.0941 l 0.7474,2.5862 l 0.7474,-12.5908 l 0.7474,-18.7848 l 0.7474,15.4799 l 0.7474,11.0202 l 0.7474,17.8182 l 0.7474,3.8325 l 0.7474,2.7735 l 0.7474,-0.0901 l 0.7474,18.8432 l 0.7474,-8.1304 l 0.7474,-4.9493 l 0.7474,14.6268 l 0.7474,-4.8298 l 0.7474,-18.6904 l 0.7474,4.2065 l 0.7474,14.7218 l 0.7474,-19.0066 l 0.7474,15.0870 l 0.7474,9.1472 l 0.7474,-1.2061 l 0.7474,3.3766 l 0.7474,1.3522 l 0.7474,18.9586 l 0.7474,-16.8115 l 0.7474,-10.3608 l 0.7474,11.9870 l 0.7474,-4.4485 l 0.7474,7.4712 l 0.7474,5.9448 l 0.7474,-9.2059 l 0.7474,8.8991 l 0.7474,9.9637 l 0.7474,7.6190 l 0.7474,-15.6702 l 0.7474,-15.4907 l 0.7474,16.4776 l 0.7474,-19.8779 l 0.7474,8.2546 l 0.7474,-7.6070 l 0.7474,0.9855 l 0.7474,5.6227 l 0.7474,1.0401 l 0.7474,-6.5034 l 0.7474,2.1969 l 0.7474,19.2007 l 0.7474,18.1270 l 0.7474,18.9644 l 0.7474,-10.5440 l 0.7474,-13.1603 l 0.7474,-5.5609 l 0.7474,-18.6089 l 0.7474,-1.6442 l 0.7474,-8.1294 l 0.7474,-9.4044 l 0.7474,-16.3892 l 0.7474,15.1137 l 0.7474,9.3276 l 0.7474,10.8366 l 0.7474,-13.0936 l 0.7474,13.8199 l 0.7474,3.9252 l 0.7474,-18.0480 l 0.7474,-10.6517 l 0.7474,4.1472 l 0.7474,17.2389 l 0.7474,14.5787 l 0.7474,-2.3014 l 0.7474,-16.9702 l 0.7474,-19.4001 l 0.7474,-12.8504 l 0.7474,10.7621 l 0.7474,-14.8753 l 0.7474,5.3772 l 0.7474,-18.5195 l 0.7474,-1.1685 l 0.7474,-7.1370 l 0.7474,-1.8719 l 0.7474,-0.7263 l 0.7474,-6.4655 l 0.7474,-20.1758 l 0.7474,13.3496 l 0.7474,15.5538 l 0.7474,14.7128 l 0.7474,-8.0561 l 0.7474,1.8887 l 0.7474,-10.0737 l 0.7474,2.0338 l 0.7474,18.8372 l 0.7474,7.8560 l 0.7474,-7.4545 l 0.7474,-12.2721 l 0.7474,-12.7796 l 0.7474,2.9175 l 0.7474,8.1761 l 0.7474,-18.2932 l 0.7474,12.6231 l 0.7474,6.9660 l 0.7474,4.5029 l 0.7474,-2.7135 l 0.7474,-1.9704 l 0.7474,18.6135 l 0.7474,-15.7891 l 0.7474,-9.0661 l 0.7474,-12.1687 l 0.7474,-16.1482 l 0.7474,-17.3390 l 0.7474,10.3942 l 0.7474,10.0514 l 0.7474,-9.2763 l 0.7474,-8.4295 l 0.7474,4.7822 l 0.7474,-17.2226 l 0.7474,-4.0203 l 0.7474,14.1340 l 0.7474,-3.3705 l 0.7474,-19.9319 l 0.7474,6.6412 l 0.7474,0.6588 l 0.7474,-9.3829 l 0.7474,-2.7608 l 0.7474,8.8742 l 0.7474,7.0826 l 0.7474,-16.3504 l 0.7474,0.6313 l 0.7474,-5.0035 l 0.7474,3.3194 l 0.7474,-4.5141 l 0.7474,4.3239 l 0.7474,19.8831 l 0.7474,-19.1714 l 0.7474,-0.7321 l 0.7474,-6.2719 l 0.7474,-13.2068 l 0.7474,-13.7665 l 0.7474,-12.4868 l 0.7474,17.2134 l 0.7474,15.6781 l 0.7474,5.1574 l 0.7474,-18.3151 l 0.7474,13.0482 l 0.7474,17.0772 l 0.7474,19.7478 l 0.7474,13.7747 l 0.7474,-1.5745 l 0.7474,10.8200 l 0.7474,-9.4658 l 0.7474,-12.4620 l 0.7474,-1.9391 l 0.7474,10.2423 l 0.7474,-10.5568 l 0.7474,17.8507 l 0.7474,-14.5124 l 0.7474,-13.6749 l 0.7474,7.2676 l 0.7474,4.4117 l 0.7474,4.2913 l 0.7474,1.8409 l 0.7474,-2.0345 l 0.7474,-17.7492 l 0.7474,-1.2081 l 0.7474,18.5774 l 0.7474,6.6458 l 0.7474,8.5836 l 0.7474,8.8475 l 0.7474,-10.2605 l 0.7474,6.2182 l 0.7474,5.7055 l 0.7474,18.4405 l 0.7474,11.8955 l 0.7474,16.5572 l 0.7474,5.6567 l 0.7474,-9.6106 l 0.7474,8.4606 l 0.7474,-10.1524 l 0.7474,-20.0491 l 0.7474,15.0759 l 0.7474,-17.7976 l 0.7474,16.0370 l 0.7474,-6.0166 l 0.7474,-15.4293 l 0.7474,-10.8291 l 0.7474,16.7842 l 0.7474,18.6898 l 0.7474,12.0832 l 0.7474,18.7489 l 0.7474,-15.4222 l 0.7474,3.5313 l 0.7474,6.3206 l 0.7474,3.3696 l 0.7474,-4.1490 l 0.7474,-19.1323 l 0.7474,-11.0364 l 0.7474,14.2599 l 0.7474,-12.4116 l 0.7474,-0.2863 l 0.7474,-10.7259 l 0.7474,-12.0144 l 0.7474,-8.8924 l 0.7474,-15.4688 l 0.7474,-10.6247 l 0.7474,14.6460 l 0.7474,4.3165 l 0.7474,-19.4798 l 0.7474,15.3153 l 0.7474,-0.4062 l 0.7474,-12.4847 l 0.7474,7.7732 l 0.7474,-13.0754 l 0.7474,-6.8270 l 0.7474,9.3138 l 0.7474,-16.1572 l 0.7474,-16.9962 l 0.7474,-19.4912 l 0.7474,-5.5965 l 0.7474,14.7358 l 0.7474,15.9240 l 0.7474,10.9833 l 0.7474,2.1989 l 0.7474,3.0045 l 0.7474,-0.2848 l 0.7474,18.2300 l 0.7474,18.4777 l 0.7474,-9.3783 l 0.7474,-9.9007 l 0.7474,12.4363 l 0.7474,-3.1261 l 0.7474,-9.5485 l 0.7474,5.0400 l 0.7474,-16.1487 l 0.7474,14.3025 l 0.7474,9.9254 l 0.7474,-13.4098 l 0.7474,-15.5038 l 0.7474,10.3970 l 0.7474,-0.6863 l 0.7474,-18.5557 l 0.7474,-19.7280 l 0.7474,-11.1952 l 0.7474,15.2759 l 0.7474,8.4957 l 0.7474,-3.8339 l 0.7474,-8.6315 l 0.7474,-4.2592 l 0.7474,11.3715 l 0.7474,-14.6205 l 0.7474,-1.1303 l 0.7474,20.0233 l 0.7474,-16.5246 l 0.7474,11.9820 l 0.7474,6.8134 l 0.7474,-6.7315 l 0.7474,-14.0722 l 0.7474,5.1065 l 0.7474,15.4982 l 0.7474,15.7372 l 0.7474,-16.2002 l 0.7474,13.7107 l 0.7474,-1.4884 l 0.7474,5.2873 l 0.7474,9.5310 l 0.7474,3.4434 l 0.7474,-3.5195 l 0.7474,-9.8483 l 0.7474,-14.5985 l 0.7474,11.3406 l 0.7474,-10.1486 l 0.7474,17.0711 l 0.7474,2.0525 l 0.7474,14.3304 l 0.7474,5.9436 l 0.7474,14.0079 l 0.7474,7.7125 l 0.7474,-7.5471 l 0.7474,16.4097 l 0.7474,-20.1525 l 0.7474,-2.2863 l 0.7474,-18.9951 l 0.7474,12.8118 l 0.7474,18.3768 l 0.7474,5.5280 l 0.7474,10.6867 l 0.7474,-9.3995 l 0.7474,-1.5736 l 0.7474,-15.4040 l 0.7474,-2.5485 l 0.7474,15.0450 l 0.7474,5.2898 l 0.7474,-6.4054 l 0.7474,-15.1136 l 0.7474,8.5322 l 0.7474,-15.8998 l 0.7474,-11.8020 l 0.7474,7.9412 l 0.7474,-16.1118 l 0.7474,19.9533 l 0.7474,5.3195 l 0.7474,-4.3537 l 0.7474,13.7384 l 0.7474,-8.9689 l 0.7474,-15.6221 l 0.7474,-4.4365 l 0.7474,7.0432 l 0.7474,14.9177 l 0.7474,11.2543 l 0.7474,-9.0071 l 0.7474,-13.0269 l 0.7474,-8.7076 l 0.7474,10.1873 l 0.7474,-1.2934 l 0.7474,12.8151 l 0.7474,-0.3382 l 0.7474,4.4546 l 0.7474,-9.4699 l 0.7474,-14.1387 l 0.7474,18.3304 l 0.7474,-4.2142 l 0.7474,-9.8438 l 0.7474,13.6144 l 0.7474,18.0104 l 0.7474,-11.4687 l 0.7474,11.5660 l 0.7474,13.9558 l 0.7474,13.6280 l 0.7474,-0.2150 l 0.7474,13.1355 l 0.7474,1.7778 l 0.7474,8.5800 l 0.7474,-15.9424 l 0.7474,11.4566 l 0.7474,-19.8504 l 0.7474,17.8992 l 0.7474,4.6398 l 0.7474,7.4276 l 0.7474,20.1423 l 0.7474,-6.0581 l 0.7474,5.2506 l 0.7474,3.9721 l 0.7474,-15.5266 l 0.7474,-0.0249 l 0.7474,10.4343 l 0.7474,-14.4405 l 0.7474,-8.4603 l 0.7474,-18.0361 l 0.7474,4.3350 l 0.7474,-10.8139 l 0.7474,-18.5398 l 0.7474,-11.9043 l 0.7474,15.9336 l 0.7474,-9.0506 l 0.7474,7.5153 l 0.7474,18.1661 l 0.7474,17.6071 l 0.7474,-12.3188 l 0.7474,-1.1129 l 0.7474,17.3222 l 0.7474,-7.9202 l 0.7474,-6.7632 l 0.7474,-12.0127 l 0.7474,14.6482 l 0.7474,-14.6614 l 0.7474,-8.9434 l 0.7474,7.8175 l 0.7474,15.2929 l 0.7474,8.8624 l 0.7474,13.4202 l 0.7474,-5.7782 l 0.7474,-4.3633 l 0.7474,-13.3375 l 0.7474,-16.8035 l 0.7474,5.4566 l 0.7474,-0.2842 l 0.7474,-19.9818 l 0.7474,-4.9261 l 0.7474,-0.1357 l 0.7474,-0.3295 l 0.7474,-13.7800 l 0.7474,5.5426 l 0.7474,12.6710 l 0.7474,-12.5074 l 0.7474,-19.1660 l 0.7474,-16.2351 l 0.7474,-0.9933 l 0.7474,-5.2683 l 0.7474,-9.9305 l 0.7474,-0.5108 l 0.7474,8.2833 l 0.7474,1.8533 l 0.7474,0.7413 l 0.7474,8.2194 l 0.7474,1.0904 l 0.7474,11.7564 l 0.7474,-4.6136 l 0.7474,-12.8378 l 0.7474,-6.4424 l 0.7474,18.6829 l 0.7474,-5.4782 l 0.7474,-17.4844 l 0.7474,-10.8014 l 0.7474,-8.5352 l 0.7474,3.9519 l 0.7474,3.3773 l 0.7474,3.7192 l 0.7474,-8.4087 l 0.7474,-17.3794 l 0.7474,-0.2870 l 0.7474,-4.7785 l 0.7474,-0.2868 l 0.7474,0.0369 l 0.7474,-8.8774 l 0.7474,6.2832 l 0.7474,0.0506 l 0.7474,-17.9225 l 0.7474,10.3723 l 0.7474,-3.9955 l 0.7474,-10.5117 l 0.7474,-2.8492 l 0.7474,-5.0557 l 0.7474,16.0829 l 0.7474,2.6909 l 0.7474,-12.9399 l 0.7474,11.9784 l 0.7474,-2.2138 l 0.7474,9.6575 l 0.7474,12.4232 l 0.7474,-5.1694 l 0.7474,-7.9918 l 0.7474,20.0478 l 0.7474,-4.8538 l 0.7474,-14.4989 l 0.7474,-1.5438 l 0.7474,-0.4213 l 0.7474,18.6256 l 0.7474,1.0126 l 0.7474,-14.5018 l 0.7474,14.3701 l 0.7474,9.1211 l 0.7474,17.5439 l 0.7474,16.9405 l 0.7474,15.4520 l 0.7474,11.3703 l 0.7474,-3.1445 l 0.7474,-10.1325 l 0.7474,17.5517 l 0.7474,-19.0442 l 0.7474,15.9386 l 0.7474,-18.0717 l 0.7474,-17.0647 l 0.7474,13.1892 l 0.7474,16.3528 l 0.7474,11.0010 l 0.7474,14.1806 l 0.7474,-0.4876 l 0.7474,-3.1877 l 0.7474,-8.0996 l 0.7474,20.0407 l 0.7474,5.2991 l 0.7474,8.7695 l 0.7474,7.4442 l 0.7474,7.1583 l 0.7474,13.8735 l 0.7474,-14.5458 l 0.7474,-16.0986 l 0.7474,16.0010 l 0.7474,10.5394 l 0.7474,12.6540 l 0.7474,-4.2694 l 0.7474,-6.3963 l 0.7474,4.5251 l 0.7474,14.0857 l 0.7474,10.4793 l 0.7474,-7.9915 l 0.7474,-15.8855 l 0.7474,-2.9109 l 0.7474,3.5131 l 0.7474,-9.4906 l 0.7474,-5.4902 l 0.7474,-17.2232 l 0.7474,1.4177 l 0.7474,6.9146 l 0.7474,4.7780 l 0.7474,-4.4494 l 0.7474,-13.9532 l 0.7474,19.3037 l 0.7474,-19.7095 l 0.7474,-20.1430 l 0.7474,-14.8457 l 0.7474,18.7655 l 0.7474,13.5481 l 0.7474,-16.9365 l 0.7474,-1.1792 l 0.7474,16.2205 l 0.7474,5.5223 l 0.7474,-15.0413 l 0.7474,19.1983 l 0.7474,7.7131 l 0.7474,13.7885 l 0.7474,-12.6365 l 0.7474,-17.8760 l 0.7474,6.8907 l 0.7474,-6.4813 l 0.7474,5.6858 l 0.7474,-12.2430 l 0.7474,11.0124 l 0.7474,-11.7826 l 0.7474,16.4097 l 0.7474,13.3037 l 0.7474,-0.2519 l 0.7474,3.3310 l 0.7474,10.5464 l 0.7474,-1.3309 l 0.7474,9.6566 l 0.7474,-5.1086 l 0.7474,-9.2593 l 0.7474,18.6059 l 0.7474,-12.5017 l 0.7474,17.3957 l 0.7474,2.0659 l 0.7474,0.6970 l 0.7474,-1.7908 l 0.7474,-14.8666 l 0.7474,-15.4880 l 0.7474,-4.4420 l 0.7474,-20.1154 l 0.7474,-11.2337 l 0.7474,19.5241 l 0.7474,-6.0959 l 0.7474,19.3485 l 0.7474,9.1467 l 0.7474,6.7995 l 0.7474,-9.1739 l 0.7474,9.4484 l 0.7474,-12.3031 l 0.7474,1.2321 l 0.7474,5.6220 l 0.7474,5.8345 l 0.7474,8.8389 l 0.7474,1.3418 l 0.7474,17.9328 l 0.7474,12.2588 l 0.7474,-14.7019 l 0.7474,0.4040 l 0.7474,7.1200 l 0.7474,-10.0849 l 0.7474,14.2553 l 0.7474,20.1812 l 0.7474,6.4073 l 0.7474,-16.2942 l 0.7474,13.6698 l 0.7474,-13.6550 l 0.7474,5.8798 l 0.7474,12.7131 l 0.7474,-7.1505 l 0.7474,16.9021 l 0.7474,-16.4973 l 0.7474,17.8072 l 0.7474,-14.0345 l 0.7474,20.1218 l 0.7474,4.3959 l 0.7474,9.1396 l 0.7474,-3.6790 l 0.7474,17.5837 l 0.7474,-12.7724 l 0.7474,8.7214 l 0.7474,-19.6559 l 0.7474,-6.0170 l 0.7474,7.8431 l 0.7474,-16.6985 l 0.7474,11.8598 l 0.7474,1.4307 l 0.7474,6.6984 l 0.7474,-0.1200 l 0.7474,0.5982 l 0.7474,-11.7825 l 0.7474,-15.6725 l 0.7474,-8.9928 l 0.7474,11.6513 l 0.7474,-16.8880 l 0.7474,-12.1803 l 0.7474,-1.9464 l 0.7474,-20.2108 l 0.7474,-6.2821 l 0.7474,-8.7814 l 0.7474,-3.1658 l 0.7474,14.5087 l 0.7474,2.3598 l 0.7474,-5.8384 l 0.7474,14.4002 l 0.7474,-8.9053 l 0.7474,9.2288 l 0.7474,7.8562 l 0.7474,14.7431 l 0.7474,-3.0700 l 0.7474,-19.3356 l 0.7474,1.6031 l 0.7474,-4.4975 l 0.7474,9.1082 l 0.7474,-3.6405 l 0.7474,-18.4916 l 0.7474,10.3322 l 0.7474,6.0385 l 0.7474,-19.0072 l 0.7474,5.1581 l 0.7474,12.0802 l 0.7474,-17.1547 l 0.7474,-12.3326 l 0.7474,-10.5649 l 0.7474,-10.3513 l 0.7474,6.8458 l 0.7474,13.3732 l 0.7474,8.4785 l 0.7474,-3.5267 l 0.7474,13.4494 l 0.7474,19.8889 l 0.7474,5.1580 l 0.7474,-2.8739 l 0.7474,1.2350 l 0.7474,2.0150 l 0.7474,-8.5004 l 0.7474,11.6936 l 0.7474,-5.1700 l 0.7474,-18.1260 l 0.7474,-6.7711 l 0.7474,6.5460 l 0.7474,14.6361 l 0.7474,12.4439 l 0.7474,15.7072 l 0.7474,12.2229 l 0.7474,9.8389 l 0.7474,-16.8117 l 0.7474,-17.7745 l 0.7474,-1.9554 l 0.7474,18.0399 l 0.7474,-3.5831 l 0.7474,10.5608 l 0.7474,-2.2366 l 0.7474,7.2825 l 0.7474,-3.5232 l 0.7474,-10.2762 l 0.7474,-7.9175 l 0.7474,0.3804 l 0.7474,13.8493 l 0.7474,-6.5274 l 0.7474,-9.5487 l 0.7474,6.9570 l 0.7474,10.8384 l 0.7474,-7.5662 l 0.7474,5.3202 l 0.7474,6.0450 l 0.7474,-3.2260 l 0.7474,-16.6739 l 0.7474,-15.2002 l 0.7474,16.5804 l 0.7474,-3.0019 l 0.7474,-4.7326 l 0.7474,-7.9404 l 0.7474,0.0479 l 0.7474,-2.1363 l 0.7474,-2.9211 l 0.7474,-1.7224 l 0.7474,-10.0353 l 0.7474,-3.8717 l 0.7474,20.0387 l 0.7474,2.6745 l 0.7474,14.7441 l 0.7474,-8.3115 l 0.7474,16.3167 l 0.7474,5.8527 l 0.7474,-11.0472 l 0.7474,0.8541 l 0.7474,-7.6506 l 0.7474,1.5528 l 0.7474,13.0997 l 0.7474,8.3160 l 0.7474,6.5544 l 0.7474,-4.6051 l 0.7474,5.8140 l 0.7474,-1.0523 l 0.7474,-17.3054 l 0.7474,-13.9416 l 0.7474,17.0804 l 0.7474,2.2873 l 0.7474,12.7314 l 0.7474,6.8843 l 0.7474,-7.5021 l 0.7474,10.8635 l 0.7474,11.4558 l 0.7474,6.1958 l 0.7474,-5.1360 l 0.7474,-7.7911 l 0.7474,-6.8090 l 0.7474,-4.7667 l 0.7474,-0.9995 l 0.7474,9.2863 l 0.7474,15.6845 l 0.7474,15.9687 l 0.7474,-9.2837 l 0.7474,9.8198 l 0.7474,14.8216 l 0.7474,9.2310 l 0.7474,9.2650 l 0.7474,0.1406 l 0.7474,-5.9093 l 0.7474,-0.0982 l 0.7474,-1.6934 l 0.7474,-7.4482 l 0.7474,5.7831 l 0.7474,19.9138 l 0.7474,-15.2628 l 0.7474,1.2477 l 0.7474,-14.9506 l 0.7474,-17.4874 l 0.7474,13.8877 l 0.7474,-14.4494 l 0.7474,-12.1561 l 0.7474,-9.9716 l 0.7474,16.8916 l 0.7474,-5.5807 l 0.7474,-11.4309 l 0.7474,5.1680 l 0.7474,8.0638 l 0.7474,17.7737 l 0.7474,-2.4562 l 0.7474,20.3254 l 0.7474,-18.4153 l 0.7474,-3.4416 l 0.7474,-14.5986 l 0.7474,-4.2222 l 0.7474,-17.3622 l 0.7474,15.7119 l 0.7474,14.3275 l 0.7474,11.9871 l 0.7474,12.2602 l 0.7474,7.4167 l 0.7474,17.7916 l 0.7474,10.1681 l 0.7474,-6.6510 l 0.7474,9.4205 l 0.7474,-16.5099 l 0.7474,-1.6605 l 0.7474,-11.2204 l 0.7474,-12.4023 l 0.7474,-6.5978 l 0.7474,-18.1317 l 0.7474,14.7246 l 0.7474,-9.7409 l 0.7474,10.8862 l 0.7474,-13.9805 l 0.7474,-13.9732 l 0.7474,18.3694 l 0.7474,17.8224 l 0.7474,-15.8502 l 0.7474,3.9370 l 0.7474,-14.8009 l 0.7474,1.4309 l 0.7474,-5.2245 l 0.7474,14.6734 l 0.7474,3.4716 l 0.7474,0.1668 l 0.7474,-6.3745 l 0.7474,5.0795 l 0.7474,4.8126 l 0.7474,-0.0501 l 0.7474,-7.3230 l 0.7474,-5.2219 l 0.7474,7.0583 l 0.7474,5.0353 l 0.7474,-13.9489 l 0.7474,12.7032 l 0.7474,-16.5837 l 0.7474,14.3864 l 0.7474,15.2477 l 0.7474,5.6255 l 0.7474,14.3971 l 0.7474,-9.6728 l 0.7474,16.1269 l 0.7474,-3.9002 l 0.7474,11.5830 l 0.7474,-17.4869 l 0.7474,-4.1831 l 0.7474,5.0130 l 0.7474,-3.1072 l 0.7474,-2.3899 l 0.7474,7.4799 l 0.7474,-11.9677 l 0.7474,-2.2950 l 0.7474,9.3869 l 0.7474,9.7916 l 0.7474,-9.7340 l 0.7474,-15.7973 l 0.7474,-12.2679 l 0.7474,17.3568 l 0.7474,8.2395 l 0.7474,13.4732 l 0.7474,-6.0482 l 0.7474,-8.1796 l 0.7474,17.1662 l 0.7474,-3.7450 l 0.7474,-16.8722 l 0.7474,-4.8903 l 0.7474,15.1893 l 0.7474,16.0102 l 0.7474,6.7998 l 0.7474,-15.3281 l 0.7474,2.5909 l 0.7474,8.0251 l 0.7474,-15.4645 l 0.7474,-12.9389 l 0.7474,12.5149 l 0.7474,-17.4452 l 0.7474,-3.1431 l 0.7474,0.8403 l 0.7474,-19.1860 l 0.7474,2.5857 l 0.7474,6.1112 l 0.7474,3.7002 l 0.7474,17.7239 l 0.7474,-2.9207 l 0.7474,-12.8555 l 0.7474,7.6235 l 0.7474,20.1438 l 0.7474,-7.3178 l 0.7474,-19.6911 l 0.7474,17.3627 l 0.7474,-5.1838 l 0.7474,-0.3653 l 0.7474,-1.4383 l 0.7474,12.0025 l 0.7474,10.2329 l 0.7474,-18.0886 l 0.7474,1.6486 l 0.7474,-4.3702 l 0.7474,-7.7348 l 0.7474,12.4769 l 0.7474,16.0030 l 0.7474,-2.1872 l 0.7474,11.7042 l 0.7474,-3.8790 l 0.7474,1.5026 l 0.7474,3.9817 l 0.7474,4.5426 l 0.7474,-5.4247 l 0.7474,-13.9765 l 0.7474,-9.6160 l 0.7474,-0.7438 l 0.7474,20.0671 l 0.7474,10.6706 l 0.7474,-14.4799 l 0.7474,-11.0276 l 0.7474,1.8421 l 0.7474,-10.3068 l 0.7474,-2.4729 l 0.7474,-3.4541 "/></g></g><defs></defs><g stroke-linejoin="miter" stroke-opacity="1.0" fill-opacity="0.0" stroke="rgb(0,0,0)" stroke-width="0.9999999999999997" fill="rgb(0,0,0)" stroke-linecap="square" stroke-miterlimit="10.0"><path d="M 32.8151,550.0000 v -535.0000 "/></g><defs></defs><g stroke-linejoin="miter" stroke-opacity="1.0" fill-opacity="0.0" stroke="rgb(0,0,0)" stroke-width="0.9999999999999997" fill="rgb(0,0,0)" stroke-linecap="butt" stroke-miterlimit="10.0"><path d="M 32.8151,550.0000 h 2.0000 "/></g><defs></defs><g stroke-linejoin="miter" stroke-opacity="1.0" fill-opacity="0.0" stroke="rgb(0,0,0)" stroke-width="0.9999999999999997" fill="rgb(0,0,0)" stroke-linecap="butt" stroke-miterlimit="10.0"><path d="M 32.8151,539.3000 h 2.0000 "/></g><defs></defs><g stroke-linejoin="miter" stroke-opacity="1.0" fill-opacity="0.0" stroke="rgb(0,0,0)" stroke-width="0.9999999999999997" fill="rgb(0,0,0)" stroke-linecap="butt" stroke-miterlimit="10.0"><path d="M 32.8151,528.6000 h 2.0000 "/></g><defs></defs><g stroke-linejoin="miter" stroke-opacity="1.0" fill-opacity="0.0" stroke="rgb(0,0,0)" stroke-width="0.9999999999999997" fill="rgb(0,0,0)" stroke-linecap="butt" stroke-miterlimit="10.0"><path d="M 32.8151,517.9000 h 2.0000 "/></g><defs></defs><g stroke-linejoin="miter" stroke-opacity="1.0" fill-opacity="0.0" stroke="rgb(0,0,0)" stroke-width="0.9999999999999997" fill="rgb(0,0,0)" stroke-linecap="butt" stroke-miterlimit="10.0"><path d="M 32.8151,507.2000 h 2.0000 "/></g><defs></defs><g stroke-linejoin="miter" stroke-opacity="1.0" fill-opacity="0.0" stroke="rgb(0,0,0)" stroke-width="0.9999999999999997" fill="rgb(0,0,0)" stroke-linecap="butt" stroke-miterlimit="10.0"><path d="M 32.8151,496.5000 h 2.0000 "/></g><defs></defs><g stroke-linejoin="miter" stroke-opacity="1.0" fill-opacity="0.0" stroke="rgb(0,0,0)" stroke-width="0.9999999999999997" fill="rgb(0,0,0)" stroke-linecap="butt" stroke-miterlimit="10.0"><path d="M 32.8151,485.8000 h 2.0000 "/></g><defs></defs><g stroke-linejoin="miter" stroke-opacity="1.0" fill-opacity="0.0" stroke="rgb(0,0,0)" stroke-width="0.9999999999999997" fill="rgb(0,0,0)" stroke-linecap="butt" stroke-miterlimit="10.0"><path d="M 32.8151,475.1000 h 2.0000 "/></g><defs></defs><g stroke-linejoin="miter" stroke-opacity="1.0" fill-opacity="0.0" stroke="rgb(0,0,0)" stroke-width="0.9999999999999997" fill="rgb(0,0,0)" stroke-linecap="butt" stroke-miterlimit="10.0"><path d="M 32.8151,464.4000 h 2.0000 "/></g><defs></defs><g stroke-linejoin="miter" stroke-opacity="1.0" fill-opacity="0.0" stroke="rgb(0,0,0)" stroke-width="0.9999999999999997" fill="rgb(0,0,0)" stroke-linecap="butt" stroke-miterlimit="10.0"><path d="M 32.8151,453.7000 h 2.0000 "/></g><defs></defs><g stroke-linejoin="miter" stroke-opacity="1.0" fill-opacity="0.0" stroke="rgb(0,0,0)" stroke-width="0.9999999999999997" fill="rgb(0,0,0)" stroke-linecap="butt" stroke-miterlimit="10.0"><path d="M 32.8151,443.0000 h 2.0000 "/></g><defs></defs><g stroke-linejoin="miter" stroke-opacity="1.0" fill-opacity="0.0" stroke="rgb(0,0,0)" stroke-width="0.9999999999999997" fill="rgb(0,0,0)" stroke-linecap="butt" stroke-miterlimit="10.0"><path d="M 32.8151,432.3000 h 2.0000 "/></g><defs></defs><g stroke-linejoin="miter" stroke-opacity="1.0" fill-opacity="0.0" stroke="rgb(0,0,0)" stroke-width="0.9999999999999997" fill="rgb(0,0,0)" stroke-linecap="butt" stroke-miterlimit="10.0"><path d="M 32.8151,421.6000 h 2.0000 "/></g><defs></defs><g stroke-linejoin="miter" stroke-opacity="1.0" fill-opacity="0.0" stroke="rgb(0,0,0)" stroke-width="0.9999999999999997" fill="rgb(0,0,0)" stroke-linecap="butt" stroke-miterlimit="10.0"><path d="M 32.8151,410.9000 h 2.0000 "/></g><defs></defs><g stroke-linejoin="miter" stroke-opacity="1.0" fill-opacity="0.0" stroke="rgb(0,0,0)" stroke-width="0.9999999999999997" fill="rgb(0,0,0)" stroke-linecap="butt" stroke-miterlimit="10.0"><path d="M 32.8151,400.2000 h 2.0000 "/></g><defs></defs><g stroke-linejoin="miter" stroke-opacity="1.0" fill-opacity="0.0" stroke="rgb(0,0,0)" stroke-width="0.9999999999999997" fill="rgb(0,0,0)" stroke-linecap="butt" stroke-miterlimit="10.0"><path d="M 32.8151,389.5000 h 2.0000 "/></g><defs></defs><g stroke-linejoin="miter" stroke-opacity="1.0" fill-opacity="0.0" stroke="rgb(0,0,0)" stroke-width="0.9999999999999997" fill="rgb(0,0,0)" stroke-linecap="butt" stroke-miterlimit="10.0"><path d="M 32.8151,378.8000 h 2.0000 "/></g><defs></defs><g stroke-linejoin="miter" stroke-opacity="1.0" fill-opacity="0.0" stroke="rgb(0,0,0)" stroke-width="0.9999999999999997" fill="rgb(0,0,0)" stroke-linecap="butt" stroke-miterlimit="10.0"><path d="M 32.8151,368.1000 h 2.0000 "/></g><defs></defs><g stroke-linejoin="miter" stroke-opacity="1.0" fill-opacity="0.0" stroke="rgb(0,0,0)" stroke-width="0.9999999999999997" fill="rgb(0,0,0)" stroke-linecap="butt" stroke-miterlimit="10.0"><path d="M 32.8151,357.4000 h 2.0000 "/></g><defs></defs><g stroke-linejoin="miter" stroke-opacity="1.0" fill-opacity="0.0" stroke="rgb(0,0,0)" stroke-width="0.9999999999999997" fill="rgb(0,0,0)" stroke-linecap="butt" stroke-miterlimit="10.0"><path d="M 32.8151,346.7000 h 2.0000 "/></g><defs></defs><g stroke-linejoin="miter" stroke-opacity="1.0" fill-opacity="0.0" stroke="rgb(0,0,0)" stroke-width="0.9999999999999997" fill="rgb(0,0,0)" stroke-linecap="butt" stroke-miterlimit="10.0"><path d="M 32.8151,336.0000 h 2.0000 "/></g><defs></defs><g stroke-linejoin="miter" stroke-opacity="1.0" fill-opacity="0.0" stroke="rgb(0,0,0)" stroke-width="0.9999999999999997" fill="rgb(0,0,0)" stroke-linecap="butt" stroke-miterlimit="10.0"><path d="M 32.8151,325.3000 h 2.0000 "/></g><defs></defs><g stroke-linejoin="miter" stroke-opacity="1.0" fill-opacity="0.0" stroke="rgb(0,0,0)" stroke-width="0.9999999999999997" fill="rgb(0,0,0)" stroke-linecap="butt" stroke-miterlimit="10.0"><path d="M 32.8151,314.6000 h 2.0000 "/></g><defs></defs><g stroke-linejoin="miter" stroke-opacity="1.0" fill-opacity="0.0" stroke="rgb(0,0,0)" stroke-width="0.9999999999999997" fill="rgb(0,0,0)" stroke-linecap="butt" stroke-miterlimit="10.0"><path d="M 32.8151,303.9000 h 2.0000 "/></g><defs></defs><g stroke-linejoin="miter" stroke-opacity="1.0" fill-opacity="0.0" stroke="rgb(0,0,0)" stroke-width="0.9999999999999997" fill="rgb(0,0,0)" stroke-linecap="butt" stroke-miterlimit="10.0"><path d="M 32.8151,293.2000 h 2.0000 "/></g><defs></defs><g stroke-linejoin="miter" stroke-opacity="1.0" fill-opacity="0.0" stroke="rgb(0,0,0)" stroke-width="0.9999999999999997" fill="rgb(0,0,0)" stroke-linecap="butt" stroke-miterlimit="10.0"><path d="M 32.8151,282.5000 h 2.0000 "/></g><defs></defs><g stroke-linejoin="miter" stroke-opacity="1.0" fill-opacity="0.0" stroke="rgb(0,0,0)" stroke-width="0.9999999999999997" fill="rgb(0,0,0)" stroke-linecap="butt" stroke-miterlimit="10.0"><path d="M 32.8151,271.8000 h 2.0000 "/></g><defs></defs><g stroke-linejoin="miter" stroke-opacity="1.0" fill-opacity="0.0" stroke="rgb(0,0,0)" stroke-width="0.9999999999999997" fill="rgb(0,0,0)" stroke-linecap="butt" stroke-miterlimit="10.0"><path d="M 32.8151,261.1000 h 2.0000 "/></g><defs></defs><g stroke-linejoin="miter" stroke-opacity="1.0" fill-opacity="0.0" stroke="rgb(0,0,0)" stroke-width="0.9999999999999997" fill="rgb(0,0,0)" stroke-linecap="butt" stroke-miterlimit="10.0"><path d="M 32.8151,250.4000 h 2.0000 "/></g><defs></defs><g stroke-linejoin="miter" stroke-opacity="1.0" fill-opacity="0.0" stroke="rgb(0,0,0)" stroke-width="0.9999999999999997" fill="rgb(0,0,0)" stroke-linecap="butt" stroke-miterlimit="10.0"><path d="M 32.8151,239.7000 h 2.0000 "/></g><defs></defs><g stroke-linejoin="miter" stroke-opacity="1.0" fill-opacity="0.0" stroke="rgb(0,0,0)" stroke-width="0.9999999999999997" fill="rgb(0,0,0)" stroke-linecap="butt" stroke-miterlimit="10.0"><path d="M 32.8151,229.0000 h 2.0000 "/></g><defs></defs><g stroke-linejoin="miter" stroke-opacity="1.0" fill-opacity="0.0" stroke="rgb(0,0,0)" stroke-width="0.9999999999999997" fill="rgb(0,0,0)" stroke-linecap="butt" stroke-miterlimit="10.0"><path d="M 32.8151,218.3000 h 2.0000 "/></g><defs></defs><g stroke-linejoin="miter" stroke-opacity="1.0" fill-opacity="0.0" stroke="rgb(0,0,0)" stroke-width="0.9999999999999997" fill="rgb(0,0,0)" stroke-linecap="butt" stroke-miterlimit="10.0"><path d="M 32.8151,207.6000 h 2.0000 "/></g><defs></defs><g stroke-linejoin="miter" stroke-opacity="1.0" fill-opacity="0.0" stroke="rgb(0,0,0)" stroke-width="0.9999999999999997" fill="rgb(0,0,0)" stroke-linecap="butt" stroke-miterlimit="10.0"><path d="M 32.8151,196.9000 h 2.0000 "/></g><defs></defs><g stroke-linejoin="miter" stroke-opacity="1.0" fill-opacity="0.0" stroke="rgb(0,0,0)" stroke-width="0.9999999999999997" fill="rgb(0,0,0)" stroke-linecap="butt" stroke-miterlimit="10.0"><path d="M 32.8151,186.2000 h 2.0000 "/></g><defs></defs><g stroke-linejoin="miter" stroke-opacity="1.0" fill-opacity="0.0" stroke="rgb(0,0,0)" stroke-width="0.9999999999999997" fill="rgb(0,0,0)" stroke-linecap="butt" stroke-miterlimit="10.0"><path d="M 32.8151,175.5000 h 2.0000 "/></g><defs></defs><g stroke-linejoin="miter" stroke-opacity="1.0" fill-opacity="0.0" stroke="rgb(0,0,0)" stroke-width="0.9999999999999997" fill="rgb(0,0,0)" stroke-linecap="butt" stroke-miterlimit="10.0"><path d="M 32.8151,164.8000 h 2.0000 "/></g><defs></defs><g stroke-linejoin="miter" stroke-opacity="1.0" fill-opacity="0.0" stroke="rgb(0,0,0)" stroke-width="0.9999999999999997" fill="rgb(0,0,0)" stroke-linecap="butt" stroke-miterlimit="10.0"><path d="M 32.8151,154.1000 h 2.0000 "/></g><defs></defs><g stroke-linejoin="miter" stroke-opacity="1.0" fill-opacity="0.0" stroke="rgb(0,0,0)" stroke-width="0.9999999999999997" fill="rgb(0,0,0)" stroke-linecap="butt" stroke-miterlimit="10.0"><path d="M 32.8151,143.4000 h 2.0000 "/></g><defs></defs><g stroke-linejoin="miter" stroke-opacity="1.0" fill-opacity="0.0" stroke="rgb(0,0,0)" stroke-width="0.9999999999999997" fill="rgb(0,0,0)" stroke-linecap="butt" stroke-miterlimit="10.0"><path d="M 32.8151,132.7000 h 2.0000 "/></g><defs></defs><g stroke-linejoin="miter" stroke-opacity="1.0" fill-opacity="0.0" stroke="rgb(0,0,0)" stroke-width="0.9999999999999997" fill="rgb(0,0,0)" stroke-linecap="butt" stroke-miterlimit="10.0"><path d="M 32.8151,122.0000 h 2.0000 "/></g><defs></defs><g stroke-linejoin="miter" stroke-opacity="1.0" fill-opacity="0.0" stroke="rgb(0,0,0)" stroke-width="0.9999999999999997" fill="rgb(0,0,0)" stroke-linecap="butt" stroke-miterlimit="10.0"><path d="M 32.8151,111.3000 h 2.0000 "/></g><defs></defs><g stroke-linejoin="miter" stroke-opacity="1.0" fill-opacity="0.0" stroke="rgb(0,0,0)" stroke-width="0.9999999999999997" fill="rgb(0,0,0)" stroke-linecap="butt" stroke-miterlimit="10.0"><path d="M 32.8151,100.6000 h 2.0000 "/></g><defs></defs><g stroke-linejoin="miter" stroke-opacity="1.0" fill-opacity="0.0" stroke="rgb(0,0,0)" stroke-width="0.9999999999999997" fill="rgb(0,0,0)" stroke-linecap="butt" stroke-miterlimit="10.0"><path d="M 32.8151,89.9000 h 2.0000 "/></g><defs></defs><g stroke-linejoin="miter" stroke-opacity="1.0" fill-opacity="0.0" stroke="rgb(0,0,0)" stroke-width="0.9999999999999997" fill="rgb(0,0,0)" stroke-linecap="butt" stroke-miterlimit="10.0"><path d="M 32.8151,79.2000 h 2.0000 "/></g><defs></defs><g stroke-linejoin="miter" stroke-opacity="1.0" fill-opacity="0.0" stroke="rgb(0,0,0)" stroke-width="0.9999999999999997" fill="rgb(0,0,0)" stroke-linecap="butt" stroke-miterlimit="10.0"><path d="M 32.8151,68.5000 h 2.0000 "/></g><defs></defs><g stroke-linejoin="miter" stroke-opacity="1.0" fill-opacity="0.0" stroke="rgb(0,0,0)" stroke-width="0.9999999999999997" fill="rgb(0,0,0)" stroke-linecap="butt" stroke-miterlimit="10.0"><path d="M 32.8151,57.8000 h 2.0000 "/></g><defs></defs><g stroke-linejoin="miter" stroke-opacity="1.0" fill-opacity="0.0" stroke="rgb(0,0,0)" stroke-width="0.9999999999999997" fill="rgb(0,0,0)" stroke-linecap="butt" stroke-miterlimit="10.0"><path d="M 32.8151,47.1000 h 2.0000 "/></g><defs></defs><g stroke-linejoin="miter" stroke-opacity="1.0" fill-opacity="0.0" stroke="rgb(0,0,0)" stroke-width="0.9999999999999997" fill="rgb(0,0,0)" stroke-linecap="butt" stroke-miterlimit="10.0"><path d="M 32.8151,36.4000 h 2.0000 "/></g><defs></defs><g stroke-linejoin="miter" stroke-opacity="1.0" fill-opacity="0.0" stroke="rgb(0,0,0)" stroke-width="0.9999999999999997" fill="rgb(0,0,0)" stroke-linecap="butt" stroke-miterlimit="10.0"><path d="M 32.8151,25.7000 h 2.0000 "/></g><defs></defs><g stroke-linejoin="miter" stroke-opacity="1.0" fill-opacity="0.0" stroke="rgb(0,0,0)" stroke-width="0.9999999999999997" fill="rgb(0,0,0)" stroke-linecap="butt" stroke-miterlimit="10.0"><path d="M 32.8151,15.0000 h 2.0000 "/></g><defs></defs><g stroke-linejoin="miter" stroke-opacity="1.0" fill-opacity="0.0" stroke="rgb(0,0,0)" stroke-width="0.9999999999999997" fill="rgb(0,0,0)" stroke-linecap="butt" stroke-miterlimit="10.0"><path d="M 32.8151,550.0000 h 5.0000 "/></g><defs></defs><g stroke-linejoin="miter" stroke-opacity="1.0" fill-opacity="0.0" stroke="rgb(0,0,0)" stroke-width="0.9999999999999997" fill="rgb(0,0,0)" stroke-linecap="butt" stroke-miterlimit="10.0"><path d="M 32.8151,443.0000 h 5.0000 "/></g><defs></defs><g stroke-linejoin="miter" stroke-opacity="1.0" fill-opacity="0.0" stroke="rgb(0,0,0)" stroke-width="0.9999999999999997" fill="rgb(0,0,0)" stroke-linecap="butt" stroke-miterlimit="10.0"><path d="M 32.8151,336.0000 h 5.0000 "/></g><defs></defs><g stroke-linejoin="miter" stroke-opacity="1.0" fill-opacity="0.0" stroke="rgb(0,0,0)" stroke-width="0.9999999999999997" fill="rgb(0,0,0)" stroke-linecap="butt" stroke-miterlimit="10.0"><path d="M 32.8151,229.0000 h 5.0000 "/></g><defs></defs><g stroke-linejoin="miter" stroke-opacity="1.0" fill-opacity="0.0" stroke="rgb(0,0,0)" stroke-width="0.9999999999999997" fill="rgb(0,0,0)" stroke-linecap="butt" stroke-miterlimit="10.0"><path d="M 32.8151,122.0000 h 5.0000 "/></g><defs></defs><g stroke-linejoin="miter" stroke-opacity="1.0" fill-opacity="0.0" stroke="rgb(0,0,0)" stroke-width="0.9999999999999997" fill="rgb(0,0,0)" stroke-linecap="butt" stroke-miterlimit="10.0"><path d="M 32.8151,15.0000 h 5.0000 "/></g><defs></defs><g stroke-linejoin="bevel" stroke-opacity="0.0" fill-opacity="1.0" stroke="rgb(0,0,0)" stroke-width="0.0" fill="rgb(0,0,0)" stroke-linecap="butt" stroke-miterlimit="10.0"><path d="M 10.0000,553.4454 ZM 10.4307,550.4832 h 2.4160 v 0.6618 h -2.4160 v -0.6618 ZM 13.2668,553.4454 ZM 13.6870,552.9307 c 0.7563,-0.7563 1.3445,-1.3655 1.3445 -1.3655c 0.5882,-0.6092 0.9874,-1.1292 0.9874 -1.1292c 0.3992,-0.5200 0.6092,-0.9559 0.6092 -0.9559c 0.2101,-0.4359 0.2101,-0.8456 0.2101 -0.8456c 0.0000,-0.5777 -0.3151,-0.9454 -0.3151 -0.9454c -0.3151,-0.3676 -0.9559,-0.3676 -0.9559 -0.3676c -0.4202,-0.0000 -0.7773,0.2363 -0.7773 0.2363c -0.3571,0.2363 -0.6513,0.5725 -0.6513 0.5725l -0.4937,-0.4937 c 0.4202,-0.4622 0.8929,-0.7405 0.8929 -0.7405c 0.4727,-0.2784 1.1345,-0.2784 1.1345 -0.2784c 0.9349,0.0000 1.4706,0.5410 1.4706 0.5410c 0.5357,0.5410 0.5357,1.4338 0.5357 1.4338c 0.0000,0.4727 -0.2048,0.9506 -0.2048 0.9506c -0.2048,0.4779 -0.5672,0.9874 -0.5672 0.9874c -0.3624,0.5095 -0.8613,1.0609 -0.8613 1.0609c -0.4989,0.5515 -1.0977,1.1712 -1.0977 1.1712c 0.2731,-0.0210 0.5672,-0.0420 0.5672 -0.0420c 0.2941,-0.0210 0.5567,-0.0210 0.5567 -0.0210h 1.9433 v 0.7458 h -4.3277 v -0.5147 ZM 18.4874,553.4454 ZM 21.1029,553.5714 c -1.0189,-0.0000 -1.5861,-0.9034 -1.5861 -0.9034c -0.5672,-0.9034 -0.5672,-2.5945 -0.5672 -2.5945c 0.0000,-1.6912 0.5672,-2.5735 0.5672 -2.5735c 0.5672,-0.8824 1.5861,-0.8824 1.5861 -0.8824c 1.0084,0.0000 1.5756,0.8824 1.5756 0.8824c 0.5672,0.8824 0.5672,2.5735 0.5672 2.5735c 0.0000,1.6912 -0.5672,2.5945 -0.5672 2.5945c -0.5672,0.9034 -1.5756,0.9034 -1.5756 0.9034ZM 21.1029,553.5714 ZM 21.1029,552.8782 c 0.2941,0.0000 0.5305,-0.1628 0.5305 -0.1628c 0.2363,-0.1628 0.4097,-0.5042 0.4097 -0.5042c 0.1733,-0.3414 0.2679,-0.8718 0.2679 -0.8718c 0.0945,-0.5305 0.0945,-1.2658 0.0945 -1.2658c 0.0000,-0.7353 -0.0945,-1.2605 -0.0945 -1.2605c -0.0945,-0.5252 -0.2679,-0.8561 -0.2679 -0.8561c -0.1733,-0.3309 -0.4097,-0.4884 -0.4097 -0.4884c -0.2363,-0.1576 -0.5305,-0.1576 -0.5305 -0.1576c -0.2941,-0.0000 -0.5357,0.1576 -0.5357 0.1576c -0.2416,0.1576 -0.4149,0.4884 -0.4149 0.4884c -0.1733,0.3309 -0.2679,0.8561 -0.2679 0.8561c -0.0945,0.5252 -0.0945,1.2605 -0.0945 1.2605c 0.0000,1.4706 0.3624,2.1376 0.3624 2.1376c 0.3624,0.6670 0.9506,0.6670 0.9506 0.6670Z"/></g><defs></defs><g stroke-linejoin="bevel" stroke-opacity="0.0" fill-opacity="1.0" stroke="rgb(0,0,0)" stroke-width="0.0" fill="rgb(0,0,0)" stroke-linecap="butt" stroke-miterlimit="10.0"><path d="M 10.0420,446.4454 ZM 10.4727,443.4832 h 2.4160 v 0.6618 h -2.4160 v -0.6618 ZM 13.3088,446.4454 ZM 14.1387,445.7311 h 1.5336 v -4.9370 h -1.2185 v -0.5567 c 0.4622,-0.0840 0.8036,-0.2048 0.8036 -0.2048c 0.3414,-0.1208 0.6145,-0.2889 0.6145 -0.2889h 0.6618 v 5.9874 h 1.3866 v 0.7143 h -3.7815 v -0.7143 ZM 18.5294,446.4454 ZM 19.2122,445.0903 c 0.2941,0.3046 0.6985,0.5357 0.6985 0.5357c 0.4044,0.2311 0.9926,0.2311 0.9926 0.2311c 0.3046,0.0000 0.5725,-0.1103 0.5725 -0.1103c 0.2679,-0.1103 0.4674,-0.3099 0.4674 -0.3099c 0.1996,-0.1996 0.3151,-0.4832 0.3151 -0.4832c 0.1155,-0.2836 0.1155,-0.6303 0.1155 -0.6303c 0.0000,-0.6933 -0.3887,-1.0819 -0.3887 -1.0819c -0.3887,-0.3887 -1.0399,-0.3887 -1.0399 -0.3887c -0.3466,-0.0000 -0.5935,0.1050 -0.5935 0.1050c -0.2468,0.1050 -0.5515,0.3046 -0.5515 0.3046l -0.4622,-0.2941 l 0.2206,-3.2248 h 3.3508 v 0.7458 h -2.5945 l -0.1786,1.9853 c 0.2416,-0.1261 0.4832,-0.1996 0.4832 -0.1996c 0.2416,-0.0735 0.5462,-0.0735 0.5462 -0.0735c 0.4307,0.0000 0.8088,0.1261 0.8088 0.1261c 0.3782,0.1261 0.6618,0.3834 0.6618 0.3834c 0.2836,0.2574 0.4464,0.6513 0.4464 0.6513c 0.1628,0.3939 0.1628,0.9401 0.1628 0.9401c 0.0000,0.5462 -0.1891,0.9664 -0.1891 0.9664c -0.1891,0.4202 -0.5042,0.7090 -0.5042 0.7090c -0.3151,0.2889 -0.7195,0.4412 -0.7195 0.4412c -0.4044,0.1523 -0.8456,0.1523 -0.8456 0.1523c -0.3992,-0.0000 -0.7300,-0.0788 -0.7300 -0.0788c -0.3309,-0.0788 -0.5987,-0.2048 -0.5987 -0.2048c -0.2679,-0.1261 -0.4832,-0.2889 -0.4832 -0.2889c -0.2153,-0.1628 -0.3834,-0.3414 -0.3834 -0.3414Z"/></g><defs></defs><g stroke-linejoin="bevel" stroke-opacity="0.0" fill-opacity="1.0" stroke="rgb(0,0,0)" stroke-width="0.0" fill="rgb(0,0,0)" stroke-linecap="butt" stroke-miterlimit="10.0"><path d="M 10.0000,339.4454 ZM 10.4307,336.4832 h 2.4160 v 0.6618 h -2.4160 v -0.6618 ZM 13.2668,339.4454 ZM 14.0966,338.7311 h 1.5336 v -4.9370 h -1.2185 v -0.5567 c 0.4622,-0.0840 0.8036,-0.2048 0.8036 -0.2048c 0.3414,-0.1208 0.6145,-0.2889 0.6145 -0.2889h 0.6618 v 5.9874 h 1.3866 v 0.7143 h -3.7815 v -0.7143 ZM 18.4874,339.4454 ZM 21.1029,339.5714 c -1.0189,-0.0000 -1.5861,-0.9034 -1.5861 -0.9034c -0.5672,-0.9034 -0.5672,-2.5945 -0.5672 -2.5945c 0.0000,-1.6912 0.5672,-2.5735 0.5672 -2.5735c 0.5672,-0.8824 1.5861,-0.8824 1.5861 -0.8824c 1.0084,0.0000 1.5756,0.8824 1.5756 0.8824c 0.5672,0.8824 0.5672,2.5735 0.5672 2.5735c 0.0000,1.6912 -0.5672,2.5945 -0.5672 2.5945c -0.5672,0.9034 -1.5756,0.9034 -1.5756 0.9034ZM 21.1029,339.5714 ZM 21.1029,338.8782 c 0.2941,0.0000 0.5305,-0.1628 0.5305 -0.1628c 0.2363,-0.1628 0.4097,-0.5042 0.4097 -0.5042c 0.1733,-0.3414 0.2679,-0.8718 0.2679 -0.8718c 0.0945,-0.5305 0.0945,-1.2658 0.0945 -1.2658c 0.0000,-0.7353 -0.0945,-1.2605 -0.0945 -1.2605c -0.0945,-0.5252 -0.2679,-0.8561 -0.2679 -0.8561c -0.1733,-0.3309 -0.4097,-0.4884 -0.4097 -0.4884c -0.2363,-0.1576 -0.5305,-0.1576 -0.5305 -0.1576c -0.2941,-0.0000 -0.5357,0.1576 -0.5357 0.1576c -0.2416,0.1576 -0.4149,0.4884 -0.4149 0.4884c -0.1733,0.3309 -0.2679,0.8561 -0.2679 0.8561c -0.0945,0.5252 -0.0945,1.2605 -0.0945 1.2605c 0.0000,1.4706 0.3624,2.1376 0.3624 2.1376c 0.3624,0.6670 0.9506,0.6670 0.9506 0.6670Z"/></g><defs></defs><g stroke-linejoin="bevel" stroke-opacity="0.0" fill-opacity="1.0" stroke="rgb(0,0,0)" stroke-width="0.0" fill="rgb(0,0,0)" stroke-linecap="butt" stroke-miterlimit="10.0"><path d="M 15.2626,232.4454 ZM 15.6933,229.4832 h 2.4160 v 0.6618 h -2.4160 v -0.6618 ZM 18.5294,232.4454 ZM 19.2122,231.0903 c 0.2941,0.3046 0.6985,0.5357 0.6985 0.5357c 0.4044,0.2311 0.9926,0.2311 0.9926 0.2311c 0.3046,0.0000 0.5725,-0.1103 0.5725 -0.1103c 0.2679,-0.1103 0.4674,-0.3099 0.4674 -0.3099c 0.1996,-0.1996 0.3151,-0.4832 0.3151 -0.4832c 0.1155,-0.2836 0.1155,-0.6303 0.1155 -0.6303c 0.0000,-0.6933 -0.3887,-1.0819 -0.3887 -1.0819c -0.3887,-0.3887 -1.0399,-0.3887 -1.0399 -0.3887c -0.3466,-0.0000 -0.5935,0.1050 -0.5935 0.1050c -0.2468,0.1050 -0.5515,0.3046 -0.5515 0.3046l -0.4622,-0.2941 l 0.2206,-3.2248 h 3.3508 v 0.7458 h -2.5945 l -0.1786,1.9853 c 0.2416,-0.1261 0.4832,-0.1996 0.4832 -0.1996c 0.2416,-0.0735 0.5462,-0.0735 0.5462 -0.0735c 0.4307,0.0000 0.8088,0.1261 0.8088 0.1261c 0.3782,0.1261 0.6618,0.3834 0.6618 0.3834c 0.2836,0.2574 0.4464,0.6513 0.4464 0.6513c 0.1628,0.3939 0.1628,0.9401 0.1628 0.9401c 0.0000,0.5462 -0.1891,0.9664 -0.1891 0.9664c -0.1891,0.4202 -0.5042,0.7090 -0.5042 0.7090c -0.3151,0.2889 -0.7195,0.4412 -0.7195 0.4412c -0.4044,0.1523 -0.8456,0.1523 -0.8456 0.1523c -0.3992,-0.0000 -0.7300,-0.0788 -0.7300 -0.0788c -0.3309,-0.0788 -0.5987,-0.2048 -0.5987 -0.2048c -0.2679,-0.1261 -0.4832,-0.2889 -0.4832 -0.2889c -0.2153,-0.1628 -0.3834,-0.3414 -0.3834 -0.3414Z"/></g><defs></defs><g stroke-linejoin="bevel" stroke-opacity="0.0" fill-opacity="1.0" stroke="rgb(0,0,0)" stroke-width="0.0" fill="rgb(0,0,0)" stroke-linecap="butt" stroke-miterlimit="10.0"><path d="M 18.5189,125.4454 ZM 21.1345,125.5714 c -1.0189,-0.0000 -1.5861,-0.9034 -1.5861 -0.9034c -0.5672,-0.9034 -0.5672,-2.5945 -0.5672 -2.5945c 0.0000,-1.6912 0.5672,-2.5735 0.5672 -2.5735c 0.5672,-0.8824 1.5861,-0.8824 1.5861 -0.8824c 1.0084,0.0000 1.5756,0.8824 1.5756 0.8824c 0.5672,0.8824 0.5672,2.5735 0.5672 2.5735c 0.0000,1.6912 -0.5672,2.5945 -0.5672 2.5945c -0.5672,0.9034 -1.5756,0.9034 -1.5756 0.9034ZM 21.1345,125.5714 ZM 21.1345,124.8782 c 0.2941,0.0000 0.5305,-0.1628 0.5305 -0.1628c 0.2363,-0.1628 0.4097,-0.5042 0.4097 -0.5042c 0.1733,-0.3414 0.2679,-0.8718 0.2679 -0.8718c 0.0945,-0.5305 0.0945,-1.2658 0.0945 -1.2658c 0.0000,-0.7353 -0.0945,-1.2605 -0.0945 -1.2605c -0.0945,-0.5252 -0.2679,-0.8561 -0.2679 -0.8561c -0.1733,-0.3309 -0.4097,-0.4884 -0.4097 -0.4884c -0.2363,-0.1576 -0.5305,-0.1576 -0.5305 -0.1576c -0.2941,-0.0000 -0.5357,0.1576 -0.5357 0.1576c -0.2416,0.1576 -0.4149,0.4884 -0.4149 0.4884c -0.1733,0.3309 -0.2679,0.8561 -0.2679 0.8561c -0.0945,0.5252 -0.0945,1.2605 -0.0945 1.2605c 0.0000,1.4706 0.3624,2.1376 0.3624 2.1376c 0.3624,0.6670 0.9506,0.6670 0.9506 0.6670Z"/></g><defs></defs><g stroke-linejoin="bevel" stroke-opacity="0.0" fill-opacity="1.0" stroke="rgb(0,0,0)" stroke-width="0.0" fill="rgb(0,0,0)" stroke-linecap="butt" stroke-miterlimit="10.0"><path d="M 18.3613,18.4454 ZM 19.0441,17.0903 c 0.2941,0.3046 0.6985,0.5357 0.6985 0.5357c 0.4044,0.2311 0.9926,0.2311 0.9926 0.2311c 0.3046,0.0000 0.5725,-0.1103 0.5725 -0.1103c 0.2679,-0.1103 0.4674,-0.3099 0.4674 -0.3099c 0.1996,-0.1996 0.3151,-0.4832 0.3151 -0.4832c 0.1155,-0.2836 0.1155,-0.6303 0.1155 -0.6303c 0.0000,-0.6933 -0.3887,-1.0819 -0.3887 -1.0819c -0.3887,-0.3887 -1.0399,-0.3887 -1.0399 -0.3887c -0.3466,-0.0000 -0.5935,0.1050 -0.5935 0.1050c -0.2468,0.1050 -0.5515,0.3046 -0.5515 0.3046l -0.4622,-0.2941 l 0.2206,-3.2248 h 3.3508 v 0.7458 h -2.5945 l -0.1786,1.9853 c 0.2416,-0.1261 0.4832,-0.1996 0.4832 -0.1996c 0.2416,-0.0735 0.5462,-0.0735 0.5462 -0.0735c 0.4307,0.0000 0.8088,0.1261 0.8088 0.1261c 0.3782,0.1261 0.6618,0.3834 0.6618 0.3834c 0.2836,0.2574 0.4464,0.6513 0.4464 0.6513c 0.1628,0.3939 0.1628,0.9401 0.1628 0.9401c 0.0000,0.5462 -0.1891,0.9664 -0.1891 0.9664c -0.1891,0.4202 -0.5042,0.7090 -0.5042 0.7090c -0.3151,0.2889 -0.7195,0.4412 -0.7195 0.4412c -0.4044,0.1523 -0.8456,0.1523 -0.8456 0.1523c -0.3992,-0.0000 -0.7300,-0.0788 -0.7300 -0.0788c -0.3309,-0.0788 -0.5987,-0.2048 -0.5987 -0.2048c -0.2679,-0.1261 -0.4832,-0.2889 -0.4832 -0.2889c -0.2153,-0.1628 -0.3834,-0.3414 -0.3834 -0.3414Z"/></g><defs></defs><g stroke-linejoin="miter" stroke-opacity="1.0" fill-opacity="0.0" stroke="rgb(0,0,0)" stroke-width="0.9999999999999997" fill="rgb(0,0,0)" stroke-linecap="square" stroke-miterlimit="10.0"><path d="M 32.8151,550.0000 h 747.3897 "/></g><defs></defs><g stroke-linejoin="miter" stroke-opacity="1.0" fill-opacity="0.0" stroke="rgb(0,0,0)" stroke-width="0.9999999999999997" fill="rgb(0,0,0)" stroke-linecap="butt" stroke-miterlimit="10.0"><path d="M 32.8151,550.0000 v -2.0000 "/></g><defs></defs><g stroke-linejoin="miter" stroke-opacity="1.0" fill-opacity="0.0" stroke="rgb(0,0,0)" stroke-width="0.9999999999999997" fill="rgb(0,0,0)" stroke-linecap="butt" stroke-miterlimit="10.0"><path d="M 107.5541,550.0000 v -2.0000 "/></g><defs></defs><g stroke-linejoin="miter" stroke-opacity="1.0" fill-opacity="0.0" stroke="rgb(0,0,0)" stroke-width="0.9999999999999997" fill="rgb(0,0,0)" stroke-linecap="butt" stroke-miterlimit="10.0"><path d="M 182.2931,550.0000 v -2.0000 "/></g><defs></defs><g stroke-linejoin="miter" stroke-opacity="1.0" fill-opacity="0.0" stroke="rgb(0,0,0)" stroke-width="0.9999999999999997" fill="rgb(0,0,0)" stroke-linecap="butt" stroke-miterlimit="10.0"><path d="M 257.0320,550.0000 v -2.0000 "/></g><defs></defs><g stroke-linejoin="miter" stroke-opacity="1.0" fill-opacity="0.0" stroke="rgb(0,0,0)" stroke-width="0.9999999999999997" fill="rgb(0,0,0)" stroke-linecap="butt" stroke-miterlimit="10.0"><path d="M 331.7710,550.0000 v -2.0000 "/></g><defs></defs><g stroke-linejoin="miter" stroke-opacity="1.0" fill-opacity="0.0" stroke="rgb(0,0,0)" stroke-width="0.9999999999999997" fill="rgb(0,0,0)" stroke-linecap="butt" stroke-miterlimit="10.0"><path d="M 406.5100,550.0000 v -2.0000 "/></g><defs></defs><g stroke-linejoin="miter" stroke-opacity="1.0" fill-opacity="0.0" stroke="rgb(0,0,0)" stroke-width="0.9999999999999997" fill="rgb(0,0,0)" stroke-linecap="butt" stroke-miterlimit="10.0"><path d="M 481.2489,550.0000 v -2.0000 "/></g><defs></defs><g stroke-linejoin="miter" stroke-opacity="1.0" fill-opacity="0.0" stroke="rgb(0,0,0)" stroke-width="0.9999999999999997" fill="rgb(0,0,0)" stroke-linecap="butt" stroke-miterlimit="10.0"><path d="M 555.9879,550.0000 v -2.0000 "/></g><defs></defs><g stroke-linejoin="miter" stroke-opacity="1.0" fill-opacity="0.0" stroke="rgb(0,0,0)" stroke-width="0.9999999999999997" fill="rgb(0,0,0)" stroke-linecap="butt" stroke-miterlimit="10.0"><path d="M 630.7269,550.0000 v -2.0000 "/></g><defs></defs><g stroke-linejoin="miter" stroke-opacity="1.0" fill-opacity="0.0" stroke="rgb(0,0,0)" stroke-width="0.9999999999999997" fill="rgb(0,0,0)" stroke-linecap="butt" stroke-miterlimit="10.0"><path d="M 705.4659,550.0000 v -2.0000 "/></g><defs></defs><g stroke-linejoin="miter" stroke-opacity="1.0" fill-opacity="0.0" stroke="rgb(0,0,0)" stroke-width="0.9999999999999997" fill="rgb(0,0,0)" stroke-linecap="butt" stroke-miterlimit="10.0"><path d="M 780.2048,550.0000 v -2.0000 "/></g><defs></defs><g stroke-linejoin="miter" stroke-opacity="1.0" fill-opacity="0.0" stroke="rgb(0,0,0)" stroke-width="0.9999999999999997" fill="rgb(0,0,0)" stroke-linecap="butt" stroke-miterlimit="10.0"><path d="M 32.8151,550.0000 v -5.0000 "/></g><defs></defs><g stroke-linejoin="miter" stroke-opacity="1.0" fill-opacity="0.0" stroke="rgb(0,0,0)" stroke-width="0.9999999999999997" fill="rgb(0,0,0)" stroke-linecap="butt" stroke-miterlimit="10.0"><path d="M 219.6626,550.0000 v -5.0000 "/></g><defs></defs><g stroke-linejoin="miter" stroke-opacity="1.0" fill-opacity="0.0" stroke="rgb(0,0,0)" stroke-width="0.9999999999999997" fill="rgb(0,0,0)" stroke-linecap="butt" stroke-miterlimit="10.0"><path d="M 406.5100,550.0000 v -5.0000 "/></g><defs></defs><g stroke-linejoin="miter" stroke-opacity="1.0" fill-opacity="0.0" stroke="rgb(0,0,0)" stroke-width="0.9999999999999997" fill="rgb(0,0,0)" stroke-linecap="butt" stroke-miterlimit="10.0"><path d="M 593.3574,550.0000 v -5.0000 "/></g><defs></defs><g stroke-linejoin="miter" stroke-opacity="1.0" fill-opacity="0.0" stroke="rgb(0,0,0)" stroke-width="0.9999999999999997" fill="rgb(0,0,0)" stroke-linecap="butt" stroke-miterlimit="10.0"><path d="M 780.2048,550.0000 v -5.0000 "/></g><defs></defs><g stroke-linejoin="bevel" stroke-opacity="0.0" fill-opacity="1.0" stroke="rgb(0,0,0)" stroke-width="0.0" fill="rgb(0,0,0)" stroke-linecap="butt" stroke-miterlimit="10.0"><path d="M 30.6670,570.0000 ZM 33.2826,570.1261 c -1.0189,-0.0000 -1.5861,-0.9034 -1.5861 -0.9034c -0.5672,-0.9034 -0.5672,-2.5945 -0.5672 -2.5945c 0.0000,-1.6912 0.5672,-2.5735 0.5672 -2.5735c 0.5672,-0.8824 1.5861,-0.8824 1.5861 -0.8824c 1.0084,0.0000 1.5756,0.8824 1.5756 0.8824c 0.5672,0.8824 0.5672,2.5735 0.5672 2.5735c 0.0000,1.6912 -0.5672,2.5945 -0.5672 2.5945c -0.5672,0.9034 -1.5756,0.9034 -1.5756 0.9034ZM 33.2826,570.1261 ZM 33.2826,569.4328 c 0.2941,0.0000 0.5305,-0.1628 0.5305 -0.1628c 0.2363,-0.1628 0.4097,-0.5042 0.4097 -0.5042c 0.1733,-0.3414 0.2679,-0.8718 0.2679 -0.8718c 0.0945,-0.5305 0.0945,-1.2658 0.0945 -1.2658c 0.0000,-0.7353 -0.0945,-1.2605 -0.0945 -1.2605c -0.0945,-0.5252 -0.2679,-0.8561 -0.2679 -0.8561c -0.1733,-0.3309 -0.4097,-0.4884 -0.4097 -0.4884c -0.2363,-0.1576 -0.5305,-0.1576 -0.5305 -0.1576c -0.2941,-0.0000 -0.5357,0.1576 -0.5357 0.1576c -0.2416,0.1576 -0.4149,0.4884 -0.4149 0.4884c -0.1733,0.3309 -0.2679,0.8561 -0.2679 0.8561c -0.0945,0.5252 -0.0945,1.2605 -0.0945 1.2605c 0.0000,1.4706 0.3624,2.1376 0.3624 2.1376c 0.3624,0.6670 0.9506,0.6670 0.9506 0.6670Z"/></g><defs></defs><g stroke-linejoin="bevel" stroke-opacity="0.0" fill-opacity="1.0" stroke="rgb(0,0,0)" stroke-width="0.0" fill="rgb(0,0,0)" stroke-linecap="butt" stroke-miterlimit="10.0"><path d="M 212.2518,570.0000 ZM 212.6720,569.4853 c 0.7563,-0.7563 1.3445,-1.3655 1.3445 -1.3655c 0.5882,-0.6092 0.9874,-1.1292 0.9874 -1.1292c 0.3992,-0.5200 0.6092,-0.9559 0.6092 -0.9559c 0.2101,-0.4359 0.2101,-0.8456 0.2101 -0.8456c 0.0000,-0.5777 -0.3151,-0.9454 -0.3151 -0.9454c -0.3151,-0.3676 -0.9559,-0.3676 -0.9559 -0.3676c -0.4202,-0.0000 -0.7773,0.2363 -0.7773 0.2363c -0.3571,0.2363 -0.6513,0.5725 -0.6513 0.5725l -0.4937,-0.4937 c 0.4202,-0.4622 0.8929,-0.7405 0.8929 -0.7405c 0.4727,-0.2784 1.1345,-0.2784 1.1345 -0.2784c 0.9349,0.0000 1.4706,0.5410 1.4706 0.5410c 0.5357,0.5410 0.5357,1.4338 0.5357 1.4338c 0.0000,0.4727 -0.2048,0.9506 -0.2048 0.9506c -0.2048,0.4779 -0.5672,0.9874 -0.5672 0.9874c -0.3624,0.5095 -0.8613,1.0609 -0.8613 1.0609c -0.4989,0.5515 -1.0977,1.1712 -1.0977 1.1712c 0.2731,-0.0210 0.5672,-0.0420 0.5672 -0.0420c 0.2941,-0.0210 0.5567,-0.0210 0.5567 -0.0210h 1.9433 v 0.7458 h -4.3277 v -0.5147 ZM 217.4724,570.0000 ZM 218.1552,568.6450 c 0.2941,0.3046 0.6985,0.5357 0.6985 0.5357c 0.4044,0.2311 0.9926,0.2311 0.9926 0.2311c 0.3046,0.0000 0.5725,-0.1103 0.5725 -0.1103c 0.2679,-0.1103 0.4674,-0.3099 0.4674 -0.3099c 0.1996,-0.1996 0.3151,-0.4832 0.3151 -0.4832c 0.1155,-0.2836 0.1155,-0.6303 0.1155 -0.6303c 0.0000,-0.6933 -0.3887,-1.0819 -0.3887 -1.0819c -0.3887,-0.3887 -1.0399,-0.3887 -1.0399 -0.3887c -0.3466,-0.0000 -0.5935,0.1050 -0.5935 0.1050c -0.2468,0.1050 -0.5515,0.3046 -0.5515 0.3046l -0.4622,-0.2941 l 0.2206,-3.2248 h 3.3508 v 0.7458 h -2.5945 l -0.1786,1.9853 c 0.2416,-0.1261 0.4832,-0.1996 0.4832 -0.1996c 0.2416,-0.0735 0.5462,-0.0735 0.5462 -0.0735c 0.4307,0.0000 0.8088,0.1261 0.8088 0.1261c 0.3782,0.1261 0.6618,0.3834 0.6618 0.3834c 0.2836,0.2574 0.4464,0.6513 0.4464 0.6513c 0.1628,0.3939 0.1628,0.9401 0.1628 0.9401c 0.0000,0.5462 -0.1891,0.9664 -0.1891 0.9664c -0.1891,0.4202 -0.5042,0.7090 -0.5042 0.7090c -0.3151,0.2889 -0.7195,0.4412 -0.7195 0.4412c -0.4044,0.1523 -0.8456,0.1523 -0.8456 0.1523c -0.3992,-0.0000 -0.7300,-0.0788 -0.7300 -0.0788c -0.3309,-0.0788 -0.5987,-0.2048 -0.5987 -0.2048c -0.2679,-0.1261 -0.4832,-0.2889 -0.4832 -0.2889c -0.2153,-0.1628 -0.3834,-0.3414 -0.3834 -0.3414ZM 222.6930,570.0000 ZM 225.3086,570.1261 c -1.0189,-0.0000 -1.5861,-0.9034 -1.5861 -0.9034c -0.5672,-0.9034 -0.5672,-2.5945 -0.5672 -2.5945c 0.0000,-1.6912 0.5672,-2.5735 0.5672 -2.5735c 0.5672,-0.8824 1.5861,-0.8824 1.5861 -0.8824c 1.0084,0.0000 1.5756,0.8824 1.5756 0.8824c 0.5672,0.8824 0.5672,2.5735 0.5672 2.5735c 0.0000,1.6912 -0.5672,2.5945 -0.5672 2.5945c -0.5672,0.9034 -1.5756,0.9034 -1.5756 0.9034ZM 225.3086,570.1261 ZM 225.3086,569.4328 c 0.2941,0.0000 0.5305,-0.1628 0.5305 -0.1628c 0.2363,-0.1628 0.4097,-0.5042 0.4097 -0.5042c 0.1733,-0.3414 0.2679,-0.8718 0.2679 -0.8718c 0.0945,-0.5305 0.0945,-1.2658 0.0945 -1.2658c 0.0000,-0.7353 -0.0945,-1.2605 -0.0945 -1.2605c -0.0945,-0.5252 -0.2679,-0.8561 -0.2679 -0.8561c -0.1733,-0.3309 -0.4097,-0.4884 -0.4097 -0.4884c -0.2363,-0.1576 -0.5305,-0.1576 -0.5305 -0.1576c -0.2941,-0.0000 -0.5357,0.1576 -0.5357 0.1576c -0.2416,0.1576 -0.4149,0.4884 -0.4149 0.4884c -0.1733,0.3309 -0.2679,0.8561 -0.2679 0.8561c -0.0945,0.5252 -0.0945,1.2605 -0.0945 1.2605c 0.0000,1.4706 0.3624,2.1376 0.3624 2.1376c 0.3624,0.6670 0.9506,0.6670 0.9506 0.6670Z"/></g><defs></defs><g stroke-linejoin="bevel" stroke-opacity="0.0" fill-opacity="1.0" stroke="rgb(0,0,0)" stroke-width="0.0" fill="rgb(0,0,0)" stroke-linecap="butt" stroke-miterlimit="10.0"><path d="M 399.0415,570.0000 ZM 399.7243,568.6450 c 0.2941,0.3046 0.6985,0.5357 0.6985 0.5357c 0.4044,0.2311 0.9926,0.2311 0.9926 0.2311c 0.3046,0.0000 0.5725,-0.1103 0.5725 -0.1103c 0.2679,-0.1103 0.4674,-0.3099 0.4674 -0.3099c 0.1996,-0.1996 0.3151,-0.4832 0.3151 -0.4832c 0.1155,-0.2836 0.1155,-0.6303 0.1155 -0.6303c 0.0000,-0.6933 -0.3887,-1.0819 -0.3887 -1.0819c -0.3887,-0.3887 -1.0399,-0.3887 -1.0399 -0.3887c -0.3466,-0.0000 -0.5935,0.1050 -0.5935 0.1050c -0.2468,0.1050 -0.5515,0.3046 -0.5515 0.3046l -0.4622,-0.2941 l 0.2206,-3.2248 h 3.3508 v 0.7458 h -2.5945 l -0.1786,1.9853 c 0.2416,-0.1261 0.4832,-0.1996 0.4832 -0.1996c 0.2416,-0.0735 0.5462,-0.0735 0.5462 -0.0735c 0.4307,0.0000 0.8088,0.1261 0.8088 0.1261c 0.3782,0.1261 0.6618,0.3834 0.6618 0.3834c 0.2836,0.2574 0.4464,0.6513 0.4464 0.6513c 0.1628,0.3939 0.1628,0.9401 0.1628 0.9401c 0.0000,0.5462 -0.1891,0.9664 -0.1891 0.9664c -0.1891,0.4202 -0.5042,0.7090 -0.5042 0.7090c -0.3151,0.2889 -0.7195,0.4412 -0.7195 0.4412c -0.4044,0.1523 -0.8456,0.1523 -0.8456 0.1523c -0.3992,-0.0000 -0.7300,-0.0788 -0.7300 -0.0788c -0.3309,-0.0788 -0.5987,-0.2048 -0.5987 -0.2048c -0.2679,-0.1261 -0.4832,-0.2889 -0.4832 -0.2889c -0.2153,-0.1628 -0.3834,-0.3414 -0.3834 -0.3414ZM 404.2621,570.0000 ZM 406.8776,570.1261 c -1.0189,-0.0000 -1.5861,-0.9034 -1.5861 -0.9034c -0.5672,-0.9034 -0.5672,-2.5945 -0.5672 -2.5945c 0.0000,-1.6912 0.5672,-2.5735 0.5672 -2.5735c 0.5672,-0.8824 1.5861,-0.8824 1.5861 -0.8824c 1.0084,0.0000 1.5756,0.8824 1.5756 0.8824c 0.5672,0.8824 0.5672,2.5735 0.5672 2.5735c 0.0000,1.6912 -0.5672,2.5945 -0.5672 2.5945c -0.5672,0.9034 -1.5756,0.9034 -1.5756 0.9034ZM 406.8776,570.1261 ZM 406.8776,569.4328 c 0.2941,0.0000 0.5305,-0.1628 0.5305 -0.1628c 0.2363,-0.1628 0.4097,-0.5042 0.4097 -0.5042c 0.1733,-0.3414 0.2679,-0.8718 0.2679 -0.8718c 0.0945,-0.5305 0.0945,-1.2658 0.0945 -1.2658c 0.0000,-0.7353 -0.0945,-1.2605 -0.0945 -1.2605c -0.0945,-0.5252 -0.2679,-0.8561 -0.2679 -0.8561c -0.1733,-0.3309 -0.4097,-0.4884 -0.4097 -0.4884c -0.2363,-0.1576 -0.5305,-0.1576 -0.5305 -0.1576c -0.2941,-0.0000 -0.5357,0.1576 -0.5357 0.1576c -0.2416,0.1576 -0.4149,0.4884 -0.4149 0.4884c -0.1733,0.3309 -0.2679,0.8561 -0.2679 0.8561c -0.0945,0.5252 -0.0945,1.2605 -0.0945 1.2605c 0.0000,1.4706 0.3624,2.1376 0.3624 2.1376c 0.3624,0.6670 0.9506,0.6670 0.9506 0.6670ZM 409.4827,570.0000 ZM 412.0982,570.1261 c -1.0189,-0.0000 -1.5861,-0.9034 -1.5861 -0.9034c -0.5672,-0.9034 -0.5672,-2.5945 -0.5672 -2.5945c 0.0000,-1.6912 0.5672,-2.5735 0.5672 -2.5735c 0.5672,-0.8824 1.5861,-0.8824 1.5861 -0.8824c 1.0084,0.0000 1.5756,0.8824 1.5756 0.8824c 0.5672,0.8824 0.5672,2.5735 0.5672 2.5735c 0.0000,1.6912 -0.5672,2.5945 -0.5672 2.5945c -0.5672,0.9034 -1.5756,0.9034 -1.5756 0.9034ZM 412.0982,570.1261 ZM 412.0982,569.4328 c 0.2941,0.0000 0.5305,-0.1628 0.5305 -0.1628c 0.2363,-0.1628 0.4097,-0.5042 0.4097 -0.5042c 0.1733,-0.3414 0.2679,-0.8718 0.2679 -0.8718c 0.0945,-0.5305 0.0945,-1.2658 0.0945 -1.2658c 0.0000,-0.7353 -0.0945,-1.2605 -0.0945 -1.2605c -0.0945,-0.5252 -0.2679,-0.8561 -0.2679 -0.8561c -0.1733,-0.3309 -0.4097,-0.4884 -0.4097 -0.4884c -0.2363,-0.1576 -0.5305,-0.1576 -0.5305 -0.1576c -0.2941,-0.0000 -0.5357,0.1576 -0.5357 0.1576c -0.2416,0.1576 -0.4149,0.4884 -0.4149 0.4884c -0.1733,0.3309 -0.2679,0.8561 -0.2679 0.8561c -0.0945,0.5252 -0.0945,1.2605 -0.0945 1.2605c 0.0000,1.4706 0.3624,2.1376 0.3624 2.1376c 0.3624,0.6670 0.9506,0.6670 0.9506 0.6670Z"/></g><defs></defs><g stroke-linejoin="bevel" stroke-opacity="0.0" fill-opacity="1.0" stroke="rgb(0,0,0)" stroke-width="0.0" fill="rgb(0,0,0)" stroke-linecap="butt" stroke-miterlimit="10.0"><path d="M 585.9887,570.0000 ZM 587.8480,570.0000 c 0.0420,-0.9454 0.1681,-1.7332 0.1681 -1.7332c 0.1261,-0.7878 0.3519,-1.4968 0.3519 -1.4968c 0.2258,-0.7090 0.5777,-1.3708 0.5777 -1.3708c 0.3519,-0.6618 0.8456,-1.3550 0.8456 -1.3550h -3.3403 v -0.7458 h 4.3172 v 0.5357 c -0.5987,0.7563 -0.9716,1.4496 -0.9716 1.4496c -0.3729,0.6933 -0.5935,1.4128 -0.5935 1.4128c -0.2206,0.7195 -0.3204,1.5231 -0.3204 1.5231c -0.0998,0.8036 -0.1418,1.7805 -0.1418 1.7805h -0.8929 h 0.0000 ZM 591.2093,570.0000 ZM 591.8921,568.6450 c 0.2941,0.3046 0.6985,0.5357 0.6985 0.5357c 0.4044,0.2311 0.9926,0.2311 0.9926 0.2311c 0.3046,0.0000 0.5725,-0.1103 0.5725 -0.1103c 0.2679,-0.1103 0.4674,-0.3099 0.4674 -0.3099c 0.1996,-0.1996 0.3151,-0.4832 0.3151 -0.4832c 0.1155,-0.2836 0.1155,-0.6303 0.1155 -0.6303c 0.0000,-0.6933 -0.3887,-1.0819 -0.3887 -1.0819c -0.3887,-0.3887 -1.0399,-0.3887 -1.0399 -0.3887c -0.3466,-0.0000 -0.5935,0.1050 -0.5935 0.1050c -0.2468,0.1050 -0.5515,0.3046 -0.5515 0.3046l -0.4622,-0.2941 l 0.2206,-3.2248 h 3.3508 v 0.7458 h -2.5945 l -0.1786,1.9853 c 0.2416,-0.1261 0.4832,-0.1996 0.4832 -0.1996c 0.2416,-0.0735 0.5462,-0.0735 0.5462 -0.0735c 0.4307,0.0000 0.8088,0.1261 0.8088 0.1261c 0.3782,0.1261 0.6618,0.3834 0.6618 0.3834c 0.2836,0.2574 0.4464,0.6513 0.4464 0.6513c 0.1628,0.3939 0.1628,0.9401 0.1628 0.9401c 0.0000,0.5462 -0.1891,0.9664 -0.1891 0.9664c -0.1891,0.4202 -0.5042,0.7090 -0.5042 0.7090c -0.3151,0.2889 -0.7195,0.4412 -0.7195 0.4412c -0.4044,0.1523 -0.8456,0.1523 -0.8456 0.1523c -0.3992,-0.0000 -0.7300,-0.0788 -0.7300 -0.0788c -0.3309,-0.0788 -0.5987,-0.2048 -0.5987 -0.2048c -0.2679,-0.1261 -0.4832,-0.2889 -0.4832 -0.2889c -0.2153,-0.1628 -0.3834,-0.3414 -0.3834 -0.3414ZM 596.4299,570.0000 ZM 599.0454,570.1261 c -1.0189,-0.0000 -1.5861,-0.9034 -1.5861 -0.9034c -0.5672,-0.9034 -0.5672,-2.5945 -0.5672 -2.5945c 0.0000,-1.6912 0.5672,-2.5735 0.5672 -2.5735c 0.5672,-0.8824 1.5861,-0.8824 1.5861 -0.8824c 1.0084,0.0000 1.5756,0.8824 1.5756 0.8824c 0.5672,0.8824 0.5672,2.5735 0.5672 2.5735c 0.0000,1.6912 -0.5672,2.5945 -0.5672 2.5945c -0.5672,0.9034 -1.5756,0.9034 -1.5756 0.9034ZM 599.0454,570.1261 ZM 599.0454,569.4328 c 0.2941,0.0000 0.5305,-0.1628 0.5305 -0.1628c 0.2363,-0.1628 0.4097,-0.5042 0.4097 -0.5042c 0.1733,-0.3414 0.2679,-0.8718 0.2679 -0.8718c 0.0945,-0.5305 0.0945,-1.2658 0.0945 -1.2658c 0.0000,-0.7353 -0.0945,-1.2605 -0.0945 -1.2605c -0.0945,-0.5252 -0.2679,-0.8561 -0.2679 -0.8561c -0.1733,-0.3309 -0.4097,-0.4884 -0.4097 -0.4884c -0.2363,-0.1576 -0.5305,-0.1576 -0.5305 -0.1576c -0.2941,-0.0000 -0.5357,0.1576 -0.5357 0.1576c -0.2416,0.1576 -0.4149,0.4884 -0.4149 0.4884c -0.1733,0.3309 -0.2679,0.8561 -0.2679 0.8561c -0.0945,0.5252 -0.0945,1.2605 -0.0945 1.2605c 0.0000,1.4706 0.3624,2.1376 0.3624 2.1376c 0.3624,0.6670 0.9506,0.6670 0.9506 0.6670Z"/></g><defs></defs><g stroke-linejoin="bevel" stroke-opacity="0.0" fill-opacity="1.0" stroke="rgb(0,0,0)" stroke-width="0.0" fill="rgb(0,0,0)" stroke-linecap="butt" stroke-miterlimit="10.0"><path d="M 770.4097,570.0000 ZM 771.2395,569.2857 h 1.5336 v -4.9370 h -1.2185 v -0.5567 c 0.4622,-0.0840 0.8036,-0.2048 0.8036 -0.2048c 0.3414,-0.1208 0.6145,-0.2889 0.6145 -0.2889h 0.6618 v 5.9874 h 1.3866 v 0.7143 h -3.7815 v -0.7143 ZM 775.6303,570.0000 ZM 778.2458,570.1261 c -1.0189,-0.0000 -1.5861,-0.9034 -1.5861 -0.9034c -0.5672,-0.9034 -0.5672,-2.5945 -0.5672 -2.5945c 0.0000,-1.6912 0.5672,-2.5735 0.5672 -2.5735c 0.5672,-0.8824 1.5861,-0.8824 1.5861 -0.8824c 1.0084,0.0000 1.5756,0.8824 1.5756 0.8824c 0.5672,0.8824 0.5672,2.5735 0.5672 2.5735c 0.0000,1.6912 -0.5672,2.5945 -0.5672 2.5945c -0.5672,0.9034 -1.5756,0.9034 -1.5756 0.9034ZM 778.2458,570.1261 ZM 778.2458,569.4328 c 0.2941,0.0000 0.5305,-0.1628 0.5305 -0.1628c 0.2363,-0.1628 0.4097,-0.5042 0.4097 -0.5042c 0.1733,-0.3414 0.2679,-0.8718 0.2679 -0.8718c 0.0945,-0.5305 0.0945,-1.2658 0.0945 -1.2658c 0.0000,-0.7353 -0.0945,-1.2605 -0.0945 -1.2605c -0.0945,-0.5252 -0.2679,-0.8561 -0.2679 -0.8561c -0.1733,-0.3309 -0.4097,-0.4884 -0.4097 -0.4884c -0.2363,-0.1576 -0.5305,-0.1576 -0.5305 -0.1576c -0.2941,-0.0000 -0.5357,0.1576 -0.5357 0.1576c -0.2416,0.1576 -0.4149,0.4884 -0.4149 0.4884c -0.1733,0.3309 -0.2679,0.8561 -0.2679 0.8561c -0.0945,0.5252 -0.0945,1.2605 -0.0945 1.2605c 0.0000,1.4706 0.3624,2.1376 0.3624 2.1376c 0.3624,0.6670 0.9506,0.6670 0.9506 0.6670ZM 780.8508,570.0000 ZM 783.4664,570.1261 c -1.0189,-0.0000 -1.5861,-0.9034 -1.5861 -0.9034c -0.5672,-0.9034 -0.5672,-2.5945 -0.5672 -2.5945c 0.0000,-1.6912 0.5672,-2.5735 0.5672 -2.5735c 0.5672,-0.8824 1.5861,-0.8824 1.5861 -0.8824c 1.0084,0.0000 1.5756,0.8824 1.5756 0.8824c 0.5672,0.8824 0.5672,2.5735 0.5672 2.5735c 0.0000,1.6912 -0.5672,2.5945 -0.5672 2.5945c -0.5672,0.9034 -1.5756,0.9034 -1.5756 0.9034ZM 783.4664,570.1261 ZM 783.4664,569.4328 c 0.2941,0.0000 0.5305,-0.1628 0.5305 -0.1628c 0.2363,-0.1628 0.4097,-0.5042 0.4097 -0.5042c 0.1733,-0.3414 0.2679,-0.8718 0.2679 -0.8718c 0.0945,-0.5305 0.0945,-1.2658 0.0945 -1.2658c 0.0000,-0.7353 -0.0945,-1.2605 -0.0945 -1.2605c -0.0945,-0.5252 -0.2679,-0.8561 -0.2679 -0.8561c -0.1733,-0.3309 -0.4097,-0.4884 -0.4097 -0.4884c -0.2363,-0.1576 -0.5305,-0.1576 -0.5305 -0.1576c -0.2941,-0.0000 -0.5357,0.1576 -0.5357 0.1576c -0.2416,0.1576 -0.4149,0.4884 -0.4149 0.4884c -0.1733,0.3309 -0.2679,0.8561 -0.2679 0.8561c -0.0945,0.5252 -0.0945,1.2605 -0.0945 1.2605c 0.0000,1.4706 0.3624,2.1376 0.3624 2.1376c 0.3624,0.6670 0.9506,0.6670 0.9506 0.6670ZM 786.0714,570.0000 ZM 788.6870,570.1261 c -1.0189,-0.0000 -1.5861,-0.9034 -1.5861 -0.9034c -0.5672,-0.9034 -0.5672,-2.5945 -0.5672 -2.5945c 0.0000,-1.6912 0.5672,-2.5735 0.5672 -2.5735c 0.5672,-0.8824 1.5861,-0.8824 1.5861 -0.8824c 1.0084,0.0000 1.5756,0.8824 1.5756 0.8824c 0.5672,0.8824 0.5672,2.5735 0.5672 2.5735c 0.0000,1.6912 -0.5672,2.5945 -0.5672 2.5945c -0.5672,0.9034 -1.5756,0.9034 -1.5756 0.9034ZM 788.6870,570.1261 ZM 788.6870,569.4328 c 0.2941,0.0000 0.5305,-0.1628 0.5305 -0.1628c 0.2363,-0.1628 0.4097,-0.5042 0.4097 -0.5042c 0.1733,-0.3414 0.2679,-0.8718 0.2679 -0.8718c 0.0945,-0.5305 0.0945,-1.2658 0.0945 -1.2658c 0.0000,-0.7353 -0.0945,-1.2605 -0.0945 -1.2605c -0.0945,-0.5252 -0.2679,-0.8561 -0.2679 -0.8561c -0.1733,-0.3309 -0.4097,-0.4884 -0.4097 -0.4884c -0.2363,-0.1576 -0.5305,-0.1576 -0.5305 -0.1576c -0.2941,-0.0000 -0.5357,0.1576 -0.5357 0.1576c -0.2416,0.1576 -0.4149,0.4884 -0.4149 0.4884c -0.1733,0.3309 -0.2679,0.8561 -0.2679 0.8561c -0.0945,0.5252 -0.0945,1.2605 -0.0945 1.2605c 0.0000,1.4706 0.3624,2.1376 0.3624 2.1376c 0.3624,0.6670 0.9506,0.6670 0.9506 0.6670Z"/></g><defs></defs><g stroke-linejoin="round" stroke-opacity="1.0" fill-opacity="0.0" stroke="rgb(0,0,255)" stroke-width="0.9999999999999997" fill="rgb(0,0,0)" stroke-linecap="round" stroke-miterlimit="10.0"><path d="M 10.0000,585.0000 h 20.0000 "/></g><defs></defs><g stroke-linejoin="bevel" stroke-opacity="0.0" fill-opacity="1.0" stroke="rgb(0,0,0)" stroke-width="0.0" fill="rgb(0,0,0)" stroke-linecap="butt" stroke-miterlimit="10.0"><path d="M 35.0735,586.6071 ZM 38.2353,579.8319 c -0.2836,-0.1261 -0.5777,-0.1261 -0.5777 -0.1261c -0.7143,-0.0000 -0.7143,0.9874 -0.7143 0.9874v 0.8088 h 1.0819 v 0.7038 h -1.0819 v 4.4013 h -0.8613 v -4.4013 h -0.6933 v -0.6513 l 0.6933,-0.0525 v -0.8088 c 0.0000,-0.7878 0.3624,-1.2395 0.3624 -1.2395c 0.3624,-0.4517 1.1292,-0.4517 1.1292 -0.4517c 0.2416,0.0000 0.4569,0.0473 0.4569 0.0473c 0.2153,0.0473 0.3939,0.1208 0.3939 0.1208ZM 38.1408,586.6071 ZM 39.0021,581.5021 h 0.7143 l 0.0735,0.9244 h 0.0315 c 0.2626,-0.4832 0.6355,-0.7668 0.6355 -0.7668c 0.3729,-0.2836 0.8141,-0.2836 0.8141 -0.2836c 0.3046,0.0000 0.5462,0.1050 0.5462 0.1050l -0.1681,0.7563 c -0.1261,-0.0420 -0.2311,-0.0630 -0.2311 -0.0630c -0.1050,-0.0210 -0.2626,-0.0210 -0.2626 -0.0210c -0.3256,-0.0000 -0.6775,0.2626 -0.6775 0.2626c -0.3519,0.2626 -0.6145,0.9139 -0.6145 0.9139v 3.2773 h -0.8613 v -5.1050 ZM 41.6807,586.6071 ZM 42.1639,584.0651 c 0.0000,-0.6303 0.1943,-1.1292 0.1943 -1.1292c 0.1943,-0.4989 0.5147,-0.8456 0.5147 -0.8456c 0.3204,-0.3466 0.7300,-0.5305 0.7300 -0.5305c 0.4097,-0.1838 0.8508,-0.1838 0.8508 -0.1838c 0.4832,0.0000 0.8666,0.1681 0.8666 0.1681c 0.3834,0.1681 0.6408,0.4832 0.6408 0.4832c 0.2574,0.3151 0.3939,0.7563 0.3939 0.7563c 0.1366,0.4412 0.1366,0.9874 0.1366 0.9874c 0.0000,0.2836 -0.0315,0.4727 -0.0315 0.4727h -3.4454 c 0.0525,0.8298 0.5095,1.3130 0.5095 1.3130c 0.4569,0.4832 1.1922,0.4832 1.1922 0.4832c 0.3676,0.0000 0.6775,-0.1103 0.6775 -0.1103c 0.3099,-0.1103 0.5935,-0.2889 0.5935 -0.2889l 0.3046,0.5672 c -0.3361,0.2101 -0.7458,0.3676 -0.7458 0.3676c -0.4097,0.1576 -0.9349,0.1576 -0.9349 0.1576c -0.5147,-0.0000 -0.9611,-0.1838 -0.9611 -0.1838c -0.4464,-0.1838 -0.7773,-0.5252 -0.7773 -0.5252c -0.3309,-0.3414 -0.5200,-0.8351 -0.5200 -0.8351c -0.1891,-0.4937 -0.1891,-1.1239 -0.1891 -1.1239ZM 42.1639,584.0651 ZM 45.7353,583.6765 c 0.0000,-0.7878 -0.3309,-1.2027 -0.3309 -1.2027c -0.3309,-0.4149 -0.9296,-0.4149 -0.9296 -0.4149c -0.2731,-0.0000 -0.5200,0.1103 -0.5200 0.1103c -0.2468,0.1103 -0.4464,0.3151 -0.4464 0.3151c -0.1996,0.2048 -0.3309,0.5042 -0.3309 0.5042c -0.1313,0.2994 -0.1733,0.6880 -0.1733 0.6880h 2.7311 ZM 46.8908,586.6071 ZM 47.3845,584.0651 c 0.0000,-0.6197 0.1838,-1.1187 0.1838 -1.1187c 0.1838,-0.4989 0.4884,-0.8456 0.4884 -0.8456c 0.3046,-0.3466 0.7038,-0.5357 0.7038 -0.5357c 0.3992,-0.1891 0.8403,-0.1891 0.8403 -0.1891c 0.4412,0.0000 0.7773,0.1523 0.7773 0.1523c 0.3361,0.1523 0.6828,0.4569 0.6828 0.4569h 0.0210 l 0.0840,-0.4832 h 0.6933 v 7.2584 h -0.8718 v -1.8172 l 0.0420,-0.9034 c -0.3046,0.2836 -0.6985,0.4884 -0.6985 0.4884c -0.3939,0.2048 -0.8351,0.2048 -0.8351 0.2048c -0.9664,-0.0000 -1.5389,-0.6933 -1.5389 -0.6933c -0.5725,-0.6933 -0.5725,-1.9748 -0.5725 -1.9748ZM 47.3845,584.0651 ZM 48.2773,584.0546 c 0.0000,0.9244 0.3676,1.4391 0.3676 1.4391c 0.3676,0.5147 1.0399,0.5147 1.0399 0.5147c 0.3571,0.0000 0.6723,-0.1733 0.6723 -0.1733c 0.3151,-0.1733 0.6303,-0.5305 0.6303 -0.5305v -2.6681 c -0.3256,-0.2941 -0.6250,-0.4149 -0.6250 -0.4149c -0.2994,-0.1208 -0.6145,-0.1208 -0.6145 -0.1208c -0.3046,-0.0000 -0.5725,0.1418 -0.5725 0.1418c -0.2679,0.1418 -0.4674,0.3992 -0.4674 0.3992c -0.1996,0.2574 -0.3151,0.6145 -0.3151 0.6145c -0.1155,0.3571 -0.1155,0.7983 -0.1155 0.7983ZM 52.6681,586.6071 ZM 53.4559,581.5021 h 0.8718 v 3.1197 c 0.0000,0.7248 0.2258,1.0452 0.2258 1.0452c 0.2258,0.3204 0.7300,0.3204 0.7300 0.3204c 0.3992,0.0000 0.7038,-0.2048 0.7038 -0.2048c 0.3046,-0.2048 0.6723,-0.6565 0.6723 -0.6565v -3.6239 h 0.8613 v 5.1050 h -0.7143 l -0.0735,-0.7983 h -0.0315 c -0.3571,0.4202 -0.7511,0.6723 -0.7511 0.6723c -0.3939,0.2521 -0.9296,0.2521 -0.9296 0.2521c -0.8193,-0.0000 -1.1922,-0.5042 -1.1922 -0.5042c -0.3729,-0.5042 -0.3729,-1.4916 -0.3729 -1.4916v -3.2353 ZM 58.3824,586.6071 ZM 58.8655,584.0651 c 0.0000,-0.6303 0.1943,-1.1292 0.1943 -1.1292c 0.1943,-0.4989 0.5147,-0.8456 0.5147 -0.8456c 0.3204,-0.3466 0.7300,-0.5305 0.7300 -0.5305c 0.4097,-0.1838 0.8508,-0.1838 0.8508 -0.1838c 0.4832,0.0000 0.8666,0.1681 0.8666 0.1681c 0.3834,0.1681 0.6408,0.4832 0.6408 0.4832c 0.2574,0.3151 0.3939,0.7563 0.3939 0.7563c 0.1366,0.4412 0.1366,0.9874 0.1366 0.9874c 0.0000,0.2836 -0.0315,0.4727 -0.0315 0.4727h -3.4454 c 0.0525,0.8298 0.5095,1.3130 0.5095 1.3130c 0.4569,0.4832 1.1922,0.4832 1.1922 0.4832c 0.3676,0.0000 0.6775,-0.1103 0.6775 -0.1103c 0.3099,-0.1103 0.5935,-0.2889 0.5935 -0.2889l 0.3046,0.5672 c -0.3361,0.2101 -0.7458,0.3676 -0.7458 0.3676c -0.4097,0.1576 -0.9349,0.1576 -0.9349 0.1576c -0.5147,-0.0000 -0.9611,-0.1838 -0.9611 -0.1838c -0.4464,-0.1838 -0.7773,-0.5252 -0.7773 -0.5252c -0.3309,-0.3414 -0.5200,-0.8351 -0.5200 -0.8351c -0.1891,-0.4937 -0.1891,-1.1239 -0.1891 -1.1239ZM 58.8655,584.0651 ZM 62.4370,583.6765 c 0.0000,-0.7878 -0.3309,-1.2027 -0.3309 -1.2027c -0.3309,-0.4149 -0.9296,-0.4149 -0.9296 -0.4149c -0.2731,-0.0000 -0.5200,0.1103 -0.5200 0.1103c -0.2468,0.1103 -0.4464,0.3151 -0.4464 0.3151c -0.1996,0.2048 -0.3309,0.5042 -0.3309 0.5042c -0.1313,0.2994 -0.1733,0.6880 -0.1733 0.6880h 2.7311 ZM 63.5924,586.6071 ZM 64.4538,581.5021 h 0.7143 l 0.0735,0.7353 h 0.0315 c 0.3676,-0.3676 0.7721,-0.6145 0.7721 -0.6145c 0.4044,-0.2468 0.9401,-0.2468 0.9401 -0.2468c 0.8088,0.0000 1.1817,0.5042 1.1817 0.5042c 0.3729,0.5042 0.3729,1.4916 0.3729 1.4916v 3.2353 h -0.8613 v -3.1197 c 0.0000,-0.7248 -0.2311,-1.0452 -0.2311 -1.0452c -0.2311,-0.3204 -0.7353,-0.3204 -0.7353 -0.3204c -0.3992,-0.0000 -0.7038,0.1996 -0.7038 0.1996c -0.3046,0.1996 -0.6933,0.5882 -0.6933 0.5882v 3.6975 h -0.8613 v -5.1050 ZM 69.3382,586.6071 ZM 69.8214,584.0651 c 0.0000,-0.6408 0.1996,-1.1397 0.1996 -1.1397c 0.1996,-0.4989 0.5357,-0.8456 0.5357 -0.8456c 0.3361,-0.3466 0.7826,-0.5252 0.7826 -0.5252c 0.4464,-0.1786 0.9401,-0.1786 0.9401 -0.1786c 0.5042,0.0000 0.8666,0.1838 0.8666 0.1838c 0.3624,0.1838 0.6250,0.4254 0.6250 0.4254l -0.4307,0.5567 c -0.2311,-0.1996 -0.4779,-0.3256 -0.4779 -0.3256c -0.2468,-0.1261 -0.5515,-0.1261 -0.5515 -0.1261c -0.3466,-0.0000 -0.6408,0.1418 -0.6408 0.1418c -0.2941,0.1418 -0.5042,0.4044 -0.5042 0.4044c -0.2101,0.2626 -0.3309,0.6250 -0.3309 0.6250c -0.1208,0.3624 -0.1208,0.8036 -0.1208 0.8036c 0.0000,0.4412 0.1155,0.7983 0.1155 0.7983c 0.1155,0.3571 0.3204,0.6145 0.3204 0.6145c 0.2048,0.2574 0.4989,0.3992 0.4989 0.3992c 0.2941,0.1418 0.6408,0.1418 0.6408 0.1418c 0.3676,0.0000 0.6670,-0.1523 0.6670 -0.1523c 0.2994,-0.1523 0.5305,-0.3624 0.5305 -0.3624l 0.3887,0.5672 c -0.3466,0.3046 -0.7721,0.4832 -0.7721 0.4832c -0.4254,0.1786 -0.8876,0.1786 -0.8876 0.1786c -0.5042,-0.0000 -0.9454,-0.1786 -0.9454 -0.1786c -0.4412,-0.1786 -0.7616,-0.5200 -0.7616 -0.5200c -0.3204,-0.3414 -0.5042,-0.8403 -0.5042 -0.8403c -0.1838,-0.4989 -0.1838,-1.1292 -0.1838 -1.1292ZM 74.1912,586.6071 ZM 74.7059,588.0147 l 0.1891,0.0473 c 0.0000,0.0000 0.1996,0.0263 0.1996 0.0263c 0.4412,0.0000 0.7195,-0.3099 0.7195 -0.3099c 0.2784,-0.3099 0.4359,-0.7826 0.4359 -0.7826l 0.1155,-0.3782 l -2.0483,-5.1155 h 0.8929 l 1.0399,2.8256 c 0.1155,0.3361 0.2468,0.7090 0.2468 0.7090c 0.1313,0.3729 0.2468,0.7300 0.2468 0.7300h 0.0420 c 0.1155,-0.3466 0.2206,-0.7248 0.2206 -0.7248c 0.1050,-0.3782 0.2101,-0.7143 0.2101 -0.7143l 0.9139,-2.8256 h 0.8403 l -1.9223,5.5252 c -0.1366,0.3782 -0.3046,0.7038 -0.3046 0.7038c -0.1681,0.3256 -0.3992,0.5620 -0.3992 0.5620c -0.2311,0.2363 -0.5252,0.3729 -0.5252 0.3729c -0.2941,0.1366 -0.6828,0.1366 -0.6828 0.1366c -0.1786,-0.0000 -0.3256,-0.0263 -0.3256 -0.0263c -0.1471,-0.0263 -0.2731,-0.0788 -0.2731 -0.0788l 0.1681,-0.6828 h 0.0000 ZM 81.2185,586.6071 ZM 81.7017,584.0651 c 0.0000,-0.6303 0.1943,-1.1292 0.1943 -1.1292c 0.1943,-0.4989 0.5147,-0.8456 0.5147 -0.8456c 0.3204,-0.3466 0.7300,-0.5305 0.7300 -0.5305c 0.4097,-0.1838 0.8508,-0.1838 0.8508 -0.1838c 0.4832,0.0000 0.8666,0.1681 0.8666 0.1681c 0.3834,0.1681 0.6408,0.4832 0.6408 0.4832c 0.2574,0.3151 0.3939,0.7563 0.3939 0.7563c 0.1366,0.4412 0.1366,0.9874 0.1366 0.9874c 0.0000,0.2836 -0.0315,0.4727 -0.0315 0.4727h -3.4454 c 0.0525,0.8298 0.5095,1.3130 0.5095 1.3130c 0.4569,0.4832 1.1922,0.4832 1.1922 0.4832c 0.3676,0.0000 0.6775,-0.1103 0.6775 -0.1103c 0.3099,-0.1103 0.5935,-0.2889 0.5935 -0.2889l 0.3046,0.5672 c -0.3361,0.2101 -0.7458,0.3676 -0.7458 0.3676c -0.4097,0.1576 -0.9349,0.1576 -0.9349 0.1576c -0.5147,-0.0000 -0.9611,-0.1838 -0.9611 -0.1838c -0.4464,-0.1838 -0.7773,-0.5252 -0.7773 -0.5252c -0.3309,-0.3414 -0.5200,-0.8351 -0.5200 -0.8351c -0.1891,-0.4937 -0.1891,-1.1239 -0.1891 -1.1239ZM 81.7017,584.0651 ZM 85.2731,583.6765 c 0.0000,-0.7878 -0.3309,-1.2027 -0.3309 -1.2027c -0.3309,-0.4149 -0.9296,-0.4149 -0.9296 -0.4149c -0.2731,-0.0000 -0.5200,0.1103 -0.5200 0.1103c -0.2468,0.1103 -0.4464,0.3151 -0.4464 0.3151c -0.1996,0.2048 -0.3309,0.5042 -0.3309 0.5042c -0.1313,0.2994 -0.1733,0.6880 -0.1733 0.6880h 2.7311 ZM 86.4286,586.6071 ZM 87.2899,581.5021 h 0.7143 l 0.0735,0.9244 h 0.0315 c 0.2626,-0.4832 0.6355,-0.7668 0.6355 -0.7668c 0.3729,-0.2836 0.8141,-0.2836 0.8141 -0.2836c 0.3046,0.0000 0.5462,0.1050 0.5462 0.1050l -0.1681,0.7563 c -0.1261,-0.0420 -0.2311,-0.0630 -0.2311 -0.0630c -0.1050,-0.0210 -0.2626,-0.0210 -0.2626 -0.0210c -0.3256,-0.0000 -0.6775,0.2626 -0.6775 0.2626c -0.3519,0.2626 -0.6145,0.9139 -0.6145 0.9139v 3.2773 h -0.8613 v -5.1050 ZM 90.0735,586.6071 ZM 90.9349,581.5021 h 0.7143 l 0.0735,0.9244 h 0.0315 c 0.2626,-0.4832 0.6355,-0.7668 0.6355 -0.7668c 0.3729,-0.2836 0.8141,-0.2836 0.8141 -0.2836c 0.3046,0.0000 0.5462,0.1050 0.5462 0.1050l -0.1681,0.7563 c -0.1261,-0.0420 -0.2311,-0.0630 -0.2311 -0.0630c -0.1050,-0.0210 -0.2626,-0.0210 -0.2626 -0.0210c -0.3256,-0.0000 -0.6775,0.2626 -0.6775 0.2626c -0.3519,0.2626 -0.6145,0.9139 -0.6145 0.9139v 3.2773 h -0.8613 v -5.1050 ZM 93.6134,586.6071 ZM 94.0966,584.0651 c 0.0000,-0.6408 0.1943,-1.1397 0.1943 -1.1397c 0.1943,-0.4989 0.5200,-0.8456 0.5200 -0.8456c 0.3256,-0.3466 0.7511,-0.5252 0.7511 -0.5252c 0.4254,-0.1786 0.8981,-0.1786 0.8981 -0.1786c 0.4727,0.0000 0.8981,0.1786 0.8981 0.1786c 0.4254,0.1786 0.7511,0.5252 0.7511 0.5252c 0.3256,0.3466 0.5200,0.8456 0.5200 0.8456c 0.1943,0.4989 0.1943,1.1397 0.1943 1.1397c 0.0000,0.6303 -0.1943,1.1292 -0.1943 1.1292c -0.1943,0.4989 -0.5200,0.8403 -0.5200 0.8403c -0.3256,0.3414 -0.7511,0.5200 -0.7511 0.5200c -0.4254,0.1786 -0.8981,0.1786 -0.8981 0.1786c -0.4727,-0.0000 -0.8981,-0.1786 -0.8981 -0.1786c -0.4254,-0.1786 -0.7511,-0.5200 -0.7511 -0.5200c -0.3256,-0.3414 -0.5200,-0.8403 -0.5200 -0.8403c -0.1943,-0.4989 -0.1943,-1.1292 -0.1943 -1.1292ZM 94.0966,584.0651 ZM 94.9895,584.0651 c 0.0000,0.4412 0.1050,0.7983 0.1050 0.7983c 0.1050,0.3571 0.2994,0.6145 0.2994 0.6145c 0.1943,0.2574 0.4674,0.3992 0.4674 0.3992c 0.2731,0.1418 0.5987,0.1418 0.5987 0.1418c 0.3256,0.0000 0.5987,-0.1418 0.5987 -0.1418c 0.2731,-0.1418 0.4674,-0.3992 0.4674 -0.3992c 0.1943,-0.2574 0.2994,-0.6145 0.2994 -0.6145c 0.1050,-0.3571 0.1050,-0.7983 0.1050 -0.7983c 0.0000,-0.4412 -0.1050,-0.8036 -0.1050 -0.8036c -0.1050,-0.3624 -0.2994,-0.6250 -0.2994 -0.6250c -0.1943,-0.2626 -0.4674,-0.4044 -0.4674 -0.4044c -0.2731,-0.1418 -0.5987,-0.1418 -0.5987 -0.1418c -0.3256,-0.0000 -0.5987,0.1418 -0.5987 0.1418c -0.2731,0.1418 -0.4674,0.4044 -0.4674 0.4044c -0.1943,0.2626 -0.2994,0.6250 -0.2994 0.6250c -0.1050,0.3624 -0.1050,0.8036 -0.1050 0.8036ZM 99.3067,586.6071 ZM 100.1681,581.5021 h 0.7143 l 0.0735,0.9244 h 0.0315 c 0.2626,-0.4832 0.6355,-0.7668 0.6355 -0.7668c 0.3729,-0.2836 0.8141,-0.2836 0.8141 -0.2836c 0.3046,0.0000 0.5462,0.1050 0.5462 0.1050l -0.1681,0.7563 c -0.1261,-0.0420 -0.2311,-0.0630 -0.2311 -0.0630c -0.1050,-0.0210 -0.2626,-0.0210 -0.2626 -0.0210c -0.3256,-0.0000 -0.6775,0.2626 -0.6775 0.2626c -0.3519,0.2626 -0.6145,0.9139 -0.6145 0.9139v 3.2773 h -0.8613 v -5.1050 Z"/></g></svg>