<?xml version="1.0" encoding="UTF-8"?>
<!DOCTYPE svg PUBLIC "-//W3C//DTD SVG 1.1//EN"
    "http://www.w3.org/Graphics/SVG/1.1/DTD/svg11.dtd"><svg xmlns="http://www.w3.org/2000/svg" height="600.0000" stroke-opacity="1" viewBox="0 0 800 600" font-size="1" width="800.0000" xmlns:xlink="http://www.w3.org/1999/xlink" stroke="rgb(0,0,0)" version="1.1"><defs></defs><defs></defs><g stroke-linejoin="bevel" stroke-opacity="0.0" fill-opacity="1.0" stroke="rgb(0,0,0)" stroke-width="0.0" fill="rgb(255,255,255)" stroke-linecap="butt" stroke-miterlimit="10.0"><path d="M 0.0000,0.0000 v 600.0000 h 800.0000 v -600.0000 Z"/></g><defs></defs><g stroke-linejoin="miter" stroke-opacity="1.0" fill-opacity="0.0" stroke="rgb(211,211,211)" stroke-width="0.9999999999999997" fill="rgb(0,0,0)" stroke-dashoffset="0.0" stroke-linecap="butt" stroke-miterlimit="10.0" stroke-dasharray="4.999999999999998,4.999999999999998"><path d="M 29.7059,15.0000 v 535.0000 "/></g><defs></defs><g stroke-linejoin="miter" stroke-opacity="1.0" fill-opacity="0.0" stroke="rgb(211,211,211)" stroke-width="0.9999999999999997" fill="rgb(0,0,0)" stroke-dashoffset="0.0" stroke-linecap="butt" stroke-miterlimit="10.0" stroke-dasharray="4.999999999999998,4.999999999999998"><path d="M 217.3306,15.0000 v 535.0000 "/></g><defs></defs><g stroke-linejoin="miter" stroke-opacity="1.0" fill-opacity="0.0" stroke="rgb(211,211,211)" stroke-width="0.9999999999999997" fill="rgb(0,0,0)" stroke-dashoffset="0.0" stroke-linecap="butt" stroke-miterlimit="10.0" stroke-dasharray="4.999999999999998,4.999999999999998"><path d="M 404.9554,15.0000 v 535.0000 "/></g><defs></defs><g stroke-linejoin="miter" stroke-opacity="1.0" fill-opacity="0.0" stroke="rgb(211,211,211)" stroke-width="0.9999999999999997" fill="rgb(0,0,0)" stroke-dashoffset="0.0" stroke-linecap="butt" stroke-miterlimit="10.0" stroke-dasharray="4.999999999999998,4.999999999999998"><path d="M 592.5801,15.0000 v 535.0000 "/></g><defs></defs><g stroke-linejoin="miter" stroke-opacity="1.0" fill-opacity="0.0" stroke="rgb(211,211,211)" stroke-width="0.9999999999999997" fill="rgb(0,0,0)" stroke-dashoffset="0.0" stroke-linecap="butt" stroke-miterlimit="10.0" stroke-dasharray="4.999999999999998,4.999999999999998"><path d="M 780.2048,15.0000 v 535.0000 "/></g><defs></defs><g stroke-linejoin="miter" stroke-opacity="1.0" fill-opacity="0.0" stroke="rgb(211,211,211)" stroke-width="0.9999999999999997" fill="rgb(0,0,0)" stroke-dashoffset="0.0" stroke-linecap="butt" stroke-miterlimit="10.0" stroke-dasharray="4.999999999999998,4.999999999999998"><path d="M 29.7059,550.0000 h 750.4989 "/></g><defs></defs><g stroke-linejoin="miter" stroke-opacity="1.0" fill-opacity="0.0" stroke="rgb(211,211,211)" stroke-width="0.9999999999999997" fill="rgb(0,0,0)" stroke-dashoffset="0.0" stroke-linecap="butt" stroke-miterlimit="10.0" stroke-dasharray="4.999999999999998,4.999999999999998"><path d="M 29.7059,473.5714 h 750.4989 "/></g><defs></defs><g stroke-linejoin="miter" stroke-opacity="1.0" fill-opacity="0.0" stroke="rgb(211,211,211)" stroke-width="0.9999999999999997" fill="rgb(0,0,0)" stroke-dashoffset="0.0" stroke-linecap="butt" stroke-miterlimit="10.0" stroke-dasharray="4.999999999999998,4.999999999999998"><path d="M 29.7059,397.1429 h 750.4989 "/></g><defs></defs><g stroke-linejoin="miter" stroke-opacity="1.0" fill-opacity="0.0" stroke="rgb(211,211,211)" stroke-width="0.9999999999999997" fill="rgb(0,0,0)" stroke-dashoffset="0.0" stroke-linecap="butt" stroke-miterlimit="10.0" stroke-dasharray="4.999999999999998,4.999999999999998"><path d="M 29.7059,320.7143 h 750.4989 "/></g><defs></defs><g stroke-linejoin="miter" stroke-opacity="1.0" fill-opacity="0.0" stroke="rgb(211,211,211)" stroke-width="0.9999999999999997" fill="rgb(0,0,0)" stroke-dashoffset="0.0" stroke-linecap="butt" stroke-miterlimit="10.0" stroke-dasharray="4.999999999999998,4.999999999999998"><path d="M 29.7059,244.2857 h 750.4989 "/></g><defs></defs><g stroke-linejoin="miter" stroke-opacity="1.0" fill-opacity="0.0" stroke="rgb(211,211,211)" stroke-width="0.9999999999999997" fill="rgb(0,0,0)" stroke-dashoffset="0.0" stroke-linecap="butt" stroke-miterlimit="10.0" stroke-dasharray="4.999999999999998,4.999999999999998"><path d="M 29.7059,167.8571 h 750.4989 "/></g><defs></defs><g stroke-linejoin="miter" stroke-opacity="1.0" fill-opacity="0.0" stroke="rgb(211,211,211)" stroke-width="0.9999999999999997" fill="rgb(0,0,0)" stroke-dashoffset="0.0" stroke-linecap="butt" stroke-miterlimit="10.0" stroke-dasharray="4.999999999999998,4.999999999999998"><path d="M 29.7059,91.4286 h 750.4989 "/></g><defs></defs><g stroke-linejoin="miter" stroke-opacity="1.0" fill-opacity="0.0" stroke="rgb(211,211,211)" stroke-width="0.9999999999999997" fill="rgb(0,0,0)" stroke-dashoffset="0.0" stroke-linecap="butt" stroke-miterlimit="10.0" stroke-dasharray="4.999999999999998,4.999999999999998"><path d="M 29.7059,15.0000 h 750.4989 "/></g><defs></defs><g stroke-linejoin="round" stroke-opacity="1.0" fill-opacity="0.0" stroke="rgb(0,0,255)" stroke-width="0.9999999999999997" fill="rgb(0,0,0)" stroke-linecap="round" stroke-miterlimit="10.0"><defs><clipPath id="myClip1"><path d="M 29.7059,15.0000 v 535.0000 h 750.4989 v -535.0000 Z"/></clipPath></defs><g clip-path="url(#myClip1)"><path d="M 30.4564,473.5714 l 0.7505,0.2067 l 0.7505,-12.4309 l 0.7505,10.0465 l 0.7505,11.9882 l 0.7505,10.8138 l 0.7505,3.0837 l 0.7505,6.4355 l 0.7505,0.2142 l 0.7505,-0.3573 l 0.7505,-10.5337 l 0.7505,4.6096 l 0.7505,-2.8112 l 0.7505,-14.2146 l 0.7505,-8.3544 l 0.7505,5.0277 l 0.7505,-2.2333 l 0.7505,-10.5940 l 0.7505,-11.7660 l 0.7505,7.6921 l 0.7505,4.0707 l 0.7505,6.9009 l 0.7505,-18.0962 l 0.7505,10.5802 l 0.7505,-0.6976 l 0.7505,-21.2210 l 0.7505,0.4309 l 0.7505,10.5832 l 0.7505,-16.8135 l 0.7505,2.0924 l 0.7505,3.3740 l 0.7505,-7.7580 l 0.7505,-3.8463 l 0.7505,-20.9682 l 0.7505,-1.3009 l 0.7505,-4.1042 l 0.7505,10.7388 l 0.7505,-1.6500 l 0.7505,-6.1929 l 0.7505,4.0957 l 0.7505,7.4944 l 0.7505,13.2018 l 0.7505,-14.3677 l 0.7505,-9.4592 l 0.7505,3.8298 l 0.7505,-0.3147 l 0.7505,-6.6845 l 0.7505,-8.7970 l 0.7505,6.9058 l 0.7505,-0.5724 l 0.7505,-11.0089 l 0.7505,-7.7448 l 0.7505,-0.1691 l 0.7505,1.9114 l 0.7505,3.0181 l 0.7505,1.0911 l 0.7505,8.7756 l 0.7505,10.4204 l 0.7505,15.2071 l 0.7505,0.1807 l 0.7505,-5.0537 l 0.7505,3.1492 l 0.7505,-4.7678 l 0.7505,-4.5621 l 0.7505,6.8219 l 0.7505,7.3231 l 0.7505,10.1268 l 0.7505,-1.4604 l 0.7505,9.8526 l 0.7505,7.5215 l 0.7505,-12.3374 l 0.7505,7.5920 l 0.7505,14.5318 l 0.7505,1.4185 l 0.7505,-0.9083 l 0.7505,-8.8077 l 0.7505,-7.7551 l 0.7505,3.9281 l 0.7505,4.7260 l 0.7505,0.1328 l 0.7505,7.9368 l 0.7505,2.7085 l 0.7505,8.5555 l 0.7505,-21.4501 l 0.7505,5.0459 l 0.7505,12.0967 l 0.7505,2.4548 l 0.7505,-4.1823 l 0.7505,-2.3023 l 0.7505,-13.0495 l 0.7505,5.1992 l 0.7505,-6.7064 l 0.7505,-2.3053 l 0.7505,-12.9739 l 0.7505,10.4208 l 0.7505,1.1010 l 0.7505,10.2862 l 0.7505,12.2756 l 0.7505,-3.9969 l 0.7505,2.0441 l 0.7505,-5.3202 l 0.7505,-11.9435 l 0.7505,5.2547 l 0.7505,-4.4464 l 0.7505,-7.7698 l 0.7505,-4.1240 l 0.7505,-6.9594 l 0.7505,12.0896 l 0.7505,-0.4201 l 0.7505,3.3267 l 0.7505,-20.3663 l 0.7505,-1.7473 l 0.7505,-2.8190 l 0.7505,22.1476 l 0.7505,-4.4895 l 0.7505,-0.0190 l 0.7505,-3.2876 l 0.7505,3.3383 l 0.7505,-3.4726 l 0.7505,3.9336 l 0.7505,5.2876 l 0.7505,-18.9163 l 0.7505,3.5991 l 0.7505,-10.7798 l 0.7505,9.4570 l 0.7505,6.3318 l 0.7505,-7.2515 l 0.7505,-12.9742 l 0.7505,-25.1882 l 0.7505,8.0468 l 0.7505,0.8979 l 0.7505,-2.6846 l 0.7505,5.2962 l 0.7505,-3.1227 l 0.7505,-2.0435 l 0.7505,8.2885 l 0.7505,-7.5498 l 0.7505,5.5841 l 0.7505,-7.8305 l 0.7505,-10.6360 l 0.7505,4.2526 l 0.7505,13.7124 l 0.7505,1.9094 l 0.7505,1.9910 l 0.7505,-9.7999 l 0.7505,-9.3529 l 0.7505,6.0314 l 0.7505,-8.5322 l 0.7505,1.8145 l 0.7505,1.0953 l 0.7505,15.9714 l 0.7505,-13.5959 l 0.7505,1.3243 l 0.7505,-26.1043 l 0.7505,-5.3540 l 0.7505,-6.3846 l 0.7505,4.7360 l 0.7505,8.1863 l 0.7505,-0.5466 l 0.7505,-2.7495 l 0.7505,-6.1027 l 0.7505,6.6452 l 0.7505,-1.1470 l 0.7505,17.1139 l 0.7505,14.6995 l 0.7505,-16.0078 l 0.7505,7.1479 l 0.7505,-2.1331 l 0.7505,-18.2415 l 0.7505,-6.1128 l 0.7505,-10.6091 l 0.7505,-14.2253 l 0.7505,-4.6480 l 0.7505,-13.3584 l 0.7505,-1.2619 l 0.7505,1.7756 l 0.7505,12.7638 l 0.7505,-0.9198 l 0.7505,11.4767 l 0.7505,7.8586 l 0.7505,-4.2544 l 0.7505,15.5100 l 0.7505,-6.3039 l 0.7505,14.0905 l 0.7505,2.9725 l 0.7505,-5.7163 l 0.7505,-18.1322 l 0.7505,-7.1100 l 0.7505,-4.0063 l 0.7505,-3.0149 l 0.7505,1.7395 l 0.7505,7.0533 l 0.7505,7.3006 l 0.7505,9.4275 l 0.7505,22.1019 l 0.7505,5.3511 l 0.7505,11.8792 l 0.7505,-0.4890 l 0.7505,3.1943 l 0.7505,-5.3947 l 0.7505,0.0043 l 0.7505,4.0115 l 0.7505,13.0739 l 0.7505,-3.7874 l 0.7505,-5.8521 l 0.7505,4.4970 l 0.7505,12.4457 l 0.7505,-1.7376 l 0.7505,-1.3923 l 0.7505,-1.7607 l 0.7505,12.6722 l 0.7505,-9.7872 l 0.7505,10.6936 l 0.7505,-1.5235 l 0.7505,2.3355 l 0.7505,-2.2407 l 0.7505,-5.6460 l 0.7505,7.5854 l 0.7505,0.4404 l 0.7505,1.8046 l 0.7505,-1.7866 l 0.7505,8.8502 l 0.7505,-0.2536 l 0.7505,0.4833 l 0.7505,-8.4840 l 0.7505,2.1023 l 0.7505,2.8387 l 0.7505,1.0275 l 0.7505,-13.2185 l 0.7505,6.3293 l 0.7505,11.9342 l 0.7505,1.2679 l 0.7505,-0.2168 l 0.7505,2.9363 l 0.7505,-13.1384 l 0.7505,2.1216 l 0.7505,-4.0663 l 0.7505,1.9639 l 0.7505,-4.9214 l 0.7505,-0.6963 l 0.7505,-3.4059 l 0.7505,0.5316 l 0.7505,-9.7078 l 0.7505,13.6757 l 0.7505,0.1469 l 0.7505,-6.8575 l 0.7505,-8.5839 l 0.7505,-3.5337 l 0.7505,12.6072 l 0.7505,1.6071 l 0.7505,11.3106 l 0.7505,-8.4884 l 0.7505,15.9883 l 0.7505,-4.8053 l 0.7505,6.4019 l 0.7505,-8.0147 l 0.7505,-16.3835 l 0.7505,9.3780 l 0.7505,-6.5438 l 0.7505,2.5230 l 0.7505,-0.8964 l 0.7505,-13.3390 l 0.7505,-14.9075 l 0.7505,-7.1087 l 0.7505,-13.5027 l 0.7505,17.4457 l 0.7505,6.5690 l 0.7505,-5.9377 l 0.7505,-9.1858 l 0.7505,-7.1604 l 0.7505,2.7374 l 0.7505,-10.7420 l 0.7505,1.9144 l 0.7505,6.9116 l 0.7505,-3.6150 l 0.7505,-8.4715 l 0.7505,-11.9079 l 0.7505,-1.2519 l 0.7505,-0.6823 l 0.7505,7.2034 l 0.7505,-2.5936 l 0.7505,9.0370 l 0.7505,-5.3817 l 0.7505,0.3978 l 0.7505,4.8346 l 0.7505,-6.0616 l 0.7505,-11.2059 l 0.7505,8.1719 l 0.7505,-15.3203 l 0.7505,-0.1161 l 0.7505,4.0914 l 0.7505,-2.7151 l 0.7505,3.4092 l 0.7505,-0.8739 l 0.7505,-3.2505 l 0.7505,-14.1167 l 0.7505,14.5482 l 0.7505,1.5969 l 0.7505,-4.9086 l 0.7505,-3.4103 l 0.7505,1.2852 l 0.7505,-1.5016 l 0.7505,11.8212 l 0.7505,9.9427 l 0.7505,4.8805 l 0.7505,7.9717 l 0.7505,8.3382 l 0.7505,-9.2290 l 0.7505,-7.2243 l 0.7505,-6.4191 l 0.7505,0.6393 l 0.7505,1.3803 l 0.7505,-7.3588 l 0.7505,-4.3857 l 0.7505,5.9503 l 0.7505,-4.5306 l 0.7505,4.7769 l 0.7505,13.5222 l 0.7505,0.8168 l 0.7505,6.6987 l 0.7505,-1.4207 l 0.7505,0.6359 l 0.7505,0.6682 l 0.7505,-3.8662 l 0.7505,12.8943 l 0.7505,-3.8242 l 0.7505,-11.9276 l 0.7505,-5.0327 l 0.7505,14.9316 l 0.7505,-0.5795 l 0.7505,7.3567 l 0.7505,0.8019 l 0.7505,-3.2677 l 0.7505,-0.3932 l 0.7505,28.6524 l 0.7505,19.1589 l 0.7505,-5.1730 l 0.7505,-10.4100 l 0.7505,-6.7944 l 0.7505,-2.5219 l 0.7505,-8.5491 l 0.7505,-2.0326 l 0.7505,10.3131 l 0.7505,-4.1955 l 0.7505,0.7131 l 0.7505,10.0029 l 0.7505,-11.3740 l 0.7505,11.7155 l 0.7505,-4.9601 l 0.7505,-3.1010 l 0.7505,9.7378 l 0.7505,5.6979 l 0.7505,10.4936 l 0.7505,-2.2659 l 0.7505,-4.0857 l 0.7505,17.5473 l 0.7505,4.7601 l 0.7505,4.3239 l 0.7505,-10.1937 l 0.7505,7.5841 l 0.7505,11.0534 l 0.7505,13.1012 l 0.7505,2.5488 l 0.7505,-17.1606 l 0.7505,0.6688 l 0.7505,-1.6165 l 0.7505,0.5095 l 0.7505,11.5528 l 0.7505,3.7071 l 0.7505,11.5453 l 0.7505,14.6860 l 0.7505,7.8124 l 0.7505,-13.5393 l 0.7505,-8.4124 l 0.7505,-2.2768 l 0.7505,5.2545 l 0.7505,2.9263 l 0.7505,-12.8263 l 0.7505,-1.1506 l 0.7505,-6.1547 l 0.7505,1.1832 l 0.7505,4.0832 l 0.7505,9.9503 l 0.7505,-15.5232 l 0.7505,-6.5967 l 0.7505,-0.9294 l 0.7505,3.6275 l 0.7505,7.4622 l 0.7505,-16.2744 l 0.7505,-10.8910 l 0.7505,-4.3975 l 0.7505,-2.2648 l 0.7505,-5.4133 l 0.7505,-8.1033 l 0.7505,-6.9923 l 0.7505,1.3625 l 0.7505,-17.4509 l 0.7505,14.8627 l 0.7505,-0.2759 l 0.7505,-8.5494 l 0.7505,-9.8355 l 0.7505,-18.0216 l 0.7505,-8.7619 l 0.7505,-0.7946 l 0.7505,6.1148 l 0.7505,4.5313 l 0.7505,-12.3716 l 0.7505,-2.2517 l 0.7505,-1.8180 l 0.7505,-6.6988 l 0.7505,3.8574 l 0.7505,-7.8143 l 0.7505,-5.1327 l 0.7505,4.1396 l 0.7505,-16.7756 l 0.7505,6.0509 l 0.7505,0.9676 l 0.7505,-18.2464 l 0.7505,-9.0926 l 0.7505,-6.0861 l 0.7505,-8.4375 l 0.7505,10.2494 l 0.7505,-2.9796 l 0.7505,-2.7779 l 0.7505,6.6562 l 0.7505,-1.8936 l 0.7505,-7.5319 l 0.7505,6.8718 l 0.7505,-18.6023 l 0.7505,-9.7754 l 0.7505,1.2956 l 0.7505,-5.3871 l 0.7505,-8.9572 l 0.7505,9.3844 l 0.7505,0.8872 l 0.7505,-14.9178 l 0.7505,-0.2985 l 0.7505,22.3022 l 0.7505,-10.4135 l 0.7505,4.7337 l 0.7505,3.9641 l 0.7505,19.4412 l 0.7505,0.2164 l 0.7505,-3.1002 l 0.7505,-6.7725 l 0.7505,4.3888 l 0.7505,8.3916 l 0.7505,-0.5989 l 0.7505,7.0313 l 0.7505,-5.8596 l 0.7505,-4.1739 l 0.7505,3.8969 l 0.7505,-13.5649 l 0.7505,-11.5477 l 0.7505,-0.1941 l 0.7505,3.7592 l 0.7505,-3.0810 l 0.7505,19.4019 l 0.7505,-13.0464 l 0.7505,-0.7816 l 0.7505,-6.7923 l 0.7505,11.2323 l 0.7505,-2.6032 l 0.7505,-2.5876 l 0.7505,5.2318 l 0.7505,5.2945 l 0.7505,-5.2846 l 0.7505,1.4052 l 0.7505,4.8614 l 0.7505,-6.9746 l 0.7505,-0.0947 l 0.7505,-1.7174 l 0.7505,-9.3343 l 0.7505,14.3183 l 0.7505,4.4570 l 0.7505,-4.2634 l 0.7505,5.2071 l 0.7505,5.2210 l 0.7505,5.6718 l 0.7505,-0.1736 l 0.7505,5.2999 l 0.7505,9.8638 l 0.7505,-15.9564 l 0.7505,-9.0034 l 0.7505,-11.4940 l 0.7505,1.0502 l 0.7505,5.7498 l 0.7505,1.6613 l 0.7505,-1.1847 l 0.7505,5.6604 l 0.7505,6.6519 l 0.7505,1.8556 l 0.7505,-0.6776 l 0.7505,-4.7925 l 0.7505,-10.4796 l 0.7505,-1.0719 l 0.7505,3.1237 l 0.7505,6.3040 l 0.7505,7.8621 l 0.7505,-8.3402 l 0.7505,-11.3918 l 0.7505,-1.3625 l 0.7505,-20.2738 l 0.7505,0.5765 l 0.7505,-8.4544 l 0.7505,1.7282 l 0.7505,7.4407 l 0.7505,6.4960 l 0.7505,10.2008 l 0.7505,-7.6191 l 0.7505,7.2800 l 0.7505,5.7216 l 0.7505,-0.5206 l 0.7505,-15.7427 l 0.7505,21.8082 l 0.7505,-5.6802 l 0.7505,4.3229 l 0.7505,7.9877 l 0.7505,-8.1994 l 0.7505,-3.7972 l 0.7505,7.7402 l 0.7505,-12.7696 l 0.7505,4.6985 l 0.7505,-5.9616 l 0.7505,2.8861 l 0.7505,9.6645 l 0.7505,6.3000 l 0.7505,-16.6986 l 0.7505,-2.4838 l 0.7505,-7.2576 l 0.7505,-2.0229 l 0.7505,1.3175 l 0.7505,4.7296 l 0.7505,-7.3782 l 0.7505,6.3197 l 0.7505,6.0228 l 0.7505,0.8616 l 0.7505,15.1627 l 0.7505,-2.0036 l 0.7505,3.5076 l 0.7505,11.7241 l 0.7505,-4.5421 l 0.7505,-1.6049 l 0.7505,9.0354 l 0.7505,-9.6639 l 0.7505,-6.1569 l 0.7505,-3.1971 l 0.7505,-4.7476 l 0.7505,10.5362 l 0.7505,-3.8487 l 0.7505,-11.8871 l 0.7505,7.2651 l 0.7505,11.6455 l 0.7505,-1.2744 l 0.7505,15.2967 l 0.7505,-3.1817 l 0.7505,-1.1002 l 0.7505,2.8477 l 0.7505,3.7045 l 0.7505,-7.8107 l 0.7505,-4.6711 l 0.7505,10.7789 l 0.7505,-0.7227 l 0.7505,-14.1605 l 0.7505,-1.3606 l 0.7505,0.0193 l 0.7505,-14.4094 l 0.7505,4.4650 l 0.7505,-1.1966 l 0.7505,12.4983 l 0.7505,3.9527 l 0.7505,-13.8353 l 0.7505,0.4679 l 0.7505,9.3944 l 0.7505,4.1423 l 0.7505,-0.9526 l 0.7505,-8.7761 l 0.7505,2.4667 l 0.7505,-3.2498 l 0.7505,-0.4012 l 0.7505,-19.5967 l 0.7505,3.0825 l 0.7505,-3.6706 l 0.7505,-11.4430 l 0.7505,0.1567 l 0.7505,1.3040 l 0.7505,-0.9317 l 0.7505,-3.7840 l 0.7505,-2.2057 l 0.7505,4.7390 l 0.7505,7.8009 l 0.7505,8.6533 l 0.7505,-2.3217 l 0.7505,-1.4337 l 0.7505,-20.4082 l 0.7505,-8.9889 l 0.7505,-0.2440 l 0.7505,8.6465 l 0.7505,-2.3437 l 0.7505,-5.9536 l 0.7505,8.6080 l 0.7505,-2.2741 l 0.7505,4.9331 l 0.7505,12.9372 l 0.7505,5.3973 l 0.7505,15.8915 l 0.7505,-3.2472 l 0.7505,-1.8886 l 0.7505,-11.4383 l 0.7505,1.3229 l 0.7505,5.0283 l 0.7505,-10.9830 l 0.7505,-8.1419 l 0.7505,-5.8643 l 0.7505,-2.1680 l 0.7505,-0.2707 l 0.7505,-11.8873 l 0.7505,-5.8978 l 0.7505,-6.5136 l 0.7505,-12.3976 l 0.7505,-0.7293 l 0.7505,-5.1964 l 0.7505,2.2816 l 0.7505,-23.2702 l 0.7505,-3.0550 l 0.7505,-8.4061 l 0.7505,3.9589 l 0.7505,-7.0058 l 0.7505,1.6306 l 0.7505,8.3521 l 0.7505,-0.1794 l 0.7505,-7.1350 l 0.7505,6.1403 l 0.7505,-2.5166 l 0.7505,-2.1708 l 0.7505,-5.1748 l 0.7505,-19.6670 l 0.7505,-3.0742 l 0.7505,-6.9613 l 0.7505,13.3286 l 0.7505,-4.4338 l 0.7505,0.9428 l 0.7505,3.4998 l 0.7505,-1.7009 l 0.7505,0.0395 l 0.7505,1.5798 l 0.7505,-11.2100 l 0.7505,5.8716 l 0.7505,0.1891 l 0.7505,-8.9112 l 0.7505,-3.8855 l 0.7505,8.8552 l 0.7505,-0.9313 l 0.7505,-4.7898 l 0.7505,-3.0811 l 0.7505,-7.6536 l 0.7505,-7.3320 l 0.7505,9.0250 l 0.7505,-4.1520 l 0.7505,-6.2723 l 0.7505,-8.2183 l 0.7505,-7.5511 l 0.7505,13.6578 l 0.7505,7.2531 l 0.7505,2.8117 l 0.7505,-0.9330 l 0.7505,-2.4023 l 0.7505,-11.4129 l 0.7505,12.9089 l 0.7505,9.4308 l 0.7505,7.2226 l 0.7505,-8.6736 l 0.7505,-0.9411 l 0.7505,-1.8109 l 0.7505,18.6689 l 0.7505,-4.1906 l 0.7505,2.3602 l 0.7505,1.0880 l 0.7505,10.2002 l 0.7505,-3.1528 l 0.7505,16.8516 l 0.7505,5.3112 l 0.7505,-9.3883 l 0.7505,-2.6512 l 0.7505,-1.8055 l 0.7505,1.6991 l 0.7505,-13.7242 l 0.7505,12.2060 l 0.7505,-5.6491 l 0.7505,7.7043 l 0.7505,4.4619 l 0.7505,-4.9995 l 0.7505,-9.7096 l 0.7505,1.7264 l 0.7505,-1.4952 l 0.7505,-8.6368 l 0.7505,4.8520 l 0.7505,-10.1411 l 0.7505,-7.8106 l 0.7505,-9.6915 l 0.7505,0.8745 l 0.7505,-3.5941 l 0.7505,7.4506 l 0.7505,-4.1587 l 0.7505,-3.9961 l 0.7505,-2.0701 l 0.7505,-15.6856 l 0.7505,-0.7703 l 0.7505,-2.4320 l 0.7505,22.0695 l 0.7505,-8.0783 l 0.7505,0.7185 l 0.7505,9.9251 l 0.7505,4.0302 l 0.7505,4.6004 l 0.7505,-3.4886 l 0.7505,-17.4215 l 0.7505,7.8727 l 0.7505,8.4002 l 0.7505,1.9664 l 0.7505,-6.9865 l 0.7505,-15.0138 l 0.7505,-19.7062 l 0.7505,4.9456 l 0.7505,2.9395 l 0.7505,5.6140 l 0.7505,-0.2616 l 0.7505,-4.8975 l 0.7505,0.7664 l 0.7505,-0.1060 l 0.7505,6.7687 l 0.7505,-5.6525 l 0.7505,4.1868 l 0.7505,-3.3795 l 0.7505,-12.2707 l 0.7505,3.2441 l 0.7505,5.3948 l 0.7505,1.6026 l 0.7505,5.7653 l 0.7505,-12.2729 l 0.7505,-11.0479 l 0.7505,-0.3042 l 0.7505,8.3536 l 0.7505,-0.8768 l 0.7505,0.4744 l 0.7505,-6.2425 l 0.7505,0.9643 l 0.7505,16.0227 l 0.7505,14.2306 l 0.7505,-9.1364 l 0.7505,3.8867 l 0.7505,15.4384 l 0.7505,6.2714 l 0.7505,-4.8530 l 0.7505,2.3313 l 0.7505,-14.4640 l 0.7505,17.6049 l 0.7505,0.5296 l 0.7505,8.8801 l 0.7505,4.5263 l 0.7505,10.1397 l 0.7505,-2.7366 l 0.7505,-5.9151 l 0.7505,-3.7811 l 0.7505,-8.6114 l 0.7505,7.6293 l 0.7505,-19.0317 l 0.7505,6.3357 l 0.7505,-11.4959 l 0.7505,-4.9910 l 0.7505,-5.2413 l 0.7505,5.7658 l 0.7505,0.7267 l 0.7505,10.6718 l 0.7505,19.1499 l 0.7505,-5.2309 l 0.7505,3.2080 l 0.7505,5.6624 l 0.7505,12.0555 l 0.7505,2.0670 l 0.7505,-10.8431 l 0.7505,12.5563 l 0.7505,10.7072 l 0.7505,7.2937 l 0.7505,-8.5265 l 0.7505,-4.9640 l 0.7505,3.2946 l 0.7505,-2.5964 l 0.7505,6.2345 l 0.7505,-7.6197 l 0.7505,-3.7612 l 0.7505,3.8901 l 0.7505,-7.4065 l 0.7505,3.4426 l 0.7505,3.9123 l 0.7505,-5.6425 l 0.7505,-6.9392 l 0.7505,2.4458 l 0.7505,-8.5473 l 0.7505,6.0272 l 0.7505,6.1020 l 0.7505,11.4347 l 0.7505,0.1711 l 0.7505,10.7216 l 0.7505,18.7433 l 0.7505,6.2145 l 0.7505,5.1864 l 0.7505,1.6875 l 0.7505,-4.8985 l 0.7505,-8.7265 l 0.7505,5.3139 l 0.7505,-9.1324 l 0.7505,-11.8946 l 0.7505,-5.8079 l 0.7505,16.6830 l 0.7505,-10.3286 l 0.7505,-7.6306 l 0.7505,6.7875 l 0.7505,-16.5906 l 0.7505,-4.5648 l 0.7505,-2.3066 l 0.7505,-5.8321 l 0.7505,-4.0559 l 0.7505,12.0328 l 0.7505,-0.1667 l 0.7505,4.7722 l 0.7505,-0.2223 l 0.7505,15.4462 l 0.7505,-8.4049 l 0.7505,-8.9386 l 0.7505,-1.9887 l 0.7505,7.0203 l 0.7505,5.6348 l 0.7505,9.8867 l 0.7505,-0.8936 l 0.7505,3.8034 l 0.7505,7.0121 l 0.7505,-4.8464 l 0.7505,-6.9237 l 0.7505,4.8950 l 0.7505,0.9907 l 0.7505,-2.0278 l 0.7505,2.5506 l 0.7505,8.1536 l 0.7505,1.1103 l 0.7505,-9.3619 l 0.7505,-5.1323 l 0.7505,-19.0117 l 0.7505,-20.2051 l 0.7505,-0.8875 l 0.7505,16.8337 l 0.7505,2.5995 l 0.7505,-7.3303 l 0.7505,1.2775 l 0.7505,-18.6107 l 0.7505,-7.1991 l 0.7505,-6.0657 l 0.7505,-3.8428 l 0.7505,-2.3822 l 0.7505,5.8795 l 0.7505,-0.7377 l 0.7505,-2.9496 l 0.7505,-7.5742 l 0.7505,4.2781 l 0.7505,-1.8276 l 0.7505,-11.5650 l 0.7505,-16.2296 l 0.7505,1.8357 l 0.7505,-11.4227 l 0.7505,7.4342 l 0.7505,8.6395 l 0.7505,4.2832 l 0.7505,0.7457 l 0.7505,6.7467 l 0.7505,-13.4136 l 0.7505,-8.0454 l 0.7505,0.0446 l 0.7505,-8.7684 l 0.7505,-5.5544 l 0.7505,11.9114 l 0.7505,-5.3492 l 0.7505,4.2496 l 0.7505,-10.1605 l 0.7505,-6.7331 l 0.7505,-8.2239 l 0.7505,10.5321 l 0.7505,9.2742 l 0.7505,5.7157 l 0.7505,17.1970 l 0.7505,-6.1710 l 0.7505,-1.6127 l 0.7505,13.5517 l 0.7505,3.6127 l 0.7505,-6.7174 l 0.7505,-8.2182 l 0.7505,25.3585 l 0.7505,9.5632 l 0.7505,14.0860 l 0.7505,4.6898 l 0.7505,-16.2561 l 0.7505,7.9556 l 0.7505,-1.2588 l 0.7505,13.0740 l 0.7505,11.8261 l 0.7505,-2.5228 l 0.7505,6.0521 l 0.7505,3.7711 l 0.7505,-0.2626 l 0.7505,-10.5671 l 0.7505,7.8434 l 0.7505,1.4935 l 0.7505,-14.7022 l 0.7505,-7.6368 l 0.7505,6.3566 l 0.7505,-3.3511 l 0.7505,18.1339 l 0.7505,-1.7929 l 0.7505,5.6682 l 0.7505,-11.4752 l 0.7505,3.0872 l 0.7505,-3.9332 l 0.7505,1.3665 l 0.7505,-5.9355 l 0.7505,5.0600 l 0.7505,5.2630 l 0.7505,-10.1835 l 0.7505,4.4643 l 0.7505,-7.8836 l 0.7505,-11.8212 l 0.7505,11.4761 l 0.7505,6.4231 l 0.7505,-16.3742 l 0.7505,1.2226 l 0.7505,8.1351 l 0.7505,12.3875 l 0.7505,5.0953 l 0.7505,8.0459 l 0.7505,-7.8029 l 0.7505,4.5229 l 0.7505,-6.1744 l 0.7505,-8.6123 l 0.7505,-4.3291 l 0.7505,-8.6732 l 0.7505,18.1467 l 0.7505,0.0277 l 0.7505,6.7995 l 0.7505,0.6361 l 0.7505,-2.1663 l 0.7505,3.7396 l 0.7505,5.2607 l 0.7505,7.2944 l 0.7505,-3.4066 l 0.7505,9.6707 l 0.7505,8.3337 l 0.7505,-4.1151 l 0.7505,-8.0894 l 0.7505,-13.9010 l 0.7505,-4.5389 l 0.7505,4.3395 l 0.7505,-12.2463 l 0.7505,3.0520 l 0.7505,-2.8652 l 0.7505,-7.5385 l 0.7505,-4.5706 l 0.7505,-5.1477 l 0.7505,2.9998 l 0.7505,-6.9703 l 0.7505,-2.1946 l 0.7505,-5.4220 l 0.7505,14.4631 l 0.7505,-12.1303 l 0.7505,-1.4362 l 0.7505,0.4832 l 0.7505,-18.6394 l 0.7505,-10.2221 l 0.7505,13.4839 l 0.7505,6.3540 l 0.7505,-8.9053 l 0.7505,-5.6028 l 0.7505,0.5758 l 0.7505,-18.7359 l 0.7505,-7.4116 l 0.7505,-4.3805 l 0.7505,11.2586 l 0.7505,4.7068 l 0.7505,3.6353 l 0.7505,0.3104 l 0.7505,3.0937 l 0.7505,-7.7190 l 0.7505,7.1442 l 0.7505,14.7379 l 0.7505,-13.3602 l 0.7505,-9.2954 l 0.7505,-6.0040 l 0.7505,-0.0146 l 0.7505,-15.9523 l 0.7505,8.3828 l 0.7505,1.3882 l 0.7505,-0.1051 l 0.7505,3.5595 "/></g></g><defs></defs><g stroke-linejoin="miter" stroke-opacity="1.0" fill-opacity="0.0" stroke="rgb(0,0,0)" stroke-width="0.9999999999999997" fill="rgb(0,0,0)" stroke-linecap="square" stroke-miterlimit="10.0"><path d="M 29.7059,550.0000 v -535.0000 "/></g><defs></defs><g stroke-linejoin="miter" stroke-opacity="1.0" fill-opacity="0.0" stroke="rgb(0,0,0)" stroke-width="0.9999999999999997" fill="rgb(0,0,0)" stroke-linecap="butt" stroke-miterlimit="10.0"><path d="M 29.7059,550.0000 h 2.0000 "/></g><defs></defs><g stroke-linejoin="miter" stroke-opacity="1.0" fill-opacity="0.0" stroke="rgb(0,0,0)" stroke-width="0.9999999999999997" fill="rgb(0,0,0)" stroke-linecap="butt" stroke-miterlimit="10.0"><path d="M 29.7059,534.7143 h 2.0000 "/></g><defs></defs><g stroke-linejoin="miter" stroke-opacity="1.0" fill-opacity="0.0" stroke="rgb(0,0,0)" stroke-width="0.9999999999999997" fill="rgb(0,0,0)" stroke-linecap="butt" stroke-miterlimit="10.0"><path d="M 29.7059,519.4286 h 2.0000 "/></g><defs></defs><g stroke-linejoin="miter" stroke-opacity="1.0" fill-opacity="0.0" stroke="rgb(0,0,0)" stroke-width="0.9999999999999997" fill="rgb(0,0,0)" stroke-linecap="butt" stroke-miterlimit="10.0"><path d="M 29.7059,504.1429 h 2.0000 "/></g><defs></defs><g stroke-linejoin="miter" stroke-opacity="1.0" fill-opacity="0.0" stroke="rgb(0,0,0)" stroke-width="0.9999999999999997" fill="rgb(0,0,0)" stroke-linecap="butt" stroke-miterlimit="10.0"><path d="M 29.7059,488.8571 h 2.0000 "/></g><defs></defs><g stroke-linejoin="miter" stroke-opacity="1.0" fill-opacity="0.0" stroke="rgb(0,0,0)" stroke-width="0.9999999999999997" fill="rgb(0,0,0)" stroke-linecap="butt" stroke-miterlimit="10.0"><path d="M 29.7059,473.5714 h 2.0000 "/></g><defs></defs><g stroke-linejoin="miter" stroke-opacity="1.0" fill-opacity="0.0" stroke="rgb(0,0,0)" stroke-width="0.9999999999999997" fill="rgb(0,0,0)" stroke-linecap="butt" stroke-miterlimit="10.0"><path d="M 29.7059,458.2857 h 2.0000 "/></g><defs></defs><g stroke-linejoin="miter" stroke-opacity="1.0" fill-opacity="0.0" stroke="rgb(0,0,0)" stroke-width="0.9999999999999997" fill="rgb(0,0,0)" stroke-linecap="butt" stroke-miterlimit="10.0"><path d="M 29.7059,443.0000 h 2.0000 "/></g><defs></defs><g stroke-linejoin="miter" stroke-opacity="1.0" fill-opacity="0.0" stroke="rgb(0,0,0)" stroke-width="0.9999999999999997" fill="rgb(0,0,0)" stroke-linecap="butt" stroke-miterlimit="10.0"><path d="M 29.7059,427.7143 h 2.0000 "/></g><defs></defs><g stroke-linejoin="miter" stroke-opacity="1.0" fill-opacity="0.0" stroke="rgb(0,0,0)" stroke-width="0.9999999999999997" fill="rgb(0,0,0)" stroke-linecap="butt" stroke-miterlimit="10.0"><path d="M 29.7059,412.4286 h 2.0000 "/></g><defs></defs><g stroke-linejoin="miter" stroke-opacity="1.0" fill-opacity="0.0" stroke="rgb(0,0,0)" stroke-width="0.9999999999999997" fill="rgb(0,0,0)" stroke-linecap="butt" stroke-miterlimit="10.0"><path d="M 29.7059,397.1429 h 2.0000 "/></g><defs></defs><g stroke-linejoin="miter" stroke-opacity="1.0" fill-opacity="0.0" stroke="rgb(0,0,0)" stroke-width="0.9999999999999997" fill="rgb(0,0,0)" stroke-linecap="butt" stroke-miterlimit="10.0"><path d="M 29.7059,381.8571 h 2.0000 "/></g><defs></defs><g stroke-linejoin="miter" stroke-opacity="1.0" fill-opacity="0.0" stroke="rgb(0,0,0)" stroke-width="0.9999999999999997" fill="rgb(0,0,0)" stroke-linecap="butt" stroke-miterlimit="10.0"><path d="M 29.7059,366.5714 h 2.0000 "/></g><defs></defs><g stroke-linejoin="miter" stroke-opacity="1.0" fill-opacity="0.0" stroke="rgb(0,0,0)" stroke-width="0.9999999999999997" fill="rgb(0,0,0)" stroke-linecap="butt" stroke-miterlimit="10.0"><path d="M 29.7059,351.2857 h 2.0000 "/></g><defs></defs><g stroke-linejoin="miter" stroke-opacity="1.0" fill-opacity="0.0" stroke="rgb(0,0,0)" stroke-width="0.9999999999999997" fill="rgb(0,0,0)" stroke-linecap="butt" stroke-miterlimit="10.0"><path d="M 29.7059,336.0000 h 2.0000 "/></g><defs></defs><g stroke-linejoin="miter" stroke-opacity="1.0" fill-opacity="0.0" stroke="rgb(0,0,0)" stroke-width="0.9999999999999997" fill="rgb(0,0,0)" stroke-linecap="butt" stroke-miterlimit="10.0"><path d="M 29.7059,320.7143 h 2.0000 "/></g><defs></defs><g stroke-linejoin="miter" stroke-opacity="1.0" fill-opacity="0.0" stroke="rgb(0,0,0)" stroke-width="0.9999999999999997" fill="rgb(0,0,0)" stroke-linecap="butt" stroke-miterlimit="10.0"><path d="M 29.7059,305.4286 h 2.0000 "/></g><defs></defs><g stroke-linejoin="miter" stroke-opacity="1.0" fill-opacity="0.0" stroke="rgb(0,0,0)" stroke-width="0.9999999999999997" fill="rgb(0,0,0)" stroke-linecap="butt" stroke-miterlimit="10.0"><path d="M 29.7059,290.1429 h 2.0000 "/></g><defs></defs><g stroke-linejoin="miter" stroke-opacity="1.0" fill-opacity="0.0" stroke="rgb(0,0,0)" stroke-width="0.9999999999999997" fill="rgb(0,0,0)" stroke-linecap="butt" stroke-miterlimit="10.0"><path d="M 29.7059,274.8571 h 2.0000 "/></g><defs></defs><g stroke-linejoin="miter" stroke-opacity="1.0" fill-opacity="0.0" stroke="rgb(0,0,0)" stroke-width="0.9999999999999997" fill="rgb(0,0,0)" stroke-linecap="butt" stroke-miterlimit="10.0"><path d="M 29.7059,259.5714 h 2.0000 "/></g><defs></defs><g stroke-linejoin="miter" stroke-opacity="1.0" fill-opacity="0.0" stroke="rgb(0,0,0)" stroke-width="0.9999999999999997" fill="rgb(0,0,0)" stroke-linecap="butt" stroke-miterlimit="10.0"><path d="M 29.7059,244.2857 h 2.0000 "/></g><defs></defs><g stroke-linejoin="miter" stroke-opacity="1.0" fill-opacity="0.0" stroke="rgb(0,0,0)" stroke-width="0.9999999999999997" fill="rgb(0,0,0)" stroke-linecap="butt" stroke-miterlimit="10.0"><path d="M 29.7059,229.0000 h 2.0000 "/></g><defs></defs><g stroke-linejoin="miter" stroke-opacity="1.0" fill-opacity="0.0" stroke="rgb(0,0,0)" stroke-width="0.9999999999999997" fill="rgb(0,0,0)" stroke-linecap="butt" stroke-miterlimit="10.0"><path d="M 29.7059,213.7143 h 2.0000 "/></g><defs></defs><g stroke-linejoin="miter" stroke-opacity="1.0" fill-opacity="0.0" stroke="rgb(0,0,0)" stroke-width="0.9999999999999997" fill="rgb(0,0,0)" stroke-linecap="butt" stroke-miterlimit="10.0"><path d="M 29.7059,198.4286 h 2.0000 "/></g><defs></defs><g stroke-linejoin="miter" stroke-opacity="1.0" fill-opacity="0.0" stroke="rgb(0,0,0)" stroke-width="0.9999999999999997" fill="rgb(0,0,0)" stroke-linecap="butt" stroke-miterlimit="10.0"><path d="M 29.7059,183.1429 h 2.0000 "/></g><defs></defs><g stroke-linejoin="miter" stroke-opacity="1.0" fill-opacity="0.0" stroke="rgb(0,0,0)" stroke-width="0.9999999999999997" fill="rgb(0,0,0)" stroke-linecap="butt" stroke-miterlimit="10.0"><path d="M 29.7059,167.8571 h 2.0000 "/></g><defs></defs><g stroke-linejoin="miter" stroke-opacity="1.0" fill-opacity="0.0" stroke="rgb(0,0,0)" stroke-width="0.9999999999999997" fill="rgb(0,0,0)" stroke-linecap="butt" stroke-miterlimit="10.0"><path d="M 29.7059,152.5714 h 2.0000 "/></g><defs></defs><g stroke-linejoin="miter" stroke-opacity="1.0" fill-opacity="0.0" stroke="rgb(0,0,0)" stroke-width="0.9999999999999997" fill="rgb(0,0,0)" stroke-linecap="butt" stroke-miterlimit="10.0"><path d="M 29.7059,137.2857 h 2.0000 "/></g><defs></defs><g stroke-linejoin="miter" stroke-opacity="1.0" fill-opacity="0.0" stroke="rgb(0,0,0)" stroke-width="0.9999999999999997" fill="rgb(0,0,0)" stroke-linecap="butt" stroke-miterlimit="10.0"><path d="M 29.7059,122.0000 h 2.0000 "/></g><defs></defs><g stroke-linejoin="miter" stroke-opacity="1.0" fill-opacity="0.0" stroke="rgb(0,0,0)" stroke-width="0.9999999999999997" fill="rgb(0,0,0)" stroke-linecap="butt" stroke-miterlimit="10.0"><path d="M 29.7059,106.7143 h 2.0000 "/></g><defs></defs><g stroke-linejoin="miter" stroke-opacity="1.0" fill-opacity="0.0" stroke="rgb(0,0,0)" stroke-width="0.9999999999999997" fill="rgb(0,0,0)" stroke-linecap="butt" stroke-miterlimit="10.0"><path d="M 29.7059,91.4286 h 2.0000 "/></g><defs></defs><g stroke-linejoin="miter" stroke-opacity="1.0" fill-opacity="0.0" stroke="rgb(0,0,0)" stroke-width="0.9999999999999997" fill="rgb(0,0,0)" stroke-linecap="butt" stroke-miterlimit="10.0"><path d="M 29.7059,76.1429 h 2.0000 "/></g><defs></defs><g stroke-linejoin="miter" stroke-opacity="1.0" fill-opacity="0.0" stroke="rgb(0,0,0)" stroke-width="0.9999999999999997" fill="rgb(0,0,0)" stroke-linecap="butt" stroke-miterlimit="10.0"><path d="M 29.7059,60.8571 h 2.0000 "/></g><defs></defs><g stroke-linejoin="miter" stroke-opacity="1.0" fill-opacity="0.0" stroke="rgb(0,0,0)" stroke-width="0.9999999999999997" fill="rgb(0,0,0)" stroke-linecap="butt" stroke-miterlimit="10.0"><path d="M 29.7059,45.5714 h 2.0000 "/></g><defs></defs><g stroke-linejoin="miter" stroke-opacity="1.0" fill-opacity="0.0" stroke="rgb(0,0,0)" stroke-width="0.9999999999999997" fill="rgb(0,0,0)" stroke-linecap="butt" stroke-miterlimit="10.0"><path d="M 29.7059,30.2857 h 2.0000 "/></g><defs></defs><g stroke-linejoin="miter" stroke-opacity="1.0" fill-opacity="0.0" stroke="rgb(0,0,0)" stroke-width="0.9999999999999997" fill="rgb(0,0,0)" stroke-linecap="butt" stroke-miterlimit="10.0"><path d="M 29.7059,15.0000 h 2.0000 "/></g><defs></defs><g stroke-linejoin="miter" stroke-opacity="1.0" fill-opacity="0.0" stroke="rgb(0,0,0)" stroke-width="0.9999999999999997" fill="rgb(0,0,0)" stroke-linecap="butt" stroke-miterlimit="10.0"><path d="M 29.7059,550.0000 h 5.0000 "/></g><defs></defs><g stroke-linejoin="miter" stroke-opacity="1.0" fill-opacity="0.0" stroke="rgb(0,0,0)" stroke-width="0.9999999999999997" fill="rgb(0,0,0)" stroke-linecap="butt" stroke-miterlimit="10.0"><path d="M 29.7059,473.5714 h 5.0000 "/></g><defs></defs><g stroke-linejoin="miter" stroke-opacity="1.0" fill-opacity="0.0" stroke="rgb(0,0,0)" stroke-width="0.9999999999999997" fill="rgb(0,0,0)" stroke-linecap="butt" stroke-miterlimit="10.0"><path d="M 29.7059,397.1429 h 5.0000 "/></g><defs></defs><g stroke-linejoin="miter" stroke-opacity="1.0" fill-opacity="0.0" stroke="rgb(0,0,0)" stroke-width="0.9999999999999997" fill="rgb(0,0,0)" stroke-linecap="butt" stroke-miterlimit="10.0"><path d="M 29.7059,320.7143 h 5.0000 "/></g><defs></defs><g stroke-linejoin="miter" stroke-opacity="1.0" fill-opacity="0.0" stroke="rgb(0,0,0)" stroke-width="0.9999999999999997" fill="rgb(0,0,0)" stroke-linecap="butt" stroke-miterlimit="10.0"><path d="M 29.7059,244.2857 h 5.0000 "/></g><defs></defs><g stroke-linejoin="miter" stroke-opacity="1.0" fill-opacity="0.0" stroke="rgb(0,0,0)" stroke-width="0.9999999999999997" fill="rgb(0,0,0)" stroke-linecap="butt" stroke-miterlimit="10.0"><path d="M 29.7059,167.8571 h 5.0000 "/></g><defs></defs><g stroke-linejoin="miter" stroke-opacity="1.0" fill-opacity="0.0" stroke="rgb(0,0,0)" stroke-width="0.9999999999999997" fill="rgb(0,0,0)" stroke-linecap="butt" stroke-miterlimit="10.0"><path d="M 29.7059,91.4286 h 5.0000 "/></g><defs></defs><g stroke-linejoin="miter" stroke-opacity="1.0" fill-opacity="0.0" stroke="rgb(0,0,0)" stroke-width="0.9999999999999997" fill="rgb(0,0,0)" stroke-linecap="butt" stroke-miterlimit="10.0"><path d="M 29.7059,15.0000 h 5.0000 "/></g><defs></defs><g stroke-linejoin="bevel" stroke-opacity="0.0" fill-opacity="1.0" stroke="rgb(0,0,0)" stroke-width="0.0" fill="rgb(0,0,0)" stroke-linecap="butt" stroke-miterlimit="10.0"><path d="M 12.1534,553.4454 ZM 12.5840,550.4832 h 2.4160 v 0.6618 h -2.4160 v -0.6618 ZM 15.4202,553.4454 ZM 16.1029,552.0903 c 0.2941,0.3046 0.6985,0.5357 0.6985 0.5357c 0.4044,0.2311 0.9926,0.2311 0.9926 0.2311c 0.3046,0.0000 0.5725,-0.1103 0.5725 -0.1103c 0.2679,-0.1103 0.4674,-0.3099 0.4674 -0.3099c 0.1996,-0.1996 0.3151,-0.4832 0.3151 -0.4832c 0.1155,-0.2836 0.1155,-0.6303 0.1155 -0.6303c 0.0000,-0.6933 -0.3887,-1.0819 -0.3887 -1.0819c -0.3887,-0.3887 -1.0399,-0.3887 -1.0399 -0.3887c -0.3466,-0.0000 -0.5935,0.1050 -0.5935 0.1050c -0.2468,0.1050 -0.5515,0.3046 -0.5515 0.3046l -0.4622,-0.2941 l 0.2206,-3.2248 h 3.3508 v 0.7458 h -2.5945 l -0.1786,1.9853 c 0.2416,-0.1261 0.4832,-0.1996 0.4832 -0.1996c 0.2416,-0.0735 0.5462,-0.0735 0.5462 -0.0735c 0.4307,0.0000 0.8088,0.1261 0.8088 0.1261c 0.3782,0.1261 0.6618,0.3834 0.6618 0.3834c 0.2836,0.2574 0.4464,0.6513 0.4464 0.6513c 0.1628,0.3939 0.1628,0.9401 0.1628 0.9401c 0.0000,0.5462 -0.1891,0.9664 -0.1891 0.9664c -0.1891,0.4202 -0.5042,0.7090 -0.5042 0.7090c -0.3151,0.2889 -0.7195,0.4412 -0.7195 0.4412c -0.4044,0.1523 -0.8456,0.1523 -0.8456 0.1523c -0.3992,-0.0000 -0.7300,-0.0788 -0.7300 -0.0788c -0.3309,-0.0788 -0.5987,-0.2048 -0.5987 -0.2048c -0.2679,-0.1261 -0.4832,-0.2889 -0.4832 -0.2889c -0.2153,-0.1628 -0.3834,-0.3414 -0.3834 -0.3414Z"/></g><defs></defs><g stroke-linejoin="bevel" stroke-opacity="0.0" fill-opacity="1.0" stroke="rgb(0,0,0)" stroke-width="0.0" fill="rgb(0,0,0)" stroke-linecap="butt" stroke-miterlimit="10.0"><path d="M 15.4097,477.0168 ZM 18.0252,477.1429 c -1.0189,-0.0000 -1.5861,-0.9034 -1.5861 -0.9034c -0.5672,-0.9034 -0.5672,-2.5945 -0.5672 -2.5945c 0.0000,-1.6912 0.5672,-2.5735 0.5672 -2.5735c 0.5672,-0.8824 1.5861,-0.8824 1.5861 -0.8824c 1.0084,0.0000 1.5756,0.8824 1.5756 0.8824c 0.5672,0.8824 0.5672,2.5735 0.5672 2.5735c 0.0000,1.6912 -0.5672,2.5945 -0.5672 2.5945c -0.5672,0.9034 -1.5756,0.9034 -1.5756 0.9034ZM 18.0252,477.1429 ZM 18.0252,476.4496 c 0.2941,0.0000 0.5305,-0.1628 0.5305 -0.1628c 0.2363,-0.1628 0.4097,-0.5042 0.4097 -0.5042c 0.1733,-0.3414 0.2679,-0.8718 0.2679 -0.8718c 0.0945,-0.5305 0.0945,-1.2658 0.0945 -1.2658c 0.0000,-0.7353 -0.0945,-1.2605 -0.0945 -1.2605c -0.0945,-0.5252 -0.2679,-0.8561 -0.2679 -0.8561c -0.1733,-0.3309 -0.4097,-0.4884 -0.4097 -0.4884c -0.2363,-0.1576 -0.5305,-0.1576 -0.5305 -0.1576c -0.2941,-0.0000 -0.5357,0.1576 -0.5357 0.1576c -0.2416,0.1576 -0.4149,0.4884 -0.4149 0.4884c -0.1733,0.3309 -0.2679,0.8561 -0.2679 0.8561c -0.0945,0.5252 -0.0945,1.2605 -0.0945 1.2605c 0.0000,1.4706 0.3624,2.1376 0.3624 2.1376c 0.3624,0.6670 0.9506,0.6670 0.9506 0.6670Z"/></g><defs></defs><g stroke-linejoin="bevel" stroke-opacity="0.0" fill-opacity="1.0" stroke="rgb(0,0,0)" stroke-width="0.0" fill="rgb(0,0,0)" stroke-linecap="butt" stroke-miterlimit="10.0"><path d="M 15.2521,400.5882 ZM 15.9349,399.2332 c 0.2941,0.3046 0.6985,0.5357 0.6985 0.5357c 0.4044,0.2311 0.9926,0.2311 0.9926 0.2311c 0.3046,0.0000 0.5725,-0.1103 0.5725 -0.1103c 0.2679,-0.1103 0.4674,-0.3099 0.4674 -0.3099c 0.1996,-0.1996 0.3151,-0.4832 0.3151 -0.4832c 0.1155,-0.2836 0.1155,-0.6303 0.1155 -0.6303c 0.0000,-0.6933 -0.3887,-1.0819 -0.3887 -1.0819c -0.3887,-0.3887 -1.0399,-0.3887 -1.0399 -0.3887c -0.3466,-0.0000 -0.5935,0.1050 -0.5935 0.1050c -0.2468,0.1050 -0.5515,0.3046 -0.5515 0.3046l -0.4622,-0.2941 l 0.2206,-3.2248 h 3.3508 v 0.7458 h -2.5945 l -0.1786,1.9853 c 0.2416,-0.1261 0.4832,-0.1996 0.4832 -0.1996c 0.2416,-0.0735 0.5462,-0.0735 0.5462 -0.0735c 0.4307,0.0000 0.8088,0.1261 0.8088 0.1261c 0.3782,0.1261 0.6618,0.3834 0.6618 0.3834c 0.2836,0.2574 0.4464,0.6513 0.4464 0.6513c 0.1628,0.3939 0.1628,0.9401 0.1628 0.9401c 0.0000,0.5462 -0.1891,0.9664 -0.1891 0.9664c -0.1891,0.4202 -0.5042,0.7090 -0.5042 0.7090c -0.3151,0.2889 -0.7195,0.4412 -0.7195 0.4412c -0.4044,0.1523 -0.8456,0.1523 -0.8456 0.1523c -0.3992,-0.0000 -0.7300,-0.0788 -0.7300 -0.0788c -0.3309,-0.0788 -0.5987,-0.2048 -0.5987 -0.2048c -0.2679,-0.1261 -0.4832,-0.2889 -0.4832 -0.2889c -0.2153,-0.1628 -0.3834,-0.3414 -0.3834 -0.3414Z"/></g><defs></defs><g stroke-linejoin="bevel" stroke-opacity="0.0" fill-opacity="1.0" stroke="rgb(0,0,0)" stroke-width="0.0" fill="rgb(0,0,0)" stroke-linecap="butt" stroke-miterlimit="10.0"><path d="M 10.5567,324.1597 ZM 11.3866,323.4454 h 1.5336 v -4.9370 h -1.2185 v -0.5567 c 0.4622,-0.0840 0.8036,-0.2048 0.8036 -0.2048c 0.3414,-0.1208 0.6145,-0.2889 0.6145 -0.2889h 0.6618 v 5.9874 h 1.3866 v 0.7143 h -3.7815 v -0.7143 ZM 15.7773,324.1597 ZM 18.3929,324.2857 c -1.0189,-0.0000 -1.5861,-0.9034 -1.5861 -0.9034c -0.5672,-0.9034 -0.5672,-2.5945 -0.5672 -2.5945c 0.0000,-1.6912 0.5672,-2.5735 0.5672 -2.5735c 0.5672,-0.8824 1.5861,-0.8824 1.5861 -0.8824c 1.0084,0.0000 1.5756,0.8824 1.5756 0.8824c 0.5672,0.8824 0.5672,2.5735 0.5672 2.5735c 0.0000,1.6912 -0.5672,2.5945 -0.5672 2.5945c -0.5672,0.9034 -1.5756,0.9034 -1.5756 0.9034ZM 18.3929,324.2857 ZM 18.3929,323.5924 c 0.2941,0.0000 0.5305,-0.1628 0.5305 -0.1628c 0.2363,-0.1628 0.4097,-0.5042 0.4097 -0.5042c 0.1733,-0.3414 0.2679,-0.8718 0.2679 -0.8718c 0.0945,-0.5305 0.0945,-1.2658 0.0945 -1.2658c 0.0000,-0.7353 -0.0945,-1.2605 -0.0945 -1.2605c -0.0945,-0.5252 -0.2679,-0.8561 -0.2679 -0.8561c -0.1733,-0.3309 -0.4097,-0.4884 -0.4097 -0.4884c -0.2363,-0.1576 -0.5305,-0.1576 -0.5305 -0.1576c -0.2941,-0.0000 -0.5357,0.1576 -0.5357 0.1576c -0.2416,0.1576 -0.4149,0.4884 -0.4149 0.4884c -0.1733,0.3309 -0.2679,0.8561 -0.2679 0.8561c -0.0945,0.5252 -0.0945,1.2605 -0.0945 1.2605c 0.0000,1.4706 0.3624,2.1376 0.3624 2.1376c 0.3624,0.6670 0.9506,0.6670 0.9506 0.6670Z"/></g><defs></defs><g stroke-linejoin="bevel" stroke-opacity="0.0" fill-opacity="1.0" stroke="rgb(0,0,0)" stroke-width="0.0" fill="rgb(0,0,0)" stroke-linecap="butt" stroke-miterlimit="10.0"><path d="M 10.5987,247.7311 ZM 11.4286,247.0168 h 1.5336 v -4.9370 h -1.2185 v -0.5567 c 0.4622,-0.0840 0.8036,-0.2048 0.8036 -0.2048c 0.3414,-0.1208 0.6145,-0.2889 0.6145 -0.2889h 0.6618 v 5.9874 h 1.3866 v 0.7143 h -3.7815 v -0.7143 ZM 15.8193,247.7311 ZM 16.5021,246.3761 c 0.2941,0.3046 0.6985,0.5357 0.6985 0.5357c 0.4044,0.2311 0.9926,0.2311 0.9926 0.2311c 0.3046,0.0000 0.5725,-0.1103 0.5725 -0.1103c 0.2679,-0.1103 0.4674,-0.3099 0.4674 -0.3099c 0.1996,-0.1996 0.3151,-0.4832 0.3151 -0.4832c 0.1155,-0.2836 0.1155,-0.6303 0.1155 -0.6303c 0.0000,-0.6933 -0.3887,-1.0819 -0.3887 -1.0819c -0.3887,-0.3887 -1.0399,-0.3887 -1.0399 -0.3887c -0.3466,-0.0000 -0.5935,0.1050 -0.5935 0.1050c -0.2468,0.1050 -0.5515,0.3046 -0.5515 0.3046l -0.4622,-0.2941 l 0.2206,-3.2248 h 3.3508 v 0.7458 h -2.5945 l -0.1786,1.9853 c 0.2416,-0.1261 0.4832,-0.1996 0.4832 -0.1996c 0.2416,-0.0735 0.5462,-0.0735 0.5462 -0.0735c 0.4307,0.0000 0.8088,0.1261 0.8088 0.1261c 0.3782,0.1261 0.6618,0.3834 0.6618 0.3834c 0.2836,0.2574 0.4464,0.6513 0.4464 0.6513c 0.1628,0.3939 0.1628,0.9401 0.1628 0.9401c 0.0000,0.5462 -0.1891,0.9664 -0.1891 0.9664c -0.1891,0.4202 -0.5042,0.7090 -0.5042 0.7090c -0.3151,0.2889 -0.7195,0.4412 -0.7195 0.4412c -0.4044,0.1523 -0.8456,0.1523 -0.8456 0.1523c -0.3992,-0.0000 -0.7300,-0.0788 -0.7300 -0.0788c -0.3309,-0.0788 -0.5987,-0.2048 -0.5987 -0.2048c -0.2679,-0.1261 -0.4832,-0.2889 -0.4832 -0.2889c -0.2153,-0.1628 -0.3834,-0.3414 -0.3834 -0.3414Z"/></g><defs></defs><g stroke-linejoin="bevel" stroke-opacity="0.0" fill-opacity="1.0" stroke="rgb(0,0,0)" stroke-width="0.0" fill="rgb(0,0,0)" stroke-linecap="butt" stroke-miterlimit="10.0"><path d="M 10.1050,171.3025 ZM 10.5252,170.7878 c 0.7563,-0.7563 1.3445,-1.3655 1.3445 -1.3655c 0.5882,-0.6092 0.9874,-1.1292 0.9874 -1.1292c 0.3992,-0.5200 0.6092,-0.9559 0.6092 -0.9559c 0.2101,-0.4359 0.2101,-0.8456 0.2101 -0.8456c 0.0000,-0.5777 -0.3151,-0.9454 -0.3151 -0.9454c -0.3151,-0.3676 -0.9559,-0.3676 -0.9559 -0.3676c -0.4202,-0.0000 -0.7773,0.2363 -0.7773 0.2363c -0.3571,0.2363 -0.6513,0.5725 -0.6513 0.5725l -0.4937,-0.4937 c 0.4202,-0.4622 0.8929,-0.7405 0.8929 -0.7405c 0.4727,-0.2784 1.1345,-0.2784 1.1345 -0.2784c 0.9349,0.0000 1.4706,0.5410 1.4706 0.5410c 0.5357,0.5410 0.5357,1.4338 0.5357 1.4338c 0.0000,0.4727 -0.2048,0.9506 -0.2048 0.9506c -0.2048,0.4779 -0.5672,0.9874 -0.5672 0.9874c -0.3624,0.5095 -0.8613,1.0609 -0.8613 1.0609c -0.4989,0.5515 -1.0977,1.1712 -1.0977 1.1712c 0.2731,-0.0210 0.5672,-0.0420 0.5672 -0.0420c 0.2941,-0.0210 0.5567,-0.0210 0.5567 -0.0210h 1.9433 v 0.7458 h -4.3277 v -0.5147 ZM 15.3256,171.3025 ZM 17.9412,171.4286 c -1.0189,-0.0000 -1.5861,-0.9034 -1.5861 -0.9034c -0.5672,-0.9034 -0.5672,-2.5945 -0.5672 -2.5945c 0.0000,-1.6912 0.5672,-2.5735 0.5672 -2.5735c 0.5672,-0.8824 1.5861,-0.8824 1.5861 -0.8824c 1.0084,0.0000 1.5756,0.8824 1.5756 0.8824c 0.5672,0.8824 0.5672,2.5735 0.5672 2.5735c 0.0000,1.6912 -0.5672,2.5945 -0.5672 2.5945c -0.5672,0.9034 -1.5756,0.9034 -1.5756 0.9034ZM 17.9412,171.4286 ZM 17.9412,170.7353 c 0.2941,0.0000 0.5305,-0.1628 0.5305 -0.1628c 0.2363,-0.1628 0.4097,-0.5042 0.4097 -0.5042c 0.1733,-0.3414 0.2679,-0.8718 0.2679 -0.8718c 0.0945,-0.5305 0.0945,-1.2658 0.0945 -1.2658c 0.0000,-0.7353 -0.0945,-1.2605 -0.0945 -1.2605c -0.0945,-0.5252 -0.2679,-0.8561 -0.2679 -0.8561c -0.1733,-0.3309 -0.4097,-0.4884 -0.4097 -0.4884c -0.2363,-0.1576 -0.5305,-0.1576 -0.5305 -0.1576c -0.2941,-0.0000 -0.5357,0.1576 -0.5357 0.1576c -0.2416,0.1576 -0.4149,0.4884 -0.4149 0.4884c -0.1733,0.3309 -0.2679,0.8561 -0.2679 0.8561c -0.0945,0.5252 -0.0945,1.2605 -0.0945 1.2605c 0.0000,1.4706 0.3624,2.1376 0.3624 2.1376c 0.3624,0.6670 0.9506,0.6670 0.9506 0.6670Z"/></g><defs></defs><g stroke-linejoin="bevel" stroke-opacity="0.0" fill-opacity="1.0" stroke="rgb(0,0,0)" stroke-width="0.0" fill="rgb(0,0,0)" stroke-linecap="butt" stroke-miterlimit="10.0"><path d="M 10.1471,94.8739 ZM 10.5672,94.3592 c 0.7563,-0.7563 1.3445,-1.3655 1.3445 -1.3655c 0.5882,-0.6092 0.9874,-1.1292 0.9874 -1.1292c 0.3992,-0.5200 0.6092,-0.9559 0.6092 -0.9559c 0.2101,-0.4359 0.2101,-0.8456 0.2101 -0.8456c 0.0000,-0.5777 -0.3151,-0.9454 -0.3151 -0.9454c -0.3151,-0.3676 -0.9559,-0.3676 -0.9559 -0.3676c -0.4202,-0.0000 -0.7773,0.2363 -0.7773 0.2363c -0.3571,0.2363 -0.6513,0.5725 -0.6513 0.5725l -0.4937,-0.4937 c 0.4202,-0.4622 0.8929,-0.7405 0.8929 -0.7405c 0.4727,-0.2784 1.1345,-0.2784 1.1345 -0.2784c 0.9349,0.0000 1.4706,0.5410 1.4706 0.5410c 0.5357,0.5410 0.5357,1.4338 0.5357 1.4338c 0.0000,0.4727 -0.2048,0.9506 -0.2048 0.9506c -0.2048,0.4779 -0.5672,0.9874 -0.5672 0.9874c -0.3624,0.5095 -0.8613,1.0609 -0.8613 1.0609c -0.4989,0.5515 -1.0977,1.1712 -1.0977 1.1712c 0.2731,-0.0210 0.5672,-0.0420 0.5672 -0.0420c 0.2941,-0.0210 0.5567,-0.0210 0.5567 -0.0210h 1.9433 v 0.7458 h -4.3277 v -0.5147 ZM 15.3676,94.8739 ZM 16.0504,93.5189 c 0.2941,0.3046 0.6985,0.5357 0.6985 0.5357c 0.4044,0.2311 0.9926,0.2311 0.9926 0.2311c 0.3046,0.0000 0.5725,-0.1103 0.5725 -0.1103c 0.2679,-0.1103 0.4674,-0.3099 0.4674 -0.3099c 0.1996,-0.1996 0.3151,-0.4832 0.3151 -0.4832c 0.1155,-0.2836 0.1155,-0.6303 0.1155 -0.6303c 0.0000,-0.6933 -0.3887,-1.0819 -0.3887 -1.0819c -0.3887,-0.3887 -1.0399,-0.3887 -1.0399 -0.3887c -0.3466,-0.0000 -0.5935,0.1050 -0.5935 0.1050c -0.2468,0.1050 -0.5515,0.3046 -0.5515 0.3046l -0.4622,-0.2941 l 0.2206,-3.2248 h 3.3508 v 0.7458 h -2.5945 l -0.1786,1.9853 c 0.2416,-0.1261 0.4832,-0.1996 0.4832 -0.1996c 0.2416,-0.0735 0.5462,-0.0735 0.5462 -0.0735c 0.4307,0.0000 0.8088,0.1261 0.8088 0.1261c 0.3782,0.1261 0.6618,0.3834 0.6618 0.3834c 0.2836,0.2574 0.4464,0.6513 0.4464 0.6513c 0.1628,0.3939 0.1628,0.9401 0.1628 0.9401c 0.0000,0.5462 -0.1891,0.9664 -0.1891 0.9664c -0.1891,0.4202 -0.5042,0.7090 -0.5042 0.7090c -0.3151,0.2889 -0.7195,0.4412 -0.7195 0.4412c -0.4044,0.1523 -0.8456,0.1523 -0.8456 0.1523c -0.3992,-0.0000 -0.7300,-0.0788 -0.7300 -0.0788c -0.3309,-0.0788 -0.5987,-0.2048 -0.5987 -0.2048c -0.2679,-0.1261 -0.4832,-0.2889 -0.4832 -0.2889c -0.2153,-0.1628 -0.3834,-0.3414 -0.3834 -0.3414Z"/></g><defs></defs><g stroke-linejoin="bevel" stroke-opacity="0.0" fill-opacity="1.0" stroke="rgb(0,0,0)" stroke-width="0.0" fill="rgb(0,0,0)" stroke-linecap="butt" stroke-miterlimit="10.0"><path d="M 10.0000,18.4454 ZM 10.7143,17.0588 c 0.3046,0.3151 0.7090,0.5567 0.7090 0.5567c 0.4044,0.2416 1.0032,0.2416 1.0032 0.2416c 0.6092,0.0000 0.9979,-0.3309 0.9979 -0.3309c 0.3887,-0.3309 0.3887,-0.8981 0.3887 -0.8981c 0.0000,-0.2941 -0.1103,-0.5410 -0.1103 -0.5410c -0.1103,-0.2468 -0.3624,-0.4254 -0.3624 -0.4254c -0.2521,-0.1786 -0.6618,-0.2731 -0.6618 -0.2731c -0.4097,-0.0945 -1.0084,-0.0945 -1.0084 -0.0945v -0.6618 c 0.5357,0.0000 0.8981,-0.0945 0.8981 -0.0945c 0.3624,-0.0945 0.5882,-0.2626 0.5882 -0.2626c 0.2258,-0.1681 0.3204,-0.3992 0.3204 -0.3992c 0.0945,-0.2311 0.0945,-0.4937 0.0945 -0.4937c 0.0000,-0.4937 -0.3099,-0.7773 -0.3099 -0.7773c -0.3099,-0.2836 -0.8456,-0.2836 -0.8456 -0.2836c -0.4202,-0.0000 -0.7721,0.1891 -0.7721 0.1891c -0.3519,0.1891 -0.6565,0.4937 -0.6565 0.4937l -0.4622,-0.5462 c 0.3887,-0.3676 0.8561,-0.6040 0.8561 -0.6040c 0.4674,-0.2363 1.0662,-0.2363 1.0662 -0.2363c 0.4412,0.0000 0.8088,0.1155 0.8088 0.1155c 0.3676,0.1155 0.6355,0.3309 0.6355 0.3309c 0.2679,0.2153 0.4149,0.5305 0.4149 0.5305c 0.1471,0.3151 0.1471,0.7248 0.1471 0.7248c 0.0000,0.6092 -0.3361,0.9979 -0.3361 0.9979c -0.3361,0.3887 -0.8824,0.5987 -0.8824 0.5987v 0.0420 c 0.3046,0.0735 0.5672,0.2153 0.5672 0.2153c 0.2626,0.1418 0.4622,0.3571 0.4622 0.3571c 0.1996,0.2153 0.3099,0.4989 0.3099 0.4989c 0.1103,0.2836 0.1103,0.6303 0.1103 0.6303c 0.0000,0.4412 -0.1733,0.7983 -0.1733 0.7983c -0.1733,0.3571 -0.4727,0.6040 -0.4727 0.6040c -0.2994,0.2468 -0.6985,0.3782 -0.6985 0.3782c -0.3992,0.1313 -0.8613,0.1313 -0.8613 0.1313c -0.3992,-0.0000 -0.7300,-0.0788 -0.7300 -0.0788c -0.3309,-0.0788 -0.6040,-0.2101 -0.6040 -0.2101c -0.2731,-0.1313 -0.4884,-0.2994 -0.4884 -0.2994c -0.2153,-0.1681 -0.3834,-0.3571 -0.3834 -0.3571ZM 15.2206,18.4454 ZM 17.8361,18.5714 c -1.0189,-0.0000 -1.5861,-0.9034 -1.5861 -0.9034c -0.5672,-0.9034 -0.5672,-2.5945 -0.5672 -2.5945c 0.0000,-1.6912 0.5672,-2.5735 0.5672 -2.5735c 0.5672,-0.8824 1.5861,-0.8824 1.5861 -0.8824c 1.0084,0.0000 1.5756,0.8824 1.5756 0.8824c 0.5672,0.8824 0.5672,2.5735 0.5672 2.5735c 0.0000,1.6912 -0.5672,2.5945 -0.5672 2.5945c -0.5672,0.9034 -1.5756,0.9034 -1.5756 0.9034ZM 17.8361,18.5714 ZM 17.8361,17.8782 c 0.2941,0.0000 0.5305,-0.1628 0.5305 -0.1628c 0.2363,-0.1628 0.4097,-0.5042 0.4097 -0.5042c 0.1733,-0.3414 0.2679,-0.8718 0.2679 -0.8718c 0.0945,-0.5305 0.0945,-1.2658 0.0945 -1.2658c 0.0000,-0.7353 -0.0945,-1.2605 -0.0945 -1.2605c -0.0945,-0.5252 -0.2679,-0.8561 -0.2679 -0.8561c -0.1733,-0.3309 -0.4097,-0.4884 -0.4097 -0.4884c -0.2363,-0.1576 -0.5305,-0.1576 -0.5305 -0.1576c -0.2941,-0.0000 -0.5357,0.1576 -0.5357 0.1576c -0.2416,0.1576 -0.4149,0.4884 -0.4149 0.4884c -0.1733,0.3309 -0.2679,0.8561 -0.2679 0.8561c -0.0945,0.5252 -0.0945,1.2605 -0.0945 1.2605c 0.0000,1.4706 0.3624,2.1376 0.3624 2.1376c 0.3624,0.6670 0.9506,0.6670 0.9506 0.6670Z"/></g><defs></defs><g stroke-linejoin="miter" stroke-opacity="1.0" fill-opacity="0.0" stroke="rgb(0,0,0)" stroke-width="0.9999999999999997" fill="rgb(0,0,0)" stroke-linecap="square" stroke-miterlimit="10.0"><path d="M 29.7059,550.0000 h 750.4989 "/></g><defs></defs><g stroke-linejoin="miter" stroke-opacity="1.0" fill-opacity="0.0" stroke="rgb(0,0,0)" stroke-width="0.9999999999999997" fill="rgb(0,0,0)" stroke-linecap="butt" stroke-miterlimit="10.0"><path d="M 29.7059,550.0000 v -2.0000 "/></g><defs></defs><g stroke-linejoin="miter" stroke-opacity="1.0" fill-opacity="0.0" stroke="rgb(0,0,0)" stroke-width="0.9999999999999997" fill="rgb(0,0,0)" stroke-linecap="butt" stroke-miterlimit="10.0"><path d="M 104.7558,550.0000 v -2.0000 "/></g><defs></defs><g stroke-linejoin="miter" stroke-opacity="1.0" fill-opacity="0.0" stroke="rgb(0,0,0)" stroke-width="0.9999999999999997" fill="rgb(0,0,0)" stroke-linecap="butt" stroke-miterlimit="10.0"><path d="M 179.8057,550.0000 v -2.0000 "/></g><defs></defs><g stroke-linejoin="miter" stroke-opacity="1.0" fill-opacity="0.0" stroke="rgb(0,0,0)" stroke-width="0.9999999999999997" fill="rgb(0,0,0)" stroke-linecap="butt" stroke-miterlimit="10.0"><path d="M 254.8556,550.0000 v -2.0000 "/></g><defs></defs><g stroke-linejoin="miter" stroke-opacity="1.0" fill-opacity="0.0" stroke="rgb(0,0,0)" stroke-width="0.9999999999999997" fill="rgb(0,0,0)" stroke-linecap="butt" stroke-miterlimit="10.0"><path d="M 329.9055,550.0000 v -2.0000 "/></g><defs></defs><g stroke-linejoin="miter" stroke-opacity="1.0" fill-opacity="0.0" stroke="rgb(0,0,0)" stroke-width="0.9999999999999997" fill="rgb(0,0,0)" stroke-linecap="butt" stroke-miterlimit="10.0"><path d="M 404.9554,550.0000 v -2.0000 "/></g><defs></defs><g stroke-linejoin="miter" stroke-opacity="1.0" fill-opacity="0.0" stroke="rgb(0,0,0)" stroke-width="0.9999999999999997" fill="rgb(0,0,0)" stroke-linecap="butt" stroke-miterlimit="10.0"><path d="M 480.0053,550.0000 v -2.0000 "/></g><defs></defs><g stroke-linejoin="miter" stroke-opacity="1.0" fill-opacity="0.0" stroke="rgb(0,0,0)" stroke-width="0.9999999999999997" fill="rgb(0,0,0)" stroke-linecap="butt" stroke-miterlimit="10.0"><path d="M 555.0551,550.0000 v -2.0000 "/></g><defs></defs><g stroke-linejoin="miter" stroke-opacity="1.0" fill-opacity="0.0" stroke="rgb(0,0,0)" stroke-width="0.9999999999999997" fill="rgb(0,0,0)" stroke-linecap="butt" stroke-miterlimit="10.0"><path d="M 630.1050,550.0000 v -2.0000 "/></g><defs></defs><g stroke-linejoin="miter" stroke-opacity="1.0" fill-opacity="0.0" stroke="rgb(0,0,0)" stroke-width="0.9999999999999997" fill="rgb(0,0,0)" stroke-linecap="butt" stroke-miterlimit="10.0"><path d="M 705.1549,550.0000 v -2.0000 "/></g><defs></defs><g stroke-linejoin="miter" stroke-opacity="1.0" fill-opacity="0.0" stroke="rgb(0,0,0)" stroke-width="0.9999999999999997" fill="rgb(0,0,0)" stroke-linecap="butt" stroke-miterlimit="10.0"><path d="M 780.2048,550.0000 v -2.0000 "/></g><defs></defs><g stroke-linejoin="miter" stroke-opacity="1.0" fill-opacity="0.0" stroke="rgb(0,0,0)" stroke-width="0.9999999999999997" fill="rgb(0,0,0)" stroke-linecap="butt" stroke-miterlimit="10.0"><path d="M 29.7059,550.0000 v -5.0000 "/></g><defs></defs><g stroke-linejoin="miter" stroke-opacity="1.0" fill-opacity="0.0" stroke="rgb(0,0,0)" stroke-width="0.9999999999999997" fill="rgb(0,0,0)" stroke-linecap="butt" stroke-miterlimit="10.0"><path d="M 217.3306,550.0000 v -5.0000 "/></g><defs></defs><g stroke-linejoin="miter" stroke-opacity="1.0" fill-opacity="0.0" stroke="rgb(0,0,0)" stroke-width="0.9999999999999997" fill="rgb(0,0,0)" stroke-linecap="butt" stroke-miterlimit="10.0"><path d="M 404.9554,550.0000 v -5.0000 "/></g><defs></defs><g stroke-linejoin="miter" stroke-opacity="1.0" fill-opacity="0.0" stroke="rgb(0,0,0)" stroke-width="0.9999999999999997" fill="rgb(0,0,0)" stroke-linecap="butt" stroke-miterlimit="10.0"><path d="M 592.5801,550.0000 v -5.0000 "/></g><defs></defs><g stroke-linejoin="miter" stroke-opacity="1.0" fill-opacity="0.0" stroke="rgb(0,0,0)" stroke-width="0.9999999999999997" fill="rgb(0,0,0)" stroke-linecap="butt" stroke-miterlimit="10.0"><path d="M 780.2048,550.0000 v -5.0000 "/></g><defs></defs><g stroke-linejoin="bevel" stroke-opacity="0.0" fill-opacity="1.0" stroke="rgb(0,0,0)" stroke-width="0.0" fill="rgb(0,0,0)" stroke-linecap="butt" stroke-miterlimit="10.0"><path d="M 27.5578,570.0000 ZM 30.1733,570.1261 c -1.0189,-0.0000 -1.5861,-0.9034 -1.5861 -0.9034c -0.5672,-0.9034 -0.5672,-2.5945 -0.5672 -2.5945c 0.0000,-1.6912 0.5672,-2.5735 0.5672 -2.5735c 0.5672,-0.8824 1.5861,-0.8824 1.5861 -0.8824c 1.0084,0.0000 1.5756,0.8824 1.5756 0.8824c 0.5672,0.8824 0.5672,2.5735 0.5672 2.5735c 0.0000,1.6912 -0.5672,2.5945 -0.5672 2.5945c -0.5672,0.9034 -1.5756,0.9034 -1.5756 0.9034ZM 30.1733,570.1261 ZM 30.1733,569.4328 c 0.2941,0.0000 0.5305,-0.1628 0.5305 -0.1628c 0.2363,-0.1628 0.4097,-0.5042 0.4097 -0.5042c 0.1733,-0.3414 0.2679,-0.8718 0.2679 -0.8718c 0.0945,-0.5305 0.0945,-1.2658 0.0945 -1.2658c 0.0000,-0.7353 -0.0945,-1.2605 -0.0945 -1.2605c -0.0945,-0.5252 -0.2679,-0.8561 -0.2679 -0.8561c -0.1733,-0.3309 -0.4097,-0.4884 -0.4097 -0.4884c -0.2363,-0.1576 -0.5305,-0.1576 -0.5305 -0.1576c -0.2941,-0.0000 -0.5357,0.1576 -0.5357 0.1576c -0.2416,0.1576 -0.4149,0.4884 -0.4149 0.4884c -0.1733,0.3309 -0.2679,0.8561 -0.2679 0.8561c -0.0945,0.5252 -0.0945,1.2605 -0.0945 1.2605c 0.0000,1.4706 0.3624,2.1376 0.3624 2.1376c 0.3624,0.6670 0.9506,0.6670 0.9506 0.6670Z"/></g><defs></defs><g stroke-linejoin="bevel" stroke-opacity="0.0" fill-opacity="1.0" stroke="rgb(0,0,0)" stroke-width="0.0" fill="rgb(0,0,0)" stroke-linecap="butt" stroke-miterlimit="10.0"><path d="M 209.9199,570.0000 ZM 210.3401,569.4853 c 0.7563,-0.7563 1.3445,-1.3655 1.3445 -1.3655c 0.5882,-0.6092 0.9874,-1.1292 0.9874 -1.1292c 0.3992,-0.5200 0.6092,-0.9559 0.6092 -0.9559c 0.2101,-0.4359 0.2101,-0.8456 0.2101 -0.8456c 0.0000,-0.5777 -0.3151,-0.9454 -0.3151 -0.9454c -0.3151,-0.3676 -0.9559,-0.3676 -0.9559 -0.3676c -0.4202,-0.0000 -0.7773,0.2363 -0.7773 0.2363c -0.3571,0.2363 -0.6513,0.5725 -0.6513 0.5725l -0.4937,-0.4937 c 0.4202,-0.4622 0.8929,-0.7405 0.8929 -0.7405c 0.4727,-0.2784 1.1345,-0.2784 1.1345 -0.2784c 0.9349,0.0000 1.4706,0.5410 1.4706 0.5410c 0.5357,0.5410 0.5357,1.4338 0.5357 1.4338c 0.0000,0.4727 -0.2048,0.9506 -0.2048 0.9506c -0.2048,0.4779 -0.5672,0.9874 -0.5672 0.9874c -0.3624,0.5095 -0.8613,1.0609 -0.8613 1.0609c -0.4989,0.5515 -1.0977,1.1712 -1.0977 1.1712c 0.2731,-0.0210 0.5672,-0.0420 0.5672 -0.0420c 0.2941,-0.0210 0.5567,-0.0210 0.5567 -0.0210h 1.9433 v 0.7458 h -4.3277 v -0.5147 ZM 215.1405,570.0000 ZM 215.8233,568.6450 c 0.2941,0.3046 0.6985,0.5357 0.6985 0.5357c 0.4044,0.2311 0.9926,0.2311 0.9926 0.2311c 0.3046,0.0000 0.5725,-0.1103 0.5725 -0.1103c 0.2679,-0.1103 0.4674,-0.3099 0.4674 -0.3099c 0.1996,-0.1996 0.3151,-0.4832 0.3151 -0.4832c 0.1155,-0.2836 0.1155,-0.6303 0.1155 -0.6303c 0.0000,-0.6933 -0.3887,-1.0819 -0.3887 -1.0819c -0.3887,-0.3887 -1.0399,-0.3887 -1.0399 -0.3887c -0.3466,-0.0000 -0.5935,0.1050 -0.5935 0.1050c -0.2468,0.1050 -0.5515,0.3046 -0.5515 0.3046l -0.4622,-0.2941 l 0.2206,-3.2248 h 3.3508 v 0.7458 h -2.5945 l -0.1786,1.9853 c 0.2416,-0.1261 0.4832,-0.1996 0.4832 -0.1996c 0.2416,-0.0735 0.5462,-0.0735 0.5462 -0.0735c 0.4307,0.0000 0.8088,0.1261 0.8088 0.1261c 0.3782,0.1261 0.6618,0.3834 0.6618 0.3834c 0.2836,0.2574 0.4464,0.6513 0.4464 0.6513c 0.1628,0.3939 0.1628,0.9401 0.1628 0.9401c 0.0000,0.5462 -0.1891,0.9664 -0.1891 0.9664c -0.1891,0.4202 -0.5042,0.7090 -0.5042 0.7090c -0.3151,0.2889 -0.7195,0.4412 -0.7195 0.4412c -0.4044,0.1523 -0.8456,0.1523 -0.8456 0.1523c -0.3992,-0.0000 -0.7300,-0.0788 -0.7300 -0.0788c -0.3309,-0.0788 -0.5987,-0.2048 -0.5987 -0.2048c -0.2679,-0.1261 -0.4832,-0.2889 -0.4832 -0.2889c -0.2153,-0.1628 -0.3834,-0.3414 -0.3834 -0.3414ZM 220.3611,570.0000 ZM 222.9766,570.1261 c -1.0189,-0.0000 -1.5861,-0.9034 -1.5861 -0.9034c -0.5672,-0.9034 -0.5672,-2.5945 -0.5672 -2.5945c 0.0000,-1.6912 0.5672,-2.5735 0.5672 -2.5735c 0.5672,-0.8824 1.5861,-0.8824 1.5861 -0.8824c 1.0084,0.0000 1.5756,0.8824 1.5756 0.8824c 0.5672,0.8824 0.5672,2.5735 0.5672 2.5735c 0.0000,1.6912 -0.5672,2.5945 -0.5672 2.5945c -0.5672,0.9034 -1.5756,0.9034 -1.5756 0.9034ZM 222.9766,570.1261 ZM 222.9766,569.4328 c 0.2941,0.0000 0.5305,-0.1628 0.5305 -0.1628c 0.2363,-0.1628 0.4097,-0.5042 0.4097 -0.5042c 0.1733,-0.3414 0.2679,-0.8718 0.2679 -0.8718c 0.0945,-0.5305 0.0945,-1.2658 0.0945 -1.2658c 0.0000,-0.7353 -0.0945,-1.2605 -0.0945 -1.2605c -0.0945,-0.5252 -0.2679,-0.8561 -0.2679 -0.8561c -0.1733,-0.3309 -0.4097,-0.4884 -0.4097 -0.4884c -0.2363,-0.1576 -0.5305,-0.1576 -0.5305 -0.1576c -0.2941,-0.0000 -0.5357,0.1576 -0.5357 0.1576c -0.2416,0.1576 -0.4149,0.4884 -0.4149 0.4884c -0.1733,0.3309 -0.2679,0.8561 -0.2679 0.8561c -0.0945,0.5252 -0.0945,1.2605 -0.0945 1.2605c 0.0000,1.4706 0.3624,2.1376 0.3624 2.1376c 0.3624,0.6670 0.9506,0.6670 0.9506 0.6670Z"/></g><defs></defs><g stroke-linejoin="bevel" stroke-opacity="0.0" fill-opacity="1.0" stroke="rgb(0,0,0)" stroke-width="0.0" fill="rgb(0,0,0)" stroke-linecap="butt" stroke-miterlimit="10.0"><path d="M 397.4869,570.0000 ZM 398.1696,568.6450 c 0.2941,0.3046 0.6985,0.5357 0.6985 0.5357c 0.4044,0.2311 0.9926,0.2311 0.9926 0.2311c 0.3046,0.0000 0.5725,-0.1103 0.5725 -0.1103c 0.2679,-0.1103 0.4674,-0.3099 0.4674 -0.3099c 0.1996,-0.1996 0.3151,-0.4832 0.3151 -0.4832c 0.1155,-0.2836 0.1155,-0.6303 0.1155 -0.6303c 0.0000,-0.6933 -0.3887,-1.0819 -0.3887 -1.0819c -0.3887,-0.3887 -1.0399,-0.3887 -1.0399 -0.3887c -0.3466,-0.0000 -0.5935,0.1050 -0.5935 0.1050c -0.2468,0.1050 -0.5515,0.3046 -0.5515 0.3046l -0.4622,-0.2941 l 0.2206,-3.2248 h 3.3508 v 0.7458 h -2.5945 l -0.1786,1.9853 c 0.2416,-0.1261 0.4832,-0.1996 0.4832 -0.1996c 0.2416,-0.0735 0.5462,-0.0735 0.5462 -0.0735c 0.4307,0.0000 0.8088,0.1261 0.8088 0.1261c 0.3782,0.1261 0.6618,0.3834 0.6618 0.3834c 0.2836,0.2574 0.4464,0.6513 0.4464 0.6513c 0.1628,0.3939 0.1628,0.9401 0.1628 0.9401c 0.0000,0.5462 -0.1891,0.9664 -0.1891 0.9664c -0.1891,0.4202 -0.5042,0.7090 -0.5042 0.7090c -0.3151,0.2889 -0.7195,0.4412 -0.7195 0.4412c -0.4044,0.1523 -0.8456,0.1523 -0.8456 0.1523c -0.3992,-0.0000 -0.7300,-0.0788 -0.7300 -0.0788c -0.3309,-0.0788 -0.5987,-0.2048 -0.5987 -0.2048c -0.2679,-0.1261 -0.4832,-0.2889 -0.4832 -0.2889c -0.2153,-0.1628 -0.3834,-0.3414 -0.3834 -0.3414ZM 402.7075,570.0000 ZM 405.3230,570.1261 c -1.0189,-0.0000 -1.5861,-0.9034 -1.5861 -0.9034c -0.5672,-0.9034 -0.5672,-2.5945 -0.5672 -2.5945c 0.0000,-1.6912 0.5672,-2.5735 0.5672 -2.5735c 0.5672,-0.8824 1.5861,-0.8824 1.5861 -0.8824c 1.0084,0.0000 1.5756,0.8824 1.5756 0.8824c 0.5672,0.8824 0.5672,2.5735 0.5672 2.5735c 0.0000,1.6912 -0.5672,2.5945 -0.5672 2.5945c -0.5672,0.9034 -1.5756,0.9034 -1.5756 0.9034ZM 405.3230,570.1261 ZM 405.3230,569.4328 c 0.2941,0.0000 0.5305,-0.1628 0.5305 -0.1628c 0.2363,-0.1628 0.4097,-0.5042 0.4097 -0.5042c 0.1733,-0.3414 0.2679,-0.8718 0.2679 -0.8718c 0.0945,-0.5305 0.0945,-1.2658 0.0945 -1.2658c 0.0000,-0.7353 -0.0945,-1.2605 -0.0945 -1.2605c -0.0945,-0.5252 -0.2679,-0.8561 -0.2679 -0.8561c -0.1733,-0.3309 -0.4097,-0.4884 -0.4097 -0.4884c -0.2363,-0.1576 -0.5305,-0.1576 -0.5305 -0.1576c -0.2941,-0.0000 -0.5357,0.1576 -0.5357 0.1576c -0.2416,0.1576 -0.4149,0.4884 -0.4149 0.4884c -0.1733,0.3309 -0.2679,0.8561 -0.2679 0.8561c -0.0945,0.5252 -0.0945,1.2605 -0.0945 1.2605c 0.0000,1.4706 0.3624,2.1376 0.3624 2.1376c 0.3624,0.6670 0.9506,0.6670 0.9506 0.6670ZM 407.9280,570.0000 ZM 410.5436,570.1261 c -1.0189,-0.0000 -1.5861,-0.9034 -1.5861 -0.9034c -0.5672,-0.9034 -0.5672,-2.5945 -0.5672 -2.5945c 0.0000,-1.6912 0.5672,-2.5735 0.5672 -2.5735c 0.5672,-0.8824 1.5861,-0.8824 1.5861 -0.8824c 1.0084,0.0000 1.5756,0.8824 1.5756 0.8824c 0.5672,0.8824 0.5672,2.5735 0.5672 2.5735c 0.0000,1.6912 -0.5672,2.5945 -0.5672 2.5945c -0.5672,0.9034 -1.5756,0.9034 -1.5756 0.9034ZM 410.5436,570.1261 ZM 410.5436,569.4328 c 0.2941,0.0000 0.5305,-0.1628 0.5305 -0.1628c 0.2363,-0.1628 0.4097,-0.5042 0.4097 -0.5042c 0.1733,-0.3414 0.2679,-0.8718 0.2679 -0.8718c 0.0945,-0.5305 0.0945,-1.2658 0.0945 -1.2658c 0.0000,-0.7353 -0.0945,-1.2605 -0.0945 -1.2605c -0.0945,-0.5252 -0.2679,-0.8561 -0.2679 -0.8561c -0.1733,-0.3309 -0.4097,-0.4884 -0.4097 -0.4884c -0.2363,-0.1576 -0.5305,-0.1576 -0.5305 -0.1576c -0.2941,-0.0000 -0.5357,0.1576 -0.5357 0.1576c -0.2416,0.1576 -0.4149,0.4884 -0.4149 0.4884c -0.1733,0.3309 -0.2679,0.8561 -0.2679 0.8561c -0.0945,0.5252 -0.0945,1.2605 -0.0945 1.2605c 0.0000,1.4706 0.3624,2.1376 0.3624 2.1376c 0.3624,0.6670 0.9506,0.6670 0.9506 0.6670Z"/></g><defs></defs><g stroke-linejoin="bevel" stroke-opacity="0.0" fill-opacity="1.0" stroke="rgb(0,0,0)" stroke-width="0.0" fill="rgb(0,0,0)" stroke-linecap="butt" stroke-miterlimit="10.0"><path d="M 585.2114,570.0000 ZM 587.0706,570.0000 c 0.0420,-0.9454 0.1681,-1.7332 0.1681 -1.7332c 0.1261,-0.7878 0.3519,-1.4968 0.3519 -1.4968c 0.2258,-0.7090 0.5777,-1.3708 0.5777 -1.3708c 0.3519,-0.6618 0.8456,-1.3550 0.8456 -1.3550h -3.3403 v -0.7458 h 4.3172 v 0.5357 c -0.5987,0.7563 -0.9716,1.4496 -0.9716 1.4496c -0.3729,0.6933 -0.5935,1.4128 -0.5935 1.4128c -0.2206,0.7195 -0.3204,1.5231 -0.3204 1.5231c -0.0998,0.8036 -0.1418,1.7805 -0.1418 1.7805h -0.8929 h 0.0000 ZM 590.4320,570.0000 ZM 591.1148,568.6450 c 0.2941,0.3046 0.6985,0.5357 0.6985 0.5357c 0.4044,0.2311 0.9926,0.2311 0.9926 0.2311c 0.3046,0.0000 0.5725,-0.1103 0.5725 -0.1103c 0.2679,-0.1103 0.4674,-0.3099 0.4674 -0.3099c 0.1996,-0.1996 0.3151,-0.4832 0.3151 -0.4832c 0.1155,-0.2836 0.1155,-0.6303 0.1155 -0.6303c 0.0000,-0.6933 -0.3887,-1.0819 -0.3887 -1.0819c -0.3887,-0.3887 -1.0399,-0.3887 -1.0399 -0.3887c -0.3466,-0.0000 -0.5935,0.1050 -0.5935 0.1050c -0.2468,0.1050 -0.5515,0.3046 -0.5515 0.3046l -0.4622,-0.2941 l 0.2206,-3.2248 h 3.3508 v 0.7458 h -2.5945 l -0.1786,1.9853 c 0.2416,-0.1261 0.4832,-0.1996 0.4832 -0.1996c 0.2416,-0.0735 0.5462,-0.0735 0.5462 -0.0735c 0.4307,0.0000 0.8088,0.1261 0.8088 0.1261c 0.3782,0.1261 0.6618,0.3834 0.6618 0.3834c 0.2836,0.2574 0.4464,0.6513 0.4464 0.6513c 0.1628,0.3939 0.1628,0.9401 0.1628 0.9401c 0.0000,0.5462 -0.1891,0.9664 -0.1891 0.9664c -0.1891,0.4202 -0.5042,0.7090 -0.5042 0.7090c -0.3151,0.2889 -0.7195,0.4412 -0.7195 0.4412c -0.4044,0.1523 -0.8456,0.1523 -0.8456 0.1523c -0.3992,-0.0000 -0.7300,-0.0788 -0.7300 -0.0788c -0.3309,-0.0788 -0.5987,-0.2048 -0.5987 -0.2048c -0.2679,-0.1261 -0.4832,-0.2889 -0.4832 -0.2889c -0.2153,-0.1628 -0.3834,-0.3414 -0.3834 -0.3414ZM 595.6526,570.0000 ZM 598.2681,570.1261 c -1.0189,-0.0000 -1.5861,-0.9034 -1.5861 -0.9034c -0.5672,-0.9034 -0.5672,-2.5945 -0.5672 -2.5945c 0.0000,-1.6912 0.5672,-2.5735 0.5672 -2.5735c 0.5672,-0.8824 1.5861,-0.8824 1.5861 -0.8824c 1.0084,0.0000 1.5756,0.8824 1.5756 0.8824c 0.5672,0.8824 0.5672,2.5735 0.5672 2.5735c 0.0000,1.6912 -0.5672,2.5945 -0.5672 2.5945c -0.5672,0.9034 -1.5756,0.9034 -1.5756 0.9034ZM 598.2681,570.1261 ZM 598.2681,569.4328 c 0.2941,0.0000 0.5305,-0.1628 0.5305 -0.1628c 0.2363,-0.1628 0.4097,-0.5042 0.4097 -0.5042c 0.1733,-0.3414 0.2679,-0.8718 0.2679 -0.8718c 0.0945,-0.5305 0.0945,-1.2658 0.0945 -1.2658c 0.0000,-0.7353 -0.0945,-1.2605 -0.0945 -1.2605c -0.0945,-0.5252 -0.2679,-0.8561 -0.2679 -0.8561c -0.1733,-0.3309 -0.4097,-0.4884 -0.4097 -0.4884c -0.2363,-0.1576 -0.5305,-0.1576 -0.5305 -0.1576c -0.2941,-0.0000 -0.5357,0.1576 -0.5357 0.1576c -0.2416,0.1576 -0.4149,0.4884 -0.4149 0.4884c -0.1733,0.3309 -0.2679,0.8561 -0.2679 0.8561c -0.0945,0.5252 -0.0945,1.2605 -0.0945 1.2605c 0.0000,1.4706 0.3624,2.1376 0.3624 2.1376c 0.3624,0.6670 0.9506,0.6670 0.9506 0.6670Z"/></g><defs></defs><g stroke-linejoin="bevel" stroke-opacity="0.0" fill-opacity="1.0" stroke="rgb(0,0,0)" stroke-width="0.0" fill="rgb(0,0,0)" stroke-linecap="butt" stroke-miterlimit="10.0"><path d="M 770.4097,570.0000 ZM 771.2395,569.2857 h 1.5336 v -4.9370 h -1.2185 v -0.5567 c 0.4622,-0.0840 0.8036,-0.2048 0.8036 -0.2048c 0.3414,-0.1208 0.6145,-0.2889 0.6145 -0.2889h 0.6618 v 5.9874 h 1.3866 v 0.7143 h -3.7815 v -0.7143 ZM 775.6303,570.0000 ZM 778.2458,570.1261 c -1.0189,-0.0000 -1.5861,-0.9034 -1.5861 -0.9034c -0.5672,-0.9034 -0.5672,-2.5945 -0.5672 -2.5945c 0.0000,-1.6912 0.5672,-2.5735 0.5672 -2.5735c 0.5672,-0.8824 1.5861,-0.8824 1.5861 -0.8824c 1.0084,0.0000 1.5756,0.8824 1.5756 0.8824c 0.5672,0.8824 0.5672,2.5735 0.5672 2.5735c 0.0000,1.6912 -0.5672,2.5945 -0.5672 2.5945c -0.5672,0.9034 -1.5756,0.9034 -1.5756 0.9034ZM 778.2458,570.1261 ZM 778.2458,569.4328 c 0.2941,0.0000 0.5305,-0.1628 0.5305 -0.1628c 0.2363,-0.1628 0.4097,-0.5042 0.4097 -0.5042c 0.1733,-0.3414 0.2679,-0.8718 0.2679 -0.8718c 0.0945,-0.5305 0.0945,-1.2658 0.0945 -1.2658c 0.0000,-0.7353 -0.0945,-1.2605 -0.0945 -1.2605c -0.0945,-0.5252 -0.2679,-0.8561 -0.2679 -0.8561c -0.1733,-0.3309 -0.4097,-0.4884 -0.4097 -0.4884c -0.2363,-0.1576 -0.5305,-0.1576 -0.5305 -0.1576c -0.2941,-0.0000 -0.5357,0.1576 -0.5357 0.1576c -0.2416,0.1576 -0.4149,0.4884 -0.4149 0.4884c -0.1733,0.3309 -0.2679,0.8561 -0.2679 0.8561c -0.0945,0.5252 -0.0945,1.2605 -0.0945 1.2605c 0.0000,1.4706 0.3624,2.1376 0.3624 2.1376c 0.3624,0.6670 0.9506,0.6670 0.9506 0.6670ZM 780.8508,570.0000 ZM 783.4664,570.1261 c -1.0189,-0.0000 -1.5861,-0.9034 -1.5861 -0.9034c -0.5672,-0.9034 -0.5672,-2.5945 -0.5672 -2.5945c 0.0000,-1.6912 0.5672,-2.5735 0.5672 -2.5735c 0.5672,-0.8824 1.5861,-0.8824 1.5861 -0.8824c 1.0084,0.0000 1.5756,0.8824 1.5756 0.8824c 0.5672,0.8824 0.5672,2.5735 0.5672 2.5735c 0.0000,1.6912 -0.5672,2.5945 -0.5672 2.5945c -0.5672,0.9034 -1.5756,0.9034 -1.5756 0.9034ZM 783.4664,570.1261 ZM 783.4664,569.4328 c 0.2941,0.0000 0.5305,-0.1628 0.5305 -0.1628c 0.2363,-0.1628 0.4097,-0.5042 0.4097 -0.5042c 0.1733,-0.3414 0.2679,-0.8718 0.2679 -0.8718c 0.0945,-0.5305 0.0945,-1.2658 0.0945 -1.2658c 0.0000,-0.7353 -0.0945,-1.2605 -0.0945 -1.2605c -0.0945,-0.5252 -0.2679,-0.8561 -0.2679 -0.8561c -0.1733,-0.3309 -0.4097,-0.4884 -0.4097 -0.4884c -0.2363,-0.1576 -0.5305,-0.1576 -0.5305 -0.1576c -0.2941,-0.0000 -0.5357,0.1576 -0.5357 0.1576c -0.2416,0.1576 -0.4149,0.4884 -0.4149 0.4884c -0.1733,0.3309 -0.2679,0.8561 -0.2679 0.8561c -0.0945,0.5252 -0.0945,1.2605 -0.0945 1.2605c 0.0000,1.4706 0.3624,2.1376 0.3624 2.1376c 0.3624,0.6670 0.9506,0.6670 0.9506 0.6670ZM 786.0714,570.0000 ZM 788.6870,570.1261 c -1.0189,-0.0000 -1.5861,-0.9034 -1.5861 -0.9034c -0.5672,-0.9034 -0.5672,-2.5945 -0.5672 -2.5945c 0.0000,-1.6912 0.5672,-2.5735 0.5672 -2.5735c 0.5672,-0.8824 1.5861,-0.8824 1.5861 -0.8824c 1.0084,0.0000 1.5756,0.8824 1.5756 0.8824c 0.5672,0.8824 0.5672,2.5735 0.5672 2.5735c 0.0000,1.6912 -0.5672,2.5945 -0.5672 2.5945c -0.5672,0.9034 -1.5756,0.9034 -1.5756 0.9034ZM 788.6870,570.1261 ZM 788.6870,569.4328 c 0.2941,0.0000 0.5305,-0.1628 0.5305 -0.1628c 0.2363,-0.1628 0.4097,-0.5042 0.4097 -0.5042c 0.1733,-0.3414 0.2679,-0.8718 0.2679 -0.8718c 0.0945,-0.5305 0.0945,-1.2658 0.0945 -1.2658c 0.0000,-0.7353 -0.0945,-1.2605 -0.0945 -1.2605c -0.0945,-0.5252 -0.2679,-0.8561 -0.2679 -0.8561c -0.1733,-0.3309 -0.4097,-0.4884 -0.4097 -0.4884c -0.2363,-0.1576 -0.5305,-0.1576 -0.5305 -0.1576c -0.2941,-0.0000 -0.5357,0.1576 -0.5357 0.1576c -0.2416,0.1576 -0.4149,0.4884 -0.4149 0.4884c -0.1733,0.3309 -0.2679,0.8561 -0.2679 0.8561c -0.0945,0.5252 -0.0945,1.2605 -0.0945 1.2605c 0.0000,1.4706 0.3624,2.1376 0.3624 2.1376c 0.3624,0.6670 0.9506,0.6670 0.9506 0.6670Z"/></g><defs></defs><g stroke-linejoin="round" stroke-opacity="1.0" fill-opacity="0.0" stroke="rgb(0,0,255)" stroke-width="0.9999999999999997" fill="rgb(0,0,0)" stroke-linecap="round" stroke-miterlimit="10.0"><path d="M 10.0000,585.0000 h 20.0000 "/></g><defs></defs><g stroke-linejoin="bevel" stroke-opacity="0.0" fill-opacity="1.0" stroke="rgb(0,0,0)" stroke-width="0.0" fill="rgb(0,0,0)" stroke-linecap="butt" stroke-miterlimit="10.0"><path d="M 35.0735,586.6071 ZM 36.0819,582.2059 h -0.7563 v -0.6513 l 0.7983,-0.0525 l 0.1050,-1.4286 h 0.7248 v 1.4286 h 1.3761 v 0.7038 h -1.3761 v 2.8361 c 0.0000,0.4727 0.1733,0.7300 0.1733 0.7300c 0.1733,0.2574 0.6145,0.2574 0.6145 0.2574c 0.1366,0.0000 0.2941,-0.0420 0.2941 -0.0420c 0.1576,-0.0420 0.2836,-0.0945 0.2836 -0.0945l 0.1681,0.6513 c -0.2101,0.0735 -0.4569,0.1313 -0.4569 0.1313c -0.2468,0.0578 -0.4884,0.0578 -0.4884 0.0578c -0.4097,-0.0000 -0.6880,-0.1261 -0.6880 -0.1261c -0.2784,-0.1261 -0.4517,-0.3466 -0.4517 -0.3466c -0.1733,-0.2206 -0.2468,-0.5357 -0.2468 -0.5357c -0.0735,-0.3151 -0.0735,-0.6933 -0.0735 -0.6933v -2.8256 ZM 38.6239,586.6071 ZM 39.9265,580.4517 c -0.2521,-0.0000 -0.4254,-0.1576 -0.4254 -0.1576c -0.1733,-0.1576 -0.1733,-0.3992 -0.1733 -0.3992c 0.0000,-0.2521 0.1733,-0.4044 0.1733 -0.4044c 0.1733,-0.1523 0.4254,-0.1523 0.4254 -0.1523c 0.2521,0.0000 0.4254,0.1523 0.4254 0.1523c 0.1733,0.1523 0.1733,0.4044 0.1733 0.4044c 0.0000,0.2416 -0.1733,0.3992 -0.1733 0.3992c -0.1733,0.1576 -0.4254,0.1576 -0.4254 0.1576ZM 39.9265,580.4517 ZM 39.4853,581.5021 h 0.8613 v 5.1050 h -0.8613 v -5.1050 ZM 41.2080,586.6071 ZM 42.0693,581.5021 h 0.7143 l 0.0735,0.7353 h 0.0315 c 0.3361,-0.3676 0.7300,-0.6145 0.7300 -0.6145c 0.3939,-0.2468 0.8561,-0.2468 0.8561 -0.2468c 0.5882,0.0000 0.9191,0.2574 0.9191 0.2574c 0.3309,0.2574 0.4884,0.7195 0.4884 0.7195c 0.3992,-0.4412 0.8036,-0.7090 0.8036 -0.7090c 0.4044,-0.2679 0.8771,-0.2679 0.8771 -0.2679c 0.7878,0.0000 1.1712,0.5042 1.1712 0.5042c 0.3834,0.5042 0.3834,1.4916 0.3834 1.4916v 3.2353 h -0.8613 v -3.1197 c 0.0000,-0.7248 -0.2311,-1.0452 -0.2311 -1.0452c -0.2311,-0.3204 -0.7143,-0.3204 -0.7143 -0.3204c -0.5777,-0.0000 -1.2815,0.7878 -1.2815 0.7878v 3.6975 h -0.8613 v -3.1197 c 0.0000,-0.7248 -0.2311,-1.0452 -0.2311 -1.0452c -0.2311,-0.3204 -0.7248,-0.3204 -0.7248 -0.3204c -0.5777,-0.0000 -1.2815,0.7878 -1.2815 0.7878v 3.6975 h -0.8613 v -5.1050 ZM 49.9160,586.6071 ZM 50.3992,584.0651 c 0.0000,-0.6303 0.1943,-1.1292 0.1943 -1.1292c 0.1943,-0.4989 0.5147,-0.8456 0.5147 -0.8456c 0.3204,-0.3466 0.7300,-0.5305 0.7300 -0.5305c 0.4097,-0.1838 0.8508,-0.1838 0.8508 -0.1838c 0.4832,0.0000 0.8666,0.1681 0.8666 0.1681c 0.3834,0.1681 0.6408,0.4832 0.6408 0.4832c 0.2574,0.3151 0.3939,0.7563 0.3939 0.7563c 0.1366,0.4412 0.1366,0.9874 0.1366 0.9874c 0.0000,0.2836 -0.0315,0.4727 -0.0315 0.4727h -3.4454 c 0.0525,0.8298 0.5095,1.3130 0.5095 1.3130c 0.4569,0.4832 1.1922,0.4832 1.1922 0.4832c 0.3676,0.0000 0.6775,-0.1103 0.6775 -0.1103c 0.3099,-0.1103 0.5935,-0.2889 0.5935 -0.2889l 0.3046,0.5672 c -0.3361,0.2101 -0.7458,0.3676 -0.7458 0.3676c -0.4097,0.1576 -0.9349,0.1576 -0.9349 0.1576c -0.5147,-0.0000 -0.9611,-0.1838 -0.9611 -0.1838c -0.4464,-0.1838 -0.7773,-0.5252 -0.7773 -0.5252c -0.3309,-0.3414 -0.5200,-0.8351 -0.5200 -0.8351c -0.1891,-0.4937 -0.1891,-1.1239 -0.1891 -1.1239ZM 50.3992,584.0651 ZM 53.9706,583.6765 c 0.0000,-0.7878 -0.3309,-1.2027 -0.3309 -1.2027c -0.3309,-0.4149 -0.9296,-0.4149 -0.9296 -0.4149c -0.2731,-0.0000 -0.5200,0.1103 -0.5200 0.1103c -0.2468,0.1103 -0.4464,0.3151 -0.4464 0.3151c -0.1996,0.2048 -0.3309,0.5042 -0.3309 0.5042c -0.1313,0.2994 -0.1733,0.6880 -0.1733 0.6880h 2.7311 ZM 57.2479,586.6071 ZM 57.7311,584.0651 c 0.0000,-0.6303 0.1943,-1.1292 0.1943 -1.1292c 0.1943,-0.4989 0.5147,-0.8456 0.5147 -0.8456c 0.3204,-0.3466 0.7300,-0.5305 0.7300 -0.5305c 0.4097,-0.1838 0.8508,-0.1838 0.8508 -0.1838c 0.4832,0.0000 0.8666,0.1681 0.8666 0.1681c 0.3834,0.1681 0.6408,0.4832 0.6408 0.4832c 0.2574,0.3151 0.3939,0.7563 0.3939 0.7563c 0.1366,0.4412 0.1366,0.9874 0.1366 0.9874c 0.0000,0.2836 -0.0315,0.4727 -0.0315 0.4727h -3.4454 c 0.0525,0.8298 0.5095,1.3130 0.5095 1.3130c 0.4569,0.4832 1.1922,0.4832 1.1922 0.4832c 0.3676,0.0000 0.6775,-0.1103 0.6775 -0.1103c 0.3099,-0.1103 0.5935,-0.2889 0.5935 -0.2889l 0.3046,0.5672 c -0.3361,0.2101 -0.7458,0.3676 -0.7458 0.3676c -0.4097,0.1576 -0.9349,0.1576 -0.9349 0.1576c -0.5147,-0.0000 -0.9611,-0.1838 -0.9611 -0.1838c -0.4464,-0.1838 -0.7773,-0.5252 -0.7773 -0.5252c -0.3309,-0.3414 -0.5200,-0.8351 -0.5200 -0.8351c -0.1891,-0.4937 -0.1891,-1.1239 -0.1891 -1.1239ZM 57.7311,584.0651 ZM 61.3025,583.6765 c 0.0000,-0.7878 -0.3309,-1.2027 -0.3309 -1.2027c -0.3309,-0.4149 -0.9296,-0.4149 -0.9296 -0.4149c -0.2731,-0.0000 -0.5200,0.1103 -0.5200 0.1103c -0.2468,0.1103 -0.4464,0.3151 -0.4464 0.3151c -0.1996,0.2048 -0.3309,0.5042 -0.3309 0.5042c -0.1313,0.2994 -0.1733,0.6880 -0.1733 0.6880h 2.7311 ZM 62.4580,586.6071 ZM 63.3193,581.5021 h 0.7143 l 0.0735,0.9244 h 0.0315 c 0.2626,-0.4832 0.6355,-0.7668 0.6355 -0.7668c 0.3729,-0.2836 0.8141,-0.2836 0.8141 -0.2836c 0.3046,0.0000 0.5462,0.1050 0.5462 0.1050l -0.1681,0.7563 c -0.1261,-0.0420 -0.2311,-0.0630 -0.2311 -0.0630c -0.1050,-0.0210 -0.2626,-0.0210 -0.2626 -0.0210c -0.3256,-0.0000 -0.6775,0.2626 -0.6775 0.2626c -0.3519,0.2626 -0.6145,0.9139 -0.6145 0.9139v 3.2773 h -0.8613 v -5.1050 ZM 66.1029,586.6071 ZM 66.9643,581.5021 h 0.7143 l 0.0735,0.9244 h 0.0315 c 0.2626,-0.4832 0.6355,-0.7668 0.6355 -0.7668c 0.3729,-0.2836 0.8141,-0.2836 0.8141 -0.2836c 0.3046,0.0000 0.5462,0.1050 0.5462 0.1050l -0.1681,0.7563 c -0.1261,-0.0420 -0.2311,-0.0630 -0.2311 -0.0630c -0.1050,-0.0210 -0.2626,-0.0210 -0.2626 -0.0210c -0.3256,-0.0000 -0.6775,0.2626 -0.6775 0.2626c -0.3519,0.2626 -0.6145,0.9139 -0.6145 0.9139v 3.2773 h -0.8613 v -5.1050 ZM 69.6429,586.6071 ZM 70.1261,584.0651 c 0.0000,-0.6408 0.1943,-1.1397 0.1943 -1.1397c 0.1943,-0.4989 0.5200,-0.8456 0.5200 -0.8456c 0.3256,-0.3466 0.7511,-0.5252 0.7511 -0.5252c 0.4254,-0.1786 0.8981,-0.1786 0.8981 -0.1786c 0.4727,0.0000 0.8981,0.1786 0.8981 0.1786c 0.4254,0.1786 0.7511,0.5252 0.7511 0.5252c 0.3256,0.3466 0.5200,0.8456 0.5200 0.8456c 0.1943,0.4989 0.1943,1.1397 0.1943 1.1397c 0.0000,0.6303 -0.1943,1.1292 -0.1943 1.1292c -0.1943,0.4989 -0.5200,0.8403 -0.5200 0.8403c -0.3256,0.3414 -0.7511,0.5200 -0.7511 0.5200c -0.4254,0.1786 -0.8981,0.1786 -0.8981 0.1786c -0.4727,-0.0000 -0.8981,-0.1786 -0.8981 -0.1786c -0.4254,-0.1786 -0.7511,-0.5200 -0.7511 -0.5200c -0.3256,-0.3414 -0.5200,-0.8403 -0.5200 -0.8403c -0.1943,-0.4989 -0.1943,-1.1292 -0.1943 -1.1292ZM 70.1261,584.0651 ZM 71.0189,584.0651 c 0.0000,0.4412 0.1050,0.7983 0.1050 0.7983c 0.1050,0.3571 0.2994,0.6145 0.2994 0.6145c 0.1943,0.2574 0.4674,0.3992 0.4674 0.3992c 0.2731,0.1418 0.5987,0.1418 0.5987 0.1418c 0.3256,0.0000 0.5987,-0.1418 0.5987 -0.1418c 0.2731,-0.1418 0.4674,-0.3992 0.4674 -0.3992c 0.1943,-0.2574 0.2994,-0.6145 0.2994 -0.6145c 0.1050,-0.3571 0.1050,-0.7983 0.1050 -0.7983c 0.0000,-0.4412 -0.1050,-0.8036 -0.1050 -0.8036c -0.1050,-0.3624 -0.2994,-0.6250 -0.2994 -0.6250c -0.1943,-0.2626 -0.4674,-0.4044 -0.4674 -0.4044c -0.2731,-0.1418 -0.5987,-0.1418 -0.5987 -0.1418c -0.3256,-0.0000 -0.5987,0.1418 -0.5987 0.1418c -0.2731,0.1418 -0.4674,0.4044 -0.4674 0.4044c -0.1943,0.2626 -0.2994,0.6250 -0.2994 0.6250c -0.1050,0.3624 -0.1050,0.8036 -0.1050 0.8036ZM 75.3361,586.6071 ZM 76.1975,581.5021 h 0.7143 l 0.0735,0.9244 h 0.0315 c 0.2626,-0.4832 0.6355,-0.7668 0.6355 -0.7668c 0.3729,-0.2836 0.8141,-0.2836 0.8141 -0.2836c 0.3046,0.0000 0.5462,0.1050 0.5462 0.1050l -0.1681,0.7563 c -0.1261,-0.0420 -0.2311,-0.0630 -0.2311 -0.0630c -0.1050,-0.0210 -0.2626,-0.0210 -0.2626 -0.0210c -0.3256,-0.0000 -0.6775,0.2626 -0.6775 0.2626c -0.3519,0.2626 -0.6145,0.9139 -0.6145 0.9139v 3.2773 h -0.8613 v -5.1050 Z"/></g></svg>