<?xml version="1.0" encoding="UTF-8"?>
<!DOCTYPE svg PUBLIC "-//W3C//DTD SVG 1.1//EN"
    "http://www.w3.org/Graphics/SVG/1.1/DTD/svg11.dtd"><svg xmlns="http://www.w3.org/2000/svg" height="600.0000" stroke-opacity="1" viewBox="0 0 800 600" font-size="1" width="800.0000" xmlns:xlink="http://www.w3.org/1999/xlink" stroke="rgb(0,0,0)" version="1.1"><defs></defs><defs></defs><g stroke-linejoin="bevel" stroke-opacity="0.0" fill-opacity="1.0" stroke="rgb(0,0,0)" stroke-width="0.0" fill="rgb(255,255,255)" stroke-linecap="butt" stroke-miterlimit="10.0"><path d="M 0.0000,0.0000 v 600.0000 h 800.0000 v -600.0000 Z"/></g><defs></defs><g stroke-linejoin="miter" stroke-opacity="1.0" fill-opacity="0.0" stroke="rgb(211,211,211)" stroke-width="0.9999999999999997" fill="rgb(0,0,0)" stroke-dashoffset="0.0" stroke-linecap="butt" stroke-miterlimit="10.0" stroke-dasharray="4.999999999999998,4.999999999999998"><path d="M 35.3887,15.0000 v 535.0000 "/></g><defs></defs><g stroke-linejoin="miter" stroke-opacity="1.0" fill-opacity="0.0" stroke="rgb(211,211,211)" stroke-width="0.9999999999999997" fill="rgb(0,0,0)" stroke-dashoffset="0.0" stroke-linecap="butt" stroke-miterlimit="10.0" stroke-dasharray="4.999999999999998,4.999999999999998"><path d="M 221.5927,15.0000 v 535.0000 "/></g><defs></defs><g stroke-linejoin="miter" stroke-opacity="1.0" fill-opacity="0.0" stroke="rgb(211,211,211)" stroke-width="0.9999999999999997" fill="rgb(0,0,0)" stroke-dashoffset="0.0" stroke-linecap="butt" stroke-miterlimit="10.0" stroke-dasharray="4.999999999999998,4.999999999999998"><path d="M 407.7967,15.0000 v 535.0000 "/></g><defs></defs><g stroke-linejoin="miter" stroke-opacity="1.0" fill-opacity="0.0" stroke="rgb(211,211,211)" stroke-width="0.9999999999999997" fill="rgb(0,0,0)" stroke-dashoffset="0.0" stroke-linecap="butt" stroke-miterlimit="10.0" stroke-dasharray="4.999999999999998,4.999999999999998"><path d="M 594.0008,15.0000 v 535.0000 "/></g><defs></defs><g stroke-linejoin="miter" stroke-opacity="1.0" fill-opacity="0.0" stroke="rgb(211,211,211)" stroke-width="0.9999999999999997" fill="rgb(0,0,0)" stroke-dashoffset="0.0" stroke-linecap="butt" stroke-miterlimit="10.0" stroke-dasharray="4.999999999999998,4.999999999999998"><path d="M 780.2048,15.0000 v 535.0000 "/></g><defs></defs><g stroke-linejoin="miter" stroke-opacity="1.0" fill-opacity="0.0" stroke="rgb(211,211,211)" stroke-width="0.9999999999999997" fill="rgb(0,0,0)" stroke-dashoffset="0.0" stroke-linecap="butt" stroke-miterlimit="10.0" stroke-dasharray="4.999999999999998,4.999999999999998"><path d="M 35.3887,550.0000 h 744.8162 "/></g><defs></defs><g stroke-linejoin="miter" stroke-opacity="1.0" fill-opacity="0.0" stroke="rgb(211,211,211)" stroke-width="0.9999999999999997" fill="rgb(0,0,0)" stroke-dashoffset="0.0" stroke-linecap="butt" stroke-miterlimit="10.0" stroke-dasharray="4.999999999999998,4.999999999999998"><path d="M 35.3887,416.2500 h 744.8162 "/></g><defs></defs><g stroke-linejoin="miter" stroke-opacity="1.0" fill-opacity="0.0" stroke="rgb(211,211,211)" stroke-width="0.9999999999999997" fill="rgb(0,0,0)" stroke-dashoffset="0.0" stroke-linecap="butt" stroke-miterlimit="10.0" stroke-dasharray="4.999999999999998,4.999999999999998"><path d="M 35.3887,282.5000 h 744.8162 "/></g><defs></defs><g stroke-linejoin="miter" stroke-opacity="1.0" fill-opacity="0.0" stroke="rgb(211,211,211)" stroke-width="0.9999999999999997" fill="rgb(0,0,0)" stroke-dashoffset="0.0" stroke-linecap="butt" stroke-miterlimit="10.0" stroke-dasharray="4.999999999999998,4.999999999999998"><path d="M 35.3887,148.7500 h 744.8162 "/></g><defs></defs><g stroke-linejoin="miter" stroke-opacity="1.0" fill-opacity="0.0" stroke="rgb(211,211,211)" stroke-width="0.9999999999999997" fill="rgb(0,0,0)" stroke-dashoffset="0.0" stroke-linecap="butt" stroke-miterlimit="10.0" stroke-dasharray="4.999999999999998,4.999999999999998"><path d="M 35.3887,15.0000 h 744.8162 "/></g><defs></defs><g stroke-linejoin="round" stroke-opacity="1.0" fill-opacity="0.0" stroke="rgb(0,0,255)" stroke-width="0.9999999999999997" fill="rgb(0,0,0)" stroke-linecap="round" stroke-miterlimit="10.0"><defs><clipPath id="myClip1"><path d="M 35.3887,15.0000 v 535.0000 h 744.8162 v -535.0000 Z"/></clipPath></defs><g clip-path="url(#myClip1)"><path d="M 36.1335,530.7407 l 0.7448,-216.7804 l 0.7448,-70.7264 l 0.7448,169.3944 l 0.7448,62.8945 l 0.7448,-224.5897 l 0.7448,-219.7400 l 0.7448,401.9850 l 0.7448,-286.6358 l 0.7448,270.9936 l 0.7448,-62.5729 l 0.7448,45.5075 l 0.7448,-331.2741 l 0.7448,408.3061 l 0.7448,-351.5672 l 0.7448,24.4533 l 0.7448,252.9996 l 0.7448,-91.2643 l 0.7448,-258.8736 l 0.7448,60.1111 l 0.7448,391.1704 l 0.7448,-174.9897 l 0.7448,74.8811 l 0.7448,-86.4869 l 0.7448,132.9902 l 0.7448,28.9711 l 0.7448,-188.0972 l 0.7448,174.5795 l 0.7448,-69.6357 l 0.7448,-215.9422 l 0.7448,248.4875 l 0.7448,-17.5340 l 0.7448,-148.9109 l 0.7448,-217.8340 l 0.7448,346.4753 l 0.7448,-61.6206 l 0.7448,-144.9837 l 0.7448,53.1251 l 0.7448,51.1724 l 0.7448,215.0767 l 0.7448,-293.2719 l 0.7448,42.6667 l 0.7448,83.5624 l 0.7448,-241.8439 l 0.7448,411.1925 l 0.7448,-223.9577 l 0.7448,183.0071 l 0.7448,-149.6334 l 0.7448,35.7815 l 0.7448,-189.6324 l 0.7448,202.6477 l 0.7448,169.1771 l 0.7448,-48.8531 l 0.7448,-51.4237 l 0.7448,-84.7215 l 0.7448,42.0991 l 0.7448,-327.1552 l 0.7448,26.1789 l 0.7448,367.6493 l 0.7448,-73.7974 l 0.7448,-16.7882 l 0.7448,-95.6640 l 0.7448,-50.9169 l 0.7448,73.5752 l 0.7448,-87.3341 l 0.7448,201.9334 l 0.7448,-200.1369 l 0.7448,-109.3188 l 0.7448,226.9154 l 0.7448,-19.2644 l 0.7448,-40.1916 l 0.7448,-188.9659 l 0.7448,76.8783 l 0.7448,-100.4634 l 0.7448,128.5410 l 0.7448,-89.7773 l 0.7448,108.6945 l 0.7448,287.5179 l 0.7448,-7.3478 l 0.7448,-9.9332 l 0.7448,57.5870 l 0.7448,-108.6836 l 0.7448,-252.0378 l 0.7448,165.9262 l 0.7448,-41.8784 l 0.7448,-100.4091 l 0.7448,189.3866 l 0.7448,-87.1499 l 0.7448,-0.1048 l 0.7448,228.0802 l 0.7448,-494.0430 l 0.7448,36.6165 l 0.7448,428.9159 l 0.7448,-42.6020 l 0.7448,-386.1468 l 0.7448,249.7093 l 0.7448,-202.9240 l 0.7448,149.0883 l 0.7448,258.4862 l 0.7448,-206.6053 l 0.7448,191.6253 l 0.7448,-154.8348 l 0.7448,138.5011 l 0.7448,-203.2386 l 0.7448,76.8708 l 0.7448,11.9110 l 0.7448,-152.8506 l 0.7448,193.6358 l 0.7448,-59.0727 l 0.7448,0.7403 l 0.7448,143.4810 l 0.7448,-249.1619 l 0.7448,120.3950 l 0.7448,-252.7623 l 0.7448,347.4549 l 0.7448,-354.8609 l 0.7448,191.9336 l 0.7448,-78.5429 l 0.7448,166.9181 l 0.7448,-67.3615 l 0.7448,205.2929 l 0.7448,-95.5894 l 0.7448,-83.2135 l 0.7448,153.8472 l 0.7448,-451.9183 l 0.7448,104.8908 l 0.7448,46.0841 l 0.7448,-13.9026 l 0.7448,198.4506 l 0.7448,49.8071 l 0.7448,-254.0379 l 0.7448,185.2323 l 0.7448,12.2037 l 0.7448,-158.2309 l 0.7448,271.2770 l 0.7448,-176.6804 l 0.7448,-5.8356 l 0.7448,-193.8002 l 0.7448,-25.4921 l 0.7448,375.8016 l 0.7448,-296.5348 l 0.7448,115.3167 l 0.7448,-197.8409 l 0.7448,253.0101 l 0.7448,81.3215 l 0.7448,-240.1809 l 0.7448,297.3782 l 0.7448,-94.9600 l 0.7448,81.5893 l 0.7448,-277.6222 l 0.7448,286.8881 l 0.7448,-286.9359 l 0.7448,124.1098 l 0.7448,-67.8357 l 0.7448,-121.5521 l 0.7448,-55.9987 l 0.7448,366.9426 l 0.7448,73.4400 l 0.7448,-371.9922 l 0.7448,124.4186 l 0.7448,-25.3929 l 0.7448,-163.6547 l 0.7448,442.6120 l 0.7448,-345.8799 l 0.7448,178.4509 l 0.7448,-134.3130 l 0.7448,0.3647 l 0.7448,109.0356 l 0.7448,-214.9113 l 0.7448,25.5939 l 0.7448,-82.3667 l 0.7448,258.6782 l 0.7448,-262.6891 l 0.7448,66.4074 l 0.7448,350.5065 l 0.7448,-32.9143 l 0.7448,-19.2061 l 0.7448,-92.2977 l 0.7448,-274.6057 l 0.7448,198.9560 l 0.7448,-173.0951 l 0.7448,12.7539 l 0.7448,-12.5345 l 0.7448,158.7812 l 0.7448,222.8317 l 0.7448,-12.1633 l 0.7448,25.3480 l 0.7448,-74.5266 l 0.7448,-337.3596 l 0.7448,131.4119 l 0.7448,-69.9795 l 0.7448,87.3347 l 0.7448,2.0236 l 0.7448,145.0955 l 0.7448,169.6083 l 0.7448,-374.8105 l 0.7448,369.7779 l 0.7448,-177.2446 l 0.7448,-122.0421 l 0.7448,47.9070 l 0.7448,-84.4877 l 0.7448,-23.1073 l 0.7448,19.8755 l 0.7448,4.3907 l 0.7448,188.6763 l 0.7448,-280.2395 l 0.7448,10.1509 l 0.7448,347.5585 l 0.7448,79.7519 l 0.7448,-21.9607 l 0.7448,-434.3973 l 0.7448,311.0225 l 0.7448,-247.9739 l 0.7448,-36.4127 l 0.7448,35.9240 l 0.7448,-88.1949 l 0.7448,213.9725 l 0.7448,-220.1060 l 0.7448,353.7116 l 0.7448,-156.6616 l 0.7448,12.8565 l 0.7448,-17.0261 l 0.7448,71.7180 l 0.7448,-170.6838 l 0.7448,171.2746 l 0.7448,119.4278 l 0.7448,-228.0863 l 0.7448,-75.2959 l 0.7448,376.7298 l 0.7448,-349.0948 l 0.7448,155.7599 l 0.7448,-182.2363 l 0.7448,-13.8313 l 0.7448,387.2096 l 0.7448,-95.6229 l 0.7448,-123.9120 l 0.7448,-203.0445 l 0.7448,383.7643 l 0.7448,8.4993 l 0.7448,-217.5844 l 0.7448,-163.0630 l 0.7448,66.7020 l 0.7448,-9.2410 l 0.7448,145.5922 l 0.7448,-205.2428 l 0.7448,223.4196 l 0.7448,-184.5061 l 0.7448,124.7445 l 0.7448,47.1497 l 0.7448,151.1216 l 0.7448,-356.8892 l 0.7448,339.4867 l 0.7448,-289.7957 l 0.7448,375.7094 l 0.7448,-232.2895 l 0.7448,177.4245 l 0.7448,-157.2158 l 0.7448,-229.1974 l 0.7448,175.4021 l 0.7448,-102.5061 l 0.7448,-22.2478 l 0.7448,-42.9161 l 0.7448,218.1318 l 0.7448,114.9991 l 0.7448,-107.5241 l 0.7448,-2.3750 l 0.7448,112.9991 l 0.7448,45.7991 l 0.7448,-141.6611 l 0.7448,61.1419 l 0.7448,41.1121 l 0.7448,15.5699 l 0.7448,-135.8674 l 0.7448,-166.7966 l 0.7448,304.7743 l 0.7448,-377.0332 l 0.7448,301.6763 l 0.7448,-99.0614 l 0.7448,266.0845 l 0.7448,-30.0929 l 0.7448,-142.2511 l 0.7448,155.3458 l 0.7448,-124.6819 l 0.7448,-39.1556 l 0.7448,-0.1379 l 0.7448,124.0980 l 0.7448,-181.5403 l 0.7448,-170.5685 l 0.7448,284.4303 l 0.7448,-58.0417 l 0.7448,-176.1413 l 0.7448,273.4897 l 0.7448,-257.6939 l 0.7448,-12.5809 l 0.7448,202.3867 l 0.7448,-129.3274 l 0.7448,-60.0282 l 0.7448,283.5300 l 0.7448,-365.9496 l 0.7448,432.7050 l 0.7448,-204.9302 l 0.7448,-272.3040 l 0.7448,135.8025 l 0.7448,235.5840 l 0.7448,-289.7185 l 0.7448,-78.5493 l 0.7448,235.2002 l 0.7448,-45.8637 l 0.7448,-203.4679 l 0.7448,89.5498 l 0.7448,233.3466 l 0.7448,-25.4592 l 0.7448,-60.4628 l 0.7448,-118.5137 l 0.7448,180.0496 l 0.7448,186.9652 l 0.7448,-282.2141 l 0.7448,-99.6654 l 0.7448,-7.3849 l 0.7448,261.4858 l 0.7448,-195.4569 l 0.7448,290.9884 l 0.7448,-381.4618 l 0.7448,272.8873 l 0.7448,-323.6061 l 0.7448,188.5565 l 0.7448,43.6824 l 0.7448,-165.5615 l 0.7448,57.1699 l 0.7448,-53.0017 l 0.7448,342.9521 l 0.7448,-346.5701 l 0.7448,44.1019 l 0.7448,81.9646 l 0.7448,-133.7920 l 0.7448,285.1370 l 0.7448,-320.2801 l 0.7448,-33.6926 l 0.7448,240.8326 l 0.7448,-163.5936 l 0.7448,202.6581 l 0.7448,-167.1024 l 0.7448,256.5779 l 0.7448,-250.8880 l 0.7448,196.4796 l 0.7448,139.6809 l 0.7448,-316.7440 l 0.7448,-16.5994 l 0.7448,153.6687 l 0.7448,-24.7962 l 0.7448,104.6615 l 0.7448,48.1742 l 0.7448,-222.5643 l 0.7448,-203.6598 l 0.7448,128.8734 l 0.7448,323.3931 l 0.7448,-333.1947 l 0.7448,246.6595 l 0.7448,71.6437 l 0.7448,-277.6544 l 0.7448,-48.5480 l 0.7448,87.4752 l 0.7448,231.9415 l 0.7448,1.2571 l 0.7448,-14.3556 l 0.7448,-347.1501 l 0.7448,175.3865 l 0.7448,24.9488 l 0.7448,-208.9186 l 0.7448,170.8674 l 0.7448,-97.3165 l 0.7448,194.3916 l 0.7448,-240.2969 l 0.7448,215.9494 l 0.7448,-16.1440 l 0.7448,-238.2949 l 0.7448,65.8717 l 0.7448,70.8195 l 0.7448,-79.2990 l 0.7448,121.6254 l 0.7448,-196.0894 l 0.7448,451.1687 l 0.7448,-19.8806 l 0.7448,-300.7728 l 0.7448,24.6011 l 0.7448,-9.1593 l 0.7448,-35.4222 l 0.7448,17.2957 l 0.7448,186.5800 l 0.7448,76.8242 l 0.7448,-82.9021 l 0.7448,-261.6882 l 0.7448,390.5246 l 0.7448,-229.7821 l 0.7448,78.2403 l 0.7448,-87.0142 l 0.7448,-165.7422 l 0.7448,25.0263 l 0.7448,368.1488 l 0.7448,-285.8591 l 0.7448,203.5117 l 0.7448,-94.2458 l 0.7448,-155.9093 l 0.7448,7.3404 l 0.7448,-43.7749 l 0.7448,68.7699 l 0.7448,37.3226 l 0.7448,184.6712 l 0.7448,-157.8634 l 0.7448,123.3463 l 0.7448,44.0284 l 0.7448,-105.6395 l 0.7448,-293.0208 l 0.7448,81.6077 l 0.7448,382.2546 l 0.7448,-30.6841 l 0.7448,-243.0118 l 0.7448,300.3220 l 0.7448,-101.4610 l 0.7448,-124.2465 l 0.7448,179.8681 l 0.7448,-91.3075 l 0.7448,-89.1692 l 0.7448,60.0526 l 0.7448,-231.8584 l 0.7448,365.2273 l 0.7448,-35.8565 l 0.7448,-413.2511 l 0.7448,-3.5692 l 0.7448,482.0116 l 0.7448,-321.4827 l 0.7448,-72.4633 l 0.7448,3.5254 l 0.7448,-11.4125 l 0.7448,128.5845 l 0.7448,98.4728 l 0.7448,184.2126 l 0.7448,-396.5484 l 0.7448,154.1200 l 0.7448,126.3944 l 0.7448,-281.0224 l 0.7448,-51.7169 l 0.7448,30.4879 l 0.7448,-43.7642 l 0.7448,230.6939 l 0.7448,-208.3681 l 0.7448,99.2298 l 0.7448,297.7236 l 0.7448,-30.2895 l 0.7448,-231.2956 l 0.7448,231.9191 l 0.7448,-102.4644 l 0.7448,-192.2342 l 0.7448,182.1186 l 0.7448,142.6389 l 0.7448,-2.4015 l 0.7448,-108.2534 l 0.7448,19.4890 l 0.7448,28.8472 l 0.7448,38.8927 l 0.7448,-217.1496 l 0.7448,25.9690 l 0.7448,164.7376 l 0.7448,-338.2253 l 0.7448,172.9241 l 0.7448,-45.6343 l 0.7448,125.5153 l 0.7448,-173.1689 l 0.7448,134.5413 l 0.7448,191.2345 l 0.7448,-283.8152 l 0.7448,-137.3074 l 0.7448,277.3095 l 0.7448,62.3987 l 0.7448,-76.7373 l 0.7448,-202.0674 l 0.7448,65.2313 l 0.7448,96.6279 l 0.7448,206.6945 l 0.7448,-167.1489 l 0.7448,32.0123 l 0.7448,-123.3542 l 0.7448,-144.1686 l 0.7448,129.6707 l 0.7448,-82.6506 l 0.7448,143.2436 l 0.7448,141.1556 l 0.7448,-102.2393 l 0.7448,-51.0763 l 0.7448,-152.1226 l 0.7448,321.9702 l 0.7448,-18.8944 l 0.7448,-34.7447 l 0.7448,87.4139 l 0.7448,-333.4832 l 0.7448,269.7742 l 0.7448,-258.6438 l 0.7448,255.1617 l 0.7448,-91.2625 l 0.7448,165.7627 l 0.7448,-254.7363 l 0.7448,-174.2732 l 0.7448,384.2102 l 0.7448,-305.3479 l 0.7448,378.4694 l 0.7448,-9.9338 l 0.7448,-417.1125 l 0.7448,236.6309 l 0.7448,128.6897 l 0.7448,-98.6115 l 0.7448,-333.3829 l 0.7448,136.5870 l 0.7448,214.9436 l 0.7448,140.3341 l 0.7448,-256.6117 l 0.7448,91.5205 l 0.7448,-71.8055 l 0.7448,32.0624 l 0.7448,144.4231 l 0.7448,-260.6785 l 0.7448,180.2375 l 0.7448,-21.5538 l 0.7448,-60.7311 l 0.7448,-38.2808 l 0.7448,226.0291 l 0.7448,-170.6039 l 0.7448,-19.0763 l 0.7448,202.4951 l 0.7448,-0.3807 l 0.7448,-450.3680 l 0.7448,141.4520 l 0.7448,61.1511 l 0.7448,-1.9412 l 0.7448,-200.0373 l 0.7448,192.6009 l 0.7448,-13.3594 l 0.7448,40.8542 l 0.7448,21.4524 l 0.7448,-14.7620 l 0.7448,-214.2300 l 0.7448,-21.3010 l 0.7448,91.4332 l 0.7448,246.6195 l 0.7448,-121.2285 l 0.7448,150.1143 l 0.7448,-38.0001 l 0.7448,-96.8067 l 0.7448,-15.4415 l 0.7448,-199.3428 l 0.7448,58.2227 l 0.7448,-81.8638 l 0.7448,308.8558 l 0.7448,-12.0453 l 0.7448,141.8594 l 0.7448,-316.5599 l 0.7448,232.7272 l 0.7448,-0.1750 l 0.7448,-254.7291 l 0.7448,172.5778 l 0.7448,33.7780 l 0.7448,187.4017 l 0.7448,-34.7979 l 0.7448,-459.8278 l 0.7448,337.2189 l 0.7448,-109.1231 l 0.7448,-84.5950 l 0.7448,-21.5704 l 0.7448,73.2951 l 0.7448,-139.6261 l 0.7448,-49.6985 l 0.7448,416.2726 l 0.7448,-281.1873 l 0.7448,112.7947 l 0.7448,200.8405 l 0.7448,-399.2235 l 0.7448,102.2466 l 0.7448,313.3554 l 0.7448,-149.4449 l 0.7448,128.7031 l 0.7448,-25.9325 l 0.7448,-182.7266 l 0.7448,94.5935 l 0.7448,-29.3007 l 0.7448,-93.8849 l 0.7448,47.0754 l 0.7448,42.8285 l 0.7448,113.1461 l 0.7448,-158.1303 l 0.7448,137.5255 l 0.7448,78.5919 l 0.7448,-386.9745 l 0.7448,84.1457 l 0.7448,141.6106 l 0.7448,-258.4877 l 0.7448,228.3520 l 0.7448,142.6071 l 0.7448,-29.5424 l 0.7448,-174.4888 l 0.7448,46.7665 l 0.7448,-49.0703 l 0.7448,197.4246 l 0.7448,-330.0071 l 0.7448,143.1034 l 0.7448,208.2498 l 0.7448,-416.6018 l 0.7448,322.7759 l 0.7448,58.0686 l 0.7448,-39.5535 l 0.7448,-34.4029 l 0.7448,63.3246 l 0.7448,34.4388 l 0.7448,-382.9531 l 0.7448,62.4912 l 0.7448,-26.2137 l 0.7448,414.0107 l 0.7448,-246.5130 l 0.7448,-96.5093 l 0.7448,256.2171 l 0.7448,40.7532 l 0.7448,-139.8274 l 0.7448,-73.8150 l 0.7448,261.8926 l 0.7448,-458.3982 l 0.7448,373.7884 l 0.7448,17.4887 l 0.7448,61.5556 l 0.7448,-365.8358 l 0.7448,300.3838 l 0.7448,-35.6575 l 0.7448,-144.5964 l 0.7448,-115.2803 l 0.7448,150.3071 l 0.7448,86.5186 l 0.7448,71.2985 l 0.7448,-75.2992 l 0.7448,-37.2209 l 0.7448,128.7906 l 0.7448,-431.9826 l 0.7448,370.8397 l 0.7448,81.6752 l 0.7448,-441.5697 l 0.7448,275.7669 l 0.7448,-148.5149 l 0.7448,-92.2888 l 0.7448,-11.0599 l 0.7448,75.1319 l 0.7448,25.2464 l 0.7448,-28.7749 l 0.7448,206.1346 l 0.7448,52.0568 l 0.7448,54.7970 l 0.7448,-421.3681 l 0.7448,102.0464 l 0.7448,157.0126 l 0.7448,-133.1662 l 0.7448,98.6135 l 0.7448,72.6644 l 0.7448,-103.7075 l 0.7448,17.4321 l 0.7448,221.8239 l 0.7448,-301.8606 l 0.7448,200.9948 l 0.7448,-166.4649 l 0.7448,-3.7223 l 0.7448,86.6192 l 0.7448,69.0379 l 0.7448,87.4282 l 0.7448,-15.8287 l 0.7448,-235.5998 l 0.7448,-76.7308 l 0.7448,64.0103 l 0.7448,-23.2964 l 0.7448,88.2168 l 0.7448,41.4549 l 0.7448,159.8746 l 0.7448,-333.1021 l 0.7448,134.9067 l 0.7448,-7.7814 l 0.7448,-15.4362 l 0.7448,-56.5524 l 0.7448,50.1378 l 0.7448,-78.7759 l 0.7448,19.3261 l 0.7448,-101.8996 l 0.7448,368.1911 l 0.7448,93.6081 l 0.7448,-163.7678 l 0.7448,102.7740 l 0.7448,-242.4813 l 0.7448,-1.8023 l 0.7448,245.3348 l 0.7448,-142.3032 l 0.7448,-209.0743 l 0.7448,30.7651 l 0.7448,162.1311 l 0.7448,94.0609 l 0.7448,48.8253 l 0.7448,-362.2246 l 0.7448,109.3661 l 0.7448,-78.0178 l 0.7448,241.1124 l 0.7448,142.2512 l 0.7448,-156.5014 l 0.7448,-244.0924 l 0.7448,339.9377 l 0.7448,-62.7301 l 0.7448,-289.8982 l 0.7448,73.9525 l 0.7448,52.2309 l 0.7448,-135.1685 l 0.7448,324.0140 l 0.7448,108.4285 l 0.7448,-37.2237 l 0.7448,-114.2231 l 0.7448,-262.3740 l 0.7448,16.9018 l 0.7448,395.2638 l 0.7448,-202.3778 l 0.7448,-116.6654 l 0.7448,205.9663 l 0.7448,-69.9549 l 0.7448,-121.6927 l 0.7448,95.0928 l 0.7448,133.8503 l 0.7448,-142.6015 l 0.7448,-101.3547 l 0.7448,261.9204 l 0.7448,58.4137 l 0.7448,-5.6701 l 0.7448,-164.4606 l 0.7448,85.6778 l 0.7448,-314.1030 l 0.7448,24.9764 l 0.7448,220.2897 l 0.7448,-301.9957 l 0.7448,388.2284 l 0.7448,-112.4733 l 0.7448,-91.1103 l 0.7448,16.7408 l 0.7448,132.2773 l 0.7448,-344.1745 l 0.7448,238.4955 l 0.7448,-149.1657 l 0.7448,291.4640 l 0.7448,-91.9851 l 0.7448,-86.6473 l 0.7448,-201.1621 l 0.7448,216.7414 l 0.7448,-125.0126 l 0.7448,262.6228 l 0.7448,116.7749 l 0.7448,-278.5691 l 0.7448,124.7692 l 0.7448,122.6061 l 0.7448,-314.1313 l 0.7448,-37.5867 l 0.7448,-54.8644 l 0.7448,70.2331 l 0.7448,72.1718 l 0.7448,-53.5927 l 0.7448,48.8926 l 0.7448,103.3596 l 0.7448,-153.3337 l 0.7448,315.7183 l 0.7448,-437.7852 l 0.7448,291.6044 l 0.7448,-306.5547 l 0.7448,450.9941 l 0.7448,33.9321 l 0.7448,-374.7735 l 0.7448,-71.6176 l 0.7448,309.4678 l 0.7448,-195.6526 l 0.7448,9.0418 l 0.7448,-130.7418 l 0.7448,65.2996 l 0.7448,97.9031 l 0.7448,204.3198 l 0.7448,-208.1771 l 0.7448,-7.4334 l 0.7448,-140.6844 l 0.7448,447.5695 l 0.7448,-289.5712 l 0.7448,192.6601 l 0.7448,8.1989 l 0.7448,-95.0502 l 0.7448,-184.0488 l 0.7448,-123.2376 l 0.7448,299.8861 l 0.7448,-139.7219 l 0.7448,45.5691 l 0.7448,292.0011 l 0.7448,-497.2684 l 0.7448,345.2877 l 0.7448,-307.1941 l 0.7448,-38.6438 l 0.7448,19.5755 l 0.7448,193.5464 l 0.7448,-23.5588 l 0.7448,-91.9913 l 0.7448,78.5457 l 0.7448,-103.7695 l 0.7448,-61.7450 l 0.7448,50.9886 l 0.7448,351.4821 l 0.7448,67.0268 l 0.7448,18.0939 l 0.7448,-148.2405 l 0.7448,-55.7392 l 0.7448,-246.6748 l 0.7448,291.9143 l 0.7448,-149.6597 l 0.7448,-76.5286 l 0.7448,-63.9293 l 0.7448,147.6951 l 0.7448,-180.2090 l 0.7448,58.9978 l 0.7448,366.8978 l 0.7448,-229.1023 l 0.7448,-106.7319 l 0.7448,15.6144 l 0.7448,111.6809 l 0.7448,-93.9428 l 0.7448,104.9939 l 0.7448,-130.4036 l 0.7448,81.3425 l 0.7448,-5.0922 l 0.7448,33.9869 l 0.7448,-99.3552 l 0.7448,182.1758 l 0.7448,-187.0470 l 0.7448,-89.7826 l 0.7448,33.8236 l 0.7448,251.7341 l 0.7448,23.5239 l 0.7448,153.8422 l 0.7448,3.2480 l 0.7448,-420.9108 l 0.7448,331.7263 l 0.7448,28.8874 l 0.7448,-171.9431 l 0.7448,-235.1051 l 0.7448,62.5210 l 0.7448,100.2562 l 0.7448,62.4008 l 0.7448,34.1780 l 0.7448,-30.3693 l 0.7448,-64.6427 l 0.7448,263.5193 l 0.7448,-60.8007 l 0.7448,-397.2732 l 0.7448,179.9506 l 0.7448,47.0509 l 0.7448,170.0495 l 0.7448,85.9554 l 0.7448,-429.4070 l 0.7448,242.2658 l 0.7448,-229.1346 l 0.7448,16.2502 l 0.7448,387.7724 l 0.7448,-242.1807 l 0.7448,256.8268 l 0.7448,-280.2744 l 0.7448,127.0876 l 0.7448,-227.7203 l 0.7448,-73.5355 l 0.7448,29.0971 l 0.7448,-39.8594 l 0.7448,476.8656 l 0.7448,-432.5511 l 0.7448,241.7632 l 0.7448,-229.6392 l 0.7448,376.6874 l 0.7448,-188.6009 l 0.7448,-203.0481 l 0.7448,72.3941 l 0.7448,330.9615 l 0.7448,-41.3086 l 0.7448,-39.8249 l 0.7448,-68.4250 l 0.7448,0.5520 l 0.7448,-41.1216 l 0.7448,111.3533 l 0.7448,-246.4353 l 0.7448,-110.6139 l 0.7448,89.9712 l 0.7448,147.4402 l 0.7448,169.3588 l 0.7448,-194.3527 l 0.7448,-60.4641 l 0.7448,215.3486 l 0.7448,-55.4089 l 0.7448,71.8977 l 0.7448,-384.8574 l 0.7448,403.6738 l 0.7448,-354.4750 l 0.7448,9.3348 l 0.7448,54.5278 l 0.7448,180.1866 l 0.7448,-307.5635 l 0.7448,352.4547 l 0.7448,-256.8657 l 0.7448,82.9903 l 0.7448,105.7412 l 0.7448,-277.2849 l 0.7448,-23.3057 l 0.7448,503.7093 l 0.7448,-459.9510 l 0.7448,242.7523 l 0.7448,-233.9971 l 0.7448,298.7033 l 0.7448,-217.7047 l 0.7448,-60.0510 l 0.7448,-2.4157 l 0.7448,239.3289 l 0.7448,8.8643 l 0.7448,-287.5774 l 0.7448,200.1717 l 0.7448,-166.7604 l 0.7448,-5.9410 l 0.7448,237.7714 l 0.7448,-205.1110 l 0.7448,142.1255 l 0.7448,50.5785 l 0.7448,40.6773 l 0.7448,-82.3239 l 0.7448,135.6562 l 0.7448,-170.4340 l 0.7448,255.3929 l 0.7448,-154.0869 l 0.7448,-182.0133 l 0.7448,262.7471 l 0.7448,-304.1007 l 0.7448,199.6117 l 0.7448,150.7507 l 0.7448,-391.8560 l 0.7448,279.6717 l 0.7448,-121.5582 l 0.7448,251.4537 l 0.7448,-263.9856 l 0.7448,107.3055 l 0.7448,-13.9780 l 0.7448,-209.5395 l 0.7448,117.8741 l 0.7448,-104.0391 l 0.7448,383.3694 l 0.7448,-393.8365 l 0.7448,87.8273 l 0.7448,-17.1489 l 0.7448,-51.2865 l 0.7448,96.2505 l 0.7448,-173.5421 l 0.7448,172.8845 l 0.7448,263.3836 l 0.7448,-29.2217 l 0.7448,-82.7461 l 0.7448,-181.8475 l 0.7448,-31.9262 l 0.7448,142.7980 l 0.7448,79.0107 l 0.7448,111.7943 l 0.7448,-160.4610 l 0.7448,-2.0137 l 0.7448,-20.0212 l 0.7448,-50.3186 l 0.7448,34.1654 l 0.7448,43.1157 l 0.7448,-106.0722 l 0.7448,-24.3526 l 0.7448,79.2194 l 0.7448,-241.8356 l 0.7448,451.7295 l 0.7448,-193.4870 l 0.7448,194.2461 l 0.7448,-45.7380 l 0.7448,34.8787 l 0.7448,-451.0295 l 0.7448,495.3804 l 0.7448,-20.2162 l 0.7448,-290.1869 l 0.7448,287.4686 l 0.7448,-273.0410 l 0.7448,286.8691 l 0.7448,-46.6088 l 0.7448,-126.1143 l 0.7448,53.4600 l 0.7448,-374.7011 l 0.7448,386.6052 l 0.7448,8.2321 l 0.7448,-79.7302 l 0.7448,-294.3369 l 0.7448,430.6916 l 0.7448,-249.3314 l 0.7448,42.2027 l 0.7448,-173.0333 l 0.7448,-32.4060 l 0.7448,326.0690 l 0.7448,35.4562 l 0.7448,-118.6743 l 0.7448,-53.8666 "/></g></g><defs></defs><g stroke-linejoin="miter" stroke-opacity="1.0" fill-opacity="0.0" stroke="rgb(0,0,0)" stroke-width="0.9999999999999997" fill="rgb(0,0,0)" stroke-linecap="square" stroke-miterlimit="10.0"><path d="M 35.3887,550.0000 v -535.0000 "/></g><defs></defs><g stroke-linejoin="miter" stroke-opacity="1.0" fill-opacity="0.0" stroke="rgb(0,0,0)" stroke-width="0.9999999999999997" fill="rgb(0,0,0)" stroke-linecap="butt" stroke-miterlimit="10.0"><path d="M 35.3887,550.0000 h 2.0000 "/></g><defs></defs><g stroke-linejoin="miter" stroke-opacity="1.0" fill-opacity="0.0" stroke="rgb(0,0,0)" stroke-width="0.9999999999999997" fill="rgb(0,0,0)" stroke-linecap="butt" stroke-miterlimit="10.0"><path d="M 35.3887,536.6250 h 2.0000 "/></g><defs></defs><g stroke-linejoin="miter" stroke-opacity="1.0" fill-opacity="0.0" stroke="rgb(0,0,0)" stroke-width="0.9999999999999997" fill="rgb(0,0,0)" stroke-linecap="butt" stroke-miterlimit="10.0"><path d="M 35.3887,523.2500 h 2.0000 "/></g><defs></defs><g stroke-linejoin="miter" stroke-opacity="1.0" fill-opacity="0.0" stroke="rgb(0,0,0)" stroke-width="0.9999999999999997" fill="rgb(0,0,0)" stroke-linecap="butt" stroke-miterlimit="10.0"><path d="M 35.3887,509.8750 h 2.0000 "/></g><defs></defs><g stroke-linejoin="miter" stroke-opacity="1.0" fill-opacity="0.0" stroke="rgb(0,0,0)" stroke-width="0.9999999999999997" fill="rgb(0,0,0)" stroke-linecap="butt" stroke-miterlimit="10.0"><path d="M 35.3887,496.5000 h 2.0000 "/></g><defs></defs><g stroke-linejoin="miter" stroke-opacity="1.0" fill-opacity="0.0" stroke="rgb(0,0,0)" stroke-width="0.9999999999999997" fill="rgb(0,0,0)" stroke-linecap="butt" stroke-miterlimit="10.0"><path d="M 35.3887,483.1250 h 2.0000 "/></g><defs></defs><g stroke-linejoin="miter" stroke-opacity="1.0" fill-opacity="0.0" stroke="rgb(0,0,0)" stroke-width="0.9999999999999997" fill="rgb(0,0,0)" stroke-linecap="butt" stroke-miterlimit="10.0"><path d="M 35.3887,469.7500 h 2.0000 "/></g><defs></defs><g stroke-linejoin="miter" stroke-opacity="1.0" fill-opacity="0.0" stroke="rgb(0,0,0)" stroke-width="0.9999999999999997" fill="rgb(0,0,0)" stroke-linecap="butt" stroke-miterlimit="10.0"><path d="M 35.3887,456.3750 h 2.0000 "/></g><defs></defs><g stroke-linejoin="miter" stroke-opacity="1.0" fill-opacity="0.0" stroke="rgb(0,0,0)" stroke-width="0.9999999999999997" fill="rgb(0,0,0)" stroke-linecap="butt" stroke-miterlimit="10.0"><path d="M 35.3887,443.0000 h 2.0000 "/></g><defs></defs><g stroke-linejoin="miter" stroke-opacity="1.0" fill-opacity="0.0" stroke="rgb(0,0,0)" stroke-width="0.9999999999999997" fill="rgb(0,0,0)" stroke-linecap="butt" stroke-miterlimit="10.0"><path d="M 35.3887,429.6250 h 2.0000 "/></g><defs></defs><g stroke-linejoin="miter" stroke-opacity="1.0" fill-opacity="0.0" stroke="rgb(0,0,0)" stroke-width="0.9999999999999997" fill="rgb(0,0,0)" stroke-linecap="butt" stroke-miterlimit="10.0"><path d="M 35.3887,416.2500 h 2.0000 "/></g><defs></defs><g stroke-linejoin="miter" stroke-opacity="1.0" fill-opacity="0.0" stroke="rgb(0,0,0)" stroke-width="0.9999999999999997" fill="rgb(0,0,0)" stroke-linecap="butt" stroke-miterlimit="10.0"><path d="M 35.3887,402.8750 h 2.0000 "/></g><defs></defs><g stroke-linejoin="miter" stroke-opacity="1.0" fill-opacity="0.0" stroke="rgb(0,0,0)" stroke-width="0.9999999999999997" fill="rgb(0,0,0)" stroke-linecap="butt" stroke-miterlimit="10.0"><path d="M 35.3887,389.5000 h 2.0000 "/></g><defs></defs><g stroke-linejoin="miter" stroke-opacity="1.0" fill-opacity="0.0" stroke="rgb(0,0,0)" stroke-width="0.9999999999999997" fill="rgb(0,0,0)" stroke-linecap="butt" stroke-miterlimit="10.0"><path d="M 35.3887,376.1250 h 2.0000 "/></g><defs></defs><g stroke-linejoin="miter" stroke-opacity="1.0" fill-opacity="0.0" stroke="rgb(0,0,0)" stroke-width="0.9999999999999997" fill="rgb(0,0,0)" stroke-linecap="butt" stroke-miterlimit="10.0"><path d="M 35.3887,362.7500 h 2.0000 "/></g><defs></defs><g stroke-linejoin="miter" stroke-opacity="1.0" fill-opacity="0.0" stroke="rgb(0,0,0)" stroke-width="0.9999999999999997" fill="rgb(0,0,0)" stroke-linecap="butt" stroke-miterlimit="10.0"><path d="M 35.3887,349.3750 h 2.0000 "/></g><defs></defs><g stroke-linejoin="miter" stroke-opacity="1.0" fill-opacity="0.0" stroke="rgb(0,0,0)" stroke-width="0.9999999999999997" fill="rgb(0,0,0)" stroke-linecap="butt" stroke-miterlimit="10.0"><path d="M 35.3887,336.0000 h 2.0000 "/></g><defs></defs><g stroke-linejoin="miter" stroke-opacity="1.0" fill-opacity="0.0" stroke="rgb(0,0,0)" stroke-width="0.9999999999999997" fill="rgb(0,0,0)" stroke-linecap="butt" stroke-miterlimit="10.0"><path d="M 35.3887,322.6250 h 2.0000 "/></g><defs></defs><g stroke-linejoin="miter" stroke-opacity="1.0" fill-opacity="0.0" stroke="rgb(0,0,0)" stroke-width="0.9999999999999997" fill="rgb(0,0,0)" stroke-linecap="butt" stroke-miterlimit="10.0"><path d="M 35.3887,309.2500 h 2.0000 "/></g><defs></defs><g stroke-linejoin="miter" stroke-opacity="1.0" fill-opacity="0.0" stroke="rgb(0,0,0)" stroke-width="0.9999999999999997" fill="rgb(0,0,0)" stroke-linecap="butt" stroke-miterlimit="10.0"><path d="M 35.3887,295.8750 h 2.0000 "/></g><defs></defs><g stroke-linejoin="miter" stroke-opacity="1.0" fill-opacity="0.0" stroke="rgb(0,0,0)" stroke-width="0.9999999999999997" fill="rgb(0,0,0)" stroke-linecap="butt" stroke-miterlimit="10.0"><path d="M 35.3887,282.5000 h 2.0000 "/></g><defs></defs><g stroke-linejoin="miter" stroke-opacity="1.0" fill-opacity="0.0" stroke="rgb(0,0,0)" stroke-width="0.9999999999999997" fill="rgb(0,0,0)" stroke-linecap="butt" stroke-miterlimit="10.0"><path d="M 35.3887,269.1250 h 2.0000 "/></g><defs></defs><g stroke-linejoin="miter" stroke-opacity="1.0" fill-opacity="0.0" stroke="rgb(0,0,0)" stroke-width="0.9999999999999997" fill="rgb(0,0,0)" stroke-linecap="butt" stroke-miterlimit="10.0"><path d="M 35.3887,255.7500 h 2.0000 "/></g><defs></defs><g stroke-linejoin="miter" stroke-opacity="1.0" fill-opacity="0.0" stroke="rgb(0,0,0)" stroke-width="0.9999999999999997" fill="rgb(0,0,0)" stroke-linecap="butt" stroke-miterlimit="10.0"><path d="M 35.3887,242.3750 h 2.0000 "/></g><defs></defs><g stroke-linejoin="miter" stroke-opacity="1.0" fill-opacity="0.0" stroke="rgb(0,0,0)" stroke-width="0.9999999999999997" fill="rgb(0,0,0)" stroke-linecap="butt" stroke-miterlimit="10.0"><path d="M 35.3887,229.0000 h 2.0000 "/></g><defs></defs><g stroke-linejoin="miter" stroke-opacity="1.0" fill-opacity="0.0" stroke="rgb(0,0,0)" stroke-width="0.9999999999999997" fill="rgb(0,0,0)" stroke-linecap="butt" stroke-miterlimit="10.0"><path d="M 35.3887,215.6250 h 2.0000 "/></g><defs></defs><g stroke-linejoin="miter" stroke-opacity="1.0" fill-opacity="0.0" stroke="rgb(0,0,0)" stroke-width="0.9999999999999997" fill="rgb(0,0,0)" stroke-linecap="butt" stroke-miterlimit="10.0"><path d="M 35.3887,202.2500 h 2.0000 "/></g><defs></defs><g stroke-linejoin="miter" stroke-opacity="1.0" fill-opacity="0.0" stroke="rgb(0,0,0)" stroke-width="0.9999999999999997" fill="rgb(0,0,0)" stroke-linecap="butt" stroke-miterlimit="10.0"><path d="M 35.3887,188.8750 h 2.0000 "/></g><defs></defs><g stroke-linejoin="miter" stroke-opacity="1.0" fill-opacity="0.0" stroke="rgb(0,0,0)" stroke-width="0.9999999999999997" fill="rgb(0,0,0)" stroke-linecap="butt" stroke-miterlimit="10.0"><path d="M 35.3887,175.5000 h 2.0000 "/></g><defs></defs><g stroke-linejoin="miter" stroke-opacity="1.0" fill-opacity="0.0" stroke="rgb(0,0,0)" stroke-width="0.9999999999999997" fill="rgb(0,0,0)" stroke-linecap="butt" stroke-miterlimit="10.0"><path d="M 35.3887,162.1250 h 2.0000 "/></g><defs></defs><g stroke-linejoin="miter" stroke-opacity="1.0" fill-opacity="0.0" stroke="rgb(0,0,0)" stroke-width="0.9999999999999997" fill="rgb(0,0,0)" stroke-linecap="butt" stroke-miterlimit="10.0"><path d="M 35.3887,148.7500 h 2.0000 "/></g><defs></defs><g stroke-linejoin="miter" stroke-opacity="1.0" fill-opacity="0.0" stroke="rgb(0,0,0)" stroke-width="0.9999999999999997" fill="rgb(0,0,0)" stroke-linecap="butt" stroke-miterlimit="10.0"><path d="M 35.3887,135.3750 h 2.0000 "/></g><defs></defs><g stroke-linejoin="miter" stroke-opacity="1.0" fill-opacity="0.0" stroke="rgb(0,0,0)" stroke-width="0.9999999999999997" fill="rgb(0,0,0)" stroke-linecap="butt" stroke-miterlimit="10.0"><path d="M 35.3887,122.0000 h 2.0000 "/></g><defs></defs><g stroke-linejoin="miter" stroke-opacity="1.0" fill-opacity="0.0" stroke="rgb(0,0,0)" stroke-width="0.9999999999999997" fill="rgb(0,0,0)" stroke-linecap="butt" stroke-miterlimit="10.0"><path d="M 35.3887,108.6250 h 2.0000 "/></g><defs></defs><g stroke-linejoin="miter" stroke-opacity="1.0" fill-opacity="0.0" stroke="rgb(0,0,0)" stroke-width="0.9999999999999997" fill="rgb(0,0,0)" stroke-linecap="butt" stroke-miterlimit="10.0"><path d="M 35.3887,95.2500 h 2.0000 "/></g><defs></defs><g stroke-linejoin="miter" stroke-opacity="1.0" fill-opacity="0.0" stroke="rgb(0,0,0)" stroke-width="0.9999999999999997" fill="rgb(0,0,0)" stroke-linecap="butt" stroke-miterlimit="10.0"><path d="M 35.3887,81.8750 h 2.0000 "/></g><defs></defs><g stroke-linejoin="miter" stroke-opacity="1.0" fill-opacity="0.0" stroke="rgb(0,0,0)" stroke-width="0.9999999999999997" fill="rgb(0,0,0)" stroke-linecap="butt" stroke-miterlimit="10.0"><path d="M 35.3887,68.5000 h 2.0000 "/></g><defs></defs><g stroke-linejoin="miter" stroke-opacity="1.0" fill-opacity="0.0" stroke="rgb(0,0,0)" stroke-width="0.9999999999999997" fill="rgb(0,0,0)" stroke-linecap="butt" stroke-miterlimit="10.0"><path d="M 35.3887,55.1250 h 2.0000 "/></g><defs></defs><g stroke-linejoin="miter" stroke-opacity="1.0" fill-opacity="0.0" stroke="rgb(0,0,0)" stroke-width="0.9999999999999997" fill="rgb(0,0,0)" stroke-linecap="butt" stroke-miterlimit="10.0"><path d="M 35.3887,41.7500 h 2.0000 "/></g><defs></defs><g stroke-linejoin="miter" stroke-opacity="1.0" fill-opacity="0.0" stroke="rgb(0,0,0)" stroke-width="0.9999999999999997" fill="rgb(0,0,0)" stroke-linecap="butt" stroke-miterlimit="10.0"><path d="M 35.3887,28.3750 h 2.0000 "/></g><defs></defs><g stroke-linejoin="miter" stroke-opacity="1.0" fill-opacity="0.0" stroke="rgb(0,0,0)" stroke-width="0.9999999999999997" fill="rgb(0,0,0)" stroke-linecap="butt" stroke-miterlimit="10.0"><path d="M 35.3887,15.0000 h 2.0000 "/></g><defs></defs><g stroke-linejoin="miter" stroke-opacity="1.0" fill-opacity="0.0" stroke="rgb(0,0,0)" stroke-width="0.9999999999999997" fill="rgb(0,0,0)" stroke-linecap="butt" stroke-miterlimit="10.0"><path d="M 35.3887,550.0000 h 5.0000 "/></g><defs></defs><g stroke-linejoin="miter" stroke-opacity="1.0" fill-opacity="0.0" stroke="rgb(0,0,0)" stroke-width="0.9999999999999997" fill="rgb(0,0,0)" stroke-linecap="butt" stroke-miterlimit="10.0"><path d="M 35.3887,416.2500 h 5.0000 "/></g><defs></defs><g stroke-linejoin="miter" stroke-opacity="1.0" fill-opacity="0.0" stroke="rgb(0,0,0)" stroke-width="0.9999999999999997" fill="rgb(0,0,0)" stroke-linecap="butt" stroke-miterlimit="10.0"><path d="M 35.3887,282.5000 h 5.0000 "/></g><defs></defs><g stroke-linejoin="miter" stroke-opacity="1.0" fill-opacity="0.0" stroke="rgb(0,0,0)" stroke-width="0.9999999999999997" fill="rgb(0,0,0)" stroke-linecap="butt" stroke-miterlimit="10.0"><path d="M 35.3887,148.7500 h 5.0000 "/></g><defs></defs><g stroke-linejoin="miter" stroke-opacity="1.0" fill-opacity="0.0" stroke="rgb(0,0,0)" stroke-width="0.9999999999999997" fill="rgb(0,0,0)" stroke-linecap="butt" stroke-miterlimit="10.0"><path d="M 35.3887,15.0000 h 5.0000 "/></g><defs></defs><g stroke-linejoin="bevel" stroke-opacity="0.0" fill-opacity="1.0" stroke="rgb(0,0,0)" stroke-width="0.0" fill="rgb(0,0,0)" stroke-linecap="butt" stroke-miterlimit="10.0"><path d="M 17.9412,553.4454 ZM 18.3718,550.4832 h 2.4160 v 0.6618 h -2.4160 v -0.6618 ZM 21.2080,553.4454 ZM 22.0378,552.7311 h 1.5336 v -4.9370 h -1.2185 v -0.5567 c 0.4622,-0.0840 0.8036,-0.2048 0.8036 -0.2048c 0.3414,-0.1208 0.6145,-0.2889 0.6145 -0.2889h 0.6618 v 5.9874 h 1.3866 v 0.7143 h -3.7815 v -0.7143 Z"/></g><defs></defs><g stroke-linejoin="bevel" stroke-opacity="0.0" fill-opacity="1.0" stroke="rgb(0,0,0)" stroke-width="0.0" fill="rgb(0,0,0)" stroke-linecap="butt" stroke-miterlimit="10.0"><path d="M 10.0000,419.6954 ZM 10.4307,416.7332 h 2.4160 v 0.6618 h -2.4160 v -0.6618 ZM 13.2668,419.6954 ZM 15.8824,419.8214 c -1.0189,-0.0000 -1.5861,-0.9034 -1.5861 -0.9034c -0.5672,-0.9034 -0.5672,-2.5945 -0.5672 -2.5945c 0.0000,-1.6912 0.5672,-2.5735 0.5672 -2.5735c 0.5672,-0.8824 1.5861,-0.8824 1.5861 -0.8824c 1.0084,0.0000 1.5756,0.8824 1.5756 0.8824c 0.5672,0.8824 0.5672,2.5735 0.5672 2.5735c 0.0000,1.6912 -0.5672,2.5945 -0.5672 2.5945c -0.5672,0.9034 -1.5756,0.9034 -1.5756 0.9034ZM 15.8824,419.8214 ZM 15.8824,419.1282 c 0.2941,0.0000 0.5305,-0.1628 0.5305 -0.1628c 0.2363,-0.1628 0.4097,-0.5042 0.4097 -0.5042c 0.1733,-0.3414 0.2679,-0.8718 0.2679 -0.8718c 0.0945,-0.5305 0.0945,-1.2658 0.0945 -1.2658c 0.0000,-0.7353 -0.0945,-1.2605 -0.0945 -1.2605c -0.0945,-0.5252 -0.2679,-0.8561 -0.2679 -0.8561c -0.1733,-0.3309 -0.4097,-0.4884 -0.4097 -0.4884c -0.2363,-0.1576 -0.5305,-0.1576 -0.5305 -0.1576c -0.2941,-0.0000 -0.5357,0.1576 -0.5357 0.1576c -0.2416,0.1576 -0.4149,0.4884 -0.4149 0.4884c -0.1733,0.3309 -0.2679,0.8561 -0.2679 0.8561c -0.0945,0.5252 -0.0945,1.2605 -0.0945 1.2605c 0.0000,1.4706 0.3624,2.1376 0.3624 2.1376c 0.3624,0.6670 0.9506,0.6670 0.9506 0.6670ZM 18.4874,419.6954 ZM 19.1702,419.1702 c 0.0000,-0.3046 0.1838,-0.4884 0.1838 -0.4884c 0.1838,-0.1838 0.4464,-0.1838 0.4464 -0.1838c 0.2521,0.0000 0.4359,0.1838 0.4359 0.1838c 0.1838,0.1838 0.1838,0.4884 0.1838 0.4884c 0.0000,0.2836 -0.1838,0.4674 -0.1838 0.4674c -0.1838,0.1838 -0.4359,0.1838 -0.4359 0.1838c -0.2626,-0.0000 -0.4464,-0.1838 -0.4464 -0.1838c -0.1838,-0.1838 -0.1838,-0.4674 -0.1838 -0.4674ZM 21.1029,419.6954 ZM 21.7857,418.3403 c 0.2941,0.3046 0.6985,0.5357 0.6985 0.5357c 0.4044,0.2311 0.9926,0.2311 0.9926 0.2311c 0.3046,0.0000 0.5725,-0.1103 0.5725 -0.1103c 0.2679,-0.1103 0.4674,-0.3099 0.4674 -0.3099c 0.1996,-0.1996 0.3151,-0.4832 0.3151 -0.4832c 0.1155,-0.2836 0.1155,-0.6303 0.1155 -0.6303c 0.0000,-0.6933 -0.3887,-1.0819 -0.3887 -1.0819c -0.3887,-0.3887 -1.0399,-0.3887 -1.0399 -0.3887c -0.3466,-0.0000 -0.5935,0.1050 -0.5935 0.1050c -0.2468,0.1050 -0.5515,0.3046 -0.5515 0.3046l -0.4622,-0.2941 l 0.2206,-3.2248 h 3.3508 v 0.7458 h -2.5945 l -0.1786,1.9853 c 0.2416,-0.1261 0.4832,-0.1996 0.4832 -0.1996c 0.2416,-0.0735 0.5462,-0.0735 0.5462 -0.0735c 0.4307,0.0000 0.8088,0.1261 0.8088 0.1261c 0.3782,0.1261 0.6618,0.3834 0.6618 0.3834c 0.2836,0.2574 0.4464,0.6513 0.4464 0.6513c 0.1628,0.3939 0.1628,0.9401 0.1628 0.9401c 0.0000,0.5462 -0.1891,0.9664 -0.1891 0.9664c -0.1891,0.4202 -0.5042,0.7090 -0.5042 0.7090c -0.3151,0.2889 -0.7195,0.4412 -0.7195 0.4412c -0.4044,0.1523 -0.8456,0.1523 -0.8456 0.1523c -0.3992,-0.0000 -0.7300,-0.0788 -0.7300 -0.0788c -0.3309,-0.0788 -0.5987,-0.2048 -0.5987 -0.2048c -0.2679,-0.1261 -0.4832,-0.2889 -0.4832 -0.2889c -0.2153,-0.1628 -0.3834,-0.3414 -0.3834 -0.3414Z"/></g><defs></defs><g stroke-linejoin="bevel" stroke-opacity="0.0" fill-opacity="1.0" stroke="rgb(0,0,0)" stroke-width="0.0" fill="rgb(0,0,0)" stroke-linecap="butt" stroke-miterlimit="10.0"><path d="M 21.0924,285.9454 ZM 23.7080,286.0714 c -1.0189,-0.0000 -1.5861,-0.9034 -1.5861 -0.9034c -0.5672,-0.9034 -0.5672,-2.5945 -0.5672 -2.5945c 0.0000,-1.6912 0.5672,-2.5735 0.5672 -2.5735c 0.5672,-0.8824 1.5861,-0.8824 1.5861 -0.8824c 1.0084,0.0000 1.5756,0.8824 1.5756 0.8824c 0.5672,0.8824 0.5672,2.5735 0.5672 2.5735c 0.0000,1.6912 -0.5672,2.5945 -0.5672 2.5945c -0.5672,0.9034 -1.5756,0.9034 -1.5756 0.9034ZM 23.7080,286.0714 ZM 23.7080,285.3782 c 0.2941,0.0000 0.5305,-0.1628 0.5305 -0.1628c 0.2363,-0.1628 0.4097,-0.5042 0.4097 -0.5042c 0.1733,-0.3414 0.2679,-0.8718 0.2679 -0.8718c 0.0945,-0.5305 0.0945,-1.2658 0.0945 -1.2658c 0.0000,-0.7353 -0.0945,-1.2605 -0.0945 -1.2605c -0.0945,-0.5252 -0.2679,-0.8561 -0.2679 -0.8561c -0.1733,-0.3309 -0.4097,-0.4884 -0.4097 -0.4884c -0.2363,-0.1576 -0.5305,-0.1576 -0.5305 -0.1576c -0.2941,-0.0000 -0.5357,0.1576 -0.5357 0.1576c -0.2416,0.1576 -0.4149,0.4884 -0.4149 0.4884c -0.1733,0.3309 -0.2679,0.8561 -0.2679 0.8561c -0.0945,0.5252 -0.0945,1.2605 -0.0945 1.2605c 0.0000,1.4706 0.3624,2.1376 0.3624 2.1376c 0.3624,0.6670 0.9506,0.6670 0.9506 0.6670Z"/></g><defs></defs><g stroke-linejoin="bevel" stroke-opacity="0.0" fill-opacity="1.0" stroke="rgb(0,0,0)" stroke-width="0.0" fill="rgb(0,0,0)" stroke-linecap="butt" stroke-miterlimit="10.0"><path d="M 13.2983,152.1954 ZM 15.9139,152.3214 c -1.0189,-0.0000 -1.5861,-0.9034 -1.5861 -0.9034c -0.5672,-0.9034 -0.5672,-2.5945 -0.5672 -2.5945c 0.0000,-1.6912 0.5672,-2.5735 0.5672 -2.5735c 0.5672,-0.8824 1.5861,-0.8824 1.5861 -0.8824c 1.0084,0.0000 1.5756,0.8824 1.5756 0.8824c 0.5672,0.8824 0.5672,2.5735 0.5672 2.5735c 0.0000,1.6912 -0.5672,2.5945 -0.5672 2.5945c -0.5672,0.9034 -1.5756,0.9034 -1.5756 0.9034ZM 15.9139,152.3214 ZM 15.9139,151.6282 c 0.2941,0.0000 0.5305,-0.1628 0.5305 -0.1628c 0.2363,-0.1628 0.4097,-0.5042 0.4097 -0.5042c 0.1733,-0.3414 0.2679,-0.8718 0.2679 -0.8718c 0.0945,-0.5305 0.0945,-1.2658 0.0945 -1.2658c 0.0000,-0.7353 -0.0945,-1.2605 -0.0945 -1.2605c -0.0945,-0.5252 -0.2679,-0.8561 -0.2679 -0.8561c -0.1733,-0.3309 -0.4097,-0.4884 -0.4097 -0.4884c -0.2363,-0.1576 -0.5305,-0.1576 -0.5305 -0.1576c -0.2941,-0.0000 -0.5357,0.1576 -0.5357 0.1576c -0.2416,0.1576 -0.4149,0.4884 -0.4149 0.4884c -0.1733,0.3309 -0.2679,0.8561 -0.2679 0.8561c -0.0945,0.5252 -0.0945,1.2605 -0.0945 1.2605c 0.0000,1.4706 0.3624,2.1376 0.3624 2.1376c 0.3624,0.6670 0.9506,0.6670 0.9506 0.6670ZM 18.5189,152.1954 ZM 19.2017,151.6702 c 0.0000,-0.3046 0.1838,-0.4884 0.1838 -0.4884c 0.1838,-0.1838 0.4464,-0.1838 0.4464 -0.1838c 0.2521,0.0000 0.4359,0.1838 0.4359 0.1838c 0.1838,0.1838 0.1838,0.4884 0.1838 0.4884c 0.0000,0.2836 -0.1838,0.4674 -0.1838 0.4674c -0.1838,0.1838 -0.4359,0.1838 -0.4359 0.1838c -0.2626,-0.0000 -0.4464,-0.1838 -0.4464 -0.1838c -0.1838,-0.1838 -0.1838,-0.4674 -0.1838 -0.4674ZM 21.1345,152.1954 ZM 21.8172,150.8403 c 0.2941,0.3046 0.6985,0.5357 0.6985 0.5357c 0.4044,0.2311 0.9926,0.2311 0.9926 0.2311c 0.3046,0.0000 0.5725,-0.1103 0.5725 -0.1103c 0.2679,-0.1103 0.4674,-0.3099 0.4674 -0.3099c 0.1996,-0.1996 0.3151,-0.4832 0.3151 -0.4832c 0.1155,-0.2836 0.1155,-0.6303 0.1155 -0.6303c 0.0000,-0.6933 -0.3887,-1.0819 -0.3887 -1.0819c -0.3887,-0.3887 -1.0399,-0.3887 -1.0399 -0.3887c -0.3466,-0.0000 -0.5935,0.1050 -0.5935 0.1050c -0.2468,0.1050 -0.5515,0.3046 -0.5515 0.3046l -0.4622,-0.2941 l 0.2206,-3.2248 h 3.3508 v 0.7458 h -2.5945 l -0.1786,1.9853 c 0.2416,-0.1261 0.4832,-0.1996 0.4832 -0.1996c 0.2416,-0.0735 0.5462,-0.0735 0.5462 -0.0735c 0.4307,0.0000 0.8088,0.1261 0.8088 0.1261c 0.3782,0.1261 0.6618,0.3834 0.6618 0.3834c 0.2836,0.2574 0.4464,0.6513 0.4464 0.6513c 0.1628,0.3939 0.1628,0.9401 0.1628 0.9401c 0.0000,0.5462 -0.1891,0.9664 -0.1891 0.9664c -0.1891,0.4202 -0.5042,0.7090 -0.5042 0.7090c -0.3151,0.2889 -0.7195,0.4412 -0.7195 0.4412c -0.4044,0.1523 -0.8456,0.1523 -0.8456 0.1523c -0.3992,-0.0000 -0.7300,-0.0788 -0.7300 -0.0788c -0.3309,-0.0788 -0.5987,-0.2048 -0.5987 -0.2048c -0.2679,-0.1261 -0.4832,-0.2889 -0.4832 -0.2889c -0.2153,-0.1628 -0.3834,-0.3414 -0.3834 -0.3414Z"/></g><defs></defs><g stroke-linejoin="bevel" stroke-opacity="0.0" fill-opacity="1.0" stroke="rgb(0,0,0)" stroke-width="0.0" fill="rgb(0,0,0)" stroke-linecap="butt" stroke-miterlimit="10.0"><path d="M 21.6071,18.4454 ZM 22.4370,17.7311 h 1.5336 v -4.9370 h -1.2185 v -0.5567 c 0.4622,-0.0840 0.8036,-0.2048 0.8036 -0.2048c 0.3414,-0.1208 0.6145,-0.2889 0.6145 -0.2889h 0.6618 v 5.9874 h 1.3866 v 0.7143 h -3.7815 v -0.7143 Z"/></g><defs></defs><g stroke-linejoin="miter" stroke-opacity="1.0" fill-opacity="0.0" stroke="rgb(0,0,0)" stroke-width="0.9999999999999997" fill="rgb(0,0,0)" stroke-linecap="square" stroke-miterlimit="10.0"><path d="M 35.3887,550.0000 h 744.8162 "/></g><defs></defs><g stroke-linejoin="miter" stroke-opacity="1.0" fill-opacity="0.0" stroke="rgb(0,0,0)" stroke-width="0.9999999999999997" fill="rgb(0,0,0)" stroke-linecap="butt" stroke-miterlimit="10.0"><path d="M 35.3887,550.0000 v -2.0000 "/></g><defs></defs><g stroke-linejoin="miter" stroke-opacity="1.0" fill-opacity="0.0" stroke="rgb(0,0,0)" stroke-width="0.9999999999999997" fill="rgb(0,0,0)" stroke-linecap="butt" stroke-miterlimit="10.0"><path d="M 109.8703,550.0000 v -2.0000 "/></g><defs></defs><g stroke-linejoin="miter" stroke-opacity="1.0" fill-opacity="0.0" stroke="rgb(0,0,0)" stroke-width="0.9999999999999997" fill="rgb(0,0,0)" stroke-linecap="butt" stroke-miterlimit="10.0"><path d="M 184.3519,550.0000 v -2.0000 "/></g><defs></defs><g stroke-linejoin="miter" stroke-opacity="1.0" fill-opacity="0.0" stroke="rgb(0,0,0)" stroke-width="0.9999999999999997" fill="rgb(0,0,0)" stroke-linecap="butt" stroke-miterlimit="10.0"><path d="M 258.8335,550.0000 v -2.0000 "/></g><defs></defs><g stroke-linejoin="miter" stroke-opacity="1.0" fill-opacity="0.0" stroke="rgb(0,0,0)" stroke-width="0.9999999999999997" fill="rgb(0,0,0)" stroke-linecap="butt" stroke-miterlimit="10.0"><path d="M 333.3151,550.0000 v -2.0000 "/></g><defs></defs><g stroke-linejoin="miter" stroke-opacity="1.0" fill-opacity="0.0" stroke="rgb(0,0,0)" stroke-width="0.9999999999999997" fill="rgb(0,0,0)" stroke-linecap="butt" stroke-miterlimit="10.0"><path d="M 407.7967,550.0000 v -2.0000 "/></g><defs></defs><g stroke-linejoin="miter" stroke-opacity="1.0" fill-opacity="0.0" stroke="rgb(0,0,0)" stroke-width="0.9999999999999997" fill="rgb(0,0,0)" stroke-linecap="butt" stroke-miterlimit="10.0"><path d="M 482.2784,550.0000 v -2.0000 "/></g><defs></defs><g stroke-linejoin="miter" stroke-opacity="1.0" fill-opacity="0.0" stroke="rgb(0,0,0)" stroke-width="0.9999999999999997" fill="rgb(0,0,0)" stroke-linecap="butt" stroke-miterlimit="10.0"><path d="M 556.7600,550.0000 v -2.0000 "/></g><defs></defs><g stroke-linejoin="miter" stroke-opacity="1.0" fill-opacity="0.0" stroke="rgb(0,0,0)" stroke-width="0.9999999999999997" fill="rgb(0,0,0)" stroke-linecap="butt" stroke-miterlimit="10.0"><path d="M 631.2416,550.0000 v -2.0000 "/></g><defs></defs><g stroke-linejoin="miter" stroke-opacity="1.0" fill-opacity="0.0" stroke="rgb(0,0,0)" stroke-width="0.9999999999999997" fill="rgb(0,0,0)" stroke-linecap="butt" stroke-miterlimit="10.0"><path d="M 705.7232,550.0000 v -2.0000 "/></g><defs></defs><g stroke-linejoin="miter" stroke-opacity="1.0" fill-opacity="0.0" stroke="rgb(0,0,0)" stroke-width="0.9999999999999997" fill="rgb(0,0,0)" stroke-linecap="butt" stroke-miterlimit="10.0"><path d="M 780.2048,550.0000 v -2.0000 "/></g><defs></defs><g stroke-linejoin="miter" stroke-opacity="1.0" fill-opacity="0.0" stroke="rgb(0,0,0)" stroke-width="0.9999999999999997" fill="rgb(0,0,0)" stroke-linecap="butt" stroke-miterlimit="10.0"><path d="M 35.3887,550.0000 v -5.0000 "/></g><defs></defs><g stroke-linejoin="miter" stroke-opacity="1.0" fill-opacity="0.0" stroke="rgb(0,0,0)" stroke-width="0.9999999999999997" fill="rgb(0,0,0)" stroke-linecap="butt" stroke-miterlimit="10.0"><path d="M 221.5927,550.0000 v -5.0000 "/></g><defs></defs><g stroke-linejoin="miter" stroke-opacity="1.0" fill-opacity="0.0" stroke="rgb(0,0,0)" stroke-width="0.9999999999999997" fill="rgb(0,0,0)" stroke-linecap="butt" stroke-miterlimit="10.0"><path d="M 407.7967,550.0000 v -5.0000 "/></g><defs></defs><g stroke-linejoin="miter" stroke-opacity="1.0" fill-opacity="0.0" stroke="rgb(0,0,0)" stroke-width="0.9999999999999997" fill="rgb(0,0,0)" stroke-linecap="butt" stroke-miterlimit="10.0"><path d="M 594.0008,550.0000 v -5.0000 "/></g><defs></defs><g stroke-linejoin="miter" stroke-opacity="1.0" fill-opacity="0.0" stroke="rgb(0,0,0)" stroke-width="0.9999999999999997" fill="rgb(0,0,0)" stroke-linecap="butt" stroke-miterlimit="10.0"><path d="M 780.2048,550.0000 v -5.0000 "/></g><defs></defs><g stroke-linejoin="bevel" stroke-opacity="0.0" fill-opacity="1.0" stroke="rgb(0,0,0)" stroke-width="0.0" fill="rgb(0,0,0)" stroke-linecap="butt" stroke-miterlimit="10.0"><path d="M 33.2405,570.0000 ZM 35.8561,570.1261 c -1.0189,-0.0000 -1.5861,-0.9034 -1.5861 -0.9034c -0.5672,-0.9034 -0.5672,-2.5945 -0.5672 -2.5945c 0.0000,-1.6912 0.5672,-2.5735 0.5672 -2.5735c 0.5672,-0.8824 1.5861,-0.8824 1.5861 -0.8824c 1.0084,0.0000 1.5756,0.8824 1.5756 0.8824c 0.5672,0.8824 0.5672,2.5735 0.5672 2.5735c 0.0000,1.6912 -0.5672,2.5945 -0.5672 2.5945c -0.5672,0.9034 -1.5756,0.9034 -1.5756 0.9034ZM 35.8561,570.1261 ZM 35.8561,569.4328 c 0.2941,0.0000 0.5305,-0.1628 0.5305 -0.1628c 0.2363,-0.1628 0.4097,-0.5042 0.4097 -0.5042c 0.1733,-0.3414 0.2679,-0.8718 0.2679 -0.8718c 0.0945,-0.5305 0.0945,-1.2658 0.0945 -1.2658c 0.0000,-0.7353 -0.0945,-1.2605 -0.0945 -1.2605c -0.0945,-0.5252 -0.2679,-0.8561 -0.2679 -0.8561c -0.1733,-0.3309 -0.4097,-0.4884 -0.4097 -0.4884c -0.2363,-0.1576 -0.5305,-0.1576 -0.5305 -0.1576c -0.2941,-0.0000 -0.5357,0.1576 -0.5357 0.1576c -0.2416,0.1576 -0.4149,0.4884 -0.4149 0.4884c -0.1733,0.3309 -0.2679,0.8561 -0.2679 0.8561c -0.0945,0.5252 -0.0945,1.2605 -0.0945 1.2605c 0.0000,1.4706 0.3624,2.1376 0.3624 2.1376c 0.3624,0.6670 0.9506,0.6670 0.9506 0.6670Z"/></g><defs></defs><g stroke-linejoin="bevel" stroke-opacity="0.0" fill-opacity="1.0" stroke="rgb(0,0,0)" stroke-width="0.0" fill="rgb(0,0,0)" stroke-linecap="butt" stroke-miterlimit="10.0"><path d="M 214.1820,570.0000 ZM 214.6022,569.4853 c 0.7563,-0.7563 1.3445,-1.3655 1.3445 -1.3655c 0.5882,-0.6092 0.9874,-1.1292 0.9874 -1.1292c 0.3992,-0.5200 0.6092,-0.9559 0.6092 -0.9559c 0.2101,-0.4359 0.2101,-0.8456 0.2101 -0.8456c 0.0000,-0.5777 -0.3151,-0.9454 -0.3151 -0.9454c -0.3151,-0.3676 -0.9559,-0.3676 -0.9559 -0.3676c -0.4202,-0.0000 -0.7773,0.2363 -0.7773 0.2363c -0.3571,0.2363 -0.6513,0.5725 -0.6513 0.5725l -0.4937,-0.4937 c 0.4202,-0.4622 0.8929,-0.7405 0.8929 -0.7405c 0.4727,-0.2784 1.1345,-0.2784 1.1345 -0.2784c 0.9349,0.0000 1.4706,0.5410 1.4706 0.5410c 0.5357,0.5410 0.5357,1.4338 0.5357 1.4338c 0.0000,0.4727 -0.2048,0.9506 -0.2048 0.9506c -0.2048,0.4779 -0.5672,0.9874 -0.5672 0.9874c -0.3624,0.5095 -0.8613,1.0609 -0.8613 1.0609c -0.4989,0.5515 -1.0977,1.1712 -1.0977 1.1712c 0.2731,-0.0210 0.5672,-0.0420 0.5672 -0.0420c 0.2941,-0.0210 0.5567,-0.0210 0.5567 -0.0210h 1.9433 v 0.7458 h -4.3277 v -0.5147 ZM 219.4026,570.0000 ZM 220.0853,568.6450 c 0.2941,0.3046 0.6985,0.5357 0.6985 0.5357c 0.4044,0.2311 0.9926,0.2311 0.9926 0.2311c 0.3046,0.0000 0.5725,-0.1103 0.5725 -0.1103c 0.2679,-0.1103 0.4674,-0.3099 0.4674 -0.3099c 0.1996,-0.1996 0.3151,-0.4832 0.3151 -0.4832c 0.1155,-0.2836 0.1155,-0.6303 0.1155 -0.6303c 0.0000,-0.6933 -0.3887,-1.0819 -0.3887 -1.0819c -0.3887,-0.3887 -1.0399,-0.3887 -1.0399 -0.3887c -0.3466,-0.0000 -0.5935,0.1050 -0.5935 0.1050c -0.2468,0.1050 -0.5515,0.3046 -0.5515 0.3046l -0.4622,-0.2941 l 0.2206,-3.2248 h 3.3508 v 0.7458 h -2.5945 l -0.1786,1.9853 c 0.2416,-0.1261 0.4832,-0.1996 0.4832 -0.1996c 0.2416,-0.0735 0.5462,-0.0735 0.5462 -0.0735c 0.4307,0.0000 0.8088,0.1261 0.8088 0.1261c 0.3782,0.1261 0.6618,0.3834 0.6618 0.3834c 0.2836,0.2574 0.4464,0.6513 0.4464 0.6513c 0.1628,0.3939 0.1628,0.9401 0.1628 0.9401c 0.0000,0.5462 -0.1891,0.9664 -0.1891 0.9664c -0.1891,0.4202 -0.5042,0.7090 -0.5042 0.7090c -0.3151,0.2889 -0.7195,0.4412 -0.7195 0.4412c -0.4044,0.1523 -0.8456,0.1523 -0.8456 0.1523c -0.3992,-0.0000 -0.7300,-0.0788 -0.7300 -0.0788c -0.3309,-0.0788 -0.5987,-0.2048 -0.5987 -0.2048c -0.2679,-0.1261 -0.4832,-0.2889 -0.4832 -0.2889c -0.2153,-0.1628 -0.3834,-0.3414 -0.3834 -0.3414ZM 224.6232,570.0000 ZM 227.2387,570.1261 c -1.0189,-0.0000 -1.5861,-0.9034 -1.5861 -0.9034c -0.5672,-0.9034 -0.5672,-2.5945 -0.5672 -2.5945c 0.0000,-1.6912 0.5672,-2.5735 0.5672 -2.5735c 0.5672,-0.8824 1.5861,-0.8824 1.5861 -0.8824c 1.0084,0.0000 1.5756,0.8824 1.5756 0.8824c 0.5672,0.8824 0.5672,2.5735 0.5672 2.5735c 0.0000,1.6912 -0.5672,2.5945 -0.5672 2.5945c -0.5672,0.9034 -1.5756,0.9034 -1.5756 0.9034ZM 227.2387,570.1261 ZM 227.2387,569.4328 c 0.2941,0.0000 0.5305,-0.1628 0.5305 -0.1628c 0.2363,-0.1628 0.4097,-0.5042 0.4097 -0.5042c 0.1733,-0.3414 0.2679,-0.8718 0.2679 -0.8718c 0.0945,-0.5305 0.0945,-1.2658 0.0945 -1.2658c 0.0000,-0.7353 -0.0945,-1.2605 -0.0945 -1.2605c -0.0945,-0.5252 -0.2679,-0.8561 -0.2679 -0.8561c -0.1733,-0.3309 -0.4097,-0.4884 -0.4097 -0.4884c -0.2363,-0.1576 -0.5305,-0.1576 -0.5305 -0.1576c -0.2941,-0.0000 -0.5357,0.1576 -0.5357 0.1576c -0.2416,0.1576 -0.4149,0.4884 -0.4149 0.4884c -0.1733,0.3309 -0.2679,0.8561 -0.2679 0.8561c -0.0945,0.5252 -0.0945,1.2605 -0.0945 1.2605c 0.0000,1.4706 0.3624,2.1376 0.3624 2.1376c 0.3624,0.6670 0.9506,0.6670 0.9506 0.6670Z"/></g><defs></defs><g stroke-linejoin="bevel" stroke-opacity="0.0" fill-opacity="1.0" stroke="rgb(0,0,0)" stroke-width="0.0" fill="rgb(0,0,0)" stroke-linecap="butt" stroke-miterlimit="10.0"><path d="M 400.3283,570.0000 ZM 401.0110,568.6450 c 0.2941,0.3046 0.6985,0.5357 0.6985 0.5357c 0.4044,0.2311 0.9926,0.2311 0.9926 0.2311c 0.3046,0.0000 0.5725,-0.1103 0.5725 -0.1103c 0.2679,-0.1103 0.4674,-0.3099 0.4674 -0.3099c 0.1996,-0.1996 0.3151,-0.4832 0.3151 -0.4832c 0.1155,-0.2836 0.1155,-0.6303 0.1155 -0.6303c 0.0000,-0.6933 -0.3887,-1.0819 -0.3887 -1.0819c -0.3887,-0.3887 -1.0399,-0.3887 -1.0399 -0.3887c -0.3466,-0.0000 -0.5935,0.1050 -0.5935 0.1050c -0.2468,0.1050 -0.5515,0.3046 -0.5515 0.3046l -0.4622,-0.2941 l 0.2206,-3.2248 h 3.3508 v 0.7458 h -2.5945 l -0.1786,1.9853 c 0.2416,-0.1261 0.4832,-0.1996 0.4832 -0.1996c 0.2416,-0.0735 0.5462,-0.0735 0.5462 -0.0735c 0.4307,0.0000 0.8088,0.1261 0.8088 0.1261c 0.3782,0.1261 0.6618,0.3834 0.6618 0.3834c 0.2836,0.2574 0.4464,0.6513 0.4464 0.6513c 0.1628,0.3939 0.1628,0.9401 0.1628 0.9401c 0.0000,0.5462 -0.1891,0.9664 -0.1891 0.9664c -0.1891,0.4202 -0.5042,0.7090 -0.5042 0.7090c -0.3151,0.2889 -0.7195,0.4412 -0.7195 0.4412c -0.4044,0.1523 -0.8456,0.1523 -0.8456 0.1523c -0.3992,-0.0000 -0.7300,-0.0788 -0.7300 -0.0788c -0.3309,-0.0788 -0.5987,-0.2048 -0.5987 -0.2048c -0.2679,-0.1261 -0.4832,-0.2889 -0.4832 -0.2889c -0.2153,-0.1628 -0.3834,-0.3414 -0.3834 -0.3414ZM 405.5488,570.0000 ZM 408.1644,570.1261 c -1.0189,-0.0000 -1.5861,-0.9034 -1.5861 -0.9034c -0.5672,-0.9034 -0.5672,-2.5945 -0.5672 -2.5945c 0.0000,-1.6912 0.5672,-2.5735 0.5672 -2.5735c 0.5672,-0.8824 1.5861,-0.8824 1.5861 -0.8824c 1.0084,0.0000 1.5756,0.8824 1.5756 0.8824c 0.5672,0.8824 0.5672,2.5735 0.5672 2.5735c 0.0000,1.6912 -0.5672,2.5945 -0.5672 2.5945c -0.5672,0.9034 -1.5756,0.9034 -1.5756 0.9034ZM 408.1644,570.1261 ZM 408.1644,569.4328 c 0.2941,0.0000 0.5305,-0.1628 0.5305 -0.1628c 0.2363,-0.1628 0.4097,-0.5042 0.4097 -0.5042c 0.1733,-0.3414 0.2679,-0.8718 0.2679 -0.8718c 0.0945,-0.5305 0.0945,-1.2658 0.0945 -1.2658c 0.0000,-0.7353 -0.0945,-1.2605 -0.0945 -1.2605c -0.0945,-0.5252 -0.2679,-0.8561 -0.2679 -0.8561c -0.1733,-0.3309 -0.4097,-0.4884 -0.4097 -0.4884c -0.2363,-0.1576 -0.5305,-0.1576 -0.5305 -0.1576c -0.2941,-0.0000 -0.5357,0.1576 -0.5357 0.1576c -0.2416,0.1576 -0.4149,0.4884 -0.4149 0.4884c -0.1733,0.3309 -0.2679,0.8561 -0.2679 0.8561c -0.0945,0.5252 -0.0945,1.2605 -0.0945 1.2605c 0.0000,1.4706 0.3624,2.1376 0.3624 2.1376c 0.3624,0.6670 0.9506,0.6670 0.9506 0.6670ZM 410.7694,570.0000 ZM 413.3850,570.1261 c -1.0189,-0.0000 -1.5861,-0.9034 -1.5861 -0.9034c -0.5672,-0.9034 -0.5672,-2.5945 -0.5672 -2.5945c 0.0000,-1.6912 0.5672,-2.5735 0.5672 -2.5735c 0.5672,-0.8824 1.5861,-0.8824 1.5861 -0.8824c 1.0084,0.0000 1.5756,0.8824 1.5756 0.8824c 0.5672,0.8824 0.5672,2.5735 0.5672 2.5735c 0.0000,1.6912 -0.5672,2.5945 -0.5672 2.5945c -0.5672,0.9034 -1.5756,0.9034 -1.5756 0.9034ZM 413.3850,570.1261 ZM 413.3850,569.4328 c 0.2941,0.0000 0.5305,-0.1628 0.5305 -0.1628c 0.2363,-0.1628 0.4097,-0.5042 0.4097 -0.5042c 0.1733,-0.3414 0.2679,-0.8718 0.2679 -0.8718c 0.0945,-0.5305 0.0945,-1.2658 0.0945 -1.2658c 0.0000,-0.7353 -0.0945,-1.2605 -0.0945 -1.2605c -0.0945,-0.5252 -0.2679,-0.8561 -0.2679 -0.8561c -0.1733,-0.3309 -0.4097,-0.4884 -0.4097 -0.4884c -0.2363,-0.1576 -0.5305,-0.1576 -0.5305 -0.1576c -0.2941,-0.0000 -0.5357,0.1576 -0.5357 0.1576c -0.2416,0.1576 -0.4149,0.4884 -0.4149 0.4884c -0.1733,0.3309 -0.2679,0.8561 -0.2679 0.8561c -0.0945,0.5252 -0.0945,1.2605 -0.0945 1.2605c 0.0000,1.4706 0.3624,2.1376 0.3624 2.1376c 0.3624,0.6670 0.9506,0.6670 0.9506 0.6670Z"/></g><defs></defs><g stroke-linejoin="bevel" stroke-opacity="0.0" fill-opacity="1.0" stroke="rgb(0,0,0)" stroke-width="0.0" fill="rgb(0,0,0)" stroke-linecap="butt" stroke-miterlimit="10.0"><path d="M 586.6321,570.0000 ZM 588.4913,570.0000 c 0.0420,-0.9454 0.1681,-1.7332 0.1681 -1.7332c 0.1261,-0.7878 0.3519,-1.4968 0.3519 -1.4968c 0.2258,-0.7090 0.5777,-1.3708 0.5777 -1.3708c 0.3519,-0.6618 0.8456,-1.3550 0.8456 -1.3550h -3.3403 v -0.7458 h 4.3172 v 0.5357 c -0.5987,0.7563 -0.9716,1.4496 -0.9716 1.4496c -0.3729,0.6933 -0.5935,1.4128 -0.5935 1.4128c -0.2206,0.7195 -0.3204,1.5231 -0.3204 1.5231c -0.0998,0.8036 -0.1418,1.7805 -0.1418 1.7805h -0.8929 h 0.0000 ZM 591.8527,570.0000 ZM 592.5355,568.6450 c 0.2941,0.3046 0.6985,0.5357 0.6985 0.5357c 0.4044,0.2311 0.9926,0.2311 0.9926 0.2311c 0.3046,0.0000 0.5725,-0.1103 0.5725 -0.1103c 0.2679,-0.1103 0.4674,-0.3099 0.4674 -0.3099c 0.1996,-0.1996 0.3151,-0.4832 0.3151 -0.4832c 0.1155,-0.2836 0.1155,-0.6303 0.1155 -0.6303c 0.0000,-0.6933 -0.3887,-1.0819 -0.3887 -1.0819c -0.3887,-0.3887 -1.0399,-0.3887 -1.0399 -0.3887c -0.3466,-0.0000 -0.5935,0.1050 -0.5935 0.1050c -0.2468,0.1050 -0.5515,0.3046 -0.5515 0.3046l -0.4622,-0.2941 l 0.2206,-3.2248 h 3.3508 v 0.7458 h -2.5945 l -0.1786,1.9853 c 0.2416,-0.1261 0.4832,-0.1996 0.4832 -0.1996c 0.2416,-0.0735 0.5462,-0.0735 0.5462 -0.0735c 0.4307,0.0000 0.8088,0.1261 0.8088 0.1261c 0.3782,0.1261 0.6618,0.3834 0.6618 0.3834c 0.2836,0.2574 0.4464,0.6513 0.4464 0.6513c 0.1628,0.3939 0.1628,0.9401 0.1628 0.9401c 0.0000,0.5462 -0.1891,0.9664 -0.1891 0.9664c -0.1891,0.4202 -0.5042,0.7090 -0.5042 0.7090c -0.3151,0.2889 -0.7195,0.4412 -0.7195 0.4412c -0.4044,0.1523 -0.8456,0.1523 -0.8456 0.1523c -0.3992,-0.0000 -0.7300,-0.0788 -0.7300 -0.0788c -0.3309,-0.0788 -0.5987,-0.2048 -0.5987 -0.2048c -0.2679,-0.1261 -0.4832,-0.2889 -0.4832 -0.2889c -0.2153,-0.1628 -0.3834,-0.3414 -0.3834 -0.3414ZM 597.0733,570.0000 ZM 599.6888,570.1261 c -1.0189,-0.0000 -1.5861,-0.9034 -1.5861 -0.9034c -0.5672,-0.9034 -0.5672,-2.5945 -0.5672 -2.5945c 0.0000,-1.6912 0.5672,-2.5735 0.5672 -2.5735c 0.5672,-0.8824 1.5861,-0.8824 1.5861 -0.8824c 1.0084,0.0000 1.5756,0.8824 1.5756 0.8824c 0.5672,0.8824 0.5672,2.5735 0.5672 2.5735c 0.0000,1.6912 -0.5672,2.5945 -0.5672 2.5945c -0.5672,0.9034 -1.5756,0.9034 -1.5756 0.9034ZM 599.6888,570.1261 ZM 599.6888,569.4328 c 0.2941,0.0000 0.5305,-0.1628 0.5305 -0.1628c 0.2363,-0.1628 0.4097,-0.5042 0.4097 -0.5042c 0.1733,-0.3414 0.2679,-0.8718 0.2679 -0.8718c 0.0945,-0.5305 0.0945,-1.2658 0.0945 -1.2658c 0.0000,-0.7353 -0.0945,-1.2605 -0.0945 -1.2605c -0.0945,-0.5252 -0.2679,-0.8561 -0.2679 -0.8561c -0.1733,-0.3309 -0.4097,-0.4884 -0.4097 -0.4884c -0.2363,-0.1576 -0.5305,-0.1576 -0.5305 -0.1576c -0.2941,-0.0000 -0.5357,0.1576 -0.5357 0.1576c -0.2416,0.1576 -0.4149,0.4884 -0.4149 0.4884c -0.1733,0.3309 -0.2679,0.8561 -0.2679 0.8561c -0.0945,0.5252 -0.0945,1.2605 -0.0945 1.2605c 0.0000,1.4706 0.3624,2.1376 0.3624 2.1376c 0.3624,0.6670 0.9506,0.6670 0.9506 0.6670Z"/></g><defs></defs><g stroke-linejoin="bevel" stroke-opacity="0.0" fill-opacity="1.0" stroke="rgb(0,0,0)" stroke-width="0.0" fill="rgb(0,0,0)" stroke-linecap="butt" stroke-miterlimit="10.0"><path d="M 770.4097,570.0000 ZM 771.2395,569.2857 h 1.5336 v -4.9370 h -1.2185 v -0.5567 c 0.4622,-0.0840 0.8036,-0.2048 0.8036 -0.2048c 0.3414,-0.1208 0.6145,-0.2889 0.6145 -0.2889h 0.6618 v 5.9874 h 1.3866 v 0.7143 h -3.7815 v -0.7143 ZM 775.6303,570.0000 ZM 778.2458,570.1261 c -1.0189,-0.0000 -1.5861,-0.9034 -1.5861 -0.9034c -0.5672,-0.9034 -0.5672,-2.5945 -0.5672 -2.5945c 0.0000,-1.6912 0.5672,-2.5735 0.5672 -2.5735c 0.5672,-0.8824 1.5861,-0.8824 1.5861 -0.8824c 1.0084,0.0000 1.5756,0.8824 1.5756 0.8824c 0.5672,0.8824 0.5672,2.5735 0.5672 2.5735c 0.0000,1.6912 -0.5672,2.5945 -0.5672 2.5945c -0.5672,0.9034 -1.5756,0.9034 -1.5756 0.9034ZM 778.2458,570.1261 ZM 778.2458,569.4328 c 0.2941,0.0000 0.5305,-0.1628 0.5305 -0.1628c 0.2363,-0.1628 0.4097,-0.5042 0.4097 -0.5042c 0.1733,-0.3414 0.2679,-0.8718 0.2679 -0.8718c 0.0945,-0.5305 0.0945,-1.2658 0.0945 -1.2658c 0.0000,-0.7353 -0.0945,-1.2605 -0.0945 -1.2605c -0.0945,-0.5252 -0.2679,-0.8561 -0.2679 -0.8561c -0.1733,-0.3309 -0.4097,-0.4884 -0.4097 -0.4884c -0.2363,-0.1576 -0.5305,-0.1576 -0.5305 -0.1576c -0.2941,-0.0000 -0.5357,0.1576 -0.5357 0.1576c -0.2416,0.1576 -0.4149,0.4884 -0.4149 0.4884c -0.1733,0.3309 -0.2679,0.8561 -0.2679 0.8561c -0.0945,0.5252 -0.0945,1.2605 -0.0945 1.2605c 0.0000,1.4706 0.3624,2.1376 0.3624 2.1376c 0.3624,0.6670 0.9506,0.6670 0.9506 0.6670ZM 780.8508,570.0000 ZM 783.4664,570.1261 c -1.0189,-0.0000 -1.5861,-0.9034 -1.5861 -0.9034c -0.5672,-0.9034 -0.5672,-2.5945 -0.5672 -2.5945c 0.0000,-1.6912 0.5672,-2.5735 0.5672 -2.5735c 0.5672,-0.8824 1.5861,-0.8824 1.5861 -0.8824c 1.0084,0.0000 1.5756,0.8824 1.5756 0.8824c 0.5672,0.8824 0.5672,2.5735 0.5672 2.5735c 0.0000,1.6912 -0.5672,2.5945 -0.5672 2.5945c -0.5672,0.9034 -1.5756,0.9034 -1.5756 0.9034ZM 783.4664,570.1261 ZM 783.4664,569.4328 c 0.2941,0.0000 0.5305,-0.1628 0.5305 -0.1628c 0.2363,-0.1628 0.4097,-0.5042 0.4097 -0.5042c 0.1733,-0.3414 0.2679,-0.8718 0.2679 -0.8718c 0.0945,-0.5305 0.0945,-1.2658 0.0945 -1.2658c 0.0000,-0.7353 -0.0945,-1.2605 -0.0945 -1.2605c -0.0945,-0.5252 -0.2679,-0.8561 -0.2679 -0.8561c -0.1733,-0.3309 -0.4097,-0.4884 -0.4097 -0.4884c -0.2363,-0.1576 -0.5305,-0.1576 -0.5305 -0.1576c -0.2941,-0.0000 -0.5357,0.1576 -0.5357 0.1576c -0.2416,0.1576 -0.4149,0.4884 -0.4149 0.4884c -0.1733,0.3309 -0.2679,0.8561 -0.2679 0.8561c -0.0945,0.5252 -0.0945,1.2605 -0.0945 1.2605c 0.0000,1.4706 0.3624,2.1376 0.3624 2.1376c 0.3624,0.6670 0.9506,0.6670 0.9506 0.6670ZM 786.0714,570.0000 ZM 788.6870,570.1261 c -1.0189,-0.0000 -1.5861,-0.9034 -1.5861 -0.9034c -0.5672,-0.9034 -0.5672,-2.5945 -0.5672 -2.5945c 0.0000,-1.6912 0.5672,-2.5735 0.5672 -2.5735c 0.5672,-0.8824 1.5861,-0.8824 1.5861 -0.8824c 1.0084,0.0000 1.5756,0.8824 1.5756 0.8824c 0.5672,0.8824 0.5672,2.5735 0.5672 2.5735c 0.0000,1.6912 -0.5672,2.5945 -0.5672 2.5945c -0.5672,0.9034 -1.5756,0.9034 -1.5756 0.9034ZM 788.6870,570.1261 ZM 788.6870,569.4328 c 0.2941,0.0000 0.5305,-0.1628 0.5305 -0.1628c 0.2363,-0.1628 0.4097,-0.5042 0.4097 -0.5042c 0.1733,-0.3414 0.2679,-0.8718 0.2679 -0.8718c 0.0945,-0.5305 0.0945,-1.2658 0.0945 -1.2658c 0.0000,-0.7353 -0.0945,-1.2605 -0.0945 -1.2605c -0.0945,-0.5252 -0.2679,-0.8561 -0.2679 -0.8561c -0.1733,-0.3309 -0.4097,-0.4884 -0.4097 -0.4884c -0.2363,-0.1576 -0.5305,-0.1576 -0.5305 -0.1576c -0.2941,-0.0000 -0.5357,0.1576 -0.5357 0.1576c -0.2416,0.1576 -0.4149,0.4884 -0.4149 0.4884c -0.1733,0.3309 -0.2679,0.8561 -0.2679 0.8561c -0.0945,0.5252 -0.0945,1.2605 -0.0945 1.2605c 0.0000,1.4706 0.3624,2.1376 0.3624 2.1376c 0.3624,0.6670 0.9506,0.6670 0.9506 0.6670Z"/></g><defs></defs><g stroke-linejoin="round" stroke-opacity="1.0" fill-opacity="0.0" stroke="rgb(0,0,255)" stroke-width="0.9999999999999997" fill="rgb(0,0,0)" stroke-linecap="round" stroke-miterlimit="10.0"><path d="M 10.0000,585.0000 h 20.0000 "/></g><defs></defs><g stroke-linejoin="bevel" stroke-opacity="0.0" fill-opacity="1.0" stroke="rgb(0,0,0)" stroke-width="0.0" fill="rgb(0,0,0)" stroke-linecap="butt" stroke-miterlimit="10.0"><path d="M 35.0735,586.6071 ZM 38.2353,579.8319 c -0.2836,-0.1261 -0.5777,-0.1261 -0.5777 -0.1261c -0.7143,-0.0000 -0.7143,0.9874 -0.7143 0.9874v 0.8088 h 1.0819 v 0.7038 h -1.0819 v 4.4013 h -0.8613 v -4.4013 h -0.6933 v -0.6513 l 0.6933,-0.0525 v -0.8088 c 0.0000,-0.7878 0.3624,-1.2395 0.3624 -1.2395c 0.3624,-0.4517 1.1292,-0.4517 1.1292 -0.4517c 0.2416,0.0000 0.4569,0.0473 0.4569 0.0473c 0.2153,0.0473 0.3939,0.1208 0.3939 0.1208ZM 38.1408,586.6071 ZM 39.0021,581.5021 h 0.7143 l 0.0735,0.9244 h 0.0315 c 0.2626,-0.4832 0.6355,-0.7668 0.6355 -0.7668c 0.3729,-0.2836 0.8141,-0.2836 0.8141 -0.2836c 0.3046,0.0000 0.5462,0.1050 0.5462 0.1050l -0.1681,0.7563 c -0.1261,-0.0420 -0.2311,-0.0630 -0.2311 -0.0630c -0.1050,-0.0210 -0.2626,-0.0210 -0.2626 -0.0210c -0.3256,-0.0000 -0.6775,0.2626 -0.6775 0.2626c -0.3519,0.2626 -0.6145,0.9139 -0.6145 0.9139v 3.2773 h -0.8613 v -5.1050 ZM 41.6807,586.6071 ZM 42.1639,584.0651 c 0.0000,-0.6303 0.1943,-1.1292 0.1943 -1.1292c 0.1943,-0.4989 0.5147,-0.8456 0.5147 -0.8456c 0.3204,-0.3466 0.7300,-0.5305 0.7300 -0.5305c 0.4097,-0.1838 0.8508,-0.1838 0.8508 -0.1838c 0.4832,0.0000 0.8666,0.1681 0.8666 0.1681c 0.3834,0.1681 0.6408,0.4832 0.6408 0.4832c 0.2574,0.3151 0.3939,0.7563 0.3939 0.7563c 0.1366,0.4412 0.1366,0.9874 0.1366 0.9874c 0.0000,0.2836 -0.0315,0.4727 -0.0315 0.4727h -3.4454 c 0.0525,0.8298 0.5095,1.3130 0.5095 1.3130c 0.4569,0.4832 1.1922,0.4832 1.1922 0.4832c 0.3676,0.0000 0.6775,-0.1103 0.6775 -0.1103c 0.3099,-0.1103 0.5935,-0.2889 0.5935 -0.2889l 0.3046,0.5672 c -0.3361,0.2101 -0.7458,0.3676 -0.7458 0.3676c -0.4097,0.1576 -0.9349,0.1576 -0.9349 0.1576c -0.5147,-0.0000 -0.9611,-0.1838 -0.9611 -0.1838c -0.4464,-0.1838 -0.7773,-0.5252 -0.7773 -0.5252c -0.3309,-0.3414 -0.5200,-0.8351 -0.5200 -0.8351c -0.1891,-0.4937 -0.1891,-1.1239 -0.1891 -1.1239ZM 42.1639,584.0651 ZM 45.7353,583.6765 c 0.0000,-0.7878 -0.3309,-1.2027 -0.3309 -1.2027c -0.3309,-0.4149 -0.9296,-0.4149 -0.9296 -0.4149c -0.2731,-0.0000 -0.5200,0.1103 -0.5200 0.1103c -0.2468,0.1103 -0.4464,0.3151 -0.4464 0.3151c -0.1996,0.2048 -0.3309,0.5042 -0.3309 0.5042c -0.1313,0.2994 -0.1733,0.6880 -0.1733 0.6880h 2.7311 ZM 46.8908,586.6071 ZM 47.3845,584.0651 c 0.0000,-0.6197 0.1838,-1.1187 0.1838 -1.1187c 0.1838,-0.4989 0.4884,-0.8456 0.4884 -0.8456c 0.3046,-0.3466 0.7038,-0.5357 0.7038 -0.5357c 0.3992,-0.1891 0.8403,-0.1891 0.8403 -0.1891c 0.4412,0.0000 0.7773,0.1523 0.7773 0.1523c 0.3361,0.1523 0.6828,0.4569 0.6828 0.4569h 0.0210 l 0.0840,-0.4832 h 0.6933 v 7.2584 h -0.8718 v -1.8172 l 0.0420,-0.9034 c -0.3046,0.2836 -0.6985,0.4884 -0.6985 0.4884c -0.3939,0.2048 -0.8351,0.2048 -0.8351 0.2048c -0.9664,-0.0000 -1.5389,-0.6933 -1.5389 -0.6933c -0.5725,-0.6933 -0.5725,-1.9748 -0.5725 -1.9748ZM 47.3845,584.0651 ZM 48.2773,584.0546 c 0.0000,0.9244 0.3676,1.4391 0.3676 1.4391c 0.3676,0.5147 1.0399,0.5147 1.0399 0.5147c 0.3571,0.0000 0.6723,-0.1733 0.6723 -0.1733c 0.3151,-0.1733 0.6303,-0.5305 0.6303 -0.5305v -2.6681 c -0.3256,-0.2941 -0.6250,-0.4149 -0.6250 -0.4149c -0.2994,-0.1208 -0.6145,-0.1208 -0.6145 -0.1208c -0.3046,-0.0000 -0.5725,0.1418 -0.5725 0.1418c -0.2679,0.1418 -0.4674,0.3992 -0.4674 0.3992c -0.1996,0.2574 -0.3151,0.6145 -0.3151 0.6145c -0.1155,0.3571 -0.1155,0.7983 -0.1155 0.7983ZM 52.6681,586.6071 ZM 53.4559,581.5021 h 0.8718 v 3.1197 c 0.0000,0.7248 0.2258,1.0452 0.2258 1.0452c 0.2258,0.3204 0.7300,0.3204 0.7300 0.3204c 0.3992,0.0000 0.7038,-0.2048 0.7038 -0.2048c 0.3046,-0.2048 0.6723,-0.6565 0.6723 -0.6565v -3.6239 h 0.8613 v 5.1050 h -0.7143 l -0.0735,-0.7983 h -0.0315 c -0.3571,0.4202 -0.7511,0.6723 -0.7511 0.6723c -0.3939,0.2521 -0.9296,0.2521 -0.9296 0.2521c -0.8193,-0.0000 -1.1922,-0.5042 -1.1922 -0.5042c -0.3729,-0.5042 -0.3729,-1.4916 -0.3729 -1.4916v -3.2353 ZM 58.3824,586.6071 ZM 58.8655,584.0651 c 0.0000,-0.6303 0.1943,-1.1292 0.1943 -1.1292c 0.1943,-0.4989 0.5147,-0.8456 0.5147 -0.8456c 0.3204,-0.3466 0.7300,-0.5305 0.7300 -0.5305c 0.4097,-0.1838 0.8508,-0.1838 0.8508 -0.1838c 0.4832,0.0000 0.8666,0.1681 0.8666 0.1681c 0.3834,0.1681 0.6408,0.4832 0.6408 0.4832c 0.2574,0.3151 0.3939,0.7563 0.3939 0.7563c 0.1366,0.4412 0.1366,0.9874 0.1366 0.9874c 0.0000,0.2836 -0.0315,0.4727 -0.0315 0.4727h -3.4454 c 0.0525,0.8298 0.5095,1.3130 0.5095 1.3130c 0.4569,0.4832 1.1922,0.4832 1.1922 0.4832c 0.3676,0.0000 0.6775,-0.1103 0.6775 -0.1103c 0.3099,-0.1103 0.5935,-0.2889 0.5935 -0.2889l 0.3046,0.5672 c -0.3361,0.2101 -0.7458,0.3676 -0.7458 0.3676c -0.4097,0.1576 -0.9349,0.1576 -0.9349 0.1576c -0.5147,-0.0000 -0.9611,-0.1838 -0.9611 -0.1838c -0.4464,-0.1838 -0.7773,-0.5252 -0.7773 -0.5252c -0.3309,-0.3414 -0.5200,-0.8351 -0.5200 -0.8351c -0.1891,-0.4937 -0.1891,-1.1239 -0.1891 -1.1239ZM 58.8655,584.0651 ZM 62.4370,583.6765 c 0.0000,-0.7878 -0.3309,-1.2027 -0.3309 -1.2027c -0.3309,-0.4149 -0.9296,-0.4149 -0.9296 -0.4149c -0.2731,-0.0000 -0.5200,0.1103 -0.5200 0.1103c -0.2468,0.1103 -0.4464,0.3151 -0.4464 0.3151c -0.1996,0.2048 -0.3309,0.5042 -0.3309 0.5042c -0.1313,0.2994 -0.1733,0.6880 -0.1733 0.6880h 2.7311 ZM 63.5924,586.6071 ZM 64.4538,581.5021 h 0.7143 l 0.0735,0.7353 h 0.0315 c 0.3676,-0.3676 0.7721,-0.6145 0.7721 -0.6145c 0.4044,-0.2468 0.9401,-0.2468 0.9401 -0.2468c 0.8088,0.0000 1.1817,0.5042 1.1817 0.5042c 0.3729,0.5042 0.3729,1.4916 0.3729 1.4916v 3.2353 h -0.8613 v -3.1197 c 0.0000,-0.7248 -0.2311,-1.0452 -0.2311 -1.0452c -0.2311,-0.3204 -0.7353,-0.3204 -0.7353 -0.3204c -0.3992,-0.0000 -0.7038,0.1996 -0.7038 0.1996c -0.3046,0.1996 -0.6933,0.5882 -0.6933 0.5882v 3.6975 h -0.8613 v -5.1050 ZM 69.3382,586.6071 ZM 69.8214,584.0651 c 0.0000,-0.6408 0.1996,-1.1397 0.1996 -1.1397c 0.1996,-0.4989 0.5357,-0.8456 0.5357 -0.8456c 0.3361,-0.3466 0.7826,-0.5252 0.7826 -0.5252c 0.4464,-0.1786 0.9401,-0.1786 0.9401 -0.1786c 0.5042,0.0000 0.8666,0.1838 0.8666 0.1838c 0.3624,0.1838 0.6250,0.4254 0.6250 0.4254l -0.4307,0.5567 c -0.2311,-0.1996 -0.4779,-0.3256 -0.4779 -0.3256c -0.2468,-0.1261 -0.5515,-0.1261 -0.5515 -0.1261c -0.3466,-0.0000 -0.6408,0.1418 -0.6408 0.1418c -0.2941,0.1418 -0.5042,0.4044 -0.5042 0.4044c -0.2101,0.2626 -0.3309,0.6250 -0.3309 0.6250c -0.1208,0.3624 -0.1208,0.8036 -0.1208 0.8036c 0.0000,0.4412 0.1155,0.7983 0.1155 0.7983c 0.1155,0.3571 0.3204,0.6145 0.3204 0.6145c 0.2048,0.2574 0.4989,0.3992 0.4989 0.3992c 0.2941,0.1418 0.6408,0.1418 0.6408 0.1418c 0.3676,0.0000 0.6670,-0.1523 0.6670 -0.1523c 0.2994,-0.1523 0.5305,-0.3624 0.5305 -0.3624l 0.3887,0.5672 c -0.3466,0.3046 -0.7721,0.4832 -0.7721 0.4832c -0.4254,0.1786 -0.8876,0.1786 -0.8876 0.1786c -0.5042,-0.0000 -0.9454,-0.1786 -0.9454 -0.1786c -0.4412,-0.1786 -0.7616,-0.5200 -0.7616 -0.5200c -0.3204,-0.3414 -0.5042,-0.8403 -0.5042 -0.8403c -0.1838,-0.4989 -0.1838,-1.1292 -0.1838 -1.1292ZM 74.1912,586.6071 ZM 74.7059,588.0147 l 0.1891,0.0473 c 0.0000,0.0000 0.1996,0.0263 0.1996 0.0263c 0.4412,0.0000 0.7195,-0.3099 0.7195 -0.3099c 0.2784,-0.3099 0.4359,-0.7826 0.4359 -0.7826l 0.1155,-0.3782 l -2.0483,-5.1155 h 0.8929 l 1.0399,2.8256 c 0.1155,0.3361 0.2468,0.7090 0.2468 0.7090c 0.1313,0.3729 0.2468,0.7300 0.2468 0.7300h 0.0420 c 0.1155,-0.3466 0.2206,-0.7248 0.2206 -0.7248c 0.1050,-0.3782 0.2101,-0.7143 0.2101 -0.7143l 0.9139,-2.8256 h 0.8403 l -1.9223,5.5252 c -0.1366,0.3782 -0.3046,0.7038 -0.3046 0.7038c -0.1681,0.3256 -0.3992,0.5620 -0.3992 0.5620c -0.2311,0.2363 -0.5252,0.3729 -0.5252 0.3729c -0.2941,0.1366 -0.6828,0.1366 -0.6828 0.1366c -0.1786,-0.0000 -0.3256,-0.0263 -0.3256 -0.0263c -0.1471,-0.0263 -0.2731,-0.0788 -0.2731 -0.0788l 0.1681,-0.6828 h 0.0000 ZM 81.2185,586.6071 ZM 81.7017,584.0651 c 0.0000,-0.6303 0.1943,-1.1292 0.1943 -1.1292c 0.1943,-0.4989 0.5147,-0.8456 0.5147 -0.8456c 0.3204,-0.3466 0.7300,-0.5305 0.7300 -0.5305c 0.4097,-0.1838 0.8508,-0.1838 0.8508 -0.1838c 0.4832,0.0000 0.8666,0.1681 0.8666 0.1681c 0.3834,0.1681 0.6408,0.4832 0.6408 0.4832c 0.2574,0.3151 0.3939,0.7563 0.3939 0.7563c 0.1366,0.4412 0.1366,0.9874 0.1366 0.9874c 0.0000,0.2836 -0.0315,0.4727 -0.0315 0.4727h -3.4454 c 0.0525,0.8298 0.5095,1.3130 0.5095 1.3130c 0.4569,0.4832 1.1922,0.4832 1.1922 0.4832c 0.3676,0.0000 0.6775,-0.1103 0.6775 -0.1103c 0.3099,-0.1103 0.5935,-0.2889 0.5935 -0.2889l 0.3046,0.5672 c -0.3361,0.2101 -0.7458,0.3676 -0.7458 0.3676c -0.4097,0.1576 -0.9349,0.1576 -0.9349 0.1576c -0.5147,-0.0000 -0.9611,-0.1838 -0.9611 -0.1838c -0.4464,-0.1838 -0.7773,-0.5252 -0.7773 -0.5252c -0.3309,-0.3414 -0.5200,-0.8351 -0.5200 -0.8351c -0.1891,-0.4937 -0.1891,-1.1239 -0.1891 -1.1239ZM 81.7017,584.0651 ZM 85.2731,583.6765 c 0.0000,-0.7878 -0.3309,-1.2027 -0.3309 -1.2027c -0.3309,-0.4149 -0.9296,-0.4149 -0.9296 -0.4149c -0.2731,-0.0000 -0.5200,0.1103 -0.5200 0.1103c -0.2468,0.1103 -0.4464,0.3151 -0.4464 0.3151c -0.1996,0.2048 -0.3309,0.5042 -0.3309 0.5042c -0.1313,0.2994 -0.1733,0.6880 -0.1733 0.6880h 2.7311 ZM 86.4286,586.6071 ZM 87.2899,581.5021 h 0.7143 l 0.0735,0.9244 h 0.0315 c 0.2626,-0.4832 0.6355,-0.7668 0.6355 -0.7668c 0.3729,-0.2836 0.8141,-0.2836 0.8141 -0.2836c 0.3046,0.0000 0.5462,0.1050 0.5462 0.1050l -0.1681,0.7563 c -0.1261,-0.0420 -0.2311,-0.0630 -0.2311 -0.0630c -0.1050,-0.0210 -0.2626,-0.0210 -0.2626 -0.0210c -0.3256,-0.0000 -0.6775,0.2626 -0.6775 0.2626c -0.3519,0.2626 -0.6145,0.9139 -0.6145 0.9139v 3.2773 h -0.8613 v -5.1050 ZM 90.0735,586.6071 ZM 90.9349,581.5021 h 0.7143 l 0.0735,0.9244 h 0.0315 c 0.2626,-0.4832 0.6355,-0.7668 0.6355 -0.7668c 0.3729,-0.2836 0.8141,-0.2836 0.8141 -0.2836c 0.3046,0.0000 0.5462,0.1050 0.5462 0.1050l -0.1681,0.7563 c -0.1261,-0.0420 -0.2311,-0.0630 -0.2311 -0.0630c -0.1050,-0.0210 -0.2626,-0.0210 -0.2626 -0.0210c -0.3256,-0.0000 -0.6775,0.2626 -0.6775 0.2626c -0.3519,0.2626 -0.6145,0.9139 -0.6145 0.9139v 3.2773 h -0.8613 v -5.1050 ZM 93.6134,586.6071 ZM 94.0966,584.0651 c 0.0000,-0.6408 0.1943,-1.1397 0.1943 -1.1397c 0.1943,-0.4989 0.5200,-0.8456 0.5200 -0.8456c 0.3256,-0.3466 0.7511,-0.5252 0.7511 -0.5252c 0.4254,-0.1786 0.8981,-0.1786 0.8981 -0.1786c 0.4727,0.0000 0.8981,0.1786 0.8981 0.1786c 0.4254,0.1786 0.7511,0.5252 0.7511 0.5252c 0.3256,0.3466 0.5200,0.8456 0.5200 0.8456c 0.1943,0.4989 0.1943,1.1397 0.1943 1.1397c 0.0000,0.6303 -0.1943,1.1292 -0.1943 1.1292c -0.1943,0.4989 -0.5200,0.8403 -0.5200 0.8403c -0.3256,0.3414 -0.7511,0.5200 -0.7511 0.5200c -0.4254,0.1786 -0.8981,0.1786 -0.8981 0.1786c -0.4727,-0.0000 -0.8981,-0.1786 -0.8981 -0.1786c -0.4254,-0.1786 -0.7511,-0.5200 -0.7511 -0.5200c -0.3256,-0.3414 -0.5200,-0.8403 -0.5200 -0.8403c -0.1943,-0.4989 -0.1943,-1.1292 -0.1943 -1.1292ZM 94.0966,584.0651 ZM 94.9895,584.0651 c 0.0000,0.4412 0.1050,0.7983 0.1050 0.7983c 0.1050,0.3571 0.2994,0.6145 0.2994 0.6145c 0.1943,0.2574 0.4674,0.3992 0.4674 0.3992c 0.2731,0.1418 0.5987,0.1418 0.5987 0.1418c 0.3256,0.0000 0.5987,-0.1418 0.5987 -0.1418c 0.2731,-0.1418 0.4674,-0.3992 0.4674 -0.3992c 0.1943,-0.2574 0.2994,-0.6145 0.2994 -0.6145c 0.1050,-0.3571 0.1050,-0.7983 0.1050 -0.7983c 0.0000,-0.4412 -0.1050,-0.8036 -0.1050 -0.8036c -0.1050,-0.3624 -0.2994,-0.6250 -0.2994 -0.6250c -0.1943,-0.2626 -0.4674,-0.4044 -0.4674 -0.4044c -0.2731,-0.1418 -0.5987,-0.1418 -0.5987 -0.1418c -0.3256,-0.0000 -0.5987,0.1418 -0.5987 0.1418c -0.2731,0.1418 -0.4674,0.4044 -0.4674 0.4044c -0.1943,0.2626 -0.2994,0.6250 -0.2994 0.6250c -0.1050,0.3624 -0.1050,0.8036 -0.1050 0.8036ZM 99.3067,586.6071 ZM 100.1681,581.5021 h 0.7143 l 0.0735,0.9244 h 0.0315 c 0.2626,-0.4832 0.6355,-0.7668 0.6355 -0.7668c 0.3729,-0.2836 0.8141,-0.2836 0.8141 -0.2836c 0.3046,0.0000 0.5462,0.1050 0.5462 0.1050l -0.1681,0.7563 c -0.1261,-0.0420 -0.2311,-0.0630 -0.2311 -0.0630c -0.1050,-0.0210 -0.2626,-0.0210 -0.2626 -0.0210c -0.3256,-0.0000 -0.6775,0.2626 -0.6775 0.2626c -0.3519,0.2626 -0.6145,0.9139 -0.6145 0.9139v 3.2773 h -0.8613 v -5.1050 Z"/></g></svg>