<?xml version="1.0" encoding="UTF-8"?>
<!DOCTYPE svg PUBLIC "-//W3C//DTD SVG 1.1//EN"
    "http://www.w3.org/Graphics/SVG/1.1/DTD/svg11.dtd"><svg xmlns="http://www.w3.org/2000/svg" height="600.0000" stroke-opacity="1" viewBox="0 0 800 600" font-size="1" width="800.0000" xmlns:xlink="http://www.w3.org/1999/xlink" stroke="rgb(0,0,0)" version="1.1"><defs></defs><defs></defs><g stroke-linejoin="bevel" stroke-opacity="0.0" fill-opacity="1.0" stroke="rgb(0,0,0)" stroke-width="0.0" fill="rgb(255,255,255)" stroke-linecap="butt" stroke-miterlimit="10.0"><path d="M 0.0000,0.0000 v 600.0000 h 800.0000 v -600.0000 Z"/></g><defs></defs><g stroke-linejoin="miter" stroke-opacity="1.0" fill-opacity="0.0" stroke="rgb(211,211,211)" stroke-width="0.9999999999999997" fill="rgb(0,0,0)" stroke-dashoffset="0.0" stroke-linecap="butt" stroke-miterlimit="10.0" stroke-dasharray="4.999999999999998,4.999999999999998"><path d="M 32.8151,15.0000 v 535.0000 "/></g><defs></defs><g stroke-linejoin="miter" stroke-opacity="1.0" fill-opacity="0.0" stroke="rgb(211,211,211)" stroke-width="0.9999999999999997" fill="rgb(0,0,0)" stroke-dashoffset="0.0" stroke-linecap="butt" stroke-miterlimit="10.0" stroke-dasharray="4.999999999999998,4.999999999999998"><path d="M 219.6626,15.0000 v 535.0000 "/></g><defs></defs><g stroke-linejoin="miter" stroke-opacity="1.0" fill-opacity="0.0" stroke="rgb(211,211,211)" stroke-width="0.9999999999999997" fill="rgb(0,0,0)" stroke-dashoffset="0.0" stroke-linecap="butt" stroke-miterlimit="10.0" stroke-dasharray="4.999999999999998,4.999999999999998"><path d="M 406.5100,15.0000 v 535.0000 "/></g><defs></defs><g stroke-linejoin="miter" stroke-opacity="1.0" fill-opacity="0.0" stroke="rgb(211,211,211)" stroke-width="0.9999999999999997" fill="rgb(0,0,0)" stroke-dashoffset="0.0" stroke-linecap="butt" stroke-miterlimit="10.0" stroke-dasharray="4.999999999999998,4.999999999999998"><path d="M 593.3574,15.0000 v 535.0000 "/></g><defs></defs><g stroke-linejoin="miter" stroke-opacity="1.0" fill-opacity="0.0" stroke="rgb(211,211,211)" stroke-width="0.9999999999999997" fill="rgb(0,0,0)" stroke-dashoffset="0.0" stroke-linecap="butt" stroke-miterlimit="10.0" stroke-dasharray="4.999999999999998,4.999999999999998"><path d="M 780.2048,15.0000 v 535.0000 "/></g><defs></defs><g stroke-linejoin="miter" stroke-opacity="1.0" fill-opacity="0.0" stroke="rgb(211,211,211)" stroke-width="0.9999999999999997" fill="rgb(0,0,0)" stroke-dashoffset="0.0" stroke-linecap="butt" stroke-miterlimit="10.0" stroke-dasharray="4.999999999999998,4.999999999999998"><path d="M 32.8151,550.0000 h 747.3897 "/></g><defs></defs><g stroke-linejoin="miter" stroke-opacity="1.0" fill-opacity="0.0" stroke="rgb(211,211,211)" stroke-width="0.9999999999999997" fill="rgb(0,0,0)" stroke-dashoffset="0.0" stroke-linecap="butt" stroke-miterlimit="10.0" stroke-dasharray="4.999999999999998,4.999999999999998"><path d="M 32.8151,443.0000 h 747.3897 "/></g><defs></defs><g stroke-linejoin="miter" stroke-opacity="1.0" fill-opacity="0.0" stroke="rgb(211,211,211)" stroke-width="0.9999999999999997" fill="rgb(0,0,0)" stroke-dashoffset="0.0" stroke-linecap="butt" stroke-miterlimit="10.0" stroke-dasharray="4.999999999999998,4.999999999999998"><path d="M 32.8151,336.0000 h 747.3897 "/></g><defs></defs><g stroke-linejoin="miter" stroke-opacity="1.0" fill-opacity="0.0" stroke="rgb(211,211,211)" stroke-width="0.9999999999999997" fill="rgb(0,0,0)" stroke-dashoffset="0.0" stroke-linecap="butt" stroke-miterlimit="10.0" stroke-dasharray="4.999999999999998,4.999999999999998"><path d="M 32.8151,229.0000 h 747.3897 "/></g><defs></defs><g stroke-linejoin="miter" stroke-opacity="1.0" fill-opacity="0.0" stroke="rgb(211,211,211)" stroke-width="0.9999999999999997" fill="rgb(0,0,0)" stroke-dashoffset="0.0" stroke-linecap="butt" stroke-miterlimit="10.0" stroke-dasharray="4.999999999999998,4.999999999999998"><path d="M 32.8151,122.0000 h 747.3897 "/></g><defs></defs><g stroke-linejoin="miter" stroke-opacity="1.0" fill-opacity="0.0" stroke="rgb(211,211,211)" stroke-width="0.9999999999999997" fill="rgb(0,0,0)" stroke-dashoffset="0.0" stroke-linecap="butt" stroke-miterlimit="10.0" stroke-dasharray="4.999999999999998,4.999999999999998"><path d="M 32.8151,15.0000 h 747.3897 "/></g><defs></defs><g stroke-linejoin="round" stroke-opacity="1.0" fill-opacity="0.0" stroke="rgb(0,0,255)" stroke-width="0.9999999999999997" fill="rgb(0,0,0)" stroke-linecap="round" stroke-miterlimit="10.0"><defs><clipPath id="myClip1"><path d="M 32.8151,15.0000 v 535.0000 h 747.3897 v -535.0000 Z"/></clipPath></defs><g clip-path="url(#myClip1)"><path d="M 33.5625,336.0000 l 0.7474,15.4897 l 0.7474,-8.8778 l 0.7474,-4.5171 l 0.7474,9.2213 l 0.7474,10.5350 l 0.7474,-1.2233 l 0.7474,-0.9975 l 0.7474,11.5831 l 0.7474,-13.6561 l 0.7474,1.1000 l 0.7474,10.6875 l 0.7474,-16.4761 l 0.7474,7.9506 l 0.7474,-11.4082 l 0.7474,5.3993 l 0.7474,19.7808 l 0.7474,-2.4102 l 0.7474,16.4644 l 0.7474,-17.6585 l 0.7474,9.2390 l 0.7474,-4.6757 l 0.7474,12.2502 l 0.7474,19.2192 l 0.7474,-4.1929 l 0.7474,-8.1349 l 0.7474,13.8534 l 0.7474,-2.1231 l 0.7474,0.6499 l 0.7474,16.8757 l 0.7474,15.6152 l 0.7474,16.0904 l 0.7474,8.9072 l 0.7474,-13.1729 l 0.7474,-9.7452 l 0.7474,-7.6600 l 0.7474,-18.6856 l 0.7474,-6.6891 l 0.7474,11.6097 l 0.7474,8.8222 l 0.7474,16.3010 l 0.7474,-5.8032 l 0.7474,-13.6313 l 0.7474,-4.2272 l 0.7474,6.5933 l 0.7474,-13.9749 l 0.7474,16.5661 l 0.7474,3.7956 l 0.7474,9.8860 l 0.7474,-15.1689 l 0.7474,-1.3645 l 0.7474,10.9398 l 0.7474,-9.8067 l 0.7474,11.4826 l 0.7474,-9.1481 l 0.7474,5.5696 l 0.7474,5.0210 l 0.7474,3.6587 l 0.7474,17.9159 l 0.7474,-0.0892 l 0.7474,-14.9837 l 0.7474,14.3073 l 0.7474,8.6824 l 0.7474,-7.6431 l 0.7474,11.9939 l 0.7474,-4.5240 l 0.7474,-9.6034 l 0.7474,7.3356 l 0.7474,5.5415 l 0.7474,-0.9161 l 0.7474,13.1096 l 0.7474,-8.1541 l 0.7474,-10.3016 l 0.7474,2.2764 l 0.7474,-18.5341 l 0.7474,-20.2501 l 0.7474,-20.0088 l 0.7474,-14.1177 l 0.7474,-7.7628 l 0.7474,-19.7119 l 0.7474,-7.0797 l 0.7474,8.5292 l 0.7474,1.5897 l 0.7474,8.5439 l 0.7474,-10.7878 l 0.7474,15.1820 l 0.7474,6.3287 l 0.7474,5.0499 l 0.7474,1.1480 l 0.7474,-6.9963 l 0.7474,-8.9417 l 0.7474,-7.5576 l 0.7474,-2.7807 l 0.7474,-3.0084 l 0.7474,11.6902 l 0.7474,8.1305 l 0.7474,-1.8874 l 0.7474,17.5911 l 0.7474,7.6117 l 0.7474,19.1365 l 0.7474,1.0880 l 0.7474,10.7367 l 0.7474,1.7975 l 0.7474,5.5678 l 0.7474,-15.1248 l 0.7474,-12.5112 l 0.7474,-17.7455 l 0.7474,17.1194 l 0.7474,1.8504 l 0.7474,2.4053 l 0.7474,-2.4118 l 0.7474,19.0787 l 0.7474,14.1016 l 0.7474,8.4845 l 0.7474,-6.5205 l 0.7474,2.6053 l 0.7474,-7.9053 l 0.7474,4.8818 l 0.7474,2.3190 l 0.7474,1.7679 l 0.7474,9.1785 l 0.7474,5.1035 l 0.7474,3.9741 l 0.7474,-10.4306 l 0.7474,3.8945 l 0.7474,2.7449 l 0.7474,4.0036 l 0.7474,0.2399 l 0.7474,7.4635 l 0.7474,1.3395 l 0.7474,-17.8027 l 0.7474,11.5432 l 0.7474,2.1655 l 0.7474,-13.4607 l 0.7474,-16.5207 l 0.7474,5.6236 l 0.7474,-17.4174 l 0.7474,-6.7371 l 0.7474,16.7739 l 0.7474,-13.5326 l 0.7474,-18.7104 l 0.7474,-1.8683 l 0.7474,-2.0593 l 0.7474,-4.2958 l 0.7474,-5.7226 l 0.7474,12.7949 l 0.7474,-9.7745 l 0.7474,-13.5004 l 0.7474,-10.2708 l 0.7474,-11.1451 l 0.7474,-10.6811 l 0.7474,15.9182 l 0.7474,3.8639 l 0.7474,-9.5792 l 0.7474,-14.4674 l 0.7474,0.8622 l 0.7474,-19.8290 l 0.7474,-6.0705 l 0.7474,-5.4269 l 0.7474,7.1047 l 0.7474,19.8608 l 0.7474,13.7615 l 0.7474,15.7963 l 0.7474,-16.8339 l 0.7474,12.1069 l 0.7474,-15.9951 l 0.7474,-2.0380 l 0.7474,17.2466 l 0.7474,5.4030 l 0.7474,-14.4525 l 0.7474,10.8675 l 0.7474,18.1916 l 0.7474,-17.0425 l 0.7474,2.7221 l 0.7474,11.5532 l 0.7474,-9.9112 l 0.7474,0.4270 l 0.7474,-14.0882 l 0.7474,15.4022 l 0.7474,7.5552 l 0.7474,-15.8155 l 0.7474,-3.7958 l 0.7474,-11.8665 l 0.7474,-4.5338 l 0.7474,9.8074 l 0.7474,3.1799 l 0.7474,16.1199 l 0.7474,-10.1764 l 0.7474,-0.6817 l 0.7474,8.2547 l 0.7474,-6.6262 l 0.7474,0.9388 l 0.7474,12.4221 l 0.7474,18.1691 l 0.7474,-13.0674 l 0.7474,-15.9805 l 0.7474,-10.6740 l 0.7474,15.3755 l 0.7474,15.3649 l 0.7474,-12.2653 l 0.7474,5.2208 l 0.7474,-12.0699 l 0.7474,-3.6083 l 0.7474,-2.2693 l 0.7474,7.5446 l 0.7474,7.8648 l 0.7474,18.2205 l 0.7474,2.0411 l 0.7474,-8.6614 l 0.7474,16.9576 l 0.7474,-8.1251 l 0.7474,4.5783 l 0.7474,0.1170 l 0.7474,4.3954 l 0.7474,-19.0683 l 0.7474,16.0306 l 0.7474,2.7803 l 0.7474,-10.1358 l 0.7474,-6.9129 l 0.7474,-5.4732 l 0.7474,-7.2623 l 0.7474,-18.4587 l 0.7474,-2.7444 l 0.7474,8.0082 l 0.7474,16.0002 l 0.7474,15.1538 l 0.7474,10.5077 l 0.7474,5.2151 l 0.7474,15.5944 l 0.7474,6.8672 l 0.7474,15.9423 l 0.7474,-7.4911 l 0.7474,-7.3844 l 0.7474,-9.1229 l 0.7474,-0.1855 l 0.7474,12.9800 l 0.7474,-6.4518 l 0.7474,18.5109 l 0.7474,8.3609 l 0.7474,18.6970 l 0.7474,13.0946 l 0.7474,1.2257 l 0.7474,7.2367 l 0.7474,16.3160 l 0.7474,12.0844 l 0.7474,-11.5384 l 0.7474,-1.9089 l 0.7474,-20.1738 l 0.7474,-13.3076 l 0.7474,10.1817 l 0.7474,9.7842 l 0.7474,-16.7567 l 0.7474,-5.7288 l 0.7474,20.1930 l 0.7474,-12.3294 l 0.7474,1.5748 l 0.7474,15.0336 l 0.7474,-6.6339 l 0.7474,3.8351 l 0.7474,-0.3691 l 0.7474,12.7492 l 0.7474,-17.7340 l 0.7474,-15.4547 l 0.7474,2.5895 l 0.7474,15.8418 l 0.7474,8.5778 l 0.7474,-1.3077 l 0.7474,-10.3025 l 0.7474,-10.9186 l 0.7474,-18.6912 l 0.7474,-13.6594 l 0.7474,13.2120 l 0.7474,9.3208 l 0.7474,18.7312 l 0.7474,-17.8979 l 0.7474,1.8869 l 0.7474,7.1458 l 0.7474,16.9395 l 0.7474,-20.2362 l 0.7474,-4.4959 l 0.7474,4.4738 l 0.7474,-20.0225 l 0.7474,-5.7836 l 0.7474,13.6338 l 0.7474,-15.8313 l 0.7474,-11.4153 l 0.7474,11.2019 l 0.7474,-11.9307 l 0.7474,19.4532 l 0.7474,18.5701 l 0.7474,4.0391 l 0.7474,3.1442 l 0.7474,1.6003 l 0.7474,-7.7242 l 0.7474,-6.1222 l 0.7474,-18.3549 l 0.7474,4.9594 l 0.7474,-17.7794 l 0.7474,-14.1497 l 0.7474,-18.5404 l 0.7474,11.0563 l 0.7474,-8.2281 l 0.7474,-18.7760 l 0.7474,-10.1228 l 0.7474,-19.7034 l 0.7474,0.0944 l 0.7474,-2.1345 l 0.7474,-19.5588 l 0.7474,-6.4948 l 0.7474,0.3568 l 0.7474,-3.3666 l 0.7474,13.5012 l 0.7474,-15.8783 l 0.7474,-5.9590 l 0.7474,-2.6635 l 0.7474,11.3214 l 0.7474,-4.7829 l 0.7474,-20.0902 l 0.7474,-12.0810 l 0.7474,19.9981 l 0.7474,7.4852 l 0.7474,5.0910 l 0.7474,-8.5750 l 0.7474,12.1231 l 0.7474,14.4865 l 0.7474,-1.8400 l 0.7474,-19.9395 l 0.7474,-4.5083 l 0.7474,-1.2933 l 0.7474,9.3882 l 0.7474,-7.4558 l 0.7474,10.4991 l 0.7474,10.6667 l 0.7474,12.7099 l 0.7474,6.8719 l 0.7474,-18.9988 l 0.7474,-17.6000 l 0.7474,19.5774 l 0.7474,-12.1528 l 0.7474,-16.4713 l 0.7474,0.5715 l 0.7474,-10.7909 l 0.7474,17.7338 l 0.7474,9.8976 l 0.7474,-4.1544 l 0.7474,6.5242 l 0.7474,-3.7891 l 0.7474,6.1798 l 0.7474,14.0873 l 0.7474,-7.6161 l 0.7474,2.6531 l 0.7474,10.3560 l 0.7474,-14.0744 l 0.7474,-5.6459 l 0.7474,-20.0464 l 0.7474,10.8037 l 0.7474,-16.1459 l 0.7474,-11.5422 l 0.7474,-20.1797 l 0.7474,16.8048 l 0.7474,-6.8953 l 0.7474,-0.3245 l 0.7474,16.7046 l 0.7474,9.5570 l 0.7474,-5.8579 l 0.7474,10.8846 l 0.7474,-17.0497 l 0.7474,6.3179 l 0.7474,14.2057 l 0.7474,8.0304 l 0.7474,-14.6828 l 0.7474,-16.0690 l 0.7474,10.5197 l 0.7474,2.5130 l 0.7474,-12.6937 l 0.7474,13.8134 l 0.7474,-1.3711 l 0.7474,-15.3904 l 0.7474,18.9663 l 0.7474,-13.6073 l 0.7474,-14.1160 l 0.7474,-4.7427 l 0.7474,20.0601 l 0.7474,-1.8684 l 0.7474,-20.1290 l 0.7474,-13.0143 l 0.7474,-5.6659 l 0.7474,2.6571 l 0.7474,-0.8380 l 0.7474,10.2630 l 0.7474,-6.6611 l 0.7474,-9.1519 l 0.7474,15.7208 l 0.7474,-16.4387 l 0.7474,-10.4816 l 0.7474,18.7677 l 0.7474,-2.4939 l 0.7474,-5.4034 l 0.7474,6.3943 l 0.7474,-1.2655 l 0.7474,2.0978 l 0.7474,15.0182 l 0.7474,2.9666 l 0.7474,1.3969 l 0.7474,-18.3020 l 0.7474,-12.3170 l 0.7474,-15.9150 l 0.7474,10.1641 l 0.7474,20.1643 l 0.7474,-10.3305 l 0.7474,-6.9635 l 0.7474,-14.7063 l 0.7474,17.8426 l 0.7474,-17.2812 l 0.7474,2.4343 l 0.7474,-10.0458 l 0.7474,1.9741 l 0.7474,-9.6858 l 0.7474,15.1324 l 0.7474,-0.9016 l 0.7474,2.1511 l 0.7474,-9.7866 l 0.7474,11.2693 l 0.7474,-3.5617 l 0.7474,7.8730 l 0.7474,2.5393 l 0.7474,-15.0788 l 0.7474,14.3554 l 0.7474,13.8362 l 0.7474,6.8136 l 0.7474,9.3207 l 0.7474,-18.3250 l 0.7474,-4.9531 l 0.7474,17.1676 l 0.7474,17.2567 l 0.7474,-15.1948 l 0.7474,5.3636 l 0.7474,7.2204 l 0.7474,15.6335 l 0.7474,-10.0062 l 0.7474,6.8367 l 0.7474,14.4005 l 0.7474,-17.5153 l 0.7474,-0.8533 l 0.7474,11.6440 l 0.7474,6.8951 l 0.7474,13.4342 l 0.7474,9.2926 l 0.7474,-12.1788 l 0.7474,5.3843 l 0.7474,-20.1377 l 0.7474,11.2903 l 0.7474,1.7591 l 0.7474,-10.7997 l 0.7474,4.6384 l 0.7474,4.4451 l 0.7474,13.8088 l 0.7474,-5.8275 l 0.7474,-15.0251 l 0.7474,-13.8837 l 0.7474,-14.7264 l 0.7474,1.3361 l 0.7474,3.8103 l 0.7474,0.6156 l 0.7474,5.5099 l 0.7474,-10.7675 l 0.7474,15.0966 l 0.7474,9.4690 l 0.7474,6.5246 l 0.7474,8.5104 l 0.7474,19.3273 l 0.7474,-20.2404 l 0.7474,-8.2244 l 0.7474,-13.7255 l 0.7474,15.8812 l 0.7474,-15.7457 l 0.7474,-11.7457 l 0.7474,-7.5113 l 0.7474,10.0436 l 0.7474,-16.9297 l 0.7474,-13.1320 l 0.7474,-5.2884 l 0.7474,-3.9208 l 0.7474,-5.5058 l 0.7474,19.7189 l 0.7474,6.9742 l 0.7474,-19.5755 l 0.7474,-10.7702 l 0.7474,10.7624 l 0.7474,-9.5501 l 0.7474,-8.5180 l 0.7474,-6.9078 l 0.7474,11.8076 l 0.7474,-14.1504 l 0.7474,-9.1257 l 0.7474,-15.6518 l 0.7474,-0.7226 l 0.7474,-5.3969 l 0.7474,6.1067 l 0.7474,-7.6864 l 0.7474,-7.1169 l 0.7474,-13.0953 l 0.7474,-12.7360 l 0.7474,-14.1234 l 0.7474,12.2514 l 0.7474,-16.6223 l 0.7474,0.8055 l 0.7474,-14.4044 l 0.7474,12.1588 l 0.7474,-16.9331 l 0.7474,-17.5408 l 0.7474,-11.4513 l 0.7474,18.4842 l 0.7474,-18.9481 l 0.7474,3.4347 l 0.7474,-6.6971 l 0.7474,-9.2006 l 0.7474,-4.6596 l 0.7474,-10.1878 l 0.7474,16.8494 l 0.7474,-1.6698 l 0.7474,-3.3482 l 0.7474,18.8814 l 0.7474,1.3534 l 0.7474,-8.8215 l 0.7474,-13.8944 l 0.7474,6.3969 l 0.7474,-8.0738 l 0.7474,-13.0454 l 0.7474,10.2894 l 0.7474,11.1584 l 0.7474,18.1802 l 0.7474,10.8928 l 0.7474,12.9660 l 0.7474,-7.5292 l 0.7474,11.8466 l 0.7474,2.1405 l 0.7474,1.0763 l 0.7474,9.3455 l 0.7474,9.5366 l 0.7474,14.0641 l 0.7474,-18.7749 l 0.7474,15.5281 l 0.7474,15.6132 l 0.7474,9.6996 l 0.7474,-8.9995 l 0.7474,-10.3887 l 0.7474,-11.9862 l 0.7474,6.6688 l 0.7474,-8.6427 l 0.7474,10.9207 l 0.7474,-2.6431 l 0.7474,7.4015 l 0.7474,14.2565 l 0.7474,13.3234 l 0.7474,14.9723 l 0.7474,4.8821 l 0.7474,-1.7262 l 0.7474,18.3982 l 0.7474,9.3934 l 0.7474,-18.7486 l 0.7474,-7.1158 l 0.7474,-12.2135 l 0.7474,-16.8236 l 0.7474,-19.8396 l 0.7474,10.4154 l 0.7474,-14.9421 l 0.7474,15.6515 l 0.7474,-7.2085 l 0.7474,19.6983 l 0.7474,2.4155 l 0.7474,-2.5713 l 0.7474,-12.5180 l 0.7474,-14.3862 l 0.7474,-19.4383 l 0.7474,15.3751 l 0.7474,-3.9149 l 0.7474,16.5151 l 0.7474,-14.1733 l 0.7474,-15.3975 l 0.7474,12.6874 l 0.7474,1.2857 l 0.7474,-7.1378 l 0.7474,-16.8595 l 0.7474,4.9174 l 0.7474,17.1065 l 0.7474,-3.3309 l 0.7474,-4.8746 l 0.7474,-7.9296 l 0.7474,18.1446 l 0.7474,7.9867 l 0.7474,15.6087 l 0.7474,-5.8125 l 0.7474,-6.6992 l 0.7474,11.9310 l 0.7474,-2.2809 l 0.7474,8.7992 l 0.7474,-14.0155 l 0.7474,-19.2016 l 0.7474,15.3146 l 0.7474,-16.9773 l 0.7474,12.9258 l 0.7474,-20.2809 l 0.7474,-15.8184 l 0.7474,-8.4528 l 0.7474,1.3915 l 0.7474,4.5455 l 0.7474,14.1919 l 0.7474,1.5169 l 0.7474,3.7204 l 0.7474,-6.5065 l 0.7474,19.2113 l 0.7474,-4.0842 l 0.7474,-18.2486 l 0.7474,-15.5424 l 0.7474,-12.9304 l 0.7474,6.9982 l 0.7474,-0.5995 l 0.7474,17.6026 l 0.7474,18.9769 l 0.7474,-1.5698 l 0.7474,15.0614 l 0.7474,20.0339 l 0.7474,6.7869 l 0.7474,-16.4787 l 0.7474,18.7485 l 0.7474,-0.6098 l 0.7474,-14.9982 l 0.7474,-7.0176 l 0.7474,8.5036 l 0.7474,5.0706 l 0.7474,-10.2429 l 0.7474,11.7520 l 0.7474,5.7623 l 0.7474,-8.9156 l 0.7474,-13.1427 l 0.7474,17.4266 l 0.7474,14.8865 l 0.7474,8.4716 l 0.7474,0.2881 l 0.7474,-13.2976 l 0.7474,-17.4619 l 0.7474,12.2220 l 0.7474,-17.9524 l 0.7474,20.2668 l 0.7474,2.5512 l 0.7474,0.1932 l 0.7474,0.9553 l 0.7474,18.2513 l 0.7474,9.0322 l 0.7474,17.8255 l 0.7474,11.3015 l 0.7474,-11.5835 l 0.7474,-0.1600 l 0.7474,3.4047 l 0.7474,-19.9672 l 0.7474,18.2161 l 0.7474,-12.0923 l 0.7474,14.5995 l 0.7474,13.8997 l 0.7474,-2.8604 l 0.7474,-2.3107 l 0.7474,14.1809 l 0.7474,-0.8846 l 0.7474,-5.3722 l 0.7474,-16.2879 l 0.7474,-2.6346 l 0.7474,-3.0383 l 0.7474,-1.8632 l 0.7474,3.2101 l 0.7474,8.5994 l 0.7474,-19.0215 l 0.7474,6.9239 l 0.7474,4.9188 l 0.7474,3.9277 l 0.7474,12.9107 l 0.7474,8.4657 l 0.7474,0.0201 l 0.7474,11.2864 l 0.7474,-12.7020 l 0.7474,-8.2781 l 0.7474,-11.5024 l 0.7474,6.6408 l 0.7474,-15.4163 l 0.7474,-10.8129 l 0.7474,-4.5908 l 0.7474,7.4004 l 0.7474,9.0205 l 0.7474,-11.4071 l 0.7474,12.6831 l 0.7474,3.3950 l 0.7474,4.3223 l 0.7474,4.4836 l 0.7474,-6.4973 l 0.7474,-6.1921 l 0.7474,1.9352 l 0.7474,19.6170 l 0.7474,3.0450 l 0.7474,13.5112 l 0.7474,17.0304 l 0.7474,6.9039 l 0.7474,-16.5927 l 0.7474,14.4892 l 0.7474,2.7054 l 0.7474,-13.0573 l 0.7474,-13.1062 l 0.7474,-1.3619 l 0.7474,3.3394 l 0.7474,-8.8403 l 0.7474,17.9258 l 0.7474,16.1347 l 0.7474,8.1427 l 0.7474,-7.6014 l 0.7474,-2.9204 l 0.7474,11.6269 l 0.7474,-19.3386 l 0.7474,15.4757 l 0.7474,-2.8285 l 0.7474,11.5623 l 0.7474,3.9972 l 0.7474,-16.2628 l 0.7474,19.1612 l 0.7474,-14.3876 l 0.7474,-8.1165 l 0.7474,2.3080 l 0.7474,0.4646 l 0.7474,-9.1673 l 0.7474,8.6630 l 0.7474,13.6145 l 0.7474,-9.9297 l 0.7474,-7.8091 l 0.7474,-18.1915 l 0.7474,9.3241 l 0.7474,-8.5912 l 0.7474,-20.1952 l 0.7474,17.4245 l 0.7474,5.3315 l 0.7474,8.2161 l 0.7474,18.7492 l 0.7474,6.8918 l 0.7474,-14.6988 l 0.7474,-13.4376 l 0.7474,-5.7964 l 0.7474,-0.3323 l 0.7474,-18.9931 l 0.7474,-17.5317 l 0.7474,4.4959 l 0.7474,-0.6728 l 0.7474,-8.0466 l 0.7474,-14.2010 l 0.7474,19.6131 l 0.7474,14.4305 l 0.7474,-10.0391 l 0.7474,-4.1464 l 0.7474,-12.0751 l 0.7474,12.1137 l 0.7474,10.3006 l 0.7474,18.3991 l 0.7474,19.6793 l 0.7474,5.2796 l 0.7474,1.1440 l 0.7474,-2.2912 l 0.7474,-0.9168 l 0.7474,-3.0353 l 0.7474,7.3745 l 0.7474,-0.7094 l 0.7474,-4.4437 l 0.7474,-8.0820 l 0.7474,-3.3663 l 0.7474,8.3270 l 0.7474,-15.3289 l 0.7474,16.1478 l 0.7474,19.9279 l 0.7474,-17.2011 l 0.7474,-0.2436 l 0.7474,10.7068 l 0.7474,-12.1842 l 0.7474,12.6382 l 0.7474,8.7725 l 0.7474,-6.6124 l 0.7474,18.3674 l 0.7474,5.0907 l 0.7474,-9.3560 l 0.7474,14.3539 l 0.7474,18.5654 l 0.7474,12.0540 l 0.7474,-17.6749 l 0.7474,-12.4189 l 0.7474,-13.0257 l 0.7474,17.0869 l 0.7474,17.1704 l 0.7474,-9.0379 l 0.7474,-4.6478 l 0.7474,-2.3245 l 0.7474,-8.4647 l 0.7474,-9.4961 l 0.7474,4.4483 l 0.7474,-3.9675 l 0.7474,11.5490 l 0.7474,-9.7929 l 0.7474,1.2678 l 0.7474,-8.2231 l 0.7474,-1.9347 l 0.7474,16.7663 l 0.7474,7.4806 l 0.7474,1.3230 l 0.7474,17.0201 l 0.7474,-16.7400 l 0.7474,15.9881 l 0.7474,6.8363 l 0.7474,17.0113 l 0.7474,4.7417 l 0.7474,8.5143 l 0.7474,9.5119 l 0.7474,-17.3210 l 0.7474,0.4250 l 0.7474,2.6522 l 0.7474,-10.3200 l 0.7474,15.2309 l 0.7474,16.6805 l 0.7474,2.4851 l 0.7474,-1.5593 l 0.7474,8.6026 l 0.7474,16.5418 l 0.7474,11.6315 l 0.7474,-7.2546 l 0.7474,8.1380 l 0.7474,-15.5603 l 0.7474,-16.4783 l 0.7474,-17.7284 l 0.7474,17.5593 l 0.7474,0.9202 l 0.7474,-14.2408 l 0.7474,14.6080 l 0.7474,-1.2273 l 0.7474,7.5976 l 0.7474,6.4197 l 0.7474,-4.4753 l 0.7474,3.9419 l 0.7474,6.0565 l 0.7474,-20.2620 l 0.7474,10.5367 l 0.7474,13.4881 l 0.7474,12.3477 l 0.7474,-13.5711 l 0.7474,-7.1910 l 0.7474,10.1759 l 0.7474,5.3316 l 0.7474,-15.6514 l 0.7474,15.1420 l 0.7474,13.7392 l 0.7474,-14.6639 l 0.7474,2.2900 l 0.7474,-5.5952 l 0.7474,5.9233 l 0.7474,13.5287 l 0.7474,5.3683 l 0.7474,2.5933 l 0.7474,-1.9079 l 0.7474,3.2021 l 0.7474,-16.5355 l 0.7474,-1.9018 l 0.7474,-10.0809 l 0.7474,2.1512 l 0.7474,17.4969 l 0.7474,-15.5236 l 0.7474,-13.2006 l 0.7474,-3.1922 l 0.7474,-18.6381 l 0.7474,-5.6866 l 0.7474,-7.2150 l 0.7474,-9.4724 l 0.7474,14.5302 l 0.7474,11.5599 l 0.7474,2.4014 l 0.7474,-15.4009 l 0.7474,-8.4892 l 0.7474,-1.9249 l 0.7474,-18.6770 l 0.7474,13.4890 l 0.7474,8.3824 l 0.7474,11.3444 l 0.7474,4.3117 l 0.7474,0.2789 l 0.7474,-1.8912 l 0.7474,-5.1273 l 0.7474,-9.9472 l 0.7474,-16.4385 l 0.7474,16.0518 l 0.7474,-17.9589 l 0.7474,7.1941 l 0.7474,-2.4084 l 0.7474,14.8180 l 0.7474,18.3533 l 0.7474,-8.9959 l 0.7474,8.2067 l 0.7474,-19.9767 l 0.7474,4.5610 l 0.7474,7.9326 l 0.7474,-14.2343 l 0.7474,0.9129 l 0.7474,-7.2838 l 0.7474,14.1771 l 0.7474,11.1134 l 0.7474,-18.7647 l 0.7474,-15.7342 l 0.7474,16.7803 l 0.7474,-11.8904 l 0.7474,6.8756 l 0.7474,13.4876 l 0.7474,-10.0078 l 0.7474,-20.3252 l 0.7474,-0.4035 l 0.7474,5.8245 l 0.7474,8.0364 l 0.7474,10.8029 l 0.7474,-19.8170 l 0.7474,-7.3516 l 0.7474,16.2140 l 0.7474,-8.6984 l 0.7474,-12.4503 l 0.7474,18.2475 l 0.7474,4.5760 l 0.7474,-11.4918 l 0.7474,-1.9699 l 0.7474,-15.0879 l 0.7474,18.4506 l 0.7474,11.1098 l 0.7474,-8.0505 l 0.7474,0.0005 l 0.7474,-1.0141 l 0.7474,-6.6639 l 0.7474,18.2806 l 0.7474,17.7973 l 0.7474,-1.1224 l 0.7474,-4.4631 l 0.7474,12.3911 l 0.7474,-7.8286 l 0.7474,-15.4800 l 0.7474,17.9707 l 0.7474,-8.6745 l 0.7474,19.3282 l 0.7474,1.8895 l 0.7474,-7.3296 l 0.7474,12.6653 l 0.7474,7.0974 l 0.7474,-5.0491 l 0.7474,7.8578 l 0.7474,15.2401 l 0.7474,7.6098 l 0.7474,-0.3440 l 0.7474,18.0012 l 0.7474,-7.8617 l 0.7474,1.3544 l 0.7474,-14.8028 l 0.7474,-17.8920 l 0.7474,18.2368 l 0.7474,18.3387 l 0.7474,-13.8909 l 0.7474,6.9671 l 0.7474,4.0356 l 0.7474,-7.2299 l 0.7474,-7.7425 l 0.7474,7.0761 l 0.7474,8.5743 l 0.7474,-7.8160 l 0.7474,10.2448 l 0.7474,4.2725 l 0.7474,1.5809 l 0.7474,8.0537 l 0.7474,0.2105 l 0.7474,2.0943 l 0.7474,0.0484 l 0.7474,-5.2995 l 0.7474,-12.9705 l 0.7474,-1.4209 l 0.7474,1.3504 l 0.7474,-4.4575 l 0.7474,-17.3435 l 0.7474,-18.5656 l 0.7474,19.4977 l 0.7474,9.9382 l 0.7474,-9.2701 l 0.7474,-6.2895 l 0.7474,-7.3466 l 0.7474,-18.4812 l 0.7474,-17.4519 l 0.7474,5.0991 l 0.7474,5.6667 l 0.7474,9.6865 l 0.7474,3.1328 l 0.7474,12.6498 l 0.7474,-3.9433 l 0.7474,-16.5026 l 0.7474,9.5691 l 0.7474,7.7124 l 0.7474,16.3611 l 0.7474,5.1844 l 0.7474,8.3721 l 0.7474,-2.9366 "/></g></g><defs></defs><g stroke-linejoin="miter" stroke-opacity="1.0" fill-opacity="0.0" stroke="rgb(0,0,0)" stroke-width="0.9999999999999997" fill="rgb(0,0,0)" stroke-linecap="square" stroke-miterlimit="10.0"><path d="M 32.8151,550.0000 v -535.0000 "/></g><defs></defs><g stroke-linejoin="miter" stroke-opacity="1.0" fill-opacity="0.0" stroke="rgb(0,0,0)" stroke-width="0.9999999999999997" fill="rgb(0,0,0)" stroke-linecap="butt" stroke-miterlimit="10.0"><path d="M 32.8151,550.0000 h 2.0000 "/></g><defs></defs><g stroke-linejoin="miter" stroke-opacity="1.0" fill-opacity="0.0" stroke="rgb(0,0,0)" stroke-width="0.9999999999999997" fill="rgb(0,0,0)" stroke-linecap="butt" stroke-miterlimit="10.0"><path d="M 32.8151,539.3000 h 2.0000 "/></g><defs></defs><g stroke-linejoin="miter" stroke-opacity="1.0" fill-opacity="0.0" stroke="rgb(0,0,0)" stroke-width="0.9999999999999997" fill="rgb(0,0,0)" stroke-linecap="butt" stroke-miterlimit="10.0"><path d="M 32.8151,528.6000 h 2.0000 "/></g><defs></defs><g stroke-linejoin="miter" stroke-opacity="1.0" fill-opacity="0.0" stroke="rgb(0,0,0)" stroke-width="0.9999999999999997" fill="rgb(0,0,0)" stroke-linecap="butt" stroke-miterlimit="10.0"><path d="M 32.8151,517.9000 h 2.0000 "/></g><defs></defs><g stroke-linejoin="miter" stroke-opacity="1.0" fill-opacity="0.0" stroke="rgb(0,0,0)" stroke-width="0.9999999999999997" fill="rgb(0,0,0)" stroke-linecap="butt" stroke-miterlimit="10.0"><path d="M 32.8151,507.2000 h 2.0000 "/></g><defs></defs><g stroke-linejoin="miter" stroke-opacity="1.0" fill-opacity="0.0" stroke="rgb(0,0,0)" stroke-width="0.9999999999999997" fill="rgb(0,0,0)" stroke-linecap="butt" stroke-miterlimit="10.0"><path d="M 32.8151,496.5000 h 2.0000 "/></g><defs></defs><g stroke-linejoin="miter" stroke-opacity="1.0" fill-opacity="0.0" stroke="rgb(0,0,0)" stroke-width="0.9999999999999997" fill="rgb(0,0,0)" stroke-linecap="butt" stroke-miterlimit="10.0"><path d="M 32.8151,485.8000 h 2.0000 "/></g><defs></defs><g stroke-linejoin="miter" stroke-opacity="1.0" fill-opacity="0.0" stroke="rgb(0,0,0)" stroke-width="0.9999999999999997" fill="rgb(0,0,0)" stroke-linecap="butt" stroke-miterlimit="10.0"><path d="M 32.8151,475.1000 h 2.0000 "/></g><defs></defs><g stroke-linejoin="miter" stroke-opacity="1.0" fill-opacity="0.0" stroke="rgb(0,0,0)" stroke-width="0.9999999999999997" fill="rgb(0,0,0)" stroke-linecap="butt" stroke-miterlimit="10.0"><path d="M 32.8151,464.4000 h 2.0000 "/></g><defs></defs><g stroke-linejoin="miter" stroke-opacity="1.0" fill-opacity="0.0" stroke="rgb(0,0,0)" stroke-width="0.9999999999999997" fill="rgb(0,0,0)" stroke-linecap="butt" stroke-miterlimit="10.0"><path d="M 32.8151,453.7000 h 2.0000 "/></g><defs></defs><g stroke-linejoin="miter" stroke-opacity="1.0" fill-opacity="0.0" stroke="rgb(0,0,0)" stroke-width="0.9999999999999997" fill="rgb(0,0,0)" stroke-linecap="butt" stroke-miterlimit="10.0"><path d="M 32.8151,443.0000 h 2.0000 "/></g><defs></defs><g stroke-linejoin="miter" stroke-opacity="1.0" fill-opacity="0.0" stroke="rgb(0,0,0)" stroke-width="0.9999999999999997" fill="rgb(0,0,0)" stroke-linecap="butt" stroke-miterlimit="10.0"><path d="M 32.8151,432.3000 h 2.0000 "/></g><defs></defs><g stroke-linejoin="miter" stroke-opacity="1.0" fill-opacity="0.0" stroke="rgb(0,0,0)" stroke-width="0.9999999999999997" fill="rgb(0,0,0)" stroke-linecap="butt" stroke-miterlimit="10.0"><path d="M 32.8151,421.6000 h 2.0000 "/></g><defs></defs><g stroke-linejoin="miter" stroke-opacity="1.0" fill-opacity="0.0" stroke="rgb(0,0,0)" stroke-width="0.9999999999999997" fill="rgb(0,0,0)" stroke-linecap="butt" stroke-miterlimit="10.0"><path d="M 32.8151,410.9000 h 2.0000 "/></g><defs></defs><g stroke-linejoin="miter" stroke-opacity="1.0" fill-opacity="0.0" stroke="rgb(0,0,0)" stroke-width="0.9999999999999997" fill="rgb(0,0,0)" stroke-linecap="butt" stroke-miterlimit="10.0"><path d="M 32.8151,400.2000 h 2.0000 "/></g><defs></defs><g stroke-linejoin="miter" stroke-opacity="1.0" fill-opacity="0.0" stroke="rgb(0,0,0)" stroke-width="0.9999999999999997" fill="rgb(0,0,0)" stroke-linecap="butt" stroke-miterlimit="10.0"><path d="M 32.8151,389.5000 h 2.0000 "/></g><defs></defs><g stroke-linejoin="miter" stroke-opacity="1.0" fill-opacity="0.0" stroke="rgb(0,0,0)" stroke-width="0.9999999999999997" fill="rgb(0,0,0)" stroke-linecap="butt" stroke-miterlimit="10.0"><path d="M 32.8151,378.8000 h 2.0000 "/></g><defs></defs><g stroke-linejoin="miter" stroke-opacity="1.0" fill-opacity="0.0" stroke="rgb(0,0,0)" stroke-width="0.9999999999999997" fill="rgb(0,0,0)" stroke-linecap="butt" stroke-miterlimit="10.0"><path d="M 32.8151,368.1000 h 2.0000 "/></g><defs></defs><g stroke-linejoin="miter" stroke-opacity="1.0" fill-opacity="0.0" stroke="rgb(0,0,0)" stroke-width="0.9999999999999997" fill="rgb(0,0,0)" stroke-linecap="butt" stroke-miterlimit="10.0"><path d="M 32.8151,357.4000 h 2.0000 "/></g><defs></defs><g stroke-linejoin="miter" stroke-opacity="1.0" fill-opacity="0.0" stroke="rgb(0,0,0)" stroke-width="0.9999999999999997" fill="rgb(0,0,0)" stroke-linecap="butt" stroke-miterlimit="10.0"><path d="M 32.8151,346.7000 h 2.0000 "/></g><defs></defs><g stroke-linejoin="miter" stroke-opacity="1.0" fill-opacity="0.0" stroke="rgb(0,0,0)" stroke-width="0.9999999999999997" fill="rgb(0,0,0)" stroke-linecap="butt" stroke-miterlimit="10.0"><path d="M 32.8151,336.0000 h 2.0000 "/></g><defs></defs><g stroke-linejoin="miter" stroke-opacity="1.0" fill-opacity="0.0" stroke="rgb(0,0,0)" stroke-width="0.9999999999999997" fill="rgb(0,0,0)" stroke-linecap="butt" stroke-miterlimit="10.0"><path d="M 32.8151,325.3000 h 2.0000 "/></g><defs></defs><g stroke-linejoin="miter" stroke-opacity="1.0" fill-opacity="0.0" stroke="rgb(0,0,0)" stroke-width="0.9999999999999997" fill="rgb(0,0,0)" stroke-linecap="butt" stroke-miterlimit="10.0"><path d="M 32.8151,314.6000 h 2.0000 "/></g><defs></defs><g stroke-linejoin="miter" stroke-opacity="1.0" fill-opacity="0.0" stroke="rgb(0,0,0)" stroke-width="0.9999999999999997" fill="rgb(0,0,0)" stroke-linecap="butt" stroke-miterlimit="10.0"><path d="M 32.8151,303.9000 h 2.0000 "/></g><defs></defs><g stroke-linejoin="miter" stroke-opacity="1.0" fill-opacity="0.0" stroke="rgb(0,0,0)" stroke-width="0.9999999999999997" fill="rgb(0,0,0)" stroke-linecap="butt" stroke-miterlimit="10.0"><path d="M 32.8151,293.2000 h 2.0000 "/></g><defs></defs><g stroke-linejoin="miter" stroke-opacity="1.0" fill-opacity="0.0" stroke="rgb(0,0,0)" stroke-width="0.9999999999999997" fill="rgb(0,0,0)" stroke-linecap="butt" stroke-miterlimit="10.0"><path d="M 32.8151,282.5000 h 2.0000 "/></g><defs></defs><g stroke-linejoin="miter" stroke-opacity="1.0" fill-opacity="0.0" stroke="rgb(0,0,0)" stroke-width="0.9999999999999997" fill="rgb(0,0,0)" stroke-linecap="butt" stroke-miterlimit="10.0"><path d="M 32.8151,271.8000 h 2.0000 "/></g><defs></defs><g stroke-linejoin="miter" stroke-opacity="1.0" fill-opacity="0.0" stroke="rgb(0,0,0)" stroke-width="0.9999999999999997" fill="rgb(0,0,0)" stroke-linecap="butt" stroke-miterlimit="10.0"><path d="M 32.8151,261.1000 h 2.0000 "/></g><defs></defs><g stroke-linejoin="miter" stroke-opacity="1.0" fill-opacity="0.0" stroke="rgb(0,0,0)" stroke-width="0.9999999999999997" fill="rgb(0,0,0)" stroke-linecap="butt" stroke-miterlimit="10.0"><path d="M 32.8151,250.4000 h 2.0000 "/></g><defs></defs><g stroke-linejoin="miter" stroke-opacity="1.0" fill-opacity="0.0" stroke="rgb(0,0,0)" stroke-width="0.9999999999999997" fill="rgb(0,0,0)" stroke-linecap="butt" stroke-miterlimit="10.0"><path d="M 32.8151,239.7000 h 2.0000 "/></g><defs></defs><g stroke-linejoin="miter" stroke-opacity="1.0" fill-opacity="0.0" stroke="rgb(0,0,0)" stroke-width="0.9999999999999997" fill="rgb(0,0,0)" stroke-linecap="butt" stroke-miterlimit="10.0"><path d="M 32.8151,229.0000 h 2.0000 "/></g><defs></defs><g stroke-linejoin="miter" stroke-opacity="1.0" fill-opacity="0.0" stroke="rgb(0,0,0)" stroke-width="0.9999999999999997" fill="rgb(0,0,0)" stroke-linecap="butt" stroke-miterlimit="10.0"><path d="M 32.8151,218.3000 h 2.0000 "/></g><defs></defs><g stroke-linejoin="miter" stroke-opacity="1.0" fill-opacity="0.0" stroke="rgb(0,0,0)" stroke-width="0.9999999999999997" fill="rgb(0,0,0)" stroke-linecap="butt" stroke-miterlimit="10.0"><path d="M 32.8151,207.6000 h 2.0000 "/></g><defs></defs><g stroke-linejoin="miter" stroke-opacity="1.0" fill-opacity="0.0" stroke="rgb(0,0,0)" stroke-width="0.9999999999999997" fill="rgb(0,0,0)" stroke-linecap="butt" stroke-miterlimit="10.0"><path d="M 32.8151,196.9000 h 2.0000 "/></g><defs></defs><g stroke-linejoin="miter" stroke-opacity="1.0" fill-opacity="0.0" stroke="rgb(0,0,0)" stroke-width="0.9999999999999997" fill="rgb(0,0,0)" stroke-linecap="butt" stroke-miterlimit="10.0"><path d="M 32.8151,186.2000 h 2.0000 "/></g><defs></defs><g stroke-linejoin="miter" stroke-opacity="1.0" fill-opacity="0.0" stroke="rgb(0,0,0)" stroke-width="0.9999999999999997" fill="rgb(0,0,0)" stroke-linecap="butt" stroke-miterlimit="10.0"><path d="M 32.8151,175.5000 h 2.0000 "/></g><defs></defs><g stroke-linejoin="miter" stroke-opacity="1.0" fill-opacity="0.0" stroke="rgb(0,0,0)" stroke-width="0.9999999999999997" fill="rgb(0,0,0)" stroke-linecap="butt" stroke-miterlimit="10.0"><path d="M 32.8151,164.8000 h 2.0000 "/></g><defs></defs><g stroke-linejoin="miter" stroke-opacity="1.0" fill-opacity="0.0" stroke="rgb(0,0,0)" stroke-width="0.9999999999999997" fill="rgb(0,0,0)" stroke-linecap="butt" stroke-miterlimit="10.0"><path d="M 32.8151,154.1000 h 2.0000 "/></g><defs></defs><g stroke-linejoin="miter" stroke-opacity="1.0" fill-opacity="0.0" stroke="rgb(0,0,0)" stroke-width="0.9999999999999997" fill="rgb(0,0,0)" stroke-linecap="butt" stroke-miterlimit="10.0"><path d="M 32.8151,143.4000 h 2.0000 "/></g><defs></defs><g stroke-linejoin="miter" stroke-opacity="1.0" fill-opacity="0.0" stroke="rgb(0,0,0)" stroke-width="0.9999999999999997" fill="rgb(0,0,0)" stroke-linecap="butt" stroke-miterlimit="10.0"><path d="M 32.8151,132.7000 h 2.0000 "/></g><defs></defs><g stroke-linejoin="miter" stroke-opacity="1.0" fill-opacity="0.0" stroke="rgb(0,0,0)" stroke-width="0.9999999999999997" fill="rgb(0,0,0)" stroke-linecap="butt" stroke-miterlimit="10.0"><path d="M 32.8151,122.0000 h 2.0000 "/></g><defs></defs><g stroke-linejoin="miter" stroke-opacity="1.0" fill-opacity="0.0" stroke="rgb(0,0,0)" stroke-width="0.9999999999999997" fill="rgb(0,0,0)" stroke-linecap="butt" stroke-miterlimit="10.0"><path d="M 32.8151,111.3000 h 2.0000 "/></g><defs></defs><g stroke-linejoin="miter" stroke-opacity="1.0" fill-opacity="0.0" stroke="rgb(0,0,0)" stroke-width="0.9999999999999997" fill="rgb(0,0,0)" stroke-linecap="butt" stroke-miterlimit="10.0"><path d="M 32.8151,100.6000 h 2.0000 "/></g><defs></defs><g stroke-linejoin="miter" stroke-opacity="1.0" fill-opacity="0.0" stroke="rgb(0,0,0)" stroke-width="0.9999999999999997" fill="rgb(0,0,0)" stroke-linecap="butt" stroke-miterlimit="10.0"><path d="M 32.8151,89.9000 h 2.0000 "/></g><defs></defs><g stroke-linejoin="miter" stroke-opacity="1.0" fill-opacity="0.0" stroke="rgb(0,0,0)" stroke-width="0.9999999999999997" fill="rgb(0,0,0)" stroke-linecap="butt" stroke-miterlimit="10.0"><path d="M 32.8151,79.2000 h 2.0000 "/></g><defs></defs><g stroke-linejoin="miter" stroke-opacity="1.0" fill-opacity="0.0" stroke="rgb(0,0,0)" stroke-width="0.9999999999999997" fill="rgb(0,0,0)" stroke-linecap="butt" stroke-miterlimit="10.0"><path d="M 32.8151,68.5000 h 2.0000 "/></g><defs></defs><g stroke-linejoin="miter" stroke-opacity="1.0" fill-opacity="0.0" stroke="rgb(0,0,0)" stroke-width="0.9999999999999997" fill="rgb(0,0,0)" stroke-linecap="butt" stroke-miterlimit="10.0"><path d="M 32.8151,57.8000 h 2.0000 "/></g><defs></defs><g stroke-linejoin="miter" stroke-opacity="1.0" fill-opacity="0.0" stroke="rgb(0,0,0)" stroke-width="0.9999999999999997" fill="rgb(0,0,0)" stroke-linecap="butt" stroke-miterlimit="10.0"><path d="M 32.8151,47.1000 h 2.0000 "/></g><defs></defs><g stroke-linejoin="miter" stroke-opacity="1.0" fill-opacity="0.0" stroke="rgb(0,0,0)" stroke-width="0.9999999999999997" fill="rgb(0,0,0)" stroke-linecap="butt" stroke-miterlimit="10.0"><path d="M 32.8151,36.4000 h 2.0000 "/></g><defs></defs><g stroke-linejoin="miter" stroke-opacity="1.0" fill-opacity="0.0" stroke="rgb(0,0,0)" stroke-width="0.9999999999999997" fill="rgb(0,0,0)" stroke-linecap="butt" stroke-miterlimit="10.0"><path d="M 32.8151,25.7000 h 2.0000 "/></g><defs></defs><g stroke-linejoin="miter" stroke-opacity="1.0" fill-opacity="0.0" stroke="rgb(0,0,0)" stroke-width="0.9999999999999997" fill="rgb(0,0,0)" stroke-linecap="butt" stroke-miterlimit="10.0"><path d="M 32.8151,15.0000 h 2.0000 "/></g><defs></defs><g stroke-linejoin="miter" stroke-opacity="1.0" fill-opacity="0.0" stroke="rgb(0,0,0)" stroke-width="0.9999999999999997" fill="rgb(0,0,0)" stroke-linecap="butt" stroke-miterlimit="10.0"><path d="M 32.8151,550.0000 h 5.0000 "/></g><defs></defs><g stroke-linejoin="miter" stroke-opacity="1.0" fill-opacity="0.0" stroke="rgb(0,0,0)" stroke-width="0.9999999999999997" fill="rgb(0,0,0)" stroke-linecap="butt" stroke-miterlimit="10.0"><path d="M 32.8151,443.0000 h 5.0000 "/></g><defs></defs><g stroke-linejoin="miter" stroke-opacity="1.0" fill-opacity="0.0" stroke="rgb(0,0,0)" stroke-width="0.9999999999999997" fill="rgb(0,0,0)" stroke-linecap="butt" stroke-miterlimit="10.0"><path d="M 32.8151,336.0000 h 5.0000 "/></g><defs></defs><g stroke-linejoin="miter" stroke-opacity="1.0" fill-opacity="0.0" stroke="rgb(0,0,0)" stroke-width="0.9999999999999997" fill="rgb(0,0,0)" stroke-linecap="butt" stroke-miterlimit="10.0"><path d="M 32.8151,229.0000 h 5.0000 "/></g><defs></defs><g stroke-linejoin="miter" stroke-opacity="1.0" fill-opacity="0.0" stroke="rgb(0,0,0)" stroke-width="0.9999999999999997" fill="rgb(0,0,0)" stroke-linecap="butt" stroke-miterlimit="10.0"><path d="M 32.8151,122.0000 h 5.0000 "/></g><defs></defs><g stroke-linejoin="miter" stroke-opacity="1.0" fill-opacity="0.0" stroke="rgb(0,0,0)" stroke-width="0.9999999999999997" fill="rgb(0,0,0)" stroke-linecap="butt" stroke-miterlimit="10.0"><path d="M 32.8151,15.0000 h 5.0000 "/></g><defs></defs><g stroke-linejoin="bevel" stroke-opacity="0.0" fill-opacity="1.0" stroke="rgb(0,0,0)" stroke-width="0.0" fill="rgb(0,0,0)" stroke-linecap="butt" stroke-miterlimit="10.0"><path d="M 10.0000,553.4454 ZM 10.4307,550.4832 h 2.4160 v 0.6618 h -2.4160 v -0.6618 ZM 13.2668,553.4454 ZM 14.0966,552.7311 h 1.5336 v -4.9370 h -1.2185 v -0.5567 c 0.4622,-0.0840 0.8036,-0.2048 0.8036 -0.2048c 0.3414,-0.1208 0.6145,-0.2889 0.6145 -0.2889h 0.6618 v 5.9874 h 1.3866 v 0.7143 h -3.7815 v -0.7143 ZM 18.4874,553.4454 ZM 21.1029,553.5714 c -1.0189,-0.0000 -1.5861,-0.9034 -1.5861 -0.9034c -0.5672,-0.9034 -0.5672,-2.5945 -0.5672 -2.5945c 0.0000,-1.6912 0.5672,-2.5735 0.5672 -2.5735c 0.5672,-0.8824 1.5861,-0.8824 1.5861 -0.8824c 1.0084,0.0000 1.5756,0.8824 1.5756 0.8824c 0.5672,0.8824 0.5672,2.5735 0.5672 2.5735c 0.0000,1.6912 -0.5672,2.5945 -0.5672 2.5945c -0.5672,0.9034 -1.5756,0.9034 -1.5756 0.9034ZM 21.1029,553.5714 ZM 21.1029,552.8782 c 0.2941,0.0000 0.5305,-0.1628 0.5305 -0.1628c 0.2363,-0.1628 0.4097,-0.5042 0.4097 -0.5042c 0.1733,-0.3414 0.2679,-0.8718 0.2679 -0.8718c 0.0945,-0.5305 0.0945,-1.2658 0.0945 -1.2658c 0.0000,-0.7353 -0.0945,-1.2605 -0.0945 -1.2605c -0.0945,-0.5252 -0.2679,-0.8561 -0.2679 -0.8561c -0.1733,-0.3309 -0.4097,-0.4884 -0.4097 -0.4884c -0.2363,-0.1576 -0.5305,-0.1576 -0.5305 -0.1576c -0.2941,-0.0000 -0.5357,0.1576 -0.5357 0.1576c -0.2416,0.1576 -0.4149,0.4884 -0.4149 0.4884c -0.1733,0.3309 -0.2679,0.8561 -0.2679 0.8561c -0.0945,0.5252 -0.0945,1.2605 -0.0945 1.2605c 0.0000,1.4706 0.3624,2.1376 0.3624 2.1376c 0.3624,0.6670 0.9506,0.6670 0.9506 0.6670Z"/></g><defs></defs><g stroke-linejoin="bevel" stroke-opacity="0.0" fill-opacity="1.0" stroke="rgb(0,0,0)" stroke-width="0.0" fill="rgb(0,0,0)" stroke-linecap="butt" stroke-miterlimit="10.0"><path d="M 15.2626,446.4454 ZM 15.6933,443.4832 h 2.4160 v 0.6618 h -2.4160 v -0.6618 ZM 18.5294,446.4454 ZM 19.2122,445.0903 c 0.2941,0.3046 0.6985,0.5357 0.6985 0.5357c 0.4044,0.2311 0.9926,0.2311 0.9926 0.2311c 0.3046,0.0000 0.5725,-0.1103 0.5725 -0.1103c 0.2679,-0.1103 0.4674,-0.3099 0.4674 -0.3099c 0.1996,-0.1996 0.3151,-0.4832 0.3151 -0.4832c 0.1155,-0.2836 0.1155,-0.6303 0.1155 -0.6303c 0.0000,-0.6933 -0.3887,-1.0819 -0.3887 -1.0819c -0.3887,-0.3887 -1.0399,-0.3887 -1.0399 -0.3887c -0.3466,-0.0000 -0.5935,0.1050 -0.5935 0.1050c -0.2468,0.1050 -0.5515,0.3046 -0.5515 0.3046l -0.4622,-0.2941 l 0.2206,-3.2248 h 3.3508 v 0.7458 h -2.5945 l -0.1786,1.9853 c 0.2416,-0.1261 0.4832,-0.1996 0.4832 -0.1996c 0.2416,-0.0735 0.5462,-0.0735 0.5462 -0.0735c 0.4307,0.0000 0.8088,0.1261 0.8088 0.1261c 0.3782,0.1261 0.6618,0.3834 0.6618 0.3834c 0.2836,0.2574 0.4464,0.6513 0.4464 0.6513c 0.1628,0.3939 0.1628,0.9401 0.1628 0.9401c 0.0000,0.5462 -0.1891,0.9664 -0.1891 0.9664c -0.1891,0.4202 -0.5042,0.7090 -0.5042 0.7090c -0.3151,0.2889 -0.7195,0.4412 -0.7195 0.4412c -0.4044,0.1523 -0.8456,0.1523 -0.8456 0.1523c -0.3992,-0.0000 -0.7300,-0.0788 -0.7300 -0.0788c -0.3309,-0.0788 -0.5987,-0.2048 -0.5987 -0.2048c -0.2679,-0.1261 -0.4832,-0.2889 -0.4832 -0.2889c -0.2153,-0.1628 -0.3834,-0.3414 -0.3834 -0.3414Z"/></g><defs></defs><g stroke-linejoin="bevel" stroke-opacity="0.0" fill-opacity="1.0" stroke="rgb(0,0,0)" stroke-width="0.0" fill="rgb(0,0,0)" stroke-linecap="butt" stroke-miterlimit="10.0"><path d="M 18.5189,339.4454 ZM 21.1345,339.5714 c -1.0189,-0.0000 -1.5861,-0.9034 -1.5861 -0.9034c -0.5672,-0.9034 -0.5672,-2.5945 -0.5672 -2.5945c 0.0000,-1.6912 0.5672,-2.5735 0.5672 -2.5735c 0.5672,-0.8824 1.5861,-0.8824 1.5861 -0.8824c 1.0084,0.0000 1.5756,0.8824 1.5756 0.8824c 0.5672,0.8824 0.5672,2.5735 0.5672 2.5735c 0.0000,1.6912 -0.5672,2.5945 -0.5672 2.5945c -0.5672,0.9034 -1.5756,0.9034 -1.5756 0.9034ZM 21.1345,339.5714 ZM 21.1345,338.8782 c 0.2941,0.0000 0.5305,-0.1628 0.5305 -0.1628c 0.2363,-0.1628 0.4097,-0.5042 0.4097 -0.5042c 0.1733,-0.3414 0.2679,-0.8718 0.2679 -0.8718c 0.0945,-0.5305 0.0945,-1.2658 0.0945 -1.2658c 0.0000,-0.7353 -0.0945,-1.2605 -0.0945 -1.2605c -0.0945,-0.5252 -0.2679,-0.8561 -0.2679 -0.8561c -0.1733,-0.3309 -0.4097,-0.4884 -0.4097 -0.4884c -0.2363,-0.1576 -0.5305,-0.1576 -0.5305 -0.1576c -0.2941,-0.0000 -0.5357,0.1576 -0.5357 0.1576c -0.2416,0.1576 -0.4149,0.4884 -0.4149 0.4884c -0.1733,0.3309 -0.2679,0.8561 -0.2679 0.8561c -0.0945,0.5252 -0.0945,1.2605 -0.0945 1.2605c 0.0000,1.4706 0.3624,2.1376 0.3624 2.1376c 0.3624,0.6670 0.9506,0.6670 0.9506 0.6670Z"/></g><defs></defs><g stroke-linejoin="bevel" stroke-opacity="0.0" fill-opacity="1.0" stroke="rgb(0,0,0)" stroke-width="0.0" fill="rgb(0,0,0)" stroke-linecap="butt" stroke-miterlimit="10.0"><path d="M 18.3613,232.4454 ZM 19.0441,231.0903 c 0.2941,0.3046 0.6985,0.5357 0.6985 0.5357c 0.4044,0.2311 0.9926,0.2311 0.9926 0.2311c 0.3046,0.0000 0.5725,-0.1103 0.5725 -0.1103c 0.2679,-0.1103 0.4674,-0.3099 0.4674 -0.3099c 0.1996,-0.1996 0.3151,-0.4832 0.3151 -0.4832c 0.1155,-0.2836 0.1155,-0.6303 0.1155 -0.6303c 0.0000,-0.6933 -0.3887,-1.0819 -0.3887 -1.0819c -0.3887,-0.3887 -1.0399,-0.3887 -1.0399 -0.3887c -0.3466,-0.0000 -0.5935,0.1050 -0.5935 0.1050c -0.2468,0.1050 -0.5515,0.3046 -0.5515 0.3046l -0.4622,-0.2941 l 0.2206,-3.2248 h 3.3508 v 0.7458 h -2.5945 l -0.1786,1.9853 c 0.2416,-0.1261 0.4832,-0.1996 0.4832 -0.1996c 0.2416,-0.0735 0.5462,-0.0735 0.5462 -0.0735c 0.4307,0.0000 0.8088,0.1261 0.8088 0.1261c 0.3782,0.1261 0.6618,0.3834 0.6618 0.3834c 0.2836,0.2574 0.4464,0.6513 0.4464 0.6513c 0.1628,0.3939 0.1628,0.9401 0.1628 0.9401c 0.0000,0.5462 -0.1891,0.9664 -0.1891 0.9664c -0.1891,0.4202 -0.5042,0.7090 -0.5042 0.7090c -0.3151,0.2889 -0.7195,0.4412 -0.7195 0.4412c -0.4044,0.1523 -0.8456,0.1523 -0.8456 0.1523c -0.3992,-0.0000 -0.7300,-0.0788 -0.7300 -0.0788c -0.3309,-0.0788 -0.5987,-0.2048 -0.5987 -0.2048c -0.2679,-0.1261 -0.4832,-0.2889 -0.4832 -0.2889c -0.2153,-0.1628 -0.3834,-0.3414 -0.3834 -0.3414Z"/></g><defs></defs><g stroke-linejoin="bevel" stroke-opacity="0.0" fill-opacity="1.0" stroke="rgb(0,0,0)" stroke-width="0.0" fill="rgb(0,0,0)" stroke-linecap="butt" stroke-miterlimit="10.0"><path d="M 13.6660,125.4454 ZM 14.4958,124.7311 h 1.5336 v -4.9370 h -1.2185 v -0.5567 c 0.4622,-0.0840 0.8036,-0.2048 0.8036 -0.2048c 0.3414,-0.1208 0.6145,-0.2889 0.6145 -0.2889h 0.6618 v 5.9874 h 1.3866 v 0.7143 h -3.7815 v -0.7143 ZM 18.8866,125.4454 ZM 21.5021,125.5714 c -1.0189,-0.0000 -1.5861,-0.9034 -1.5861 -0.9034c -0.5672,-0.9034 -0.5672,-2.5945 -0.5672 -2.5945c 0.0000,-1.6912 0.5672,-2.5735 0.5672 -2.5735c 0.5672,-0.8824 1.5861,-0.8824 1.5861 -0.8824c 1.0084,0.0000 1.5756,0.8824 1.5756 0.8824c 0.5672,0.8824 0.5672,2.5735 0.5672 2.5735c 0.0000,1.6912 -0.5672,2.5945 -0.5672 2.5945c -0.5672,0.9034 -1.5756,0.9034 -1.5756 0.9034ZM 21.5021,125.5714 ZM 21.5021,124.8782 c 0.2941,0.0000 0.5305,-0.1628 0.5305 -0.1628c 0.2363,-0.1628 0.4097,-0.5042 0.4097 -0.5042c 0.1733,-0.3414 0.2679,-0.8718 0.2679 -0.8718c 0.0945,-0.5305 0.0945,-1.2658 0.0945 -1.2658c 0.0000,-0.7353 -0.0945,-1.2605 -0.0945 -1.2605c -0.0945,-0.5252 -0.2679,-0.8561 -0.2679 -0.8561c -0.1733,-0.3309 -0.4097,-0.4884 -0.4097 -0.4884c -0.2363,-0.1576 -0.5305,-0.1576 -0.5305 -0.1576c -0.2941,-0.0000 -0.5357,0.1576 -0.5357 0.1576c -0.2416,0.1576 -0.4149,0.4884 -0.4149 0.4884c -0.1733,0.3309 -0.2679,0.8561 -0.2679 0.8561c -0.0945,0.5252 -0.0945,1.2605 -0.0945 1.2605c 0.0000,1.4706 0.3624,2.1376 0.3624 2.1376c 0.3624,0.6670 0.9506,0.6670 0.9506 0.6670Z"/></g><defs></defs><g stroke-linejoin="bevel" stroke-opacity="0.0" fill-opacity="1.0" stroke="rgb(0,0,0)" stroke-width="0.0" fill="rgb(0,0,0)" stroke-linecap="butt" stroke-miterlimit="10.0"><path d="M 13.7080,18.4454 ZM 14.5378,17.7311 h 1.5336 v -4.9370 h -1.2185 v -0.5567 c 0.4622,-0.0840 0.8036,-0.2048 0.8036 -0.2048c 0.3414,-0.1208 0.6145,-0.2889 0.6145 -0.2889h 0.6618 v 5.9874 h 1.3866 v 0.7143 h -3.7815 v -0.7143 ZM 18.9286,18.4454 ZM 19.6113,17.0903 c 0.2941,0.3046 0.6985,0.5357 0.6985 0.5357c 0.4044,0.2311 0.9926,0.2311 0.9926 0.2311c 0.3046,0.0000 0.5725,-0.1103 0.5725 -0.1103c 0.2679,-0.1103 0.4674,-0.3099 0.4674 -0.3099c 0.1996,-0.1996 0.3151,-0.4832 0.3151 -0.4832c 0.1155,-0.2836 0.1155,-0.6303 0.1155 -0.6303c 0.0000,-0.6933 -0.3887,-1.0819 -0.3887 -1.0819c -0.3887,-0.3887 -1.0399,-0.3887 -1.0399 -0.3887c -0.3466,-0.0000 -0.5935,0.1050 -0.5935 0.1050c -0.2468,0.1050 -0.5515,0.3046 -0.5515 0.3046l -0.4622,-0.2941 l 0.2206,-3.2248 h 3.3508 v 0.7458 h -2.5945 l -0.1786,1.9853 c 0.2416,-0.1261 0.4832,-0.1996 0.4832 -0.1996c 0.2416,-0.0735 0.5462,-0.0735 0.5462 -0.0735c 0.4307,0.0000 0.8088,0.1261 0.8088 0.1261c 0.3782,0.1261 0.6618,0.3834 0.6618 0.3834c 0.2836,0.2574 0.4464,0.6513 0.4464 0.6513c 0.1628,0.3939 0.1628,0.9401 0.1628 0.9401c 0.0000,0.5462 -0.1891,0.9664 -0.1891 0.9664c -0.1891,0.4202 -0.5042,0.7090 -0.5042 0.7090c -0.3151,0.2889 -0.7195,0.4412 -0.7195 0.4412c -0.4044,0.1523 -0.8456,0.1523 -0.8456 0.1523c -0.3992,-0.0000 -0.7300,-0.0788 -0.7300 -0.0788c -0.3309,-0.0788 -0.5987,-0.2048 -0.5987 -0.2048c -0.2679,-0.1261 -0.4832,-0.2889 -0.4832 -0.2889c -0.2153,-0.1628 -0.3834,-0.3414 -0.3834 -0.3414Z"/></g><defs></defs><g stroke-linejoin="miter" stroke-opacity="1.0" fill-opacity="0.0" stroke="rgb(0,0,0)" stroke-width="0.9999999999999997" fill="rgb(0,0,0)" stroke-linecap="square" stroke-miterlimit="10.0"><path d="M 32.8151,550.0000 h 747.3897 "/></g><defs></defs><g stroke-linejoin="miter" stroke-opacity="1.0" fill-opacity="0.0" stroke="rgb(0,0,0)" stroke-width="0.9999999999999997" fill="rgb(0,0,0)" stroke-linecap="butt" stroke-miterlimit="10.0"><path d="M 32.8151,550.0000 v -2.0000 "/></g><defs></defs><g stroke-linejoin="miter" stroke-opacity="1.0" fill-opacity="0.0" stroke="rgb(0,0,0)" stroke-width="0.9999999999999997" fill="rgb(0,0,0)" stroke-linecap="butt" stroke-miterlimit="10.0"><path d="M 107.5541,550.0000 v -2.0000 "/></g><defs></defs><g stroke-linejoin="miter" stroke-opacity="1.0" fill-opacity="0.0" stroke="rgb(0,0,0)" stroke-width="0.9999999999999997" fill="rgb(0,0,0)" stroke-linecap="butt" stroke-miterlimit="10.0"><path d="M 182.2931,550.0000 v -2.0000 "/></g><defs></defs><g stroke-linejoin="miter" stroke-opacity="1.0" fill-opacity="0.0" stroke="rgb(0,0,0)" stroke-width="0.9999999999999997" fill="rgb(0,0,0)" stroke-linecap="butt" stroke-miterlimit="10.0"><path d="M 257.0320,550.0000 v -2.0000 "/></g><defs></defs><g stroke-linejoin="miter" stroke-opacity="1.0" fill-opacity="0.0" stroke="rgb(0,0,0)" stroke-width="0.9999999999999997" fill="rgb(0,0,0)" stroke-linecap="butt" stroke-miterlimit="10.0"><path d="M 331.7710,550.0000 v -2.0000 "/></g><defs></defs><g stroke-linejoin="miter" stroke-opacity="1.0" fill-opacity="0.0" stroke="rgb(0,0,0)" stroke-width="0.9999999999999997" fill="rgb(0,0,0)" stroke-linecap="butt" stroke-miterlimit="10.0"><path d="M 406.5100,550.0000 v -2.0000 "/></g><defs></defs><g stroke-linejoin="miter" stroke-opacity="1.0" fill-opacity="0.0" stroke="rgb(0,0,0)" stroke-width="0.9999999999999997" fill="rgb(0,0,0)" stroke-linecap="butt" stroke-miterlimit="10.0"><path d="M 481.2489,550.0000 v -2.0000 "/></g><defs></defs><g stroke-linejoin="miter" stroke-opacity="1.0" fill-opacity="0.0" stroke="rgb(0,0,0)" stroke-width="0.9999999999999997" fill="rgb(0,0,0)" stroke-linecap="butt" stroke-miterlimit="10.0"><path d="M 555.9879,550.0000 v -2.0000 "/></g><defs></defs><g stroke-linejoin="miter" stroke-opacity="1.0" fill-opacity="0.0" stroke="rgb(0,0,0)" stroke-width="0.9999999999999997" fill="rgb(0,0,0)" stroke-linecap="butt" stroke-miterlimit="10.0"><path d="M 630.7269,550.0000 v -2.0000 "/></g><defs></defs><g stroke-linejoin="miter" stroke-opacity="1.0" fill-opacity="0.0" stroke="rgb(0,0,0)" stroke-width="0.9999999999999997" fill="rgb(0,0,0)" stroke-linecap="butt" stroke-miterlimit="10.0"><path d="M 705.4659,550.0000 v -2.0000 "/></g><defs></defs><g stroke-linejoin="miter" stroke-opacity="1.0" fill-opacity="0.0" stroke="rgb(0,0,0)" stroke-width="0.9999999999999997" fill="rgb(0,0,0)" stroke-linecap="butt" stroke-miterlimit="10.0"><path d="M 780.2048,550.0000 v -2.0000 "/></g><defs></defs><g stroke-linejoin="miter" stroke-opacity="1.0" fill-opacity="0.0" stroke="rgb(0,0,0)" stroke-width="0.9999999999999997" fill="rgb(0,0,0)" stroke-linecap="butt" stroke-miterlimit="10.0"><path d="M 32.8151,550.0000 v -5.0000 "/></g><defs></defs><g stroke-linejoin="miter" stroke-opacity="1.0" fill-opacity="0.0" stroke="rgb(0,0,0)" stroke-width="0.9999999999999997" fill="rgb(0,0,0)" stroke-linecap="butt" stroke-miterlimit="10.0"><path d="M 219.6626,550.0000 v -5.0000 "/></g><defs></defs><g stroke-linejoin="miter" stroke-opacity="1.0" fill-opacity="0.0" stroke="rgb(0,0,0)" stroke-width="0.9999999999999997" fill="rgb(0,0,0)" stroke-linecap="butt" stroke-miterlimit="10.0"><path d="M 406.5100,550.0000 v -5.0000 "/></g><defs></defs><g stroke-linejoin="miter" stroke-opacity="1.0" fill-opacity="0.0" stroke="rgb(0,0,0)" stroke-width="0.9999999999999997" fill="rgb(0,0,0)" stroke-linecap="butt" stroke-miterlimit="10.0"><path d="M 593.3574,550.0000 v -5.0000 "/></g><defs></defs><g stroke-linejoin="miter" stroke-opacity="1.0" fill-opacity="0.0" stroke="rgb(0,0,0)" stroke-width="0.9999999999999997" fill="rgb(0,0,0)" stroke-linecap="butt" stroke-miterlimit="10.0"><path d="M 780.2048,550.0000 v -5.0000 "/></g><defs></defs><g stroke-linejoin="bevel" stroke-opacity="0.0" fill-opacity="1.0" stroke="rgb(0,0,0)" stroke-width="0.0" fill="rgb(0,0,0)" stroke-linecap="butt" stroke-miterlimit="10.0"><path d="M 30.6670,570.0000 ZM 33.2826,570.1261 c -1.0189,-0.0000 -1.5861,-0.9034 -1.5861 -0.9034c -0.5672,-0.9034 -0.5672,-2.5945 -0.5672 -2.5945c 0.0000,-1.6912 0.5672,-2.5735 0.5672 -2.5735c 0.5672,-0.8824 1.5861,-0.8824 1.5861 -0.8824c 1.0084,0.0000 1.5756,0.8824 1.5756 0.8824c 0.5672,0.8824 0.5672,2.5735 0.5672 2.5735c 0.0000,1.6912 -0.5672,2.5945 -0.5672 2.5945c -0.5672,0.9034 -1.5756,0.9034 -1.5756 0.9034ZM 33.2826,570.1261 ZM 33.2826,569.4328 c 0.2941,0.0000 0.5305,-0.1628 0.5305 -0.1628c 0.2363,-0.1628 0.4097,-0.5042 0.4097 -0.5042c 0.1733,-0.3414 0.2679,-0.8718 0.2679 -0.8718c 0.0945,-0.5305 0.0945,-1.2658 0.0945 -1.2658c 0.0000,-0.7353 -0.0945,-1.2605 -0.0945 -1.2605c -0.0945,-0.5252 -0.2679,-0.8561 -0.2679 -0.8561c -0.1733,-0.3309 -0.4097,-0.4884 -0.4097 -0.4884c -0.2363,-0.1576 -0.5305,-0.1576 -0.5305 -0.1576c -0.2941,-0.0000 -0.5357,0.1576 -0.5357 0.1576c -0.2416,0.1576 -0.4149,0.4884 -0.4149 0.4884c -0.1733,0.3309 -0.2679,0.8561 -0.2679 0.8561c -0.0945,0.5252 -0.0945,1.2605 -0.0945 1.2605c 0.0000,1.4706 0.3624,2.1376 0.3624 2.1376c 0.3624,0.6670 0.9506,0.6670 0.9506 0.6670Z"/></g><defs></defs><g stroke-linejoin="bevel" stroke-opacity="0.0" fill-opacity="1.0" stroke="rgb(0,0,0)" stroke-width="0.0" fill="rgb(0,0,0)" stroke-linecap="butt" stroke-miterlimit="10.0"><path d="M 212.2518,570.0000 ZM 212.6720,569.4853 c 0.7563,-0.7563 1.3445,-1.3655 1.3445 -1.3655c 0.5882,-0.6092 0.9874,-1.1292 0.9874 -1.1292c 0.3992,-0.5200 0.6092,-0.9559 0.6092 -0.9559c 0.2101,-0.4359 0.2101,-0.8456 0.2101 -0.8456c 0.0000,-0.5777 -0.3151,-0.9454 -0.3151 -0.9454c -0.3151,-0.3676 -0.9559,-0.3676 -0.9559 -0.3676c -0.4202,-0.0000 -0.7773,0.2363 -0.7773 0.2363c -0.3571,0.2363 -0.6513,0.5725 -0.6513 0.5725l -0.4937,-0.4937 c 0.4202,-0.4622 0.8929,-0.7405 0.8929 -0.7405c 0.4727,-0.2784 1.1345,-0.2784 1.1345 -0.2784c 0.9349,0.0000 1.4706,0.5410 1.4706 0.5410c 0.5357,0.5410 0.5357,1.4338 0.5357 1.4338c 0.0000,0.4727 -0.2048,0.9506 -0.2048 0.9506c -0.2048,0.4779 -0.5672,0.9874 -0.5672 0.9874c -0.3624,0.5095 -0.8613,1.0609 -0.8613 1.0609c -0.4989,0.5515 -1.0977,1.1712 -1.0977 1.1712c 0.2731,-0.0210 0.5672,-0.0420 0.5672 -0.0420c 0.2941,-0.0210 0.5567,-0.0210 0.5567 -0.0210h 1.9433 v 0.7458 h -4.3277 v -0.5147 ZM 217.4724,570.0000 ZM 218.1552,568.6450 c 0.2941,0.3046 0.6985,0.5357 0.6985 0.5357c 0.4044,0.2311 0.9926,0.2311 0.9926 0.2311c 0.3046,0.0000 0.5725,-0.1103 0.5725 -0.1103c 0.2679,-0.1103 0.4674,-0.3099 0.4674 -0.3099c 0.1996,-0.1996 0.3151,-0.4832 0.3151 -0.4832c 0.1155,-0.2836 0.1155,-0.6303 0.1155 -0.6303c 0.0000,-0.6933 -0.3887,-1.0819 -0.3887 -1.0819c -0.3887,-0.3887 -1.0399,-0.3887 -1.0399 -0.3887c -0.3466,-0.0000 -0.5935,0.1050 -0.5935 0.1050c -0.2468,0.1050 -0.5515,0.3046 -0.5515 0.3046l -0.4622,-0.2941 l 0.2206,-3.2248 h 3.3508 v 0.7458 h -2.5945 l -0.1786,1.9853 c 0.2416,-0.1261 0.4832,-0.1996 0.4832 -0.1996c 0.2416,-0.0735 0.5462,-0.0735 0.5462 -0.0735c 0.4307,0.0000 0.8088,0.1261 0.8088 0.1261c 0.3782,0.1261 0.6618,0.3834 0.6618 0.3834c 0.2836,0.2574 0.4464,0.6513 0.4464 0.6513c 0.1628,0.3939 0.1628,0.9401 0.1628 0.9401c 0.0000,0.5462 -0.1891,0.9664 -0.1891 0.9664c -0.1891,0.4202 -0.5042,0.7090 -0.5042 0.7090c -0.3151,0.2889 -0.7195,0.4412 -0.7195 0.4412c -0.4044,0.1523 -0.8456,0.1523 -0.8456 0.1523c -0.3992,-0.0000 -0.7300,-0.0788 -0.7300 -0.0788c -0.3309,-0.0788 -0.5987,-0.2048 -0.5987 -0.2048c -0.2679,-0.1261 -0.4832,-0.2889 -0.4832 -0.2889c -0.2153,-0.1628 -0.3834,-0.3414 -0.3834 -0.3414ZM 222.6930,570.0000 ZM 225.3086,570.1261 c -1.0189,-0.0000 -1.5861,-0.9034 -1.5861 -0.9034c -0.5672,-0.9034 -0.5672,-2.5945 -0.5672 -2.5945c 0.0000,-1.6912 0.5672,-2.5735 0.5672 -2.5735c 0.5672,-0.8824 1.5861,-0.8824 1.5861 -0.8824c 1.0084,0.0000 1.5756,0.8824 1.5756 0.8824c 0.5672,0.8824 0.5672,2.5735 0.5672 2.5735c 0.0000,1.6912 -0.5672,2.5945 -0.5672 2.5945c -0.5672,0.9034 -1.5756,0.9034 -1.5756 0.9034ZM 225.3086,570.1261 ZM 225.3086,569.4328 c 0.2941,0.0000 0.5305,-0.1628 0.5305 -0.1628c 0.2363,-0.1628 0.4097,-0.5042 0.4097 -0.5042c 0.1733,-0.3414 0.2679,-0.8718 0.2679 -0.8718c 0.0945,-0.5305 0.0945,-1.2658 0.0945 -1.2658c 0.0000,-0.7353 -0.0945,-1.2605 -0.0945 -1.2605c -0.0945,-0.5252 -0.2679,-0.8561 -0.2679 -0.8561c -0.1733,-0.3309 -0.4097,-0.4884 -0.4097 -0.4884c -0.2363,-0.1576 -0.5305,-0.1576 -0.5305 -0.1576c -0.2941,-0.0000 -0.5357,0.1576 -0.5357 0.1576c -0.2416,0.1576 -0.4149,0.4884 -0.4149 0.4884c -0.1733,0.3309 -0.2679,0.8561 -0.2679 0.8561c -0.0945,0.5252 -0.0945,1.2605 -0.0945 1.2605c 0.0000,1.4706 0.3624,2.1376 0.3624 2.1376c 0.3624,0.6670 0.9506,0.6670 0.9506 0.6670Z"/></g><defs></defs><g stroke-linejoin="bevel" stroke-opacity="0.0" fill-opacity="1.0" stroke="rgb(0,0,0)" stroke-width="0.0" fill="rgb(0,0,0)" stroke-linecap="butt" stroke-miterlimit="10.0"><path d="M 399.0415,570.0000 ZM 399.7243,568.6450 c 0.2941,0.3046 0.6985,0.5357 0.6985 0.5357c 0.4044,0.2311 0.9926,0.2311 0.9926 0.2311c 0.3046,0.0000 0.5725,-0.1103 0.5725 -0.1103c 0.2679,-0.1103 0.4674,-0.3099 0.4674 -0.3099c 0.1996,-0.1996 0.3151,-0.4832 0.3151 -0.4832c 0.1155,-0.2836 0.1155,-0.6303 0.1155 -0.6303c 0.0000,-0.6933 -0.3887,-1.0819 -0.3887 -1.0819c -0.3887,-0.3887 -1.0399,-0.3887 -1.0399 -0.3887c -0.3466,-0.0000 -0.5935,0.1050 -0.5935 0.1050c -0.2468,0.1050 -0.5515,0.3046 -0.5515 0.3046l -0.4622,-0.2941 l 0.2206,-3.2248 h 3.3508 v 0.7458 h -2.5945 l -0.1786,1.9853 c 0.2416,-0.1261 0.4832,-0.1996 0.4832 -0.1996c 0.2416,-0.0735 0.5462,-0.0735 0.5462 -0.0735c 0.4307,0.0000 0.8088,0.1261 0.8088 0.1261c 0.3782,0.1261 0.6618,0.3834 0.6618 0.3834c 0.2836,0.2574 0.4464,0.6513 0.4464 0.6513c 0.1628,0.3939 0.1628,0.9401 0.1628 0.9401c 0.0000,0.5462 -0.1891,0.9664 -0.1891 0.9664c -0.1891,0.4202 -0.5042,0.7090 -0.5042 0.7090c -0.3151,0.2889 -0.7195,0.4412 -0.7195 0.4412c -0.4044,0.1523 -0.8456,0.1523 -0.8456 0.1523c -0.3992,-0.0000 -0.7300,-0.0788 -0.7300 -0.0788c -0.3309,-0.0788 -0.5987,-0.2048 -0.5987 -0.2048c -0.2679,-0.1261 -0.4832,-0.2889 -0.4832 -0.2889c -0.2153,-0.1628 -0.3834,-0.3414 -0.3834 -0.3414ZM 404.2621,570.0000 ZM 406.8776,570.1261 c -1.0189,-0.0000 -1.5861,-0.9034 -1.5861 -0.9034c -0.5672,-0.9034 -0.5672,-2.5945 -0.5672 -2.5945c 0.0000,-1.6912 0.5672,-2.5735 0.5672 -2.5735c 0.5672,-0.8824 1.5861,-0.8824 1.5861 -0.8824c 1.0084,0.0000 1.5756,0.8824 1.5756 0.8824c 0.5672,0.8824 0.5672,2.5735 0.5672 2.5735c 0.0000,1.6912 -0.5672,2.5945 -0.5672 2.5945c -0.5672,0.9034 -1.5756,0.9034 -1.5756 0.9034ZM 406.8776,570.1261 ZM 406.8776,569.4328 c 0.2941,0.0000 0.5305,-0.1628 0.5305 -0.1628c 0.2363,-0.1628 0.4097,-0.5042 0.4097 -0.5042c 0.1733,-0.3414 0.2679,-0.8718 0.2679 -0.8718c 0.0945,-0.5305 0.0945,-1.2658 0.0945 -1.2658c 0.0000,-0.7353 -0.0945,-1.2605 -0.0945 -1.2605c -0.0945,-0.5252 -0.2679,-0.8561 -0.2679 -0.8561c -0.1733,-0.3309 -0.4097,-0.4884 -0.4097 -0.4884c -0.2363,-0.1576 -0.5305,-0.1576 -0.5305 -0.1576c -0.2941,-0.0000 -0.5357,0.1576 -0.5357 0.1576c -0.2416,0.1576 -0.4149,0.4884 -0.4149 0.4884c -0.1733,0.3309 -0.2679,0.8561 -0.2679 0.8561c -0.0945,0.5252 -0.0945,1.2605 -0.0945 1.2605c 0.0000,1.4706 0.3624,2.1376 0.3624 2.1376c 0.3624,0.6670 0.9506,0.6670 0.9506 0.6670ZM 409.4827,570.0000 ZM 412.0982,570.1261 c -1.0189,-0.0000 -1.5861,-0.9034 -1.5861 -0.9034c -0.5672,-0.9034 -0.5672,-2.5945 -0.5672 -2.5945c 0.0000,-1.6912 0.5672,-2.5735 0.5672 -2.5735c 0.5672,-0.8824 1.5861,-0.8824 1.5861 -0.8824c 1.0084,0.0000 1.5756,0.8824 1.5756 0.8824c 0.5672,0.8824 0.5672,2.5735 0.5672 2.5735c 0.0000,1.6912 -0.5672,2.5945 -0.5672 2.5945c -0.5672,0.9034 -1.5756,0.9034 -1.5756 0.9034ZM 412.0982,570.1261 ZM 412.0982,569.4328 c 0.2941,0.0000 0.5305,-0.1628 0.5305 -0.1628c 0.2363,-0.1628 0.4097,-0.5042 0.4097 -0.5042c 0.1733,-0.3414 0.2679,-0.8718 0.2679 -0.8718c 0.0945,-0.5305 0.0945,-1.2658 0.0945 -1.2658c 0.0000,-0.7353 -0.0945,-1.2605 -0.0945 -1.2605c -0.0945,-0.5252 -0.2679,-0.8561 -0.2679 -0.8561c -0.1733,-0.3309 -0.4097,-0.4884 -0.4097 -0.4884c -0.2363,-0.1576 -0.5305,-0.1576 -0.5305 -0.1576c -0.2941,-0.0000 -0.5357,0.1576 -0.5357 0.1576c -0.2416,0.1576 -0.4149,0.4884 -0.4149 0.4884c -0.1733,0.3309 -0.2679,0.8561 -0.2679 0.8561c -0.0945,0.5252 -0.0945,1.2605 -0.0945 1.2605c 0.0000,1.4706 0.3624,2.1376 0.3624 2.1376c 0.3624,0.6670 0.9506,0.6670 0.9506 0.6670Z"/></g><defs></defs><g stroke-linejoin="bevel" stroke-opacity="0.0" fill-opacity="1.0" stroke="rgb(0,0,0)" stroke-width="0.0" fill="rgb(0,0,0)" stroke-linecap="butt" stroke-miterlimit="10.0"><path d="M 585.9887,570.0000 ZM 587.8480,570.0000 c 0.0420,-0.9454 0.1681,-1.7332 0.1681 -1.7332c 0.1261,-0.7878 0.3519,-1.4968 0.3519 -1.4968c 0.2258,-0.7090 0.5777,-1.3708 0.5777 -1.3708c 0.3519,-0.6618 0.8456,-1.3550 0.8456 -1.3550h -3.3403 v -0.7458 h 4.3172 v 0.5357 c -0.5987,0.7563 -0.9716,1.4496 -0.9716 1.4496c -0.3729,0.6933 -0.5935,1.4128 -0.5935 1.4128c -0.2206,0.7195 -0.3204,1.5231 -0.3204 1.5231c -0.0998,0.8036 -0.1418,1.7805 -0.1418 1.7805h -0.8929 h 0.0000 ZM 591.2093,570.0000 ZM 591.8921,568.6450 c 0.2941,0.3046 0.6985,0.5357 0.6985 0.5357c 0.4044,0.2311 0.9926,0.2311 0.9926 0.2311c 0.3046,0.0000 0.5725,-0.1103 0.5725 -0.1103c 0.2679,-0.1103 0.4674,-0.3099 0.4674 -0.3099c 0.1996,-0.1996 0.3151,-0.4832 0.3151 -0.4832c 0.1155,-0.2836 0.1155,-0.6303 0.1155 -0.6303c 0.0000,-0.6933 -0.3887,-1.0819 -0.3887 -1.0819c -0.3887,-0.3887 -1.0399,-0.3887 -1.0399 -0.3887c -0.3466,-0.0000 -0.5935,0.1050 -0.5935 0.1050c -0.2468,0.1050 -0.5515,0.3046 -0.5515 0.3046l -0.4622,-0.2941 l 0.2206,-3.2248 h 3.3508 v 0.7458 h -2.5945 l -0.1786,1.9853 c 0.2416,-0.1261 0.4832,-0.1996 0.4832 -0.1996c 0.2416,-0.0735 0.5462,-0.0735 0.5462 -0.0735c 0.4307,0.0000 0.8088,0.1261 0.8088 0.1261c 0.3782,0.1261 0.6618,0.3834 0.6618 0.3834c 0.2836,0.2574 0.4464,0.6513 0.4464 0.6513c 0.1628,0.3939 0.1628,0.9401 0.1628 0.9401c 0.0000,0.5462 -0.1891,0.9664 -0.1891 0.9664c -0.1891,0.4202 -0.5042,0.7090 -0.5042 0.7090c -0.3151,0.2889 -0.7195,0.4412 -0.7195 0.4412c -0.4044,0.1523 -0.8456,0.1523 -0.8456 0.1523c -0.3992,-0.0000 -0.7300,-0.0788 -0.7300 -0.0788c -0.3309,-0.0788 -0.5987,-0.2048 -0.5987 -0.2048c -0.2679,-0.1261 -0.4832,-0.2889 -0.4832 -0.2889c -0.2153,-0.1628 -0.3834,-0.3414 -0.3834 -0.3414ZM 596.4299,570.0000 ZM 599.0454,570.1261 c -1.0189,-0.0000 -1.5861,-0.9034 -1.5861 -0.9034c -0.5672,-0.9034 -0.5672,-2.5945 -0.5672 -2.5945c 0.0000,-1.6912 0.5672,-2.5735 0.5672 -2.5735c 0.5672,-0.8824 1.5861,-0.8824 1.5861 -0.8824c 1.0084,0.0000 1.5756,0.8824 1.5756 0.8824c 0.5672,0.8824 0.5672,2.5735 0.5672 2.5735c 0.0000,1.6912 -0.5672,2.5945 -0.5672 2.5945c -0.5672,0.9034 -1.5756,0.9034 -1.5756 0.9034ZM 599.0454,570.1261 ZM 599.0454,569.4328 c 0.2941,0.0000 0.5305,-0.1628 0.5305 -0.1628c 0.2363,-0.1628 0.4097,-0.5042 0.4097 -0.5042c 0.1733,-0.3414 0.2679,-0.8718 0.2679 -0.8718c 0.0945,-0.5305 0.0945,-1.2658 0.0945 -1.2658c 0.0000,-0.7353 -0.0945,-1.2605 -0.0945 -1.2605c -0.0945,-0.5252 -0.2679,-0.8561 -0.2679 -0.8561c -0.1733,-0.3309 -0.4097,-0.4884 -0.4097 -0.4884c -0.2363,-0.1576 -0.5305,-0.1576 -0.5305 -0.1576c -0.2941,-0.0000 -0.5357,0.1576 -0.5357 0.1576c -0.2416,0.1576 -0.4149,0.4884 -0.4149 0.4884c -0.1733,0.3309 -0.2679,0.8561 -0.2679 0.8561c -0.0945,0.5252 -0.0945,1.2605 -0.0945 1.2605c 0.0000,1.4706 0.3624,2.1376 0.3624 2.1376c 0.3624,0.6670 0.9506,0.6670 0.9506 0.6670Z"/></g><defs></defs><g stroke-linejoin="bevel" stroke-opacity="0.0" fill-opacity="1.0" stroke="rgb(0,0,0)" stroke-width="0.0" fill="rgb(0,0,0)" stroke-linecap="butt" stroke-miterlimit="10.0"><path d="M 770.4097,570.0000 ZM 771.2395,569.2857 h 1.5336 v -4.9370 h -1.2185 v -0.5567 c 0.4622,-0.0840 0.8036,-0.2048 0.8036 -0.2048c 0.3414,-0.1208 0.6145,-0.2889 0.6145 -0.2889h 0.6618 v 5.9874 h 1.3866 v 0.7143 h -3.7815 v -0.7143 ZM 775.6303,570.0000 ZM 778.2458,570.1261 c -1.0189,-0.0000 -1.5861,-0.9034 -1.5861 -0.9034c -0.5672,-0.9034 -0.5672,-2.5945 -0.5672 -2.5945c 0.0000,-1.6912 0.5672,-2.5735 0.5672 -2.5735c 0.5672,-0.8824 1.5861,-0.8824 1.5861 -0.8824c 1.0084,0.0000 1.5756,0.8824 1.5756 0.8824c 0.5672,0.8824 0.5672,2.5735 0.5672 2.5735c 0.0000,1.6912 -0.5672,2.5945 -0.5672 2.5945c -0.5672,0.9034 -1.5756,0.9034 -1.5756 0.9034ZM 778.2458,570.1261 ZM 778.2458,569.4328 c 0.2941,0.0000 0.5305,-0.1628 0.5305 -0.1628c 0.2363,-0.1628 0.4097,-0.5042 0.4097 -0.5042c 0.1733,-0.3414 0.2679,-0.8718 0.2679 -0.8718c 0.0945,-0.5305 0.0945,-1.2658 0.0945 -1.2658c 0.0000,-0.7353 -0.0945,-1.2605 -0.0945 -1.2605c -0.0945,-0.5252 -0.2679,-0.8561 -0.2679 -0.8561c -0.1733,-0.3309 -0.4097,-0.4884 -0.4097 -0.4884c -0.2363,-0.1576 -0.5305,-0.1576 -0.5305 -0.1576c -0.2941,-0.0000 -0.5357,0.1576 -0.5357 0.1576c -0.2416,0.1576 -0.4149,0.4884 -0.4149 0.4884c -0.1733,0.3309 -0.2679,0.8561 -0.2679 0.8561c -0.0945,0.5252 -0.0945,1.2605 -0.0945 1.2605c 0.0000,1.4706 0.3624,2.1376 0.3624 2.1376c 0.3624,0.6670 0.9506,0.6670 0.9506 0.6670ZM 780.8508,570.0000 ZM 783.4664,570.1261 c -1.0189,-0.0000 -1.5861,-0.9034 -1.5861 -0.9034c -0.5672,-0.9034 -0.5672,-2.5945 -0.5672 -2.5945c 0.0000,-1.6912 0.5672,-2.5735 0.5672 -2.5735c 0.5672,-0.8824 1.5861,-0.8824 1.5861 -0.8824c 1.0084,0.0000 1.5756,0.8824 1.5756 0.8824c 0.5672,0.8824 0.5672,2.5735 0.5672 2.5735c 0.0000,1.6912 -0.5672,2.5945 -0.5672 2.5945c -0.5672,0.9034 -1.5756,0.9034 -1.5756 0.9034ZM 783.4664,570.1261 ZM 783.4664,569.4328 c 0.2941,0.0000 0.5305,-0.1628 0.5305 -0.1628c 0.2363,-0.1628 0.4097,-0.5042 0.4097 -0.5042c 0.1733,-0.3414 0.2679,-0.8718 0.2679 -0.8718c 0.0945,-0.5305 0.0945,-1.2658 0.0945 -1.2658c 0.0000,-0.7353 -0.0945,-1.2605 -0.0945 -1.2605c -0.0945,-0.5252 -0.2679,-0.8561 -0.2679 -0.8561c -0.1733,-0.3309 -0.4097,-0.4884 -0.4097 -0.4884c -0.2363,-0.1576 -0.5305,-0.1576 -0.5305 -0.1576c -0.2941,-0.0000 -0.5357,0.1576 -0.5357 0.1576c -0.2416,0.1576 -0.4149,0.4884 -0.4149 0.4884c -0.1733,0.3309 -0.2679,0.8561 -0.2679 0.8561c -0.0945,0.5252 -0.0945,1.2605 -0.0945 1.2605c 0.0000,1.4706 0.3624,2.1376 0.3624 2.1376c 0.3624,0.6670 0.9506,0.6670 0.9506 0.6670ZM 786.0714,570.0000 ZM 788.6870,570.1261 c -1.0189,-0.0000 -1.5861,-0.9034 -1.5861 -0.9034c -0.5672,-0.9034 -0.5672,-2.5945 -0.5672 -2.5945c 0.0000,-1.6912 0.5672,-2.5735 0.5672 -2.5735c 0.5672,-0.8824 1.5861,-0.8824 1.5861 -0.8824c 1.0084,0.0000 1.5756,0.8824 1.5756 0.8824c 0.5672,0.8824 0.5672,2.5735 0.5672 2.5735c 0.0000,1.6912 -0.5672,2.5945 -0.5672 2.5945c -0.5672,0.9034 -1.5756,0.9034 -1.5756 0.9034ZM 788.6870,570.1261 ZM 788.6870,569.4328 c 0.2941,0.0000 0.5305,-0.1628 0.5305 -0.1628c 0.2363,-0.1628 0.4097,-0.5042 0.4097 -0.5042c 0.1733,-0.3414 0.2679,-0.8718 0.2679 -0.8718c 0.0945,-0.5305 0.0945,-1.2658 0.0945 -1.2658c 0.0000,-0.7353 -0.0945,-1.2605 -0.0945 -1.2605c -0.0945,-0.5252 -0.2679,-0.8561 -0.2679 -0.8561c -0.1733,-0.3309 -0.4097,-0.4884 -0.4097 -0.4884c -0.2363,-0.1576 -0.5305,-0.1576 -0.5305 -0.1576c -0.2941,-0.0000 -0.5357,0.1576 -0.5357 0.1576c -0.2416,0.1576 -0.4149,0.4884 -0.4149 0.4884c -0.1733,0.3309 -0.2679,0.8561 -0.2679 0.8561c -0.0945,0.5252 -0.0945,1.2605 -0.0945 1.2605c 0.0000,1.4706 0.3624,2.1376 0.3624 2.1376c 0.3624,0.6670 0.9506,0.6670 0.9506 0.6670Z"/></g><defs></defs><g stroke-linejoin="round" stroke-opacity="1.0" fill-opacity="0.0" stroke="rgb(0,0,255)" stroke-width="0.9999999999999997" fill="rgb(0,0,0)" stroke-linecap="round" stroke-miterlimit="10.0"><path d="M 10.0000,585.0000 h 20.0000 "/></g><defs></defs><g stroke-linejoin="bevel" stroke-opacity="0.0" fill-opacity="1.0" stroke="rgb(0,0,0)" stroke-width="0.0" fill="rgb(0,0,0)" stroke-linecap="butt" stroke-miterlimit="10.0"><path d="M 35.0735,586.6071 ZM 38.9496,583.8025 l -0.3256,-1.0504 c -0.1891,-0.5777 -0.3571,-1.1502 -0.3571 -1.1502c -0.1681,-0.5725 -0.3361,-1.1712 -0.3361 -1.1712h -0.0420 c -0.1576,0.5987 -0.3256,1.1712 -0.3256 1.1712c -0.1681,0.5725 -0.3571,1.1502 -0.3571 1.1502l -0.3256,1.0504 h 2.0693 ZM 38.9496,583.8025 ZM 39.1702,584.5063 h -2.5105 l -0.6618,2.1008 h -0.8929 l 2.3319,-6.8908 h 0.9874 l 2.3319,6.8908 h -0.9349 ZM 40.7878,586.6071 ZM 41.7332,579.7164 h 1.7227 c 1.5966,0.0000 2.4265,0.8824 2.4265 0.8824c 0.8298,0.8824 0.8298,2.5315 0.8298 2.5315c 0.0000,0.8193 -0.2101,1.4653 -0.2101 1.4653c -0.2101,0.6460 -0.6197,1.0924 -0.6197 1.0924c -0.4097,0.4464 -1.0084,0.6828 -1.0084 0.6828c -0.5987,0.2363 -1.3761,0.2363 -1.3761 0.2363h -1.7647 v -6.8908 ZM 41.7332,579.7164 ZM 43.3929,585.8929 c 1.2080,0.0000 1.8120,-0.7248 1.8120 -0.7248c 0.6040,-0.7248 0.6040,-2.0378 0.6040 -2.0378c 0.0000,-1.3130 -0.6040,-2.0063 -0.6040 -2.0063c -0.6040,-0.6933 -1.8120,-0.6933 -1.8120 -0.6933h -0.7878 v 5.4622 h 0.7878 ZM 47.2479,586.6071 ZM 48.1933,579.7164 h 3.9706 v 0.7353 h -3.0987 v 2.1639 h 2.6155 v 0.7458 h -2.6155 v 2.5000 h 3.2038 v 0.7458 h -4.0756 v -6.8908 ZM 52.7836,586.6071 ZM 52.7836,579.7164 h 0.9349 l 1.1029,3.7185 c 0.1891,0.6197 0.3309,1.1450 0.3309 1.1450c 0.1418,0.5252 0.3414,1.1345 0.3414 1.1345h 0.0420 c 0.1891,-0.6092 0.3361,-1.1345 0.3361 -1.1345c 0.1471,-0.5252 0.3256,-1.1450 0.3256 -1.1450l 1.1029,-3.7185 h 0.8929 l -2.1849,6.8908 h -1.0189 Z"/></g></svg>