<?xml version="1.0" encoding="UTF-8"?>
<!DOCTYPE svg PUBLIC "-//W3C//DTD SVG 1.1//EN"
    "http://www.w3.org/Graphics/SVG/1.1/DTD/svg11.dtd"><svg xmlns="http://www.w3.org/2000/svg" height="600.0000" stroke-opacity="1" viewBox="0 0 800 600" font-size="1" width="800.0000" xmlns:xlink="http://www.w3.org/1999/xlink" stroke="rgb(0,0,0)" version="1.1"><defs></defs><defs></defs><g stroke-linejoin="bevel" stroke-opacity="0.0" fill-opacity="1.0" stroke="rgb(0,0,0)" stroke-width="0.0" fill="rgb(255,255,255)" stroke-linecap="butt" stroke-miterlimit="10.0"><path d="M 0.0000,0.0000 v 600.0000 h 800.0000 v -600.0000 Z"/></g><defs></defs><g stroke-linejoin="miter" stroke-opacity="1.0" fill-opacity="0.0" stroke="rgb(211,211,211)" stroke-width="0.9999999999999997" fill="rgb(0,0,0)" stroke-dashoffset="0.0" stroke-linecap="butt" stroke-miterlimit="10.0" stroke-dasharray="4.999999999999998,4.999999999999998"><path d="M 35.3887,15.0000 v 535.0000 "/></g><defs></defs><g stroke-linejoin="miter" stroke-opacity="1.0" fill-opacity="0.0" stroke="rgb(211,211,211)" stroke-width="0.9999999999999997" fill="rgb(0,0,0)" stroke-dashoffset="0.0" stroke-linecap="butt" stroke-miterlimit="10.0" stroke-dasharray="4.999999999999998,4.999999999999998"><path d="M 221.5927,15.0000 v 535.0000 "/></g><defs></defs><g stroke-linejoin="miter" stroke-opacity="1.0" fill-opacity="0.0" stroke="rgb(211,211,211)" stroke-width="0.9999999999999997" fill="rgb(0,0,0)" stroke-dashoffset="0.0" stroke-linecap="butt" stroke-miterlimit="10.0" stroke-dasharray="4.999999999999998,4.999999999999998"><path d="M 407.7967,15.0000 v 535.0000 "/></g><defs></defs><g stroke-linejoin="miter" stroke-opacity="1.0" fill-opacity="0.0" stroke="rgb(211,211,211)" stroke-width="0.9999999999999997" fill="rgb(0,0,0)" stroke-dashoffset="0.0" stroke-linecap="butt" stroke-miterlimit="10.0" stroke-dasharray="4.999999999999998,4.999999999999998"><path d="M 594.0008,15.0000 v 535.0000 "/></g><defs></defs><g stroke-linejoin="miter" stroke-opacity="1.0" fill-opacity="0.0" stroke="rgb(211,211,211)" stroke-width="0.9999999999999997" fill="rgb(0,0,0)" stroke-dashoffset="0.0" stroke-linecap="butt" stroke-miterlimit="10.0" stroke-dasharray="4.999999999999998,4.999999999999998"><path d="M 780.2048,15.0000 v 535.0000 "/></g><defs></defs><g stroke-linejoin="miter" stroke-opacity="1.0" fill-opacity="0.0" stroke="rgb(211,211,211)" stroke-width="0.9999999999999997" fill="rgb(0,0,0)" stroke-dashoffset="0.0" stroke-linecap="butt" stroke-miterlimit="10.0" stroke-dasharray="4.999999999999998,4.999999999999998"><path d="M 35.3887,550.0000 h 744.8162 "/></g><defs></defs><g stroke-linejoin="miter" stroke-opacity="1.0" fill-opacity="0.0" stroke="rgb(211,211,211)" stroke-width="0.9999999999999997" fill="rgb(0,0,0)" stroke-dashoffset="0.0" stroke-linecap="butt" stroke-miterlimit="10.0" stroke-dasharray="4.999999999999998,4.999999999999998"><path d="M 35.3887,416.2500 h 744.8162 "/></g><defs></defs><g stroke-linejoin="miter" stroke-opacity="1.0" fill-opacity="0.0" stroke="rgb(211,211,211)" stroke-width="0.9999999999999997" fill="rgb(0,0,0)" stroke-dashoffset="0.0" stroke-linecap="butt" stroke-miterlimit="10.0" stroke-dasharray="4.999999999999998,4.999999999999998"><path d="M 35.3887,282.5000 h 744.8162 "/></g><defs></defs><g stroke-linejoin="miter" stroke-opacity="1.0" fill-opacity="0.0" stroke="rgb(211,211,211)" stroke-width="0.9999999999999997" fill="rgb(0,0,0)" stroke-dashoffset="0.0" stroke-linecap="butt" stroke-miterlimit="10.0" stroke-dasharray="4.999999999999998,4.999999999999998"><path d="M 35.3887,148.7500 h 744.8162 "/></g><defs></defs><g stroke-linejoin="miter" stroke-opacity="1.0" fill-opacity="0.0" stroke="rgb(211,211,211)" stroke-width="0.9999999999999997" fill="rgb(0,0,0)" stroke-dashoffset="0.0" stroke-linecap="butt" stroke-miterlimit="10.0" stroke-dasharray="4.999999999999998,4.999999999999998"><path d="M 35.3887,15.0000 h 744.8162 "/></g><defs></defs><g stroke-linejoin="round" stroke-opacity="1.0" fill-opacity="0.0" stroke="rgb(0,0,255)" stroke-width="0.9999999999999997" fill="rgb(0,0,0)" stroke-linecap="round" stroke-miterlimit="10.0"><defs><clipPath id="myClip1"><path d="M 35.3887,15.0000 v 535.0000 h 744.8162 v -535.0000 Z"/></clipPath></defs><g clip-path="url(#myClip1)"><path d="M 36.1335,72.7195 l 0.7448,354.7730 l 0.7448,-256.1061 l 0.7448,277.8411 l 0.7448,-206.4652 l 0.7448,70.1243 l 0.7448,-1.4527 l 0.7448,-136.0330 l 0.7448,218.2383 l 0.7448,-48.7852 l 0.7448,-121.9392 l 0.7448,-81.2519 l 0.7448,113.9178 l 0.7448,-112.9194 l 0.7448,77.9696 l 0.7448,-38.3605 l 0.7448,290.4925 l 0.7448,-196.4659 l 0.7448,-121.7856 l 0.7448,300.3283 l 0.7448,-237.3878 l 0.7448,254.7035 l 0.7448,-42.4404 l 0.7448,-69.1108 l 0.7448,154.2898 l 0.7448,-173.6316 l 0.7448,136.4471 l 0.7448,-67.3425 l 0.7448,-195.7063 l 0.7448,-119.7296 l 0.7448,-38.5092 l 0.7448,314.0360 l 0.7448,-237.2329 l 0.7448,-85.7145 l 0.7448,146.3593 l 0.7448,-51.1733 l 0.7448,-67.6784 l 0.7448,107.5107 l 0.7448,160.3197 l 0.7448,159.8798 l 0.7448,-65.7600 l 0.7448,-231.3382 l 0.7448,137.5984 l 0.7448,70.5697 l 0.7448,-310.5744 l 0.7448,365.5760 l 0.7448,-9.9303 l 0.7448,21.5209 l 0.7448,-258.7741 l 0.7448,126.7200 l 0.7448,-86.7543 l 0.7448,-58.3107 l 0.7448,126.2071 l 0.7448,164.1759 l 0.7448,-442.4430 l 0.7448,213.5617 l 0.7448,260.8793 l 0.7448,-492.4321 l 0.7448,107.8630 l 0.7448,60.9059 l 0.7448,118.8366 l 0.7448,-245.3644 l 0.7448,299.6095 l 0.7448,-12.1950 l 0.7448,-8.8611 l 0.7448,12.2185 l 0.7448,19.8484 l 0.7448,-130.6351 l 0.7448,-134.0039 l 0.7448,411.8477 l 0.7448,-81.1913 l 0.7448,-133.7040 l 0.7448,-141.3382 l 0.7448,107.8119 l 0.7448,242.9207 l 0.7448,-380.7621 l 0.7448,281.8822 l 0.7448,-234.5147 l 0.7448,244.1519 l 0.7448,-280.8499 l 0.7448,184.2587 l 0.7448,-158.5842 l 0.7448,290.6848 l 0.7448,-91.5505 l 0.7448,-229.1169 l 0.7448,101.6366 l 0.7448,20.3103 l 0.7448,-169.0556 l 0.7448,132.8668 l 0.7448,-200.1440 l 0.7448,-4.7503 l 0.7448,4.4577 l 0.7448,409.9994 l 0.7448,59.7655 l 0.7448,-173.2710 l 0.7448,-95.3504 l 0.7448,-131.2225 l 0.7448,70.3092 l 0.7448,160.8401 l 0.7448,-154.0054 l 0.7448,42.7863 l 0.7448,-192.4466 l 0.7448,436.9559 l 0.7448,-279.8954 l 0.7448,266.2785 l 0.7448,-370.2719 l 0.7448,444.9470 l 0.7448,-192.0022 l 0.7448,-253.8753 l 0.7448,358.5938 l 0.7448,-150.9677 l 0.7448,-260.8454 l 0.7448,413.7444 l 0.7448,-371.8700 l 0.7448,213.0777 l 0.7448,-213.0753 l 0.7448,328.1071 l 0.7448,-143.6916 l 0.7448,111.7324 l 0.7448,152.1338 l 0.7448,-239.9420 l 0.7448,223.7572 l 0.7448,-287.5632 l 0.7448,84.3102 l 0.7448,-100.5713 l 0.7448,239.9751 l 0.7448,-248.9037 l 0.7448,19.2748 l 0.7448,113.8453 l 0.7448,-244.8994 l 0.7448,-24.3835 l 0.7448,238.1359 l 0.7448,72.4534 l 0.7448,44.8218 l 0.7448,-103.1109 l 0.7448,-280.4288 l 0.7448,183.3934 l 0.7448,66.1156 l 0.7448,-50.0351 l 0.7448,266.9436 l 0.7448,-457.2060 l 0.7448,174.2274 l 0.7448,-37.2803 l 0.7448,220.7793 l 0.7448,-4.6137 l 0.7448,-281.0560 l 0.7448,256.8062 l 0.7448,152.3784 l 0.7448,-285.6797 l 0.7448,192.0332 l 0.7448,-398.5178 l 0.7448,483.1283 l 0.7448,-168.7779 l 0.7448,191.5196 l 0.7448,-495.6646 l 0.7448,324.5097 l 0.7448,-272.1383 l 0.7448,359.9006 l 0.7448,-247.5275 l 0.7448,273.0386 l 0.7448,-75.6728 l 0.7448,-365.1260 l 0.7448,116.3847 l 0.7448,309.9569 l 0.7448,-117.4568 l 0.7448,24.5572 l 0.7448,-182.1692 l 0.7448,293.0321 l 0.7448,-374.4276 l 0.7448,386.7729 l 0.7448,-255.4893 l 0.7448,132.4720 l 0.7448,107.1630 l 0.7448,-138.6296 l 0.7448,-78.5418 l 0.7448,219.6719 l 0.7448,-321.8868 l 0.7448,31.4449 l 0.7448,331.6192 l 0.7448,-96.7981 l 0.7448,-362.9423 l 0.7448,229.5575 l 0.7448,-225.1020 l 0.7448,391.3475 l 0.7448,28.6252 l 0.7448,-57.3733 l 0.7448,-298.9157 l 0.7448,119.3403 l 0.7448,147.3970 l 0.7448,-286.8355 l 0.7448,-46.9589 l 0.7448,443.7965 l 0.7448,-360.7533 l 0.7448,-57.8809 l 0.7448,417.1983 l 0.7448,-436.4462 l 0.7448,238.4432 l 0.7448,-71.2414 l 0.7448,96.9491 l 0.7448,-31.2711 l 0.7448,-65.2739 l 0.7448,-122.8325 l 0.7448,3.5747 l 0.7448,231.6389 l 0.7448,156.3846 l 0.7448,-251.6905 l 0.7448,-200.5284 l 0.7448,201.2223 l 0.7448,95.1868 l 0.7448,-110.5686 l 0.7448,204.9722 l 0.7448,-311.8584 l 0.7448,142.7552 l 0.7448,-122.4557 l 0.7448,-32.7120 l 0.7448,323.3971 l 0.7448,-207.2397 l 0.7448,114.5173 l 0.7448,-312.0260 l 0.7448,242.0839 l 0.7448,202.6356 l 0.7448,-327.5261 l 0.7448,88.6558 l 0.7448,178.9677 l 0.7448,-58.7852 l 0.7448,-317.4064 l 0.7448,57.3592 l 0.7448,-56.1355 l 0.7448,140.6745 l 0.7448,1.7010 l 0.7448,126.5447 l 0.7448,22.1591 l 0.7448,105.2093 l 0.7448,-289.9120 l 0.7448,92.1534 l 0.7448,79.3763 l 0.7448,-12.3417 l 0.7448,-12.2073 l 0.7448,167.5390 l 0.7448,-90.9935 l 0.7448,-36.5244 l 0.7448,-186.9777 l 0.7448,210.7192 l 0.7448,85.1445 l 0.7448,-293.8603 l 0.7448,46.3546 l 0.7448,-73.3494 l 0.7448,109.0742 l 0.7448,22.6709 l 0.7448,63.2191 l 0.7448,181.4822 l 0.7448,27.1895 l 0.7448,-485.6661 l 0.7448,138.1232 l 0.7448,216.7861 l 0.7448,55.6541 l 0.7448,-181.5004 l 0.7448,-110.5151 l 0.7448,46.6851 l 0.7448,132.1111 l 0.7448,-86.7290 l 0.7448,96.8666 l 0.7448,-257.8818 l 0.7448,10.6808 l 0.7448,205.3455 l 0.7448,174.3234 l 0.7448,-163.6992 l 0.7448,134.5041 l 0.7448,-30.9041 l 0.7448,-9.5013 l 0.7448,-348.1769 l 0.7448,217.6866 l 0.7448,-62.1313 l 0.7448,271.6078 l 0.7448,-2.9406 l 0.7448,-294.2568 l 0.7448,190.8704 l 0.7448,-100.2501 l 0.7448,-3.9622 l 0.7448,213.1235 l 0.7448,-395.7782 l 0.7448,396.5100 l 0.7448,-320.6601 l 0.7448,-58.0184 l 0.7448,223.3067 l 0.7448,65.1444 l 0.7448,-77.6900 l 0.7448,-81.0632 l 0.7448,36.4838 l 0.7448,208.5174 l 0.7448,35.5879 l 0.7448,-346.4780 l 0.7448,159.0378 l 0.7448,35.9225 l 0.7448,50.9846 l 0.7448,-244.1357 l 0.7448,98.5949 l 0.7448,191.4116 l 0.7448,38.5113 l 0.7448,-234.9681 l 0.7448,212.5658 l 0.7448,-103.6953 l 0.7448,-21.6060 l 0.7448,-185.9674 l 0.7448,344.1603 l 0.7448,-167.8671 l 0.7448,69.1532 l 0.7448,-319.4854 l 0.7448,113.2511 l 0.7448,248.0618 l 0.7448,-18.9637 l 0.7448,-220.2710 l 0.7448,187.3060 l 0.7448,51.6927 l 0.7448,-281.0816 l 0.7448,35.9415 l 0.7448,-66.6283 l 0.7448,-116.8466 l 0.7448,137.9102 l 0.7448,44.0728 l 0.7448,124.4894 l 0.7448,-185.3738 l 0.7448,-26.3354 l 0.7448,59.7100 l 0.7448,33.6288 l 0.7448,285.7857 l 0.7448,-42.7135 l 0.7448,-54.5878 l 0.7448,5.4379 l 0.7448,-249.0405 l 0.7448,-5.7664 l 0.7448,63.6622 l 0.7448,-112.3029 l 0.7448,171.6084 l 0.7448,94.3448 l 0.7448,24.0682 l 0.7448,-147.1519 l 0.7448,181.5996 l 0.7448,82.6037 l 0.7448,-92.8159 l 0.7448,92.2346 l 0.7448,-405.1172 l 0.7448,353.3280 l 0.7448,-77.1003 l 0.7448,-292.5807 l 0.7448,386.8065 l 0.7448,-107.4361 l 0.7448,-232.2068 l 0.7448,-25.9897 l 0.7448,-78.0853 l 0.7448,47.3209 l 0.7448,237.8611 l 0.7448,47.8603 l 0.7448,27.3616 l 0.7448,78.5025 l 0.7448,-124.0203 l 0.7448,4.3343 l 0.7448,-331.2411 l 0.7448,461.1151 l 0.7448,-275.4588 l 0.7448,-43.9612 l 0.7448,-37.8684 l 0.7448,26.5141 l 0.7448,-40.7367 l 0.7448,0.9686 l 0.7448,-7.8080 l 0.7448,338.7219 l 0.7448,-201.5933 l 0.7448,-83.5912 l 0.7448,336.0336 l 0.7448,-171.7200 l 0.7448,-123.8996 l 0.7448,-80.9793 l 0.7448,137.2564 l 0.7448,127.3771 l 0.7448,-42.6057 l 0.7448,-184.4568 l 0.7448,325.9376 l 0.7448,-101.4817 l 0.7448,-22.1732 l 0.7448,-318.2230 l 0.7448,315.7304 l 0.7448,107.5486 l 0.7448,-328.9269 l 0.7448,-73.5556 l 0.7448,-22.5123 l 0.7448,281.8440 l 0.7448,-272.5118 l 0.7448,179.1322 l 0.7448,161.3252 l 0.7448,-338.1374 l 0.7448,71.8975 l 0.7448,127.7163 l 0.7448,-6.6809 l 0.7448,22.1011 l 0.7448,104.8552 l 0.7448,-292.8377 l 0.7448,186.4511 l 0.7448,174.1315 l 0.7448,-287.8102 l 0.7448,282.1955 l 0.7448,-143.9886 l 0.7448,-269.3437 l 0.7448,483.8511 l 0.7448,-392.9361 l 0.7448,225.2276 l 0.7448,-19.8627 l 0.7448,100.3237 l 0.7448,-126.3438 l 0.7448,11.6258 l 0.7448,162.0970 l 0.7448,-360.4740 l 0.7448,310.4234 l 0.7448,-39.5155 l 0.7448,104.0843 l 0.7448,-14.4335 l 0.7448,-160.4867 l 0.7448,-46.1170 l 0.7448,252.4605 l 0.7448,-471.9793 l 0.7448,17.3875 l 0.7448,23.0052 l 0.7448,227.1420 l 0.7448,82.1771 l 0.7448,-115.9863 l 0.7448,174.2185 l 0.7448,-59.6746 l 0.7448,-251.7539 l 0.7448,-114.2764 l 0.7448,172.2884 l 0.7448,207.0392 l 0.7448,-318.3838 l 0.7448,435.0403 l 0.7448,-45.4536 l 0.7448,-413.9689 l 0.7448,390.0721 l 0.7448,-182.1896 l 0.7448,50.7049 l 0.7448,146.9125 l 0.7448,-55.6591 l 0.7448,-7.8476 l 0.7448,-269.0044 l 0.7448,88.6334 l 0.7448,-9.3362 l 0.7448,204.2303 l 0.7448,-361.8926 l 0.7448,195.2491 l 0.7448,138.3212 l 0.7448,-7.9168 l 0.7448,-135.6690 l 0.7448,-99.6938 l 0.7448,75.1817 l 0.7448,154.5758 l 0.7448,-41.7422 l 0.7448,-69.7447 l 0.7448,-166.8037 l 0.7448,148.2807 l 0.7448,-11.5897 l 0.7448,7.3764 l 0.7448,-61.1635 l 0.7448,-129.7321 l 0.7448,393.8104 l 0.7448,-115.5674 l 0.7448,181.8551 l 0.7448,-198.3110 l 0.7448,-85.4739 l 0.7448,230.3636 l 0.7448,69.7983 l 0.7448,-193.2193 l 0.7448,-57.8548 l 0.7448,5.1431 l 0.7448,-199.7953 l 0.7448,60.2409 l 0.7448,-56.6204 l 0.7448,257.7863 l 0.7448,-204.0166 l 0.7448,354.5938 l 0.7448,29.2511 l 0.7448,-20.0699 l 0.7448,22.9740 l 0.7448,-42.8588 l 0.7448,-285.6087 l 0.7448,-72.6484 l 0.7448,396.0929 l 0.7448,-1.5074 l 0.7448,-335.4603 l 0.7448,290.2139 l 0.7448,-87.4886 l 0.7448,-262.9838 l 0.7448,42.9920 l 0.7448,176.4219 l 0.7448,-88.2651 l 0.7448,93.7397 l 0.7448,59.6250 l 0.7448,103.2433 l 0.7448,-396.5606 l 0.7448,287.2113 l 0.7448,-78.7035 l 0.7448,148.1576 l 0.7448,36.9906 l 0.7448,-458.1931 l 0.7448,278.9287 l 0.7448,127.8461 l 0.7448,-371.0081 l 0.7448,278.9395 l 0.7448,-130.9168 l 0.7448,251.4367 l 0.7448,35.2168 l 0.7448,-468.5074 l 0.7448,136.4606 l 0.7448,284.6306 l 0.7448,-99.2598 l 0.7448,-270.8318 l 0.7448,5.1665 l 0.7448,260.4903 l 0.7448,-314.6780 l 0.7448,442.6058 l 0.7448,-150.2641 l 0.7448,26.5146 l 0.7448,127.3254 l 0.7448,-262.8356 l 0.7448,82.2493 l 0.7448,106.1848 l 0.7448,-21.2753 l 0.7448,84.1095 l 0.7448,-14.1553 l 0.7448,17.1161 l 0.7448,-202.5870 l 0.7448,126.6078 l 0.7448,-207.3382 l 0.7448,307.9333 l 0.7448,-218.3041 l 0.7448,-198.7271 l 0.7448,35.7867 l 0.7448,255.5530 l 0.7448,-180.4979 l 0.7448,-58.2930 l 0.7448,100.9440 l 0.7448,210.8063 l 0.7448,-297.3673 l 0.7448,81.0284 l 0.7448,268.1282 l 0.7448,-278.3955 l 0.7448,27.9437 l 0.7448,-169.9704 l 0.7448,-26.7778 l 0.7448,416.1222 l 0.7448,-209.5163 l 0.7448,-117.6833 l 0.7448,99.7654 l 0.7448,142.7795 l 0.7448,-115.5655 l 0.7448,60.2060 l 0.7448,-203.3306 l 0.7448,186.6149 l 0.7448,-223.8718 l 0.7448,277.9016 l 0.7448,-44.6659 l 0.7448,-313.6234 l 0.7448,155.1906 l 0.7448,315.2253 l 0.7448,-86.3111 l 0.7448,-319.2204 l 0.7448,104.6328 l 0.7448,157.4539 l 0.7448,-251.9215 l 0.7448,354.4085 l 0.7448,-215.8793 l 0.7448,-72.9660 l 0.7448,112.0383 l 0.7448,227.9975 l 0.7448,-131.6307 l 0.7448,-58.2013 l 0.7448,-150.1032 l 0.7448,260.5492 l 0.7448,-242.3107 l 0.7448,-94.1858 l 0.7448,372.9986 l 0.7448,-231.8315 l 0.7448,2.9982 l 0.7448,97.5829 l 0.7448,-251.4731 l 0.7448,355.1159 l 0.7448,-75.6549 l 0.7448,-110.5128 l 0.7448,-129.2832 l 0.7448,211.9133 l 0.7448,-116.8622 l 0.7448,113.9372 l 0.7448,34.1355 l 0.7448,-42.5850 l 0.7448,-271.5377 l 0.7448,263.6773 l 0.7448,169.5591 l 0.7448,-336.4575 l 0.7448,310.9822 l 0.7448,-165.6965 l 0.7448,-131.6249 l 0.7448,155.2598 l 0.7448,62.8570 l 0.7448,-112.2480 l 0.7448,244.6013 l 0.7448,-53.8855 l 0.7448,-168.4323 l 0.7448,-55.4029 l 0.7448,-162.2014 l 0.7448,127.7048 l 0.7448,-50.4178 l 0.7448,121.0533 l 0.7448,162.2779 l 0.7448,-46.2565 l 0.7448,-196.3626 l 0.7448,-40.3327 l 0.7448,11.5516 l 0.7448,264.1716 l 0.7448,-281.3667 l 0.7448,-103.2077 l 0.7448,482.3899 l 0.7448,-104.7739 l 0.7448,-255.1465 l 0.7448,194.5351 l 0.7448,-226.6900 l 0.7448,-83.2833 l 0.7448,350.5857 l 0.7448,-129.4638 l 0.7448,-15.7822 l 0.7448,-87.1635 l 0.7448,112.9664 l 0.7448,119.7566 l 0.7448,-114.4794 l 0.7448,-166.6231 l 0.7448,104.3979 l 0.7448,228.2094 l 0.7448,-282.8309 l 0.7448,261.5782 l 0.7448,-112.8736 l 0.7448,-37.6382 l 0.7448,229.8824 l 0.7448,-72.7636 l 0.7448,7.9516 l 0.7448,54.6046 l 0.7448,-49.8109 l 0.7448,81.7784 l 0.7448,-487.1481 l 0.7448,478.2368 l 0.7448,-448.9020 l 0.7448,115.0472 l 0.7448,-124.6438 l 0.7448,261.7343 l 0.7448,-150.6998 l 0.7448,-107.5073 l 0.7448,210.7013 l 0.7448,142.2227 l 0.7448,-193.8214 l 0.7448,202.5167 l 0.7448,-124.8151 l 0.7448,92.5713 l 0.7448,28.3996 l 0.7448,-158.3808 l 0.7448,20.4619 l 0.7448,-219.5917 l 0.7448,192.8682 l 0.7448,-8.7280 l 0.7448,-120.2059 l 0.7448,77.9575 l 0.7448,190.1804 l 0.7448,123.0962 l 0.7448,-377.0350 l 0.7448,-21.0718 l 0.7448,143.6047 l 0.7448,-136.6407 l 0.7448,18.5518 l 0.7448,239.0506 l 0.7448,113.1351 l 0.7448,-249.5056 l 0.7448,-15.6808 l 0.7448,-160.7446 l 0.7448,130.6484 l 0.7448,-70.3354 l 0.7448,179.2497 l 0.7448,-234.1419 l 0.7448,256.0466 l 0.7448,9.6248 l 0.7448,-64.9117 l 0.7448,155.9097 l 0.7448,-194.7337 l 0.7448,265.6380 l 0.7448,-361.5600 l 0.7448,347.1301 l 0.7448,-293.2345 l 0.7448,280.8234 l 0.7448,-40.1169 l 0.7448,-41.0258 l 0.7448,-220.8642 l 0.7448,-18.9627 l 0.7448,-15.2168 l 0.7448,214.9958 l 0.7448,78.5501 l 0.7448,-204.2807 l 0.7448,-119.9525 l 0.7448,350.4547 l 0.7448,-21.8930 l 0.7448,79.7283 l 0.7448,-56.6457 l 0.7448,-156.6794 l 0.7448,136.9340 l 0.7448,6.3869 l 0.7448,-401.1309 l 0.7448,174.2729 l 0.7448,106.0520 l 0.7448,-241.7322 l 0.7448,84.1222 l 0.7448,265.4266 l 0.7448,-74.7185 l 0.7448,153.2015 l 0.7448,-220.5876 l 0.7448,-89.5810 l 0.7448,-110.4580 l 0.7448,252.5887 l 0.7448,-303.3677 l 0.7448,-19.3903 l 0.7448,59.4727 l 0.7448,259.5326 l 0.7448,-18.5702 l 0.7448,188.2796 l 0.7448,15.0898 l 0.7448,-467.0231 l 0.7448,14.4537 l 0.7448,-31.9681 l 0.7448,370.1419 l 0.7448,-317.8697 l 0.7448,2.7713 l 0.7448,402.0451 l 0.7448,-24.6614 l 0.7448,-49.3038 l 0.7448,28.5472 l 0.7448,10.1328 l 0.7448,-163.3827 l 0.7448,-259.0609 l 0.7448,263.8844 l 0.7448,112.0425 l 0.7448,-371.3282 l 0.7448,34.7434 l 0.7448,304.5581 l 0.7448,-280.9047 l 0.7448,350.0277 l 0.7448,-204.4937 l 0.7448,-31.1232 l 0.7448,80.6005 l 0.7448,100.0034 l 0.7448,-190.9670 l 0.7448,50.9833 l 0.7448,-155.7182 l 0.7448,350.4174 l 0.7448,-264.1840 l 0.7448,-20.7930 l 0.7448,141.4587 l 0.7448,-44.2583 l 0.7448,146.7494 l 0.7448,-301.0895 l 0.7448,-59.4297 l 0.7448,423.8637 l 0.7448,-121.0109 l 0.7448,34.3933 l 0.7448,58.7317 l 0.7448,-46.4686 l 0.7448,-260.4597 l 0.7448,-86.4450 l 0.7448,255.5514 l 0.7448,-144.9905 l 0.7448,237.2488 l 0.7448,106.1966 l 0.7448,-428.7203 l 0.7448,1.8631 l 0.7448,49.8563 l 0.7448,33.8647 l 0.7448,-103.9199 l 0.7448,220.4747 l 0.7448,154.2435 l 0.7448,-403.4163 l 0.7448,245.6222 l 0.7448,87.6155 l 0.7448,10.1541 l 0.7448,-198.1481 l 0.7448,10.0118 l 0.7448,308.8724 l 0.7448,-141.2653 l 0.7448,40.5174 l 0.7448,-135.8698 l 0.7448,203.5836 l 0.7448,-377.6909 l 0.7448,-40.6071 l 0.7448,262.8802 l 0.7448,44.4201 l 0.7448,-17.7694 l 0.7448,154.4559 l 0.7448,-8.6575 l 0.7448,-137.6284 l 0.7448,3.5879 l 0.7448,-176.5458 l 0.7448,-47.5000 l 0.7448,401.7314 l 0.7448,-114.4322 l 0.7448,6.7470 l 0.7448,-313.8736 l 0.7448,314.2857 l 0.7448,-256.0575 l 0.7448,302.6733 l 0.7448,-239.9222 l 0.7448,-130.3305 l 0.7448,85.2925 l 0.7448,-98.1985 l 0.7448,189.1802 l 0.7448,166.5514 l 0.7448,-131.4675 l 0.7448,205.4931 l 0.7448,-17.3168 l 0.7448,-373.9934 l 0.7448,129.1070 l 0.7448,-104.8014 l 0.7448,46.0784 l 0.7448,151.0414 l 0.7448,49.8040 l 0.7448,-153.4908 l 0.7448,179.5081 l 0.7448,-87.6956 l 0.7448,-1.3882 l 0.7448,11.1473 l 0.7448,164.9534 l 0.7448,-355.4606 l 0.7448,260.6223 l 0.7448,-68.6917 l 0.7448,-240.5780 l 0.7448,302.1705 l 0.7448,-115.9611 l 0.7448,-261.7144 l 0.7448,349.3546 l 0.7448,-297.0647 l 0.7448,65.0432 l 0.7448,-71.7026 l 0.7448,44.4051 l 0.7448,322.7814 l 0.7448,-169.4936 l 0.7448,153.3941 l 0.7448,-394.4378 l 0.7448,121.7302 l 0.7448,218.7775 l 0.7448,147.6240 l 0.7448,-202.0273 l 0.7448,-176.2977 l 0.7448,0.2149 l 0.7448,35.1497 l 0.7448,336.8979 l 0.7448,-486.9564 l 0.7448,2.5480 l 0.7448,40.5290 l 0.7448,-12.6197 l 0.7448,40.9191 l 0.7448,341.3312 l 0.7448,-186.3078 l 0.7448,30.1770 l 0.7448,213.8322 l 0.7448,-117.8409 l 0.7448,119.9493 l 0.7448,-192.1991 l 0.7448,177.4105 l 0.7448,-191.5901 l 0.7448,147.0302 l 0.7448,-277.4192 l 0.7448,-79.6774 l 0.7448,47.8314 l 0.7448,-100.5203 l 0.7448,86.5059 l 0.7448,110.1375 l 0.7448,-161.1349 l 0.7448,51.8379 l 0.7448,320.5933 l 0.7448,15.9450 l 0.7448,-166.3606 l 0.7448,75.3790 l 0.7448,-164.5724 l 0.7448,77.7882 l 0.7448,-47.5978 l 0.7448,68.7874 l 0.7448,187.3103 l 0.7448,-354.5417 l 0.7448,100.4368 l 0.7448,10.9609 l 0.7448,116.2736 l 0.7448,-267.3454 l 0.7448,5.8334 l 0.7448,-67.1159 l 0.7448,82.7110 l 0.7448,94.3253 l 0.7448,131.1451 l 0.7448,-250.8171 l 0.7448,41.9928 l 0.7448,59.9550 l 0.7448,-33.5767 l 0.7448,-71.7458 l 0.7448,130.7566 l 0.7448,47.8396 l 0.7448,71.7299 l 0.7448,27.4619 l 0.7448,-4.7345 l 0.7448,-294.9267 l 0.7448,9.3997 l 0.7448,86.3142 l 0.7448,34.7523 l 0.7448,56.7387 l 0.7448,205.8256 l 0.7448,-175.3345 l 0.7448,226.7272 l 0.7448,-152.1232 l 0.7448,118.2486 l 0.7448,-331.1614 l 0.7448,60.2991 l 0.7448,-79.4834 l 0.7448,75.0290 l 0.7448,16.5436 l 0.7448,-140.2436 l 0.7448,16.5743 l 0.7448,3.1705 l 0.7448,353.0302 l 0.7448,-397.3282 l 0.7448,197.0648 l 0.7448,60.6982 l 0.7448,-274.9534 l 0.7448,279.4088 l 0.7448,145.7816 l 0.7448,-20.6744 l 0.7448,-289.1689 l 0.7448,327.8863 l 0.7448,-186.5314 l 0.7448,-239.4176 l 0.7448,89.4840 l 0.7448,-57.2050 l 0.7448,161.4210 l 0.7448,170.3777 l 0.7448,-125.7627 l 0.7448,196.2309 l 0.7448,-262.1055 l 0.7448,99.6963 l 0.7448,-151.4971 l 0.7448,122.3353 l 0.7448,217.6717 l 0.7448,-10.3486 l 0.7448,17.6526 l 0.7448,-82.2571 l 0.7448,-315.8785 l 0.7448,71.5815 l 0.7448,304.5080 l 0.7448,-122.6914 l 0.7448,94.5064 l 0.7448,-106.5576 l 0.7448,-293.6229 l 0.7448,198.2614 l 0.7448,158.3670 l 0.7448,-295.6817 l 0.7448,86.4258 l 0.7448,101.0484 l 0.7448,103.4817 l 0.7448,-50.3950 l 0.7448,-88.7556 l 0.7448,169.1262 l 0.7448,-310.1546 l 0.7448,206.1926 l 0.7448,-231.9898 l 0.7448,219.8408 l 0.7448,-194.7278 l 0.7448,239.5875 l 0.7448,-327.2234 l 0.7448,422.8747 l 0.7448,-312.8793 l 0.7448,360.6684 l 0.7448,-209.1924 l 0.7448,-27.6098 l 0.7448,46.0309 l 0.7448,44.1218 l 0.7448,-315.9933 l 0.7448,470.4054 l 0.7448,-253.4224 l 0.7448,18.4022 l 0.7448,-45.6588 l 0.7448,164.3619 l 0.7448,-183.3335 l 0.7448,278.9413 l 0.7448,-89.0968 l 0.7448,-233.7987 l 0.7448,262.9640 l 0.7448,-152.0154 l 0.7448,73.8307 l 0.7448,-175.5965 l 0.7448,143.8821 l 0.7448,-2.4998 l 0.7448,63.0696 l 0.7448,-17.3641 l 0.7448,44.3877 l 0.7448,7.8948 l 0.7448,-165.1189 "/></g></g><defs></defs><g stroke-linejoin="miter" stroke-opacity="1.0" fill-opacity="0.0" stroke="rgb(0,0,0)" stroke-width="0.9999999999999997" fill="rgb(0,0,0)" stroke-linecap="square" stroke-miterlimit="10.0"><path d="M 35.3887,550.0000 v -535.0000 "/></g><defs></defs><g stroke-linejoin="miter" stroke-opacity="1.0" fill-opacity="0.0" stroke="rgb(0,0,0)" stroke-width="0.9999999999999997" fill="rgb(0,0,0)" stroke-linecap="butt" stroke-miterlimit="10.0"><path d="M 35.3887,550.0000 h 2.0000 "/></g><defs></defs><g stroke-linejoin="miter" stroke-opacity="1.0" fill-opacity="0.0" stroke="rgb(0,0,0)" stroke-width="0.9999999999999997" fill="rgb(0,0,0)" stroke-linecap="butt" stroke-miterlimit="10.0"><path d="M 35.3887,536.6250 h 2.0000 "/></g><defs></defs><g stroke-linejoin="miter" stroke-opacity="1.0" fill-opacity="0.0" stroke="rgb(0,0,0)" stroke-width="0.9999999999999997" fill="rgb(0,0,0)" stroke-linecap="butt" stroke-miterlimit="10.0"><path d="M 35.3887,523.2500 h 2.0000 "/></g><defs></defs><g stroke-linejoin="miter" stroke-opacity="1.0" fill-opacity="0.0" stroke="rgb(0,0,0)" stroke-width="0.9999999999999997" fill="rgb(0,0,0)" stroke-linecap="butt" stroke-miterlimit="10.0"><path d="M 35.3887,509.8750 h 2.0000 "/></g><defs></defs><g stroke-linejoin="miter" stroke-opacity="1.0" fill-opacity="0.0" stroke="rgb(0,0,0)" stroke-width="0.9999999999999997" fill="rgb(0,0,0)" stroke-linecap="butt" stroke-miterlimit="10.0"><path d="M 35.3887,496.5000 h 2.0000 "/></g><defs></defs><g stroke-linejoin="miter" stroke-opacity="1.0" fill-opacity="0.0" stroke="rgb(0,0,0)" stroke-width="0.9999999999999997" fill="rgb(0,0,0)" stroke-linecap="butt" stroke-miterlimit="10.0"><path d="M 35.3887,483.1250 h 2.0000 "/></g><defs></defs><g stroke-linejoin="miter" stroke-opacity="1.0" fill-opacity="0.0" stroke="rgb(0,0,0)" stroke-width="0.9999999999999997" fill="rgb(0,0,0)" stroke-linecap="butt" stroke-miterlimit="10.0"><path d="M 35.3887,469.7500 h 2.0000 "/></g><defs></defs><g stroke-linejoin="miter" stroke-opacity="1.0" fill-opacity="0.0" stroke="rgb(0,0,0)" stroke-width="0.9999999999999997" fill="rgb(0,0,0)" stroke-linecap="butt" stroke-miterlimit="10.0"><path d="M 35.3887,456.3750 h 2.0000 "/></g><defs></defs><g stroke-linejoin="miter" stroke-opacity="1.0" fill-opacity="0.0" stroke="rgb(0,0,0)" stroke-width="0.9999999999999997" fill="rgb(0,0,0)" stroke-linecap="butt" stroke-miterlimit="10.0"><path d="M 35.3887,443.0000 h 2.0000 "/></g><defs></defs><g stroke-linejoin="miter" stroke-opacity="1.0" fill-opacity="0.0" stroke="rgb(0,0,0)" stroke-width="0.9999999999999997" fill="rgb(0,0,0)" stroke-linecap="butt" stroke-miterlimit="10.0"><path d="M 35.3887,429.6250 h 2.0000 "/></g><defs></defs><g stroke-linejoin="miter" stroke-opacity="1.0" fill-opacity="0.0" stroke="rgb(0,0,0)" stroke-width="0.9999999999999997" fill="rgb(0,0,0)" stroke-linecap="butt" stroke-miterlimit="10.0"><path d="M 35.3887,416.2500 h 2.0000 "/></g><defs></defs><g stroke-linejoin="miter" stroke-opacity="1.0" fill-opacity="0.0" stroke="rgb(0,0,0)" stroke-width="0.9999999999999997" fill="rgb(0,0,0)" stroke-linecap="butt" stroke-miterlimit="10.0"><path d="M 35.3887,402.8750 h 2.0000 "/></g><defs></defs><g stroke-linejoin="miter" stroke-opacity="1.0" fill-opacity="0.0" stroke="rgb(0,0,0)" stroke-width="0.9999999999999997" fill="rgb(0,0,0)" stroke-linecap="butt" stroke-miterlimit="10.0"><path d="M 35.3887,389.5000 h 2.0000 "/></g><defs></defs><g stroke-linejoin="miter" stroke-opacity="1.0" fill-opacity="0.0" stroke="rgb(0,0,0)" stroke-width="0.9999999999999997" fill="rgb(0,0,0)" stroke-linecap="butt" stroke-miterlimit="10.0"><path d="M 35.3887,376.1250 h 2.0000 "/></g><defs></defs><g stroke-linejoin="miter" stroke-opacity="1.0" fill-opacity="0.0" stroke="rgb(0,0,0)" stroke-width="0.9999999999999997" fill="rgb(0,0,0)" stroke-linecap="butt" stroke-miterlimit="10.0"><path d="M 35.3887,362.7500 h 2.0000 "/></g><defs></defs><g stroke-linejoin="miter" stroke-opacity="1.0" fill-opacity="0.0" stroke="rgb(0,0,0)" stroke-width="0.9999999999999997" fill="rgb(0,0,0)" stroke-linecap="butt" stroke-miterlimit="10.0"><path d="M 35.3887,349.3750 h 2.0000 "/></g><defs></defs><g stroke-linejoin="miter" stroke-opacity="1.0" fill-opacity="0.0" stroke="rgb(0,0,0)" stroke-width="0.9999999999999997" fill="rgb(0,0,0)" stroke-linecap="butt" stroke-miterlimit="10.0"><path d="M 35.3887,336.0000 h 2.0000 "/></g><defs></defs><g stroke-linejoin="miter" stroke-opacity="1.0" fill-opacity="0.0" stroke="rgb(0,0,0)" stroke-width="0.9999999999999997" fill="rgb(0,0,0)" stroke-linecap="butt" stroke-miterlimit="10.0"><path d="M 35.3887,322.6250 h 2.0000 "/></g><defs></defs><g stroke-linejoin="miter" stroke-opacity="1.0" fill-opacity="0.0" stroke="rgb(0,0,0)" stroke-width="0.9999999999999997" fill="rgb(0,0,0)" stroke-linecap="butt" stroke-miterlimit="10.0"><path d="M 35.3887,309.2500 h 2.0000 "/></g><defs></defs><g stroke-linejoin="miter" stroke-opacity="1.0" fill-opacity="0.0" stroke="rgb(0,0,0)" stroke-width="0.9999999999999997" fill="rgb(0,0,0)" stroke-linecap="butt" stroke-miterlimit="10.0"><path d="M 35.3887,295.8750 h 2.0000 "/></g><defs></defs><g stroke-linejoin="miter" stroke-opacity="1.0" fill-opacity="0.0" stroke="rgb(0,0,0)" stroke-width="0.9999999999999997" fill="rgb(0,0,0)" stroke-linecap="butt" stroke-miterlimit="10.0"><path d="M 35.3887,282.5000 h 2.0000 "/></g><defs></defs><g stroke-linejoin="miter" stroke-opacity="1.0" fill-opacity="0.0" stroke="rgb(0,0,0)" stroke-width="0.9999999999999997" fill="rgb(0,0,0)" stroke-linecap="butt" stroke-miterlimit="10.0"><path d="M 35.3887,269.1250 h 2.0000 "/></g><defs></defs><g stroke-linejoin="miter" stroke-opacity="1.0" fill-opacity="0.0" stroke="rgb(0,0,0)" stroke-width="0.9999999999999997" fill="rgb(0,0,0)" stroke-linecap="butt" stroke-miterlimit="10.0"><path d="M 35.3887,255.7500 h 2.0000 "/></g><defs></defs><g stroke-linejoin="miter" stroke-opacity="1.0" fill-opacity="0.0" stroke="rgb(0,0,0)" stroke-width="0.9999999999999997" fill="rgb(0,0,0)" stroke-linecap="butt" stroke-miterlimit="10.0"><path d="M 35.3887,242.3750 h 2.0000 "/></g><defs></defs><g stroke-linejoin="miter" stroke-opacity="1.0" fill-opacity="0.0" stroke="rgb(0,0,0)" stroke-width="0.9999999999999997" fill="rgb(0,0,0)" stroke-linecap="butt" stroke-miterlimit="10.0"><path d="M 35.3887,229.0000 h 2.0000 "/></g><defs></defs><g stroke-linejoin="miter" stroke-opacity="1.0" fill-opacity="0.0" stroke="rgb(0,0,0)" stroke-width="0.9999999999999997" fill="rgb(0,0,0)" stroke-linecap="butt" stroke-miterlimit="10.0"><path d="M 35.3887,215.6250 h 2.0000 "/></g><defs></defs><g stroke-linejoin="miter" stroke-opacity="1.0" fill-opacity="0.0" stroke="rgb(0,0,0)" stroke-width="0.9999999999999997" fill="rgb(0,0,0)" stroke-linecap="butt" stroke-miterlimit="10.0"><path d="M 35.3887,202.2500 h 2.0000 "/></g><defs></defs><g stroke-linejoin="miter" stroke-opacity="1.0" fill-opacity="0.0" stroke="rgb(0,0,0)" stroke-width="0.9999999999999997" fill="rgb(0,0,0)" stroke-linecap="butt" stroke-miterlimit="10.0"><path d="M 35.3887,188.8750 h 2.0000 "/></g><defs></defs><g stroke-linejoin="miter" stroke-opacity="1.0" fill-opacity="0.0" stroke="rgb(0,0,0)" stroke-width="0.9999999999999997" fill="rgb(0,0,0)" stroke-linecap="butt" stroke-miterlimit="10.0"><path d="M 35.3887,175.5000 h 2.0000 "/></g><defs></defs><g stroke-linejoin="miter" stroke-opacity="1.0" fill-opacity="0.0" stroke="rgb(0,0,0)" stroke-width="0.9999999999999997" fill="rgb(0,0,0)" stroke-linecap="butt" stroke-miterlimit="10.0"><path d="M 35.3887,162.1250 h 2.0000 "/></g><defs></defs><g stroke-linejoin="miter" stroke-opacity="1.0" fill-opacity="0.0" stroke="rgb(0,0,0)" stroke-width="0.9999999999999997" fill="rgb(0,0,0)" stroke-linecap="butt" stroke-miterlimit="10.0"><path d="M 35.3887,148.7500 h 2.0000 "/></g><defs></defs><g stroke-linejoin="miter" stroke-opacity="1.0" fill-opacity="0.0" stroke="rgb(0,0,0)" stroke-width="0.9999999999999997" fill="rgb(0,0,0)" stroke-linecap="butt" stroke-miterlimit="10.0"><path d="M 35.3887,135.3750 h 2.0000 "/></g><defs></defs><g stroke-linejoin="miter" stroke-opacity="1.0" fill-opacity="0.0" stroke="rgb(0,0,0)" stroke-width="0.9999999999999997" fill="rgb(0,0,0)" stroke-linecap="butt" stroke-miterlimit="10.0"><path d="M 35.3887,122.0000 h 2.0000 "/></g><defs></defs><g stroke-linejoin="miter" stroke-opacity="1.0" fill-opacity="0.0" stroke="rgb(0,0,0)" stroke-width="0.9999999999999997" fill="rgb(0,0,0)" stroke-linecap="butt" stroke-miterlimit="10.0"><path d="M 35.3887,108.6250 h 2.0000 "/></g><defs></defs><g stroke-linejoin="miter" stroke-opacity="1.0" fill-opacity="0.0" stroke="rgb(0,0,0)" stroke-width="0.9999999999999997" fill="rgb(0,0,0)" stroke-linecap="butt" stroke-miterlimit="10.0"><path d="M 35.3887,95.2500 h 2.0000 "/></g><defs></defs><g stroke-linejoin="miter" stroke-opacity="1.0" fill-opacity="0.0" stroke="rgb(0,0,0)" stroke-width="0.9999999999999997" fill="rgb(0,0,0)" stroke-linecap="butt" stroke-miterlimit="10.0"><path d="M 35.3887,81.8750 h 2.0000 "/></g><defs></defs><g stroke-linejoin="miter" stroke-opacity="1.0" fill-opacity="0.0" stroke="rgb(0,0,0)" stroke-width="0.9999999999999997" fill="rgb(0,0,0)" stroke-linecap="butt" stroke-miterlimit="10.0"><path d="M 35.3887,68.5000 h 2.0000 "/></g><defs></defs><g stroke-linejoin="miter" stroke-opacity="1.0" fill-opacity="0.0" stroke="rgb(0,0,0)" stroke-width="0.9999999999999997" fill="rgb(0,0,0)" stroke-linecap="butt" stroke-miterlimit="10.0"><path d="M 35.3887,55.1250 h 2.0000 "/></g><defs></defs><g stroke-linejoin="miter" stroke-opacity="1.0" fill-opacity="0.0" stroke="rgb(0,0,0)" stroke-width="0.9999999999999997" fill="rgb(0,0,0)" stroke-linecap="butt" stroke-miterlimit="10.0"><path d="M 35.3887,41.7500 h 2.0000 "/></g><defs></defs><g stroke-linejoin="miter" stroke-opacity="1.0" fill-opacity="0.0" stroke="rgb(0,0,0)" stroke-width="0.9999999999999997" fill="rgb(0,0,0)" stroke-linecap="butt" stroke-miterlimit="10.0"><path d="M 35.3887,28.3750 h 2.0000 "/></g><defs></defs><g stroke-linejoin="miter" stroke-opacity="1.0" fill-opacity="0.0" stroke="rgb(0,0,0)" stroke-width="0.9999999999999997" fill="rgb(0,0,0)" stroke-linecap="butt" stroke-miterlimit="10.0"><path d="M 35.3887,15.0000 h 2.0000 "/></g><defs></defs><g stroke-linejoin="miter" stroke-opacity="1.0" fill-opacity="0.0" stroke="rgb(0,0,0)" stroke-width="0.9999999999999997" fill="rgb(0,0,0)" stroke-linecap="butt" stroke-miterlimit="10.0"><path d="M 35.3887,550.0000 h 5.0000 "/></g><defs></defs><g stroke-linejoin="miter" stroke-opacity="1.0" fill-opacity="0.0" stroke="rgb(0,0,0)" stroke-width="0.9999999999999997" fill="rgb(0,0,0)" stroke-linecap="butt" stroke-miterlimit="10.0"><path d="M 35.3887,416.2500 h 5.0000 "/></g><defs></defs><g stroke-linejoin="miter" stroke-opacity="1.0" fill-opacity="0.0" stroke="rgb(0,0,0)" stroke-width="0.9999999999999997" fill="rgb(0,0,0)" stroke-linecap="butt" stroke-miterlimit="10.0"><path d="M 35.3887,282.5000 h 5.0000 "/></g><defs></defs><g stroke-linejoin="miter" stroke-opacity="1.0" fill-opacity="0.0" stroke="rgb(0,0,0)" stroke-width="0.9999999999999997" fill="rgb(0,0,0)" stroke-linecap="butt" stroke-miterlimit="10.0"><path d="M 35.3887,148.7500 h 5.0000 "/></g><defs></defs><g stroke-linejoin="miter" stroke-opacity="1.0" fill-opacity="0.0" stroke="rgb(0,0,0)" stroke-width="0.9999999999999997" fill="rgb(0,0,0)" stroke-linecap="butt" stroke-miterlimit="10.0"><path d="M 35.3887,15.0000 h 5.0000 "/></g><defs></defs><g stroke-linejoin="bevel" stroke-opacity="0.0" fill-opacity="1.0" stroke="rgb(0,0,0)" stroke-width="0.0" fill="rgb(0,0,0)" stroke-linecap="butt" stroke-miterlimit="10.0"><path d="M 17.9412,553.4454 ZM 18.3718,550.4832 h 2.4160 v 0.6618 h -2.4160 v -0.6618 ZM 21.2080,553.4454 ZM 22.0378,552.7311 h 1.5336 v -4.9370 h -1.2185 v -0.5567 c 0.4622,-0.0840 0.8036,-0.2048 0.8036 -0.2048c 0.3414,-0.1208 0.6145,-0.2889 0.6145 -0.2889h 0.6618 v 5.9874 h 1.3866 v 0.7143 h -3.7815 v -0.7143 Z"/></g><defs></defs><g stroke-linejoin="bevel" stroke-opacity="0.0" fill-opacity="1.0" stroke="rgb(0,0,0)" stroke-width="0.0" fill="rgb(0,0,0)" stroke-linecap="butt" stroke-miterlimit="10.0"><path d="M 10.0000,419.6954 ZM 10.4307,416.7332 h 2.4160 v 0.6618 h -2.4160 v -0.6618 ZM 13.2668,419.6954 ZM 15.8824,419.8214 c -1.0189,-0.0000 -1.5861,-0.9034 -1.5861 -0.9034c -0.5672,-0.9034 -0.5672,-2.5945 -0.5672 -2.5945c 0.0000,-1.6912 0.5672,-2.5735 0.5672 -2.5735c 0.5672,-0.8824 1.5861,-0.8824 1.5861 -0.8824c 1.0084,0.0000 1.5756,0.8824 1.5756 0.8824c 0.5672,0.8824 0.5672,2.5735 0.5672 2.5735c 0.0000,1.6912 -0.5672,2.5945 -0.5672 2.5945c -0.5672,0.9034 -1.5756,0.9034 -1.5756 0.9034ZM 15.8824,419.8214 ZM 15.8824,419.1282 c 0.2941,0.0000 0.5305,-0.1628 0.5305 -0.1628c 0.2363,-0.1628 0.4097,-0.5042 0.4097 -0.5042c 0.1733,-0.3414 0.2679,-0.8718 0.2679 -0.8718c 0.0945,-0.5305 0.0945,-1.2658 0.0945 -1.2658c 0.0000,-0.7353 -0.0945,-1.2605 -0.0945 -1.2605c -0.0945,-0.5252 -0.2679,-0.8561 -0.2679 -0.8561c -0.1733,-0.3309 -0.4097,-0.4884 -0.4097 -0.4884c -0.2363,-0.1576 -0.5305,-0.1576 -0.5305 -0.1576c -0.2941,-0.0000 -0.5357,0.1576 -0.5357 0.1576c -0.2416,0.1576 -0.4149,0.4884 -0.4149 0.4884c -0.1733,0.3309 -0.2679,0.8561 -0.2679 0.8561c -0.0945,0.5252 -0.0945,1.2605 -0.0945 1.2605c 0.0000,1.4706 0.3624,2.1376 0.3624 2.1376c 0.3624,0.6670 0.9506,0.6670 0.9506 0.6670ZM 18.4874,419.6954 ZM 19.1702,419.1702 c 0.0000,-0.3046 0.1838,-0.4884 0.1838 -0.4884c 0.1838,-0.1838 0.4464,-0.1838 0.4464 -0.1838c 0.2521,0.0000 0.4359,0.1838 0.4359 0.1838c 0.1838,0.1838 0.1838,0.4884 0.1838 0.4884c 0.0000,0.2836 -0.1838,0.4674 -0.1838 0.4674c -0.1838,0.1838 -0.4359,0.1838 -0.4359 0.1838c -0.2626,-0.0000 -0.4464,-0.1838 -0.4464 -0.1838c -0.1838,-0.1838 -0.1838,-0.4674 -0.1838 -0.4674ZM 21.1029,419.6954 ZM 21.7857,418.3403 c 0.2941,0.3046 0.6985,0.5357 0.6985 0.5357c 0.4044,0.2311 0.9926,0.2311 0.9926 0.2311c 0.3046,0.0000 0.5725,-0.1103 0.5725 -0.1103c 0.2679,-0.1103 0.4674,-0.3099 0.4674 -0.3099c 0.1996,-0.1996 0.3151,-0.4832 0.3151 -0.4832c 0.1155,-0.2836 0.1155,-0.6303 0.1155 -0.6303c 0.0000,-0.6933 -0.3887,-1.0819 -0.3887 -1.0819c -0.3887,-0.3887 -1.0399,-0.3887 -1.0399 -0.3887c -0.3466,-0.0000 -0.5935,0.1050 -0.5935 0.1050c -0.2468,0.1050 -0.5515,0.3046 -0.5515 0.3046l -0.4622,-0.2941 l 0.2206,-3.2248 h 3.3508 v 0.7458 h -2.5945 l -0.1786,1.9853 c 0.2416,-0.1261 0.4832,-0.1996 0.4832 -0.1996c 0.2416,-0.0735 0.5462,-0.0735 0.5462 -0.0735c 0.4307,0.0000 0.8088,0.1261 0.8088 0.1261c 0.3782,0.1261 0.6618,0.3834 0.6618 0.3834c 0.2836,0.2574 0.4464,0.6513 0.4464 0.6513c 0.1628,0.3939 0.1628,0.9401 0.1628 0.9401c 0.0000,0.5462 -0.1891,0.9664 -0.1891 0.9664c -0.1891,0.4202 -0.5042,0.7090 -0.5042 0.7090c -0.3151,0.2889 -0.7195,0.4412 -0.7195 0.4412c -0.4044,0.1523 -0.8456,0.1523 -0.8456 0.1523c -0.3992,-0.0000 -0.7300,-0.0788 -0.7300 -0.0788c -0.3309,-0.0788 -0.5987,-0.2048 -0.5987 -0.2048c -0.2679,-0.1261 -0.4832,-0.2889 -0.4832 -0.2889c -0.2153,-0.1628 -0.3834,-0.3414 -0.3834 -0.3414Z"/></g><defs></defs><g stroke-linejoin="bevel" stroke-opacity="0.0" fill-opacity="1.0" stroke="rgb(0,0,0)" stroke-width="0.0" fill="rgb(0,0,0)" stroke-linecap="butt" stroke-miterlimit="10.0"><path d="M 21.0924,285.9454 ZM 23.7080,286.0714 c -1.0189,-0.0000 -1.5861,-0.9034 -1.5861 -0.9034c -0.5672,-0.9034 -0.5672,-2.5945 -0.5672 -2.5945c 0.0000,-1.6912 0.5672,-2.5735 0.5672 -2.5735c 0.5672,-0.8824 1.5861,-0.8824 1.5861 -0.8824c 1.0084,0.0000 1.5756,0.8824 1.5756 0.8824c 0.5672,0.8824 0.5672,2.5735 0.5672 2.5735c 0.0000,1.6912 -0.5672,2.5945 -0.5672 2.5945c -0.5672,0.9034 -1.5756,0.9034 -1.5756 0.9034ZM 23.7080,286.0714 ZM 23.7080,285.3782 c 0.2941,0.0000 0.5305,-0.1628 0.5305 -0.1628c 0.2363,-0.1628 0.4097,-0.5042 0.4097 -0.5042c 0.1733,-0.3414 0.2679,-0.8718 0.2679 -0.8718c 0.0945,-0.5305 0.0945,-1.2658 0.0945 -1.2658c 0.0000,-0.7353 -0.0945,-1.2605 -0.0945 -1.2605c -0.0945,-0.5252 -0.2679,-0.8561 -0.2679 -0.8561c -0.1733,-0.3309 -0.4097,-0.4884 -0.4097 -0.4884c -0.2363,-0.1576 -0.5305,-0.1576 -0.5305 -0.1576c -0.2941,-0.0000 -0.5357,0.1576 -0.5357 0.1576c -0.2416,0.1576 -0.4149,0.4884 -0.4149 0.4884c -0.1733,0.3309 -0.2679,0.8561 -0.2679 0.8561c -0.0945,0.5252 -0.0945,1.2605 -0.0945 1.2605c 0.0000,1.4706 0.3624,2.1376 0.3624 2.1376c 0.3624,0.6670 0.9506,0.6670 0.9506 0.6670Z"/></g><defs></defs><g stroke-linejoin="bevel" stroke-opacity="0.0" fill-opacity="1.0" stroke="rgb(0,0,0)" stroke-width="0.0" fill="rgb(0,0,0)" stroke-linecap="butt" stroke-miterlimit="10.0"><path d="M 13.2983,152.1954 ZM 15.9139,152.3214 c -1.0189,-0.0000 -1.5861,-0.9034 -1.5861 -0.9034c -0.5672,-0.9034 -0.5672,-2.5945 -0.5672 -2.5945c 0.0000,-1.6912 0.5672,-2.5735 0.5672 -2.5735c 0.5672,-0.8824 1.5861,-0.8824 1.5861 -0.8824c 1.0084,0.0000 1.5756,0.8824 1.5756 0.8824c 0.5672,0.8824 0.5672,2.5735 0.5672 2.5735c 0.0000,1.6912 -0.5672,2.5945 -0.5672 2.5945c -0.5672,0.9034 -1.5756,0.9034 -1.5756 0.9034ZM 15.9139,152.3214 ZM 15.9139,151.6282 c 0.2941,0.0000 0.5305,-0.1628 0.5305 -0.1628c 0.2363,-0.1628 0.4097,-0.5042 0.4097 -0.5042c 0.1733,-0.3414 0.2679,-0.8718 0.2679 -0.8718c 0.0945,-0.5305 0.0945,-1.2658 0.0945 -1.2658c 0.0000,-0.7353 -0.0945,-1.2605 -0.0945 -1.2605c -0.0945,-0.5252 -0.2679,-0.8561 -0.2679 -0.8561c -0.1733,-0.3309 -0.4097,-0.4884 -0.4097 -0.4884c -0.2363,-0.1576 -0.5305,-0.1576 -0.5305 -0.1576c -0.2941,-0.0000 -0.5357,0.1576 -0.5357 0.1576c -0.2416,0.1576 -0.4149,0.4884 -0.4149 0.4884c -0.1733,0.3309 -0.2679,0.8561 -0.2679 0.8561c -0.0945,0.5252 -0.0945,1.2605 -0.0945 1.2605c 0.0000,1.4706 0.3624,2.1376 0.3624 2.1376c 0.3624,0.6670 0.9506,0.6670 0.9506 0.6670ZM 18.5189,152.1954 ZM 19.2017,151.6702 c 0.0000,-0.3046 0.1838,-0.4884 0.1838 -0.4884c 0.1838,-0.1838 0.4464,-0.1838 0.4464 -0.1838c 0.2521,0.0000 0.4359,0.1838 0.4359 0.1838c 0.1838,0.1838 0.1838,0.4884 0.1838 0.4884c 0.0000,0.2836 -0.1838,0.4674 -0.1838 0.4674c -0.1838,0.1838 -0.4359,0.1838 -0.4359 0.1838c -0.2626,-0.0000 -0.4464,-0.1838 -0.4464 -0.1838c -0.1838,-0.1838 -0.1838,-0.4674 -0.1838 -0.4674ZM 21.1345,152.1954 ZM 21.8172,150.8403 c 0.2941,0.3046 0.6985,0.5357 0.6985 0.5357c 0.4044,0.2311 0.9926,0.2311 0.9926 0.2311c 0.3046,0.0000 0.5725,-0.1103 0.5725 -0.1103c 0.2679,-0.1103 0.4674,-0.3099 0.4674 -0.3099c 0.1996,-0.1996 0.3151,-0.4832 0.3151 -0.4832c 0.1155,-0.2836 0.1155,-0.6303 0.1155 -0.6303c 0.0000,-0.6933 -0.3887,-1.0819 -0.3887 -1.0819c -0.3887,-0.3887 -1.0399,-0.3887 -1.0399 -0.3887c -0.3466,-0.0000 -0.5935,0.1050 -0.5935 0.1050c -0.2468,0.1050 -0.5515,0.3046 -0.5515 0.3046l -0.4622,-0.2941 l 0.2206,-3.2248 h 3.3508 v 0.7458 h -2.5945 l -0.1786,1.9853 c 0.2416,-0.1261 0.4832,-0.1996 0.4832 -0.1996c 0.2416,-0.0735 0.5462,-0.0735 0.5462 -0.0735c 0.4307,0.0000 0.8088,0.1261 0.8088 0.1261c 0.3782,0.1261 0.6618,0.3834 0.6618 0.3834c 0.2836,0.2574 0.4464,0.6513 0.4464 0.6513c 0.1628,0.3939 0.1628,0.9401 0.1628 0.9401c 0.0000,0.5462 -0.1891,0.9664 -0.1891 0.9664c -0.1891,0.4202 -0.5042,0.7090 -0.5042 0.7090c -0.3151,0.2889 -0.7195,0.4412 -0.7195 0.4412c -0.4044,0.1523 -0.8456,0.1523 -0.8456 0.1523c -0.3992,-0.0000 -0.7300,-0.0788 -0.7300 -0.0788c -0.3309,-0.0788 -0.5987,-0.2048 -0.5987 -0.2048c -0.2679,-0.1261 -0.4832,-0.2889 -0.4832 -0.2889c -0.2153,-0.1628 -0.3834,-0.3414 -0.3834 -0.3414Z"/></g><defs></defs><g stroke-linejoin="bevel" stroke-opacity="0.0" fill-opacity="1.0" stroke="rgb(0,0,0)" stroke-width="0.0" fill="rgb(0,0,0)" stroke-linecap="butt" stroke-miterlimit="10.0"><path d="M 21.6071,18.4454 ZM 22.4370,17.7311 h 1.5336 v -4.9370 h -1.2185 v -0.5567 c 0.4622,-0.0840 0.8036,-0.2048 0.8036 -0.2048c 0.3414,-0.1208 0.6145,-0.2889 0.6145 -0.2889h 0.6618 v 5.9874 h 1.3866 v 0.7143 h -3.7815 v -0.7143 Z"/></g><defs></defs><g stroke-linejoin="miter" stroke-opacity="1.0" fill-opacity="0.0" stroke="rgb(0,0,0)" stroke-width="0.9999999999999997" fill="rgb(0,0,0)" stroke-linecap="square" stroke-miterlimit="10.0"><path d="M 35.3887,550.0000 h 744.8162 "/></g><defs></defs><g stroke-linejoin="miter" stroke-opacity="1.0" fill-opacity="0.0" stroke="rgb(0,0,0)" stroke-width="0.9999999999999997" fill="rgb(0,0,0)" stroke-linecap="butt" stroke-miterlimit="10.0"><path d="M 35.3887,550.0000 v -2.0000 "/></g><defs></defs><g stroke-linejoin="miter" stroke-opacity="1.0" fill-opacity="0.0" stroke="rgb(0,0,0)" stroke-width="0.9999999999999997" fill="rgb(0,0,0)" stroke-linecap="butt" stroke-miterlimit="10.0"><path d="M 109.8703,550.0000 v -2.0000 "/></g><defs></defs><g stroke-linejoin="miter" stroke-opacity="1.0" fill-opacity="0.0" stroke="rgb(0,0,0)" stroke-width="0.9999999999999997" fill="rgb(0,0,0)" stroke-linecap="butt" stroke-miterlimit="10.0"><path d="M 184.3519,550.0000 v -2.0000 "/></g><defs></defs><g stroke-linejoin="miter" stroke-opacity="1.0" fill-opacity="0.0" stroke="rgb(0,0,0)" stroke-width="0.9999999999999997" fill="rgb(0,0,0)" stroke-linecap="butt" stroke-miterlimit="10.0"><path d="M 258.8335,550.0000 v -2.0000 "/></g><defs></defs><g stroke-linejoin="miter" stroke-opacity="1.0" fill-opacity="0.0" stroke="rgb(0,0,0)" stroke-width="0.9999999999999997" fill="rgb(0,0,0)" stroke-linecap="butt" stroke-miterlimit="10.0"><path d="M 333.3151,550.0000 v -2.0000 "/></g><defs></defs><g stroke-linejoin="miter" stroke-opacity="1.0" fill-opacity="0.0" stroke="rgb(0,0,0)" stroke-width="0.9999999999999997" fill="rgb(0,0,0)" stroke-linecap="butt" stroke-miterlimit="10.0"><path d="M 407.7967,550.0000 v -2.0000 "/></g><defs></defs><g stroke-linejoin="miter" stroke-opacity="1.0" fill-opacity="0.0" stroke="rgb(0,0,0)" stroke-width="0.9999999999999997" fill="rgb(0,0,0)" stroke-linecap="butt" stroke-miterlimit="10.0"><path d="M 482.2784,550.0000 v -2.0000 "/></g><defs></defs><g stroke-linejoin="miter" stroke-opacity="1.0" fill-opacity="0.0" stroke="rgb(0,0,0)" stroke-width="0.9999999999999997" fill="rgb(0,0,0)" stroke-linecap="butt" stroke-miterlimit="10.0"><path d="M 556.7600,550.0000 v -2.0000 "/></g><defs></defs><g stroke-linejoin="miter" stroke-opacity="1.0" fill-opacity="0.0" stroke="rgb(0,0,0)" stroke-width="0.9999999999999997" fill="rgb(0,0,0)" stroke-linecap="butt" stroke-miterlimit="10.0"><path d="M 631.2416,550.0000 v -2.0000 "/></g><defs></defs><g stroke-linejoin="miter" stroke-opacity="1.0" fill-opacity="0.0" stroke="rgb(0,0,0)" stroke-width="0.9999999999999997" fill="rgb(0,0,0)" stroke-linecap="butt" stroke-miterlimit="10.0"><path d="M 705.7232,550.0000 v -2.0000 "/></g><defs></defs><g stroke-linejoin="miter" stroke-opacity="1.0" fill-opacity="0.0" stroke="rgb(0,0,0)" stroke-width="0.9999999999999997" fill="rgb(0,0,0)" stroke-linecap="butt" stroke-miterlimit="10.0"><path d="M 780.2048,550.0000 v -2.0000 "/></g><defs></defs><g stroke-linejoin="miter" stroke-opacity="1.0" fill-opacity="0.0" stroke="rgb(0,0,0)" stroke-width="0.9999999999999997" fill="rgb(0,0,0)" stroke-linecap="butt" stroke-miterlimit="10.0"><path d="M 35.3887,550.0000 v -5.0000 "/></g><defs></defs><g stroke-linejoin="miter" stroke-opacity="1.0" fill-opacity="0.0" stroke="rgb(0,0,0)" stroke-width="0.9999999999999997" fill="rgb(0,0,0)" stroke-linecap="butt" stroke-miterlimit="10.0"><path d="M 221.5927,550.0000 v -5.0000 "/></g><defs></defs><g stroke-linejoin="miter" stroke-opacity="1.0" fill-opacity="0.0" stroke="rgb(0,0,0)" stroke-width="0.9999999999999997" fill="rgb(0,0,0)" stroke-linecap="butt" stroke-miterlimit="10.0"><path d="M 407.7967,550.0000 v -5.0000 "/></g><defs></defs><g stroke-linejoin="miter" stroke-opacity="1.0" fill-opacity="0.0" stroke="rgb(0,0,0)" stroke-width="0.9999999999999997" fill="rgb(0,0,0)" stroke-linecap="butt" stroke-miterlimit="10.0"><path d="M 594.0008,550.0000 v -5.0000 "/></g><defs></defs><g stroke-linejoin="miter" stroke-opacity="1.0" fill-opacity="0.0" stroke="rgb(0,0,0)" stroke-width="0.9999999999999997" fill="rgb(0,0,0)" stroke-linecap="butt" stroke-miterlimit="10.0"><path d="M 780.2048,550.0000 v -5.0000 "/></g><defs></defs><g stroke-linejoin="bevel" stroke-opacity="0.0" fill-opacity="1.0" stroke="rgb(0,0,0)" stroke-width="0.0" fill="rgb(0,0,0)" stroke-linecap="butt" stroke-miterlimit="10.0"><path d="M 33.2405,570.0000 ZM 35.8561,570.1261 c -1.0189,-0.0000 -1.5861,-0.9034 -1.5861 -0.9034c -0.5672,-0.9034 -0.5672,-2.5945 -0.5672 -2.5945c 0.0000,-1.6912 0.5672,-2.5735 0.5672 -2.5735c 0.5672,-0.8824 1.5861,-0.8824 1.5861 -0.8824c 1.0084,0.0000 1.5756,0.8824 1.5756 0.8824c 0.5672,0.8824 0.5672,2.5735 0.5672 2.5735c 0.0000,1.6912 -0.5672,2.5945 -0.5672 2.5945c -0.5672,0.9034 -1.5756,0.9034 -1.5756 0.9034ZM 35.8561,570.1261 ZM 35.8561,569.4328 c 0.2941,0.0000 0.5305,-0.1628 0.5305 -0.1628c 0.2363,-0.1628 0.4097,-0.5042 0.4097 -0.5042c 0.1733,-0.3414 0.2679,-0.8718 0.2679 -0.8718c 0.0945,-0.5305 0.0945,-1.2658 0.0945 -1.2658c 0.0000,-0.7353 -0.0945,-1.2605 -0.0945 -1.2605c -0.0945,-0.5252 -0.2679,-0.8561 -0.2679 -0.8561c -0.1733,-0.3309 -0.4097,-0.4884 -0.4097 -0.4884c -0.2363,-0.1576 -0.5305,-0.1576 -0.5305 -0.1576c -0.2941,-0.0000 -0.5357,0.1576 -0.5357 0.1576c -0.2416,0.1576 -0.4149,0.4884 -0.4149 0.4884c -0.1733,0.3309 -0.2679,0.8561 -0.2679 0.8561c -0.0945,0.5252 -0.0945,1.2605 -0.0945 1.2605c 0.0000,1.4706 0.3624,2.1376 0.3624 2.1376c 0.3624,0.6670 0.9506,0.6670 0.9506 0.6670Z"/></g><defs></defs><g stroke-linejoin="bevel" stroke-opacity="0.0" fill-opacity="1.0" stroke="rgb(0,0,0)" stroke-width="0.0" fill="rgb(0,0,0)" stroke-linecap="butt" stroke-miterlimit="10.0"><path d="M 214.1820,570.0000 ZM 214.6022,569.4853 c 0.7563,-0.7563 1.3445,-1.3655 1.3445 -1.3655c 0.5882,-0.6092 0.9874,-1.1292 0.9874 -1.1292c 0.3992,-0.5200 0.6092,-0.9559 0.6092 -0.9559c 0.2101,-0.4359 0.2101,-0.8456 0.2101 -0.8456c 0.0000,-0.5777 -0.3151,-0.9454 -0.3151 -0.9454c -0.3151,-0.3676 -0.9559,-0.3676 -0.9559 -0.3676c -0.4202,-0.0000 -0.7773,0.2363 -0.7773 0.2363c -0.3571,0.2363 -0.6513,0.5725 -0.6513 0.5725l -0.4937,-0.4937 c 0.4202,-0.4622 0.8929,-0.7405 0.8929 -0.7405c 0.4727,-0.2784 1.1345,-0.2784 1.1345 -0.2784c 0.9349,0.0000 1.4706,0.5410 1.4706 0.5410c 0.5357,0.5410 0.5357,1.4338 0.5357 1.4338c 0.0000,0.4727 -0.2048,0.9506 -0.2048 0.9506c -0.2048,0.4779 -0.5672,0.9874 -0.5672 0.9874c -0.3624,0.5095 -0.8613,1.0609 -0.8613 1.0609c -0.4989,0.5515 -1.0977,1.1712 -1.0977 1.1712c 0.2731,-0.0210 0.5672,-0.0420 0.5672 -0.0420c 0.2941,-0.0210 0.5567,-0.0210 0.5567 -0.0210h 1.9433 v 0.7458 h -4.3277 v -0.5147 ZM 219.4026,570.0000 ZM 220.0853,568.6450 c 0.2941,0.3046 0.6985,0.5357 0.6985 0.5357c 0.4044,0.2311 0.9926,0.2311 0.9926 0.2311c 0.3046,0.0000 0.5725,-0.1103 0.5725 -0.1103c 0.2679,-0.1103 0.4674,-0.3099 0.4674 -0.3099c 0.1996,-0.1996 0.3151,-0.4832 0.3151 -0.4832c 0.1155,-0.2836 0.1155,-0.6303 0.1155 -0.6303c 0.0000,-0.6933 -0.3887,-1.0819 -0.3887 -1.0819c -0.3887,-0.3887 -1.0399,-0.3887 -1.0399 -0.3887c -0.3466,-0.0000 -0.5935,0.1050 -0.5935 0.1050c -0.2468,0.1050 -0.5515,0.3046 -0.5515 0.3046l -0.4622,-0.2941 l 0.2206,-3.2248 h 3.3508 v 0.7458 h -2.5945 l -0.1786,1.9853 c 0.2416,-0.1261 0.4832,-0.1996 0.4832 -0.1996c 0.2416,-0.0735 0.5462,-0.0735 0.5462 -0.0735c 0.4307,0.0000 0.8088,0.1261 0.8088 0.1261c 0.3782,0.1261 0.6618,0.3834 0.6618 0.3834c 0.2836,0.2574 0.4464,0.6513 0.4464 0.6513c 0.1628,0.3939 0.1628,0.9401 0.1628 0.9401c 0.0000,0.5462 -0.1891,0.9664 -0.1891 0.9664c -0.1891,0.4202 -0.5042,0.7090 -0.5042 0.7090c -0.3151,0.2889 -0.7195,0.4412 -0.7195 0.4412c -0.4044,0.1523 -0.8456,0.1523 -0.8456 0.1523c -0.3992,-0.0000 -0.7300,-0.0788 -0.7300 -0.0788c -0.3309,-0.0788 -0.5987,-0.2048 -0.5987 -0.2048c -0.2679,-0.1261 -0.4832,-0.2889 -0.4832 -0.2889c -0.2153,-0.1628 -0.3834,-0.3414 -0.3834 -0.3414ZM 224.6232,570.0000 ZM 227.2387,570.1261 c -1.0189,-0.0000 -1.5861,-0.9034 -1.5861 -0.9034c -0.5672,-0.9034 -0.5672,-2.5945 -0.5672 -2.5945c 0.0000,-1.6912 0.5672,-2.5735 0.5672 -2.5735c 0.5672,-0.8824 1.5861,-0.8824 1.5861 -0.8824c 1.0084,0.0000 1.5756,0.8824 1.5756 0.8824c 0.5672,0.8824 0.5672,2.5735 0.5672 2.5735c 0.0000,1.6912 -0.5672,2.5945 -0.5672 2.5945c -0.5672,0.9034 -1.5756,0.9034 -1.5756 0.9034ZM 227.2387,570.1261 ZM 227.2387,569.4328 c 0.2941,0.0000 0.5305,-0.1628 0.5305 -0.1628c 0.2363,-0.1628 0.4097,-0.5042 0.4097 -0.5042c 0.1733,-0.3414 0.2679,-0.8718 0.2679 -0.8718c 0.0945,-0.5305 0.0945,-1.2658 0.0945 -1.2658c 0.0000,-0.7353 -0.0945,-1.2605 -0.0945 -1.2605c -0.0945,-0.5252 -0.2679,-0.8561 -0.2679 -0.8561c -0.1733,-0.3309 -0.4097,-0.4884 -0.4097 -0.4884c -0.2363,-0.1576 -0.5305,-0.1576 -0.5305 -0.1576c -0.2941,-0.0000 -0.5357,0.1576 -0.5357 0.1576c -0.2416,0.1576 -0.4149,0.4884 -0.4149 0.4884c -0.1733,0.3309 -0.2679,0.8561 -0.2679 0.8561c -0.0945,0.5252 -0.0945,1.2605 -0.0945 1.2605c 0.0000,1.4706 0.3624,2.1376 0.3624 2.1376c 0.3624,0.6670 0.9506,0.6670 0.9506 0.6670Z"/></g><defs></defs><g stroke-linejoin="bevel" stroke-opacity="0.0" fill-opacity="1.0" stroke="rgb(0,0,0)" stroke-width="0.0" fill="rgb(0,0,0)" stroke-linecap="butt" stroke-miterlimit="10.0"><path d="M 400.3283,570.0000 ZM 401.0110,568.6450 c 0.2941,0.3046 0.6985,0.5357 0.6985 0.5357c 0.4044,0.2311 0.9926,0.2311 0.9926 0.2311c 0.3046,0.0000 0.5725,-0.1103 0.5725 -0.1103c 0.2679,-0.1103 0.4674,-0.3099 0.4674 -0.3099c 0.1996,-0.1996 0.3151,-0.4832 0.3151 -0.4832c 0.1155,-0.2836 0.1155,-0.6303 0.1155 -0.6303c 0.0000,-0.6933 -0.3887,-1.0819 -0.3887 -1.0819c -0.3887,-0.3887 -1.0399,-0.3887 -1.0399 -0.3887c -0.3466,-0.0000 -0.5935,0.1050 -0.5935 0.1050c -0.2468,0.1050 -0.5515,0.3046 -0.5515 0.3046l -0.4622,-0.2941 l 0.2206,-3.2248 h 3.3508 v 0.7458 h -2.5945 l -0.1786,1.9853 c 0.2416,-0.1261 0.4832,-0.1996 0.4832 -0.1996c 0.2416,-0.0735 0.5462,-0.0735 0.5462 -0.0735c 0.4307,0.0000 0.8088,0.1261 0.8088 0.1261c 0.3782,0.1261 0.6618,0.3834 0.6618 0.3834c 0.2836,0.2574 0.4464,0.6513 0.4464 0.6513c 0.1628,0.3939 0.1628,0.9401 0.1628 0.9401c 0.0000,0.5462 -0.1891,0.9664 -0.1891 0.9664c -0.1891,0.4202 -0.5042,0.7090 -0.5042 0.7090c -0.3151,0.2889 -0.7195,0.4412 -0.7195 0.4412c -0.4044,0.1523 -0.8456,0.1523 -0.8456 0.1523c -0.3992,-0.0000 -0.7300,-0.0788 -0.7300 -0.0788c -0.3309,-0.0788 -0.5987,-0.2048 -0.5987 -0.2048c -0.2679,-0.1261 -0.4832,-0.2889 -0.4832 -0.2889c -0.2153,-0.1628 -0.3834,-0.3414 -0.3834 -0.3414ZM 405.5488,570.0000 ZM 408.1644,570.1261 c -1.0189,-0.0000 -1.5861,-0.9034 -1.5861 -0.9034c -0.5672,-0.9034 -0.5672,-2.5945 -0.5672 -2.5945c 0.0000,-1.6912 0.5672,-2.5735 0.5672 -2.5735c 0.5672,-0.8824 1.5861,-0.8824 1.5861 -0.8824c 1.0084,0.0000 1.5756,0.8824 1.5756 0.8824c 0.5672,0.8824 0.5672,2.5735 0.5672 2.5735c 0.0000,1.6912 -0.5672,2.5945 -0.5672 2.5945c -0.5672,0.9034 -1.5756,0.9034 -1.5756 0.9034ZM 408.1644,570.1261 ZM 408.1644,569.4328 c 0.2941,0.0000 0.5305,-0.1628 0.5305 -0.1628c 0.2363,-0.1628 0.4097,-0.5042 0.4097 -0.5042c 0.1733,-0.3414 0.2679,-0.8718 0.2679 -0.8718c 0.0945,-0.5305 0.0945,-1.2658 0.0945 -1.2658c 0.0000,-0.7353 -0.0945,-1.2605 -0.0945 -1.2605c -0.0945,-0.5252 -0.2679,-0.8561 -0.2679 -0.8561c -0.1733,-0.3309 -0.4097,-0.4884 -0.4097 -0.4884c -0.2363,-0.1576 -0.5305,-0.1576 -0.5305 -0.1576c -0.2941,-0.0000 -0.5357,0.1576 -0.5357 0.1576c -0.2416,0.1576 -0.4149,0.4884 -0.4149 0.4884c -0.1733,0.3309 -0.2679,0.8561 -0.2679 0.8561c -0.0945,0.5252 -0.0945,1.2605 -0.0945 1.2605c 0.0000,1.4706 0.3624,2.1376 0.3624 2.1376c 0.3624,0.6670 0.9506,0.6670 0.9506 0.6670ZM 410.7694,570.0000 ZM 413.3850,570.1261 c -1.0189,-0.0000 -1.5861,-0.9034 -1.5861 -0.9034c -0.5672,-0.9034 -0.5672,-2.5945 -0.5672 -2.5945c 0.0000,-1.6912 0.5672,-2.5735 0.5672 -2.5735c 0.5672,-0.8824 1.5861,-0.8824 1.5861 -0.8824c 1.0084,0.0000 1.5756,0.8824 1.5756 0.8824c 0.5672,0.8824 0.5672,2.5735 0.5672 2.5735c 0.0000,1.6912 -0.5672,2.5945 -0.5672 2.5945c -0.5672,0.9034 -1.5756,0.9034 -1.5756 0.9034ZM 413.3850,570.1261 ZM 413.3850,569.4328 c 0.2941,0.0000 0.5305,-0.1628 0.5305 -0.1628c 0.2363,-0.1628 0.4097,-0.5042 0.4097 -0.5042c 0.1733,-0.3414 0.2679,-0.8718 0.2679 -0.8718c 0.0945,-0.5305 0.0945,-1.2658 0.0945 -1.2658c 0.0000,-0.7353 -0.0945,-1.2605 -0.0945 -1.2605c -0.0945,-0.5252 -0.2679,-0.8561 -0.2679 -0.8561c -0.1733,-0.3309 -0.4097,-0.4884 -0.4097 -0.4884c -0.2363,-0.1576 -0.5305,-0.1576 -0.5305 -0.1576c -0.2941,-0.0000 -0.5357,0.1576 -0.5357 0.1576c -0.2416,0.1576 -0.4149,0.4884 -0.4149 0.4884c -0.1733,0.3309 -0.2679,0.8561 -0.2679 0.8561c -0.0945,0.5252 -0.0945,1.2605 -0.0945 1.2605c 0.0000,1.4706 0.3624,2.1376 0.3624 2.1376c 0.3624,0.6670 0.9506,0.6670 0.9506 0.6670Z"/></g><defs></defs><g stroke-linejoin="bevel" stroke-opacity="0.0" fill-opacity="1.0" stroke="rgb(0,0,0)" stroke-width="0.0" fill="rgb(0,0,0)" stroke-linecap="butt" stroke-miterlimit="10.0"><path d="M 586.6321,570.0000 ZM 588.4913,570.0000 c 0.0420,-0.9454 0.1681,-1.7332 0.1681 -1.7332c 0.1261,-0.7878 0.3519,-1.4968 0.3519 -1.4968c 0.2258,-0.7090 0.5777,-1.3708 0.5777 -1.3708c 0.3519,-0.6618 0.8456,-1.3550 0.8456 -1.3550h -3.3403 v -0.7458 h 4.3172 v 0.5357 c -0.5987,0.7563 -0.9716,1.4496 -0.9716 1.4496c -0.3729,0.6933 -0.5935,1.4128 -0.5935 1.4128c -0.2206,0.7195 -0.3204,1.5231 -0.3204 1.5231c -0.0998,0.8036 -0.1418,1.7805 -0.1418 1.7805h -0.8929 h 0.0000 ZM 591.8527,570.0000 ZM 592.5355,568.6450 c 0.2941,0.3046 0.6985,0.5357 0.6985 0.5357c 0.4044,0.2311 0.9926,0.2311 0.9926 0.2311c 0.3046,0.0000 0.5725,-0.1103 0.5725 -0.1103c 0.2679,-0.1103 0.4674,-0.3099 0.4674 -0.3099c 0.1996,-0.1996 0.3151,-0.4832 0.3151 -0.4832c 0.1155,-0.2836 0.1155,-0.6303 0.1155 -0.6303c 0.0000,-0.6933 -0.3887,-1.0819 -0.3887 -1.0819c -0.3887,-0.3887 -1.0399,-0.3887 -1.0399 -0.3887c -0.3466,-0.0000 -0.5935,0.1050 -0.5935 0.1050c -0.2468,0.1050 -0.5515,0.3046 -0.5515 0.3046l -0.4622,-0.2941 l 0.2206,-3.2248 h 3.3508 v 0.7458 h -2.5945 l -0.1786,1.9853 c 0.2416,-0.1261 0.4832,-0.1996 0.4832 -0.1996c 0.2416,-0.0735 0.5462,-0.0735 0.5462 -0.0735c 0.4307,0.0000 0.8088,0.1261 0.8088 0.1261c 0.3782,0.1261 0.6618,0.3834 0.6618 0.3834c 0.2836,0.2574 0.4464,0.6513 0.4464 0.6513c 0.1628,0.3939 0.1628,0.9401 0.1628 0.9401c 0.0000,0.5462 -0.1891,0.9664 -0.1891 0.9664c -0.1891,0.4202 -0.5042,0.7090 -0.5042 0.7090c -0.3151,0.2889 -0.7195,0.4412 -0.7195 0.4412c -0.4044,0.1523 -0.8456,0.1523 -0.8456 0.1523c -0.3992,-0.0000 -0.7300,-0.0788 -0.7300 -0.0788c -0.3309,-0.0788 -0.5987,-0.2048 -0.5987 -0.2048c -0.2679,-0.1261 -0.4832,-0.2889 -0.4832 -0.2889c -0.2153,-0.1628 -0.3834,-0.3414 -0.3834 -0.3414ZM 597.0733,570.0000 ZM 599.6888,570.1261 c -1.0189,-0.0000 -1.5861,-0.9034 -1.5861 -0.9034c -0.5672,-0.9034 -0.5672,-2.5945 -0.5672 -2.5945c 0.0000,-1.6912 0.5672,-2.5735 0.5672 -2.5735c 0.5672,-0.8824 1.5861,-0.8824 1.5861 -0.8824c 1.0084,0.0000 1.5756,0.8824 1.5756 0.8824c 0.5672,0.8824 0.5672,2.5735 0.5672 2.5735c 0.0000,1.6912 -0.5672,2.5945 -0.5672 2.5945c -0.5672,0.9034 -1.5756,0.9034 -1.5756 0.9034ZM 599.6888,570.1261 ZM 599.6888,569.4328 c 0.2941,0.0000 0.5305,-0.1628 0.5305 -0.1628c 0.2363,-0.1628 0.4097,-0.5042 0.4097 -0.5042c 0.1733,-0.3414 0.2679,-0.8718 0.2679 -0.8718c 0.0945,-0.5305 0.0945,-1.2658 0.0945 -1.2658c 0.0000,-0.7353 -0.0945,-1.2605 -0.0945 -1.2605c -0.0945,-0.5252 -0.2679,-0.8561 -0.2679 -0.8561c -0.1733,-0.3309 -0.4097,-0.4884 -0.4097 -0.4884c -0.2363,-0.1576 -0.5305,-0.1576 -0.5305 -0.1576c -0.2941,-0.0000 -0.5357,0.1576 -0.5357 0.1576c -0.2416,0.1576 -0.4149,0.4884 -0.4149 0.4884c -0.1733,0.3309 -0.2679,0.8561 -0.2679 0.8561c -0.0945,0.5252 -0.0945,1.2605 -0.0945 1.2605c 0.0000,1.4706 0.3624,2.1376 0.3624 2.1376c 0.3624,0.6670 0.9506,0.6670 0.9506 0.6670Z"/></g><defs></defs><g stroke-linejoin="bevel" stroke-opacity="0.0" fill-opacity="1.0" stroke="rgb(0,0,0)" stroke-width="0.0" fill="rgb(0,0,0)" stroke-linecap="butt" stroke-miterlimit="10.0"><path d="M 770.4097,570.0000 ZM 771.2395,569.2857 h 1.5336 v -4.9370 h -1.2185 v -0.5567 c 0.4622,-0.0840 0.8036,-0.2048 0.8036 -0.2048c 0.3414,-0.1208 0.6145,-0.2889 0.6145 -0.2889h 0.6618 v 5.9874 h 1.3866 v 0.7143 h -3.7815 v -0.7143 ZM 775.6303,570.0000 ZM 778.2458,570.1261 c -1.0189,-0.0000 -1.5861,-0.9034 -1.5861 -0.9034c -0.5672,-0.9034 -0.5672,-2.5945 -0.5672 -2.5945c 0.0000,-1.6912 0.5672,-2.5735 0.5672 -2.5735c 0.5672,-0.8824 1.5861,-0.8824 1.5861 -0.8824c 1.0084,0.0000 1.5756,0.8824 1.5756 0.8824c 0.5672,0.8824 0.5672,2.5735 0.5672 2.5735c 0.0000,1.6912 -0.5672,2.5945 -0.5672 2.5945c -0.5672,0.9034 -1.5756,0.9034 -1.5756 0.9034ZM 778.2458,570.1261 ZM 778.2458,569.4328 c 0.2941,0.0000 0.5305,-0.1628 0.5305 -0.1628c 0.2363,-0.1628 0.4097,-0.5042 0.4097 -0.5042c 0.1733,-0.3414 0.2679,-0.8718 0.2679 -0.8718c 0.0945,-0.5305 0.0945,-1.2658 0.0945 -1.2658c 0.0000,-0.7353 -0.0945,-1.2605 -0.0945 -1.2605c -0.0945,-0.5252 -0.2679,-0.8561 -0.2679 -0.8561c -0.1733,-0.3309 -0.4097,-0.4884 -0.4097 -0.4884c -0.2363,-0.1576 -0.5305,-0.1576 -0.5305 -0.1576c -0.2941,-0.0000 -0.5357,0.1576 -0.5357 0.1576c -0.2416,0.1576 -0.4149,0.4884 -0.4149 0.4884c -0.1733,0.3309 -0.2679,0.8561 -0.2679 0.8561c -0.0945,0.5252 -0.0945,1.2605 -0.0945 1.2605c 0.0000,1.4706 0.3624,2.1376 0.3624 2.1376c 0.3624,0.6670 0.9506,0.6670 0.9506 0.6670ZM 780.8508,570.0000 ZM 783.4664,570.1261 c -1.0189,-0.0000 -1.5861,-0.9034 -1.5861 -0.9034c -0.5672,-0.9034 -0.5672,-2.5945 -0.5672 -2.5945c 0.0000,-1.6912 0.5672,-2.5735 0.5672 -2.5735c 0.5672,-0.8824 1.5861,-0.8824 1.5861 -0.8824c 1.0084,0.0000 1.5756,0.8824 1.5756 0.8824c 0.5672,0.8824 0.5672,2.5735 0.5672 2.5735c 0.0000,1.6912 -0.5672,2.5945 -0.5672 2.5945c -0.5672,0.9034 -1.5756,0.9034 -1.5756 0.9034ZM 783.4664,570.1261 ZM 783.4664,569.4328 c 0.2941,0.0000 0.5305,-0.1628 0.5305 -0.1628c 0.2363,-0.1628 0.4097,-0.5042 0.4097 -0.5042c 0.1733,-0.3414 0.2679,-0.8718 0.2679 -0.8718c 0.0945,-0.5305 0.0945,-1.2658 0.0945 -1.2658c 0.0000,-0.7353 -0.0945,-1.2605 -0.0945 -1.2605c -0.0945,-0.5252 -0.2679,-0.8561 -0.2679 -0.8561c -0.1733,-0.3309 -0.4097,-0.4884 -0.4097 -0.4884c -0.2363,-0.1576 -0.5305,-0.1576 -0.5305 -0.1576c -0.2941,-0.0000 -0.5357,0.1576 -0.5357 0.1576c -0.2416,0.1576 -0.4149,0.4884 -0.4149 0.4884c -0.1733,0.3309 -0.2679,0.8561 -0.2679 0.8561c -0.0945,0.5252 -0.0945,1.2605 -0.0945 1.2605c 0.0000,1.4706 0.3624,2.1376 0.3624 2.1376c 0.3624,0.6670 0.9506,0.6670 0.9506 0.6670ZM 786.0714,570.0000 ZM 788.6870,570.1261 c -1.0189,-0.0000 -1.5861,-0.9034 -1.5861 -0.9034c -0.5672,-0.9034 -0.5672,-2.5945 -0.5672 -2.5945c 0.0000,-1.6912 0.5672,-2.5735 0.5672 -2.5735c 0.5672,-0.8824 1.5861,-0.8824 1.5861 -0.8824c 1.0084,0.0000 1.5756,0.8824 1.5756 0.8824c 0.5672,0.8824 0.5672,2.5735 0.5672 2.5735c 0.0000,1.6912 -0.5672,2.5945 -0.5672 2.5945c -0.5672,0.9034 -1.5756,0.9034 -1.5756 0.9034ZM 788.6870,570.1261 ZM 788.6870,569.4328 c 0.2941,0.0000 0.5305,-0.1628 0.5305 -0.1628c 0.2363,-0.1628 0.4097,-0.5042 0.4097 -0.5042c 0.1733,-0.3414 0.2679,-0.8718 0.2679 -0.8718c 0.0945,-0.5305 0.0945,-1.2658 0.0945 -1.2658c 0.0000,-0.7353 -0.0945,-1.2605 -0.0945 -1.2605c -0.0945,-0.5252 -0.2679,-0.8561 -0.2679 -0.8561c -0.1733,-0.3309 -0.4097,-0.4884 -0.4097 -0.4884c -0.2363,-0.1576 -0.5305,-0.1576 -0.5305 -0.1576c -0.2941,-0.0000 -0.5357,0.1576 -0.5357 0.1576c -0.2416,0.1576 -0.4149,0.4884 -0.4149 0.4884c -0.1733,0.3309 -0.2679,0.8561 -0.2679 0.8561c -0.0945,0.5252 -0.0945,1.2605 -0.0945 1.2605c 0.0000,1.4706 0.3624,2.1376 0.3624 2.1376c 0.3624,0.6670 0.9506,0.6670 0.9506 0.6670Z"/></g><defs></defs><g stroke-linejoin="round" stroke-opacity="1.0" fill-opacity="0.0" stroke="rgb(0,0,255)" stroke-width="0.9999999999999997" fill="rgb(0,0,0)" stroke-linecap="round" stroke-miterlimit="10.0"><path d="M 10.0000,585.0000 h 20.0000 "/></g><defs></defs><g stroke-linejoin="bevel" stroke-opacity="0.0" fill-opacity="1.0" stroke="rgb(0,0,0)" stroke-width="0.0" fill="rgb(0,0,0)" stroke-linecap="butt" stroke-miterlimit="10.0"><path d="M 35.0735,586.6071 ZM 38.9496,583.8025 l -0.3256,-1.0504 c -0.1891,-0.5777 -0.3571,-1.1502 -0.3571 -1.1502c -0.1681,-0.5725 -0.3361,-1.1712 -0.3361 -1.1712h -0.0420 c -0.1576,0.5987 -0.3256,1.1712 -0.3256 1.1712c -0.1681,0.5725 -0.3571,1.1502 -0.3571 1.1502l -0.3256,1.0504 h 2.0693 ZM 38.9496,583.8025 ZM 39.1702,584.5063 h -2.5105 l -0.6618,2.1008 h -0.8929 l 2.3319,-6.8908 h 0.9874 l 2.3319,6.8908 h -0.9349 ZM 40.7878,586.6071 ZM 41.7332,579.7164 h 1.7227 c 1.5966,0.0000 2.4265,0.8824 2.4265 0.8824c 0.8298,0.8824 0.8298,2.5315 0.8298 2.5315c 0.0000,0.8193 -0.2101,1.4653 -0.2101 1.4653c -0.2101,0.6460 -0.6197,1.0924 -0.6197 1.0924c -0.4097,0.4464 -1.0084,0.6828 -1.0084 0.6828c -0.5987,0.2363 -1.3761,0.2363 -1.3761 0.2363h -1.7647 v -6.8908 ZM 41.7332,579.7164 ZM 43.3929,585.8929 c 1.2080,0.0000 1.8120,-0.7248 1.8120 -0.7248c 0.6040,-0.7248 0.6040,-2.0378 0.6040 -2.0378c 0.0000,-1.3130 -0.6040,-2.0063 -0.6040 -2.0063c -0.6040,-0.6933 -1.8120,-0.6933 -1.8120 -0.6933h -0.7878 v 5.4622 h 0.7878 ZM 47.2479,586.6071 ZM 48.1933,579.7164 h 3.9706 v 0.7353 h -3.0987 v 2.1639 h 2.6155 v 0.7458 h -2.6155 v 2.5000 h 3.2038 v 0.7458 h -4.0756 v -6.8908 ZM 52.7836,586.6071 ZM 52.7836,579.7164 h 0.9349 l 1.1029,3.7185 c 0.1891,0.6197 0.3309,1.1450 0.3309 1.1450c 0.1418,0.5252 0.3414,1.1345 0.3414 1.1345h 0.0420 c 0.1891,-0.6092 0.3361,-1.1345 0.3361 -1.1345c 0.1471,-0.5252 0.3256,-1.1450 0.3256 -1.1450l 1.1029,-3.7185 h 0.8929 l -2.1849,6.8908 h -1.0189 Z"/></g></svg>