<?xml version="1.0" encoding="UTF-8"?>
<!DOCTYPE svg PUBLIC "-//W3C//DTD SVG 1.1//EN"
    "http://www.w3.org/Graphics/SVG/1.1/DTD/svg11.dtd"><svg xmlns="http://www.w3.org/2000/svg" height="600.0000" stroke-opacity="1" viewBox="0 0 800 600" font-size="1" width="800.0000" xmlns:xlink="http://www.w3.org/1999/xlink" stroke="rgb(0,0,0)" version="1.1"><defs></defs><defs></defs><g stroke-linejoin="bevel" stroke-opacity="0.0" fill-opacity="1.0" stroke="rgb(0,0,0)" stroke-width="0.0" fill="rgb(255,255,255)" stroke-linecap="butt" stroke-miterlimit="10.0"><path d="M 0.0000,0.0000 v 600.0000 h 800.0000 v -600.0000 Z"/></g><defs></defs><g stroke-linejoin="miter" stroke-opacity="1.0" fill-opacity="0.0" stroke="rgb(211,211,211)" stroke-width="0.9999999999999997" fill="rgb(0,0,0)" stroke-dashoffset="0.0" stroke-linecap="butt" stroke-miterlimit="10.0" stroke-dasharray="4.999999999999998,4.999999999999998"><path d="M 32.8151,15.0000 v 535.0000 "/></g><defs></defs><g stroke-linejoin="miter" stroke-opacity="1.0" fill-opacity="0.0" stroke="rgb(211,211,211)" stroke-width="0.9999999999999997" fill="rgb(0,0,0)" stroke-dashoffset="0.0" stroke-linecap="butt" stroke-miterlimit="10.0" stroke-dasharray="4.999999999999998,4.999999999999998"><path d="M 219.6626,15.0000 v 535.0000 "/></g><defs></defs><g stroke-linejoin="miter" stroke-opacity="1.0" fill-opacity="0.0" stroke="rgb(211,211,211)" stroke-width="0.9999999999999997" fill="rgb(0,0,0)" stroke-dashoffset="0.0" stroke-linecap="butt" stroke-miterlimit="10.0" stroke-dasharray="4.999999999999998,4.999999999999998"><path d="M 406.5100,15.0000 v 535.0000 "/></g><defs></defs><g stroke-linejoin="miter" stroke-opacity="1.0" fill-opacity="0.0" stroke="rgb(211,211,211)" stroke-width="0.9999999999999997" fill="rgb(0,0,0)" stroke-dashoffset="0.0" stroke-linecap="butt" stroke-miterlimit="10.0" stroke-dasharray="4.999999999999998,4.999999999999998"><path d="M 593.3574,15.0000 v 535.0000 "/></g><defs></defs><g stroke-linejoin="miter" stroke-opacity="1.0" fill-opacity="0.0" stroke="rgb(211,211,211)" stroke-width="0.9999999999999997" fill="rgb(0,0,0)" stroke-dashoffset="0.0" stroke-linecap="butt" stroke-miterlimit="10.0" stroke-dasharray="4.999999999999998,4.999999999999998"><path d="M 780.2048,15.0000 v 535.0000 "/></g><defs></defs><g stroke-linejoin="miter" stroke-opacity="1.0" fill-opacity="0.0" stroke="rgb(211,211,211)" stroke-width="0.9999999999999997" fill="rgb(0,0,0)" stroke-dashoffset="0.0" stroke-linecap="butt" stroke-miterlimit="10.0" stroke-dasharray="4.999999999999998,4.999999999999998"><path d="M 32.8151,550.0000 h 747.3897 "/></g><defs></defs><g stroke-linejoin="miter" stroke-opacity="1.0" fill-opacity="0.0" stroke="rgb(211,211,211)" stroke-width="0.9999999999999997" fill="rgb(0,0,0)" stroke-dashoffset="0.0" stroke-linecap="butt" stroke-miterlimit="10.0" stroke-dasharray="4.999999999999998,4.999999999999998"><path d="M 32.8151,473.5714 h 747.3897 "/></g><defs></defs><g stroke-linejoin="miter" stroke-opacity="1.0" fill-opacity="0.0" stroke="rgb(211,211,211)" stroke-width="0.9999999999999997" fill="rgb(0,0,0)" stroke-dashoffset="0.0" stroke-linecap="butt" stroke-miterlimit="10.0" stroke-dasharray="4.999999999999998,4.999999999999998"><path d="M 32.8151,397.1429 h 747.3897 "/></g><defs></defs><g stroke-linejoin="miter" stroke-opacity="1.0" fill-opacity="0.0" stroke="rgb(211,211,211)" stroke-width="0.9999999999999997" fill="rgb(0,0,0)" stroke-dashoffset="0.0" stroke-linecap="butt" stroke-miterlimit="10.0" stroke-dasharray="4.999999999999998,4.999999999999998"><path d="M 32.8151,320.7143 h 747.3897 "/></g><defs></defs><g stroke-linejoin="miter" stroke-opacity="1.0" fill-opacity="0.0" stroke="rgb(211,211,211)" stroke-width="0.9999999999999997" fill="rgb(0,0,0)" stroke-dashoffset="0.0" stroke-linecap="butt" stroke-miterlimit="10.0" stroke-dasharray="4.999999999999998,4.999999999999998"><path d="M 32.8151,244.2857 h 747.3897 "/></g><defs></defs><g stroke-linejoin="miter" stroke-opacity="1.0" fill-opacity="0.0" stroke="rgb(211,211,211)" stroke-width="0.9999999999999997" fill="rgb(0,0,0)" stroke-dashoffset="0.0" stroke-linecap="butt" stroke-miterlimit="10.0" stroke-dasharray="4.999999999999998,4.999999999999998"><path d="M 32.8151,167.8571 h 747.3897 "/></g><defs></defs><g stroke-linejoin="miter" stroke-opacity="1.0" fill-opacity="0.0" stroke="rgb(211,211,211)" stroke-width="0.9999999999999997" fill="rgb(0,0,0)" stroke-dashoffset="0.0" stroke-linecap="butt" stroke-miterlimit="10.0" stroke-dasharray="4.999999999999998,4.999999999999998"><path d="M 32.8151,91.4286 h 747.3897 "/></g><defs></defs><g stroke-linejoin="miter" stroke-opacity="1.0" fill-opacity="0.0" stroke="rgb(211,211,211)" stroke-width="0.9999999999999997" fill="rgb(0,0,0)" stroke-dashoffset="0.0" stroke-linecap="butt" stroke-miterlimit="10.0" stroke-dasharray="4.999999999999998,4.999999999999998"><path d="M 32.8151,15.0000 h 747.3897 "/></g><defs></defs><g stroke-linejoin="round" stroke-opacity="1.0" fill-opacity="0.0" stroke="rgb(0,0,255)" stroke-width="0.9999999999999997" fill="rgb(0,0,0)" stroke-linecap="round" stroke-miterlimit="10.0"><defs><clipPath id="myClip1"><path d="M 32.8151,15.0000 v 535.0000 h 747.3897 v -535.0000 Z"/></clipPath></defs><g clip-path="url(#myClip1)"><path d="M 33.5625,167.8571 l 0.7474,-2.1916 l 0.7474,-6.3348 l 0.7474,-6.4178 l 0.7474,-10.0890 l 0.7474,-6.9160 l 0.7474,-7.8487 l 0.7474,-1.0680 l 0.7474,-8.8145 l 0.7474,-12.5176 l 0.7474,-8.6198 l 0.7474,3.4237 l 0.7474,5.9718 l 0.7474,1.4618 l 0.7474,-13.0645 l 0.7474,2.7729 l 0.7474,-4.2883 l 0.7474,0.6502 l 0.7474,8.7546 l 0.7474,4.1117 l 0.7474,-5.7483 l 0.7474,-4.9336 l 0.7474,6.7290 l 0.7474,-9.8884 l 0.7474,2.2836 l 0.7474,2.0510 l 0.7474,12.5012 l 0.7474,1.1810 l 0.7474,-4.9788 l 0.7474,-3.3888 l 0.7474,3.2495 l 0.7474,-7.5501 l 0.7474,1.1003 l 0.7474,-5.6794 l 0.7474,3.3584 l 0.7474,-0.6632 l 0.7474,-0.0386 l 0.7474,20.5824 l 0.7474,-4.0361 l 0.7474,6.8418 l 0.7474,4.1368 l 0.7474,1.4131 l 0.7474,0.0645 l 0.7474,-7.5076 l 0.7474,-1.4007 l 0.7474,-2.3734 l 0.7474,-1.0490 l 0.7474,-21.5922 l 0.7474,7.5392 l 0.7474,-1.4842 l 0.7474,-1.5114 l 0.7474,-2.2210 l 0.7474,5.3476 l 0.7474,6.0811 l 0.7474,-5.9324 l 0.7474,0.7933 l 0.7474,-0.0568 l 0.7474,1.5144 l 0.7474,7.8531 l 0.7474,-12.9955 l 0.7474,-3.7638 l 0.7474,-11.7653 l 0.7474,-0.7305 l 0.7474,-17.4215 l 0.7474,15.1385 l 0.7474,11.3193 l 0.7474,-1.9272 l 0.7474,4.9458 l 0.7474,-14.4013 l 0.7474,-13.8713 l 0.7474,4.8908 l 0.7474,-7.5028 l 0.7474,6.9839 l 0.7474,1.0374 l 0.7474,8.1158 l 0.7474,-11.2043 l 0.7474,-3.3683 l 0.7474,-0.7173 l 0.7474,2.6551 l 0.7474,-0.0353 l 0.7474,8.8003 l 0.7474,-11.1181 l 0.7474,-0.2905 l 0.7474,5.9025 l 0.7474,2.7067 l 0.7474,-1.5910 l 0.7474,-1.3951 l 0.7474,12.9484 l 0.7474,1.9914 l 0.7474,1.9839 l 0.7474,8.3116 l 0.7474,19.7209 l 0.7474,0.9544 l 0.7474,2.0072 l 0.7474,5.8365 l 0.7474,-0.2523 l 0.7474,-12.3729 l 0.7474,2.6224 l 0.7474,0.2046 l 0.7474,0.2768 l 0.7474,5.3356 l 0.7474,-9.0941 l 0.7474,9.0293 l 0.7474,-14.7600 l 0.7474,5.1211 l 0.7474,18.5764 l 0.7474,9.4667 l 0.7474,2.4565 l 0.7474,-9.2835 l 0.7474,-5.8946 l 0.7474,3.7234 l 0.7474,-13.0896 l 0.7474,3.3126 l 0.7474,19.9496 l 0.7474,10.4353 l 0.7474,-11.9365 l 0.7474,0.0431 l 0.7474,26.7765 l 0.7474,-0.0891 l 0.7474,-3.3182 l 0.7474,6.3398 l 0.7474,8.9402 l 0.7474,0.4226 l 0.7474,-2.7742 l 0.7474,4.0344 l 0.7474,-12.9347 l 0.7474,2.3803 l 0.7474,-14.8443 l 0.7474,4.0486 l 0.7474,11.2078 l 0.7474,-9.7332 l 0.7474,9.7804 l 0.7474,-1.8391 l 0.7474,-2.5882 l 0.7474,6.2674 l 0.7474,5.6823 l 0.7474,-0.9300 l 0.7474,11.9801 l 0.7474,14.6619 l 0.7474,7.0046 l 0.7474,-3.6534 l 0.7474,-3.8897 l 0.7474,4.8080 l 0.7474,6.3469 l 0.7474,-1.5128 l 0.7474,-4.2348 l 0.7474,5.0942 l 0.7474,-8.5788 l 0.7474,-2.6632 l 0.7474,22.2885 l 0.7474,13.2379 l 0.7474,9.7174 l 0.7474,0.6759 l 0.7474,18.2574 l 0.7474,13.5589 l 0.7474,-3.4030 l 0.7474,1.9194 l 0.7474,21.7451 l 0.7474,8.5374 l 0.7474,4.1029 l 0.7474,-17.9210 l 0.7474,-6.0674 l 0.7474,2.8630 l 0.7474,9.2945 l 0.7474,0.6140 l 0.7474,-2.9452 l 0.7474,5.3176 l 0.7474,1.0004 l 0.7474,-5.9551 l 0.7474,11.1614 l 0.7474,-3.2581 l 0.7474,5.3794 l 0.7474,3.0674 l 0.7474,1.5475 l 0.7474,16.2290 l 0.7474,-17.8702 l 0.7474,-7.5122 l 0.7474,-6.7128 l 0.7474,-1.0357 l 0.7474,3.8474 l 0.7474,7.2963 l 0.7474,-3.9189 l 0.7474,14.5777 l 0.7474,2.2529 l 0.7474,1.1066 l 0.7474,12.9643 l 0.7474,-14.4549 l 0.7474,1.7088 l 0.7474,-0.3424 l 0.7474,3.1853 l 0.7474,-9.7400 l 0.7474,10.9107 l 0.7474,-4.2471 l 0.7474,-1.1539 l 0.7474,-14.7615 l 0.7474,2.0063 l 0.7474,-3.4318 l 0.7474,12.4361 l 0.7474,5.7951 l 0.7474,8.8924 l 0.7474,-0.4080 l 0.7474,-3.6938 l 0.7474,-16.1526 l 0.7474,-3.4418 l 0.7474,-4.0715 l 0.7474,5.7630 l 0.7474,-5.8055 l 0.7474,-0.5402 l 0.7474,-10.9787 l 0.7474,-0.3506 l 0.7474,16.5638 l 0.7474,14.4334 l 0.7474,4.6577 l 0.7474,1.6497 l 0.7474,-12.3197 l 0.7474,2.4114 l 0.7474,13.8067 l 0.7474,-2.3328 l 0.7474,-0.1515 l 0.7474,12.6509 l 0.7474,-12.6089 l 0.7474,1.2777 l 0.7474,5.3184 l 0.7474,-10.0327 l 0.7474,-5.0715 l 0.7474,-7.8761 l 0.7474,-10.3131 l 0.7474,3.8330 l 0.7474,3.0410 l 0.7474,0.6077 l 0.7474,5.9098 l 0.7474,11.6207 l 0.7474,-7.6380 l 0.7474,-0.4714 l 0.7474,2.1523 l 0.7474,2.1479 l 0.7474,-2.0235 l 0.7474,12.6214 l 0.7474,-5.7053 l 0.7474,-4.8225 l 0.7474,5.2170 l 0.7474,10.8211 l 0.7474,3.3627 l 0.7474,2.9434 l 0.7474,-4.6357 l 0.7474,5.3936 l 0.7474,-1.3651 l 0.7474,1.1615 l 0.7474,-2.7251 l 0.7474,-7.1678 l 0.7474,0.0649 l 0.7474,23.4313 l 0.7474,20.7647 l 0.7474,-1.6020 l 0.7474,-12.2122 l 0.7474,-5.2241 l 0.7474,2.3647 l 0.7474,-3.3386 l 0.7474,-6.1874 l 0.7474,-6.1885 l 0.7474,13.0564 l 0.7474,-5.8256 l 0.7474,-19.3382 l 0.7474,8.6763 l 0.7474,8.4311 l 0.7474,-14.2208 l 0.7474,9.4743 l 0.7474,3.0991 l 0.7474,-3.6452 l 0.7474,-9.8892 l 0.7474,-6.2040 l 0.7474,-3.6240 l 0.7474,6.1350 l 0.7474,21.7165 l 0.7474,3.7011 l 0.7474,-0.6733 l 0.7474,19.2862 l 0.7474,-6.6224 l 0.7474,7.6878 l 0.7474,13.0588 l 0.7474,10.7130 l 0.7474,-3.5092 l 0.7474,16.9001 l 0.7474,7.2126 l 0.7474,-11.9870 l 0.7474,-19.4892 l 0.7474,-4.4261 l 0.7474,1.1051 l 0.7474,10.2840 l 0.7474,-7.3412 l 0.7474,7.2651 l 0.7474,-4.5362 l 0.7474,-4.9105 l 0.7474,-4.5455 l 0.7474,4.3014 l 0.7474,-8.3598 l 0.7474,-1.3729 l 0.7474,15.5122 l 0.7474,6.0547 l 0.7474,1.4418 l 0.7474,4.9011 l 0.7474,17.6480 l 0.7474,-7.5420 l 0.7474,-10.0411 l 0.7474,-4.4234 l 0.7474,4.7007 l 0.7474,-7.8846 l 0.7474,-2.6215 l 0.7474,3.9987 l 0.7474,9.3649 l 0.7474,-8.1241 l 0.7474,0.4163 l 0.7474,10.0598 l 0.7474,21.7176 l 0.7474,-1.0796 l 0.7474,-18.6663 l 0.7474,1.3517 l 0.7474,-1.8482 l 0.7474,10.9253 l 0.7474,-2.0452 l 0.7474,19.3640 l 0.7474,-3.9111 l 0.7474,-4.4191 l 0.7474,-9.0711 l 0.7474,3.7960 l 0.7474,-9.8116 l 0.7474,-14.8072 l 0.7474,-14.9971 l 0.7474,-1.2690 l 0.7474,-20.7514 l 0.7474,3.3547 l 0.7474,10.0361 l 0.7474,-6.0203 l 0.7474,-5.2193 l 0.7474,0.8199 l 0.7474,3.2102 l 0.7474,10.5040 l 0.7474,11.3240 l 0.7474,-0.3003 l 0.7474,-3.3369 l 0.7474,18.0333 l 0.7474,0.2455 l 0.7474,1.3236 l 0.7474,4.8834 l 0.7474,-14.7491 l 0.7474,18.2323 l 0.7474,-8.3208 l 0.7474,11.6825 l 0.7474,-0.0957 l 0.7474,-9.6897 l 0.7474,-9.6396 l 0.7474,-4.4876 l 0.7474,2.5074 l 0.7474,1.1102 l 0.7474,4.5637 l 0.7474,5.9366 l 0.7474,6.4845 l 0.7474,-5.0900 l 0.7474,-9.1424 l 0.7474,4.0945 l 0.7474,-7.4280 l 0.7474,-16.6533 l 0.7474,-10.3703 l 0.7474,-6.1507 l 0.7474,12.7320 l 0.7474,5.5466 l 0.7474,13.6993 l 0.7474,-8.2581 l 0.7474,-3.5234 l 0.7474,9.8376 l 0.7474,-0.1166 l 0.7474,-10.0407 l 0.7474,3.2077 l 0.7474,-0.7798 l 0.7474,-1.3979 l 0.7474,-7.9181 l 0.7474,-13.4066 l 0.7474,8.0646 l 0.7474,-15.9949 l 0.7474,18.3690 l 0.7474,-0.8843 l 0.7474,-5.1109 l 0.7474,19.3198 l 0.7474,-10.7584 l 0.7474,-4.6890 l 0.7474,-19.0477 l 0.7474,8.4936 l 0.7474,3.4880 l 0.7474,-9.3301 l 0.7474,8.7547 l 0.7474,-14.5563 l 0.7474,17.0762 l 0.7474,-0.8586 l 0.7474,1.7114 l 0.7474,-7.0159 l 0.7474,9.7670 l 0.7474,-0.8189 l 0.7474,9.6836 l 0.7474,-8.1459 l 0.7474,4.0984 l 0.7474,-2.9463 l 0.7474,-15.0693 l 0.7474,-13.5128 l 0.7474,3.1771 l 0.7474,14.3111 l 0.7474,18.1717 l 0.7474,8.0871 l 0.7474,3.3265 l 0.7474,-8.7173 l 0.7474,1.7033 l 0.7474,-11.6642 l 0.7474,6.7821 l 0.7474,-9.0994 l 0.7474,-4.0913 l 0.7474,-4.4350 l 0.7474,-11.8763 l 0.7474,9.8535 l 0.7474,19.5207 l 0.7474,-18.7994 l 0.7474,14.0748 l 0.7474,0.1768 l 0.7474,3.7908 l 0.7474,-8.8287 l 0.7474,7.7159 l 0.7474,-2.8747 l 0.7474,12.6601 l 0.7474,-17.3887 l 0.7474,-0.7094 l 0.7474,11.6355 l 0.7474,-7.0818 l 0.7474,-13.6895 l 0.7474,-5.2153 l 0.7474,-2.4868 l 0.7474,-0.5358 l 0.7474,-6.6072 l 0.7474,4.5533 l 0.7474,3.5487 l 0.7474,1.6407 l 0.7474,4.2924 l 0.7474,-5.8485 l 0.7474,-3.0842 l 0.7474,5.6822 l 0.7474,-6.7947 l 0.7474,6.8631 l 0.7474,-0.6010 l 0.7474,6.4889 l 0.7474,-0.9779 l 0.7474,-1.7061 l 0.7474,5.6755 l 0.7474,0.3324 l 0.7474,-8.2369 l 0.7474,-13.1584 l 0.7474,-2.4200 l 0.7474,-8.4099 l 0.7474,3.6455 l 0.7474,-3.8221 l 0.7474,-2.2973 l 0.7474,5.6534 l 0.7474,1.1110 l 0.7474,-0.6548 l 0.7474,-2.5049 l 0.7474,12.6985 l 0.7474,10.3766 l 0.7474,13.4124 l 0.7474,-12.7613 l 0.7474,5.6801 l 0.7474,3.3880 l 0.7474,-18.0546 l 0.7474,-9.2587 l 0.7474,-2.4077 l 0.7474,-3.5473 l 0.7474,-4.7806 l 0.7474,-5.1952 l 0.7474,2.0759 l 0.7474,6.6554 l 0.7474,-1.0000 l 0.7474,11.0209 l 0.7474,-0.2185 l 0.7474,-4.5373 l 0.7474,11.8446 l 0.7474,9.9538 l 0.7474,5.3036 l 0.7474,4.2693 l 0.7474,1.5131 l 0.7474,1.3645 l 0.7474,4.8074 l 0.7474,2.8865 l 0.7474,5.4516 l 0.7474,-15.1871 l 0.7474,-4.3266 l 0.7474,-5.2656 l 0.7474,-1.6210 l 0.7474,-0.5420 l 0.7474,10.6953 l 0.7474,-23.6939 l 0.7474,-2.6851 l 0.7474,-0.7402 l 0.7474,-12.5748 l 0.7474,4.0074 l 0.7474,-19.4285 l 0.7474,1.9915 l 0.7474,14.5263 l 0.7474,-2.3315 l 0.7474,8.7784 l 0.7474,-11.7509 l 0.7474,-0.0875 l 0.7474,-5.2629 l 0.7474,7.3713 l 0.7474,6.7931 l 0.7474,1.2350 l 0.7474,-1.2809 l 0.7474,-3.6454 l 0.7474,-5.9147 l 0.7474,-7.6901 l 0.7474,2.3120 l 0.7474,10.5102 l 0.7474,2.4491 l 0.7474,9.6157 l 0.7474,0.0386 l 0.7474,1.9824 l 0.7474,4.4292 l 0.7474,-9.9766 l 0.7474,-7.0386 l 0.7474,-9.4592 l 0.7474,2.4514 l 0.7474,16.2687 l 0.7474,-0.0546 l 0.7474,-1.6895 l 0.7474,16.0347 l 0.7474,-19.5743 l 0.7474,3.8571 l 0.7474,7.1615 l 0.7474,-0.7951 l 0.7474,-2.2782 l 0.7474,-1.2947 l 0.7474,23.2704 l 0.7474,5.1472 l 0.7474,4.3575 l 0.7474,5.1343 l 0.7474,22.3714 l 0.7474,3.8231 l 0.7474,4.7675 l 0.7474,0.4943 l 0.7474,-12.8693 l 0.7474,1.3706 l 0.7474,-3.2992 l 0.7474,-14.4909 l 0.7474,0.9611 l 0.7474,-6.2783 l 0.7474,-3.7212 l 0.7474,6.5924 l 0.7474,0.5591 l 0.7474,-17.0768 l 0.7474,16.6000 l 0.7474,12.5309 l 0.7474,10.1728 l 0.7474,-4.1867 l 0.7474,-1.5914 l 0.7474,-9.5425 l 0.7474,8.7581 l 0.7474,-4.2831 l 0.7474,-3.3490 l 0.7474,25.5966 l 0.7474,-1.8390 l 0.7474,-1.1082 l 0.7474,0.5128 l 0.7474,-14.4122 l 0.7474,4.0648 l 0.7474,-15.2228 l 0.7474,-5.7737 l 0.7474,-1.6150 l 0.7474,4.3205 l 0.7474,-0.8120 l 0.7474,5.1238 l 0.7474,-0.6611 l 0.7474,-4.6958 l 0.7474,-4.4246 l 0.7474,-7.4182 l 0.7474,5.0862 l 0.7474,-1.5247 l 0.7474,4.9745 l 0.7474,4.0719 l 0.7474,11.0980 l 0.7474,7.1847 l 0.7474,-2.0512 l 0.7474,-1.3919 l 0.7474,-2.4596 l 0.7474,-0.1011 l 0.7474,6.1132 l 0.7474,7.7022 l 0.7474,-9.8129 l 0.7474,-3.7857 l 0.7474,9.3496 l 0.7474,11.2330 l 0.7474,6.6088 l 0.7474,-0.0139 l 0.7474,-19.9183 l 0.7474,6.8548 l 0.7474,-3.3710 l 0.7474,-13.3658 l 0.7474,4.5153 l 0.7474,7.5874 l 0.7474,2.5963 l 0.7474,2.1046 l 0.7474,-13.6352 l 0.7474,3.4887 l 0.7474,-2.6339 l 0.7474,2.8695 l 0.7474,-8.4530 l 0.7474,2.9915 l 0.7474,0.9190 l 0.7474,-2.5519 l 0.7474,-9.5750 l 0.7474,-8.8276 l 0.7474,18.3084 l 0.7474,13.4500 l 0.7474,-2.5087 l 0.7474,-0.5316 l 0.7474,15.6741 l 0.7474,-11.5943 l 0.7474,6.1157 l 0.7474,-8.2801 l 0.7474,-6.1740 l 0.7474,4.0381 l 0.7474,9.7916 l 0.7474,-5.7501 l 0.7474,10.2279 l 0.7474,-6.9140 l 0.7474,5.6503 l 0.7474,1.9359 l 0.7474,2.0726 l 0.7474,8.2995 l 0.7474,-2.6033 l 0.7474,6.0301 l 0.7474,-7.2932 l 0.7474,-9.3339 l 0.7474,0.5863 l 0.7474,15.3795 l 0.7474,3.2069 l 0.7474,14.8454 l 0.7474,-17.3107 l 0.7474,10.2101 l 0.7474,-1.8282 l 0.7474,-13.6563 l 0.7474,8.1943 l 0.7474,-10.4186 l 0.7474,2.1915 l 0.7474,-10.2045 l 0.7474,4.4525 l 0.7474,3.3366 l 0.7474,-8.0435 l 0.7474,12.4816 l 0.7474,-15.0529 l 0.7474,0.0800 l 0.7474,1.8310 l 0.7474,-12.4875 l 0.7474,4.2958 l 0.7474,-12.5866 l 0.7474,-9.0887 l 0.7474,-6.2853 l 0.7474,0.8918 l 0.7474,9.0355 l 0.7474,8.1651 l 0.7474,3.7340 l 0.7474,-9.4963 l 0.7474,-12.7708 l 0.7474,-0.6980 l 0.7474,-13.2992 l 0.7474,-3.6422 l 0.7474,-1.4562 l 0.7474,2.1052 l 0.7474,1.8625 l 0.7474,12.0507 l 0.7474,13.8362 l 0.7474,11.1620 l 0.7474,-5.0496 l 0.7474,-8.4313 l 0.7474,5.5351 l 0.7474,17.2696 l 0.7474,0.9489 l 0.7474,-6.9612 l 0.7474,-6.6226 l 0.7474,7.4621 l 0.7474,6.0234 l 0.7474,13.5726 l 0.7474,16.1680 l 0.7474,-2.8375 l 0.7474,6.3477 l 0.7474,8.9793 l 0.7474,-2.9469 l 0.7474,-17.9816 l 0.7474,10.1783 l 0.7474,5.8975 l 0.7474,1.7496 l 0.7474,5.5089 l 0.7474,5.6963 l 0.7474,7.5895 l 0.7474,3.9020 l 0.7474,-15.1341 l 0.7474,5.4235 l 0.7474,1.0863 l 0.7474,-11.0427 l 0.7474,-2.1518 l 0.7474,8.2663 l 0.7474,-3.6874 l 0.7474,1.2963 l 0.7474,3.7932 l 0.7474,10.4297 l 0.7474,-11.7495 l 0.7474,9.9424 l 0.7474,-5.1311 l 0.7474,-20.6857 l 0.7474,-10.3224 l 0.7474,-10.1416 l 0.7474,-3.8933 l 0.7474,0.8988 l 0.7474,-6.3002 l 0.7474,10.0507 l 0.7474,-7.0483 l 0.7474,-3.8988 l 0.7474,4.5984 l 0.7474,4.5000 l 0.7474,5.7178 l 0.7474,7.8481 l 0.7474,-5.7550 l 0.7474,-1.0013 l 0.7474,2.9891 l 0.7474,13.8472 l 0.7474,-6.2498 l 0.7474,-9.3944 l 0.7474,-9.2379 l 0.7474,-2.4407 l 0.7474,13.2627 l 0.7474,13.0679 l 0.7474,-6.9337 l 0.7474,7.4498 l 0.7474,2.5278 l 0.7474,12.1216 l 0.7474,9.6635 l 0.7474,-1.8743 l 0.7474,2.0706 l 0.7474,4.6994 l 0.7474,9.4355 l 0.7474,-15.7707 l 0.7474,-7.2334 l 0.7474,-1.0441 l 0.7474,-1.8166 l 0.7474,5.1213 l 0.7474,-18.3986 l 0.7474,8.1432 l 0.7474,3.6137 l 0.7474,-11.8264 l 0.7474,3.1097 l 0.7474,5.3472 l 0.7474,-18.8401 l 0.7474,2.7304 l 0.7474,-3.8467 l 0.7474,4.0811 l 0.7474,-17.7644 l 0.7474,13.0536 l 0.7474,-1.2188 l 0.7474,1.6518 l 0.7474,13.5364 l 0.7474,6.6711 l 0.7474,-5.8845 l 0.7474,4.3617 l 0.7474,10.5749 l 0.7474,-2.5876 l 0.7474,-7.6567 l 0.7474,-1.2484 l 0.7474,0.7262 l 0.7474,1.8954 l 0.7474,-5.3239 l 0.7474,9.4916 l 0.7474,-3.2681 l 0.7474,3.5197 l 0.7474,14.1236 l 0.7474,-11.4569 l 0.7474,15.0914 l 0.7474,-13.4397 l 0.7474,-2.6762 l 0.7474,-6.4002 l 0.7474,-0.3267 l 0.7474,4.3029 l 0.7474,-9.9895 l 0.7474,10.0909 l 0.7474,-14.7059 l 0.7474,-9.0163 l 0.7474,7.4751 l 0.7474,-11.4647 l 0.7474,-9.2749 l 0.7474,-0.1695 l 0.7474,7.0810 l 0.7474,13.1338 l 0.7474,-1.2236 l 0.7474,-5.0856 l 0.7474,-0.2493 l 0.7474,-8.3364 l 0.7474,-11.3882 l 0.7474,-4.3780 l 0.7474,-8.7841 l 0.7474,0.4562 l 0.7474,12.5212 l 0.7474,-4.2597 l 0.7474,-6.0880 l 0.7474,3.2133 l 0.7474,-2.2758 l 0.7474,7.5259 l 0.7474,9.7441 l 0.7474,-2.5225 l 0.7474,-20.0453 l 0.7474,17.0241 l 0.7474,16.1703 l 0.7474,-10.6439 l 0.7474,-8.5332 l 0.7474,-12.3696 l 0.7474,1.0601 l 0.7474,7.5214 l 0.7474,26.7301 l 0.7474,-0.7761 l 0.7474,-10.9894 l 0.7474,12.5219 l 0.7474,23.5980 l 0.7474,-9.7927 l 0.7474,-22.1362 l 0.7474,0.1732 l 0.7474,3.1143 l 0.7474,4.7757 l 0.7474,12.9675 l 0.7474,-8.5904 l 0.7474,-6.4630 l 0.7474,16.9051 l 0.7474,-7.3183 l 0.7474,-15.5285 l 0.7474,6.5901 l 0.7474,-16.5946 l 0.7474,9.0948 l 0.7474,-5.2587 l 0.7474,-13.0605 l 0.7474,-6.3269 l 0.7474,-1.4257 l 0.7474,5.4344 l 0.7474,1.1747 l 0.7474,6.9220 l 0.7474,6.2921 l 0.7474,1.5561 l 0.7474,-11.1866 l 0.7474,14.7297 l 0.7474,-7.1410 l 0.7474,4.0043 l 0.7474,-2.0050 l 0.7474,-0.1344 l 0.7474,11.0234 l 0.7474,8.0230 l 0.7474,-9.6522 l 0.7474,2.2032 l 0.7474,-6.4444 l 0.7474,-2.8061 l 0.7474,-2.2146 l 0.7474,-3.2184 l 0.7474,-23.0878 l 0.7474,2.6866 l 0.7474,8.2990 l 0.7474,-16.2163 l 0.7474,-2.9981 l 0.7474,6.8577 l 0.7474,8.2191 l 0.7474,4.4553 l 0.7474,7.0871 l 0.7474,21.6867 l 0.7474,8.4225 l 0.7474,-3.7514 l 0.7474,12.1601 l 0.7474,4.3193 l 0.7474,5.3418 l 0.7474,0.5195 l 0.7474,-12.2309 l 0.7474,-10.2969 l 0.7474,1.4692 l 0.7474,9.8420 l 0.7474,2.1703 l 0.7474,3.9800 l 0.7474,-6.9758 l 0.7474,-7.9116 l 0.7474,1.0611 l 0.7474,-2.1452 l 0.7474,6.0881 l 0.7474,10.8562 l 0.7474,0.7992 l 0.7474,2.5553 l 0.7474,5.9512 l 0.7474,-21.2251 l 0.7474,-0.5316 l 0.7474,-5.1561 l 0.7474,-12.4345 l 0.7474,10.2083 l 0.7474,-12.5231 l 0.7474,10.4813 l 0.7474,-24.5298 l 0.7474,-3.0561 l 0.7474,-1.4374 l 0.7474,10.7188 l 0.7474,-6.8158 l 0.7474,11.7096 l 0.7474,-14.0387 l 0.7474,-12.1286 l 0.7474,-0.4767 l 0.7474,14.2444 l 0.7474,1.4164 l 0.7474,1.7723 l 0.7474,9.6614 l 0.7474,8.3611 l 0.7474,6.2413 l 0.7474,-16.7671 l 0.7474,-1.3098 l 0.7474,3.8857 l 0.7474,-11.4548 l 0.7474,-7.4496 l 0.7474,3.4509 l 0.7474,7.8462 l 0.7474,10.1981 l 0.7474,2.5801 l 0.7474,-3.9845 l 0.7474,-12.4966 l 0.7474,11.6440 l 0.7474,-13.0176 l 0.7474,-12.0535 l 0.7474,-5.9218 l 0.7474,-2.4954 l 0.7474,-13.5037 l 0.7474,9.7389 l 0.7474,19.8960 l 0.7474,1.0328 l 0.7474,6.7788 l 0.7474,-12.7100 l 0.7474,4.7072 l 0.7474,-4.6672 l 0.7474,-4.4873 l 0.7474,2.2006 l 0.7474,-5.0987 l 0.7474,4.5509 l 0.7474,7.8489 l 0.7474,-13.1900 l 0.7474,4.0300 l 0.7474,13.9039 l 0.7474,-5.1832 l 0.7474,8.2397 l 0.7474,-6.2237 l 0.7474,-12.6316 l 0.7474,6.7609 l 0.7474,-9.1561 l 0.7474,13.1339 l 0.7474,-12.9029 l 0.7474,0.4155 l 0.7474,3.4637 l 0.7474,-13.4984 l 0.7474,0.5599 l 0.7474,-8.3070 l 0.7474,-3.7957 l 0.7474,4.6639 l 0.7474,-0.4007 l 0.7474,-17.1833 l 0.7474,6.3633 l 0.7474,-7.3108 l 0.7474,5.5810 l 0.7474,0.5234 l 0.7474,-13.2601 l 0.7474,6.9391 l 0.7474,-8.7763 l 0.7474,-10.3722 l 0.7474,-8.9843 l 0.7474,-11.4918 l 0.7474,11.8776 l 0.7474,-4.4090 l 0.7474,-6.2905 l 0.7474,4.3614 l 0.7474,-1.0964 l 0.7474,12.9286 l 0.7474,1.6852 l 0.7474,-11.6860 l 0.7474,8.5024 l 0.7474,-1.0864 l 0.7474,-5.3272 l 0.7474,20.7902 l 0.7474,-15.1133 l 0.7474,2.2721 l 0.7474,6.6038 l 0.7474,-3.6788 l 0.7474,7.3397 l 0.7474,8.0689 l 0.7474,16.6099 l 0.7474,-13.1836 l 0.7474,-22.9539 l 0.7474,11.2768 l 0.7474,-5.0813 l 0.7474,6.6169 l 0.7474,3.2148 l 0.7474,-15.9903 l 0.7474,11.8823 l 0.7474,0.5416 "/></g></g><defs></defs><g stroke-linejoin="miter" stroke-opacity="1.0" fill-opacity="0.0" stroke="rgb(0,0,0)" stroke-width="0.9999999999999997" fill="rgb(0,0,0)" stroke-linecap="square" stroke-miterlimit="10.0"><path d="M 32.8151,550.0000 v -535.0000 "/></g><defs></defs><g stroke-linejoin="miter" stroke-opacity="1.0" fill-opacity="0.0" stroke="rgb(0,0,0)" stroke-width="0.9999999999999997" fill="rgb(0,0,0)" stroke-linecap="butt" stroke-miterlimit="10.0"><path d="M 32.8151,550.0000 h 2.0000 "/></g><defs></defs><g stroke-linejoin="miter" stroke-opacity="1.0" fill-opacity="0.0" stroke="rgb(0,0,0)" stroke-width="0.9999999999999997" fill="rgb(0,0,0)" stroke-linecap="butt" stroke-miterlimit="10.0"><path d="M 32.8151,534.7143 h 2.0000 "/></g><defs></defs><g stroke-linejoin="miter" stroke-opacity="1.0" fill-opacity="0.0" stroke="rgb(0,0,0)" stroke-width="0.9999999999999997" fill="rgb(0,0,0)" stroke-linecap="butt" stroke-miterlimit="10.0"><path d="M 32.8151,519.4286 h 2.0000 "/></g><defs></defs><g stroke-linejoin="miter" stroke-opacity="1.0" fill-opacity="0.0" stroke="rgb(0,0,0)" stroke-width="0.9999999999999997" fill="rgb(0,0,0)" stroke-linecap="butt" stroke-miterlimit="10.0"><path d="M 32.8151,504.1429 h 2.0000 "/></g><defs></defs><g stroke-linejoin="miter" stroke-opacity="1.0" fill-opacity="0.0" stroke="rgb(0,0,0)" stroke-width="0.9999999999999997" fill="rgb(0,0,0)" stroke-linecap="butt" stroke-miterlimit="10.0"><path d="M 32.8151,488.8571 h 2.0000 "/></g><defs></defs><g stroke-linejoin="miter" stroke-opacity="1.0" fill-opacity="0.0" stroke="rgb(0,0,0)" stroke-width="0.9999999999999997" fill="rgb(0,0,0)" stroke-linecap="butt" stroke-miterlimit="10.0"><path d="M 32.8151,473.5714 h 2.0000 "/></g><defs></defs><g stroke-linejoin="miter" stroke-opacity="1.0" fill-opacity="0.0" stroke="rgb(0,0,0)" stroke-width="0.9999999999999997" fill="rgb(0,0,0)" stroke-linecap="butt" stroke-miterlimit="10.0"><path d="M 32.8151,458.2857 h 2.0000 "/></g><defs></defs><g stroke-linejoin="miter" stroke-opacity="1.0" fill-opacity="0.0" stroke="rgb(0,0,0)" stroke-width="0.9999999999999997" fill="rgb(0,0,0)" stroke-linecap="butt" stroke-miterlimit="10.0"><path d="M 32.8151,443.0000 h 2.0000 "/></g><defs></defs><g stroke-linejoin="miter" stroke-opacity="1.0" fill-opacity="0.0" stroke="rgb(0,0,0)" stroke-width="0.9999999999999997" fill="rgb(0,0,0)" stroke-linecap="butt" stroke-miterlimit="10.0"><path d="M 32.8151,427.7143 h 2.0000 "/></g><defs></defs><g stroke-linejoin="miter" stroke-opacity="1.0" fill-opacity="0.0" stroke="rgb(0,0,0)" stroke-width="0.9999999999999997" fill="rgb(0,0,0)" stroke-linecap="butt" stroke-miterlimit="10.0"><path d="M 32.8151,412.4286 h 2.0000 "/></g><defs></defs><g stroke-linejoin="miter" stroke-opacity="1.0" fill-opacity="0.0" stroke="rgb(0,0,0)" stroke-width="0.9999999999999997" fill="rgb(0,0,0)" stroke-linecap="butt" stroke-miterlimit="10.0"><path d="M 32.8151,397.1429 h 2.0000 "/></g><defs></defs><g stroke-linejoin="miter" stroke-opacity="1.0" fill-opacity="0.0" stroke="rgb(0,0,0)" stroke-width="0.9999999999999997" fill="rgb(0,0,0)" stroke-linecap="butt" stroke-miterlimit="10.0"><path d="M 32.8151,381.8571 h 2.0000 "/></g><defs></defs><g stroke-linejoin="miter" stroke-opacity="1.0" fill-opacity="0.0" stroke="rgb(0,0,0)" stroke-width="0.9999999999999997" fill="rgb(0,0,0)" stroke-linecap="butt" stroke-miterlimit="10.0"><path d="M 32.8151,366.5714 h 2.0000 "/></g><defs></defs><g stroke-linejoin="miter" stroke-opacity="1.0" fill-opacity="0.0" stroke="rgb(0,0,0)" stroke-width="0.9999999999999997" fill="rgb(0,0,0)" stroke-linecap="butt" stroke-miterlimit="10.0"><path d="M 32.8151,351.2857 h 2.0000 "/></g><defs></defs><g stroke-linejoin="miter" stroke-opacity="1.0" fill-opacity="0.0" stroke="rgb(0,0,0)" stroke-width="0.9999999999999997" fill="rgb(0,0,0)" stroke-linecap="butt" stroke-miterlimit="10.0"><path d="M 32.8151,336.0000 h 2.0000 "/></g><defs></defs><g stroke-linejoin="miter" stroke-opacity="1.0" fill-opacity="0.0" stroke="rgb(0,0,0)" stroke-width="0.9999999999999997" fill="rgb(0,0,0)" stroke-linecap="butt" stroke-miterlimit="10.0"><path d="M 32.8151,320.7143 h 2.0000 "/></g><defs></defs><g stroke-linejoin="miter" stroke-opacity="1.0" fill-opacity="0.0" stroke="rgb(0,0,0)" stroke-width="0.9999999999999997" fill="rgb(0,0,0)" stroke-linecap="butt" stroke-miterlimit="10.0"><path d="M 32.8151,305.4286 h 2.0000 "/></g><defs></defs><g stroke-linejoin="miter" stroke-opacity="1.0" fill-opacity="0.0" stroke="rgb(0,0,0)" stroke-width="0.9999999999999997" fill="rgb(0,0,0)" stroke-linecap="butt" stroke-miterlimit="10.0"><path d="M 32.8151,290.1429 h 2.0000 "/></g><defs></defs><g stroke-linejoin="miter" stroke-opacity="1.0" fill-opacity="0.0" stroke="rgb(0,0,0)" stroke-width="0.9999999999999997" fill="rgb(0,0,0)" stroke-linecap="butt" stroke-miterlimit="10.0"><path d="M 32.8151,274.8571 h 2.0000 "/></g><defs></defs><g stroke-linejoin="miter" stroke-opacity="1.0" fill-opacity="0.0" stroke="rgb(0,0,0)" stroke-width="0.9999999999999997" fill="rgb(0,0,0)" stroke-linecap="butt" stroke-miterlimit="10.0"><path d="M 32.8151,259.5714 h 2.0000 "/></g><defs></defs><g stroke-linejoin="miter" stroke-opacity="1.0" fill-opacity="0.0" stroke="rgb(0,0,0)" stroke-width="0.9999999999999997" fill="rgb(0,0,0)" stroke-linecap="butt" stroke-miterlimit="10.0"><path d="M 32.8151,244.2857 h 2.0000 "/></g><defs></defs><g stroke-linejoin="miter" stroke-opacity="1.0" fill-opacity="0.0" stroke="rgb(0,0,0)" stroke-width="0.9999999999999997" fill="rgb(0,0,0)" stroke-linecap="butt" stroke-miterlimit="10.0"><path d="M 32.8151,229.0000 h 2.0000 "/></g><defs></defs><g stroke-linejoin="miter" stroke-opacity="1.0" fill-opacity="0.0" stroke="rgb(0,0,0)" stroke-width="0.9999999999999997" fill="rgb(0,0,0)" stroke-linecap="butt" stroke-miterlimit="10.0"><path d="M 32.8151,213.7143 h 2.0000 "/></g><defs></defs><g stroke-linejoin="miter" stroke-opacity="1.0" fill-opacity="0.0" stroke="rgb(0,0,0)" stroke-width="0.9999999999999997" fill="rgb(0,0,0)" stroke-linecap="butt" stroke-miterlimit="10.0"><path d="M 32.8151,198.4286 h 2.0000 "/></g><defs></defs><g stroke-linejoin="miter" stroke-opacity="1.0" fill-opacity="0.0" stroke="rgb(0,0,0)" stroke-width="0.9999999999999997" fill="rgb(0,0,0)" stroke-linecap="butt" stroke-miterlimit="10.0"><path d="M 32.8151,183.1429 h 2.0000 "/></g><defs></defs><g stroke-linejoin="miter" stroke-opacity="1.0" fill-opacity="0.0" stroke="rgb(0,0,0)" stroke-width="0.9999999999999997" fill="rgb(0,0,0)" stroke-linecap="butt" stroke-miterlimit="10.0"><path d="M 32.8151,167.8571 h 2.0000 "/></g><defs></defs><g stroke-linejoin="miter" stroke-opacity="1.0" fill-opacity="0.0" stroke="rgb(0,0,0)" stroke-width="0.9999999999999997" fill="rgb(0,0,0)" stroke-linecap="butt" stroke-miterlimit="10.0"><path d="M 32.8151,152.5714 h 2.0000 "/></g><defs></defs><g stroke-linejoin="miter" stroke-opacity="1.0" fill-opacity="0.0" stroke="rgb(0,0,0)" stroke-width="0.9999999999999997" fill="rgb(0,0,0)" stroke-linecap="butt" stroke-miterlimit="10.0"><path d="M 32.8151,137.2857 h 2.0000 "/></g><defs></defs><g stroke-linejoin="miter" stroke-opacity="1.0" fill-opacity="0.0" stroke="rgb(0,0,0)" stroke-width="0.9999999999999997" fill="rgb(0,0,0)" stroke-linecap="butt" stroke-miterlimit="10.0"><path d="M 32.8151,122.0000 h 2.0000 "/></g><defs></defs><g stroke-linejoin="miter" stroke-opacity="1.0" fill-opacity="0.0" stroke="rgb(0,0,0)" stroke-width="0.9999999999999997" fill="rgb(0,0,0)" stroke-linecap="butt" stroke-miterlimit="10.0"><path d="M 32.8151,106.7143 h 2.0000 "/></g><defs></defs><g stroke-linejoin="miter" stroke-opacity="1.0" fill-opacity="0.0" stroke="rgb(0,0,0)" stroke-width="0.9999999999999997" fill="rgb(0,0,0)" stroke-linecap="butt" stroke-miterlimit="10.0"><path d="M 32.8151,91.4286 h 2.0000 "/></g><defs></defs><g stroke-linejoin="miter" stroke-opacity="1.0" fill-opacity="0.0" stroke="rgb(0,0,0)" stroke-width="0.9999999999999997" fill="rgb(0,0,0)" stroke-linecap="butt" stroke-miterlimit="10.0"><path d="M 32.8151,76.1429 h 2.0000 "/></g><defs></defs><g stroke-linejoin="miter" stroke-opacity="1.0" fill-opacity="0.0" stroke="rgb(0,0,0)" stroke-width="0.9999999999999997" fill="rgb(0,0,0)" stroke-linecap="butt" stroke-miterlimit="10.0"><path d="M 32.8151,60.8571 h 2.0000 "/></g><defs></defs><g stroke-linejoin="miter" stroke-opacity="1.0" fill-opacity="0.0" stroke="rgb(0,0,0)" stroke-width="0.9999999999999997" fill="rgb(0,0,0)" stroke-linecap="butt" stroke-miterlimit="10.0"><path d="M 32.8151,45.5714 h 2.0000 "/></g><defs></defs><g stroke-linejoin="miter" stroke-opacity="1.0" fill-opacity="0.0" stroke="rgb(0,0,0)" stroke-width="0.9999999999999997" fill="rgb(0,0,0)" stroke-linecap="butt" stroke-miterlimit="10.0"><path d="M 32.8151,30.2857 h 2.0000 "/></g><defs></defs><g stroke-linejoin="miter" stroke-opacity="1.0" fill-opacity="0.0" stroke="rgb(0,0,0)" stroke-width="0.9999999999999997" fill="rgb(0,0,0)" stroke-linecap="butt" stroke-miterlimit="10.0"><path d="M 32.8151,15.0000 h 2.0000 "/></g><defs></defs><g stroke-linejoin="miter" stroke-opacity="1.0" fill-opacity="0.0" stroke="rgb(0,0,0)" stroke-width="0.9999999999999997" fill="rgb(0,0,0)" stroke-linecap="butt" stroke-miterlimit="10.0"><path d="M 32.8151,550.0000 h 5.0000 "/></g><defs></defs><g stroke-linejoin="miter" stroke-opacity="1.0" fill-opacity="0.0" stroke="rgb(0,0,0)" stroke-width="0.9999999999999997" fill="rgb(0,0,0)" stroke-linecap="butt" stroke-miterlimit="10.0"><path d="M 32.8151,473.5714 h 5.0000 "/></g><defs></defs><g stroke-linejoin="miter" stroke-opacity="1.0" fill-opacity="0.0" stroke="rgb(0,0,0)" stroke-width="0.9999999999999997" fill="rgb(0,0,0)" stroke-linecap="butt" stroke-miterlimit="10.0"><path d="M 32.8151,397.1429 h 5.0000 "/></g><defs></defs><g stroke-linejoin="miter" stroke-opacity="1.0" fill-opacity="0.0" stroke="rgb(0,0,0)" stroke-width="0.9999999999999997" fill="rgb(0,0,0)" stroke-linecap="butt" stroke-miterlimit="10.0"><path d="M 32.8151,320.7143 h 5.0000 "/></g><defs></defs><g stroke-linejoin="miter" stroke-opacity="1.0" fill-opacity="0.0" stroke="rgb(0,0,0)" stroke-width="0.9999999999999997" fill="rgb(0,0,0)" stroke-linecap="butt" stroke-miterlimit="10.0"><path d="M 32.8151,244.2857 h 5.0000 "/></g><defs></defs><g stroke-linejoin="miter" stroke-opacity="1.0" fill-opacity="0.0" stroke="rgb(0,0,0)" stroke-width="0.9999999999999997" fill="rgb(0,0,0)" stroke-linecap="butt" stroke-miterlimit="10.0"><path d="M 32.8151,167.8571 h 5.0000 "/></g><defs></defs><g stroke-linejoin="miter" stroke-opacity="1.0" fill-opacity="0.0" stroke="rgb(0,0,0)" stroke-width="0.9999999999999997" fill="rgb(0,0,0)" stroke-linecap="butt" stroke-miterlimit="10.0"><path d="M 32.8151,91.4286 h 5.0000 "/></g><defs></defs><g stroke-linejoin="miter" stroke-opacity="1.0" fill-opacity="0.0" stroke="rgb(0,0,0)" stroke-width="0.9999999999999997" fill="rgb(0,0,0)" stroke-linecap="butt" stroke-miterlimit="10.0"><path d="M 32.8151,15.0000 h 5.0000 "/></g><defs></defs><g stroke-linejoin="bevel" stroke-opacity="0.0" fill-opacity="1.0" stroke="rgb(0,0,0)" stroke-width="0.0" fill="rgb(0,0,0)" stroke-linecap="butt" stroke-miterlimit="10.0"><path d="M 10.0420,553.4454 ZM 10.4727,550.4832 h 2.4160 v 0.6618 h -2.4160 v -0.6618 ZM 13.3088,553.4454 ZM 13.7290,552.9307 c 0.7563,-0.7563 1.3445,-1.3655 1.3445 -1.3655c 0.5882,-0.6092 0.9874,-1.1292 0.9874 -1.1292c 0.3992,-0.5200 0.6092,-0.9559 0.6092 -0.9559c 0.2101,-0.4359 0.2101,-0.8456 0.2101 -0.8456c 0.0000,-0.5777 -0.3151,-0.9454 -0.3151 -0.9454c -0.3151,-0.3676 -0.9559,-0.3676 -0.9559 -0.3676c -0.4202,-0.0000 -0.7773,0.2363 -0.7773 0.2363c -0.3571,0.2363 -0.6513,0.5725 -0.6513 0.5725l -0.4937,-0.4937 c 0.4202,-0.4622 0.8929,-0.7405 0.8929 -0.7405c 0.4727,-0.2784 1.1345,-0.2784 1.1345 -0.2784c 0.9349,0.0000 1.4706,0.5410 1.4706 0.5410c 0.5357,0.5410 0.5357,1.4338 0.5357 1.4338c 0.0000,0.4727 -0.2048,0.9506 -0.2048 0.9506c -0.2048,0.4779 -0.5672,0.9874 -0.5672 0.9874c -0.3624,0.5095 -0.8613,1.0609 -0.8613 1.0609c -0.4989,0.5515 -1.0977,1.1712 -1.0977 1.1712c 0.2731,-0.0210 0.5672,-0.0420 0.5672 -0.0420c 0.2941,-0.0210 0.5567,-0.0210 0.5567 -0.0210h 1.9433 v 0.7458 h -4.3277 v -0.5147 ZM 18.5294,553.4454 ZM 19.2122,552.0903 c 0.2941,0.3046 0.6985,0.5357 0.6985 0.5357c 0.4044,0.2311 0.9926,0.2311 0.9926 0.2311c 0.3046,0.0000 0.5725,-0.1103 0.5725 -0.1103c 0.2679,-0.1103 0.4674,-0.3099 0.4674 -0.3099c 0.1996,-0.1996 0.3151,-0.4832 0.3151 -0.4832c 0.1155,-0.2836 0.1155,-0.6303 0.1155 -0.6303c 0.0000,-0.6933 -0.3887,-1.0819 -0.3887 -1.0819c -0.3887,-0.3887 -1.0399,-0.3887 -1.0399 -0.3887c -0.3466,-0.0000 -0.5935,0.1050 -0.5935 0.1050c -0.2468,0.1050 -0.5515,0.3046 -0.5515 0.3046l -0.4622,-0.2941 l 0.2206,-3.2248 h 3.3508 v 0.7458 h -2.5945 l -0.1786,1.9853 c 0.2416,-0.1261 0.4832,-0.1996 0.4832 -0.1996c 0.2416,-0.0735 0.5462,-0.0735 0.5462 -0.0735c 0.4307,0.0000 0.8088,0.1261 0.8088 0.1261c 0.3782,0.1261 0.6618,0.3834 0.6618 0.3834c 0.2836,0.2574 0.4464,0.6513 0.4464 0.6513c 0.1628,0.3939 0.1628,0.9401 0.1628 0.9401c 0.0000,0.5462 -0.1891,0.9664 -0.1891 0.9664c -0.1891,0.4202 -0.5042,0.7090 -0.5042 0.7090c -0.3151,0.2889 -0.7195,0.4412 -0.7195 0.4412c -0.4044,0.1523 -0.8456,0.1523 -0.8456 0.1523c -0.3992,-0.0000 -0.7300,-0.0788 -0.7300 -0.0788c -0.3309,-0.0788 -0.5987,-0.2048 -0.5987 -0.2048c -0.2679,-0.1261 -0.4832,-0.2889 -0.4832 -0.2889c -0.2153,-0.1628 -0.3834,-0.3414 -0.3834 -0.3414Z"/></g><defs></defs><g stroke-linejoin="bevel" stroke-opacity="0.0" fill-opacity="1.0" stroke="rgb(0,0,0)" stroke-width="0.0" fill="rgb(0,0,0)" stroke-linecap="butt" stroke-miterlimit="10.0"><path d="M 10.0000,477.0168 ZM 10.4307,474.0546 h 2.4160 v 0.6618 h -2.4160 v -0.6618 ZM 13.2668,477.0168 ZM 13.6870,476.5021 c 0.7563,-0.7563 1.3445,-1.3655 1.3445 -1.3655c 0.5882,-0.6092 0.9874,-1.1292 0.9874 -1.1292c 0.3992,-0.5200 0.6092,-0.9559 0.6092 -0.9559c 0.2101,-0.4359 0.2101,-0.8456 0.2101 -0.8456c 0.0000,-0.5777 -0.3151,-0.9454 -0.3151 -0.9454c -0.3151,-0.3676 -0.9559,-0.3676 -0.9559 -0.3676c -0.4202,-0.0000 -0.7773,0.2363 -0.7773 0.2363c -0.3571,0.2363 -0.6513,0.5725 -0.6513 0.5725l -0.4937,-0.4937 c 0.4202,-0.4622 0.8929,-0.7405 0.8929 -0.7405c 0.4727,-0.2784 1.1345,-0.2784 1.1345 -0.2784c 0.9349,0.0000 1.4706,0.5410 1.4706 0.5410c 0.5357,0.5410 0.5357,1.4338 0.5357 1.4338c 0.0000,0.4727 -0.2048,0.9506 -0.2048 0.9506c -0.2048,0.4779 -0.5672,0.9874 -0.5672 0.9874c -0.3624,0.5095 -0.8613,1.0609 -0.8613 1.0609c -0.4989,0.5515 -1.0977,1.1712 -1.0977 1.1712c 0.2731,-0.0210 0.5672,-0.0420 0.5672 -0.0420c 0.2941,-0.0210 0.5567,-0.0210 0.5567 -0.0210h 1.9433 v 0.7458 h -4.3277 v -0.5147 ZM 18.4874,477.0168 ZM 21.1029,477.1429 c -1.0189,-0.0000 -1.5861,-0.9034 -1.5861 -0.9034c -0.5672,-0.9034 -0.5672,-2.5945 -0.5672 -2.5945c 0.0000,-1.6912 0.5672,-2.5735 0.5672 -2.5735c 0.5672,-0.8824 1.5861,-0.8824 1.5861 -0.8824c 1.0084,0.0000 1.5756,0.8824 1.5756 0.8824c 0.5672,0.8824 0.5672,2.5735 0.5672 2.5735c 0.0000,1.6912 -0.5672,2.5945 -0.5672 2.5945c -0.5672,0.9034 -1.5756,0.9034 -1.5756 0.9034ZM 21.1029,477.1429 ZM 21.1029,476.4496 c 0.2941,0.0000 0.5305,-0.1628 0.5305 -0.1628c 0.2363,-0.1628 0.4097,-0.5042 0.4097 -0.5042c 0.1733,-0.3414 0.2679,-0.8718 0.2679 -0.8718c 0.0945,-0.5305 0.0945,-1.2658 0.0945 -1.2658c 0.0000,-0.7353 -0.0945,-1.2605 -0.0945 -1.2605c -0.0945,-0.5252 -0.2679,-0.8561 -0.2679 -0.8561c -0.1733,-0.3309 -0.4097,-0.4884 -0.4097 -0.4884c -0.2363,-0.1576 -0.5305,-0.1576 -0.5305 -0.1576c -0.2941,-0.0000 -0.5357,0.1576 -0.5357 0.1576c -0.2416,0.1576 -0.4149,0.4884 -0.4149 0.4884c -0.1733,0.3309 -0.2679,0.8561 -0.2679 0.8561c -0.0945,0.5252 -0.0945,1.2605 -0.0945 1.2605c 0.0000,1.4706 0.3624,2.1376 0.3624 2.1376c 0.3624,0.6670 0.9506,0.6670 0.9506 0.6670Z"/></g><defs></defs><g stroke-linejoin="bevel" stroke-opacity="0.0" fill-opacity="1.0" stroke="rgb(0,0,0)" stroke-width="0.0" fill="rgb(0,0,0)" stroke-linecap="butt" stroke-miterlimit="10.0"><path d="M 10.0420,400.5882 ZM 10.4727,397.6261 h 2.4160 v 0.6618 h -2.4160 v -0.6618 ZM 13.3088,400.5882 ZM 14.1387,399.8739 h 1.5336 v -4.9370 h -1.2185 v -0.5567 c 0.4622,-0.0840 0.8036,-0.2048 0.8036 -0.2048c 0.3414,-0.1208 0.6145,-0.2889 0.6145 -0.2889h 0.6618 v 5.9874 h 1.3866 v 0.7143 h -3.7815 v -0.7143 ZM 18.5294,400.5882 ZM 19.2122,399.2332 c 0.2941,0.3046 0.6985,0.5357 0.6985 0.5357c 0.4044,0.2311 0.9926,0.2311 0.9926 0.2311c 0.3046,0.0000 0.5725,-0.1103 0.5725 -0.1103c 0.2679,-0.1103 0.4674,-0.3099 0.4674 -0.3099c 0.1996,-0.1996 0.3151,-0.4832 0.3151 -0.4832c 0.1155,-0.2836 0.1155,-0.6303 0.1155 -0.6303c 0.0000,-0.6933 -0.3887,-1.0819 -0.3887 -1.0819c -0.3887,-0.3887 -1.0399,-0.3887 -1.0399 -0.3887c -0.3466,-0.0000 -0.5935,0.1050 -0.5935 0.1050c -0.2468,0.1050 -0.5515,0.3046 -0.5515 0.3046l -0.4622,-0.2941 l 0.2206,-3.2248 h 3.3508 v 0.7458 h -2.5945 l -0.1786,1.9853 c 0.2416,-0.1261 0.4832,-0.1996 0.4832 -0.1996c 0.2416,-0.0735 0.5462,-0.0735 0.5462 -0.0735c 0.4307,0.0000 0.8088,0.1261 0.8088 0.1261c 0.3782,0.1261 0.6618,0.3834 0.6618 0.3834c 0.2836,0.2574 0.4464,0.6513 0.4464 0.6513c 0.1628,0.3939 0.1628,0.9401 0.1628 0.9401c 0.0000,0.5462 -0.1891,0.9664 -0.1891 0.9664c -0.1891,0.4202 -0.5042,0.7090 -0.5042 0.7090c -0.3151,0.2889 -0.7195,0.4412 -0.7195 0.4412c -0.4044,0.1523 -0.8456,0.1523 -0.8456 0.1523c -0.3992,-0.0000 -0.7300,-0.0788 -0.7300 -0.0788c -0.3309,-0.0788 -0.5987,-0.2048 -0.5987 -0.2048c -0.2679,-0.1261 -0.4832,-0.2889 -0.4832 -0.2889c -0.2153,-0.1628 -0.3834,-0.3414 -0.3834 -0.3414Z"/></g><defs></defs><g stroke-linejoin="bevel" stroke-opacity="0.0" fill-opacity="1.0" stroke="rgb(0,0,0)" stroke-width="0.0" fill="rgb(0,0,0)" stroke-linecap="butt" stroke-miterlimit="10.0"><path d="M 10.0000,324.1597 ZM 10.4307,321.1975 h 2.4160 v 0.6618 h -2.4160 v -0.6618 ZM 13.2668,324.1597 ZM 14.0966,323.4454 h 1.5336 v -4.9370 h -1.2185 v -0.5567 c 0.4622,-0.0840 0.8036,-0.2048 0.8036 -0.2048c 0.3414,-0.1208 0.6145,-0.2889 0.6145 -0.2889h 0.6618 v 5.9874 h 1.3866 v 0.7143 h -3.7815 v -0.7143 ZM 18.4874,324.1597 ZM 21.1029,324.2857 c -1.0189,-0.0000 -1.5861,-0.9034 -1.5861 -0.9034c -0.5672,-0.9034 -0.5672,-2.5945 -0.5672 -2.5945c 0.0000,-1.6912 0.5672,-2.5735 0.5672 -2.5735c 0.5672,-0.8824 1.5861,-0.8824 1.5861 -0.8824c 1.0084,0.0000 1.5756,0.8824 1.5756 0.8824c 0.5672,0.8824 0.5672,2.5735 0.5672 2.5735c 0.0000,1.6912 -0.5672,2.5945 -0.5672 2.5945c -0.5672,0.9034 -1.5756,0.9034 -1.5756 0.9034ZM 21.1029,324.2857 ZM 21.1029,323.5924 c 0.2941,0.0000 0.5305,-0.1628 0.5305 -0.1628c 0.2363,-0.1628 0.4097,-0.5042 0.4097 -0.5042c 0.1733,-0.3414 0.2679,-0.8718 0.2679 -0.8718c 0.0945,-0.5305 0.0945,-1.2658 0.0945 -1.2658c 0.0000,-0.7353 -0.0945,-1.2605 -0.0945 -1.2605c -0.0945,-0.5252 -0.2679,-0.8561 -0.2679 -0.8561c -0.1733,-0.3309 -0.4097,-0.4884 -0.4097 -0.4884c -0.2363,-0.1576 -0.5305,-0.1576 -0.5305 -0.1576c -0.2941,-0.0000 -0.5357,0.1576 -0.5357 0.1576c -0.2416,0.1576 -0.4149,0.4884 -0.4149 0.4884c -0.1733,0.3309 -0.2679,0.8561 -0.2679 0.8561c -0.0945,0.5252 -0.0945,1.2605 -0.0945 1.2605c 0.0000,1.4706 0.3624,2.1376 0.3624 2.1376c 0.3624,0.6670 0.9506,0.6670 0.9506 0.6670Z"/></g><defs></defs><g stroke-linejoin="bevel" stroke-opacity="0.0" fill-opacity="1.0" stroke="rgb(0,0,0)" stroke-width="0.0" fill="rgb(0,0,0)" stroke-linecap="butt" stroke-miterlimit="10.0"><path d="M 15.2626,247.7311 ZM 15.6933,244.7689 h 2.4160 v 0.6618 h -2.4160 v -0.6618 ZM 18.5294,247.7311 ZM 19.2122,246.3761 c 0.2941,0.3046 0.6985,0.5357 0.6985 0.5357c 0.4044,0.2311 0.9926,0.2311 0.9926 0.2311c 0.3046,0.0000 0.5725,-0.1103 0.5725 -0.1103c 0.2679,-0.1103 0.4674,-0.3099 0.4674 -0.3099c 0.1996,-0.1996 0.3151,-0.4832 0.3151 -0.4832c 0.1155,-0.2836 0.1155,-0.6303 0.1155 -0.6303c 0.0000,-0.6933 -0.3887,-1.0819 -0.3887 -1.0819c -0.3887,-0.3887 -1.0399,-0.3887 -1.0399 -0.3887c -0.3466,-0.0000 -0.5935,0.1050 -0.5935 0.1050c -0.2468,0.1050 -0.5515,0.3046 -0.5515 0.3046l -0.4622,-0.2941 l 0.2206,-3.2248 h 3.3508 v 0.7458 h -2.5945 l -0.1786,1.9853 c 0.2416,-0.1261 0.4832,-0.1996 0.4832 -0.1996c 0.2416,-0.0735 0.5462,-0.0735 0.5462 -0.0735c 0.4307,0.0000 0.8088,0.1261 0.8088 0.1261c 0.3782,0.1261 0.6618,0.3834 0.6618 0.3834c 0.2836,0.2574 0.4464,0.6513 0.4464 0.6513c 0.1628,0.3939 0.1628,0.9401 0.1628 0.9401c 0.0000,0.5462 -0.1891,0.9664 -0.1891 0.9664c -0.1891,0.4202 -0.5042,0.7090 -0.5042 0.7090c -0.3151,0.2889 -0.7195,0.4412 -0.7195 0.4412c -0.4044,0.1523 -0.8456,0.1523 -0.8456 0.1523c -0.3992,-0.0000 -0.7300,-0.0788 -0.7300 -0.0788c -0.3309,-0.0788 -0.5987,-0.2048 -0.5987 -0.2048c -0.2679,-0.1261 -0.4832,-0.2889 -0.4832 -0.2889c -0.2153,-0.1628 -0.3834,-0.3414 -0.3834 -0.3414Z"/></g><defs></defs><g stroke-linejoin="bevel" stroke-opacity="0.0" fill-opacity="1.0" stroke="rgb(0,0,0)" stroke-width="0.0" fill="rgb(0,0,0)" stroke-linecap="butt" stroke-miterlimit="10.0"><path d="M 18.5189,171.3025 ZM 21.1345,171.4286 c -1.0189,-0.0000 -1.5861,-0.9034 -1.5861 -0.9034c -0.5672,-0.9034 -0.5672,-2.5945 -0.5672 -2.5945c 0.0000,-1.6912 0.5672,-2.5735 0.5672 -2.5735c 0.5672,-0.8824 1.5861,-0.8824 1.5861 -0.8824c 1.0084,0.0000 1.5756,0.8824 1.5756 0.8824c 0.5672,0.8824 0.5672,2.5735 0.5672 2.5735c 0.0000,1.6912 -0.5672,2.5945 -0.5672 2.5945c -0.5672,0.9034 -1.5756,0.9034 -1.5756 0.9034ZM 21.1345,171.4286 ZM 21.1345,170.7353 c 0.2941,0.0000 0.5305,-0.1628 0.5305 -0.1628c 0.2363,-0.1628 0.4097,-0.5042 0.4097 -0.5042c 0.1733,-0.3414 0.2679,-0.8718 0.2679 -0.8718c 0.0945,-0.5305 0.0945,-1.2658 0.0945 -1.2658c 0.0000,-0.7353 -0.0945,-1.2605 -0.0945 -1.2605c -0.0945,-0.5252 -0.2679,-0.8561 -0.2679 -0.8561c -0.1733,-0.3309 -0.4097,-0.4884 -0.4097 -0.4884c -0.2363,-0.1576 -0.5305,-0.1576 -0.5305 -0.1576c -0.2941,-0.0000 -0.5357,0.1576 -0.5357 0.1576c -0.2416,0.1576 -0.4149,0.4884 -0.4149 0.4884c -0.1733,0.3309 -0.2679,0.8561 -0.2679 0.8561c -0.0945,0.5252 -0.0945,1.2605 -0.0945 1.2605c 0.0000,1.4706 0.3624,2.1376 0.3624 2.1376c 0.3624,0.6670 0.9506,0.6670 0.9506 0.6670Z"/></g><defs></defs><g stroke-linejoin="bevel" stroke-opacity="0.0" fill-opacity="1.0" stroke="rgb(0,0,0)" stroke-width="0.0" fill="rgb(0,0,0)" stroke-linecap="butt" stroke-miterlimit="10.0"><path d="M 18.3613,94.8739 ZM 19.0441,93.5189 c 0.2941,0.3046 0.6985,0.5357 0.6985 0.5357c 0.4044,0.2311 0.9926,0.2311 0.9926 0.2311c 0.3046,0.0000 0.5725,-0.1103 0.5725 -0.1103c 0.2679,-0.1103 0.4674,-0.3099 0.4674 -0.3099c 0.1996,-0.1996 0.3151,-0.4832 0.3151 -0.4832c 0.1155,-0.2836 0.1155,-0.6303 0.1155 -0.6303c 0.0000,-0.6933 -0.3887,-1.0819 -0.3887 -1.0819c -0.3887,-0.3887 -1.0399,-0.3887 -1.0399 -0.3887c -0.3466,-0.0000 -0.5935,0.1050 -0.5935 0.1050c -0.2468,0.1050 -0.5515,0.3046 -0.5515 0.3046l -0.4622,-0.2941 l 0.2206,-3.2248 h 3.3508 v 0.7458 h -2.5945 l -0.1786,1.9853 c 0.2416,-0.1261 0.4832,-0.1996 0.4832 -0.1996c 0.2416,-0.0735 0.5462,-0.0735 0.5462 -0.0735c 0.4307,0.0000 0.8088,0.1261 0.8088 0.1261c 0.3782,0.1261 0.6618,0.3834 0.6618 0.3834c 0.2836,0.2574 0.4464,0.6513 0.4464 0.6513c 0.1628,0.3939 0.1628,0.9401 0.1628 0.9401c 0.0000,0.5462 -0.1891,0.9664 -0.1891 0.9664c -0.1891,0.4202 -0.5042,0.7090 -0.5042 0.7090c -0.3151,0.2889 -0.7195,0.4412 -0.7195 0.4412c -0.4044,0.1523 -0.8456,0.1523 -0.8456 0.1523c -0.3992,-0.0000 -0.7300,-0.0788 -0.7300 -0.0788c -0.3309,-0.0788 -0.5987,-0.2048 -0.5987 -0.2048c -0.2679,-0.1261 -0.4832,-0.2889 -0.4832 -0.2889c -0.2153,-0.1628 -0.3834,-0.3414 -0.3834 -0.3414Z"/></g><defs></defs><g stroke-linejoin="bevel" stroke-opacity="0.0" fill-opacity="1.0" stroke="rgb(0,0,0)" stroke-width="0.0" fill="rgb(0,0,0)" stroke-linecap="butt" stroke-miterlimit="10.0"><path d="M 13.6660,18.4454 ZM 14.4958,17.7311 h 1.5336 v -4.9370 h -1.2185 v -0.5567 c 0.4622,-0.0840 0.8036,-0.2048 0.8036 -0.2048c 0.3414,-0.1208 0.6145,-0.2889 0.6145 -0.2889h 0.6618 v 5.9874 h 1.3866 v 0.7143 h -3.7815 v -0.7143 ZM 18.8866,18.4454 ZM 21.5021,18.5714 c -1.0189,-0.0000 -1.5861,-0.9034 -1.5861 -0.9034c -0.5672,-0.9034 -0.5672,-2.5945 -0.5672 -2.5945c 0.0000,-1.6912 0.5672,-2.5735 0.5672 -2.5735c 0.5672,-0.8824 1.5861,-0.8824 1.5861 -0.8824c 1.0084,0.0000 1.5756,0.8824 1.5756 0.8824c 0.5672,0.8824 0.5672,2.5735 0.5672 2.5735c 0.0000,1.6912 -0.5672,2.5945 -0.5672 2.5945c -0.5672,0.9034 -1.5756,0.9034 -1.5756 0.9034ZM 21.5021,18.5714 ZM 21.5021,17.8782 c 0.2941,0.0000 0.5305,-0.1628 0.5305 -0.1628c 0.2363,-0.1628 0.4097,-0.5042 0.4097 -0.5042c 0.1733,-0.3414 0.2679,-0.8718 0.2679 -0.8718c 0.0945,-0.5305 0.0945,-1.2658 0.0945 -1.2658c 0.0000,-0.7353 -0.0945,-1.2605 -0.0945 -1.2605c -0.0945,-0.5252 -0.2679,-0.8561 -0.2679 -0.8561c -0.1733,-0.3309 -0.4097,-0.4884 -0.4097 -0.4884c -0.2363,-0.1576 -0.5305,-0.1576 -0.5305 -0.1576c -0.2941,-0.0000 -0.5357,0.1576 -0.5357 0.1576c -0.2416,0.1576 -0.4149,0.4884 -0.4149 0.4884c -0.1733,0.3309 -0.2679,0.8561 -0.2679 0.8561c -0.0945,0.5252 -0.0945,1.2605 -0.0945 1.2605c 0.0000,1.4706 0.3624,2.1376 0.3624 2.1376c 0.3624,0.6670 0.9506,0.6670 0.9506 0.6670Z"/></g><defs></defs><g stroke-linejoin="miter" stroke-opacity="1.0" fill-opacity="0.0" stroke="rgb(0,0,0)" stroke-width="0.9999999999999997" fill="rgb(0,0,0)" stroke-linecap="square" stroke-miterlimit="10.0"><path d="M 32.8151,550.0000 h 747.3897 "/></g><defs></defs><g stroke-linejoin="miter" stroke-opacity="1.0" fill-opacity="0.0" stroke="rgb(0,0,0)" stroke-width="0.9999999999999997" fill="rgb(0,0,0)" stroke-linecap="butt" stroke-miterlimit="10.0"><path d="M 32.8151,550.0000 v -2.0000 "/></g><defs></defs><g stroke-linejoin="miter" stroke-opacity="1.0" fill-opacity="0.0" stroke="rgb(0,0,0)" stroke-width="0.9999999999999997" fill="rgb(0,0,0)" stroke-linecap="butt" stroke-miterlimit="10.0"><path d="M 107.5541,550.0000 v -2.0000 "/></g><defs></defs><g stroke-linejoin="miter" stroke-opacity="1.0" fill-opacity="0.0" stroke="rgb(0,0,0)" stroke-width="0.9999999999999997" fill="rgb(0,0,0)" stroke-linecap="butt" stroke-miterlimit="10.0"><path d="M 182.2931,550.0000 v -2.0000 "/></g><defs></defs><g stroke-linejoin="miter" stroke-opacity="1.0" fill-opacity="0.0" stroke="rgb(0,0,0)" stroke-width="0.9999999999999997" fill="rgb(0,0,0)" stroke-linecap="butt" stroke-miterlimit="10.0"><path d="M 257.0320,550.0000 v -2.0000 "/></g><defs></defs><g stroke-linejoin="miter" stroke-opacity="1.0" fill-opacity="0.0" stroke="rgb(0,0,0)" stroke-width="0.9999999999999997" fill="rgb(0,0,0)" stroke-linecap="butt" stroke-miterlimit="10.0"><path d="M 331.7710,550.0000 v -2.0000 "/></g><defs></defs><g stroke-linejoin="miter" stroke-opacity="1.0" fill-opacity="0.0" stroke="rgb(0,0,0)" stroke-width="0.9999999999999997" fill="rgb(0,0,0)" stroke-linecap="butt" stroke-miterlimit="10.0"><path d="M 406.5100,550.0000 v -2.0000 "/></g><defs></defs><g stroke-linejoin="miter" stroke-opacity="1.0" fill-opacity="0.0" stroke="rgb(0,0,0)" stroke-width="0.9999999999999997" fill="rgb(0,0,0)" stroke-linecap="butt" stroke-miterlimit="10.0"><path d="M 481.2489,550.0000 v -2.0000 "/></g><defs></defs><g stroke-linejoin="miter" stroke-opacity="1.0" fill-opacity="0.0" stroke="rgb(0,0,0)" stroke-width="0.9999999999999997" fill="rgb(0,0,0)" stroke-linecap="butt" stroke-miterlimit="10.0"><path d="M 555.9879,550.0000 v -2.0000 "/></g><defs></defs><g stroke-linejoin="miter" stroke-opacity="1.0" fill-opacity="0.0" stroke="rgb(0,0,0)" stroke-width="0.9999999999999997" fill="rgb(0,0,0)" stroke-linecap="butt" stroke-miterlimit="10.0"><path d="M 630.7269,550.0000 v -2.0000 "/></g><defs></defs><g stroke-linejoin="miter" stroke-opacity="1.0" fill-opacity="0.0" stroke="rgb(0,0,0)" stroke-width="0.9999999999999997" fill="rgb(0,0,0)" stroke-linecap="butt" stroke-miterlimit="10.0"><path d="M 705.4659,550.0000 v -2.0000 "/></g><defs></defs><g stroke-linejoin="miter" stroke-opacity="1.0" fill-opacity="0.0" stroke="rgb(0,0,0)" stroke-width="0.9999999999999997" fill="rgb(0,0,0)" stroke-linecap="butt" stroke-miterlimit="10.0"><path d="M 780.2048,550.0000 v -2.0000 "/></g><defs></defs><g stroke-linejoin="miter" stroke-opacity="1.0" fill-opacity="0.0" stroke="rgb(0,0,0)" stroke-width="0.9999999999999997" fill="rgb(0,0,0)" stroke-linecap="butt" stroke-miterlimit="10.0"><path d="M 32.8151,550.0000 v -5.0000 "/></g><defs></defs><g stroke-linejoin="miter" stroke-opacity="1.0" fill-opacity="0.0" stroke="rgb(0,0,0)" stroke-width="0.9999999999999997" fill="rgb(0,0,0)" stroke-linecap="butt" stroke-miterlimit="10.0"><path d="M 219.6626,550.0000 v -5.0000 "/></g><defs></defs><g stroke-linejoin="miter" stroke-opacity="1.0" fill-opacity="0.0" stroke="rgb(0,0,0)" stroke-width="0.9999999999999997" fill="rgb(0,0,0)" stroke-linecap="butt" stroke-miterlimit="10.0"><path d="M 406.5100,550.0000 v -5.0000 "/></g><defs></defs><g stroke-linejoin="miter" stroke-opacity="1.0" fill-opacity="0.0" stroke="rgb(0,0,0)" stroke-width="0.9999999999999997" fill="rgb(0,0,0)" stroke-linecap="butt" stroke-miterlimit="10.0"><path d="M 593.3574,550.0000 v -5.0000 "/></g><defs></defs><g stroke-linejoin="miter" stroke-opacity="1.0" fill-opacity="0.0" stroke="rgb(0,0,0)" stroke-width="0.9999999999999997" fill="rgb(0,0,0)" stroke-linecap="butt" stroke-miterlimit="10.0"><path d="M 780.2048,550.0000 v -5.0000 "/></g><defs></defs><g stroke-linejoin="bevel" stroke-opacity="0.0" fill-opacity="1.0" stroke="rgb(0,0,0)" stroke-width="0.0" fill="rgb(0,0,0)" stroke-linecap="butt" stroke-miterlimit="10.0"><path d="M 30.6670,570.0000 ZM 33.2826,570.1261 c -1.0189,-0.0000 -1.5861,-0.9034 -1.5861 -0.9034c -0.5672,-0.9034 -0.5672,-2.5945 -0.5672 -2.5945c 0.0000,-1.6912 0.5672,-2.5735 0.5672 -2.5735c 0.5672,-0.8824 1.5861,-0.8824 1.5861 -0.8824c 1.0084,0.0000 1.5756,0.8824 1.5756 0.8824c 0.5672,0.8824 0.5672,2.5735 0.5672 2.5735c 0.0000,1.6912 -0.5672,2.5945 -0.5672 2.5945c -0.5672,0.9034 -1.5756,0.9034 -1.5756 0.9034ZM 33.2826,570.1261 ZM 33.2826,569.4328 c 0.2941,0.0000 0.5305,-0.1628 0.5305 -0.1628c 0.2363,-0.1628 0.4097,-0.5042 0.4097 -0.5042c 0.1733,-0.3414 0.2679,-0.8718 0.2679 -0.8718c 0.0945,-0.5305 0.0945,-1.2658 0.0945 -1.2658c 0.0000,-0.7353 -0.0945,-1.2605 -0.0945 -1.2605c -0.0945,-0.5252 -0.2679,-0.8561 -0.2679 -0.8561c -0.1733,-0.3309 -0.4097,-0.4884 -0.4097 -0.4884c -0.2363,-0.1576 -0.5305,-0.1576 -0.5305 -0.1576c -0.2941,-0.0000 -0.5357,0.1576 -0.5357 0.1576c -0.2416,0.1576 -0.4149,0.4884 -0.4149 0.4884c -0.1733,0.3309 -0.2679,0.8561 -0.2679 0.8561c -0.0945,0.5252 -0.0945,1.2605 -0.0945 1.2605c 0.0000,1.4706 0.3624,2.1376 0.3624 2.1376c 0.3624,0.6670 0.9506,0.6670 0.9506 0.6670Z"/></g><defs></defs><g stroke-linejoin="bevel" stroke-opacity="0.0" fill-opacity="1.0" stroke="rgb(0,0,0)" stroke-width="0.0" fill="rgb(0,0,0)" stroke-linecap="butt" stroke-miterlimit="10.0"><path d="M 212.2518,570.0000 ZM 212.6720,569.4853 c 0.7563,-0.7563 1.3445,-1.3655 1.3445 -1.3655c 0.5882,-0.6092 0.9874,-1.1292 0.9874 -1.1292c 0.3992,-0.5200 0.6092,-0.9559 0.6092 -0.9559c 0.2101,-0.4359 0.2101,-0.8456 0.2101 -0.8456c 0.0000,-0.5777 -0.3151,-0.9454 -0.3151 -0.9454c -0.3151,-0.3676 -0.9559,-0.3676 -0.9559 -0.3676c -0.4202,-0.0000 -0.7773,0.2363 -0.7773 0.2363c -0.3571,0.2363 -0.6513,0.5725 -0.6513 0.5725l -0.4937,-0.4937 c 0.4202,-0.4622 0.8929,-0.7405 0.8929 -0.7405c 0.4727,-0.2784 1.1345,-0.2784 1.1345 -0.2784c 0.9349,0.0000 1.4706,0.5410 1.4706 0.5410c 0.5357,0.5410 0.5357,1.4338 0.5357 1.4338c 0.0000,0.4727 -0.2048,0.9506 -0.2048 0.9506c -0.2048,0.4779 -0.5672,0.9874 -0.5672 0.9874c -0.3624,0.5095 -0.8613,1.0609 -0.8613 1.0609c -0.4989,0.5515 -1.0977,1.1712 -1.0977 1.1712c 0.2731,-0.0210 0.5672,-0.0420 0.5672 -0.0420c 0.2941,-0.0210 0.5567,-0.0210 0.5567 -0.0210h 1.9433 v 0.7458 h -4.3277 v -0.5147 ZM 217.4724,570.0000 ZM 218.1552,568.6450 c 0.2941,0.3046 0.6985,0.5357 0.6985 0.5357c 0.4044,0.2311 0.9926,0.2311 0.9926 0.2311c 0.3046,0.0000 0.5725,-0.1103 0.5725 -0.1103c 0.2679,-0.1103 0.4674,-0.3099 0.4674 -0.3099c 0.1996,-0.1996 0.3151,-0.4832 0.3151 -0.4832c 0.1155,-0.2836 0.1155,-0.6303 0.1155 -0.6303c 0.0000,-0.6933 -0.3887,-1.0819 -0.3887 -1.0819c -0.3887,-0.3887 -1.0399,-0.3887 -1.0399 -0.3887c -0.3466,-0.0000 -0.5935,0.1050 -0.5935 0.1050c -0.2468,0.1050 -0.5515,0.3046 -0.5515 0.3046l -0.4622,-0.2941 l 0.2206,-3.2248 h 3.3508 v 0.7458 h -2.5945 l -0.1786,1.9853 c 0.2416,-0.1261 0.4832,-0.1996 0.4832 -0.1996c 0.2416,-0.0735 0.5462,-0.0735 0.5462 -0.0735c 0.4307,0.0000 0.8088,0.1261 0.8088 0.1261c 0.3782,0.1261 0.6618,0.3834 0.6618 0.3834c 0.2836,0.2574 0.4464,0.6513 0.4464 0.6513c 0.1628,0.3939 0.1628,0.9401 0.1628 0.9401c 0.0000,0.5462 -0.1891,0.9664 -0.1891 0.9664c -0.1891,0.4202 -0.5042,0.7090 -0.5042 0.7090c -0.3151,0.2889 -0.7195,0.4412 -0.7195 0.4412c -0.4044,0.1523 -0.8456,0.1523 -0.8456 0.1523c -0.3992,-0.0000 -0.7300,-0.0788 -0.7300 -0.0788c -0.3309,-0.0788 -0.5987,-0.2048 -0.5987 -0.2048c -0.2679,-0.1261 -0.4832,-0.2889 -0.4832 -0.2889c -0.2153,-0.1628 -0.3834,-0.3414 -0.3834 -0.3414ZM 222.6930,570.0000 ZM 225.3086,570.1261 c -1.0189,-0.0000 -1.5861,-0.9034 -1.5861 -0.9034c -0.5672,-0.9034 -0.5672,-2.5945 -0.5672 -2.5945c 0.0000,-1.6912 0.5672,-2.5735 0.5672 -2.5735c 0.5672,-0.8824 1.5861,-0.8824 1.5861 -0.8824c 1.0084,0.0000 1.5756,0.8824 1.5756 0.8824c 0.5672,0.8824 0.5672,2.5735 0.5672 2.5735c 0.0000,1.6912 -0.5672,2.5945 -0.5672 2.5945c -0.5672,0.9034 -1.5756,0.9034 -1.5756 0.9034ZM 225.3086,570.1261 ZM 225.3086,569.4328 c 0.2941,0.0000 0.5305,-0.1628 0.5305 -0.1628c 0.2363,-0.1628 0.4097,-0.5042 0.4097 -0.5042c 0.1733,-0.3414 0.2679,-0.8718 0.2679 -0.8718c 0.0945,-0.5305 0.0945,-1.2658 0.0945 -1.2658c 0.0000,-0.7353 -0.0945,-1.2605 -0.0945 -1.2605c -0.0945,-0.5252 -0.2679,-0.8561 -0.2679 -0.8561c -0.1733,-0.3309 -0.4097,-0.4884 -0.4097 -0.4884c -0.2363,-0.1576 -0.5305,-0.1576 -0.5305 -0.1576c -0.2941,-0.0000 -0.5357,0.1576 -0.5357 0.1576c -0.2416,0.1576 -0.4149,0.4884 -0.4149 0.4884c -0.1733,0.3309 -0.2679,0.8561 -0.2679 0.8561c -0.0945,0.5252 -0.0945,1.2605 -0.0945 1.2605c 0.0000,1.4706 0.3624,2.1376 0.3624 2.1376c 0.3624,0.6670 0.9506,0.6670 0.9506 0.6670Z"/></g><defs></defs><g stroke-linejoin="bevel" stroke-opacity="0.0" fill-opacity="1.0" stroke="rgb(0,0,0)" stroke-width="0.0" fill="rgb(0,0,0)" stroke-linecap="butt" stroke-miterlimit="10.0"><path d="M 399.0415,570.0000 ZM 399.7243,568.6450 c 0.2941,0.3046 0.6985,0.5357 0.6985 0.5357c 0.4044,0.2311 0.9926,0.2311 0.9926 0.2311c 0.3046,0.0000 0.5725,-0.1103 0.5725 -0.1103c 0.2679,-0.1103 0.4674,-0.3099 0.4674 -0.3099c 0.1996,-0.1996 0.3151,-0.4832 0.3151 -0.4832c 0.1155,-0.2836 0.1155,-0.6303 0.1155 -0.6303c 0.0000,-0.6933 -0.3887,-1.0819 -0.3887 -1.0819c -0.3887,-0.3887 -1.0399,-0.3887 -1.0399 -0.3887c -0.3466,-0.0000 -0.5935,0.1050 -0.5935 0.1050c -0.2468,0.1050 -0.5515,0.3046 -0.5515 0.3046l -0.4622,-0.2941 l 0.2206,-3.2248 h 3.3508 v 0.7458 h -2.5945 l -0.1786,1.9853 c 0.2416,-0.1261 0.4832,-0.1996 0.4832 -0.1996c 0.2416,-0.0735 0.5462,-0.0735 0.5462 -0.0735c 0.4307,0.0000 0.8088,0.1261 0.8088 0.1261c 0.3782,0.1261 0.6618,0.3834 0.6618 0.3834c 0.2836,0.2574 0.4464,0.6513 0.4464 0.6513c 0.1628,0.3939 0.1628,0.9401 0.1628 0.9401c 0.0000,0.5462 -0.1891,0.9664 -0.1891 0.9664c -0.1891,0.4202 -0.5042,0.7090 -0.5042 0.7090c -0.3151,0.2889 -0.7195,0.4412 -0.7195 0.4412c -0.4044,0.1523 -0.8456,0.1523 -0.8456 0.1523c -0.3992,-0.0000 -0.7300,-0.0788 -0.7300 -0.0788c -0.3309,-0.0788 -0.5987,-0.2048 -0.5987 -0.2048c -0.2679,-0.1261 -0.4832,-0.2889 -0.4832 -0.2889c -0.2153,-0.1628 -0.3834,-0.3414 -0.3834 -0.3414ZM 404.2621,570.0000 ZM 406.8776,570.1261 c -1.0189,-0.0000 -1.5861,-0.9034 -1.5861 -0.9034c -0.5672,-0.9034 -0.5672,-2.5945 -0.5672 -2.5945c 0.0000,-1.6912 0.5672,-2.5735 0.5672 -2.5735c 0.5672,-0.8824 1.5861,-0.8824 1.5861 -0.8824c 1.0084,0.0000 1.5756,0.8824 1.5756 0.8824c 0.5672,0.8824 0.5672,2.5735 0.5672 2.5735c 0.0000,1.6912 -0.5672,2.5945 -0.5672 2.5945c -0.5672,0.9034 -1.5756,0.9034 -1.5756 0.9034ZM 406.8776,570.1261 ZM 406.8776,569.4328 c 0.2941,0.0000 0.5305,-0.1628 0.5305 -0.1628c 0.2363,-0.1628 0.4097,-0.5042 0.4097 -0.5042c 0.1733,-0.3414 0.2679,-0.8718 0.2679 -0.8718c 0.0945,-0.5305 0.0945,-1.2658 0.0945 -1.2658c 0.0000,-0.7353 -0.0945,-1.2605 -0.0945 -1.2605c -0.0945,-0.5252 -0.2679,-0.8561 -0.2679 -0.8561c -0.1733,-0.3309 -0.4097,-0.4884 -0.4097 -0.4884c -0.2363,-0.1576 -0.5305,-0.1576 -0.5305 -0.1576c -0.2941,-0.0000 -0.5357,0.1576 -0.5357 0.1576c -0.2416,0.1576 -0.4149,0.4884 -0.4149 0.4884c -0.1733,0.3309 -0.2679,0.8561 -0.2679 0.8561c -0.0945,0.5252 -0.0945,1.2605 -0.0945 1.2605c 0.0000,1.4706 0.3624,2.1376 0.3624 2.1376c 0.3624,0.6670 0.9506,0.6670 0.9506 0.6670ZM 409.4827,570.0000 ZM 412.0982,570.1261 c -1.0189,-0.0000 -1.5861,-0.9034 -1.5861 -0.9034c -0.5672,-0.9034 -0.5672,-2.5945 -0.5672 -2.5945c 0.0000,-1.6912 0.5672,-2.5735 0.5672 -2.5735c 0.5672,-0.8824 1.5861,-0.8824 1.5861 -0.8824c 1.0084,0.0000 1.5756,0.8824 1.5756 0.8824c 0.5672,0.8824 0.5672,2.5735 0.5672 2.5735c 0.0000,1.6912 -0.5672,2.5945 -0.5672 2.5945c -0.5672,0.9034 -1.5756,0.9034 -1.5756 0.9034ZM 412.0982,570.1261 ZM 412.0982,569.4328 c 0.2941,0.0000 0.5305,-0.1628 0.5305 -0.1628c 0.2363,-0.1628 0.4097,-0.5042 0.4097 -0.5042c 0.1733,-0.3414 0.2679,-0.8718 0.2679 -0.8718c 0.0945,-0.5305 0.0945,-1.2658 0.0945 -1.2658c 0.0000,-0.7353 -0.0945,-1.2605 -0.0945 -1.2605c -0.0945,-0.5252 -0.2679,-0.8561 -0.2679 -0.8561c -0.1733,-0.3309 -0.4097,-0.4884 -0.4097 -0.4884c -0.2363,-0.1576 -0.5305,-0.1576 -0.5305 -0.1576c -0.2941,-0.0000 -0.5357,0.1576 -0.5357 0.1576c -0.2416,0.1576 -0.4149,0.4884 -0.4149 0.4884c -0.1733,0.3309 -0.2679,0.8561 -0.2679 0.8561c -0.0945,0.5252 -0.0945,1.2605 -0.0945 1.2605c 0.0000,1.4706 0.3624,2.1376 0.3624 2.1376c 0.3624,0.6670 0.9506,0.6670 0.9506 0.6670Z"/></g><defs></defs><g stroke-linejoin="bevel" stroke-opacity="0.0" fill-opacity="1.0" stroke="rgb(0,0,0)" stroke-width="0.0" fill="rgb(0,0,0)" stroke-linecap="butt" stroke-miterlimit="10.0"><path d="M 585.9887,570.0000 ZM 587.8480,570.0000 c 0.0420,-0.9454 0.1681,-1.7332 0.1681 -1.7332c 0.1261,-0.7878 0.3519,-1.4968 0.3519 -1.4968c 0.2258,-0.7090 0.5777,-1.3708 0.5777 -1.3708c 0.3519,-0.6618 0.8456,-1.3550 0.8456 -1.3550h -3.3403 v -0.7458 h 4.3172 v 0.5357 c -0.5987,0.7563 -0.9716,1.4496 -0.9716 1.4496c -0.3729,0.6933 -0.5935,1.4128 -0.5935 1.4128c -0.2206,0.7195 -0.3204,1.5231 -0.3204 1.5231c -0.0998,0.8036 -0.1418,1.7805 -0.1418 1.7805h -0.8929 h 0.0000 ZM 591.2093,570.0000 ZM 591.8921,568.6450 c 0.2941,0.3046 0.6985,0.5357 0.6985 0.5357c 0.4044,0.2311 0.9926,0.2311 0.9926 0.2311c 0.3046,0.0000 0.5725,-0.1103 0.5725 -0.1103c 0.2679,-0.1103 0.4674,-0.3099 0.4674 -0.3099c 0.1996,-0.1996 0.3151,-0.4832 0.3151 -0.4832c 0.1155,-0.2836 0.1155,-0.6303 0.1155 -0.6303c 0.0000,-0.6933 -0.3887,-1.0819 -0.3887 -1.0819c -0.3887,-0.3887 -1.0399,-0.3887 -1.0399 -0.3887c -0.3466,-0.0000 -0.5935,0.1050 -0.5935 0.1050c -0.2468,0.1050 -0.5515,0.3046 -0.5515 0.3046l -0.4622,-0.2941 l 0.2206,-3.2248 h 3.3508 v 0.7458 h -2.5945 l -0.1786,1.9853 c 0.2416,-0.1261 0.4832,-0.1996 0.4832 -0.1996c 0.2416,-0.0735 0.5462,-0.0735 0.5462 -0.0735c 0.4307,0.0000 0.8088,0.1261 0.8088 0.1261c 0.3782,0.1261 0.6618,0.3834 0.6618 0.3834c 0.2836,0.2574 0.4464,0.6513 0.4464 0.6513c 0.1628,0.3939 0.1628,0.9401 0.1628 0.9401c 0.0000,0.5462 -0.1891,0.9664 -0.1891 0.9664c -0.1891,0.4202 -0.5042,0.7090 -0.5042 0.7090c -0.3151,0.2889 -0.7195,0.4412 -0.7195 0.4412c -0.4044,0.1523 -0.8456,0.1523 -0.8456 0.1523c -0.3992,-0.0000 -0.7300,-0.0788 -0.7300 -0.0788c -0.3309,-0.0788 -0.5987,-0.2048 -0.5987 -0.2048c -0.2679,-0.1261 -0.4832,-0.2889 -0.4832 -0.2889c -0.2153,-0.1628 -0.3834,-0.3414 -0.3834 -0.3414ZM 596.4299,570.0000 ZM 599.0454,570.1261 c -1.0189,-0.0000 -1.5861,-0.9034 -1.5861 -0.9034c -0.5672,-0.9034 -0.5672,-2.5945 -0.5672 -2.5945c 0.0000,-1.6912 0.5672,-2.5735 0.5672 -2.5735c 0.5672,-0.8824 1.5861,-0.8824 1.5861 -0.8824c 1.0084,0.0000 1.5756,0.8824 1.5756 0.8824c 0.5672,0.8824 0.5672,2.5735 0.5672 2.5735c 0.0000,1.6912 -0.5672,2.5945 -0.5672 2.5945c -0.5672,0.9034 -1.5756,0.9034 -1.5756 0.9034ZM 599.0454,570.1261 ZM 599.0454,569.4328 c 0.2941,0.0000 0.5305,-0.1628 0.5305 -0.1628c 0.2363,-0.1628 0.4097,-0.5042 0.4097 -0.5042c 0.1733,-0.3414 0.2679,-0.8718 0.2679 -0.8718c 0.0945,-0.5305 0.0945,-1.2658 0.0945 -1.2658c 0.0000,-0.7353 -0.0945,-1.2605 -0.0945 -1.2605c -0.0945,-0.5252 -0.2679,-0.8561 -0.2679 -0.8561c -0.1733,-0.3309 -0.4097,-0.4884 -0.4097 -0.4884c -0.2363,-0.1576 -0.5305,-0.1576 -0.5305 -0.1576c -0.2941,-0.0000 -0.5357,0.1576 -0.5357 0.1576c -0.2416,0.1576 -0.4149,0.4884 -0.4149 0.4884c -0.1733,0.3309 -0.2679,0.8561 -0.2679 0.8561c -0.0945,0.5252 -0.0945,1.2605 -0.0945 1.2605c 0.0000,1.4706 0.3624,2.1376 0.3624 2.1376c 0.3624,0.6670 0.9506,0.6670 0.9506 0.6670Z"/></g><defs></defs><g stroke-linejoin="bevel" stroke-opacity="0.0" fill-opacity="1.0" stroke="rgb(0,0,0)" stroke-width="0.0" fill="rgb(0,0,0)" stroke-linecap="butt" stroke-miterlimit="10.0"><path d="M 770.4097,570.0000 ZM 771.2395,569.2857 h 1.5336 v -4.9370 h -1.2185 v -0.5567 c 0.4622,-0.0840 0.8036,-0.2048 0.8036 -0.2048c 0.3414,-0.1208 0.6145,-0.2889 0.6145 -0.2889h 0.6618 v 5.9874 h 1.3866 v 0.7143 h -3.7815 v -0.7143 ZM 775.6303,570.0000 ZM 778.2458,570.1261 c -1.0189,-0.0000 -1.5861,-0.9034 -1.5861 -0.9034c -0.5672,-0.9034 -0.5672,-2.5945 -0.5672 -2.5945c 0.0000,-1.6912 0.5672,-2.5735 0.5672 -2.5735c 0.5672,-0.8824 1.5861,-0.8824 1.5861 -0.8824c 1.0084,0.0000 1.5756,0.8824 1.5756 0.8824c 0.5672,0.8824 0.5672,2.5735 0.5672 2.5735c 0.0000,1.6912 -0.5672,2.5945 -0.5672 2.5945c -0.5672,0.9034 -1.5756,0.9034 -1.5756 0.9034ZM 778.2458,570.1261 ZM 778.2458,569.4328 c 0.2941,0.0000 0.5305,-0.1628 0.5305 -0.1628c 0.2363,-0.1628 0.4097,-0.5042 0.4097 -0.5042c 0.1733,-0.3414 0.2679,-0.8718 0.2679 -0.8718c 0.0945,-0.5305 0.0945,-1.2658 0.0945 -1.2658c 0.0000,-0.7353 -0.0945,-1.2605 -0.0945 -1.2605c -0.0945,-0.5252 -0.2679,-0.8561 -0.2679 -0.8561c -0.1733,-0.3309 -0.4097,-0.4884 -0.4097 -0.4884c -0.2363,-0.1576 -0.5305,-0.1576 -0.5305 -0.1576c -0.2941,-0.0000 -0.5357,0.1576 -0.5357 0.1576c -0.2416,0.1576 -0.4149,0.4884 -0.4149 0.4884c -0.1733,0.3309 -0.2679,0.8561 -0.2679 0.8561c -0.0945,0.5252 -0.0945,1.2605 -0.0945 1.2605c 0.0000,1.4706 0.3624,2.1376 0.3624 2.1376c 0.3624,0.6670 0.9506,0.6670 0.9506 0.6670ZM 780.8508,570.0000 ZM 783.4664,570.1261 c -1.0189,-0.0000 -1.5861,-0.9034 -1.5861 -0.9034c -0.5672,-0.9034 -0.5672,-2.5945 -0.5672 -2.5945c 0.0000,-1.6912 0.5672,-2.5735 0.5672 -2.5735c 0.5672,-0.8824 1.5861,-0.8824 1.5861 -0.8824c 1.0084,0.0000 1.5756,0.8824 1.5756 0.8824c 0.5672,0.8824 0.5672,2.5735 0.5672 2.5735c 0.0000,1.6912 -0.5672,2.5945 -0.5672 2.5945c -0.5672,0.9034 -1.5756,0.9034 -1.5756 0.9034ZM 783.4664,570.1261 ZM 783.4664,569.4328 c 0.2941,0.0000 0.5305,-0.1628 0.5305 -0.1628c 0.2363,-0.1628 0.4097,-0.5042 0.4097 -0.5042c 0.1733,-0.3414 0.2679,-0.8718 0.2679 -0.8718c 0.0945,-0.5305 0.0945,-1.2658 0.0945 -1.2658c 0.0000,-0.7353 -0.0945,-1.2605 -0.0945 -1.2605c -0.0945,-0.5252 -0.2679,-0.8561 -0.2679 -0.8561c -0.1733,-0.3309 -0.4097,-0.4884 -0.4097 -0.4884c -0.2363,-0.1576 -0.5305,-0.1576 -0.5305 -0.1576c -0.2941,-0.0000 -0.5357,0.1576 -0.5357 0.1576c -0.2416,0.1576 -0.4149,0.4884 -0.4149 0.4884c -0.1733,0.3309 -0.2679,0.8561 -0.2679 0.8561c -0.0945,0.5252 -0.0945,1.2605 -0.0945 1.2605c 0.0000,1.4706 0.3624,2.1376 0.3624 2.1376c 0.3624,0.6670 0.9506,0.6670 0.9506 0.6670ZM 786.0714,570.0000 ZM 788.6870,570.1261 c -1.0189,-0.0000 -1.5861,-0.9034 -1.5861 -0.9034c -0.5672,-0.9034 -0.5672,-2.5945 -0.5672 -2.5945c 0.0000,-1.6912 0.5672,-2.5735 0.5672 -2.5735c 0.5672,-0.8824 1.5861,-0.8824 1.5861 -0.8824c 1.0084,0.0000 1.5756,0.8824 1.5756 0.8824c 0.5672,0.8824 0.5672,2.5735 0.5672 2.5735c 0.0000,1.6912 -0.5672,2.5945 -0.5672 2.5945c -0.5672,0.9034 -1.5756,0.9034 -1.5756 0.9034ZM 788.6870,570.1261 ZM 788.6870,569.4328 c 0.2941,0.0000 0.5305,-0.1628 0.5305 -0.1628c 0.2363,-0.1628 0.4097,-0.5042 0.4097 -0.5042c 0.1733,-0.3414 0.2679,-0.8718 0.2679 -0.8718c 0.0945,-0.5305 0.0945,-1.2658 0.0945 -1.2658c 0.0000,-0.7353 -0.0945,-1.2605 -0.0945 -1.2605c -0.0945,-0.5252 -0.2679,-0.8561 -0.2679 -0.8561c -0.1733,-0.3309 -0.4097,-0.4884 -0.4097 -0.4884c -0.2363,-0.1576 -0.5305,-0.1576 -0.5305 -0.1576c -0.2941,-0.0000 -0.5357,0.1576 -0.5357 0.1576c -0.2416,0.1576 -0.4149,0.4884 -0.4149 0.4884c -0.1733,0.3309 -0.2679,0.8561 -0.2679 0.8561c -0.0945,0.5252 -0.0945,1.2605 -0.0945 1.2605c 0.0000,1.4706 0.3624,2.1376 0.3624 2.1376c 0.3624,0.6670 0.9506,0.6670 0.9506 0.6670Z"/></g><defs></defs><g stroke-linejoin="round" stroke-opacity="1.0" fill-opacity="0.0" stroke="rgb(0,0,255)" stroke-width="0.9999999999999997" fill="rgb(0,0,0)" stroke-linecap="round" stroke-miterlimit="10.0"><path d="M 10.0000,585.0000 h 20.0000 "/></g><defs></defs><g stroke-linejoin="bevel" stroke-opacity="0.0" fill-opacity="1.0" stroke="rgb(0,0,0)" stroke-width="0.0" fill="rgb(0,0,0)" stroke-linecap="butt" stroke-miterlimit="10.0"><path d="M 35.0735,586.6071 ZM 36.0819,582.2059 h -0.7563 v -0.6513 l 0.7983,-0.0525 l 0.1050,-1.4286 h 0.7248 v 1.4286 h 1.3761 v 0.7038 h -1.3761 v 2.8361 c 0.0000,0.4727 0.1733,0.7300 0.1733 0.7300c 0.1733,0.2574 0.6145,0.2574 0.6145 0.2574c 0.1366,0.0000 0.2941,-0.0420 0.2941 -0.0420c 0.1576,-0.0420 0.2836,-0.0945 0.2836 -0.0945l 0.1681,0.6513 c -0.2101,0.0735 -0.4569,0.1313 -0.4569 0.1313c -0.2468,0.0578 -0.4884,0.0578 -0.4884 0.0578c -0.4097,-0.0000 -0.6880,-0.1261 -0.6880 -0.1261c -0.2784,-0.1261 -0.4517,-0.3466 -0.4517 -0.3466c -0.1733,-0.2206 -0.2468,-0.5357 -0.2468 -0.5357c -0.0735,-0.3151 -0.0735,-0.6933 -0.0735 -0.6933v -2.8256 ZM 38.6239,586.6071 ZM 39.9265,580.4517 c -0.2521,-0.0000 -0.4254,-0.1576 -0.4254 -0.1576c -0.1733,-0.1576 -0.1733,-0.3992 -0.1733 -0.3992c 0.0000,-0.2521 0.1733,-0.4044 0.1733 -0.4044c 0.1733,-0.1523 0.4254,-0.1523 0.4254 -0.1523c 0.2521,0.0000 0.4254,0.1523 0.4254 0.1523c 0.1733,0.1523 0.1733,0.4044 0.1733 0.4044c 0.0000,0.2416 -0.1733,0.3992 -0.1733 0.3992c -0.1733,0.1576 -0.4254,0.1576 -0.4254 0.1576ZM 39.9265,580.4517 ZM 39.4853,581.5021 h 0.8613 v 5.1050 h -0.8613 v -5.1050 ZM 41.2080,586.6071 ZM 42.0693,581.5021 h 0.7143 l 0.0735,0.7353 h 0.0315 c 0.3361,-0.3676 0.7300,-0.6145 0.7300 -0.6145c 0.3939,-0.2468 0.8561,-0.2468 0.8561 -0.2468c 0.5882,0.0000 0.9191,0.2574 0.9191 0.2574c 0.3309,0.2574 0.4884,0.7195 0.4884 0.7195c 0.3992,-0.4412 0.8036,-0.7090 0.8036 -0.7090c 0.4044,-0.2679 0.8771,-0.2679 0.8771 -0.2679c 0.7878,0.0000 1.1712,0.5042 1.1712 0.5042c 0.3834,0.5042 0.3834,1.4916 0.3834 1.4916v 3.2353 h -0.8613 v -3.1197 c 0.0000,-0.7248 -0.2311,-1.0452 -0.2311 -1.0452c -0.2311,-0.3204 -0.7143,-0.3204 -0.7143 -0.3204c -0.5777,-0.0000 -1.2815,0.7878 -1.2815 0.7878v 3.6975 h -0.8613 v -3.1197 c 0.0000,-0.7248 -0.2311,-1.0452 -0.2311 -1.0452c -0.2311,-0.3204 -0.7248,-0.3204 -0.7248 -0.3204c -0.5777,-0.0000 -1.2815,0.7878 -1.2815 0.7878v 3.6975 h -0.8613 v -5.1050 ZM 49.9160,586.6071 ZM 50.3992,584.0651 c 0.0000,-0.6303 0.1943,-1.1292 0.1943 -1.1292c 0.1943,-0.4989 0.5147,-0.8456 0.5147 -0.8456c 0.3204,-0.3466 0.7300,-0.5305 0.7300 -0.5305c 0.4097,-0.1838 0.8508,-0.1838 0.8508 -0.1838c 0.4832,0.0000 0.8666,0.1681 0.8666 0.1681c 0.3834,0.1681 0.6408,0.4832 0.6408 0.4832c 0.2574,0.3151 0.3939,0.7563 0.3939 0.7563c 0.1366,0.4412 0.1366,0.9874 0.1366 0.9874c 0.0000,0.2836 -0.0315,0.4727 -0.0315 0.4727h -3.4454 c 0.0525,0.8298 0.5095,1.3130 0.5095 1.3130c 0.4569,0.4832 1.1922,0.4832 1.1922 0.4832c 0.3676,0.0000 0.6775,-0.1103 0.6775 -0.1103c 0.3099,-0.1103 0.5935,-0.2889 0.5935 -0.2889l 0.3046,0.5672 c -0.3361,0.2101 -0.7458,0.3676 -0.7458 0.3676c -0.4097,0.1576 -0.9349,0.1576 -0.9349 0.1576c -0.5147,-0.0000 -0.9611,-0.1838 -0.9611 -0.1838c -0.4464,-0.1838 -0.7773,-0.5252 -0.7773 -0.5252c -0.3309,-0.3414 -0.5200,-0.8351 -0.5200 -0.8351c -0.1891,-0.4937 -0.1891,-1.1239 -0.1891 -1.1239ZM 50.3992,584.0651 ZM 53.9706,583.6765 c 0.0000,-0.7878 -0.3309,-1.2027 -0.3309 -1.2027c -0.3309,-0.4149 -0.9296,-0.4149 -0.9296 -0.4149c -0.2731,-0.0000 -0.5200,0.1103 -0.5200 0.1103c -0.2468,0.1103 -0.4464,0.3151 -0.4464 0.3151c -0.1996,0.2048 -0.3309,0.5042 -0.3309 0.5042c -0.1313,0.2994 -0.1733,0.6880 -0.1733 0.6880h 2.7311 ZM 57.2479,586.6071 ZM 57.7311,584.0651 c 0.0000,-0.6303 0.1943,-1.1292 0.1943 -1.1292c 0.1943,-0.4989 0.5147,-0.8456 0.5147 -0.8456c 0.3204,-0.3466 0.7300,-0.5305 0.7300 -0.5305c 0.4097,-0.1838 0.8508,-0.1838 0.8508 -0.1838c 0.4832,0.0000 0.8666,0.1681 0.8666 0.1681c 0.3834,0.1681 0.6408,0.4832 0.6408 0.4832c 0.2574,0.3151 0.3939,0.7563 0.3939 0.7563c 0.1366,0.4412 0.1366,0.9874 0.1366 0.9874c 0.0000,0.2836 -0.0315,0.4727 -0.0315 0.4727h -3.4454 c 0.0525,0.8298 0.5095,1.3130 0.5095 1.3130c 0.4569,0.4832 1.1922,0.4832 1.1922 0.4832c 0.3676,0.0000 0.6775,-0.1103 0.6775 -0.1103c 0.3099,-0.1103 0.5935,-0.2889 0.5935 -0.2889l 0.3046,0.5672 c -0.3361,0.2101 -0.7458,0.3676 -0.7458 0.3676c -0.4097,0.1576 -0.9349,0.1576 -0.9349 0.1576c -0.5147,-0.0000 -0.9611,-0.1838 -0.9611 -0.1838c -0.4464,-0.1838 -0.7773,-0.5252 -0.7773 -0.5252c -0.3309,-0.3414 -0.5200,-0.8351 -0.5200 -0.8351c -0.1891,-0.4937 -0.1891,-1.1239 -0.1891 -1.1239ZM 57.7311,584.0651 ZM 61.3025,583.6765 c 0.0000,-0.7878 -0.3309,-1.2027 -0.3309 -1.2027c -0.3309,-0.4149 -0.9296,-0.4149 -0.9296 -0.4149c -0.2731,-0.0000 -0.5200,0.1103 -0.5200 0.1103c -0.2468,0.1103 -0.4464,0.3151 -0.4464 0.3151c -0.1996,0.2048 -0.3309,0.5042 -0.3309 0.5042c -0.1313,0.2994 -0.1733,0.6880 -0.1733 0.6880h 2.7311 ZM 62.4580,586.6071 ZM 63.3193,581.5021 h 0.7143 l 0.0735,0.9244 h 0.0315 c 0.2626,-0.4832 0.6355,-0.7668 0.6355 -0.7668c 0.3729,-0.2836 0.8141,-0.2836 0.8141 -0.2836c 0.3046,0.0000 0.5462,0.1050 0.5462 0.1050l -0.1681,0.7563 c -0.1261,-0.0420 -0.2311,-0.0630 -0.2311 -0.0630c -0.1050,-0.0210 -0.2626,-0.0210 -0.2626 -0.0210c -0.3256,-0.0000 -0.6775,0.2626 -0.6775 0.2626c -0.3519,0.2626 -0.6145,0.9139 -0.6145 0.9139v 3.2773 h -0.8613 v -5.1050 ZM 66.1029,586.6071 ZM 66.9643,581.5021 h 0.7143 l 0.0735,0.9244 h 0.0315 c 0.2626,-0.4832 0.6355,-0.7668 0.6355 -0.7668c 0.3729,-0.2836 0.8141,-0.2836 0.8141 -0.2836c 0.3046,0.0000 0.5462,0.1050 0.5462 0.1050l -0.1681,0.7563 c -0.1261,-0.0420 -0.2311,-0.0630 -0.2311 -0.0630c -0.1050,-0.0210 -0.2626,-0.0210 -0.2626 -0.0210c -0.3256,-0.0000 -0.6775,0.2626 -0.6775 0.2626c -0.3519,0.2626 -0.6145,0.9139 -0.6145 0.9139v 3.2773 h -0.8613 v -5.1050 ZM 69.6429,586.6071 ZM 70.1261,584.0651 c 0.0000,-0.6408 0.1943,-1.1397 0.1943 -1.1397c 0.1943,-0.4989 0.5200,-0.8456 0.5200 -0.8456c 0.3256,-0.3466 0.7511,-0.5252 0.7511 -0.5252c 0.4254,-0.1786 0.8981,-0.1786 0.8981 -0.1786c 0.4727,0.0000 0.8981,0.1786 0.8981 0.1786c 0.4254,0.1786 0.7511,0.5252 0.7511 0.5252c 0.3256,0.3466 0.5200,0.8456 0.5200 0.8456c 0.1943,0.4989 0.1943,1.1397 0.1943 1.1397c 0.0000,0.6303 -0.1943,1.1292 -0.1943 1.1292c -0.1943,0.4989 -0.5200,0.8403 -0.5200 0.8403c -0.3256,0.3414 -0.7511,0.5200 -0.7511 0.5200c -0.4254,0.1786 -0.8981,0.1786 -0.8981 0.1786c -0.4727,-0.0000 -0.8981,-0.1786 -0.8981 -0.1786c -0.4254,-0.1786 -0.7511,-0.5200 -0.7511 -0.5200c -0.3256,-0.3414 -0.5200,-0.8403 -0.5200 -0.8403c -0.1943,-0.4989 -0.1943,-1.1292 -0.1943 -1.1292ZM 70.1261,584.0651 ZM 71.0189,584.0651 c 0.0000,0.4412 0.1050,0.7983 0.1050 0.7983c 0.1050,0.3571 0.2994,0.6145 0.2994 0.6145c 0.1943,0.2574 0.4674,0.3992 0.4674 0.3992c 0.2731,0.1418 0.5987,0.1418 0.5987 0.1418c 0.3256,0.0000 0.5987,-0.1418 0.5987 -0.1418c 0.2731,-0.1418 0.4674,-0.3992 0.4674 -0.3992c 0.1943,-0.2574 0.2994,-0.6145 0.2994 -0.6145c 0.1050,-0.3571 0.1050,-0.7983 0.1050 -0.7983c 0.0000,-0.4412 -0.1050,-0.8036 -0.1050 -0.8036c -0.1050,-0.3624 -0.2994,-0.6250 -0.2994 -0.6250c -0.1943,-0.2626 -0.4674,-0.4044 -0.4674 -0.4044c -0.2731,-0.1418 -0.5987,-0.1418 -0.5987 -0.1418c -0.3256,-0.0000 -0.5987,0.1418 -0.5987 0.1418c -0.2731,0.1418 -0.4674,0.4044 -0.4674 0.4044c -0.1943,0.2626 -0.2994,0.6250 -0.2994 0.6250c -0.1050,0.3624 -0.1050,0.8036 -0.1050 0.8036ZM 75.3361,586.6071 ZM 76.1975,581.5021 h 0.7143 l 0.0735,0.9244 h 0.0315 c 0.2626,-0.4832 0.6355,-0.7668 0.6355 -0.7668c 0.3729,-0.2836 0.8141,-0.2836 0.8141 -0.2836c 0.3046,0.0000 0.5462,0.1050 0.5462 0.1050l -0.1681,0.7563 c -0.1261,-0.0420 -0.2311,-0.0630 -0.2311 -0.0630c -0.1050,-0.0210 -0.2626,-0.0210 -0.2626 -0.0210c -0.3256,-0.0000 -0.6775,0.2626 -0.6775 0.2626c -0.3519,0.2626 -0.6145,0.9139 -0.6145 0.9139v 3.2773 h -0.8613 v -5.1050 Z"/></g></svg>