<?xml version="1.0" encoding="UTF-8"?>
<!DOCTYPE svg PUBLIC "-//W3C//DTD SVG 1.1//EN"
    "http://www.w3.org/Graphics/SVG/1.1/DTD/svg11.dtd"><svg xmlns="http://www.w3.org/2000/svg" height="600.0000" stroke-opacity="1" viewBox="0 0 800 600" font-size="1" width="800.0000" xmlns:xlink="http://www.w3.org/1999/xlink" stroke="rgb(0,0,0)" version="1.1"><defs></defs><defs></defs><g stroke-linejoin="bevel" stroke-opacity="0.0" fill-opacity="1.0" stroke="rgb(0,0,0)" stroke-width="0.0" fill="rgb(255,255,255)" stroke-linecap="butt" stroke-miterlimit="10.0"><path d="M 0.0000,0.0000 v 600.0000 h 800.0000 v -600.0000 Z"/></g><defs></defs><g stroke-linejoin="miter" stroke-opacity="1.0" fill-opacity="0.0" stroke="rgb(211,211,211)" stroke-width="0.9999999999999997" fill="rgb(0,0,0)" stroke-dashoffset="0.0" stroke-linecap="butt" stroke-miterlimit="10.0" stroke-dasharray="4.999999999999998,4.999999999999998"><path d="M 27.5840,15.0000 v 535.0000 "/></g><defs></defs><g stroke-linejoin="miter" stroke-opacity="1.0" fill-opacity="0.0" stroke="rgb(211,211,211)" stroke-width="0.9999999999999997" fill="rgb(0,0,0)" stroke-dashoffset="0.0" stroke-linecap="butt" stroke-miterlimit="10.0" stroke-dasharray="4.999999999999998,4.999999999999998"><path d="M 215.7392,15.0000 v 535.0000 "/></g><defs></defs><g stroke-linejoin="miter" stroke-opacity="1.0" fill-opacity="0.0" stroke="rgb(211,211,211)" stroke-width="0.9999999999999997" fill="rgb(0,0,0)" stroke-dashoffset="0.0" stroke-linecap="butt" stroke-miterlimit="10.0" stroke-dasharray="4.999999999999998,4.999999999999998"><path d="M 403.8944,15.0000 v 535.0000 "/></g><defs></defs><g stroke-linejoin="miter" stroke-opacity="1.0" fill-opacity="0.0" stroke="rgb(211,211,211)" stroke-width="0.9999999999999997" fill="rgb(0,0,0)" stroke-dashoffset="0.0" stroke-linecap="butt" stroke-miterlimit="10.0" stroke-dasharray="4.999999999999998,4.999999999999998"><path d="M 592.0496,15.0000 v 535.0000 "/></g><defs></defs><g stroke-linejoin="miter" stroke-opacity="1.0" fill-opacity="0.0" stroke="rgb(211,211,211)" stroke-width="0.9999999999999997" fill="rgb(0,0,0)" stroke-dashoffset="0.0" stroke-linecap="butt" stroke-miterlimit="10.0" stroke-dasharray="4.999999999999998,4.999999999999998"><path d="M 780.2048,15.0000 v 535.0000 "/></g><defs></defs><g stroke-linejoin="miter" stroke-opacity="1.0" fill-opacity="0.0" stroke="rgb(211,211,211)" stroke-width="0.9999999999999997" fill="rgb(0,0,0)" stroke-dashoffset="0.0" stroke-linecap="butt" stroke-miterlimit="10.0" stroke-dasharray="4.999999999999998,4.999999999999998"><path d="M 27.5840,550.0000 h 752.6208 "/></g><defs></defs><g stroke-linejoin="miter" stroke-opacity="1.0" fill-opacity="0.0" stroke="rgb(211,211,211)" stroke-width="0.9999999999999997" fill="rgb(0,0,0)" stroke-dashoffset="0.0" stroke-linecap="butt" stroke-miterlimit="10.0" stroke-dasharray="4.999999999999998,4.999999999999998"><path d="M 27.5840,416.2500 h 752.6208 "/></g><defs></defs><g stroke-linejoin="miter" stroke-opacity="1.0" fill-opacity="0.0" stroke="rgb(211,211,211)" stroke-width="0.9999999999999997" fill="rgb(0,0,0)" stroke-dashoffset="0.0" stroke-linecap="butt" stroke-miterlimit="10.0" stroke-dasharray="4.999999999999998,4.999999999999998"><path d="M 27.5840,282.5000 h 752.6208 "/></g><defs></defs><g stroke-linejoin="miter" stroke-opacity="1.0" fill-opacity="0.0" stroke="rgb(211,211,211)" stroke-width="0.9999999999999997" fill="rgb(0,0,0)" stroke-dashoffset="0.0" stroke-linecap="butt" stroke-miterlimit="10.0" stroke-dasharray="4.999999999999998,4.999999999999998"><path d="M 27.5840,148.7500 h 752.6208 "/></g><defs></defs><g stroke-linejoin="miter" stroke-opacity="1.0" fill-opacity="0.0" stroke="rgb(211,211,211)" stroke-width="0.9999999999999997" fill="rgb(0,0,0)" stroke-dashoffset="0.0" stroke-linecap="butt" stroke-miterlimit="10.0" stroke-dasharray="4.999999999999998,4.999999999999998"><path d="M 27.5840,15.0000 h 752.6208 "/></g><defs></defs><g stroke-linejoin="round" stroke-opacity="1.0" fill-opacity="0.0" stroke="rgb(0,0,255)" stroke-width="0.9999999999999997" fill="rgb(0,0,0)" stroke-linecap="round" stroke-miterlimit="10.0"><defs><clipPath id="myClip1"><path d="M 27.5840,15.0000 v 535.0000 h 752.6208 v -535.0000 Z"/></clipPath></defs><g clip-path="url(#myClip1)"><path d="M 28.3367,284.3085 l 0.7526,-110.5787 l 0.7526,196.6773 l 0.7526,16.9900 l 0.7526,-10.2764 l 0.7526,-67.6379 l 0.7526,29.3277 l 0.7526,-54.4359 l 0.7526,-5.0007 l 0.7526,-89.0440 l 0.7526,132.5041 l 0.7526,-64.9323 l 0.7526,-99.7792 l 0.7526,51.2765 l 0.7526,117.0939 l 0.7526,-63.5340 l 0.7526,-73.1566 l 0.7526,-10.2548 l 0.7526,170.2583 l 0.7526,-31.6868 l 0.7526,24.7638 l 0.7526,-218.7247 l 0.7526,250.9185 l 0.7526,-98.6803 l 0.7526,-179.5800 l 0.7526,189.4538 l 0.7526,88.8330 l 0.7526,-239.7215 l 0.7526,165.4270 l 0.7526,11.2141 l 0.7526,-97.4052 l 0.7526,34.2274 l 0.7526,-149.8169 l 0.7526,172.0886 l 0.7526,-24.5284 l 0.7526,129.8761 l 0.7526,-108.4023 l 0.7526,-39.7502 l 0.7526,90.0258 l 0.7526,29.7385 l 0.7526,49.9393 l 0.7526,-241.2326 l 0.7526,42.9488 l 0.7526,116.2792 l 0.7526,-36.2650 l 0.7526,-55.7357 l 0.7526,-18.4841 l 0.7526,137.3999 l 0.7526,-65.4343 l 0.7526,-91.3195 l 0.7526,28.5603 l 0.7526,66.2882 l 0.7526,18.2040 l 0.7526,9.6834 l 0.7526,-16.8615 l 0.7526,67.2393 l 0.7526,14.3927 l 0.7526,41.8830 l 0.7526,-131.4808 l 0.7526,-45.8006 l 0.7526,71.7753 l 0.7526,-69.2743 l 0.7526,1.8006 l 0.7526,99.6096 l 0.7526,4.3858 l 0.7526,24.5322 l 0.7526,-101.3885 l 0.7526,98.9890 l 0.7526,-20.3973 l 0.7526,-173.7652 l 0.7526,174.3821 l 0.7526,60.7234 l 0.7526,-114.7413 l 0.7526,-20.3599 l 0.7526,-69.1191 l 0.7526,9.2102 l 0.7526,102.2277 l 0.7526,6.9813 l 0.7526,-40.1905 l 0.7526,68.2852 l 0.7526,-45.7470 l 0.7526,51.1605 l 0.7526,-262.5486 l 0.7526,231.8404 l 0.7526,61.6941 l 0.7526,-84.3666 l 0.7526,-58.0747 l 0.7526,16.4497 l 0.7526,-94.0381 l 0.7526,159.6763 l 0.7526,-104.1737 l 0.7526,38.5093 l 0.7526,-93.3497 l 0.7526,204.7033 l 0.7526,-81.5483 l 0.7526,80.3701 l 0.7526,17.4074 l 0.7526,-142.3838 l 0.7526,52.8585 l 0.7526,-64.4373 l 0.7526,-57.9540 l 0.7526,150.4836 l 0.7526,-84.8846 l 0.7526,-29.0793 l 0.7526,31.9005 l 0.7526,-24.8093 l 0.7526,166.6781 l 0.7526,-109.4593 l 0.7526,32.7843 l 0.7526,-207.3139 l 0.7526,162.9160 l 0.7526,-9.3772 l 0.7526,218.4581 l 0.7526,-233.0746 l 0.7526,39.1165 l 0.7526,-28.6000 l 0.7526,57.9760 l 0.7526,-59.5951 l 0.7526,64.8047 l 0.7526,11.8471 l 0.7526,-211.7837 l 0.7526,197.0096 l 0.7526,-125.8159 l 0.7526,177.0721 l 0.7526,-27.3450 l 0.7526,-118.8538 l 0.7526,-50.0743 l 0.7526,-106.8724 l 0.7526,290.8068 l 0.7526,-62.5534 l 0.7526,-31.3468 l 0.7526,69.8323 l 0.7526,-73.6654 l 0.7526,9.4431 l 0.7526,90.4050 l 0.7526,-138.5852 l 0.7526,114.9213 l 0.7526,-117.3775 l 0.7526,-24.5478 l 0.7526,130.2748 l 0.7526,82.7731 l 0.7526,-103.2764 l 0.7526,0.7144 l 0.7526,-103.1699 l 0.7526,3.9108 l 0.7526,134.6129 l 0.7526,-127.4320 l 0.7526,90.5340 l 0.7526,-6.2933 l 0.7526,130.1662 l 0.7526,-258.7140 l 0.7526,130.5516 l 0.7526,-239.9999 l 0.7526,181.5645 l 0.7526,-9.0173 l 0.7526,97.3048 l 0.7526,30.1907 l 0.7526,-76.4135 l 0.7526,-19.2746 l 0.7526,-29.3407 l 0.7526,111.5437 l 0.7526,-68.1816 l 0.7526,159.7827 l 0.7526,-21.1258 l 0.7526,-268.6887 l 0.7526,202.6127 l 0.7526,-81.2090 l 0.7526,-140.9484 l 0.7526,106.1262 l 0.7526,-39.3427 l 0.7526,-31.6421 l 0.7526,83.8017 l 0.7526,-76.2162 l 0.7526,105.8440 l 0.7526,26.5784 l 0.7526,96.1472 l 0.7526,-119.7321 l 0.7526,108.4699 l 0.7526,-31.6585 l 0.7526,-105.9888 l 0.7526,172.9379 l 0.7526,-190.8711 l 0.7526,178.4505 l 0.7526,-97.2819 l 0.7526,-76.0272 l 0.7526,-108.6392 l 0.7526,96.4446 l 0.7526,27.1566 l 0.7526,8.6749 l 0.7526,41.6017 l 0.7526,46.4952 l 0.7526,2.1638 l 0.7526,18.6101 l 0.7526,110.9017 l 0.7526,-146.5694 l 0.7526,57.1204 l 0.7526,-108.2214 l 0.7526,32.2288 l 0.7526,-75.1539 l 0.7526,47.2409 l 0.7526,35.0634 l 0.7526,79.2960 l 0.7526,-147.5363 l 0.7526,-18.0659 l 0.7526,90.5539 l 0.7526,69.5518 l 0.7526,-124.1045 l 0.7526,3.0215 l 0.7526,-3.2232 l 0.7526,126.2877 l 0.7526,-196.5199 l 0.7526,179.2071 l 0.7526,-106.8991 l 0.7526,33.7663 l 0.7526,-40.0418 l 0.7526,-29.7966 l 0.7526,115.7746 l 0.7526,-62.5188 l 0.7526,11.9368 l 0.7526,-31.4229 l 0.7526,93.0718 l 0.7526,-79.6581 l 0.7526,6.4479 l 0.7526,-78.4641 l 0.7526,92.6300 l 0.7526,6.4440 l 0.7526,-15.8483 l 0.7526,-124.6521 l 0.7526,171.0433 l 0.7526,49.0426 l 0.7526,-93.3305 l 0.7526,-12.9908 l 0.7526,27.5901 l 0.7526,-140.6538 l 0.7526,133.5246 l 0.7526,-54.1434 l 0.7526,52.7638 l 0.7526,-60.2464 l 0.7526,36.9699 l 0.7526,-23.7095 l 0.7526,34.4533 l 0.7526,-89.5946 l 0.7526,204.6057 l 0.7526,-118.3767 l 0.7526,-61.2890 l 0.7526,-15.1059 l 0.7526,44.1892 l 0.7526,141.2332 l 0.7526,-96.2507 l 0.7526,84.9052 l 0.7526,-173.2409 l 0.7526,214.1706 l 0.7526,-181.9441 l 0.7526,98.0637 l 0.7526,-126.1455 l 0.7526,-73.2271 l 0.7526,225.4134 l 0.7526,-139.3161 l 0.7526,79.3346 l 0.7526,-29.9199 l 0.7526,-108.8724 l 0.7526,-13.7243 l 0.7526,68.2391 l 0.7526,-55.9471 l 0.7526,270.7982 l 0.7526,-95.1708 l 0.7526,-109.4340 l 0.7526,-28.4205 l 0.7526,17.7221 l 0.7526,86.6057 l 0.7526,-117.9448 l 0.7526,110.7436 l 0.7526,43.7251 l 0.7526,-92.1076 l 0.7526,-42.4939 l 0.7526,-30.0686 l 0.7526,93.2398 l 0.7526,4.9842 l 0.7526,68.9999 l 0.7526,-85.7238 l 0.7526,101.7674 l 0.7526,-126.1637 l 0.7526,50.5710 l 0.7526,38.8219 l 0.7526,-95.3415 l 0.7526,-45.0125 l 0.7526,169.5557 l 0.7526,-205.5573 l 0.7526,133.0370 l 0.7526,36.8152 l 0.7526,-59.5568 l 0.7526,53.5884 l 0.7526,-37.4779 l 0.7526,-20.7952 l 0.7526,-95.0788 l 0.7526,250.8181 l 0.7526,-113.3243 l 0.7526,-56.9227 l 0.7526,13.1101 l 0.7526,41.0852 l 0.7526,-24.3846 l 0.7526,116.5746 l 0.7526,-16.4367 l 0.7526,-44.2945 l 0.7526,27.0487 l 0.7526,3.2069 l 0.7526,-153.7137 l 0.7526,17.5412 l 0.7526,7.0458 l 0.7526,61.7609 l 0.7526,6.4840 l 0.7526,-76.4674 l 0.7526,26.0144 l 0.7526,90.4404 l 0.7526,-91.7076 l 0.7526,81.4399 l 0.7526,76.5218 l 0.7526,-111.1721 l 0.7526,51.4666 l 0.7526,-71.0452 l 0.7526,17.9957 l 0.7526,0.2824 l 0.7526,-39.6762 l 0.7526,146.6550 l 0.7526,-146.2874 l 0.7526,-70.9042 l 0.7526,60.3298 l 0.7526,174.6876 l 0.7526,-135.7216 l 0.7526,69.4417 l 0.7526,-57.3544 l 0.7526,-35.6093 l 0.7526,25.1517 l 0.7526,254.1490 l 0.7526,-83.0678 l 0.7526,-212.9045 l 0.7526,-45.8234 l 0.7526,31.6359 l 0.7526,37.3844 l 0.7526,-52.7374 l 0.7526,57.0196 l 0.7526,108.0248 l 0.7526,-126.9508 l 0.7526,42.9501 l 0.7526,81.2861 l 0.7526,-187.0475 l 0.7526,202.0327 l 0.7526,-145.9112 l 0.7526,16.2669 l 0.7526,112.3392 l 0.7526,-35.3486 l 0.7526,41.9621 l 0.7526,-111.6457 l 0.7526,-15.9232 l 0.7526,189.2883 l 0.7526,-111.8875 l 0.7526,-3.8172 l 0.7526,-127.0290 l 0.7526,155.5563 l 0.7526,30.3563 l 0.7526,17.9184 l 0.7526,-92.3335 l 0.7526,-172.4574 l 0.7526,156.0075 l 0.7526,-19.9964 l 0.7526,18.6019 l 0.7526,96.6290 l 0.7526,-68.6497 l 0.7526,68.5844 l 0.7526,27.4809 l 0.7526,-60.1442 l 0.7526,-186.8268 l 0.7526,44.8598 l 0.7526,53.6866 l 0.7526,65.8990 l 0.7526,-20.3714 l 0.7526,-137.8355 l 0.7526,102.1624 l 0.7526,-43.7863 l 0.7526,64.2072 l 0.7526,25.3748 l 0.7526,51.3374 l 0.7526,-222.8932 l 0.7526,78.1068 l 0.7526,49.5883 l 0.7526,39.8733 l 0.7526,33.5537 l 0.7526,-207.6957 l 0.7526,47.1048 l 0.7526,56.8179 l 0.7526,18.6618 l 0.7526,-27.5492 l 0.7526,-23.5375 l 0.7526,9.7211 l 0.7526,73.1046 l 0.7526,-164.6177 l 0.7526,282.7445 l 0.7526,-132.4631 l 0.7526,-72.3930 l 0.7526,-11.2535 l 0.7526,-71.6282 l 0.7526,81.0219 l 0.7526,69.7141 l 0.7526,60.4572 l 0.7526,-13.8553 l 0.7526,-147.9010 l 0.7526,88.5491 l 0.7526,3.7949 l 0.7526,-42.7065 l 0.7526,92.3662 l 0.7526,-102.1269 l 0.7526,23.4641 l 0.7526,81.1321 l 0.7526,-183.0079 l 0.7526,199.7318 l 0.7526,-44.4785 l 0.7526,-168.1224 l 0.7526,80.0961 l 0.7526,26.3064 l 0.7526,-20.5750 l 0.7526,163.5105 l 0.7526,-115.7538 l 0.7526,1.7647 l 0.7526,82.5485 l 0.7526,-74.8107 l 0.7526,-49.3354 l 0.7526,126.0325 l 0.7526,-222.8983 l 0.7526,77.2356 l 0.7526,96.8715 l 0.7526,-58.4742 l 0.7526,-31.2382 l 0.7526,160.4891 l 0.7526,-74.3510 l 0.7526,-138.2932 l 0.7526,127.9184 l 0.7526,197.7566 l 0.7526,-286.2626 l 0.7526,132.5382 l 0.7526,-6.7341 l 0.7526,135.4243 l 0.7526,-168.2167 l 0.7526,-29.0205 l 0.7526,-32.1325 l 0.7526,97.6612 l 0.7526,35.0243 l 0.7526,-78.6668 l 0.7526,66.7644 l 0.7526,-112.7950 l 0.7526,14.7501 l 0.7526,70.6189 l 0.7526,-152.7910 l 0.7526,17.6512 l 0.7526,99.3434 l 0.7526,34.5915 l 0.7526,-59.8517 l 0.7526,196.7253 l 0.7526,-283.9227 l 0.7526,107.3177 l 0.7526,-52.5943 l 0.7526,157.7153 l 0.7526,-121.0600 l 0.7526,0.1363 l 0.7526,68.4193 l 0.7526,0.5487 l 0.7526,-92.5668 l 0.7526,58.5360 l 0.7526,30.2412 l 0.7526,-103.5650 l 0.7526,60.1991 l 0.7526,-14.1979 l 0.7526,-66.6481 l 0.7526,206.9600 l 0.7526,-86.2863 l 0.7526,-76.3037 l 0.7526,82.8669 l 0.7526,0.1220 l 0.7526,3.9446 l 0.7526,-51.1479 l 0.7526,47.8930 l 0.7526,39.9348 l 0.7526,-225.9271 l 0.7526,60.8386 l 0.7526,-21.7929 l 0.7526,109.7618 l 0.7526,41.1217 l 0.7526,-35.7742 l 0.7526,-24.9027 l 0.7526,59.8945 l 0.7526,8.6755 l 0.7526,-41.9672 l 0.7526,-22.1659 l 0.7526,-36.0053 l 0.7526,-49.7618 l 0.7526,82.3173 l 0.7526,36.7111 l 0.7526,27.8278 l 0.7526,13.6336 l 0.7526,-141.7701 l 0.7526,-26.7011 l 0.7526,87.7557 l 0.7526,-165.4734 l 0.7526,182.4397 l 0.7526,-79.0197 l 0.7526,89.0973 l 0.7526,49.9843 l 0.7526,-8.2656 l 0.7526,32.4170 l 0.7526,-155.9248 l 0.7526,130.3674 l 0.7526,-13.6358 l 0.7526,-54.6191 l 0.7526,-133.1936 l 0.7526,328.5704 l 0.7526,-240.5232 l 0.7526,87.5270 l 0.7526,32.0668 l 0.7526,-141.6368 l 0.7526,38.5187 l 0.7526,100.9522 l 0.7526,-179.4606 l 0.7526,152.8456 l 0.7526,-93.2753 l 0.7526,77.4167 l 0.7526,59.3114 l 0.7526,-29.4393 l 0.7526,-201.2383 l 0.7526,124.3797 l 0.7526,-41.7703 l 0.7526,45.8029 l 0.7526,29.2288 l 0.7526,29.8556 l 0.7526,-105.9427 l 0.7526,119.8563 l 0.7526,-2.5979 l 0.7526,-45.1600 l 0.7526,125.1339 l 0.7526,-150.2050 l 0.7526,48.2230 l 0.7526,71.8942 l 0.7526,-142.3286 l 0.7526,25.7004 l 0.7526,93.1023 l 0.7526,-163.6186 l 0.7526,30.6862 l 0.7526,25.8977 l 0.7526,-13.5668 l 0.7526,133.7337 l 0.7526,-125.8683 l 0.7526,-70.3354 l 0.7526,167.5816 l 0.7526,38.3283 l 0.7526,-113.0487 l 0.7526,144.9963 l 0.7526,-161.6855 l 0.7526,18.2130 l 0.7526,34.5439 l 0.7526,7.4972 l 0.7526,-100.7575 l 0.7526,27.4710 l 0.7526,135.1877 l 0.7526,-100.6390 l 0.7526,-117.5809 l 0.7526,111.9988 l 0.7526,12.0748 l 0.7526,-126.2512 l 0.7526,165.1507 l 0.7526,-49.5390 l 0.7526,119.8304 l 0.7526,-74.7742 l 0.7526,-155.6452 l 0.7526,125.1535 l 0.7526,78.1069 l 0.7526,-45.9558 l 0.7526,-44.5802 l 0.7526,-68.4558 l 0.7526,98.3740 l 0.7526,-50.0189 l 0.7526,24.9247 l 0.7526,-167.9603 l 0.7526,198.4430 l 0.7526,-59.0896 l 0.7526,-68.0082 l 0.7526,101.4974 l 0.7526,10.0383 l 0.7526,-19.5623 l 0.7526,-24.9571 l 0.7526,13.8100 l 0.7526,60.7659 l 0.7526,26.7915 l 0.7526,7.4589 l 0.7526,-96.0318 l 0.7526,7.7708 l 0.7526,-166.0277 l 0.7526,99.9194 l 0.7526,76.5177 l 0.7526,77.7914 l 0.7526,-96.1636 l 0.7526,-31.5864 l 0.7526,127.4137 l 0.7526,-95.2183 l 0.7526,63.0631 l 0.7526,70.0360 l 0.7526,-65.9747 l 0.7526,91.8245 l 0.7526,-167.4637 l 0.7526,11.8882 l 0.7526,-83.5607 l 0.7526,111.6610 l 0.7526,32.4220 l 0.7526,-140.0989 l 0.7526,24.8601 l 0.7526,19.9284 l 0.7526,32.3430 l 0.7526,16.6015 l 0.7526,-101.6453 l 0.7526,52.4079 l 0.7526,-5.3879 l 0.7526,-51.4850 l 0.7526,102.0977 l 0.7526,-39.0878 l 0.7526,65.4327 l 0.7526,-223.5783 l 0.7526,176.8836 l 0.7526,-46.8221 l 0.7526,108.1936 l 0.7526,-95.9413 l 0.7526,75.5682 l 0.7526,58.8133 l 0.7526,-74.6508 l 0.7526,-60.8610 l 0.7526,116.1584 l 0.7526,-75.7478 l 0.7526,3.0259 l 0.7526,-26.2849 l 0.7526,-126.8065 l 0.7526,145.1871 l 0.7526,-34.0124 l 0.7526,177.5366 l 0.7526,-155.4210 l 0.7526,47.0448 l 0.7526,22.3741 l 0.7526,-45.5065 l 0.7526,15.2285 l 0.7526,13.4784 l 0.7526,-111.9110 l 0.7526,149.4642 l 0.7526,-49.7220 l 0.7526,-79.6277 l 0.7526,43.9750 l 0.7526,111.4814 l 0.7526,-85.6324 l 0.7526,-33.7618 l 0.7526,14.9513 l 0.7526,-40.0094 l 0.7526,2.8137 l 0.7526,143.1243 l 0.7526,-115.2992 l 0.7526,-18.5523 l 0.7526,-17.0279 l 0.7526,5.8385 l 0.7526,185.5773 l 0.7526,-56.0411 l 0.7526,-38.8622 l 0.7526,-32.7660 l 0.7526,-12.8563 l 0.7526,-78.8431 l 0.7526,212.8164 l 0.7526,-30.4337 l 0.7526,-19.3215 l 0.7526,-139.0917 l 0.7526,67.6590 l 0.7526,-7.6106 l 0.7526,179.1986 l 0.7526,-200.0210 l 0.7526,57.3194 l 0.7526,-11.1317 l 0.7526,79.7315 l 0.7526,-116.8387 l 0.7526,175.0388 l 0.7526,-100.9781 l 0.7526,-128.6211 l 0.7526,58.9498 l 0.7526,7.3999 l 0.7526,30.6652 l 0.7526,-134.9542 l 0.7526,226.8894 l 0.7526,-156.2320 l 0.7526,116.8420 l 0.7526,-28.3713 l 0.7526,-82.7867 l 0.7526,-41.2134 l 0.7526,100.0646 l 0.7526,-28.1885 l 0.7526,-62.4890 l 0.7526,118.0264 l 0.7526,-131.1892 l 0.7526,20.3919 l 0.7526,-16.4584 l 0.7526,92.4529 l 0.7526,-39.0999 l 0.7526,96.6409 l 0.7526,-101.5812 l 0.7526,1.4225 l 0.7526,16.8522 l 0.7526,-119.1350 l 0.7526,130.5088 l 0.7526,-14.5399 l 0.7526,214.3880 l 0.7526,-263.7928 l 0.7526,76.9712 l 0.7526,80.5585 l 0.7526,-51.5808 l 0.7526,4.9897 l 0.7526,-70.7790 l 0.7526,-121.9129 l 0.7526,221.3246 l 0.7526,4.6151 l 0.7526,-56.2960 l 0.7526,-78.3377 l 0.7526,-70.2391 l 0.7526,-41.0585 l 0.7526,215.7034 l 0.7526,-17.5527 l 0.7526,23.4014 l 0.7526,-51.4111 l 0.7526,-40.5641 l 0.7526,49.5588 l 0.7526,-7.6338 l 0.7526,60.1541 l 0.7526,-108.6856 l 0.7526,86.0937 l 0.7526,-66.2052 l 0.7526,-77.7976 l 0.7526,135.7539 l 0.7526,18.8188 l 0.7526,-33.1814 l 0.7526,36.4236 l 0.7526,-157.8344 l 0.7526,10.7188 l 0.7526,94.0074 l 0.7526,75.7555 l 0.7526,-80.7655 l 0.7526,11.8229 l 0.7526,-58.7731 l 0.7526,63.0597 l 0.7526,131.7612 l 0.7526,-15.6813 l 0.7526,-204.4609 l 0.7526,113.9522 l 0.7526,101.0768 l 0.7526,-80.2108 l 0.7526,-97.3384 l 0.7526,62.8621 l 0.7526,-146.9590 l 0.7526,280.6033 l 0.7526,-149.4089 l 0.7526,73.0669 l 0.7526,-38.0957 l 0.7526,49.1172 l 0.7526,-112.6677 l 0.7526,-27.8116 l 0.7526,18.6720 l 0.7526,-42.2653 l 0.7526,142.1065 l 0.7526,-233.2836 l 0.7526,221.9646 l 0.7526,-156.0266 l 0.7526,56.9182 l 0.7526,-2.1904 l 0.7526,96.3119 l 0.7526,-44.0914 l 0.7526,87.0195 l 0.7526,74.1834 l 0.7526,-213.3325 l 0.7526,73.8407 l 0.7526,21.4760 l 0.7526,55.9393 l 0.7526,-87.3991 l 0.7526,-112.9632 l 0.7526,204.7450 l 0.7526,-16.1804 l 0.7526,-29.8676 l 0.7526,-138.4273 l 0.7526,31.1719 l 0.7526,72.2633 l 0.7526,-51.5467 l 0.7526,77.2702 l 0.7526,-121.2237 l 0.7526,33.7617 l 0.7526,66.9490 l 0.7526,-98.8457 l 0.7526,94.9299 l 0.7526,4.1100 l 0.7526,-83.6041 l 0.7526,-11.3468 l 0.7526,82.1192 l 0.7526,-96.1897 l 0.7526,127.5271 l 0.7526,0.6543 l 0.7526,46.6606 l 0.7526,-98.5563 l 0.7526,92.3173 l 0.7526,70.1897 l 0.7526,-109.6272 l 0.7526,-8.9955 l 0.7526,-30.6152 l 0.7526,-57.6280 l 0.7526,-33.4945 l 0.7526,122.8532 l 0.7526,-126.4053 l 0.7526,-24.1693 l 0.7526,53.2585 l 0.7526,196.7956 l 0.7526,-236.3514 l 0.7526,23.6076 l 0.7526,126.1580 l 0.7526,-204.5579 l 0.7526,105.2260 l 0.7526,19.7589 l 0.7526,-30.8485 l 0.7526,15.5426 l 0.7526,140.7757 l 0.7526,-106.7459 l 0.7526,43.2159 l 0.7526,-43.7025 l 0.7526,137.0994 l 0.7526,-208.6972 l 0.7526,-4.6691 l 0.7526,60.8113 l 0.7526,78.8288 l 0.7526,-12.1234 l 0.7526,37.2040 l 0.7526,-94.3276 l 0.7526,41.0992 l 0.7526,28.0760 l 0.7526,-103.7623 l 0.7526,-18.1763 l 0.7526,103.4136 l 0.7526,-34.1624 l 0.7526,-26.4118 l 0.7526,40.0613 l 0.7526,49.0262 l 0.7526,-61.6293 l 0.7526,-91.6320 l 0.7526,37.0096 l 0.7526,-121.4449 l 0.7526,-10.4424 l 0.7526,169.0293 l 0.7526,155.0607 l 0.7526,-124.5493 l 0.7526,-86.8864 l 0.7526,75.3191 l 0.7526,-174.0223 l 0.7526,99.8512 l 0.7526,9.9175 l 0.7526,19.4503 l 0.7526,12.7806 l 0.7526,72.2897 l 0.7526,-57.9005 l 0.7526,-19.3543 l 0.7526,-40.4646 l 0.7526,103.7070 l 0.7526,-53.4249 l 0.7526,-85.2021 l 0.7526,-40.8152 l 0.7526,158.0713 l 0.7526,-116.0110 l 0.7526,164.9980 l 0.7526,10.5462 l 0.7526,-38.1174 l 0.7526,-30.9534 l 0.7526,52.5094 l 0.7526,-176.4032 l 0.7526,46.9719 l 0.7526,70.7876 l 0.7526,-77.1141 l 0.7526,28.1227 l 0.7526,152.8261 l 0.7526,-151.0302 l 0.7526,83.9896 l 0.7526,-126.0889 l 0.7526,29.9899 l 0.7526,-13.0440 l 0.7526,164.1150 l 0.7526,-11.0069 l 0.7526,-31.1366 l 0.7526,100.4612 l 0.7526,-204.4703 l 0.7526,39.8852 l 0.7526,132.6883 l 0.7526,-86.9661 l 0.7526,-90.3883 l 0.7526,-13.1318 l 0.7526,293.7963 l 0.7526,-138.2095 l 0.7526,39.5747 l 0.7526,-82.2166 l 0.7526,-183.2770 l 0.7526,211.8530 l 0.7526,-80.6267 l 0.7526,125.4124 l 0.7526,-10.9196 l 0.7526,-125.5528 l 0.7526,75.0303 l 0.7526,-19.9583 l 0.7526,-35.2951 l 0.7526,-90.1642 l 0.7526,161.0917 l 0.7526,-55.5616 l 0.7526,-141.7126 l 0.7526,61.8225 l 0.7526,122.4420 l 0.7526,-84.9416 l 0.7526,187.9934 l 0.7526,-174.3599 l 0.7526,65.2846 l 0.7526,-150.0040 l 0.7526,127.4204 l 0.7526,-61.4281 l 0.7526,46.3726 l 0.7526,-63.8927 l 0.7526,96.2107 l 0.7526,1.7759 l 0.7526,-135.1566 l 0.7526,128.1678 l 0.7526,-108.0435 l 0.7526,-34.4542 l 0.7526,203.8510 l 0.7526,-44.2135 l 0.7526,-199.4766 l 0.7526,153.9724 l 0.7526,60.4845 l 0.7526,37.2078 l 0.7526,-63.8066 l 0.7526,25.8181 l 0.7526,-138.6770 l 0.7526,107.8505 l 0.7526,-93.6009 l 0.7526,-21.3316 l 0.7526,37.4777 l 0.7526,-38.0108 l 0.7526,234.6743 l 0.7526,-158.5412 l 0.7526,59.2532 l 0.7526,-53.9304 l 0.7526,-24.5210 l 0.7526,51.6767 l 0.7526,13.3096 l 0.7526,17.7952 l 0.7526,-93.6340 l 0.7526,114.4265 l 0.7526,-11.6982 l 0.7526,-108.9270 l 0.7526,-34.7758 l 0.7526,-50.8516 l 0.7526,81.9188 l 0.7526,77.6857 l 0.7526,-145.1254 l 0.7526,133.8604 l 0.7526,-51.7755 l 0.7526,-40.8919 l 0.7526,25.9694 l 0.7526,-5.0497 l 0.7526,71.2910 l 0.7526,-87.2384 l 0.7526,41.7868 l 0.7526,-28.2397 l 0.7526,173.9949 l 0.7526,-232.6924 l 0.7526,93.5733 l 0.7526,16.7945 l 0.7526,-167.3229 l 0.7526,73.6519 l 0.7526,207.4271 l 0.7526,-62.3864 l 0.7526,-133.5184 l 0.7526,28.8963 l 0.7526,54.0628 l 0.7526,-168.9773 l 0.7526,99.0876 l 0.7526,26.5224 l 0.7526,136.8420 l 0.7526,-57.3284 l 0.7526,-9.3758 l 0.7526,-29.0929 l 0.7526,24.3542 l 0.7526,-94.6107 l 0.7526,130.0524 l 0.7526,66.4449 l 0.7526,-245.8585 l 0.7526,35.5673 l 0.7526,28.8000 l 0.7526,52.4067 l 0.7526,-139.4546 l 0.7526,212.9320 l 0.7526,-61.2025 l 0.7526,-13.0669 l 0.7526,32.0657 "/></g></g><defs></defs><g stroke-linejoin="miter" stroke-opacity="1.0" fill-opacity="0.0" stroke="rgb(0,0,0)" stroke-width="0.9999999999999997" fill="rgb(0,0,0)" stroke-linecap="square" stroke-miterlimit="10.0"><path d="M 27.5840,550.0000 v -535.0000 "/></g><defs></defs><g stroke-linejoin="miter" stroke-opacity="1.0" fill-opacity="0.0" stroke="rgb(0,0,0)" stroke-width="0.9999999999999997" fill="rgb(0,0,0)" stroke-linecap="butt" stroke-miterlimit="10.0"><path d="M 27.5840,550.0000 h 2.0000 "/></g><defs></defs><g stroke-linejoin="miter" stroke-opacity="1.0" fill-opacity="0.0" stroke="rgb(0,0,0)" stroke-width="0.9999999999999997" fill="rgb(0,0,0)" stroke-linecap="butt" stroke-miterlimit="10.0"><path d="M 27.5840,536.6250 h 2.0000 "/></g><defs></defs><g stroke-linejoin="miter" stroke-opacity="1.0" fill-opacity="0.0" stroke="rgb(0,0,0)" stroke-width="0.9999999999999997" fill="rgb(0,0,0)" stroke-linecap="butt" stroke-miterlimit="10.0"><path d="M 27.5840,523.2500 h 2.0000 "/></g><defs></defs><g stroke-linejoin="miter" stroke-opacity="1.0" fill-opacity="0.0" stroke="rgb(0,0,0)" stroke-width="0.9999999999999997" fill="rgb(0,0,0)" stroke-linecap="butt" stroke-miterlimit="10.0"><path d="M 27.5840,509.8750 h 2.0000 "/></g><defs></defs><g stroke-linejoin="miter" stroke-opacity="1.0" fill-opacity="0.0" stroke="rgb(0,0,0)" stroke-width="0.9999999999999997" fill="rgb(0,0,0)" stroke-linecap="butt" stroke-miterlimit="10.0"><path d="M 27.5840,496.5000 h 2.0000 "/></g><defs></defs><g stroke-linejoin="miter" stroke-opacity="1.0" fill-opacity="0.0" stroke="rgb(0,0,0)" stroke-width="0.9999999999999997" fill="rgb(0,0,0)" stroke-linecap="butt" stroke-miterlimit="10.0"><path d="M 27.5840,483.1250 h 2.0000 "/></g><defs></defs><g stroke-linejoin="miter" stroke-opacity="1.0" fill-opacity="0.0" stroke="rgb(0,0,0)" stroke-width="0.9999999999999997" fill="rgb(0,0,0)" stroke-linecap="butt" stroke-miterlimit="10.0"><path d="M 27.5840,469.7500 h 2.0000 "/></g><defs></defs><g stroke-linejoin="miter" stroke-opacity="1.0" fill-opacity="0.0" stroke="rgb(0,0,0)" stroke-width="0.9999999999999997" fill="rgb(0,0,0)" stroke-linecap="butt" stroke-miterlimit="10.0"><path d="M 27.5840,456.3750 h 2.0000 "/></g><defs></defs><g stroke-linejoin="miter" stroke-opacity="1.0" fill-opacity="0.0" stroke="rgb(0,0,0)" stroke-width="0.9999999999999997" fill="rgb(0,0,0)" stroke-linecap="butt" stroke-miterlimit="10.0"><path d="M 27.5840,443.0000 h 2.0000 "/></g><defs></defs><g stroke-linejoin="miter" stroke-opacity="1.0" fill-opacity="0.0" stroke="rgb(0,0,0)" stroke-width="0.9999999999999997" fill="rgb(0,0,0)" stroke-linecap="butt" stroke-miterlimit="10.0"><path d="M 27.5840,429.6250 h 2.0000 "/></g><defs></defs><g stroke-linejoin="miter" stroke-opacity="1.0" fill-opacity="0.0" stroke="rgb(0,0,0)" stroke-width="0.9999999999999997" fill="rgb(0,0,0)" stroke-linecap="butt" stroke-miterlimit="10.0"><path d="M 27.5840,416.2500 h 2.0000 "/></g><defs></defs><g stroke-linejoin="miter" stroke-opacity="1.0" fill-opacity="0.0" stroke="rgb(0,0,0)" stroke-width="0.9999999999999997" fill="rgb(0,0,0)" stroke-linecap="butt" stroke-miterlimit="10.0"><path d="M 27.5840,402.8750 h 2.0000 "/></g><defs></defs><g stroke-linejoin="miter" stroke-opacity="1.0" fill-opacity="0.0" stroke="rgb(0,0,0)" stroke-width="0.9999999999999997" fill="rgb(0,0,0)" stroke-linecap="butt" stroke-miterlimit="10.0"><path d="M 27.5840,389.5000 h 2.0000 "/></g><defs></defs><g stroke-linejoin="miter" stroke-opacity="1.0" fill-opacity="0.0" stroke="rgb(0,0,0)" stroke-width="0.9999999999999997" fill="rgb(0,0,0)" stroke-linecap="butt" stroke-miterlimit="10.0"><path d="M 27.5840,376.1250 h 2.0000 "/></g><defs></defs><g stroke-linejoin="miter" stroke-opacity="1.0" fill-opacity="0.0" stroke="rgb(0,0,0)" stroke-width="0.9999999999999997" fill="rgb(0,0,0)" stroke-linecap="butt" stroke-miterlimit="10.0"><path d="M 27.5840,362.7500 h 2.0000 "/></g><defs></defs><g stroke-linejoin="miter" stroke-opacity="1.0" fill-opacity="0.0" stroke="rgb(0,0,0)" stroke-width="0.9999999999999997" fill="rgb(0,0,0)" stroke-linecap="butt" stroke-miterlimit="10.0"><path d="M 27.5840,349.3750 h 2.0000 "/></g><defs></defs><g stroke-linejoin="miter" stroke-opacity="1.0" fill-opacity="0.0" stroke="rgb(0,0,0)" stroke-width="0.9999999999999997" fill="rgb(0,0,0)" stroke-linecap="butt" stroke-miterlimit="10.0"><path d="M 27.5840,336.0000 h 2.0000 "/></g><defs></defs><g stroke-linejoin="miter" stroke-opacity="1.0" fill-opacity="0.0" stroke="rgb(0,0,0)" stroke-width="0.9999999999999997" fill="rgb(0,0,0)" stroke-linecap="butt" stroke-miterlimit="10.0"><path d="M 27.5840,322.6250 h 2.0000 "/></g><defs></defs><g stroke-linejoin="miter" stroke-opacity="1.0" fill-opacity="0.0" stroke="rgb(0,0,0)" stroke-width="0.9999999999999997" fill="rgb(0,0,0)" stroke-linecap="butt" stroke-miterlimit="10.0"><path d="M 27.5840,309.2500 h 2.0000 "/></g><defs></defs><g stroke-linejoin="miter" stroke-opacity="1.0" fill-opacity="0.0" stroke="rgb(0,0,0)" stroke-width="0.9999999999999997" fill="rgb(0,0,0)" stroke-linecap="butt" stroke-miterlimit="10.0"><path d="M 27.5840,295.8750 h 2.0000 "/></g><defs></defs><g stroke-linejoin="miter" stroke-opacity="1.0" fill-opacity="0.0" stroke="rgb(0,0,0)" stroke-width="0.9999999999999997" fill="rgb(0,0,0)" stroke-linecap="butt" stroke-miterlimit="10.0"><path d="M 27.5840,282.5000 h 2.0000 "/></g><defs></defs><g stroke-linejoin="miter" stroke-opacity="1.0" fill-opacity="0.0" stroke="rgb(0,0,0)" stroke-width="0.9999999999999997" fill="rgb(0,0,0)" stroke-linecap="butt" stroke-miterlimit="10.0"><path d="M 27.5840,269.1250 h 2.0000 "/></g><defs></defs><g stroke-linejoin="miter" stroke-opacity="1.0" fill-opacity="0.0" stroke="rgb(0,0,0)" stroke-width="0.9999999999999997" fill="rgb(0,0,0)" stroke-linecap="butt" stroke-miterlimit="10.0"><path d="M 27.5840,255.7500 h 2.0000 "/></g><defs></defs><g stroke-linejoin="miter" stroke-opacity="1.0" fill-opacity="0.0" stroke="rgb(0,0,0)" stroke-width="0.9999999999999997" fill="rgb(0,0,0)" stroke-linecap="butt" stroke-miterlimit="10.0"><path d="M 27.5840,242.3750 h 2.0000 "/></g><defs></defs><g stroke-linejoin="miter" stroke-opacity="1.0" fill-opacity="0.0" stroke="rgb(0,0,0)" stroke-width="0.9999999999999997" fill="rgb(0,0,0)" stroke-linecap="butt" stroke-miterlimit="10.0"><path d="M 27.5840,229.0000 h 2.0000 "/></g><defs></defs><g stroke-linejoin="miter" stroke-opacity="1.0" fill-opacity="0.0" stroke="rgb(0,0,0)" stroke-width="0.9999999999999997" fill="rgb(0,0,0)" stroke-linecap="butt" stroke-miterlimit="10.0"><path d="M 27.5840,215.6250 h 2.0000 "/></g><defs></defs><g stroke-linejoin="miter" stroke-opacity="1.0" fill-opacity="0.0" stroke="rgb(0,0,0)" stroke-width="0.9999999999999997" fill="rgb(0,0,0)" stroke-linecap="butt" stroke-miterlimit="10.0"><path d="M 27.5840,202.2500 h 2.0000 "/></g><defs></defs><g stroke-linejoin="miter" stroke-opacity="1.0" fill-opacity="0.0" stroke="rgb(0,0,0)" stroke-width="0.9999999999999997" fill="rgb(0,0,0)" stroke-linecap="butt" stroke-miterlimit="10.0"><path d="M 27.5840,188.8750 h 2.0000 "/></g><defs></defs><g stroke-linejoin="miter" stroke-opacity="1.0" fill-opacity="0.0" stroke="rgb(0,0,0)" stroke-width="0.9999999999999997" fill="rgb(0,0,0)" stroke-linecap="butt" stroke-miterlimit="10.0"><path d="M 27.5840,175.5000 h 2.0000 "/></g><defs></defs><g stroke-linejoin="miter" stroke-opacity="1.0" fill-opacity="0.0" stroke="rgb(0,0,0)" stroke-width="0.9999999999999997" fill="rgb(0,0,0)" stroke-linecap="butt" stroke-miterlimit="10.0"><path d="M 27.5840,162.1250 h 2.0000 "/></g><defs></defs><g stroke-linejoin="miter" stroke-opacity="1.0" fill-opacity="0.0" stroke="rgb(0,0,0)" stroke-width="0.9999999999999997" fill="rgb(0,0,0)" stroke-linecap="butt" stroke-miterlimit="10.0"><path d="M 27.5840,148.7500 h 2.0000 "/></g><defs></defs><g stroke-linejoin="miter" stroke-opacity="1.0" fill-opacity="0.0" stroke="rgb(0,0,0)" stroke-width="0.9999999999999997" fill="rgb(0,0,0)" stroke-linecap="butt" stroke-miterlimit="10.0"><path d="M 27.5840,135.3750 h 2.0000 "/></g><defs></defs><g stroke-linejoin="miter" stroke-opacity="1.0" fill-opacity="0.0" stroke="rgb(0,0,0)" stroke-width="0.9999999999999997" fill="rgb(0,0,0)" stroke-linecap="butt" stroke-miterlimit="10.0"><path d="M 27.5840,122.0000 h 2.0000 "/></g><defs></defs><g stroke-linejoin="miter" stroke-opacity="1.0" fill-opacity="0.0" stroke="rgb(0,0,0)" stroke-width="0.9999999999999997" fill="rgb(0,0,0)" stroke-linecap="butt" stroke-miterlimit="10.0"><path d="M 27.5840,108.6250 h 2.0000 "/></g><defs></defs><g stroke-linejoin="miter" stroke-opacity="1.0" fill-opacity="0.0" stroke="rgb(0,0,0)" stroke-width="0.9999999999999997" fill="rgb(0,0,0)" stroke-linecap="butt" stroke-miterlimit="10.0"><path d="M 27.5840,95.2500 h 2.0000 "/></g><defs></defs><g stroke-linejoin="miter" stroke-opacity="1.0" fill-opacity="0.0" stroke="rgb(0,0,0)" stroke-width="0.9999999999999997" fill="rgb(0,0,0)" stroke-linecap="butt" stroke-miterlimit="10.0"><path d="M 27.5840,81.8750 h 2.0000 "/></g><defs></defs><g stroke-linejoin="miter" stroke-opacity="1.0" fill-opacity="0.0" stroke="rgb(0,0,0)" stroke-width="0.9999999999999997" fill="rgb(0,0,0)" stroke-linecap="butt" stroke-miterlimit="10.0"><path d="M 27.5840,68.5000 h 2.0000 "/></g><defs></defs><g stroke-linejoin="miter" stroke-opacity="1.0" fill-opacity="0.0" stroke="rgb(0,0,0)" stroke-width="0.9999999999999997" fill="rgb(0,0,0)" stroke-linecap="butt" stroke-miterlimit="10.0"><path d="M 27.5840,55.1250 h 2.0000 "/></g><defs></defs><g stroke-linejoin="miter" stroke-opacity="1.0" fill-opacity="0.0" stroke="rgb(0,0,0)" stroke-width="0.9999999999999997" fill="rgb(0,0,0)" stroke-linecap="butt" stroke-miterlimit="10.0"><path d="M 27.5840,41.7500 h 2.0000 "/></g><defs></defs><g stroke-linejoin="miter" stroke-opacity="1.0" fill-opacity="0.0" stroke="rgb(0,0,0)" stroke-width="0.9999999999999997" fill="rgb(0,0,0)" stroke-linecap="butt" stroke-miterlimit="10.0"><path d="M 27.5840,28.3750 h 2.0000 "/></g><defs></defs><g stroke-linejoin="miter" stroke-opacity="1.0" fill-opacity="0.0" stroke="rgb(0,0,0)" stroke-width="0.9999999999999997" fill="rgb(0,0,0)" stroke-linecap="butt" stroke-miterlimit="10.0"><path d="M 27.5840,15.0000 h 2.0000 "/></g><defs></defs><g stroke-linejoin="miter" stroke-opacity="1.0" fill-opacity="0.0" stroke="rgb(0,0,0)" stroke-width="0.9999999999999997" fill="rgb(0,0,0)" stroke-linecap="butt" stroke-miterlimit="10.0"><path d="M 27.5840,550.0000 h 5.0000 "/></g><defs></defs><g stroke-linejoin="miter" stroke-opacity="1.0" fill-opacity="0.0" stroke="rgb(0,0,0)" stroke-width="0.9999999999999997" fill="rgb(0,0,0)" stroke-linecap="butt" stroke-miterlimit="10.0"><path d="M 27.5840,416.2500 h 5.0000 "/></g><defs></defs><g stroke-linejoin="miter" stroke-opacity="1.0" fill-opacity="0.0" stroke="rgb(0,0,0)" stroke-width="0.9999999999999997" fill="rgb(0,0,0)" stroke-linecap="butt" stroke-miterlimit="10.0"><path d="M 27.5840,282.5000 h 5.0000 "/></g><defs></defs><g stroke-linejoin="miter" stroke-opacity="1.0" fill-opacity="0.0" stroke="rgb(0,0,0)" stroke-width="0.9999999999999997" fill="rgb(0,0,0)" stroke-linecap="butt" stroke-miterlimit="10.0"><path d="M 27.5840,148.7500 h 5.0000 "/></g><defs></defs><g stroke-linejoin="miter" stroke-opacity="1.0" fill-opacity="0.0" stroke="rgb(0,0,0)" stroke-width="0.9999999999999997" fill="rgb(0,0,0)" stroke-linecap="butt" stroke-miterlimit="10.0"><path d="M 27.5840,15.0000 h 5.0000 "/></g><defs></defs><g stroke-linejoin="bevel" stroke-opacity="0.0" fill-opacity="1.0" stroke="rgb(0,0,0)" stroke-width="0.0" fill="rgb(0,0,0)" stroke-linecap="butt" stroke-miterlimit="10.0"><path d="M 10.0000,553.4454 ZM 10.4307,550.4832 h 2.4160 v 0.6618 h -2.4160 v -0.6618 ZM 13.2668,553.4454 ZM 13.6870,552.9307 c 0.7563,-0.7563 1.3445,-1.3655 1.3445 -1.3655c 0.5882,-0.6092 0.9874,-1.1292 0.9874 -1.1292c 0.3992,-0.5200 0.6092,-0.9559 0.6092 -0.9559c 0.2101,-0.4359 0.2101,-0.8456 0.2101 -0.8456c 0.0000,-0.5777 -0.3151,-0.9454 -0.3151 -0.9454c -0.3151,-0.3676 -0.9559,-0.3676 -0.9559 -0.3676c -0.4202,-0.0000 -0.7773,0.2363 -0.7773 0.2363c -0.3571,0.2363 -0.6513,0.5725 -0.6513 0.5725l -0.4937,-0.4937 c 0.4202,-0.4622 0.8929,-0.7405 0.8929 -0.7405c 0.4727,-0.2784 1.1345,-0.2784 1.1345 -0.2784c 0.9349,0.0000 1.4706,0.5410 1.4706 0.5410c 0.5357,0.5410 0.5357,1.4338 0.5357 1.4338c 0.0000,0.4727 -0.2048,0.9506 -0.2048 0.9506c -0.2048,0.4779 -0.5672,0.9874 -0.5672 0.9874c -0.3624,0.5095 -0.8613,1.0609 -0.8613 1.0609c -0.4989,0.5515 -1.0977,1.1712 -1.0977 1.1712c 0.2731,-0.0210 0.5672,-0.0420 0.5672 -0.0420c 0.2941,-0.0210 0.5567,-0.0210 0.5567 -0.0210h 1.9433 v 0.7458 h -4.3277 v -0.5147 Z"/></g><defs></defs><g stroke-linejoin="bevel" stroke-opacity="0.0" fill-opacity="1.0" stroke="rgb(0,0,0)" stroke-width="0.0" fill="rgb(0,0,0)" stroke-linecap="butt" stroke-miterlimit="10.0"><path d="M 10.1366,419.6954 ZM 10.5672,416.7332 h 2.4160 v 0.6618 h -2.4160 v -0.6618 ZM 13.4034,419.6954 ZM 14.2332,418.9811 h 1.5336 v -4.9370 h -1.2185 v -0.5567 c 0.4622,-0.0840 0.8036,-0.2048 0.8036 -0.2048c 0.3414,-0.1208 0.6145,-0.2889 0.6145 -0.2889h 0.6618 v 5.9874 h 1.3866 v 0.7143 h -3.7815 v -0.7143 Z"/></g><defs></defs><g stroke-linejoin="bevel" stroke-opacity="0.0" fill-opacity="1.0" stroke="rgb(0,0,0)" stroke-width="0.0" fill="rgb(0,0,0)" stroke-linecap="butt" stroke-miterlimit="10.0"><path d="M 13.2878,285.9454 ZM 15.9034,286.0714 c -1.0189,-0.0000 -1.5861,-0.9034 -1.5861 -0.9034c -0.5672,-0.9034 -0.5672,-2.5945 -0.5672 -2.5945c 0.0000,-1.6912 0.5672,-2.5735 0.5672 -2.5735c 0.5672,-0.8824 1.5861,-0.8824 1.5861 -0.8824c 1.0084,0.0000 1.5756,0.8824 1.5756 0.8824c 0.5672,0.8824 0.5672,2.5735 0.5672 2.5735c 0.0000,1.6912 -0.5672,2.5945 -0.5672 2.5945c -0.5672,0.9034 -1.5756,0.9034 -1.5756 0.9034ZM 15.9034,286.0714 ZM 15.9034,285.3782 c 0.2941,0.0000 0.5305,-0.1628 0.5305 -0.1628c 0.2363,-0.1628 0.4097,-0.5042 0.4097 -0.5042c 0.1733,-0.3414 0.2679,-0.8718 0.2679 -0.8718c 0.0945,-0.5305 0.0945,-1.2658 0.0945 -1.2658c 0.0000,-0.7353 -0.0945,-1.2605 -0.0945 -1.2605c -0.0945,-0.5252 -0.2679,-0.8561 -0.2679 -0.8561c -0.1733,-0.3309 -0.4097,-0.4884 -0.4097 -0.4884c -0.2363,-0.1576 -0.5305,-0.1576 -0.5305 -0.1576c -0.2941,-0.0000 -0.5357,0.1576 -0.5357 0.1576c -0.2416,0.1576 -0.4149,0.4884 -0.4149 0.4884c -0.1733,0.3309 -0.2679,0.8561 -0.2679 0.8561c -0.0945,0.5252 -0.0945,1.2605 -0.0945 1.2605c 0.0000,1.4706 0.3624,2.1376 0.3624 2.1376c 0.3624,0.6670 0.9506,0.6670 0.9506 0.6670Z"/></g><defs></defs><g stroke-linejoin="bevel" stroke-opacity="0.0" fill-opacity="1.0" stroke="rgb(0,0,0)" stroke-width="0.0" fill="rgb(0,0,0)" stroke-linecap="butt" stroke-miterlimit="10.0"><path d="M 13.8025,152.1954 ZM 14.6324,151.4811 h 1.5336 v -4.9370 h -1.2185 v -0.5567 c 0.4622,-0.0840 0.8036,-0.2048 0.8036 -0.2048c 0.3414,-0.1208 0.6145,-0.2889 0.6145 -0.2889h 0.6618 v 5.9874 h 1.3866 v 0.7143 h -3.7815 v -0.7143 Z"/></g><defs></defs><g stroke-linejoin="bevel" stroke-opacity="0.0" fill-opacity="1.0" stroke="rgb(0,0,0)" stroke-width="0.0" fill="rgb(0,0,0)" stroke-linecap="butt" stroke-miterlimit="10.0"><path d="M 13.2143,18.4454 ZM 13.6345,17.9307 c 0.7563,-0.7563 1.3445,-1.3655 1.3445 -1.3655c 0.5882,-0.6092 0.9874,-1.1292 0.9874 -1.1292c 0.3992,-0.5200 0.6092,-0.9559 0.6092 -0.9559c 0.2101,-0.4359 0.2101,-0.8456 0.2101 -0.8456c 0.0000,-0.5777 -0.3151,-0.9454 -0.3151 -0.9454c -0.3151,-0.3676 -0.9559,-0.3676 -0.9559 -0.3676c -0.4202,-0.0000 -0.7773,0.2363 -0.7773 0.2363c -0.3571,0.2363 -0.6513,0.5725 -0.6513 0.5725l -0.4937,-0.4937 c 0.4202,-0.4622 0.8929,-0.7405 0.8929 -0.7405c 0.4727,-0.2784 1.1345,-0.2784 1.1345 -0.2784c 0.9349,0.0000 1.4706,0.5410 1.4706 0.5410c 0.5357,0.5410 0.5357,1.4338 0.5357 1.4338c 0.0000,0.4727 -0.2048,0.9506 -0.2048 0.9506c -0.2048,0.4779 -0.5672,0.9874 -0.5672 0.9874c -0.3624,0.5095 -0.8613,1.0609 -0.8613 1.0609c -0.4989,0.5515 -1.0977,1.1712 -1.0977 1.1712c 0.2731,-0.0210 0.5672,-0.0420 0.5672 -0.0420c 0.2941,-0.0210 0.5567,-0.0210 0.5567 -0.0210h 1.9433 v 0.7458 h -4.3277 v -0.5147 Z"/></g><defs></defs><g stroke-linejoin="miter" stroke-opacity="1.0" fill-opacity="0.0" stroke="rgb(0,0,0)" stroke-width="0.9999999999999997" fill="rgb(0,0,0)" stroke-linecap="square" stroke-miterlimit="10.0"><path d="M 27.5840,550.0000 h 752.6208 "/></g><defs></defs><g stroke-linejoin="miter" stroke-opacity="1.0" fill-opacity="0.0" stroke="rgb(0,0,0)" stroke-width="0.9999999999999997" fill="rgb(0,0,0)" stroke-linecap="butt" stroke-miterlimit="10.0"><path d="M 27.5840,550.0000 v -2.0000 "/></g><defs></defs><g stroke-linejoin="miter" stroke-opacity="1.0" fill-opacity="0.0" stroke="rgb(0,0,0)" stroke-width="0.9999999999999997" fill="rgb(0,0,0)" stroke-linecap="butt" stroke-miterlimit="10.0"><path d="M 102.8461,550.0000 v -2.0000 "/></g><defs></defs><g stroke-linejoin="miter" stroke-opacity="1.0" fill-opacity="0.0" stroke="rgb(0,0,0)" stroke-width="0.9999999999999997" fill="rgb(0,0,0)" stroke-linecap="butt" stroke-miterlimit="10.0"><path d="M 178.1082,550.0000 v -2.0000 "/></g><defs></defs><g stroke-linejoin="miter" stroke-opacity="1.0" fill-opacity="0.0" stroke="rgb(0,0,0)" stroke-width="0.9999999999999997" fill="rgb(0,0,0)" stroke-linecap="butt" stroke-miterlimit="10.0"><path d="M 253.3703,550.0000 v -2.0000 "/></g><defs></defs><g stroke-linejoin="miter" stroke-opacity="1.0" fill-opacity="0.0" stroke="rgb(0,0,0)" stroke-width="0.9999999999999997" fill="rgb(0,0,0)" stroke-linecap="butt" stroke-miterlimit="10.0"><path d="M 328.6324,550.0000 v -2.0000 "/></g><defs></defs><g stroke-linejoin="miter" stroke-opacity="1.0" fill-opacity="0.0" stroke="rgb(0,0,0)" stroke-width="0.9999999999999997" fill="rgb(0,0,0)" stroke-linecap="butt" stroke-miterlimit="10.0"><path d="M 403.8944,550.0000 v -2.0000 "/></g><defs></defs><g stroke-linejoin="miter" stroke-opacity="1.0" fill-opacity="0.0" stroke="rgb(0,0,0)" stroke-width="0.9999999999999997" fill="rgb(0,0,0)" stroke-linecap="butt" stroke-miterlimit="10.0"><path d="M 479.1565,550.0000 v -2.0000 "/></g><defs></defs><g stroke-linejoin="miter" stroke-opacity="1.0" fill-opacity="0.0" stroke="rgb(0,0,0)" stroke-width="0.9999999999999997" fill="rgb(0,0,0)" stroke-linecap="butt" stroke-miterlimit="10.0"><path d="M 554.4186,550.0000 v -2.0000 "/></g><defs></defs><g stroke-linejoin="miter" stroke-opacity="1.0" fill-opacity="0.0" stroke="rgb(0,0,0)" stroke-width="0.9999999999999997" fill="rgb(0,0,0)" stroke-linecap="butt" stroke-miterlimit="10.0"><path d="M 629.6807,550.0000 v -2.0000 "/></g><defs></defs><g stroke-linejoin="miter" stroke-opacity="1.0" fill-opacity="0.0" stroke="rgb(0,0,0)" stroke-width="0.9999999999999997" fill="rgb(0,0,0)" stroke-linecap="butt" stroke-miterlimit="10.0"><path d="M 704.9428,550.0000 v -2.0000 "/></g><defs></defs><g stroke-linejoin="miter" stroke-opacity="1.0" fill-opacity="0.0" stroke="rgb(0,0,0)" stroke-width="0.9999999999999997" fill="rgb(0,0,0)" stroke-linecap="butt" stroke-miterlimit="10.0"><path d="M 780.2048,550.0000 v -2.0000 "/></g><defs></defs><g stroke-linejoin="miter" stroke-opacity="1.0" fill-opacity="0.0" stroke="rgb(0,0,0)" stroke-width="0.9999999999999997" fill="rgb(0,0,0)" stroke-linecap="butt" stroke-miterlimit="10.0"><path d="M 27.5840,550.0000 v -5.0000 "/></g><defs></defs><g stroke-linejoin="miter" stroke-opacity="1.0" fill-opacity="0.0" stroke="rgb(0,0,0)" stroke-width="0.9999999999999997" fill="rgb(0,0,0)" stroke-linecap="butt" stroke-miterlimit="10.0"><path d="M 215.7392,550.0000 v -5.0000 "/></g><defs></defs><g stroke-linejoin="miter" stroke-opacity="1.0" fill-opacity="0.0" stroke="rgb(0,0,0)" stroke-width="0.9999999999999997" fill="rgb(0,0,0)" stroke-linecap="butt" stroke-miterlimit="10.0"><path d="M 403.8944,550.0000 v -5.0000 "/></g><defs></defs><g stroke-linejoin="miter" stroke-opacity="1.0" fill-opacity="0.0" stroke="rgb(0,0,0)" stroke-width="0.9999999999999997" fill="rgb(0,0,0)" stroke-linecap="butt" stroke-miterlimit="10.0"><path d="M 592.0496,550.0000 v -5.0000 "/></g><defs></defs><g stroke-linejoin="miter" stroke-opacity="1.0" fill-opacity="0.0" stroke="rgb(0,0,0)" stroke-width="0.9999999999999997" fill="rgb(0,0,0)" stroke-linecap="butt" stroke-miterlimit="10.0"><path d="M 780.2048,550.0000 v -5.0000 "/></g><defs></defs><g stroke-linejoin="bevel" stroke-opacity="0.0" fill-opacity="1.0" stroke="rgb(0,0,0)" stroke-width="0.0" fill="rgb(0,0,0)" stroke-linecap="butt" stroke-miterlimit="10.0"><path d="M 25.4359,570.0000 ZM 28.0515,570.1261 c -1.0189,-0.0000 -1.5861,-0.9034 -1.5861 -0.9034c -0.5672,-0.9034 -0.5672,-2.5945 -0.5672 -2.5945c 0.0000,-1.6912 0.5672,-2.5735 0.5672 -2.5735c 0.5672,-0.8824 1.5861,-0.8824 1.5861 -0.8824c 1.0084,0.0000 1.5756,0.8824 1.5756 0.8824c 0.5672,0.8824 0.5672,2.5735 0.5672 2.5735c 0.0000,1.6912 -0.5672,2.5945 -0.5672 2.5945c -0.5672,0.9034 -1.5756,0.9034 -1.5756 0.9034ZM 28.0515,570.1261 ZM 28.0515,569.4328 c 0.2941,0.0000 0.5305,-0.1628 0.5305 -0.1628c 0.2363,-0.1628 0.4097,-0.5042 0.4097 -0.5042c 0.1733,-0.3414 0.2679,-0.8718 0.2679 -0.8718c 0.0945,-0.5305 0.0945,-1.2658 0.0945 -1.2658c 0.0000,-0.7353 -0.0945,-1.2605 -0.0945 -1.2605c -0.0945,-0.5252 -0.2679,-0.8561 -0.2679 -0.8561c -0.1733,-0.3309 -0.4097,-0.4884 -0.4097 -0.4884c -0.2363,-0.1576 -0.5305,-0.1576 -0.5305 -0.1576c -0.2941,-0.0000 -0.5357,0.1576 -0.5357 0.1576c -0.2416,0.1576 -0.4149,0.4884 -0.4149 0.4884c -0.1733,0.3309 -0.2679,0.8561 -0.2679 0.8561c -0.0945,0.5252 -0.0945,1.2605 -0.0945 1.2605c 0.0000,1.4706 0.3624,2.1376 0.3624 2.1376c 0.3624,0.6670 0.9506,0.6670 0.9506 0.6670Z"/></g><defs></defs><g stroke-linejoin="bevel" stroke-opacity="0.0" fill-opacity="1.0" stroke="rgb(0,0,0)" stroke-width="0.0" fill="rgb(0,0,0)" stroke-linecap="butt" stroke-miterlimit="10.0"><path d="M 208.3285,570.0000 ZM 208.7487,569.4853 c 0.7563,-0.7563 1.3445,-1.3655 1.3445 -1.3655c 0.5882,-0.6092 0.9874,-1.1292 0.9874 -1.1292c 0.3992,-0.5200 0.6092,-0.9559 0.6092 -0.9559c 0.2101,-0.4359 0.2101,-0.8456 0.2101 -0.8456c 0.0000,-0.5777 -0.3151,-0.9454 -0.3151 -0.9454c -0.3151,-0.3676 -0.9559,-0.3676 -0.9559 -0.3676c -0.4202,-0.0000 -0.7773,0.2363 -0.7773 0.2363c -0.3571,0.2363 -0.6513,0.5725 -0.6513 0.5725l -0.4937,-0.4937 c 0.4202,-0.4622 0.8929,-0.7405 0.8929 -0.7405c 0.4727,-0.2784 1.1345,-0.2784 1.1345 -0.2784c 0.9349,0.0000 1.4706,0.5410 1.4706 0.5410c 0.5357,0.5410 0.5357,1.4338 0.5357 1.4338c 0.0000,0.4727 -0.2048,0.9506 -0.2048 0.9506c -0.2048,0.4779 -0.5672,0.9874 -0.5672 0.9874c -0.3624,0.5095 -0.8613,1.0609 -0.8613 1.0609c -0.4989,0.5515 -1.0977,1.1712 -1.0977 1.1712c 0.2731,-0.0210 0.5672,-0.0420 0.5672 -0.0420c 0.2941,-0.0210 0.5567,-0.0210 0.5567 -0.0210h 1.9433 v 0.7458 h -4.3277 v -0.5147 ZM 213.5491,570.0000 ZM 214.2319,568.6450 c 0.2941,0.3046 0.6985,0.5357 0.6985 0.5357c 0.4044,0.2311 0.9926,0.2311 0.9926 0.2311c 0.3046,0.0000 0.5725,-0.1103 0.5725 -0.1103c 0.2679,-0.1103 0.4674,-0.3099 0.4674 -0.3099c 0.1996,-0.1996 0.3151,-0.4832 0.3151 -0.4832c 0.1155,-0.2836 0.1155,-0.6303 0.1155 -0.6303c 0.0000,-0.6933 -0.3887,-1.0819 -0.3887 -1.0819c -0.3887,-0.3887 -1.0399,-0.3887 -1.0399 -0.3887c -0.3466,-0.0000 -0.5935,0.1050 -0.5935 0.1050c -0.2468,0.1050 -0.5515,0.3046 -0.5515 0.3046l -0.4622,-0.2941 l 0.2206,-3.2248 h 3.3508 v 0.7458 h -2.5945 l -0.1786,1.9853 c 0.2416,-0.1261 0.4832,-0.1996 0.4832 -0.1996c 0.2416,-0.0735 0.5462,-0.0735 0.5462 -0.0735c 0.4307,0.0000 0.8088,0.1261 0.8088 0.1261c 0.3782,0.1261 0.6618,0.3834 0.6618 0.3834c 0.2836,0.2574 0.4464,0.6513 0.4464 0.6513c 0.1628,0.3939 0.1628,0.9401 0.1628 0.9401c 0.0000,0.5462 -0.1891,0.9664 -0.1891 0.9664c -0.1891,0.4202 -0.5042,0.7090 -0.5042 0.7090c -0.3151,0.2889 -0.7195,0.4412 -0.7195 0.4412c -0.4044,0.1523 -0.8456,0.1523 -0.8456 0.1523c -0.3992,-0.0000 -0.7300,-0.0788 -0.7300 -0.0788c -0.3309,-0.0788 -0.5987,-0.2048 -0.5987 -0.2048c -0.2679,-0.1261 -0.4832,-0.2889 -0.4832 -0.2889c -0.2153,-0.1628 -0.3834,-0.3414 -0.3834 -0.3414ZM 218.7697,570.0000 ZM 221.3852,570.1261 c -1.0189,-0.0000 -1.5861,-0.9034 -1.5861 -0.9034c -0.5672,-0.9034 -0.5672,-2.5945 -0.5672 -2.5945c 0.0000,-1.6912 0.5672,-2.5735 0.5672 -2.5735c 0.5672,-0.8824 1.5861,-0.8824 1.5861 -0.8824c 1.0084,0.0000 1.5756,0.8824 1.5756 0.8824c 0.5672,0.8824 0.5672,2.5735 0.5672 2.5735c 0.0000,1.6912 -0.5672,2.5945 -0.5672 2.5945c -0.5672,0.9034 -1.5756,0.9034 -1.5756 0.9034ZM 221.3852,570.1261 ZM 221.3852,569.4328 c 0.2941,0.0000 0.5305,-0.1628 0.5305 -0.1628c 0.2363,-0.1628 0.4097,-0.5042 0.4097 -0.5042c 0.1733,-0.3414 0.2679,-0.8718 0.2679 -0.8718c 0.0945,-0.5305 0.0945,-1.2658 0.0945 -1.2658c 0.0000,-0.7353 -0.0945,-1.2605 -0.0945 -1.2605c -0.0945,-0.5252 -0.2679,-0.8561 -0.2679 -0.8561c -0.1733,-0.3309 -0.4097,-0.4884 -0.4097 -0.4884c -0.2363,-0.1576 -0.5305,-0.1576 -0.5305 -0.1576c -0.2941,-0.0000 -0.5357,0.1576 -0.5357 0.1576c -0.2416,0.1576 -0.4149,0.4884 -0.4149 0.4884c -0.1733,0.3309 -0.2679,0.8561 -0.2679 0.8561c -0.0945,0.5252 -0.0945,1.2605 -0.0945 1.2605c 0.0000,1.4706 0.3624,2.1376 0.3624 2.1376c 0.3624,0.6670 0.9506,0.6670 0.9506 0.6670Z"/></g><defs></defs><g stroke-linejoin="bevel" stroke-opacity="0.0" fill-opacity="1.0" stroke="rgb(0,0,0)" stroke-width="0.0" fill="rgb(0,0,0)" stroke-linecap="butt" stroke-miterlimit="10.0"><path d="M 396.4259,570.0000 ZM 397.1087,568.6450 c 0.2941,0.3046 0.6985,0.5357 0.6985 0.5357c 0.4044,0.2311 0.9926,0.2311 0.9926 0.2311c 0.3046,0.0000 0.5725,-0.1103 0.5725 -0.1103c 0.2679,-0.1103 0.4674,-0.3099 0.4674 -0.3099c 0.1996,-0.1996 0.3151,-0.4832 0.3151 -0.4832c 0.1155,-0.2836 0.1155,-0.6303 0.1155 -0.6303c 0.0000,-0.6933 -0.3887,-1.0819 -0.3887 -1.0819c -0.3887,-0.3887 -1.0399,-0.3887 -1.0399 -0.3887c -0.3466,-0.0000 -0.5935,0.1050 -0.5935 0.1050c -0.2468,0.1050 -0.5515,0.3046 -0.5515 0.3046l -0.4622,-0.2941 l 0.2206,-3.2248 h 3.3508 v 0.7458 h -2.5945 l -0.1786,1.9853 c 0.2416,-0.1261 0.4832,-0.1996 0.4832 -0.1996c 0.2416,-0.0735 0.5462,-0.0735 0.5462 -0.0735c 0.4307,0.0000 0.8088,0.1261 0.8088 0.1261c 0.3782,0.1261 0.6618,0.3834 0.6618 0.3834c 0.2836,0.2574 0.4464,0.6513 0.4464 0.6513c 0.1628,0.3939 0.1628,0.9401 0.1628 0.9401c 0.0000,0.5462 -0.1891,0.9664 -0.1891 0.9664c -0.1891,0.4202 -0.5042,0.7090 -0.5042 0.7090c -0.3151,0.2889 -0.7195,0.4412 -0.7195 0.4412c -0.4044,0.1523 -0.8456,0.1523 -0.8456 0.1523c -0.3992,-0.0000 -0.7300,-0.0788 -0.7300 -0.0788c -0.3309,-0.0788 -0.5987,-0.2048 -0.5987 -0.2048c -0.2679,-0.1261 -0.4832,-0.2889 -0.4832 -0.2889c -0.2153,-0.1628 -0.3834,-0.3414 -0.3834 -0.3414ZM 401.6465,570.0000 ZM 404.2621,570.1261 c -1.0189,-0.0000 -1.5861,-0.9034 -1.5861 -0.9034c -0.5672,-0.9034 -0.5672,-2.5945 -0.5672 -2.5945c 0.0000,-1.6912 0.5672,-2.5735 0.5672 -2.5735c 0.5672,-0.8824 1.5861,-0.8824 1.5861 -0.8824c 1.0084,0.0000 1.5756,0.8824 1.5756 0.8824c 0.5672,0.8824 0.5672,2.5735 0.5672 2.5735c 0.0000,1.6912 -0.5672,2.5945 -0.5672 2.5945c -0.5672,0.9034 -1.5756,0.9034 -1.5756 0.9034ZM 404.2621,570.1261 ZM 404.2621,569.4328 c 0.2941,0.0000 0.5305,-0.1628 0.5305 -0.1628c 0.2363,-0.1628 0.4097,-0.5042 0.4097 -0.5042c 0.1733,-0.3414 0.2679,-0.8718 0.2679 -0.8718c 0.0945,-0.5305 0.0945,-1.2658 0.0945 -1.2658c 0.0000,-0.7353 -0.0945,-1.2605 -0.0945 -1.2605c -0.0945,-0.5252 -0.2679,-0.8561 -0.2679 -0.8561c -0.1733,-0.3309 -0.4097,-0.4884 -0.4097 -0.4884c -0.2363,-0.1576 -0.5305,-0.1576 -0.5305 -0.1576c -0.2941,-0.0000 -0.5357,0.1576 -0.5357 0.1576c -0.2416,0.1576 -0.4149,0.4884 -0.4149 0.4884c -0.1733,0.3309 -0.2679,0.8561 -0.2679 0.8561c -0.0945,0.5252 -0.0945,1.2605 -0.0945 1.2605c 0.0000,1.4706 0.3624,2.1376 0.3624 2.1376c 0.3624,0.6670 0.9506,0.6670 0.9506 0.6670ZM 406.8671,570.0000 ZM 409.4827,570.1261 c -1.0189,-0.0000 -1.5861,-0.9034 -1.5861 -0.9034c -0.5672,-0.9034 -0.5672,-2.5945 -0.5672 -2.5945c 0.0000,-1.6912 0.5672,-2.5735 0.5672 -2.5735c 0.5672,-0.8824 1.5861,-0.8824 1.5861 -0.8824c 1.0084,0.0000 1.5756,0.8824 1.5756 0.8824c 0.5672,0.8824 0.5672,2.5735 0.5672 2.5735c 0.0000,1.6912 -0.5672,2.5945 -0.5672 2.5945c -0.5672,0.9034 -1.5756,0.9034 -1.5756 0.9034ZM 409.4827,570.1261 ZM 409.4827,569.4328 c 0.2941,0.0000 0.5305,-0.1628 0.5305 -0.1628c 0.2363,-0.1628 0.4097,-0.5042 0.4097 -0.5042c 0.1733,-0.3414 0.2679,-0.8718 0.2679 -0.8718c 0.0945,-0.5305 0.0945,-1.2658 0.0945 -1.2658c 0.0000,-0.7353 -0.0945,-1.2605 -0.0945 -1.2605c -0.0945,-0.5252 -0.2679,-0.8561 -0.2679 -0.8561c -0.1733,-0.3309 -0.4097,-0.4884 -0.4097 -0.4884c -0.2363,-0.1576 -0.5305,-0.1576 -0.5305 -0.1576c -0.2941,-0.0000 -0.5357,0.1576 -0.5357 0.1576c -0.2416,0.1576 -0.4149,0.4884 -0.4149 0.4884c -0.1733,0.3309 -0.2679,0.8561 -0.2679 0.8561c -0.0945,0.5252 -0.0945,1.2605 -0.0945 1.2605c 0.0000,1.4706 0.3624,2.1376 0.3624 2.1376c 0.3624,0.6670 0.9506,0.6670 0.9506 0.6670Z"/></g><defs></defs><g stroke-linejoin="bevel" stroke-opacity="0.0" fill-opacity="1.0" stroke="rgb(0,0,0)" stroke-width="0.0" fill="rgb(0,0,0)" stroke-linecap="butt" stroke-miterlimit="10.0"><path d="M 584.6809,570.0000 ZM 586.5402,570.0000 c 0.0420,-0.9454 0.1681,-1.7332 0.1681 -1.7332c 0.1261,-0.7878 0.3519,-1.4968 0.3519 -1.4968c 0.2258,-0.7090 0.5777,-1.3708 0.5777 -1.3708c 0.3519,-0.6618 0.8456,-1.3550 0.8456 -1.3550h -3.3403 v -0.7458 h 4.3172 v 0.5357 c -0.5987,0.7563 -0.9716,1.4496 -0.9716 1.4496c -0.3729,0.6933 -0.5935,1.4128 -0.5935 1.4128c -0.2206,0.7195 -0.3204,1.5231 -0.3204 1.5231c -0.0998,0.8036 -0.1418,1.7805 -0.1418 1.7805h -0.8929 h 0.0000 ZM 589.9015,570.0000 ZM 590.5843,568.6450 c 0.2941,0.3046 0.6985,0.5357 0.6985 0.5357c 0.4044,0.2311 0.9926,0.2311 0.9926 0.2311c 0.3046,0.0000 0.5725,-0.1103 0.5725 -0.1103c 0.2679,-0.1103 0.4674,-0.3099 0.4674 -0.3099c 0.1996,-0.1996 0.3151,-0.4832 0.3151 -0.4832c 0.1155,-0.2836 0.1155,-0.6303 0.1155 -0.6303c 0.0000,-0.6933 -0.3887,-1.0819 -0.3887 -1.0819c -0.3887,-0.3887 -1.0399,-0.3887 -1.0399 -0.3887c -0.3466,-0.0000 -0.5935,0.1050 -0.5935 0.1050c -0.2468,0.1050 -0.5515,0.3046 -0.5515 0.3046l -0.4622,-0.2941 l 0.2206,-3.2248 h 3.3508 v 0.7458 h -2.5945 l -0.1786,1.9853 c 0.2416,-0.1261 0.4832,-0.1996 0.4832 -0.1996c 0.2416,-0.0735 0.5462,-0.0735 0.5462 -0.0735c 0.4307,0.0000 0.8088,0.1261 0.8088 0.1261c 0.3782,0.1261 0.6618,0.3834 0.6618 0.3834c 0.2836,0.2574 0.4464,0.6513 0.4464 0.6513c 0.1628,0.3939 0.1628,0.9401 0.1628 0.9401c 0.0000,0.5462 -0.1891,0.9664 -0.1891 0.9664c -0.1891,0.4202 -0.5042,0.7090 -0.5042 0.7090c -0.3151,0.2889 -0.7195,0.4412 -0.7195 0.4412c -0.4044,0.1523 -0.8456,0.1523 -0.8456 0.1523c -0.3992,-0.0000 -0.7300,-0.0788 -0.7300 -0.0788c -0.3309,-0.0788 -0.5987,-0.2048 -0.5987 -0.2048c -0.2679,-0.1261 -0.4832,-0.2889 -0.4832 -0.2889c -0.2153,-0.1628 -0.3834,-0.3414 -0.3834 -0.3414ZM 595.1221,570.0000 ZM 597.7377,570.1261 c -1.0189,-0.0000 -1.5861,-0.9034 -1.5861 -0.9034c -0.5672,-0.9034 -0.5672,-2.5945 -0.5672 -2.5945c 0.0000,-1.6912 0.5672,-2.5735 0.5672 -2.5735c 0.5672,-0.8824 1.5861,-0.8824 1.5861 -0.8824c 1.0084,0.0000 1.5756,0.8824 1.5756 0.8824c 0.5672,0.8824 0.5672,2.5735 0.5672 2.5735c 0.0000,1.6912 -0.5672,2.5945 -0.5672 2.5945c -0.5672,0.9034 -1.5756,0.9034 -1.5756 0.9034ZM 597.7377,570.1261 ZM 597.7377,569.4328 c 0.2941,0.0000 0.5305,-0.1628 0.5305 -0.1628c 0.2363,-0.1628 0.4097,-0.5042 0.4097 -0.5042c 0.1733,-0.3414 0.2679,-0.8718 0.2679 -0.8718c 0.0945,-0.5305 0.0945,-1.2658 0.0945 -1.2658c 0.0000,-0.7353 -0.0945,-1.2605 -0.0945 -1.2605c -0.0945,-0.5252 -0.2679,-0.8561 -0.2679 -0.8561c -0.1733,-0.3309 -0.4097,-0.4884 -0.4097 -0.4884c -0.2363,-0.1576 -0.5305,-0.1576 -0.5305 -0.1576c -0.2941,-0.0000 -0.5357,0.1576 -0.5357 0.1576c -0.2416,0.1576 -0.4149,0.4884 -0.4149 0.4884c -0.1733,0.3309 -0.2679,0.8561 -0.2679 0.8561c -0.0945,0.5252 -0.0945,1.2605 -0.0945 1.2605c 0.0000,1.4706 0.3624,2.1376 0.3624 2.1376c 0.3624,0.6670 0.9506,0.6670 0.9506 0.6670Z"/></g><defs></defs><g stroke-linejoin="bevel" stroke-opacity="0.0" fill-opacity="1.0" stroke="rgb(0,0,0)" stroke-width="0.0" fill="rgb(0,0,0)" stroke-linecap="butt" stroke-miterlimit="10.0"><path d="M 770.4097,570.0000 ZM 771.2395,569.2857 h 1.5336 v -4.9370 h -1.2185 v -0.5567 c 0.4622,-0.0840 0.8036,-0.2048 0.8036 -0.2048c 0.3414,-0.1208 0.6145,-0.2889 0.6145 -0.2889h 0.6618 v 5.9874 h 1.3866 v 0.7143 h -3.7815 v -0.7143 ZM 775.6303,570.0000 ZM 778.2458,570.1261 c -1.0189,-0.0000 -1.5861,-0.9034 -1.5861 -0.9034c -0.5672,-0.9034 -0.5672,-2.5945 -0.5672 -2.5945c 0.0000,-1.6912 0.5672,-2.5735 0.5672 -2.5735c 0.5672,-0.8824 1.5861,-0.8824 1.5861 -0.8824c 1.0084,0.0000 1.5756,0.8824 1.5756 0.8824c 0.5672,0.8824 0.5672,2.5735 0.5672 2.5735c 0.0000,1.6912 -0.5672,2.5945 -0.5672 2.5945c -0.5672,0.9034 -1.5756,0.9034 -1.5756 0.9034ZM 778.2458,570.1261 ZM 778.2458,569.4328 c 0.2941,0.0000 0.5305,-0.1628 0.5305 -0.1628c 0.2363,-0.1628 0.4097,-0.5042 0.4097 -0.5042c 0.1733,-0.3414 0.2679,-0.8718 0.2679 -0.8718c 0.0945,-0.5305 0.0945,-1.2658 0.0945 -1.2658c 0.0000,-0.7353 -0.0945,-1.2605 -0.0945 -1.2605c -0.0945,-0.5252 -0.2679,-0.8561 -0.2679 -0.8561c -0.1733,-0.3309 -0.4097,-0.4884 -0.4097 -0.4884c -0.2363,-0.1576 -0.5305,-0.1576 -0.5305 -0.1576c -0.2941,-0.0000 -0.5357,0.1576 -0.5357 0.1576c -0.2416,0.1576 -0.4149,0.4884 -0.4149 0.4884c -0.1733,0.3309 -0.2679,0.8561 -0.2679 0.8561c -0.0945,0.5252 -0.0945,1.2605 -0.0945 1.2605c 0.0000,1.4706 0.3624,2.1376 0.3624 2.1376c 0.3624,0.6670 0.9506,0.6670 0.9506 0.6670ZM 780.8508,570.0000 ZM 783.4664,570.1261 c -1.0189,-0.0000 -1.5861,-0.9034 -1.5861 -0.9034c -0.5672,-0.9034 -0.5672,-2.5945 -0.5672 -2.5945c 0.0000,-1.6912 0.5672,-2.5735 0.5672 -2.5735c 0.5672,-0.8824 1.5861,-0.8824 1.5861 -0.8824c 1.0084,0.0000 1.5756,0.8824 1.5756 0.8824c 0.5672,0.8824 0.5672,2.5735 0.5672 2.5735c 0.0000,1.6912 -0.5672,2.5945 -0.5672 2.5945c -0.5672,0.9034 -1.5756,0.9034 -1.5756 0.9034ZM 783.4664,570.1261 ZM 783.4664,569.4328 c 0.2941,0.0000 0.5305,-0.1628 0.5305 -0.1628c 0.2363,-0.1628 0.4097,-0.5042 0.4097 -0.5042c 0.1733,-0.3414 0.2679,-0.8718 0.2679 -0.8718c 0.0945,-0.5305 0.0945,-1.2658 0.0945 -1.2658c 0.0000,-0.7353 -0.0945,-1.2605 -0.0945 -1.2605c -0.0945,-0.5252 -0.2679,-0.8561 -0.2679 -0.8561c -0.1733,-0.3309 -0.4097,-0.4884 -0.4097 -0.4884c -0.2363,-0.1576 -0.5305,-0.1576 -0.5305 -0.1576c -0.2941,-0.0000 -0.5357,0.1576 -0.5357 0.1576c -0.2416,0.1576 -0.4149,0.4884 -0.4149 0.4884c -0.1733,0.3309 -0.2679,0.8561 -0.2679 0.8561c -0.0945,0.5252 -0.0945,1.2605 -0.0945 1.2605c 0.0000,1.4706 0.3624,2.1376 0.3624 2.1376c 0.3624,0.6670 0.9506,0.6670 0.9506 0.6670ZM 786.0714,570.0000 ZM 788.6870,570.1261 c -1.0189,-0.0000 -1.5861,-0.9034 -1.5861 -0.9034c -0.5672,-0.9034 -0.5672,-2.5945 -0.5672 -2.5945c 0.0000,-1.6912 0.5672,-2.5735 0.5672 -2.5735c 0.5672,-0.8824 1.5861,-0.8824 1.5861 -0.8824c 1.0084,0.0000 1.5756,0.8824 1.5756 0.8824c 0.5672,0.8824 0.5672,2.5735 0.5672 2.5735c 0.0000,1.6912 -0.5672,2.5945 -0.5672 2.5945c -0.5672,0.9034 -1.5756,0.9034 -1.5756 0.9034ZM 788.6870,570.1261 ZM 788.6870,569.4328 c 0.2941,0.0000 0.5305,-0.1628 0.5305 -0.1628c 0.2363,-0.1628 0.4097,-0.5042 0.4097 -0.5042c 0.1733,-0.3414 0.2679,-0.8718 0.2679 -0.8718c 0.0945,-0.5305 0.0945,-1.2658 0.0945 -1.2658c 0.0000,-0.7353 -0.0945,-1.2605 -0.0945 -1.2605c -0.0945,-0.5252 -0.2679,-0.8561 -0.2679 -0.8561c -0.1733,-0.3309 -0.4097,-0.4884 -0.4097 -0.4884c -0.2363,-0.1576 -0.5305,-0.1576 -0.5305 -0.1576c -0.2941,-0.0000 -0.5357,0.1576 -0.5357 0.1576c -0.2416,0.1576 -0.4149,0.4884 -0.4149 0.4884c -0.1733,0.3309 -0.2679,0.8561 -0.2679 0.8561c -0.0945,0.5252 -0.0945,1.2605 -0.0945 1.2605c 0.0000,1.4706 0.3624,2.1376 0.3624 2.1376c 0.3624,0.6670 0.9506,0.6670 0.9506 0.6670Z"/></g><defs></defs><g stroke-linejoin="round" stroke-opacity="1.0" fill-opacity="0.0" stroke="rgb(0,0,255)" stroke-width="0.9999999999999997" fill="rgb(0,0,0)" stroke-linecap="round" stroke-miterlimit="10.0"><path d="M 10.0000,585.0000 h 20.0000 "/></g><defs></defs><g stroke-linejoin="bevel" stroke-opacity="0.0" fill-opacity="1.0" stroke="rgb(0,0,0)" stroke-width="0.0" fill="rgb(0,0,0)" stroke-linecap="butt" stroke-miterlimit="10.0"><path d="M 35.0735,586.6071 ZM 38.2353,579.8319 c -0.2836,-0.1261 -0.5777,-0.1261 -0.5777 -0.1261c -0.7143,-0.0000 -0.7143,0.9874 -0.7143 0.9874v 0.8088 h 1.0819 v 0.7038 h -1.0819 v 4.4013 h -0.8613 v -4.4013 h -0.6933 v -0.6513 l 0.6933,-0.0525 v -0.8088 c 0.0000,-0.7878 0.3624,-1.2395 0.3624 -1.2395c 0.3624,-0.4517 1.1292,-0.4517 1.1292 -0.4517c 0.2416,0.0000 0.4569,0.0473 0.4569 0.0473c 0.2153,0.0473 0.3939,0.1208 0.3939 0.1208ZM 38.1408,586.6071 ZM 39.0021,581.5021 h 0.7143 l 0.0735,0.9244 h 0.0315 c 0.2626,-0.4832 0.6355,-0.7668 0.6355 -0.7668c 0.3729,-0.2836 0.8141,-0.2836 0.8141 -0.2836c 0.3046,0.0000 0.5462,0.1050 0.5462 0.1050l -0.1681,0.7563 c -0.1261,-0.0420 -0.2311,-0.0630 -0.2311 -0.0630c -0.1050,-0.0210 -0.2626,-0.0210 -0.2626 -0.0210c -0.3256,-0.0000 -0.6775,0.2626 -0.6775 0.2626c -0.3519,0.2626 -0.6145,0.9139 -0.6145 0.9139v 3.2773 h -0.8613 v -5.1050 ZM 41.6807,586.6071 ZM 42.1639,584.0651 c 0.0000,-0.6303 0.1943,-1.1292 0.1943 -1.1292c 0.1943,-0.4989 0.5147,-0.8456 0.5147 -0.8456c 0.3204,-0.3466 0.7300,-0.5305 0.7300 -0.5305c 0.4097,-0.1838 0.8508,-0.1838 0.8508 -0.1838c 0.4832,0.0000 0.8666,0.1681 0.8666 0.1681c 0.3834,0.1681 0.6408,0.4832 0.6408 0.4832c 0.2574,0.3151 0.3939,0.7563 0.3939 0.7563c 0.1366,0.4412 0.1366,0.9874 0.1366 0.9874c 0.0000,0.2836 -0.0315,0.4727 -0.0315 0.4727h -3.4454 c 0.0525,0.8298 0.5095,1.3130 0.5095 1.3130c 0.4569,0.4832 1.1922,0.4832 1.1922 0.4832c 0.3676,0.0000 0.6775,-0.1103 0.6775 -0.1103c 0.3099,-0.1103 0.5935,-0.2889 0.5935 -0.2889l 0.3046,0.5672 c -0.3361,0.2101 -0.7458,0.3676 -0.7458 0.3676c -0.4097,0.1576 -0.9349,0.1576 -0.9349 0.1576c -0.5147,-0.0000 -0.9611,-0.1838 -0.9611 -0.1838c -0.4464,-0.1838 -0.7773,-0.5252 -0.7773 -0.5252c -0.3309,-0.3414 -0.5200,-0.8351 -0.5200 -0.8351c -0.1891,-0.4937 -0.1891,-1.1239 -0.1891 -1.1239ZM 42.1639,584.0651 ZM 45.7353,583.6765 c 0.0000,-0.7878 -0.3309,-1.2027 -0.3309 -1.2027c -0.3309,-0.4149 -0.9296,-0.4149 -0.9296 -0.4149c -0.2731,-0.0000 -0.5200,0.1103 -0.5200 0.1103c -0.2468,0.1103 -0.4464,0.3151 -0.4464 0.3151c -0.1996,0.2048 -0.3309,0.5042 -0.3309 0.5042c -0.1313,0.2994 -0.1733,0.6880 -0.1733 0.6880h 2.7311 ZM 46.8908,586.6071 ZM 47.3845,584.0651 c 0.0000,-0.6197 0.1838,-1.1187 0.1838 -1.1187c 0.1838,-0.4989 0.4884,-0.8456 0.4884 -0.8456c 0.3046,-0.3466 0.7038,-0.5357 0.7038 -0.5357c 0.3992,-0.1891 0.8403,-0.1891 0.8403 -0.1891c 0.4412,0.0000 0.7773,0.1523 0.7773 0.1523c 0.3361,0.1523 0.6828,0.4569 0.6828 0.4569h 0.0210 l 0.0840,-0.4832 h 0.6933 v 7.2584 h -0.8718 v -1.8172 l 0.0420,-0.9034 c -0.3046,0.2836 -0.6985,0.4884 -0.6985 0.4884c -0.3939,0.2048 -0.8351,0.2048 -0.8351 0.2048c -0.9664,-0.0000 -1.5389,-0.6933 -1.5389 -0.6933c -0.5725,-0.6933 -0.5725,-1.9748 -0.5725 -1.9748ZM 47.3845,584.0651 ZM 48.2773,584.0546 c 0.0000,0.9244 0.3676,1.4391 0.3676 1.4391c 0.3676,0.5147 1.0399,0.5147 1.0399 0.5147c 0.3571,0.0000 0.6723,-0.1733 0.6723 -0.1733c 0.3151,-0.1733 0.6303,-0.5305 0.6303 -0.5305v -2.6681 c -0.3256,-0.2941 -0.6250,-0.4149 -0.6250 -0.4149c -0.2994,-0.1208 -0.6145,-0.1208 -0.6145 -0.1208c -0.3046,-0.0000 -0.5725,0.1418 -0.5725 0.1418c -0.2679,0.1418 -0.4674,0.3992 -0.4674 0.3992c -0.1996,0.2574 -0.3151,0.6145 -0.3151 0.6145c -0.1155,0.3571 -0.1155,0.7983 -0.1155 0.7983ZM 52.6681,586.6071 ZM 53.4559,581.5021 h 0.8718 v 3.1197 c 0.0000,0.7248 0.2258,1.0452 0.2258 1.0452c 0.2258,0.3204 0.7300,0.3204 0.7300 0.3204c 0.3992,0.0000 0.7038,-0.2048 0.7038 -0.2048c 0.3046,-0.2048 0.6723,-0.6565 0.6723 -0.6565v -3.6239 h 0.8613 v 5.1050 h -0.7143 l -0.0735,-0.7983 h -0.0315 c -0.3571,0.4202 -0.7511,0.6723 -0.7511 0.6723c -0.3939,0.2521 -0.9296,0.2521 -0.9296 0.2521c -0.8193,-0.0000 -1.1922,-0.5042 -1.1922 -0.5042c -0.3729,-0.5042 -0.3729,-1.4916 -0.3729 -1.4916v -3.2353 ZM 58.3824,586.6071 ZM 58.8655,584.0651 c 0.0000,-0.6303 0.1943,-1.1292 0.1943 -1.1292c 0.1943,-0.4989 0.5147,-0.8456 0.5147 -0.8456c 0.3204,-0.3466 0.7300,-0.5305 0.7300 -0.5305c 0.4097,-0.1838 0.8508,-0.1838 0.8508 -0.1838c 0.4832,0.0000 0.8666,0.1681 0.8666 0.1681c 0.3834,0.1681 0.6408,0.4832 0.6408 0.4832c 0.2574,0.3151 0.3939,0.7563 0.3939 0.7563c 0.1366,0.4412 0.1366,0.9874 0.1366 0.9874c 0.0000,0.2836 -0.0315,0.4727 -0.0315 0.4727h -3.4454 c 0.0525,0.8298 0.5095,1.3130 0.5095 1.3130c 0.4569,0.4832 1.1922,0.4832 1.1922 0.4832c 0.3676,0.0000 0.6775,-0.1103 0.6775 -0.1103c 0.3099,-0.1103 0.5935,-0.2889 0.5935 -0.2889l 0.3046,0.5672 c -0.3361,0.2101 -0.7458,0.3676 -0.7458 0.3676c -0.4097,0.1576 -0.9349,0.1576 -0.9349 0.1576c -0.5147,-0.0000 -0.9611,-0.1838 -0.9611 -0.1838c -0.4464,-0.1838 -0.7773,-0.5252 -0.7773 -0.5252c -0.3309,-0.3414 -0.5200,-0.8351 -0.5200 -0.8351c -0.1891,-0.4937 -0.1891,-1.1239 -0.1891 -1.1239ZM 58.8655,584.0651 ZM 62.4370,583.6765 c 0.0000,-0.7878 -0.3309,-1.2027 -0.3309 -1.2027c -0.3309,-0.4149 -0.9296,-0.4149 -0.9296 -0.4149c -0.2731,-0.0000 -0.5200,0.1103 -0.5200 0.1103c -0.2468,0.1103 -0.4464,0.3151 -0.4464 0.3151c -0.1996,0.2048 -0.3309,0.5042 -0.3309 0.5042c -0.1313,0.2994 -0.1733,0.6880 -0.1733 0.6880h 2.7311 ZM 63.5924,586.6071 ZM 64.4538,581.5021 h 0.7143 l 0.0735,0.7353 h 0.0315 c 0.3676,-0.3676 0.7721,-0.6145 0.7721 -0.6145c 0.4044,-0.2468 0.9401,-0.2468 0.9401 -0.2468c 0.8088,0.0000 1.1817,0.5042 1.1817 0.5042c 0.3729,0.5042 0.3729,1.4916 0.3729 1.4916v 3.2353 h -0.8613 v -3.1197 c 0.0000,-0.7248 -0.2311,-1.0452 -0.2311 -1.0452c -0.2311,-0.3204 -0.7353,-0.3204 -0.7353 -0.3204c -0.3992,-0.0000 -0.7038,0.1996 -0.7038 0.1996c -0.3046,0.1996 -0.6933,0.5882 -0.6933 0.5882v 3.6975 h -0.8613 v -5.1050 ZM 69.3382,586.6071 ZM 69.8214,584.0651 c 0.0000,-0.6408 0.1996,-1.1397 0.1996 -1.1397c 0.1996,-0.4989 0.5357,-0.8456 0.5357 -0.8456c 0.3361,-0.3466 0.7826,-0.5252 0.7826 -0.5252c 0.4464,-0.1786 0.9401,-0.1786 0.9401 -0.1786c 0.5042,0.0000 0.8666,0.1838 0.8666 0.1838c 0.3624,0.1838 0.6250,0.4254 0.6250 0.4254l -0.4307,0.5567 c -0.2311,-0.1996 -0.4779,-0.3256 -0.4779 -0.3256c -0.2468,-0.1261 -0.5515,-0.1261 -0.5515 -0.1261c -0.3466,-0.0000 -0.6408,0.1418 -0.6408 0.1418c -0.2941,0.1418 -0.5042,0.4044 -0.5042 0.4044c -0.2101,0.2626 -0.3309,0.6250 -0.3309 0.6250c -0.1208,0.3624 -0.1208,0.8036 -0.1208 0.8036c 0.0000,0.4412 0.1155,0.7983 0.1155 0.7983c 0.1155,0.3571 0.3204,0.6145 0.3204 0.6145c 0.2048,0.2574 0.4989,0.3992 0.4989 0.3992c 0.2941,0.1418 0.6408,0.1418 0.6408 0.1418c 0.3676,0.0000 0.6670,-0.1523 0.6670 -0.1523c 0.2994,-0.1523 0.5305,-0.3624 0.5305 -0.3624l 0.3887,0.5672 c -0.3466,0.3046 -0.7721,0.4832 -0.7721 0.4832c -0.4254,0.1786 -0.8876,0.1786 -0.8876 0.1786c -0.5042,-0.0000 -0.9454,-0.1786 -0.9454 -0.1786c -0.4412,-0.1786 -0.7616,-0.5200 -0.7616 -0.5200c -0.3204,-0.3414 -0.5042,-0.8403 -0.5042 -0.8403c -0.1838,-0.4989 -0.1838,-1.1292 -0.1838 -1.1292ZM 74.1912,586.6071 ZM 74.7059,588.0147 l 0.1891,0.0473 c 0.0000,0.0000 0.1996,0.0263 0.1996 0.0263c 0.4412,0.0000 0.7195,-0.3099 0.7195 -0.3099c 0.2784,-0.3099 0.4359,-0.7826 0.4359 -0.7826l 0.1155,-0.3782 l -2.0483,-5.1155 h 0.8929 l 1.0399,2.8256 c 0.1155,0.3361 0.2468,0.7090 0.2468 0.7090c 0.1313,0.3729 0.2468,0.7300 0.2468 0.7300h 0.0420 c 0.1155,-0.3466 0.2206,-0.7248 0.2206 -0.7248c 0.1050,-0.3782 0.2101,-0.7143 0.2101 -0.7143l 0.9139,-2.8256 h 0.8403 l -1.9223,5.5252 c -0.1366,0.3782 -0.3046,0.7038 -0.3046 0.7038c -0.1681,0.3256 -0.3992,0.5620 -0.3992 0.5620c -0.2311,0.2363 -0.5252,0.3729 -0.5252 0.3729c -0.2941,0.1366 -0.6828,0.1366 -0.6828 0.1366c -0.1786,-0.0000 -0.3256,-0.0263 -0.3256 -0.0263c -0.1471,-0.0263 -0.2731,-0.0788 -0.2731 -0.0788l 0.1681,-0.6828 h 0.0000 ZM 81.2185,586.6071 ZM 81.7017,584.0651 c 0.0000,-0.6303 0.1943,-1.1292 0.1943 -1.1292c 0.1943,-0.4989 0.5147,-0.8456 0.5147 -0.8456c 0.3204,-0.3466 0.7300,-0.5305 0.7300 -0.5305c 0.4097,-0.1838 0.8508,-0.1838 0.8508 -0.1838c 0.4832,0.0000 0.8666,0.1681 0.8666 0.1681c 0.3834,0.1681 0.6408,0.4832 0.6408 0.4832c 0.2574,0.3151 0.3939,0.7563 0.3939 0.7563c 0.1366,0.4412 0.1366,0.9874 0.1366 0.9874c 0.0000,0.2836 -0.0315,0.4727 -0.0315 0.4727h -3.4454 c 0.0525,0.8298 0.5095,1.3130 0.5095 1.3130c 0.4569,0.4832 1.1922,0.4832 1.1922 0.4832c 0.3676,0.0000 0.6775,-0.1103 0.6775 -0.1103c 0.3099,-0.1103 0.5935,-0.2889 0.5935 -0.2889l 0.3046,0.5672 c -0.3361,0.2101 -0.7458,0.3676 -0.7458 0.3676c -0.4097,0.1576 -0.9349,0.1576 -0.9349 0.1576c -0.5147,-0.0000 -0.9611,-0.1838 -0.9611 -0.1838c -0.4464,-0.1838 -0.7773,-0.5252 -0.7773 -0.5252c -0.3309,-0.3414 -0.5200,-0.8351 -0.5200 -0.8351c -0.1891,-0.4937 -0.1891,-1.1239 -0.1891 -1.1239ZM 81.7017,584.0651 ZM 85.2731,583.6765 c 0.0000,-0.7878 -0.3309,-1.2027 -0.3309 -1.2027c -0.3309,-0.4149 -0.9296,-0.4149 -0.9296 -0.4149c -0.2731,-0.0000 -0.5200,0.1103 -0.5200 0.1103c -0.2468,0.1103 -0.4464,0.3151 -0.4464 0.3151c -0.1996,0.2048 -0.3309,0.5042 -0.3309 0.5042c -0.1313,0.2994 -0.1733,0.6880 -0.1733 0.6880h 2.7311 ZM 86.4286,586.6071 ZM 87.2899,581.5021 h 0.7143 l 0.0735,0.9244 h 0.0315 c 0.2626,-0.4832 0.6355,-0.7668 0.6355 -0.7668c 0.3729,-0.2836 0.8141,-0.2836 0.8141 -0.2836c 0.3046,0.0000 0.5462,0.1050 0.5462 0.1050l -0.1681,0.7563 c -0.1261,-0.0420 -0.2311,-0.0630 -0.2311 -0.0630c -0.1050,-0.0210 -0.2626,-0.0210 -0.2626 -0.0210c -0.3256,-0.0000 -0.6775,0.2626 -0.6775 0.2626c -0.3519,0.2626 -0.6145,0.9139 -0.6145 0.9139v 3.2773 h -0.8613 v -5.1050 ZM 90.0735,586.6071 ZM 90.9349,581.5021 h 0.7143 l 0.0735,0.9244 h 0.0315 c 0.2626,-0.4832 0.6355,-0.7668 0.6355 -0.7668c 0.3729,-0.2836 0.8141,-0.2836 0.8141 -0.2836c 0.3046,0.0000 0.5462,0.1050 0.5462 0.1050l -0.1681,0.7563 c -0.1261,-0.0420 -0.2311,-0.0630 -0.2311 -0.0630c -0.1050,-0.0210 -0.2626,-0.0210 -0.2626 -0.0210c -0.3256,-0.0000 -0.6775,0.2626 -0.6775 0.2626c -0.3519,0.2626 -0.6145,0.9139 -0.6145 0.9139v 3.2773 h -0.8613 v -5.1050 ZM 93.6134,586.6071 ZM 94.0966,584.0651 c 0.0000,-0.6408 0.1943,-1.1397 0.1943 -1.1397c 0.1943,-0.4989 0.5200,-0.8456 0.5200 -0.8456c 0.3256,-0.3466 0.7511,-0.5252 0.7511 -0.5252c 0.4254,-0.1786 0.8981,-0.1786 0.8981 -0.1786c 0.4727,0.0000 0.8981,0.1786 0.8981 0.1786c 0.4254,0.1786 0.7511,0.5252 0.7511 0.5252c 0.3256,0.3466 0.5200,0.8456 0.5200 0.8456c 0.1943,0.4989 0.1943,1.1397 0.1943 1.1397c 0.0000,0.6303 -0.1943,1.1292 -0.1943 1.1292c -0.1943,0.4989 -0.5200,0.8403 -0.5200 0.8403c -0.3256,0.3414 -0.7511,0.5200 -0.7511 0.5200c -0.4254,0.1786 -0.8981,0.1786 -0.8981 0.1786c -0.4727,-0.0000 -0.8981,-0.1786 -0.8981 -0.1786c -0.4254,-0.1786 -0.7511,-0.5200 -0.7511 -0.5200c -0.3256,-0.3414 -0.5200,-0.8403 -0.5200 -0.8403c -0.1943,-0.4989 -0.1943,-1.1292 -0.1943 -1.1292ZM 94.0966,584.0651 ZM 94.9895,584.0651 c 0.0000,0.4412 0.1050,0.7983 0.1050 0.7983c 0.1050,0.3571 0.2994,0.6145 0.2994 0.6145c 0.1943,0.2574 0.4674,0.3992 0.4674 0.3992c 0.2731,0.1418 0.5987,0.1418 0.5987 0.1418c 0.3256,0.0000 0.5987,-0.1418 0.5987 -0.1418c 0.2731,-0.1418 0.4674,-0.3992 0.4674 -0.3992c 0.1943,-0.2574 0.2994,-0.6145 0.2994 -0.6145c 0.1050,-0.3571 0.1050,-0.7983 0.1050 -0.7983c 0.0000,-0.4412 -0.1050,-0.8036 -0.1050 -0.8036c -0.1050,-0.3624 -0.2994,-0.6250 -0.2994 -0.6250c -0.1943,-0.2626 -0.4674,-0.4044 -0.4674 -0.4044c -0.2731,-0.1418 -0.5987,-0.1418 -0.5987 -0.1418c -0.3256,-0.0000 -0.5987,0.1418 -0.5987 0.1418c -0.2731,0.1418 -0.4674,0.4044 -0.4674 0.4044c -0.1943,0.2626 -0.2994,0.6250 -0.2994 0.6250c -0.1050,0.3624 -0.1050,0.8036 -0.1050 0.8036ZM 99.3067,586.6071 ZM 100.1681,581.5021 h 0.7143 l 0.0735,0.9244 h 0.0315 c 0.2626,-0.4832 0.6355,-0.7668 0.6355 -0.7668c 0.3729,-0.2836 0.8141,-0.2836 0.8141 -0.2836c 0.3046,0.0000 0.5462,0.1050 0.5462 0.1050l -0.1681,0.7563 c -0.1261,-0.0420 -0.2311,-0.0630 -0.2311 -0.0630c -0.1050,-0.0210 -0.2626,-0.0210 -0.2626 -0.0210c -0.3256,-0.0000 -0.6775,0.2626 -0.6775 0.2626c -0.3519,0.2626 -0.6145,0.9139 -0.6145 0.9139v 3.2773 h -0.8613 v -5.1050 Z"/></g></svg>