<?xml version="1.0" encoding="UTF-8"?>
<!DOCTYPE svg PUBLIC "-//W3C//DTD SVG 1.1//EN"
    "http://www.w3.org/Graphics/SVG/1.1/DTD/svg11.dtd"><svg xmlns="http://www.w3.org/2000/svg" height="600.0000" stroke-opacity="1" viewBox="0 0 800 600" font-size="1" width="800.0000" xmlns:xlink="http://www.w3.org/1999/xlink" stroke="rgb(0,0,0)" version="1.1"><defs></defs><defs></defs><g stroke-linejoin="bevel" stroke-opacity="0.0" fill-opacity="1.0" stroke="rgb(0,0,0)" stroke-width="0.0" fill="rgb(255,255,255)" stroke-linecap="butt" stroke-miterlimit="10.0"><path d="M 0.0000,0.0000 v 600.0000 h 800.0000 v -600.0000 Z"/></g><defs></defs><g stroke-linejoin="miter" stroke-opacity="1.0" fill-opacity="0.0" stroke="rgb(211,211,211)" stroke-width="0.9999999999999997" fill="rgb(0,0,0)" stroke-dashoffset="0.0" stroke-linecap="butt" stroke-miterlimit="10.0" stroke-dasharray="4.999999999999998,4.999999999999998"><path d="M 27.5840,15.0000 v 535.0000 "/></g><defs></defs><g stroke-linejoin="miter" stroke-opacity="1.0" fill-opacity="0.0" stroke="rgb(211,211,211)" stroke-width="0.9999999999999997" fill="rgb(0,0,0)" stroke-dashoffset="0.0" stroke-linecap="butt" stroke-miterlimit="10.0" stroke-dasharray="4.999999999999998,4.999999999999998"><path d="M 215.7392,15.0000 v 535.0000 "/></g><defs></defs><g stroke-linejoin="miter" stroke-opacity="1.0" fill-opacity="0.0" stroke="rgb(211,211,211)" stroke-width="0.9999999999999997" fill="rgb(0,0,0)" stroke-dashoffset="0.0" stroke-linecap="butt" stroke-miterlimit="10.0" stroke-dasharray="4.999999999999998,4.999999999999998"><path d="M 403.8944,15.0000 v 535.0000 "/></g><defs></defs><g stroke-linejoin="miter" stroke-opacity="1.0" fill-opacity="0.0" stroke="rgb(211,211,211)" stroke-width="0.9999999999999997" fill="rgb(0,0,0)" stroke-dashoffset="0.0" stroke-linecap="butt" stroke-miterlimit="10.0" stroke-dasharray="4.999999999999998,4.999999999999998"><path d="M 592.0496,15.0000 v 535.0000 "/></g><defs></defs><g stroke-linejoin="miter" stroke-opacity="1.0" fill-opacity="0.0" stroke="rgb(211,211,211)" stroke-width="0.9999999999999997" fill="rgb(0,0,0)" stroke-dashoffset="0.0" stroke-linecap="butt" stroke-miterlimit="10.0" stroke-dasharray="4.999999999999998,4.999999999999998"><path d="M 780.2048,15.0000 v 535.0000 "/></g><defs></defs><g stroke-linejoin="miter" stroke-opacity="1.0" fill-opacity="0.0" stroke="rgb(211,211,211)" stroke-width="0.9999999999999997" fill="rgb(0,0,0)" stroke-dashoffset="0.0" stroke-linecap="butt" stroke-miterlimit="10.0" stroke-dasharray="4.999999999999998,4.999999999999998"><path d="M 27.5840,550.0000 h 752.6208 "/></g><defs></defs><g stroke-linejoin="miter" stroke-opacity="1.0" fill-opacity="0.0" stroke="rgb(211,211,211)" stroke-width="0.9999999999999997" fill="rgb(0,0,0)" stroke-dashoffset="0.0" stroke-linecap="butt" stroke-miterlimit="10.0" stroke-dasharray="4.999999999999998,4.999999999999998"><path d="M 27.5840,416.2500 h 752.6208 "/></g><defs></defs><g stroke-linejoin="miter" stroke-opacity="1.0" fill-opacity="0.0" stroke="rgb(211,211,211)" stroke-width="0.9999999999999997" fill="rgb(0,0,0)" stroke-dashoffset="0.0" stroke-linecap="butt" stroke-miterlimit="10.0" stroke-dasharray="4.999999999999998,4.999999999999998"><path d="M 27.5840,282.5000 h 752.6208 "/></g><defs></defs><g stroke-linejoin="miter" stroke-opacity="1.0" fill-opacity="0.0" stroke="rgb(211,211,211)" stroke-width="0.9999999999999997" fill="rgb(0,0,0)" stroke-dashoffset="0.0" stroke-linecap="butt" stroke-miterlimit="10.0" stroke-dasharray="4.999999999999998,4.999999999999998"><path d="M 27.5840,148.7500 h 752.6208 "/></g><defs></defs><g stroke-linejoin="miter" stroke-opacity="1.0" fill-opacity="0.0" stroke="rgb(211,211,211)" stroke-width="0.9999999999999997" fill="rgb(0,0,0)" stroke-dashoffset="0.0" stroke-linecap="butt" stroke-miterlimit="10.0" stroke-dasharray="4.999999999999998,4.999999999999998"><path d="M 27.5840,15.0000 h 752.6208 "/></g><defs></defs><g stroke-linejoin="round" stroke-opacity="1.0" fill-opacity="0.0" stroke="rgb(0,0,255)" stroke-width="0.9999999999999997" fill="rgb(0,0,0)" stroke-linecap="round" stroke-miterlimit="10.0"><defs><clipPath id="myClip1"><path d="M 27.5840,15.0000 v 535.0000 h 752.6208 v -535.0000 Z"/></clipPath></defs><g clip-path="url(#myClip1)"><path d="M 28.3367,268.9682 l 0.7526,92.7806 l 0.7526,-144.4153 l 0.7526,219.7782 l 0.7526,-98.2959 l 0.7526,-208.0361 l 0.7526,67.3036 l 0.7526,203.7096 l 0.7526,-176.8792 l 0.7526,116.5450 l 0.7526,-51.4262 l 0.7526,-134.6017 l 0.7526,247.8458 l 0.7526,-123.0291 l 0.7526,129.2765 l 0.7526,-154.7741 l 0.7526,-42.3690 l 0.7526,-3.3361 l 0.7526,60.2590 l 0.7526,153.7540 l 0.7526,-275.9650 l 0.7526,152.9863 l 0.7526,71.5596 l 0.7526,-148.8281 l 0.7526,69.3519 l 0.7526,-26.0128 l 0.7526,-25.2008 l 0.7526,54.7518 l 0.7526,77.6288 l 0.7526,-191.1734 l 0.7526,98.1167 l 0.7526,118.0478 l 0.7526,-278.7728 l 0.7526,166.2851 l 0.7526,-11.5340 l 0.7526,24.8480 l 0.7526,-10.8474 l 0.7526,179.6189 l 0.7526,-408.9816 l 0.7526,337.4902 l 0.7526,-9.1842 l 0.7526,-178.3256 l 0.7526,-71.4286 l 0.7526,261.1745 l 0.7526,-157.8395 l 0.7526,195.5194 l 0.7526,-163.4646 l 0.7526,-206.5501 l 0.7526,385.4457 l 0.7526,-249.1647 l 0.7526,69.8560 l 0.7526,-61.7010 l 0.7526,243.7945 l 0.7526,-345.5964 l 0.7526,273.1017 l 0.7526,-176.0935 l 0.7526,73.7166 l 0.7526,95.9206 l 0.7526,31.2247 l 0.7526,-335.9379 l 0.7526,410.0240 l 0.7526,-241.6143 l 0.7526,-10.1754 l 0.7526,55.0175 l 0.7526,-132.1759 l 0.7526,178.7983 l 0.7526,140.9244 l 0.7526,-210.9659 l 0.7526,-160.2762 l 0.7526,336.1670 l 0.7526,-194.0824 l 0.7526,101.3583 l 0.7526,-138.1798 l 0.7526,138.9548 l 0.7526,-183.8082 l 0.7526,104.9999 l 0.7526,137.4459 l 0.7526,-92.0083 l 0.7526,-150.1145 l 0.7526,225.6740 l 0.7526,-245.3736 l 0.7526,317.0006 l 0.7526,-345.4394 l 0.7526,184.0935 l 0.7526,33.9827 l 0.7526,-9.9058 l 0.7526,-196.0161 l 0.7526,196.9999 l 0.7526,-35.6083 l 0.7526,68.4700 l 0.7526,-149.9960 l 0.7526,274.3957 l 0.7526,-294.2980 l 0.7526,192.6180 l 0.7526,-219.5631 l 0.7526,57.7207 l 0.7526,205.3711 l 0.7526,-81.7106 l 0.7526,-218.4121 l 0.7526,295.3949 l 0.7526,-235.9564 l 0.7526,160.1077 l 0.7526,-19.8754 l 0.7526,-11.2550 l 0.7526,-50.8529 l 0.7526,-79.1697 l 0.7526,2.3974 l 0.7526,192.1656 l 0.7526,-191.3184 l 0.7526,105.1073 l 0.7526,114.9388 l 0.7526,-73.3895 l 0.7526,-195.8259 l 0.7526,193.5498 l 0.7526,-55.6401 l 0.7526,-3.7157 l 0.7526,76.0178 l 0.7526,-129.5402 l 0.7526,85.3696 l 0.7526,48.5926 l 0.7526,-16.2781 l 0.7526,-91.3111 l 0.7526,-79.8693 l 0.7526,315.4648 l 0.7526,-214.3542 l 0.7526,53.2407 l 0.7526,-225.6122 l 0.7526,200.0011 l 0.7526,158.2151 l 0.7526,-184.0986 l 0.7526,-135.1600 l 0.7526,157.9419 l 0.7526,-19.5198 l 0.7526,107.3426 l 0.7526,-170.9726 l 0.7526,251.8789 l 0.7526,-290.6682 l 0.7526,45.8701 l 0.7526,135.9377 l 0.7526,61.4860 l 0.7526,-123.2678 l 0.7526,-189.6999 l 0.7526,317.9918 l 0.7526,-264.3772 l 0.7526,322.7496 l 0.7526,-353.8711 l 0.7526,313.7440 l 0.7526,-164.8211 l 0.7526,-134.2003 l 0.7526,307.8003 l 0.7526,-284.8551 l 0.7526,282.4244 l 0.7526,-103.7721 l 0.7526,-269.2377 l 0.7526,419.0086 l 0.7526,-305.5826 l 0.7526,20.5481 l 0.7526,196.7857 l 0.7526,-199.4209 l 0.7526,179.9593 l 0.7526,-139.5204 l 0.7526,74.4925 l 0.7526,-39.5369 l 0.7526,-44.0564 l 0.7526,205.6390 l 0.7526,-200.6498 l 0.7526,-54.0683 l 0.7526,63.3276 l 0.7526,110.2228 l 0.7526,-71.6945 l 0.7526,-63.1922 l 0.7526,217.2214 l 0.7526,-193.4018 l 0.7526,-53.5276 l 0.7526,50.8264 l 0.7526,275.4314 l 0.7526,-349.8649 l 0.7526,177.4848 l 0.7526,-177.3437 l 0.7526,76.6943 l 0.7526,249.9093 l 0.7526,-180.3432 l 0.7526,-57.1093 l 0.7526,-119.9604 l 0.7526,291.5892 l 0.7526,-329.9664 l 0.7526,368.7573 l 0.7526,-285.0614 l 0.7526,90.4702 l 0.7526,10.2653 l 0.7526,0.8115 l 0.7526,-65.2954 l 0.7526,268.0941 l 0.7526,-341.0532 l 0.7526,191.4888 l 0.7526,71.8727 l 0.7526,-177.3049 l 0.7526,-80.5697 l 0.7526,109.6194 l 0.7526,71.0521 l 0.7526,110.6748 l 0.7526,-236.9173 l 0.7526,143.2740 l 0.7526,-214.2607 l 0.7526,128.6131 l 0.7526,62.9729 l 0.7526,-93.9738 l 0.7526,106.9208 l 0.7526,-105.9582 l 0.7526,197.0171 l 0.7526,-50.3915 l 0.7526,-324.0987 l 0.7526,416.1797 l 0.7526,-152.1965 l 0.7526,-244.3362 l 0.7526,233.0077 l 0.7526,67.7099 l 0.7526,-216.7628 l 0.7526,262.6125 l 0.7526,-34.6489 l 0.7526,-152.4216 l 0.7526,-28.2122 l 0.7526,47.7595 l 0.7526,172.9512 l 0.7526,-266.6677 l 0.7526,240.2799 l 0.7526,-140.9142 l 0.7526,-64.4227 l 0.7526,162.0343 l 0.7526,-41.9674 l 0.7526,-67.7265 l 0.7526,7.7739 l 0.7526,93.8377 l 0.7526,-59.4687 l 0.7526,32.6772 l 0.7526,-55.2008 l 0.7526,-73.9185 l 0.7526,130.2909 l 0.7526,-80.1051 l 0.7526,-4.5514 l 0.7526,214.6135 l 0.7526,-356.2910 l 0.7526,382.5558 l 0.7526,-330.5644 l 0.7526,239.7873 l 0.7526,-206.9928 l 0.7526,154.5072 l 0.7526,-76.4226 l 0.7526,-73.0547 l 0.7526,339.5669 l 0.7526,-446.7864 l 0.7526,231.4729 l 0.7526,-22.0098 l 0.7526,99.0861 l 0.7526,-145.3231 l 0.7526,167.4492 l 0.7526,-207.9214 l 0.7526,104.4708 l 0.7526,-41.1759 l 0.7526,67.2618 l 0.7526,-160.7259 l 0.7526,251.6125 l 0.7526,-226.5300 l 0.7526,68.5497 l 0.7526,-59.9684 l 0.7526,237.8566 l 0.7526,-242.9996 l 0.7526,17.9402 l 0.7526,188.9357 l 0.7526,-158.6132 l 0.7526,-26.3362 l 0.7526,95.6977 l 0.7526,47.8194 l 0.7526,-70.4407 l 0.7526,-147.3368 l 0.7526,83.8474 l 0.7526,263.8909 l 0.7526,-285.1312 l 0.7526,179.6670 l 0.7526,-277.0164 l 0.7526,255.5078 l 0.7526,-113.0586 l 0.7526,29.9562 l 0.7526,-85.5695 l 0.7526,81.9866 l 0.7526,140.0184 l 0.7526,-259.9004 l 0.7526,304.8175 l 0.7526,-304.7994 l 0.7526,144.2713 l 0.7526,-76.3362 l 0.7526,110.8251 l 0.7526,-18.0641 l 0.7526,-122.5252 l 0.7526,167.0125 l 0.7526,-76.9841 l 0.7526,-160.6471 l 0.7526,201.3751 l 0.7526,-5.8228 l 0.7526,-20.2155 l 0.7526,15.8396 l 0.7526,48.2740 l 0.7526,-93.4922 l 0.7526,-172.4408 l 0.7526,200.6453 l 0.7526,162.7187 l 0.7526,-180.1589 l 0.7526,-101.7867 l 0.7526,-1.2114 l 0.7526,318.1007 l 0.7526,-403.0442 l 0.7526,190.0046 l 0.7526,83.3059 l 0.7526,-5.0412 l 0.7526,-276.1034 l 0.7526,195.6047 l 0.7526,63.6031 l 0.7526,-105.5927 l 0.7526,130.2933 l 0.7526,-101.3582 l 0.7526,79.4407 l 0.7526,-53.1740 l 0.7526,-172.9566 l 0.7526,270.2303 l 0.7526,-270.9631 l 0.7526,200.0331 l 0.7526,-80.5451 l 0.7526,37.6375 l 0.7526,186.7372 l 0.7526,-298.8910 l 0.7526,285.9557 l 0.7526,-249.6730 l 0.7526,156.9003 l 0.7526,-226.2854 l 0.7526,163.7150 l 0.7526,-64.9845 l 0.7526,51.1505 l 0.7526,72.5668 l 0.7526,2.8704 l 0.7526,-185.4479 l 0.7526,193.7174 l 0.7526,-114.2663 l 0.7526,73.7611 l 0.7526,-248.1715 l 0.7526,417.2233 l 0.7526,-307.8607 l 0.7526,20.5827 l 0.7526,33.6257 l 0.7526,254.0298 l 0.7526,-363.7850 l 0.7526,255.1588 l 0.7526,-261.5097 l 0.7526,307.4502 l 0.7526,-121.4272 l 0.7526,-23.0794 l 0.7526,-89.2229 l 0.7526,121.1670 l 0.7526,-148.4894 l 0.7526,78.4997 l 0.7526,188.4251 l 0.7526,-326.2934 l 0.7526,317.9492 l 0.7526,-151.9829 l 0.7526,-130.5380 l 0.7526,117.3547 l 0.7526,13.9216 l 0.7526,-1.6231 l 0.7526,65.1727 l 0.7526,-117.6704 l 0.7526,127.9804 l 0.7526,83.6134 l 0.7526,-275.0937 l 0.7526,5.5680 l 0.7526,343.1473 l 0.7526,-413.9583 l 0.7526,147.8314 l 0.7526,165.7385 l 0.7526,-166.5023 l 0.7526,173.2915 l 0.7526,-306.7023 l 0.7526,233.6305 l 0.7526,-184.8962 l 0.7526,333.2351 l 0.7526,-346.7894 l 0.7526,232.4002 l 0.7526,-172.2693 l 0.7526,198.0905 l 0.7526,-193.9191 l 0.7526,143.4809 l 0.7526,-193.2372 l 0.7526,75.4688 l 0.7526,104.3745 l 0.7526,-119.9083 l 0.7526,244.1008 l 0.7526,-170.7729 l 0.7526,-175.6386 l 0.7526,229.3269 l 0.7526,-161.8648 l 0.7526,168.4896 l 0.7526,-164.1918 l 0.7526,298.7653 l 0.7526,-359.4471 l 0.7526,159.0788 l 0.7526,-94.0416 l 0.7526,289.2187 l 0.7526,-374.5011 l 0.7526,386.4162 l 0.7526,-289.1467 l 0.7526,14.3425 l 0.7526,76.8308 l 0.7526,39.5369 l 0.7526,-4.9005 l 0.7526,-56.7470 l 0.7526,-46.6813 l 0.7526,-112.7436 l 0.7526,369.1216 l 0.7526,-386.5362 l 0.7526,270.0822 l 0.7526,-34.5270 l 0.7526,-76.4361 l 0.7526,136.4542 l 0.7526,-335.8071 l 0.7526,241.3432 l 0.7526,88.5497 l 0.7526,-126.8723 l 0.7526,64.3404 l 0.7526,-57.7772 l 0.7526,-126.2410 l 0.7526,339.8523 l 0.7526,-190.2356 l 0.7526,-183.9582 l 0.7526,233.7475 l 0.7526,3.7916 l 0.7526,-107.5795 l 0.7526,10.9622 l 0.7526,-35.5359 l 0.7526,281.5681 l 0.7526,-377.5854 l 0.7526,187.9259 l 0.7526,-54.9896 l 0.7526,17.7752 l 0.7526,155.7006 l 0.7526,-189.7436 l 0.7526,82.5135 l 0.7526,35.9658 l 0.7526,-62.4465 l 0.7526,-9.7286 l 0.7526,-108.6455 l 0.7526,58.7763 l 0.7526,150.1482 l 0.7526,-36.7096 l 0.7526,-284.6385 l 0.7526,312.2011 l 0.7526,8.7786 l 0.7526,-79.4084 l 0.7526,-217.9703 l 0.7526,345.3866 l 0.7526,-232.9051 l 0.7526,153.5110 l 0.7526,-167.3716 l 0.7526,99.2888 l 0.7526,-16.2739 l 0.7526,148.1842 l 0.7526,-252.8123 l 0.7526,292.4909 l 0.7526,-368.9139 l 0.7526,254.4407 l 0.7526,-111.5563 l 0.7526,109.5044 l 0.7526,134.4826 l 0.7526,-181.3557 l 0.7526,-51.3696 l 0.7526,-42.1873 l 0.7526,13.7155 l 0.7526,266.0079 l 0.7526,-254.1293 l 0.7526,-55.6891 l 0.7526,157.8882 l 0.7526,25.8545 l 0.7526,-89.5408 l 0.7526,-48.9921 l 0.7526,160.8866 l 0.7526,-47.8513 l 0.7526,-75.2271 l 0.7526,107.2771 l 0.7526,-107.7101 l 0.7526,-5.4705 l 0.7526,73.0515 l 0.7526,-152.6050 l 0.7526,159.7238 l 0.7526,-70.0574 l 0.7526,13.2007 l 0.7526,-2.8017 l 0.7526,-15.0207 l 0.7526,65.8904 l 0.7526,22.4456 l 0.7526,48.0414 l 0.7526,-73.3097 l 0.7526,-199.3334 l 0.7526,309.1563 l 0.7526,-187.2515 l 0.7526,-87.5908 l 0.7526,349.4511 l 0.7526,-390.4991 l 0.7526,249.5991 l 0.7526,-142.0997 l 0.7526,113.4154 l 0.7526,105.1506 l 0.7526,-333.3617 l 0.7526,298.3178 l 0.7526,-156.3916 l 0.7526,93.2692 l 0.7526,12.0079 l 0.7526,-285.5297 l 0.7526,315.4854 l 0.7526,-126.7485 l 0.7526,-18.9007 l 0.7526,221.2091 l 0.7526,-95.9179 l 0.7526,-214.8295 l 0.7526,248.5703 l 0.7526,-128.1636 l 0.7526,-42.1567 l 0.7526,179.8197 l 0.7526,-167.1126 l 0.7526,-111.0968 l 0.7526,217.7105 l 0.7526,40.6734 l 0.7526,-129.5684 l 0.7526,98.0257 l 0.7526,-47.1439 l 0.7526,-76.5347 l 0.7526,-79.5658 l 0.7526,194.0293 l 0.7526,-114.2534 l 0.7526,141.1592 l 0.7526,5.0539 l 0.7526,-148.2292 l 0.7526,177.4241 l 0.7526,-101.3419 l 0.7526,-78.3049 l 0.7526,47.1522 l 0.7526,-112.5951 l 0.7526,132.3315 l 0.7526,164.0852 l 0.7526,-150.1283 l 0.7526,-220.6266 l 0.7526,432.1196 l 0.7526,-272.4885 l 0.7526,-108.7738 l 0.7526,343.2417 l 0.7526,-361.1029 l 0.7526,320.2656 l 0.7526,-256.1806 l 0.7526,63.8374 l 0.7526,31.7272 l 0.7526,149.9701 l 0.7526,-174.6006 l 0.7526,-77.4091 l 0.7526,84.6291 l 0.7526,34.8912 l 0.7526,160.0913 l 0.7526,-204.1931 l 0.7526,-111.5920 l 0.7526,304.5593 l 0.7526,-250.3281 l 0.7526,93.7099 l 0.7526,47.2689 l 0.7526,-21.2801 l 0.7526,-139.2538 l 0.7526,219.1333 l 0.7526,-69.4251 l 0.7526,60.1200 l 0.7526,-286.4682 l 0.7526,196.2831 l 0.7526,142.1420 l 0.7526,-205.9135 l 0.7526,150.6805 l 0.7526,-230.6732 l 0.7526,178.9737 l 0.7526,-130.9954 l 0.7526,134.9473 l 0.7526,-47.6302 l 0.7526,124.2576 l 0.7526,-261.0425 l 0.7526,262.7744 l 0.7526,-192.7705 l 0.7526,147.5596 l 0.7526,-275.5663 l 0.7526,386.9901 l 0.7526,-260.5006 l 0.7526,86.7507 l 0.7526,-131.8900 l 0.7526,344.9375 l 0.7526,-384.3929 l 0.7526,105.1862 l 0.7526,164.9807 l 0.7526,-22.0982 l 0.7526,-310.6776 l 0.7526,367.7273 l 0.7526,-200.6315 l 0.7526,76.5822 l 0.7526,-102.1182 l 0.7526,193.9331 l 0.7526,-131.6202 l 0.7526,-67.5906 l 0.7526,155.0232 l 0.7526,-64.6292 l 0.7526,-84.5032 l 0.7526,89.3389 l 0.7526,-16.5134 l 0.7526,84.2641 l 0.7526,-116.8182 l 0.7526,91.7543 l 0.7526,-52.4018 l 0.7526,-92.5662 l 0.7526,168.4473 l 0.7526,-74.5802 l 0.7526,-17.1894 l 0.7526,-116.0595 l 0.7526,281.6409 l 0.7526,-199.7694 l 0.7526,10.8268 l 0.7526,-21.4097 l 0.7526,49.6494 l 0.7526,-27.0382 l 0.7526,92.6872 l 0.7526,-42.1392 l 0.7526,-27.8625 l 0.7526,60.2623 l 0.7526,14.0207 l 0.7526,-55.3082 l 0.7526,56.2596 l 0.7526,-278.1906 l 0.7526,341.4550 l 0.7526,-275.0839 l 0.7526,388.1590 l 0.7526,-440.0502 l 0.7526,397.6430 l 0.7526,-239.7883 l 0.7526,85.5366 l 0.7526,-165.3517 l 0.7526,152.9820 l 0.7526,-174.6639 l 0.7526,274.9567 l 0.7526,-33.2982 l 0.7526,-220.9674 l 0.7526,38.9625 l 0.7526,301.0657 l 0.7526,-322.4936 l 0.7526,213.5823 l 0.7526,-206.0776 l 0.7526,155.8029 l 0.7526,-43.5396 l 0.7526,-23.0953 l 0.7526,-68.7777 l 0.7526,23.0328 l 0.7526,10.2278 l 0.7526,122.3824 l 0.7526,-31.0005 l 0.7526,-129.6090 l 0.7526,124.9121 l 0.7526,-122.9329 l 0.7526,257.0307 l 0.7526,-128.4453 l 0.7526,-225.2159 l 0.7526,207.6960 l 0.7526,-2.2842 l 0.7526,-27.6316 l 0.7526,71.0563 l 0.7526,-66.6113 l 0.7526,-84.8735 l 0.7526,30.4216 l 0.7526,198.7837 l 0.7526,-342.0808 l 0.7526,196.4557 l 0.7526,3.9950 l 0.7526,176.7620 l 0.7526,-232.2307 l 0.7526,-40.7135 l 0.7526,165.0895 l 0.7526,-29.9915 l 0.7526,6.6397 l 0.7526,-183.3246 l 0.7526,77.4750 l 0.7526,62.7102 l 0.7526,122.8979 l 0.7526,-214.9468 l 0.7526,210.2326 l 0.7526,-342.2073 l 0.7526,337.3259 l 0.7526,-125.4065 l 0.7526,85.0857 l 0.7526,-177.4694 l 0.7526,213.9886 l 0.7526,-299.7183 l 0.7526,175.5611 l 0.7526,-12.1800 l 0.7526,65.6628 l 0.7526,84.4870 l 0.7526,-147.0382 l 0.7526,-13.6835 l 0.7526,41.9111 l 0.7526,-194.6274 l 0.7526,329.1762 l 0.7526,-233.2982 l 0.7526,46.3021 l 0.7526,109.4881 l 0.7526,-55.4278 l 0.7526,54.0217 l 0.7526,-142.7001 l 0.7526,117.9106 l 0.7526,46.8955 l 0.7526,-119.6099 l 0.7526,-132.4720 l 0.7526,101.6125 l 0.7526,122.7921 l 0.7526,114.2320 l 0.7526,-336.0785 l 0.7526,301.6275 l 0.7526,-356.8063 l 0.7526,437.4117 l 0.7526,-395.5763 l 0.7526,106.5804 l 0.7526,88.9738 l 0.7526,193.5204 l 0.7526,-314.5842 l 0.7526,102.6897 l 0.7526,-93.9824 l 0.7526,227.2518 l 0.7526,-108.8630 l 0.7526,-59.3286 l 0.7526,-155.0822 l 0.7526,390.7918 l 0.7526,-393.8131 l 0.7526,187.4722 l 0.7526,-13.5338 l 0.7526,32.9904 l 0.7526,154.9990 l 0.7526,-142.1624 l 0.7526,-159.1286 l 0.7526,16.9341 l 0.7526,205.0926 l 0.7526,-3.8681 l 0.7526,-167.7779 l 0.7526,-3.3081 l 0.7526,272.6312 l 0.7526,-252.0335 l 0.7526,20.6682 l 0.7526,74.3903 l 0.7526,-12.5883 l 0.7526,-202.0670 l 0.7526,222.0172 l 0.7526,27.5186 l 0.7526,21.1432 l 0.7526,-256.7889 l 0.7526,127.4046 l 0.7526,173.7853 l 0.7526,-93.4367 l 0.7526,-233.6271 l 0.7526,205.7668 l 0.7526,98.0101 l 0.7526,-164.8744 l 0.7526,1.6736 l 0.7526,215.0689 l 0.7526,-114.3648 l 0.7526,-75.4746 l 0.7526,-75.4735 l 0.7526,140.2954 l 0.7526,-166.8658 l 0.7526,104.4167 l 0.7526,115.1846 l 0.7526,-125.8578 l 0.7526,31.1298 l 0.7526,-27.9633 l 0.7526,10.2152 l 0.7526,234.3527 l 0.7526,-234.1121 l 0.7526,-137.4678 l 0.7526,207.9104 l 0.7526,-84.1207 l 0.7526,-32.3931 l 0.7526,167.7606 l 0.7526,29.1658 l 0.7526,-345.8605 l 0.7526,383.6329 l 0.7526,-314.3997 l 0.7526,102.9280 l 0.7526,48.4026 l 0.7526,146.6998 l 0.7526,-178.3034 l 0.7526,-40.8682 l 0.7526,125.8537 l 0.7526,-132.0516 l 0.7526,119.7388 l 0.7526,-6.3221 l 0.7526,-51.5718 l 0.7526,-110.2410 l 0.7526,272.8532 l 0.7526,-112.3062 l 0.7526,-199.0147 l 0.7526,185.4750 l 0.7526,-40.5123 l 0.7526,64.0539 l 0.7526,29.6486 l 0.7526,-28.4075 l 0.7526,-87.3175 l 0.7526,-62.4065 l 0.7526,191.8231 l 0.7526,-221.1339 l 0.7526,148.8129 l 0.7526,87.9651 l 0.7526,-213.2504 l 0.7526,215.9259 l 0.7526,-122.0306 l 0.7526,-118.6788 l 0.7526,127.3333 l 0.7526,-11.1468 l 0.7526,11.5761 l 0.7526,8.9218 l 0.7526,-26.6862 l 0.7526,103.3113 l 0.7526,-28.6265 l 0.7526,-140.5822 l 0.7526,157.7081 l 0.7526,-37.2528 l 0.7526,-93.6973 l 0.7526,-52.5312 l 0.7526,190.9102 l 0.7526,-54.8819 l 0.7526,78.3126 l 0.7526,-220.0987 l 0.7526,8.6786 l 0.7526,200.1397 l 0.7526,30.9024 l 0.7526,-330.9357 l 0.7526,437.1677 l 0.7526,-354.9718 l 0.7526,121.1216 l 0.7526,32.4497 l 0.7526,-117.2372 l 0.7526,79.1415 l 0.7526,190.7787 l 0.7526,-268.9626 l 0.7526,-3.3933 l 0.7526,98.8714 l 0.7526,128.0911 l 0.7526,-232.1941 l 0.7526,117.8903 l 0.7526,117.6616 l 0.7526,-368.4135 l 0.7526,241.4443 l 0.7526,170.4099 l 0.7526,-312.0350 l 0.7526,199.5704 l 0.7526,-196.3144 l 0.7526,332.3683 l 0.7526,-209.0968 l 0.7526,-169.3969 l 0.7526,342.1626 l 0.7526,-326.5941 l 0.7526,354.0041 l 0.7526,-360.0046 l 0.7526,121.2395 l 0.7526,152.3027 l 0.7526,-96.6089 l 0.7526,-146.2378 l 0.7526,328.2128 l 0.7526,-184.8821 l 0.7526,-38.1807 l 0.7526,54.5354 l 0.7526,-149.5490 l 0.7526,216.5285 l 0.7526,-209.2944 l 0.7526,42.0201 l 0.7526,226.4748 l 0.7526,-229.4346 l 0.7526,106.6058 l 0.7526,-148.6330 l 0.7526,175.7735 l 0.7526,94.9582 l 0.7526,-259.2415 l 0.7526,58.3665 l 0.7526,121.5383 l 0.7526,-199.7792 l 0.7526,332.0287 l 0.7526,-272.4155 l 0.7526,163.7008 l 0.7526,-182.7087 l 0.7526,119.2340 l 0.7526,-45.6273 l 0.7526,-56.1105 l 0.7526,-32.1610 l 0.7526,314.5138 l 0.7526,-382.6771 l 0.7526,353.2509 l 0.7526,-361.5680 l 0.7526,362.5101 l 0.7526,-202.4711 l 0.7526,41.2251 l 0.7526,-17.1294 l 0.7526,-175.5882 l 0.7526,97.6917 l 0.7526,107.0479 l 0.7526,69.5479 l 0.7526,-128.4096 l 0.7526,111.5025 l 0.7526,-233.3679 l 0.7526,138.3887 l 0.7526,113.6365 l 0.7526,-122.4166 l 0.7526,72.3389 l 0.7526,-103.3674 l 0.7526,112.1241 l 0.7526,-287.4920 l 0.7526,458.5837 l 0.7526,-409.3826 l 0.7526,210.9780 l 0.7526,15.6113 l 0.7526,21.8387 l 0.7526,-210.7372 l 0.7526,140.3966 l 0.7526,-23.1938 l 0.7526,-63.1497 l 0.7526,71.5098 l 0.7526,22.0131 l 0.7526,44.3408 l 0.7526,61.3749 l 0.7526,-176.4050 l 0.7526,166.9784 l 0.7526,-322.9803 l 0.7526,395.1824 l 0.7526,-148.0073 l 0.7526,-43.2272 l 0.7526,-169.6659 l 0.7526,305.1430 l 0.7526,-198.7518 l 0.7526,43.8238 l 0.7526,66.2665 l 0.7526,-39.7034 l 0.7526,149.3395 l 0.7526,-183.5620 l 0.7526,-142.0932 l 0.7526,282.5237 l 0.7526,-222.9196 l 0.7526,164.2591 l 0.7526,68.6807 l 0.7526,-133.0149 l 0.7526,86.7809 l 0.7526,-127.0035 l 0.7526,57.0392 l 0.7526,-97.2388 l 0.7526,190.4395 l 0.7526,-83.0032 l 0.7526,-128.3514 l 0.7526,124.5772 l 0.7526,200.1045 l 0.7526,-430.0160 l 0.7526,246.1892 l 0.7526,135.1669 l 0.7526,-280.6504 l 0.7526,133.8813 l 0.7526,-58.4782 l 0.7526,167.1978 l 0.7526,-152.2366 l 0.7526,61.2616 l 0.7526,59.7292 l 0.7526,-129.2080 l 0.7526,7.4232 l 0.7526,133.0642 l 0.7526,-109.1498 l 0.7526,-179.8387 l 0.7526,333.1548 l 0.7526,-78.3241 l 0.7526,-251.1334 l 0.7526,382.2369 l 0.7526,-249.2245 l 0.7526,-79.4882 l 0.7526,208.5663 l 0.7526,2.8524 l 0.7526,-128.0158 l 0.7526,91.9414 l 0.7526,11.9190 l 0.7526,-152.0639 l 0.7526,24.6133 l 0.7526,87.2263 l 0.7526,-56.1645 l 0.7526,128.3021 l 0.7526,-126.1263 l 0.7526,-21.4991 l 0.7526,249.9520 l 0.7526,-145.3449 l 0.7526,-232.4515 l 0.7526,370.8178 l 0.7526,-299.8749 l 0.7526,79.8131 l 0.7526,208.7750 l 0.7526,-188.7066 l 0.7526,-119.8614 l 0.7526,255.6206 "/></g></g><defs></defs><g stroke-linejoin="miter" stroke-opacity="1.0" fill-opacity="0.0" stroke="rgb(0,0,0)" stroke-width="0.9999999999999997" fill="rgb(0,0,0)" stroke-linecap="square" stroke-miterlimit="10.0"><path d="M 27.5840,550.0000 v -535.0000 "/></g><defs></defs><g stroke-linejoin="miter" stroke-opacity="1.0" fill-opacity="0.0" stroke="rgb(0,0,0)" stroke-width="0.9999999999999997" fill="rgb(0,0,0)" stroke-linecap="butt" stroke-miterlimit="10.0"><path d="M 27.5840,550.0000 h 2.0000 "/></g><defs></defs><g stroke-linejoin="miter" stroke-opacity="1.0" fill-opacity="0.0" stroke="rgb(0,0,0)" stroke-width="0.9999999999999997" fill="rgb(0,0,0)" stroke-linecap="butt" stroke-miterlimit="10.0"><path d="M 27.5840,536.6250 h 2.0000 "/></g><defs></defs><g stroke-linejoin="miter" stroke-opacity="1.0" fill-opacity="0.0" stroke="rgb(0,0,0)" stroke-width="0.9999999999999997" fill="rgb(0,0,0)" stroke-linecap="butt" stroke-miterlimit="10.0"><path d="M 27.5840,523.2500 h 2.0000 "/></g><defs></defs><g stroke-linejoin="miter" stroke-opacity="1.0" fill-opacity="0.0" stroke="rgb(0,0,0)" stroke-width="0.9999999999999997" fill="rgb(0,0,0)" stroke-linecap="butt" stroke-miterlimit="10.0"><path d="M 27.5840,509.8750 h 2.0000 "/></g><defs></defs><g stroke-linejoin="miter" stroke-opacity="1.0" fill-opacity="0.0" stroke="rgb(0,0,0)" stroke-width="0.9999999999999997" fill="rgb(0,0,0)" stroke-linecap="butt" stroke-miterlimit="10.0"><path d="M 27.5840,496.5000 h 2.0000 "/></g><defs></defs><g stroke-linejoin="miter" stroke-opacity="1.0" fill-opacity="0.0" stroke="rgb(0,0,0)" stroke-width="0.9999999999999997" fill="rgb(0,0,0)" stroke-linecap="butt" stroke-miterlimit="10.0"><path d="M 27.5840,483.1250 h 2.0000 "/></g><defs></defs><g stroke-linejoin="miter" stroke-opacity="1.0" fill-opacity="0.0" stroke="rgb(0,0,0)" stroke-width="0.9999999999999997" fill="rgb(0,0,0)" stroke-linecap="butt" stroke-miterlimit="10.0"><path d="M 27.5840,469.7500 h 2.0000 "/></g><defs></defs><g stroke-linejoin="miter" stroke-opacity="1.0" fill-opacity="0.0" stroke="rgb(0,0,0)" stroke-width="0.9999999999999997" fill="rgb(0,0,0)" stroke-linecap="butt" stroke-miterlimit="10.0"><path d="M 27.5840,456.3750 h 2.0000 "/></g><defs></defs><g stroke-linejoin="miter" stroke-opacity="1.0" fill-opacity="0.0" stroke="rgb(0,0,0)" stroke-width="0.9999999999999997" fill="rgb(0,0,0)" stroke-linecap="butt" stroke-miterlimit="10.0"><path d="M 27.5840,443.0000 h 2.0000 "/></g><defs></defs><g stroke-linejoin="miter" stroke-opacity="1.0" fill-opacity="0.0" stroke="rgb(0,0,0)" stroke-width="0.9999999999999997" fill="rgb(0,0,0)" stroke-linecap="butt" stroke-miterlimit="10.0"><path d="M 27.5840,429.6250 h 2.0000 "/></g><defs></defs><g stroke-linejoin="miter" stroke-opacity="1.0" fill-opacity="0.0" stroke="rgb(0,0,0)" stroke-width="0.9999999999999997" fill="rgb(0,0,0)" stroke-linecap="butt" stroke-miterlimit="10.0"><path d="M 27.5840,416.2500 h 2.0000 "/></g><defs></defs><g stroke-linejoin="miter" stroke-opacity="1.0" fill-opacity="0.0" stroke="rgb(0,0,0)" stroke-width="0.9999999999999997" fill="rgb(0,0,0)" stroke-linecap="butt" stroke-miterlimit="10.0"><path d="M 27.5840,402.8750 h 2.0000 "/></g><defs></defs><g stroke-linejoin="miter" stroke-opacity="1.0" fill-opacity="0.0" stroke="rgb(0,0,0)" stroke-width="0.9999999999999997" fill="rgb(0,0,0)" stroke-linecap="butt" stroke-miterlimit="10.0"><path d="M 27.5840,389.5000 h 2.0000 "/></g><defs></defs><g stroke-linejoin="miter" stroke-opacity="1.0" fill-opacity="0.0" stroke="rgb(0,0,0)" stroke-width="0.9999999999999997" fill="rgb(0,0,0)" stroke-linecap="butt" stroke-miterlimit="10.0"><path d="M 27.5840,376.1250 h 2.0000 "/></g><defs></defs><g stroke-linejoin="miter" stroke-opacity="1.0" fill-opacity="0.0" stroke="rgb(0,0,0)" stroke-width="0.9999999999999997" fill="rgb(0,0,0)" stroke-linecap="butt" stroke-miterlimit="10.0"><path d="M 27.5840,362.7500 h 2.0000 "/></g><defs></defs><g stroke-linejoin="miter" stroke-opacity="1.0" fill-opacity="0.0" stroke="rgb(0,0,0)" stroke-width="0.9999999999999997" fill="rgb(0,0,0)" stroke-linecap="butt" stroke-miterlimit="10.0"><path d="M 27.5840,349.3750 h 2.0000 "/></g><defs></defs><g stroke-linejoin="miter" stroke-opacity="1.0" fill-opacity="0.0" stroke="rgb(0,0,0)" stroke-width="0.9999999999999997" fill="rgb(0,0,0)" stroke-linecap="butt" stroke-miterlimit="10.0"><path d="M 27.5840,336.0000 h 2.0000 "/></g><defs></defs><g stroke-linejoin="miter" stroke-opacity="1.0" fill-opacity="0.0" stroke="rgb(0,0,0)" stroke-width="0.9999999999999997" fill="rgb(0,0,0)" stroke-linecap="butt" stroke-miterlimit="10.0"><path d="M 27.5840,322.6250 h 2.0000 "/></g><defs></defs><g stroke-linejoin="miter" stroke-opacity="1.0" fill-opacity="0.0" stroke="rgb(0,0,0)" stroke-width="0.9999999999999997" fill="rgb(0,0,0)" stroke-linecap="butt" stroke-miterlimit="10.0"><path d="M 27.5840,309.2500 h 2.0000 "/></g><defs></defs><g stroke-linejoin="miter" stroke-opacity="1.0" fill-opacity="0.0" stroke="rgb(0,0,0)" stroke-width="0.9999999999999997" fill="rgb(0,0,0)" stroke-linecap="butt" stroke-miterlimit="10.0"><path d="M 27.5840,295.8750 h 2.0000 "/></g><defs></defs><g stroke-linejoin="miter" stroke-opacity="1.0" fill-opacity="0.0" stroke="rgb(0,0,0)" stroke-width="0.9999999999999997" fill="rgb(0,0,0)" stroke-linecap="butt" stroke-miterlimit="10.0"><path d="M 27.5840,282.5000 h 2.0000 "/></g><defs></defs><g stroke-linejoin="miter" stroke-opacity="1.0" fill-opacity="0.0" stroke="rgb(0,0,0)" stroke-width="0.9999999999999997" fill="rgb(0,0,0)" stroke-linecap="butt" stroke-miterlimit="10.0"><path d="M 27.5840,269.1250 h 2.0000 "/></g><defs></defs><g stroke-linejoin="miter" stroke-opacity="1.0" fill-opacity="0.0" stroke="rgb(0,0,0)" stroke-width="0.9999999999999997" fill="rgb(0,0,0)" stroke-linecap="butt" stroke-miterlimit="10.0"><path d="M 27.5840,255.7500 h 2.0000 "/></g><defs></defs><g stroke-linejoin="miter" stroke-opacity="1.0" fill-opacity="0.0" stroke="rgb(0,0,0)" stroke-width="0.9999999999999997" fill="rgb(0,0,0)" stroke-linecap="butt" stroke-miterlimit="10.0"><path d="M 27.5840,242.3750 h 2.0000 "/></g><defs></defs><g stroke-linejoin="miter" stroke-opacity="1.0" fill-opacity="0.0" stroke="rgb(0,0,0)" stroke-width="0.9999999999999997" fill="rgb(0,0,0)" stroke-linecap="butt" stroke-miterlimit="10.0"><path d="M 27.5840,229.0000 h 2.0000 "/></g><defs></defs><g stroke-linejoin="miter" stroke-opacity="1.0" fill-opacity="0.0" stroke="rgb(0,0,0)" stroke-width="0.9999999999999997" fill="rgb(0,0,0)" stroke-linecap="butt" stroke-miterlimit="10.0"><path d="M 27.5840,215.6250 h 2.0000 "/></g><defs></defs><g stroke-linejoin="miter" stroke-opacity="1.0" fill-opacity="0.0" stroke="rgb(0,0,0)" stroke-width="0.9999999999999997" fill="rgb(0,0,0)" stroke-linecap="butt" stroke-miterlimit="10.0"><path d="M 27.5840,202.2500 h 2.0000 "/></g><defs></defs><g stroke-linejoin="miter" stroke-opacity="1.0" fill-opacity="0.0" stroke="rgb(0,0,0)" stroke-width="0.9999999999999997" fill="rgb(0,0,0)" stroke-linecap="butt" stroke-miterlimit="10.0"><path d="M 27.5840,188.8750 h 2.0000 "/></g><defs></defs><g stroke-linejoin="miter" stroke-opacity="1.0" fill-opacity="0.0" stroke="rgb(0,0,0)" stroke-width="0.9999999999999997" fill="rgb(0,0,0)" stroke-linecap="butt" stroke-miterlimit="10.0"><path d="M 27.5840,175.5000 h 2.0000 "/></g><defs></defs><g stroke-linejoin="miter" stroke-opacity="1.0" fill-opacity="0.0" stroke="rgb(0,0,0)" stroke-width="0.9999999999999997" fill="rgb(0,0,0)" stroke-linecap="butt" stroke-miterlimit="10.0"><path d="M 27.5840,162.1250 h 2.0000 "/></g><defs></defs><g stroke-linejoin="miter" stroke-opacity="1.0" fill-opacity="0.0" stroke="rgb(0,0,0)" stroke-width="0.9999999999999997" fill="rgb(0,0,0)" stroke-linecap="butt" stroke-miterlimit="10.0"><path d="M 27.5840,148.7500 h 2.0000 "/></g><defs></defs><g stroke-linejoin="miter" stroke-opacity="1.0" fill-opacity="0.0" stroke="rgb(0,0,0)" stroke-width="0.9999999999999997" fill="rgb(0,0,0)" stroke-linecap="butt" stroke-miterlimit="10.0"><path d="M 27.5840,135.3750 h 2.0000 "/></g><defs></defs><g stroke-linejoin="miter" stroke-opacity="1.0" fill-opacity="0.0" stroke="rgb(0,0,0)" stroke-width="0.9999999999999997" fill="rgb(0,0,0)" stroke-linecap="butt" stroke-miterlimit="10.0"><path d="M 27.5840,122.0000 h 2.0000 "/></g><defs></defs><g stroke-linejoin="miter" stroke-opacity="1.0" fill-opacity="0.0" stroke="rgb(0,0,0)" stroke-width="0.9999999999999997" fill="rgb(0,0,0)" stroke-linecap="butt" stroke-miterlimit="10.0"><path d="M 27.5840,108.6250 h 2.0000 "/></g><defs></defs><g stroke-linejoin="miter" stroke-opacity="1.0" fill-opacity="0.0" stroke="rgb(0,0,0)" stroke-width="0.9999999999999997" fill="rgb(0,0,0)" stroke-linecap="butt" stroke-miterlimit="10.0"><path d="M 27.5840,95.2500 h 2.0000 "/></g><defs></defs><g stroke-linejoin="miter" stroke-opacity="1.0" fill-opacity="0.0" stroke="rgb(0,0,0)" stroke-width="0.9999999999999997" fill="rgb(0,0,0)" stroke-linecap="butt" stroke-miterlimit="10.0"><path d="M 27.5840,81.8750 h 2.0000 "/></g><defs></defs><g stroke-linejoin="miter" stroke-opacity="1.0" fill-opacity="0.0" stroke="rgb(0,0,0)" stroke-width="0.9999999999999997" fill="rgb(0,0,0)" stroke-linecap="butt" stroke-miterlimit="10.0"><path d="M 27.5840,68.5000 h 2.0000 "/></g><defs></defs><g stroke-linejoin="miter" stroke-opacity="1.0" fill-opacity="0.0" stroke="rgb(0,0,0)" stroke-width="0.9999999999999997" fill="rgb(0,0,0)" stroke-linecap="butt" stroke-miterlimit="10.0"><path d="M 27.5840,55.1250 h 2.0000 "/></g><defs></defs><g stroke-linejoin="miter" stroke-opacity="1.0" fill-opacity="0.0" stroke="rgb(0,0,0)" stroke-width="0.9999999999999997" fill="rgb(0,0,0)" stroke-linecap="butt" stroke-miterlimit="10.0"><path d="M 27.5840,41.7500 h 2.0000 "/></g><defs></defs><g stroke-linejoin="miter" stroke-opacity="1.0" fill-opacity="0.0" stroke="rgb(0,0,0)" stroke-width="0.9999999999999997" fill="rgb(0,0,0)" stroke-linecap="butt" stroke-miterlimit="10.0"><path d="M 27.5840,28.3750 h 2.0000 "/></g><defs></defs><g stroke-linejoin="miter" stroke-opacity="1.0" fill-opacity="0.0" stroke="rgb(0,0,0)" stroke-width="0.9999999999999997" fill="rgb(0,0,0)" stroke-linecap="butt" stroke-miterlimit="10.0"><path d="M 27.5840,15.0000 h 2.0000 "/></g><defs></defs><g stroke-linejoin="miter" stroke-opacity="1.0" fill-opacity="0.0" stroke="rgb(0,0,0)" stroke-width="0.9999999999999997" fill="rgb(0,0,0)" stroke-linecap="butt" stroke-miterlimit="10.0"><path d="M 27.5840,550.0000 h 5.0000 "/></g><defs></defs><g stroke-linejoin="miter" stroke-opacity="1.0" fill-opacity="0.0" stroke="rgb(0,0,0)" stroke-width="0.9999999999999997" fill="rgb(0,0,0)" stroke-linecap="butt" stroke-miterlimit="10.0"><path d="M 27.5840,416.2500 h 5.0000 "/></g><defs></defs><g stroke-linejoin="miter" stroke-opacity="1.0" fill-opacity="0.0" stroke="rgb(0,0,0)" stroke-width="0.9999999999999997" fill="rgb(0,0,0)" stroke-linecap="butt" stroke-miterlimit="10.0"><path d="M 27.5840,282.5000 h 5.0000 "/></g><defs></defs><g stroke-linejoin="miter" stroke-opacity="1.0" fill-opacity="0.0" stroke="rgb(0,0,0)" stroke-width="0.9999999999999997" fill="rgb(0,0,0)" stroke-linecap="butt" stroke-miterlimit="10.0"><path d="M 27.5840,148.7500 h 5.0000 "/></g><defs></defs><g stroke-linejoin="miter" stroke-opacity="1.0" fill-opacity="0.0" stroke="rgb(0,0,0)" stroke-width="0.9999999999999997" fill="rgb(0,0,0)" stroke-linecap="butt" stroke-miterlimit="10.0"><path d="M 27.5840,15.0000 h 5.0000 "/></g><defs></defs><g stroke-linejoin="bevel" stroke-opacity="0.0" fill-opacity="1.0" stroke="rgb(0,0,0)" stroke-width="0.0" fill="rgb(0,0,0)" stroke-linecap="butt" stroke-miterlimit="10.0"><path d="M 10.0000,553.4454 ZM 10.4307,550.4832 h 2.4160 v 0.6618 h -2.4160 v -0.6618 ZM 13.2668,553.4454 ZM 13.6870,552.9307 c 0.7563,-0.7563 1.3445,-1.3655 1.3445 -1.3655c 0.5882,-0.6092 0.9874,-1.1292 0.9874 -1.1292c 0.3992,-0.5200 0.6092,-0.9559 0.6092 -0.9559c 0.2101,-0.4359 0.2101,-0.8456 0.2101 -0.8456c 0.0000,-0.5777 -0.3151,-0.9454 -0.3151 -0.9454c -0.3151,-0.3676 -0.9559,-0.3676 -0.9559 -0.3676c -0.4202,-0.0000 -0.7773,0.2363 -0.7773 0.2363c -0.3571,0.2363 -0.6513,0.5725 -0.6513 0.5725l -0.4937,-0.4937 c 0.4202,-0.4622 0.8929,-0.7405 0.8929 -0.7405c 0.4727,-0.2784 1.1345,-0.2784 1.1345 -0.2784c 0.9349,0.0000 1.4706,0.5410 1.4706 0.5410c 0.5357,0.5410 0.5357,1.4338 0.5357 1.4338c 0.0000,0.4727 -0.2048,0.9506 -0.2048 0.9506c -0.2048,0.4779 -0.5672,0.9874 -0.5672 0.9874c -0.3624,0.5095 -0.8613,1.0609 -0.8613 1.0609c -0.4989,0.5515 -1.0977,1.1712 -1.0977 1.1712c 0.2731,-0.0210 0.5672,-0.0420 0.5672 -0.0420c 0.2941,-0.0210 0.5567,-0.0210 0.5567 -0.0210h 1.9433 v 0.7458 h -4.3277 v -0.5147 Z"/></g><defs></defs><g stroke-linejoin="bevel" stroke-opacity="0.0" fill-opacity="1.0" stroke="rgb(0,0,0)" stroke-width="0.0" fill="rgb(0,0,0)" stroke-linecap="butt" stroke-miterlimit="10.0"><path d="M 10.1366,419.6954 ZM 10.5672,416.7332 h 2.4160 v 0.6618 h -2.4160 v -0.6618 ZM 13.4034,419.6954 ZM 14.2332,418.9811 h 1.5336 v -4.9370 h -1.2185 v -0.5567 c 0.4622,-0.0840 0.8036,-0.2048 0.8036 -0.2048c 0.3414,-0.1208 0.6145,-0.2889 0.6145 -0.2889h 0.6618 v 5.9874 h 1.3866 v 0.7143 h -3.7815 v -0.7143 Z"/></g><defs></defs><g stroke-linejoin="bevel" stroke-opacity="0.0" fill-opacity="1.0" stroke="rgb(0,0,0)" stroke-width="0.0" fill="rgb(0,0,0)" stroke-linecap="butt" stroke-miterlimit="10.0"><path d="M 13.2878,285.9454 ZM 15.9034,286.0714 c -1.0189,-0.0000 -1.5861,-0.9034 -1.5861 -0.9034c -0.5672,-0.9034 -0.5672,-2.5945 -0.5672 -2.5945c 0.0000,-1.6912 0.5672,-2.5735 0.5672 -2.5735c 0.5672,-0.8824 1.5861,-0.8824 1.5861 -0.8824c 1.0084,0.0000 1.5756,0.8824 1.5756 0.8824c 0.5672,0.8824 0.5672,2.5735 0.5672 2.5735c 0.0000,1.6912 -0.5672,2.5945 -0.5672 2.5945c -0.5672,0.9034 -1.5756,0.9034 -1.5756 0.9034ZM 15.9034,286.0714 ZM 15.9034,285.3782 c 0.2941,0.0000 0.5305,-0.1628 0.5305 -0.1628c 0.2363,-0.1628 0.4097,-0.5042 0.4097 -0.5042c 0.1733,-0.3414 0.2679,-0.8718 0.2679 -0.8718c 0.0945,-0.5305 0.0945,-1.2658 0.0945 -1.2658c 0.0000,-0.7353 -0.0945,-1.2605 -0.0945 -1.2605c -0.0945,-0.5252 -0.2679,-0.8561 -0.2679 -0.8561c -0.1733,-0.3309 -0.4097,-0.4884 -0.4097 -0.4884c -0.2363,-0.1576 -0.5305,-0.1576 -0.5305 -0.1576c -0.2941,-0.0000 -0.5357,0.1576 -0.5357 0.1576c -0.2416,0.1576 -0.4149,0.4884 -0.4149 0.4884c -0.1733,0.3309 -0.2679,0.8561 -0.2679 0.8561c -0.0945,0.5252 -0.0945,1.2605 -0.0945 1.2605c 0.0000,1.4706 0.3624,2.1376 0.3624 2.1376c 0.3624,0.6670 0.9506,0.6670 0.9506 0.6670Z"/></g><defs></defs><g stroke-linejoin="bevel" stroke-opacity="0.0" fill-opacity="1.0" stroke="rgb(0,0,0)" stroke-width="0.0" fill="rgb(0,0,0)" stroke-linecap="butt" stroke-miterlimit="10.0"><path d="M 13.8025,152.1954 ZM 14.6324,151.4811 h 1.5336 v -4.9370 h -1.2185 v -0.5567 c 0.4622,-0.0840 0.8036,-0.2048 0.8036 -0.2048c 0.3414,-0.1208 0.6145,-0.2889 0.6145 -0.2889h 0.6618 v 5.9874 h 1.3866 v 0.7143 h -3.7815 v -0.7143 Z"/></g><defs></defs><g stroke-linejoin="bevel" stroke-opacity="0.0" fill-opacity="1.0" stroke="rgb(0,0,0)" stroke-width="0.0" fill="rgb(0,0,0)" stroke-linecap="butt" stroke-miterlimit="10.0"><path d="M 13.2143,18.4454 ZM 13.6345,17.9307 c 0.7563,-0.7563 1.3445,-1.3655 1.3445 -1.3655c 0.5882,-0.6092 0.9874,-1.1292 0.9874 -1.1292c 0.3992,-0.5200 0.6092,-0.9559 0.6092 -0.9559c 0.2101,-0.4359 0.2101,-0.8456 0.2101 -0.8456c 0.0000,-0.5777 -0.3151,-0.9454 -0.3151 -0.9454c -0.3151,-0.3676 -0.9559,-0.3676 -0.9559 -0.3676c -0.4202,-0.0000 -0.7773,0.2363 -0.7773 0.2363c -0.3571,0.2363 -0.6513,0.5725 -0.6513 0.5725l -0.4937,-0.4937 c 0.4202,-0.4622 0.8929,-0.7405 0.8929 -0.7405c 0.4727,-0.2784 1.1345,-0.2784 1.1345 -0.2784c 0.9349,0.0000 1.4706,0.5410 1.4706 0.5410c 0.5357,0.5410 0.5357,1.4338 0.5357 1.4338c 0.0000,0.4727 -0.2048,0.9506 -0.2048 0.9506c -0.2048,0.4779 -0.5672,0.9874 -0.5672 0.9874c -0.3624,0.5095 -0.8613,1.0609 -0.8613 1.0609c -0.4989,0.5515 -1.0977,1.1712 -1.0977 1.1712c 0.2731,-0.0210 0.5672,-0.0420 0.5672 -0.0420c 0.2941,-0.0210 0.5567,-0.0210 0.5567 -0.0210h 1.9433 v 0.7458 h -4.3277 v -0.5147 Z"/></g><defs></defs><g stroke-linejoin="miter" stroke-opacity="1.0" fill-opacity="0.0" stroke="rgb(0,0,0)" stroke-width="0.9999999999999997" fill="rgb(0,0,0)" stroke-linecap="square" stroke-miterlimit="10.0"><path d="M 27.5840,550.0000 h 752.6208 "/></g><defs></defs><g stroke-linejoin="miter" stroke-opacity="1.0" fill-opacity="0.0" stroke="rgb(0,0,0)" stroke-width="0.9999999999999997" fill="rgb(0,0,0)" stroke-linecap="butt" stroke-miterlimit="10.0"><path d="M 27.5840,550.0000 v -2.0000 "/></g><defs></defs><g stroke-linejoin="miter" stroke-opacity="1.0" fill-opacity="0.0" stroke="rgb(0,0,0)" stroke-width="0.9999999999999997" fill="rgb(0,0,0)" stroke-linecap="butt" stroke-miterlimit="10.0"><path d="M 102.8461,550.0000 v -2.0000 "/></g><defs></defs><g stroke-linejoin="miter" stroke-opacity="1.0" fill-opacity="0.0" stroke="rgb(0,0,0)" stroke-width="0.9999999999999997" fill="rgb(0,0,0)" stroke-linecap="butt" stroke-miterlimit="10.0"><path d="M 178.1082,550.0000 v -2.0000 "/></g><defs></defs><g stroke-linejoin="miter" stroke-opacity="1.0" fill-opacity="0.0" stroke="rgb(0,0,0)" stroke-width="0.9999999999999997" fill="rgb(0,0,0)" stroke-linecap="butt" stroke-miterlimit="10.0"><path d="M 253.3703,550.0000 v -2.0000 "/></g><defs></defs><g stroke-linejoin="miter" stroke-opacity="1.0" fill-opacity="0.0" stroke="rgb(0,0,0)" stroke-width="0.9999999999999997" fill="rgb(0,0,0)" stroke-linecap="butt" stroke-miterlimit="10.0"><path d="M 328.6324,550.0000 v -2.0000 "/></g><defs></defs><g stroke-linejoin="miter" stroke-opacity="1.0" fill-opacity="0.0" stroke="rgb(0,0,0)" stroke-width="0.9999999999999997" fill="rgb(0,0,0)" stroke-linecap="butt" stroke-miterlimit="10.0"><path d="M 403.8944,550.0000 v -2.0000 "/></g><defs></defs><g stroke-linejoin="miter" stroke-opacity="1.0" fill-opacity="0.0" stroke="rgb(0,0,0)" stroke-width="0.9999999999999997" fill="rgb(0,0,0)" stroke-linecap="butt" stroke-miterlimit="10.0"><path d="M 479.1565,550.0000 v -2.0000 "/></g><defs></defs><g stroke-linejoin="miter" stroke-opacity="1.0" fill-opacity="0.0" stroke="rgb(0,0,0)" stroke-width="0.9999999999999997" fill="rgb(0,0,0)" stroke-linecap="butt" stroke-miterlimit="10.0"><path d="M 554.4186,550.0000 v -2.0000 "/></g><defs></defs><g stroke-linejoin="miter" stroke-opacity="1.0" fill-opacity="0.0" stroke="rgb(0,0,0)" stroke-width="0.9999999999999997" fill="rgb(0,0,0)" stroke-linecap="butt" stroke-miterlimit="10.0"><path d="M 629.6807,550.0000 v -2.0000 "/></g><defs></defs><g stroke-linejoin="miter" stroke-opacity="1.0" fill-opacity="0.0" stroke="rgb(0,0,0)" stroke-width="0.9999999999999997" fill="rgb(0,0,0)" stroke-linecap="butt" stroke-miterlimit="10.0"><path d="M 704.9428,550.0000 v -2.0000 "/></g><defs></defs><g stroke-linejoin="miter" stroke-opacity="1.0" fill-opacity="0.0" stroke="rgb(0,0,0)" stroke-width="0.9999999999999997" fill="rgb(0,0,0)" stroke-linecap="butt" stroke-miterlimit="10.0"><path d="M 780.2048,550.0000 v -2.0000 "/></g><defs></defs><g stroke-linejoin="miter" stroke-opacity="1.0" fill-opacity="0.0" stroke="rgb(0,0,0)" stroke-width="0.9999999999999997" fill="rgb(0,0,0)" stroke-linecap="butt" stroke-miterlimit="10.0"><path d="M 27.5840,550.0000 v -5.0000 "/></g><defs></defs><g stroke-linejoin="miter" stroke-opacity="1.0" fill-opacity="0.0" stroke="rgb(0,0,0)" stroke-width="0.9999999999999997" fill="rgb(0,0,0)" stroke-linecap="butt" stroke-miterlimit="10.0"><path d="M 215.7392,550.0000 v -5.0000 "/></g><defs></defs><g stroke-linejoin="miter" stroke-opacity="1.0" fill-opacity="0.0" stroke="rgb(0,0,0)" stroke-width="0.9999999999999997" fill="rgb(0,0,0)" stroke-linecap="butt" stroke-miterlimit="10.0"><path d="M 403.8944,550.0000 v -5.0000 "/></g><defs></defs><g stroke-linejoin="miter" stroke-opacity="1.0" fill-opacity="0.0" stroke="rgb(0,0,0)" stroke-width="0.9999999999999997" fill="rgb(0,0,0)" stroke-linecap="butt" stroke-miterlimit="10.0"><path d="M 592.0496,550.0000 v -5.0000 "/></g><defs></defs><g stroke-linejoin="miter" stroke-opacity="1.0" fill-opacity="0.0" stroke="rgb(0,0,0)" stroke-width="0.9999999999999997" fill="rgb(0,0,0)" stroke-linecap="butt" stroke-miterlimit="10.0"><path d="M 780.2048,550.0000 v -5.0000 "/></g><defs></defs><g stroke-linejoin="bevel" stroke-opacity="0.0" fill-opacity="1.0" stroke="rgb(0,0,0)" stroke-width="0.0" fill="rgb(0,0,0)" stroke-linecap="butt" stroke-miterlimit="10.0"><path d="M 25.4359,570.0000 ZM 28.0515,570.1261 c -1.0189,-0.0000 -1.5861,-0.9034 -1.5861 -0.9034c -0.5672,-0.9034 -0.5672,-2.5945 -0.5672 -2.5945c 0.0000,-1.6912 0.5672,-2.5735 0.5672 -2.5735c 0.5672,-0.8824 1.5861,-0.8824 1.5861 -0.8824c 1.0084,0.0000 1.5756,0.8824 1.5756 0.8824c 0.5672,0.8824 0.5672,2.5735 0.5672 2.5735c 0.0000,1.6912 -0.5672,2.5945 -0.5672 2.5945c -0.5672,0.9034 -1.5756,0.9034 -1.5756 0.9034ZM 28.0515,570.1261 ZM 28.0515,569.4328 c 0.2941,0.0000 0.5305,-0.1628 0.5305 -0.1628c 0.2363,-0.1628 0.4097,-0.5042 0.4097 -0.5042c 0.1733,-0.3414 0.2679,-0.8718 0.2679 -0.8718c 0.0945,-0.5305 0.0945,-1.2658 0.0945 -1.2658c 0.0000,-0.7353 -0.0945,-1.2605 -0.0945 -1.2605c -0.0945,-0.5252 -0.2679,-0.8561 -0.2679 -0.8561c -0.1733,-0.3309 -0.4097,-0.4884 -0.4097 -0.4884c -0.2363,-0.1576 -0.5305,-0.1576 -0.5305 -0.1576c -0.2941,-0.0000 -0.5357,0.1576 -0.5357 0.1576c -0.2416,0.1576 -0.4149,0.4884 -0.4149 0.4884c -0.1733,0.3309 -0.2679,0.8561 -0.2679 0.8561c -0.0945,0.5252 -0.0945,1.2605 -0.0945 1.2605c 0.0000,1.4706 0.3624,2.1376 0.3624 2.1376c 0.3624,0.6670 0.9506,0.6670 0.9506 0.6670Z"/></g><defs></defs><g stroke-linejoin="bevel" stroke-opacity="0.0" fill-opacity="1.0" stroke="rgb(0,0,0)" stroke-width="0.0" fill="rgb(0,0,0)" stroke-linecap="butt" stroke-miterlimit="10.0"><path d="M 208.3285,570.0000 ZM 208.7487,569.4853 c 0.7563,-0.7563 1.3445,-1.3655 1.3445 -1.3655c 0.5882,-0.6092 0.9874,-1.1292 0.9874 -1.1292c 0.3992,-0.5200 0.6092,-0.9559 0.6092 -0.9559c 0.2101,-0.4359 0.2101,-0.8456 0.2101 -0.8456c 0.0000,-0.5777 -0.3151,-0.9454 -0.3151 -0.9454c -0.3151,-0.3676 -0.9559,-0.3676 -0.9559 -0.3676c -0.4202,-0.0000 -0.7773,0.2363 -0.7773 0.2363c -0.3571,0.2363 -0.6513,0.5725 -0.6513 0.5725l -0.4937,-0.4937 c 0.4202,-0.4622 0.8929,-0.7405 0.8929 -0.7405c 0.4727,-0.2784 1.1345,-0.2784 1.1345 -0.2784c 0.9349,0.0000 1.4706,0.5410 1.4706 0.5410c 0.5357,0.5410 0.5357,1.4338 0.5357 1.4338c 0.0000,0.4727 -0.2048,0.9506 -0.2048 0.9506c -0.2048,0.4779 -0.5672,0.9874 -0.5672 0.9874c -0.3624,0.5095 -0.8613,1.0609 -0.8613 1.0609c -0.4989,0.5515 -1.0977,1.1712 -1.0977 1.1712c 0.2731,-0.0210 0.5672,-0.0420 0.5672 -0.0420c 0.2941,-0.0210 0.5567,-0.0210 0.5567 -0.0210h 1.9433 v 0.7458 h -4.3277 v -0.5147 ZM 213.5491,570.0000 ZM 214.2319,568.6450 c 0.2941,0.3046 0.6985,0.5357 0.6985 0.5357c 0.4044,0.2311 0.9926,0.2311 0.9926 0.2311c 0.3046,0.0000 0.5725,-0.1103 0.5725 -0.1103c 0.2679,-0.1103 0.4674,-0.3099 0.4674 -0.3099c 0.1996,-0.1996 0.3151,-0.4832 0.3151 -0.4832c 0.1155,-0.2836 0.1155,-0.6303 0.1155 -0.6303c 0.0000,-0.6933 -0.3887,-1.0819 -0.3887 -1.0819c -0.3887,-0.3887 -1.0399,-0.3887 -1.0399 -0.3887c -0.3466,-0.0000 -0.5935,0.1050 -0.5935 0.1050c -0.2468,0.1050 -0.5515,0.3046 -0.5515 0.3046l -0.4622,-0.2941 l 0.2206,-3.2248 h 3.3508 v 0.7458 h -2.5945 l -0.1786,1.9853 c 0.2416,-0.1261 0.4832,-0.1996 0.4832 -0.1996c 0.2416,-0.0735 0.5462,-0.0735 0.5462 -0.0735c 0.4307,0.0000 0.8088,0.1261 0.8088 0.1261c 0.3782,0.1261 0.6618,0.3834 0.6618 0.3834c 0.2836,0.2574 0.4464,0.6513 0.4464 0.6513c 0.1628,0.3939 0.1628,0.9401 0.1628 0.9401c 0.0000,0.5462 -0.1891,0.9664 -0.1891 0.9664c -0.1891,0.4202 -0.5042,0.7090 -0.5042 0.7090c -0.3151,0.2889 -0.7195,0.4412 -0.7195 0.4412c -0.4044,0.1523 -0.8456,0.1523 -0.8456 0.1523c -0.3992,-0.0000 -0.7300,-0.0788 -0.7300 -0.0788c -0.3309,-0.0788 -0.5987,-0.2048 -0.5987 -0.2048c -0.2679,-0.1261 -0.4832,-0.2889 -0.4832 -0.2889c -0.2153,-0.1628 -0.3834,-0.3414 -0.3834 -0.3414ZM 218.7697,570.0000 ZM 221.3852,570.1261 c -1.0189,-0.0000 -1.5861,-0.9034 -1.5861 -0.9034c -0.5672,-0.9034 -0.5672,-2.5945 -0.5672 -2.5945c 0.0000,-1.6912 0.5672,-2.5735 0.5672 -2.5735c 0.5672,-0.8824 1.5861,-0.8824 1.5861 -0.8824c 1.0084,0.0000 1.5756,0.8824 1.5756 0.8824c 0.5672,0.8824 0.5672,2.5735 0.5672 2.5735c 0.0000,1.6912 -0.5672,2.5945 -0.5672 2.5945c -0.5672,0.9034 -1.5756,0.9034 -1.5756 0.9034ZM 221.3852,570.1261 ZM 221.3852,569.4328 c 0.2941,0.0000 0.5305,-0.1628 0.5305 -0.1628c 0.2363,-0.1628 0.4097,-0.5042 0.4097 -0.5042c 0.1733,-0.3414 0.2679,-0.8718 0.2679 -0.8718c 0.0945,-0.5305 0.0945,-1.2658 0.0945 -1.2658c 0.0000,-0.7353 -0.0945,-1.2605 -0.0945 -1.2605c -0.0945,-0.5252 -0.2679,-0.8561 -0.2679 -0.8561c -0.1733,-0.3309 -0.4097,-0.4884 -0.4097 -0.4884c -0.2363,-0.1576 -0.5305,-0.1576 -0.5305 -0.1576c -0.2941,-0.0000 -0.5357,0.1576 -0.5357 0.1576c -0.2416,0.1576 -0.4149,0.4884 -0.4149 0.4884c -0.1733,0.3309 -0.2679,0.8561 -0.2679 0.8561c -0.0945,0.5252 -0.0945,1.2605 -0.0945 1.2605c 0.0000,1.4706 0.3624,2.1376 0.3624 2.1376c 0.3624,0.6670 0.9506,0.6670 0.9506 0.6670Z"/></g><defs></defs><g stroke-linejoin="bevel" stroke-opacity="0.0" fill-opacity="1.0" stroke="rgb(0,0,0)" stroke-width="0.0" fill="rgb(0,0,0)" stroke-linecap="butt" stroke-miterlimit="10.0"><path d="M 396.4259,570.0000 ZM 397.1087,568.6450 c 0.2941,0.3046 0.6985,0.5357 0.6985 0.5357c 0.4044,0.2311 0.9926,0.2311 0.9926 0.2311c 0.3046,0.0000 0.5725,-0.1103 0.5725 -0.1103c 0.2679,-0.1103 0.4674,-0.3099 0.4674 -0.3099c 0.1996,-0.1996 0.3151,-0.4832 0.3151 -0.4832c 0.1155,-0.2836 0.1155,-0.6303 0.1155 -0.6303c 0.0000,-0.6933 -0.3887,-1.0819 -0.3887 -1.0819c -0.3887,-0.3887 -1.0399,-0.3887 -1.0399 -0.3887c -0.3466,-0.0000 -0.5935,0.1050 -0.5935 0.1050c -0.2468,0.1050 -0.5515,0.3046 -0.5515 0.3046l -0.4622,-0.2941 l 0.2206,-3.2248 h 3.3508 v 0.7458 h -2.5945 l -0.1786,1.9853 c 0.2416,-0.1261 0.4832,-0.1996 0.4832 -0.1996c 0.2416,-0.0735 0.5462,-0.0735 0.5462 -0.0735c 0.4307,0.0000 0.8088,0.1261 0.8088 0.1261c 0.3782,0.1261 0.6618,0.3834 0.6618 0.3834c 0.2836,0.2574 0.4464,0.6513 0.4464 0.6513c 0.1628,0.3939 0.1628,0.9401 0.1628 0.9401c 0.0000,0.5462 -0.1891,0.9664 -0.1891 0.9664c -0.1891,0.4202 -0.5042,0.7090 -0.5042 0.7090c -0.3151,0.2889 -0.7195,0.4412 -0.7195 0.4412c -0.4044,0.1523 -0.8456,0.1523 -0.8456 0.1523c -0.3992,-0.0000 -0.7300,-0.0788 -0.7300 -0.0788c -0.3309,-0.0788 -0.5987,-0.2048 -0.5987 -0.2048c -0.2679,-0.1261 -0.4832,-0.2889 -0.4832 -0.2889c -0.2153,-0.1628 -0.3834,-0.3414 -0.3834 -0.3414ZM 401.6465,570.0000 ZM 404.2621,570.1261 c -1.0189,-0.0000 -1.5861,-0.9034 -1.5861 -0.9034c -0.5672,-0.9034 -0.5672,-2.5945 -0.5672 -2.5945c 0.0000,-1.6912 0.5672,-2.5735 0.5672 -2.5735c 0.5672,-0.8824 1.5861,-0.8824 1.5861 -0.8824c 1.0084,0.0000 1.5756,0.8824 1.5756 0.8824c 0.5672,0.8824 0.5672,2.5735 0.5672 2.5735c 0.0000,1.6912 -0.5672,2.5945 -0.5672 2.5945c -0.5672,0.9034 -1.5756,0.9034 -1.5756 0.9034ZM 404.2621,570.1261 ZM 404.2621,569.4328 c 0.2941,0.0000 0.5305,-0.1628 0.5305 -0.1628c 0.2363,-0.1628 0.4097,-0.5042 0.4097 -0.5042c 0.1733,-0.3414 0.2679,-0.8718 0.2679 -0.8718c 0.0945,-0.5305 0.0945,-1.2658 0.0945 -1.2658c 0.0000,-0.7353 -0.0945,-1.2605 -0.0945 -1.2605c -0.0945,-0.5252 -0.2679,-0.8561 -0.2679 -0.8561c -0.1733,-0.3309 -0.4097,-0.4884 -0.4097 -0.4884c -0.2363,-0.1576 -0.5305,-0.1576 -0.5305 -0.1576c -0.2941,-0.0000 -0.5357,0.1576 -0.5357 0.1576c -0.2416,0.1576 -0.4149,0.4884 -0.4149 0.4884c -0.1733,0.3309 -0.2679,0.8561 -0.2679 0.8561c -0.0945,0.5252 -0.0945,1.2605 -0.0945 1.2605c 0.0000,1.4706 0.3624,2.1376 0.3624 2.1376c 0.3624,0.6670 0.9506,0.6670 0.9506 0.6670ZM 406.8671,570.0000 ZM 409.4827,570.1261 c -1.0189,-0.0000 -1.5861,-0.9034 -1.5861 -0.9034c -0.5672,-0.9034 -0.5672,-2.5945 -0.5672 -2.5945c 0.0000,-1.6912 0.5672,-2.5735 0.5672 -2.5735c 0.5672,-0.8824 1.5861,-0.8824 1.5861 -0.8824c 1.0084,0.0000 1.5756,0.8824 1.5756 0.8824c 0.5672,0.8824 0.5672,2.5735 0.5672 2.5735c 0.0000,1.6912 -0.5672,2.5945 -0.5672 2.5945c -0.5672,0.9034 -1.5756,0.9034 -1.5756 0.9034ZM 409.4827,570.1261 ZM 409.4827,569.4328 c 0.2941,0.0000 0.5305,-0.1628 0.5305 -0.1628c 0.2363,-0.1628 0.4097,-0.5042 0.4097 -0.5042c 0.1733,-0.3414 0.2679,-0.8718 0.2679 -0.8718c 0.0945,-0.5305 0.0945,-1.2658 0.0945 -1.2658c 0.0000,-0.7353 -0.0945,-1.2605 -0.0945 -1.2605c -0.0945,-0.5252 -0.2679,-0.8561 -0.2679 -0.8561c -0.1733,-0.3309 -0.4097,-0.4884 -0.4097 -0.4884c -0.2363,-0.1576 -0.5305,-0.1576 -0.5305 -0.1576c -0.2941,-0.0000 -0.5357,0.1576 -0.5357 0.1576c -0.2416,0.1576 -0.4149,0.4884 -0.4149 0.4884c -0.1733,0.3309 -0.2679,0.8561 -0.2679 0.8561c -0.0945,0.5252 -0.0945,1.2605 -0.0945 1.2605c 0.0000,1.4706 0.3624,2.1376 0.3624 2.1376c 0.3624,0.6670 0.9506,0.6670 0.9506 0.6670Z"/></g><defs></defs><g stroke-linejoin="bevel" stroke-opacity="0.0" fill-opacity="1.0" stroke="rgb(0,0,0)" stroke-width="0.0" fill="rgb(0,0,0)" stroke-linecap="butt" stroke-miterlimit="10.0"><path d="M 584.6809,570.0000 ZM 586.5402,570.0000 c 0.0420,-0.9454 0.1681,-1.7332 0.1681 -1.7332c 0.1261,-0.7878 0.3519,-1.4968 0.3519 -1.4968c 0.2258,-0.7090 0.5777,-1.3708 0.5777 -1.3708c 0.3519,-0.6618 0.8456,-1.3550 0.8456 -1.3550h -3.3403 v -0.7458 h 4.3172 v 0.5357 c -0.5987,0.7563 -0.9716,1.4496 -0.9716 1.4496c -0.3729,0.6933 -0.5935,1.4128 -0.5935 1.4128c -0.2206,0.7195 -0.3204,1.5231 -0.3204 1.5231c -0.0998,0.8036 -0.1418,1.7805 -0.1418 1.7805h -0.8929 h 0.0000 ZM 589.9015,570.0000 ZM 590.5843,568.6450 c 0.2941,0.3046 0.6985,0.5357 0.6985 0.5357c 0.4044,0.2311 0.9926,0.2311 0.9926 0.2311c 0.3046,0.0000 0.5725,-0.1103 0.5725 -0.1103c 0.2679,-0.1103 0.4674,-0.3099 0.4674 -0.3099c 0.1996,-0.1996 0.3151,-0.4832 0.3151 -0.4832c 0.1155,-0.2836 0.1155,-0.6303 0.1155 -0.6303c 0.0000,-0.6933 -0.3887,-1.0819 -0.3887 -1.0819c -0.3887,-0.3887 -1.0399,-0.3887 -1.0399 -0.3887c -0.3466,-0.0000 -0.5935,0.1050 -0.5935 0.1050c -0.2468,0.1050 -0.5515,0.3046 -0.5515 0.3046l -0.4622,-0.2941 l 0.2206,-3.2248 h 3.3508 v 0.7458 h -2.5945 l -0.1786,1.9853 c 0.2416,-0.1261 0.4832,-0.1996 0.4832 -0.1996c 0.2416,-0.0735 0.5462,-0.0735 0.5462 -0.0735c 0.4307,0.0000 0.8088,0.1261 0.8088 0.1261c 0.3782,0.1261 0.6618,0.3834 0.6618 0.3834c 0.2836,0.2574 0.4464,0.6513 0.4464 0.6513c 0.1628,0.3939 0.1628,0.9401 0.1628 0.9401c 0.0000,0.5462 -0.1891,0.9664 -0.1891 0.9664c -0.1891,0.4202 -0.5042,0.7090 -0.5042 0.7090c -0.3151,0.2889 -0.7195,0.4412 -0.7195 0.4412c -0.4044,0.1523 -0.8456,0.1523 -0.8456 0.1523c -0.3992,-0.0000 -0.7300,-0.0788 -0.7300 -0.0788c -0.3309,-0.0788 -0.5987,-0.2048 -0.5987 -0.2048c -0.2679,-0.1261 -0.4832,-0.2889 -0.4832 -0.2889c -0.2153,-0.1628 -0.3834,-0.3414 -0.3834 -0.3414ZM 595.1221,570.0000 ZM 597.7377,570.1261 c -1.0189,-0.0000 -1.5861,-0.9034 -1.5861 -0.9034c -0.5672,-0.9034 -0.5672,-2.5945 -0.5672 -2.5945c 0.0000,-1.6912 0.5672,-2.5735 0.5672 -2.5735c 0.5672,-0.8824 1.5861,-0.8824 1.5861 -0.8824c 1.0084,0.0000 1.5756,0.8824 1.5756 0.8824c 0.5672,0.8824 0.5672,2.5735 0.5672 2.5735c 0.0000,1.6912 -0.5672,2.5945 -0.5672 2.5945c -0.5672,0.9034 -1.5756,0.9034 -1.5756 0.9034ZM 597.7377,570.1261 ZM 597.7377,569.4328 c 0.2941,0.0000 0.5305,-0.1628 0.5305 -0.1628c 0.2363,-0.1628 0.4097,-0.5042 0.4097 -0.5042c 0.1733,-0.3414 0.2679,-0.8718 0.2679 -0.8718c 0.0945,-0.5305 0.0945,-1.2658 0.0945 -1.2658c 0.0000,-0.7353 -0.0945,-1.2605 -0.0945 -1.2605c -0.0945,-0.5252 -0.2679,-0.8561 -0.2679 -0.8561c -0.1733,-0.3309 -0.4097,-0.4884 -0.4097 -0.4884c -0.2363,-0.1576 -0.5305,-0.1576 -0.5305 -0.1576c -0.2941,-0.0000 -0.5357,0.1576 -0.5357 0.1576c -0.2416,0.1576 -0.4149,0.4884 -0.4149 0.4884c -0.1733,0.3309 -0.2679,0.8561 -0.2679 0.8561c -0.0945,0.5252 -0.0945,1.2605 -0.0945 1.2605c 0.0000,1.4706 0.3624,2.1376 0.3624 2.1376c 0.3624,0.6670 0.9506,0.6670 0.9506 0.6670Z"/></g><defs></defs><g stroke-linejoin="bevel" stroke-opacity="0.0" fill-opacity="1.0" stroke="rgb(0,0,0)" stroke-width="0.0" fill="rgb(0,0,0)" stroke-linecap="butt" stroke-miterlimit="10.0"><path d="M 770.4097,570.0000 ZM 771.2395,569.2857 h 1.5336 v -4.9370 h -1.2185 v -0.5567 c 0.4622,-0.0840 0.8036,-0.2048 0.8036 -0.2048c 0.3414,-0.1208 0.6145,-0.2889 0.6145 -0.2889h 0.6618 v 5.9874 h 1.3866 v 0.7143 h -3.7815 v -0.7143 ZM 775.6303,570.0000 ZM 778.2458,570.1261 c -1.0189,-0.0000 -1.5861,-0.9034 -1.5861 -0.9034c -0.5672,-0.9034 -0.5672,-2.5945 -0.5672 -2.5945c 0.0000,-1.6912 0.5672,-2.5735 0.5672 -2.5735c 0.5672,-0.8824 1.5861,-0.8824 1.5861 -0.8824c 1.0084,0.0000 1.5756,0.8824 1.5756 0.8824c 0.5672,0.8824 0.5672,2.5735 0.5672 2.5735c 0.0000,1.6912 -0.5672,2.5945 -0.5672 2.5945c -0.5672,0.9034 -1.5756,0.9034 -1.5756 0.9034ZM 778.2458,570.1261 ZM 778.2458,569.4328 c 0.2941,0.0000 0.5305,-0.1628 0.5305 -0.1628c 0.2363,-0.1628 0.4097,-0.5042 0.4097 -0.5042c 0.1733,-0.3414 0.2679,-0.8718 0.2679 -0.8718c 0.0945,-0.5305 0.0945,-1.2658 0.0945 -1.2658c 0.0000,-0.7353 -0.0945,-1.2605 -0.0945 -1.2605c -0.0945,-0.5252 -0.2679,-0.8561 -0.2679 -0.8561c -0.1733,-0.3309 -0.4097,-0.4884 -0.4097 -0.4884c -0.2363,-0.1576 -0.5305,-0.1576 -0.5305 -0.1576c -0.2941,-0.0000 -0.5357,0.1576 -0.5357 0.1576c -0.2416,0.1576 -0.4149,0.4884 -0.4149 0.4884c -0.1733,0.3309 -0.2679,0.8561 -0.2679 0.8561c -0.0945,0.5252 -0.0945,1.2605 -0.0945 1.2605c 0.0000,1.4706 0.3624,2.1376 0.3624 2.1376c 0.3624,0.6670 0.9506,0.6670 0.9506 0.6670ZM 780.8508,570.0000 ZM 783.4664,570.1261 c -1.0189,-0.0000 -1.5861,-0.9034 -1.5861 -0.9034c -0.5672,-0.9034 -0.5672,-2.5945 -0.5672 -2.5945c 0.0000,-1.6912 0.5672,-2.5735 0.5672 -2.5735c 0.5672,-0.8824 1.5861,-0.8824 1.5861 -0.8824c 1.0084,0.0000 1.5756,0.8824 1.5756 0.8824c 0.5672,0.8824 0.5672,2.5735 0.5672 2.5735c 0.0000,1.6912 -0.5672,2.5945 -0.5672 2.5945c -0.5672,0.9034 -1.5756,0.9034 -1.5756 0.9034ZM 783.4664,570.1261 ZM 783.4664,569.4328 c 0.2941,0.0000 0.5305,-0.1628 0.5305 -0.1628c 0.2363,-0.1628 0.4097,-0.5042 0.4097 -0.5042c 0.1733,-0.3414 0.2679,-0.8718 0.2679 -0.8718c 0.0945,-0.5305 0.0945,-1.2658 0.0945 -1.2658c 0.0000,-0.7353 -0.0945,-1.2605 -0.0945 -1.2605c -0.0945,-0.5252 -0.2679,-0.8561 -0.2679 -0.8561c -0.1733,-0.3309 -0.4097,-0.4884 -0.4097 -0.4884c -0.2363,-0.1576 -0.5305,-0.1576 -0.5305 -0.1576c -0.2941,-0.0000 -0.5357,0.1576 -0.5357 0.1576c -0.2416,0.1576 -0.4149,0.4884 -0.4149 0.4884c -0.1733,0.3309 -0.2679,0.8561 -0.2679 0.8561c -0.0945,0.5252 -0.0945,1.2605 -0.0945 1.2605c 0.0000,1.4706 0.3624,2.1376 0.3624 2.1376c 0.3624,0.6670 0.9506,0.6670 0.9506 0.6670ZM 786.0714,570.0000 ZM 788.6870,570.1261 c -1.0189,-0.0000 -1.5861,-0.9034 -1.5861 -0.9034c -0.5672,-0.9034 -0.5672,-2.5945 -0.5672 -2.5945c 0.0000,-1.6912 0.5672,-2.5735 0.5672 -2.5735c 0.5672,-0.8824 1.5861,-0.8824 1.5861 -0.8824c 1.0084,0.0000 1.5756,0.8824 1.5756 0.8824c 0.5672,0.8824 0.5672,2.5735 0.5672 2.5735c 0.0000,1.6912 -0.5672,2.5945 -0.5672 2.5945c -0.5672,0.9034 -1.5756,0.9034 -1.5756 0.9034ZM 788.6870,570.1261 ZM 788.6870,569.4328 c 0.2941,0.0000 0.5305,-0.1628 0.5305 -0.1628c 0.2363,-0.1628 0.4097,-0.5042 0.4097 -0.5042c 0.1733,-0.3414 0.2679,-0.8718 0.2679 -0.8718c 0.0945,-0.5305 0.0945,-1.2658 0.0945 -1.2658c 0.0000,-0.7353 -0.0945,-1.2605 -0.0945 -1.2605c -0.0945,-0.5252 -0.2679,-0.8561 -0.2679 -0.8561c -0.1733,-0.3309 -0.4097,-0.4884 -0.4097 -0.4884c -0.2363,-0.1576 -0.5305,-0.1576 -0.5305 -0.1576c -0.2941,-0.0000 -0.5357,0.1576 -0.5357 0.1576c -0.2416,0.1576 -0.4149,0.4884 -0.4149 0.4884c -0.1733,0.3309 -0.2679,0.8561 -0.2679 0.8561c -0.0945,0.5252 -0.0945,1.2605 -0.0945 1.2605c 0.0000,1.4706 0.3624,2.1376 0.3624 2.1376c 0.3624,0.6670 0.9506,0.6670 0.9506 0.6670Z"/></g><defs></defs><g stroke-linejoin="round" stroke-opacity="1.0" fill-opacity="0.0" stroke="rgb(0,0,255)" stroke-width="0.9999999999999997" fill="rgb(0,0,0)" stroke-linecap="round" stroke-miterlimit="10.0"><path d="M 10.0000,585.0000 h 20.0000 "/></g><defs></defs><g stroke-linejoin="bevel" stroke-opacity="0.0" fill-opacity="1.0" stroke="rgb(0,0,0)" stroke-width="0.0" fill="rgb(0,0,0)" stroke-linecap="butt" stroke-miterlimit="10.0"><path d="M 35.0735,586.6071 ZM 38.9496,583.8025 l -0.3256,-1.0504 c -0.1891,-0.5777 -0.3571,-1.1502 -0.3571 -1.1502c -0.1681,-0.5725 -0.3361,-1.1712 -0.3361 -1.1712h -0.0420 c -0.1576,0.5987 -0.3256,1.1712 -0.3256 1.1712c -0.1681,0.5725 -0.3571,1.1502 -0.3571 1.1502l -0.3256,1.0504 h 2.0693 ZM 38.9496,583.8025 ZM 39.1702,584.5063 h -2.5105 l -0.6618,2.1008 h -0.8929 l 2.3319,-6.8908 h 0.9874 l 2.3319,6.8908 h -0.9349 ZM 40.7878,586.6071 ZM 41.7332,579.7164 h 1.7227 c 1.5966,0.0000 2.4265,0.8824 2.4265 0.8824c 0.8298,0.8824 0.8298,2.5315 0.8298 2.5315c 0.0000,0.8193 -0.2101,1.4653 -0.2101 1.4653c -0.2101,0.6460 -0.6197,1.0924 -0.6197 1.0924c -0.4097,0.4464 -1.0084,0.6828 -1.0084 0.6828c -0.5987,0.2363 -1.3761,0.2363 -1.3761 0.2363h -1.7647 v -6.8908 ZM 41.7332,579.7164 ZM 43.3929,585.8929 c 1.2080,0.0000 1.8120,-0.7248 1.8120 -0.7248c 0.6040,-0.7248 0.6040,-2.0378 0.6040 -2.0378c 0.0000,-1.3130 -0.6040,-2.0063 -0.6040 -2.0063c -0.6040,-0.6933 -1.8120,-0.6933 -1.8120 -0.6933h -0.7878 v 5.4622 h 0.7878 ZM 47.2479,586.6071 ZM 48.1933,579.7164 h 3.9706 v 0.7353 h -3.0987 v 2.1639 h 2.6155 v 0.7458 h -2.6155 v 2.5000 h 3.2038 v 0.7458 h -4.0756 v -6.8908 ZM 52.7836,586.6071 ZM 52.7836,579.7164 h 0.9349 l 1.1029,3.7185 c 0.1891,0.6197 0.3309,1.1450 0.3309 1.1450c 0.1418,0.5252 0.3414,1.1345 0.3414 1.1345h 0.0420 c 0.1891,-0.6092 0.3361,-1.1345 0.3361 -1.1345c 0.1471,-0.5252 0.3256,-1.1450 0.3256 -1.1450l 1.1029,-3.7185 h 0.8929 l -2.1849,6.8908 h -1.0189 Z"/></g></svg>