<?xml version="1.0" encoding="UTF-8"?>
<!DOCTYPE svg PUBLIC "-//W3C//DTD SVG 1.1//EN"
    "http://www.w3.org/Graphics/SVG/1.1/DTD/svg11.dtd"><svg xmlns="http://www.w3.org/2000/svg" height="600.0000" stroke-opacity="1" viewBox="0 0 800 600" font-size="1" width="800.0000" xmlns:xlink="http://www.w3.org/1999/xlink" stroke="rgb(0,0,0)" version="1.1"><defs></defs><defs></defs><g stroke-linejoin="bevel" stroke-opacity="0.0" fill-opacity="1.0" stroke="rgb(0,0,0)" stroke-width="0.0" fill="rgb(255,255,255)" stroke-linecap="butt" stroke-miterlimit="10.0"><path d="M 0.0000,0.0000 v 600.0000 h 800.0000 v -600.0000 Z"/></g><defs></defs><g stroke-linejoin="miter" stroke-opacity="1.0" fill-opacity="0.0" stroke="rgb(211,211,211)" stroke-width="0.9999999999999997" fill="rgb(0,0,0)" stroke-dashoffset="0.0" stroke-linecap="butt" stroke-miterlimit="10.0" stroke-dasharray="4.999999999999998,4.999999999999998"><path d="M 27.5840,15.0000 v 535.0000 "/></g><defs></defs><g stroke-linejoin="miter" stroke-opacity="1.0" fill-opacity="0.0" stroke="rgb(211,211,211)" stroke-width="0.9999999999999997" fill="rgb(0,0,0)" stroke-dashoffset="0.0" stroke-linecap="butt" stroke-miterlimit="10.0" stroke-dasharray="4.999999999999998,4.999999999999998"><path d="M 215.7392,15.0000 v 535.0000 "/></g><defs></defs><g stroke-linejoin="miter" stroke-opacity="1.0" fill-opacity="0.0" stroke="rgb(211,211,211)" stroke-width="0.9999999999999997" fill="rgb(0,0,0)" stroke-dashoffset="0.0" stroke-linecap="butt" stroke-miterlimit="10.0" stroke-dasharray="4.999999999999998,4.999999999999998"><path d="M 403.8944,15.0000 v 535.0000 "/></g><defs></defs><g stroke-linejoin="miter" stroke-opacity="1.0" fill-opacity="0.0" stroke="rgb(211,211,211)" stroke-width="0.9999999999999997" fill="rgb(0,0,0)" stroke-dashoffset="0.0" stroke-linecap="butt" stroke-miterlimit="10.0" stroke-dasharray="4.999999999999998,4.999999999999998"><path d="M 592.0496,15.0000 v 535.0000 "/></g><defs></defs><g stroke-linejoin="miter" stroke-opacity="1.0" fill-opacity="0.0" stroke="rgb(211,211,211)" stroke-width="0.9999999999999997" fill="rgb(0,0,0)" stroke-dashoffset="0.0" stroke-linecap="butt" stroke-miterlimit="10.0" stroke-dasharray="4.999999999999998,4.999999999999998"><path d="M 780.2048,15.0000 v 535.0000 "/></g><defs></defs><g stroke-linejoin="miter" stroke-opacity="1.0" fill-opacity="0.0" stroke="rgb(211,211,211)" stroke-width="0.9999999999999997" fill="rgb(0,0,0)" stroke-dashoffset="0.0" stroke-linecap="butt" stroke-miterlimit="10.0" stroke-dasharray="4.999999999999998,4.999999999999998"><path d="M 27.5840,550.0000 h 752.6208 "/></g><defs></defs><g stroke-linejoin="miter" stroke-opacity="1.0" fill-opacity="0.0" stroke="rgb(211,211,211)" stroke-width="0.9999999999999997" fill="rgb(0,0,0)" stroke-dashoffset="0.0" stroke-linecap="butt" stroke-miterlimit="10.0" stroke-dasharray="4.999999999999998,4.999999999999998"><path d="M 27.5840,416.2500 h 752.6208 "/></g><defs></defs><g stroke-linejoin="miter" stroke-opacity="1.0" fill-opacity="0.0" stroke="rgb(211,211,211)" stroke-width="0.9999999999999997" fill="rgb(0,0,0)" stroke-dashoffset="0.0" stroke-linecap="butt" stroke-miterlimit="10.0" stroke-dasharray="4.999999999999998,4.999999999999998"><path d="M 27.5840,282.5000 h 752.6208 "/></g><defs></defs><g stroke-linejoin="miter" stroke-opacity="1.0" fill-opacity="0.0" stroke="rgb(211,211,211)" stroke-width="0.9999999999999997" fill="rgb(0,0,0)" stroke-dashoffset="0.0" stroke-linecap="butt" stroke-miterlimit="10.0" stroke-dasharray="4.999999999999998,4.999999999999998"><path d="M 27.5840,148.7500 h 752.6208 "/></g><defs></defs><g stroke-linejoin="miter" stroke-opacity="1.0" fill-opacity="0.0" stroke="rgb(211,211,211)" stroke-width="0.9999999999999997" fill="rgb(0,0,0)" stroke-dashoffset="0.0" stroke-linecap="butt" stroke-miterlimit="10.0" stroke-dasharray="4.999999999999998,4.999999999999998"><path d="M 27.5840,15.0000 h 752.6208 "/></g><defs></defs><g stroke-linejoin="round" stroke-opacity="1.0" fill-opacity="0.0" stroke="rgb(0,0,255)" stroke-width="0.9999999999999997" fill="rgb(0,0,0)" stroke-linecap="round" stroke-miterlimit="10.0"><defs><clipPath id="myClip1"><path d="M 27.5840,15.0000 v 535.0000 h 752.6208 v -535.0000 Z"/></clipPath></defs><g clip-path="url(#myClip1)"><path d="M 28.3367,301.0061 l 0.7526,-16.6986 l 0.7526,73.9623 l 0.7526,-98.5369 l 0.7526,15.7743 l 0.7526,-92.9197 l 0.7526,177.1851 l 0.7526,-7.3411 l 0.7526,49.5392 l 0.7526,-179.4970 l 0.7526,2.5699 l 0.7526,-81.4939 l 0.7526,69.2022 l 0.7526,198.8324 l 0.7526,-66.8338 l 0.7526,-66.8451 l 0.7526,134.3829 l 0.7526,-117.7507 l 0.7526,-134.3552 l 0.7526,144.3126 l 0.7526,19.4219 l 0.7526,-112.5493 l 0.7526,54.7925 l 0.7526,-43.2795 l 0.7526,17.6181 l 0.7526,-14.0590 l 0.7526,201.9923 l 0.7526,-66.3509 l 0.7526,-104.9927 l 0.7526,152.4818 l 0.7526,-121.7661 l 0.7526,99.8346 l 0.7526,-151.6617 l 0.7526,55.7279 l 0.7526,-106.6076 l 0.7526,-110.1282 l 0.7526,274.4153 l 0.7526,-27.2077 l 0.7526,24.7390 l 0.7526,-27.4242 l 0.7526,-68.6289 l 0.7526,-14.8523 l 0.7526,66.2438 l 0.7526,0.3095 l 0.7526,-6.0801 l 0.7526,-31.2887 l 0.7526,12.1995 l 0.7526,-43.4677 l 0.7526,159.4303 l 0.7526,-58.9218 l 0.7526,150.8003 l 0.7526,-262.7471 l 0.7526,106.5829 l 0.7526,-60.0484 l 0.7526,-42.8173 l 0.7526,41.8754 l 0.7526,-74.4328 l 0.7526,316.2792 l 0.7526,-319.9261 l 0.7526,-45.3599 l 0.7526,178.0348 l 0.7526,74.1780 l 0.7526,-122.9993 l 0.7526,85.8396 l 0.7526,-162.4742 l 0.7526,26.1724 l 0.7526,100.4740 l 0.7526,-43.1189 l 0.7526,-61.5044 l 0.7526,-60.4658 l 0.7526,221.1808 l 0.7526,-96.4505 l 0.7526,1.9070 l 0.7526,80.1205 l 0.7526,60.7400 l 0.7526,-220.5653 l 0.7526,195.3672 l 0.7526,-90.6696 l 0.7526,-56.4083 l 0.7526,153.9701 l 0.7526,-47.5525 l 0.7526,2.1536 l 0.7526,-219.2700 l 0.7526,9.6170 l 0.7526,27.4572 l 0.7526,84.5553 l 0.7526,-4.8295 l 0.7526,19.7884 l 0.7526,47.7168 l 0.7526,161.3554 l 0.7526,-223.8281 l 0.7526,-17.8927 l 0.7526,225.9236 l 0.7526,-248.8249 l 0.7526,146.8453 l 0.7526,-166.5959 l 0.7526,178.1093 l 0.7526,-59.0230 l 0.7526,4.3475 l 0.7526,-109.6023 l 0.7526,111.5927 l 0.7526,-5.1622 l 0.7526,-38.4632 l 0.7526,-99.5626 l 0.7526,127.2591 l 0.7526,-148.3784 l 0.7526,48.4948 l 0.7526,-0.0216 l 0.7526,-18.8411 l 0.7526,189.0936 l 0.7526,67.5374 l 0.7526,-285.6270 l 0.7526,143.2576 l 0.7526,-4.2286 l 0.7526,5.5173 l 0.7526,-54.7447 l 0.7526,68.0581 l 0.7526,-182.9539 l 0.7526,259.5629 l 0.7526,-160.3939 l 0.7526,114.2844 l 0.7526,4.1481 l 0.7526,-179.5896 l 0.7526,197.6996 l 0.7526,-257.1381 l 0.7526,45.9149 l 0.7526,18.0273 l 0.7526,98.6604 l 0.7526,-15.4969 l 0.7526,40.2754 l 0.7526,-128.4363 l 0.7526,135.7584 l 0.7526,32.6469 l 0.7526,-87.4367 l 0.7526,8.5144 l 0.7526,40.2109 l 0.7526,126.8920 l 0.7526,-86.0937 l 0.7526,-188.2315 l 0.7526,57.1947 l 0.7526,159.8466 l 0.7526,91.5936 l 0.7526,-258.6210 l 0.7526,183.8309 l 0.7526,-141.9243 l 0.7526,-13.9633 l 0.7526,89.1905 l 0.7526,-81.0539 l 0.7526,-58.0531 l 0.7526,302.4528 l 0.7526,-160.9590 l 0.7526,-21.4434 l 0.7526,-25.8746 l 0.7526,41.0422 l 0.7526,-16.9522 l 0.7526,106.4067 l 0.7526,-131.0257 l 0.7526,-48.1127 l 0.7526,0.9786 l 0.7526,-123.9991 l 0.7526,267.9561 l 0.7526,-5.5105 l 0.7526,-77.5162 l 0.7526,0.3406 l 0.7526,-122.8596 l 0.7526,145.4568 l 0.7526,38.5407 l 0.7526,-64.9319 l 0.7526,-0.8276 l 0.7526,-49.0485 l 0.7526,-6.5613 l 0.7526,-24.5254 l 0.7526,68.1647 l 0.7526,17.8726 l 0.7526,-6.1833 l 0.7526,178.5243 l 0.7526,-264.6251 l 0.7526,63.6322 l 0.7526,67.9538 l 0.7526,-91.3600 l 0.7526,-30.5329 l 0.7526,-3.2261 l 0.7526,115.5233 l 0.7526,18.5738 l 0.7526,-85.3424 l 0.7526,-27.9744 l 0.7526,21.0655 l 0.7526,29.1122 l 0.7526,8.5800 l 0.7526,-86.6396 l 0.7526,152.9252 l 0.7526,-122.2003 l 0.7526,77.1129 l 0.7526,-47.4907 l 0.7526,-34.9795 l 0.7526,226.2437 l 0.7526,-237.2133 l 0.7526,-92.7826 l 0.7526,154.7572 l 0.7526,0.4369 l 0.7526,-66.2184 l 0.7526,-13.0095 l 0.7526,119.3580 l 0.7526,-1.1079 l 0.7526,-82.6520 l 0.7526,5.5021 l 0.7526,-42.9504 l 0.7526,108.5030 l 0.7526,132.1104 l 0.7526,-152.9949 l 0.7526,16.6483 l 0.7526,7.2791 l 0.7526,-92.7107 l 0.7526,212.4608 l 0.7526,-158.4866 l 0.7526,10.2645 l 0.7526,28.7684 l 0.7526,-72.3082 l 0.7526,36.6746 l 0.7526,0.3445 l 0.7526,37.2291 l 0.7526,-127.7393 l 0.7526,250.5205 l 0.7526,-113.3651 l 0.7526,-55.3216 l 0.7526,52.2247 l 0.7526,46.2534 l 0.7526,-75.1099 l 0.7526,-98.2585 l 0.7526,50.1130 l 0.7526,16.1302 l 0.7526,145.8451 l 0.7526,43.5173 l 0.7526,-122.4657 l 0.7526,-139.6366 l 0.7526,113.6650 l 0.7526,-34.3839 l 0.7526,-52.5701 l 0.7526,35.4746 l 0.7526,219.5099 l 0.7526,-161.1019 l 0.7526,16.9991 l 0.7526,-53.7627 l 0.7526,137.2096 l 0.7526,-237.1260 l 0.7526,267.0425 l 0.7526,-250.1294 l 0.7526,210.4729 l 0.7526,-148.9022 l 0.7526,65.2490 l 0.7526,-117.3918 l 0.7526,90.8345 l 0.7526,75.8957 l 0.7526,170.0563 l 0.7526,-166.5430 l 0.7526,-74.5398 l 0.7526,-11.4726 l 0.7526,27.1999 l 0.7526,-16.0137 l 0.7526,110.0320 l 0.7526,-163.2841 l 0.7526,116.0012 l 0.7526,-41.8756 l 0.7526,4.2480 l 0.7526,3.5516 l 0.7526,-151.2272 l 0.7526,253.4134 l 0.7526,30.4763 l 0.7526,-149.5291 l 0.7526,-15.9395 l 0.7526,128.4531 l 0.7526,82.5470 l 0.7526,-193.6684 l 0.7526,106.9385 l 0.7526,-247.9818 l 0.7526,262.9263 l 0.7526,14.8797 l 0.7526,-183.7857 l 0.7526,34.3862 l 0.7526,120.0235 l 0.7526,-210.7932 l 0.7526,-57.5855 l 0.7526,129.0339 l 0.7526,-108.1935 l 0.7526,-28.9530 l 0.7526,109.2004 l 0.7526,97.1064 l 0.7526,-71.8976 l 0.7526,14.4032 l 0.7526,-27.2702 l 0.7526,30.2862 l 0.7526,8.9838 l 0.7526,-59.8504 l 0.7526,165.8380 l 0.7526,-83.9152 l 0.7526,-72.6204 l 0.7526,107.8077 l 0.7526,-39.6045 l 0.7526,22.6602 l 0.7526,46.1446 l 0.7526,-199.1296 l 0.7526,118.6141 l 0.7526,-89.5234 l 0.7526,-82.3048 l 0.7526,57.4741 l 0.7526,63.8801 l 0.7526,-34.9528 l 0.7526,71.7440 l 0.7526,64.1037 l 0.7526,-121.3724 l 0.7526,-81.9854 l 0.7526,221.3501 l 0.7526,-140.3623 l 0.7526,123.4099 l 0.7526,168.5753 l 0.7526,-186.8318 l 0.7526,40.1921 l 0.7526,-176.2337 l 0.7526,41.8331 l 0.7526,155.9690 l 0.7526,-150.4291 l 0.7526,45.3896 l 0.7526,61.6495 l 0.7526,-73.3313 l 0.7526,-82.8019 l 0.7526,-27.0554 l 0.7526,99.8147 l 0.7526,4.5188 l 0.7526,82.3492 l 0.7526,-50.0018 l 0.7526,-27.5604 l 0.7526,-74.2545 l 0.7526,49.3988 l 0.7526,113.8815 l 0.7526,-81.5908 l 0.7526,-164.1123 l 0.7526,249.0605 l 0.7526,-180.1028 l 0.7526,-49.8737 l 0.7526,9.9493 l 0.7526,176.2251 l 0.7526,-43.1724 l 0.7526,-17.3439 l 0.7526,30.1462 l 0.7526,56.4451 l 0.7526,-19.7923 l 0.7526,-167.6833 l 0.7526,27.6275 l 0.7526,19.7501 l 0.7526,-108.2955 l 0.7526,126.6308 l 0.7526,85.8047 l 0.7526,-94.4825 l 0.7526,28.2876 l 0.7526,-10.6812 l 0.7526,-24.7694 l 0.7526,154.9050 l 0.7526,-139.5435 l 0.7526,55.8600 l 0.7526,-98.7735 l 0.7526,118.1395 l 0.7526,-16.9481 l 0.7526,-33.3187 l 0.7526,74.1604 l 0.7526,-19.8906 l 0.7526,154.9459 l 0.7526,-189.3644 l 0.7526,-105.7609 l 0.7526,158.0593 l 0.7526,-163.2144 l 0.7526,121.8719 l 0.7526,-113.3219 l 0.7526,254.3725 l 0.7526,-107.4835 l 0.7526,-73.0986 l 0.7526,-61.5624 l 0.7526,172.7071 l 0.7526,-67.2764 l 0.7526,-102.5084 l 0.7526,-68.3124 l 0.7526,168.1876 l 0.7526,-14.8275 l 0.7526,-0.7053 l 0.7526,58.7944 l 0.7526,-56.0034 l 0.7526,73.0425 l 0.7526,-48.0572 l 0.7526,-62.1334 l 0.7526,70.9320 l 0.7526,-140.8155 l 0.7526,139.3928 l 0.7526,-71.4082 l 0.7526,97.6725 l 0.7526,-195.1457 l 0.7526,118.1923 l 0.7526,-58.4051 l 0.7526,147.8136 l 0.7526,-21.6253 l 0.7526,8.2639 l 0.7526,-56.5933 l 0.7526,13.2894 l 0.7526,152.6084 l 0.7526,-172.4185 l 0.7526,16.9141 l 0.7526,-231.5628 l 0.7526,216.6705 l 0.7526,-215.3947 l 0.7526,161.8632 l 0.7526,59.7017 l 0.7526,-18.3990 l 0.7526,31.1965 l 0.7526,-42.4845 l 0.7526,10.0058 l 0.7526,-91.5782 l 0.7526,110.7600 l 0.7526,-37.7872 l 0.7526,-21.5489 l 0.7526,92.7227 l 0.7526,-78.3602 l 0.7526,10.0006 l 0.7526,-7.8613 l 0.7526,2.4193 l 0.7526,45.1979 l 0.7526,-20.3212 l 0.7526,30.7158 l 0.7526,-49.7304 l 0.7526,-54.8126 l 0.7526,38.7033 l 0.7526,-19.6160 l 0.7526,46.8262 l 0.7526,183.9967 l 0.7526,-259.3825 l 0.7526,27.9132 l 0.7526,110.6016 l 0.7526,14.5359 l 0.7526,65.1471 l 0.7526,-153.6434 l 0.7526,19.2930 l 0.7526,45.2420 l 0.7526,54.2581 l 0.7526,-36.5170 l 0.7526,-40.4119 l 0.7526,119.4049 l 0.7526,-30.9131 l 0.7526,-36.1546 l 0.7526,55.3957 l 0.7526,-122.3090 l 0.7526,-42.7809 l 0.7526,31.6712 l 0.7526,5.4675 l 0.7526,-11.4090 l 0.7526,-36.9714 l 0.7526,69.8615 l 0.7526,-165.3111 l 0.7526,169.7568 l 0.7526,40.7888 l 0.7526,56.2158 l 0.7526,-75.7818 l 0.7526,7.0718 l 0.7526,-123.5537 l 0.7526,125.2824 l 0.7526,-140.2118 l 0.7526,63.9965 l 0.7526,39.2173 l 0.7526,-100.7994 l 0.7526,73.8692 l 0.7526,-140.5389 l 0.7526,197.4065 l 0.7526,-28.9950 l 0.7526,-68.2137 l 0.7526,40.3957 l 0.7526,-18.9091 l 0.7526,166.6163 l 0.7526,-87.9052 l 0.7526,106.8278 l 0.7526,-229.3872 l 0.7526,76.7224 l 0.7526,10.6042 l 0.7526,-39.9872 l 0.7526,7.7821 l 0.7526,82.6406 l 0.7526,-5.4976 l 0.7526,-17.7129 l 0.7526,75.9288 l 0.7526,-88.1125 l 0.7526,64.5206 l 0.7526,-180.8023 l 0.7526,28.0831 l 0.7526,10.5297 l 0.7526,52.0020 l 0.7526,67.8592 l 0.7526,-40.3972 l 0.7526,-54.7916 l 0.7526,13.4194 l 0.7526,34.2505 l 0.7526,-0.8330 l 0.7526,47.2709 l 0.7526,-142.1506 l 0.7526,51.7585 l 0.7526,78.9119 l 0.7526,27.6353 l 0.7526,-136.4416 l 0.7526,181.5666 l 0.7526,-116.0504 l 0.7526,-55.8888 l 0.7526,98.3534 l 0.7526,-37.7528 l 0.7526,-45.2020 l 0.7526,4.0040 l 0.7526,10.1445 l 0.7526,13.4953 l 0.7526,2.0927 l 0.7526,-55.4020 l 0.7526,117.3182 l 0.7526,-42.1072 l 0.7526,10.5738 l 0.7526,-98.5236 l 0.7526,125.9568 l 0.7526,-118.8117 l 0.7526,76.0987 l 0.7526,3.3365 l 0.7526,-3.6957 l 0.7526,86.9936 l 0.7526,-14.9882 l 0.7526,-13.8941 l 0.7526,-204.1559 l 0.7526,143.5852 l 0.7526,-18.3423 l 0.7526,29.5370 l 0.7526,-85.4706 l 0.7526,212.8857 l 0.7526,-194.6508 l 0.7526,132.5647 l 0.7526,54.8295 l 0.7526,-54.1292 l 0.7526,-76.1952 l 0.7526,22.5028 l 0.7526,-73.3186 l 0.7526,42.3616 l 0.7526,83.1797 l 0.7526,-135.7158 l 0.7526,118.4987 l 0.7526,24.7172 l 0.7526,-124.6835 l 0.7526,16.7428 l 0.7526,45.5064 l 0.7526,25.2060 l 0.7526,-275.3396 l 0.7526,242.2865 l 0.7526,37.7453 l 0.7526,-82.9222 l 0.7526,-53.6716 l 0.7526,81.9518 l 0.7526,23.8817 l 0.7526,-84.1048 l 0.7526,66.6065 l 0.7526,11.6548 l 0.7526,48.6105 l 0.7526,-160.0680 l 0.7526,178.8449 l 0.7526,-81.3522 l 0.7526,153.3485 l 0.7526,-49.3538 l 0.7526,34.8072 l 0.7526,-149.5736 l 0.7526,116.4251 l 0.7526,-60.0918 l 0.7526,-18.1087 l 0.7526,-88.5878 l 0.7526,180.2685 l 0.7526,-152.5627 l 0.7526,43.6776 l 0.7526,-87.2976 l 0.7526,150.9451 l 0.7526,-155.9381 l 0.7526,43.8546 l 0.7526,22.5896 l 0.7526,-25.2458 l 0.7526,8.3523 l 0.7526,-51.9875 l 0.7526,169.1887 l 0.7526,-21.0813 l 0.7526,-72.1456 l 0.7526,37.1702 l 0.7526,37.9568 l 0.7526,-120.7811 l 0.7526,-47.1972 l 0.7526,-7.4758 l 0.7526,-44.5805 l 0.7526,124.0995 l 0.7526,-17.5700 l 0.7526,20.0838 l 0.7526,-18.8903 l 0.7526,-23.4584 l 0.7526,107.4660 l 0.7526,20.5961 l 0.7526,108.5626 l 0.7526,-204.6440 l 0.7526,14.1304 l 0.7526,143.3994 l 0.7526,-78.4069 l 0.7526,-49.5881 l 0.7526,-10.7548 l 0.7526,-73.1208 l 0.7526,114.5631 l 0.7526,-74.9569 l 0.7526,131.7494 l 0.7526,-104.0364 l 0.7526,-88.6146 l 0.7526,138.2319 l 0.7526,7.2177 l 0.7526,27.5530 l 0.7526,18.0396 l 0.7526,19.5169 l 0.7526,46.1579 l 0.7526,-189.4874 l 0.7526,-20.2242 l 0.7526,77.8534 l 0.7526,8.6230 l 0.7526,33.9420 l 0.7526,68.5901 l 0.7526,-80.9355 l 0.7526,-7.4245 l 0.7526,-26.6366 l 0.7526,49.7920 l 0.7526,-160.7769 l 0.7526,121.2440 l 0.7526,27.4720 l 0.7526,135.1829 l 0.7526,-154.9713 l 0.7526,-258.5709 l 0.7526,254.4642 l 0.7526,11.7916 l 0.7526,-84.9966 l 0.7526,110.0539 l 0.7526,-178.3633 l 0.7526,104.5680 l 0.7526,14.0054 l 0.7526,33.4572 l 0.7526,-70.7753 l 0.7526,24.8621 l 0.7526,10.4950 l 0.7526,-89.3302 l 0.7526,85.0414 l 0.7526,-17.9864 l 0.7526,25.7656 l 0.7526,-129.5497 l 0.7526,87.3288 l 0.7526,20.0607 l 0.7526,21.9486 l 0.7526,88.2246 l 0.7526,-142.0517 l 0.7526,67.7558 l 0.7526,-5.3104 l 0.7526,119.1070 l 0.7526,-220.7942 l 0.7526,145.6001 l 0.7526,-165.4513 l 0.7526,96.4725 l 0.7526,-15.9258 l 0.7526,170.4157 l 0.7526,-102.6004 l 0.7526,-90.6655 l 0.7526,-16.3954 l 0.7526,-6.2371 l 0.7526,155.6415 l 0.7526,-117.6033 l 0.7526,107.8935 l 0.7526,-43.1640 l 0.7526,-31.4129 l 0.7526,-37.3212 l 0.7526,-109.5604 l 0.7526,157.5857 l 0.7526,177.5096 l 0.7526,-92.9934 l 0.7526,-192.9675 l 0.7526,146.9505 l 0.7526,-183.4816 l 0.7526,238.0638 l 0.7526,-21.5503 l 0.7526,-175.3320 l 0.7526,76.5117 l 0.7526,77.9017 l 0.7526,-215.1865 l 0.7526,243.2411 l 0.7526,-46.6967 l 0.7526,75.6994 l 0.7526,-133.9988 l 0.7526,116.3265 l 0.7526,-190.7940 l 0.7526,44.7184 l 0.7526,53.3178 l 0.7526,9.3777 l 0.7526,-45.3991 l 0.7526,-1.6346 l 0.7526,4.6953 l 0.7526,1.5325 l 0.7526,-34.0991 l 0.7526,60.0205 l 0.7526,18.4665 l 0.7526,13.0034 l 0.7526,89.4733 l 0.7526,-96.7281 l 0.7526,44.9150 l 0.7526,-10.1518 l 0.7526,-184.4398 l 0.7526,61.6873 l 0.7526,58.5520 l 0.7526,30.8531 l 0.7526,58.7472 l 0.7526,-129.0947 l 0.7526,-24.7027 l 0.7526,-12.1016 l 0.7526,28.3024 l 0.7526,-33.8853 l 0.7526,-55.6765 l 0.7526,92.8670 l 0.7526,7.9933 l 0.7526,36.7320 l 0.7526,110.8803 l 0.7526,-87.1505 l 0.7526,144.3840 l 0.7526,-65.4576 l 0.7526,-192.2485 l 0.7526,-61.1676 l 0.7526,83.1080 l 0.7526,30.1013 l 0.7526,-23.3814 l 0.7526,47.6225 l 0.7526,108.4090 l 0.7526,8.2631 l 0.7526,-236.6515 l 0.7526,90.1312 l 0.7526,145.3910 l 0.7526,30.4543 l 0.7526,-72.8137 l 0.7526,-83.7642 l 0.7526,27.4676 l 0.7526,-33.8841 l 0.7526,-2.7643 l 0.7526,-84.4341 l 0.7526,123.2687 l 0.7526,-46.1000 l 0.7526,52.4010 l 0.7526,21.4678 l 0.7526,-34.1929 l 0.7526,22.5518 l 0.7526,19.5667 l 0.7526,-29.3617 l 0.7526,36.6166 l 0.7526,-43.2714 l 0.7526,-89.1458 l 0.7526,230.1391 l 0.7526,-130.1868 l 0.7526,61.3421 l 0.7526,-129.5774 l 0.7526,139.2879 l 0.7526,-66.9494 l 0.7526,59.4145 l 0.7526,-200.8442 l 0.7526,18.9840 l 0.7526,80.3478 l 0.7526,-23.2185 l 0.7526,-63.6112 l 0.7526,57.7611 l 0.7526,92.2444 l 0.7526,-214.2794 l 0.7526,220.2448 l 0.7526,-77.5355 l 0.7526,62.2222 l 0.7526,-4.8121 l 0.7526,-143.2174 l 0.7526,124.6024 l 0.7526,109.5370 l 0.7526,-175.4843 l 0.7526,89.8767 l 0.7526,112.7409 l 0.7526,-131.3562 l 0.7526,32.3622 l 0.7526,-40.7650 l 0.7526,43.4290 l 0.7526,21.0796 l 0.7526,90.8000 l 0.7526,-323.3998 l 0.7526,182.0228 l 0.7526,28.7299 l 0.7526,71.3624 l 0.7526,-224.6108 l 0.7526,184.5432 l 0.7526,-120.6461 l 0.7526,-37.7758 l 0.7526,59.5441 l 0.7526,232.3276 l 0.7526,-366.1519 l 0.7526,137.7446 l 0.7526,14.8810 l 0.7526,43.9166 l 0.7526,-28.1980 l 0.7526,-22.1412 l 0.7526,-53.8272 l 0.7526,-3.0477 l 0.7526,49.2363 l 0.7526,-115.5645 l 0.7526,247.2343 l 0.7526,-46.5463 l 0.7526,17.9846 l 0.7526,-56.6722 l 0.7526,45.6351 l 0.7526,16.7365 l 0.7526,-104.9878 l 0.7526,-70.7145 l 0.7526,129.8629 l 0.7526,34.2987 l 0.7526,-161.1041 l 0.7526,65.7411 l 0.7526,-61.0567 l 0.7526,112.6534 l 0.7526,-52.1443 l 0.7526,27.7291 l 0.7526,-43.4350 l 0.7526,41.9991 l 0.7526,39.5977 l 0.7526,-131.2891 l 0.7526,33.0144 l 0.7526,7.2913 l 0.7526,16.4548 l 0.7526,-33.8188 l 0.7526,49.6486 l 0.7526,-138.8270 l 0.7526,113.7478 l 0.7526,-5.2889 l 0.7526,111.5357 l 0.7526,-62.4295 l 0.7526,173.6081 l 0.7526,-148.2544 l 0.7526,78.5451 l 0.7526,-89.8090 l 0.7526,-11.4422 l 0.7526,19.5789 l 0.7526,-127.0429 l 0.7526,127.6724 l 0.7526,92.5100 l 0.7526,-192.3092 l 0.7526,196.8392 l 0.7526,-169.3524 l 0.7526,-7.6597 l 0.7526,108.3928 l 0.7526,58.2398 l 0.7526,-81.0747 l 0.7526,-174.5953 l 0.7526,56.8166 l 0.7526,-2.8288 l 0.7526,67.8518 l 0.7526,25.4404 l 0.7526,-54.6420 l 0.7526,97.5151 l 0.7526,-198.2511 l 0.7526,174.3831 l 0.7526,-42.8297 l 0.7526,50.1973 l 0.7526,-65.5709 l 0.7526,7.9470 l 0.7526,130.8841 l 0.7526,-187.6814 l 0.7526,139.7877 l 0.7526,-30.3169 l 0.7526,-79.3744 l 0.7526,2.8520 l 0.7526,-53.4653 l 0.7526,122.4375 l 0.7526,-51.0528 l 0.7526,76.7552 l 0.7526,-63.3461 l 0.7526,19.0386 l 0.7526,-85.4790 l 0.7526,4.8788 l 0.7526,15.7916 l 0.7526,-30.9556 l 0.7526,55.9792 l 0.7526,14.8801 l 0.7526,16.1154 l 0.7526,-83.3862 l 0.7526,107.1662 l 0.7526,23.5316 l 0.7526,4.0824 l 0.7526,-30.9621 l 0.7526,-50.0462 l 0.7526,96.1059 l 0.7526,-47.2928 l 0.7526,-35.9274 l 0.7526,111.9715 l 0.7526,35.3293 l 0.7526,-97.6125 l 0.7526,-28.3962 l 0.7526,107.1507 l 0.7526,-94.2113 l 0.7526,76.5233 l 0.7526,-65.9360 l 0.7526,32.9946 l 0.7526,15.1739 l 0.7526,-43.6729 l 0.7526,5.7659 l 0.7526,-88.0792 l 0.7526,64.4628 l 0.7526,24.8806 l 0.7526,-109.5292 l 0.7526,-30.4181 l 0.7526,158.6689 l 0.7526,-0.2954 l 0.7526,132.1667 l 0.7526,-182.3163 l 0.7526,-51.7199 l 0.7526,-15.0830 l 0.7526,106.3344 l 0.7526,48.5469 l 0.7526,-18.1488 l 0.7526,-150.7490 l 0.7526,-120.4761 l 0.7526,243.1785 l 0.7526,-28.0653 l 0.7526,-88.0080 l 0.7526,87.8021 l 0.7526,-21.3774 l 0.7526,-9.6517 l 0.7526,76.2818 l 0.7526,-138.7309 l 0.7526,73.9507 l 0.7526,105.1917 l 0.7526,-127.5092 l 0.7526,27.1712 l 0.7526,26.6154 l 0.7526,-4.9942 l 0.7526,-22.1473 l 0.7526,59.6619 l 0.7526,-115.3207 l 0.7526,-28.8434 l 0.7526,-3.1369 l 0.7526,165.5115 l 0.7526,-28.3480 l 0.7526,76.4774 l 0.7526,-165.3002 l 0.7526,-63.2957 l 0.7526,-4.9137 l 0.7526,79.2058 l 0.7526,98.4764 l 0.7526,-117.7785 l 0.7526,50.7873 l 0.7526,27.4585 l 0.7526,-58.2371 l 0.7526,-28.3757 l 0.7526,25.2446 l 0.7526,-68.3790 l 0.7526,81.4385 l 0.7526,71.5607 l 0.7526,-54.5919 l 0.7526,7.5108 l 0.7526,-37.9760 l 0.7526,66.5497 l 0.7526,79.2344 l 0.7526,-151.7579 l 0.7526,64.7193 l 0.7526,-83.8532 l 0.7526,135.7032 l 0.7526,23.5223 l 0.7526,-197.0004 l 0.7526,27.3222 l 0.7526,-6.8463 l 0.7526,60.4637 l 0.7526,95.1325 l 0.7526,6.5427 l 0.7526,-130.4559 l 0.7526,90.1147 l 0.7526,-2.5475 l 0.7526,-100.6280 l 0.7526,-37.6364 l 0.7526,85.9303 l 0.7526,4.7073 l 0.7526,79.7920 l 0.7526,-136.7066 l 0.7526,12.4174 l 0.7526,-120.6982 l 0.7526,106.7544 l 0.7526,29.8521 l 0.7526,-91.3484 l 0.7526,-9.3789 l 0.7526,286.9526 l 0.7526,-197.5371 l 0.7526,-83.8552 l 0.7526,151.1923 l 0.7526,25.6151 l 0.7526,-76.1948 l 0.7526,-73.2801 l 0.7526,2.3844 l 0.7526,263.0682 l 0.7526,-75.5583 l 0.7526,-117.8373 l 0.7526,137.9438 l 0.7526,-4.3670 l 0.7526,17.6661 l 0.7526,-194.8164 "/></g></g><defs></defs><g stroke-linejoin="miter" stroke-opacity="1.0" fill-opacity="0.0" stroke="rgb(0,0,0)" stroke-width="0.9999999999999997" fill="rgb(0,0,0)" stroke-linecap="square" stroke-miterlimit="10.0"><path d="M 27.5840,550.0000 v -535.0000 "/></g><defs></defs><g stroke-linejoin="miter" stroke-opacity="1.0" fill-opacity="0.0" stroke="rgb(0,0,0)" stroke-width="0.9999999999999997" fill="rgb(0,0,0)" stroke-linecap="butt" stroke-miterlimit="10.0"><path d="M 27.5840,550.0000 h 2.0000 "/></g><defs></defs><g stroke-linejoin="miter" stroke-opacity="1.0" fill-opacity="0.0" stroke="rgb(0,0,0)" stroke-width="0.9999999999999997" fill="rgb(0,0,0)" stroke-linecap="butt" stroke-miterlimit="10.0"><path d="M 27.5840,536.6250 h 2.0000 "/></g><defs></defs><g stroke-linejoin="miter" stroke-opacity="1.0" fill-opacity="0.0" stroke="rgb(0,0,0)" stroke-width="0.9999999999999997" fill="rgb(0,0,0)" stroke-linecap="butt" stroke-miterlimit="10.0"><path d="M 27.5840,523.2500 h 2.0000 "/></g><defs></defs><g stroke-linejoin="miter" stroke-opacity="1.0" fill-opacity="0.0" stroke="rgb(0,0,0)" stroke-width="0.9999999999999997" fill="rgb(0,0,0)" stroke-linecap="butt" stroke-miterlimit="10.0"><path d="M 27.5840,509.8750 h 2.0000 "/></g><defs></defs><g stroke-linejoin="miter" stroke-opacity="1.0" fill-opacity="0.0" stroke="rgb(0,0,0)" stroke-width="0.9999999999999997" fill="rgb(0,0,0)" stroke-linecap="butt" stroke-miterlimit="10.0"><path d="M 27.5840,496.5000 h 2.0000 "/></g><defs></defs><g stroke-linejoin="miter" stroke-opacity="1.0" fill-opacity="0.0" stroke="rgb(0,0,0)" stroke-width="0.9999999999999997" fill="rgb(0,0,0)" stroke-linecap="butt" stroke-miterlimit="10.0"><path d="M 27.5840,483.1250 h 2.0000 "/></g><defs></defs><g stroke-linejoin="miter" stroke-opacity="1.0" fill-opacity="0.0" stroke="rgb(0,0,0)" stroke-width="0.9999999999999997" fill="rgb(0,0,0)" stroke-linecap="butt" stroke-miterlimit="10.0"><path d="M 27.5840,469.7500 h 2.0000 "/></g><defs></defs><g stroke-linejoin="miter" stroke-opacity="1.0" fill-opacity="0.0" stroke="rgb(0,0,0)" stroke-width="0.9999999999999997" fill="rgb(0,0,0)" stroke-linecap="butt" stroke-miterlimit="10.0"><path d="M 27.5840,456.3750 h 2.0000 "/></g><defs></defs><g stroke-linejoin="miter" stroke-opacity="1.0" fill-opacity="0.0" stroke="rgb(0,0,0)" stroke-width="0.9999999999999997" fill="rgb(0,0,0)" stroke-linecap="butt" stroke-miterlimit="10.0"><path d="M 27.5840,443.0000 h 2.0000 "/></g><defs></defs><g stroke-linejoin="miter" stroke-opacity="1.0" fill-opacity="0.0" stroke="rgb(0,0,0)" stroke-width="0.9999999999999997" fill="rgb(0,0,0)" stroke-linecap="butt" stroke-miterlimit="10.0"><path d="M 27.5840,429.6250 h 2.0000 "/></g><defs></defs><g stroke-linejoin="miter" stroke-opacity="1.0" fill-opacity="0.0" stroke="rgb(0,0,0)" stroke-width="0.9999999999999997" fill="rgb(0,0,0)" stroke-linecap="butt" stroke-miterlimit="10.0"><path d="M 27.5840,416.2500 h 2.0000 "/></g><defs></defs><g stroke-linejoin="miter" stroke-opacity="1.0" fill-opacity="0.0" stroke="rgb(0,0,0)" stroke-width="0.9999999999999997" fill="rgb(0,0,0)" stroke-linecap="butt" stroke-miterlimit="10.0"><path d="M 27.5840,402.8750 h 2.0000 "/></g><defs></defs><g stroke-linejoin="miter" stroke-opacity="1.0" fill-opacity="0.0" stroke="rgb(0,0,0)" stroke-width="0.9999999999999997" fill="rgb(0,0,0)" stroke-linecap="butt" stroke-miterlimit="10.0"><path d="M 27.5840,389.5000 h 2.0000 "/></g><defs></defs><g stroke-linejoin="miter" stroke-opacity="1.0" fill-opacity="0.0" stroke="rgb(0,0,0)" stroke-width="0.9999999999999997" fill="rgb(0,0,0)" stroke-linecap="butt" stroke-miterlimit="10.0"><path d="M 27.5840,376.1250 h 2.0000 "/></g><defs></defs><g stroke-linejoin="miter" stroke-opacity="1.0" fill-opacity="0.0" stroke="rgb(0,0,0)" stroke-width="0.9999999999999997" fill="rgb(0,0,0)" stroke-linecap="butt" stroke-miterlimit="10.0"><path d="M 27.5840,362.7500 h 2.0000 "/></g><defs></defs><g stroke-linejoin="miter" stroke-opacity="1.0" fill-opacity="0.0" stroke="rgb(0,0,0)" stroke-width="0.9999999999999997" fill="rgb(0,0,0)" stroke-linecap="butt" stroke-miterlimit="10.0"><path d="M 27.5840,349.3750 h 2.0000 "/></g><defs></defs><g stroke-linejoin="miter" stroke-opacity="1.0" fill-opacity="0.0" stroke="rgb(0,0,0)" stroke-width="0.9999999999999997" fill="rgb(0,0,0)" stroke-linecap="butt" stroke-miterlimit="10.0"><path d="M 27.5840,336.0000 h 2.0000 "/></g><defs></defs><g stroke-linejoin="miter" stroke-opacity="1.0" fill-opacity="0.0" stroke="rgb(0,0,0)" stroke-width="0.9999999999999997" fill="rgb(0,0,0)" stroke-linecap="butt" stroke-miterlimit="10.0"><path d="M 27.5840,322.6250 h 2.0000 "/></g><defs></defs><g stroke-linejoin="miter" stroke-opacity="1.0" fill-opacity="0.0" stroke="rgb(0,0,0)" stroke-width="0.9999999999999997" fill="rgb(0,0,0)" stroke-linecap="butt" stroke-miterlimit="10.0"><path d="M 27.5840,309.2500 h 2.0000 "/></g><defs></defs><g stroke-linejoin="miter" stroke-opacity="1.0" fill-opacity="0.0" stroke="rgb(0,0,0)" stroke-width="0.9999999999999997" fill="rgb(0,0,0)" stroke-linecap="butt" stroke-miterlimit="10.0"><path d="M 27.5840,295.8750 h 2.0000 "/></g><defs></defs><g stroke-linejoin="miter" stroke-opacity="1.0" fill-opacity="0.0" stroke="rgb(0,0,0)" stroke-width="0.9999999999999997" fill="rgb(0,0,0)" stroke-linecap="butt" stroke-miterlimit="10.0"><path d="M 27.5840,282.5000 h 2.0000 "/></g><defs></defs><g stroke-linejoin="miter" stroke-opacity="1.0" fill-opacity="0.0" stroke="rgb(0,0,0)" stroke-width="0.9999999999999997" fill="rgb(0,0,0)" stroke-linecap="butt" stroke-miterlimit="10.0"><path d="M 27.5840,269.1250 h 2.0000 "/></g><defs></defs><g stroke-linejoin="miter" stroke-opacity="1.0" fill-opacity="0.0" stroke="rgb(0,0,0)" stroke-width="0.9999999999999997" fill="rgb(0,0,0)" stroke-linecap="butt" stroke-miterlimit="10.0"><path d="M 27.5840,255.7500 h 2.0000 "/></g><defs></defs><g stroke-linejoin="miter" stroke-opacity="1.0" fill-opacity="0.0" stroke="rgb(0,0,0)" stroke-width="0.9999999999999997" fill="rgb(0,0,0)" stroke-linecap="butt" stroke-miterlimit="10.0"><path d="M 27.5840,242.3750 h 2.0000 "/></g><defs></defs><g stroke-linejoin="miter" stroke-opacity="1.0" fill-opacity="0.0" stroke="rgb(0,0,0)" stroke-width="0.9999999999999997" fill="rgb(0,0,0)" stroke-linecap="butt" stroke-miterlimit="10.0"><path d="M 27.5840,229.0000 h 2.0000 "/></g><defs></defs><g stroke-linejoin="miter" stroke-opacity="1.0" fill-opacity="0.0" stroke="rgb(0,0,0)" stroke-width="0.9999999999999997" fill="rgb(0,0,0)" stroke-linecap="butt" stroke-miterlimit="10.0"><path d="M 27.5840,215.6250 h 2.0000 "/></g><defs></defs><g stroke-linejoin="miter" stroke-opacity="1.0" fill-opacity="0.0" stroke="rgb(0,0,0)" stroke-width="0.9999999999999997" fill="rgb(0,0,0)" stroke-linecap="butt" stroke-miterlimit="10.0"><path d="M 27.5840,202.2500 h 2.0000 "/></g><defs></defs><g stroke-linejoin="miter" stroke-opacity="1.0" fill-opacity="0.0" stroke="rgb(0,0,0)" stroke-width="0.9999999999999997" fill="rgb(0,0,0)" stroke-linecap="butt" stroke-miterlimit="10.0"><path d="M 27.5840,188.8750 h 2.0000 "/></g><defs></defs><g stroke-linejoin="miter" stroke-opacity="1.0" fill-opacity="0.0" stroke="rgb(0,0,0)" stroke-width="0.9999999999999997" fill="rgb(0,0,0)" stroke-linecap="butt" stroke-miterlimit="10.0"><path d="M 27.5840,175.5000 h 2.0000 "/></g><defs></defs><g stroke-linejoin="miter" stroke-opacity="1.0" fill-opacity="0.0" stroke="rgb(0,0,0)" stroke-width="0.9999999999999997" fill="rgb(0,0,0)" stroke-linecap="butt" stroke-miterlimit="10.0"><path d="M 27.5840,162.1250 h 2.0000 "/></g><defs></defs><g stroke-linejoin="miter" stroke-opacity="1.0" fill-opacity="0.0" stroke="rgb(0,0,0)" stroke-width="0.9999999999999997" fill="rgb(0,0,0)" stroke-linecap="butt" stroke-miterlimit="10.0"><path d="M 27.5840,148.7500 h 2.0000 "/></g><defs></defs><g stroke-linejoin="miter" stroke-opacity="1.0" fill-opacity="0.0" stroke="rgb(0,0,0)" stroke-width="0.9999999999999997" fill="rgb(0,0,0)" stroke-linecap="butt" stroke-miterlimit="10.0"><path d="M 27.5840,135.3750 h 2.0000 "/></g><defs></defs><g stroke-linejoin="miter" stroke-opacity="1.0" fill-opacity="0.0" stroke="rgb(0,0,0)" stroke-width="0.9999999999999997" fill="rgb(0,0,0)" stroke-linecap="butt" stroke-miterlimit="10.0"><path d="M 27.5840,122.0000 h 2.0000 "/></g><defs></defs><g stroke-linejoin="miter" stroke-opacity="1.0" fill-opacity="0.0" stroke="rgb(0,0,0)" stroke-width="0.9999999999999997" fill="rgb(0,0,0)" stroke-linecap="butt" stroke-miterlimit="10.0"><path d="M 27.5840,108.6250 h 2.0000 "/></g><defs></defs><g stroke-linejoin="miter" stroke-opacity="1.0" fill-opacity="0.0" stroke="rgb(0,0,0)" stroke-width="0.9999999999999997" fill="rgb(0,0,0)" stroke-linecap="butt" stroke-miterlimit="10.0"><path d="M 27.5840,95.2500 h 2.0000 "/></g><defs></defs><g stroke-linejoin="miter" stroke-opacity="1.0" fill-opacity="0.0" stroke="rgb(0,0,0)" stroke-width="0.9999999999999997" fill="rgb(0,0,0)" stroke-linecap="butt" stroke-miterlimit="10.0"><path d="M 27.5840,81.8750 h 2.0000 "/></g><defs></defs><g stroke-linejoin="miter" stroke-opacity="1.0" fill-opacity="0.0" stroke="rgb(0,0,0)" stroke-width="0.9999999999999997" fill="rgb(0,0,0)" stroke-linecap="butt" stroke-miterlimit="10.0"><path d="M 27.5840,68.5000 h 2.0000 "/></g><defs></defs><g stroke-linejoin="miter" stroke-opacity="1.0" fill-opacity="0.0" stroke="rgb(0,0,0)" stroke-width="0.9999999999999997" fill="rgb(0,0,0)" stroke-linecap="butt" stroke-miterlimit="10.0"><path d="M 27.5840,55.1250 h 2.0000 "/></g><defs></defs><g stroke-linejoin="miter" stroke-opacity="1.0" fill-opacity="0.0" stroke="rgb(0,0,0)" stroke-width="0.9999999999999997" fill="rgb(0,0,0)" stroke-linecap="butt" stroke-miterlimit="10.0"><path d="M 27.5840,41.7500 h 2.0000 "/></g><defs></defs><g stroke-linejoin="miter" stroke-opacity="1.0" fill-opacity="0.0" stroke="rgb(0,0,0)" stroke-width="0.9999999999999997" fill="rgb(0,0,0)" stroke-linecap="butt" stroke-miterlimit="10.0"><path d="M 27.5840,28.3750 h 2.0000 "/></g><defs></defs><g stroke-linejoin="miter" stroke-opacity="1.0" fill-opacity="0.0" stroke="rgb(0,0,0)" stroke-width="0.9999999999999997" fill="rgb(0,0,0)" stroke-linecap="butt" stroke-miterlimit="10.0"><path d="M 27.5840,15.0000 h 2.0000 "/></g><defs></defs><g stroke-linejoin="miter" stroke-opacity="1.0" fill-opacity="0.0" stroke="rgb(0,0,0)" stroke-width="0.9999999999999997" fill="rgb(0,0,0)" stroke-linecap="butt" stroke-miterlimit="10.0"><path d="M 27.5840,550.0000 h 5.0000 "/></g><defs></defs><g stroke-linejoin="miter" stroke-opacity="1.0" fill-opacity="0.0" stroke="rgb(0,0,0)" stroke-width="0.9999999999999997" fill="rgb(0,0,0)" stroke-linecap="butt" stroke-miterlimit="10.0"><path d="M 27.5840,416.2500 h 5.0000 "/></g><defs></defs><g stroke-linejoin="miter" stroke-opacity="1.0" fill-opacity="0.0" stroke="rgb(0,0,0)" stroke-width="0.9999999999999997" fill="rgb(0,0,0)" stroke-linecap="butt" stroke-miterlimit="10.0"><path d="M 27.5840,282.5000 h 5.0000 "/></g><defs></defs><g stroke-linejoin="miter" stroke-opacity="1.0" fill-opacity="0.0" stroke="rgb(0,0,0)" stroke-width="0.9999999999999997" fill="rgb(0,0,0)" stroke-linecap="butt" stroke-miterlimit="10.0"><path d="M 27.5840,148.7500 h 5.0000 "/></g><defs></defs><g stroke-linejoin="miter" stroke-opacity="1.0" fill-opacity="0.0" stroke="rgb(0,0,0)" stroke-width="0.9999999999999997" fill="rgb(0,0,0)" stroke-linecap="butt" stroke-miterlimit="10.0"><path d="M 27.5840,15.0000 h 5.0000 "/></g><defs></defs><g stroke-linejoin="bevel" stroke-opacity="0.0" fill-opacity="1.0" stroke="rgb(0,0,0)" stroke-width="0.0" fill="rgb(0,0,0)" stroke-linecap="butt" stroke-miterlimit="10.0"><path d="M 10.0000,553.4454 ZM 10.4307,550.4832 h 2.4160 v 0.6618 h -2.4160 v -0.6618 ZM 13.2668,553.4454 ZM 13.6870,552.9307 c 0.7563,-0.7563 1.3445,-1.3655 1.3445 -1.3655c 0.5882,-0.6092 0.9874,-1.1292 0.9874 -1.1292c 0.3992,-0.5200 0.6092,-0.9559 0.6092 -0.9559c 0.2101,-0.4359 0.2101,-0.8456 0.2101 -0.8456c 0.0000,-0.5777 -0.3151,-0.9454 -0.3151 -0.9454c -0.3151,-0.3676 -0.9559,-0.3676 -0.9559 -0.3676c -0.4202,-0.0000 -0.7773,0.2363 -0.7773 0.2363c -0.3571,0.2363 -0.6513,0.5725 -0.6513 0.5725l -0.4937,-0.4937 c 0.4202,-0.4622 0.8929,-0.7405 0.8929 -0.7405c 0.4727,-0.2784 1.1345,-0.2784 1.1345 -0.2784c 0.9349,0.0000 1.4706,0.5410 1.4706 0.5410c 0.5357,0.5410 0.5357,1.4338 0.5357 1.4338c 0.0000,0.4727 -0.2048,0.9506 -0.2048 0.9506c -0.2048,0.4779 -0.5672,0.9874 -0.5672 0.9874c -0.3624,0.5095 -0.8613,1.0609 -0.8613 1.0609c -0.4989,0.5515 -1.0977,1.1712 -1.0977 1.1712c 0.2731,-0.0210 0.5672,-0.0420 0.5672 -0.0420c 0.2941,-0.0210 0.5567,-0.0210 0.5567 -0.0210h 1.9433 v 0.7458 h -4.3277 v -0.5147 Z"/></g><defs></defs><g stroke-linejoin="bevel" stroke-opacity="0.0" fill-opacity="1.0" stroke="rgb(0,0,0)" stroke-width="0.0" fill="rgb(0,0,0)" stroke-linecap="butt" stroke-miterlimit="10.0"><path d="M 10.1366,419.6954 ZM 10.5672,416.7332 h 2.4160 v 0.6618 h -2.4160 v -0.6618 ZM 13.4034,419.6954 ZM 14.2332,418.9811 h 1.5336 v -4.9370 h -1.2185 v -0.5567 c 0.4622,-0.0840 0.8036,-0.2048 0.8036 -0.2048c 0.3414,-0.1208 0.6145,-0.2889 0.6145 -0.2889h 0.6618 v 5.9874 h 1.3866 v 0.7143 h -3.7815 v -0.7143 Z"/></g><defs></defs><g stroke-linejoin="bevel" stroke-opacity="0.0" fill-opacity="1.0" stroke="rgb(0,0,0)" stroke-width="0.0" fill="rgb(0,0,0)" stroke-linecap="butt" stroke-miterlimit="10.0"><path d="M 13.2878,285.9454 ZM 15.9034,286.0714 c -1.0189,-0.0000 -1.5861,-0.9034 -1.5861 -0.9034c -0.5672,-0.9034 -0.5672,-2.5945 -0.5672 -2.5945c 0.0000,-1.6912 0.5672,-2.5735 0.5672 -2.5735c 0.5672,-0.8824 1.5861,-0.8824 1.5861 -0.8824c 1.0084,0.0000 1.5756,0.8824 1.5756 0.8824c 0.5672,0.8824 0.5672,2.5735 0.5672 2.5735c 0.0000,1.6912 -0.5672,2.5945 -0.5672 2.5945c -0.5672,0.9034 -1.5756,0.9034 -1.5756 0.9034ZM 15.9034,286.0714 ZM 15.9034,285.3782 c 0.2941,0.0000 0.5305,-0.1628 0.5305 -0.1628c 0.2363,-0.1628 0.4097,-0.5042 0.4097 -0.5042c 0.1733,-0.3414 0.2679,-0.8718 0.2679 -0.8718c 0.0945,-0.5305 0.0945,-1.2658 0.0945 -1.2658c 0.0000,-0.7353 -0.0945,-1.2605 -0.0945 -1.2605c -0.0945,-0.5252 -0.2679,-0.8561 -0.2679 -0.8561c -0.1733,-0.3309 -0.4097,-0.4884 -0.4097 -0.4884c -0.2363,-0.1576 -0.5305,-0.1576 -0.5305 -0.1576c -0.2941,-0.0000 -0.5357,0.1576 -0.5357 0.1576c -0.2416,0.1576 -0.4149,0.4884 -0.4149 0.4884c -0.1733,0.3309 -0.2679,0.8561 -0.2679 0.8561c -0.0945,0.5252 -0.0945,1.2605 -0.0945 1.2605c 0.0000,1.4706 0.3624,2.1376 0.3624 2.1376c 0.3624,0.6670 0.9506,0.6670 0.9506 0.6670Z"/></g><defs></defs><g stroke-linejoin="bevel" stroke-opacity="0.0" fill-opacity="1.0" stroke="rgb(0,0,0)" stroke-width="0.0" fill="rgb(0,0,0)" stroke-linecap="butt" stroke-miterlimit="10.0"><path d="M 13.8025,152.1954 ZM 14.6324,151.4811 h 1.5336 v -4.9370 h -1.2185 v -0.5567 c 0.4622,-0.0840 0.8036,-0.2048 0.8036 -0.2048c 0.3414,-0.1208 0.6145,-0.2889 0.6145 -0.2889h 0.6618 v 5.9874 h 1.3866 v 0.7143 h -3.7815 v -0.7143 Z"/></g><defs></defs><g stroke-linejoin="bevel" stroke-opacity="0.0" fill-opacity="1.0" stroke="rgb(0,0,0)" stroke-width="0.0" fill="rgb(0,0,0)" stroke-linecap="butt" stroke-miterlimit="10.0"><path d="M 13.2143,18.4454 ZM 13.6345,17.9307 c 0.7563,-0.7563 1.3445,-1.3655 1.3445 -1.3655c 0.5882,-0.6092 0.9874,-1.1292 0.9874 -1.1292c 0.3992,-0.5200 0.6092,-0.9559 0.6092 -0.9559c 0.2101,-0.4359 0.2101,-0.8456 0.2101 -0.8456c 0.0000,-0.5777 -0.3151,-0.9454 -0.3151 -0.9454c -0.3151,-0.3676 -0.9559,-0.3676 -0.9559 -0.3676c -0.4202,-0.0000 -0.7773,0.2363 -0.7773 0.2363c -0.3571,0.2363 -0.6513,0.5725 -0.6513 0.5725l -0.4937,-0.4937 c 0.4202,-0.4622 0.8929,-0.7405 0.8929 -0.7405c 0.4727,-0.2784 1.1345,-0.2784 1.1345 -0.2784c 0.9349,0.0000 1.4706,0.5410 1.4706 0.5410c 0.5357,0.5410 0.5357,1.4338 0.5357 1.4338c 0.0000,0.4727 -0.2048,0.9506 -0.2048 0.9506c -0.2048,0.4779 -0.5672,0.9874 -0.5672 0.9874c -0.3624,0.5095 -0.8613,1.0609 -0.8613 1.0609c -0.4989,0.5515 -1.0977,1.1712 -1.0977 1.1712c 0.2731,-0.0210 0.5672,-0.0420 0.5672 -0.0420c 0.2941,-0.0210 0.5567,-0.0210 0.5567 -0.0210h 1.9433 v 0.7458 h -4.3277 v -0.5147 Z"/></g><defs></defs><g stroke-linejoin="miter" stroke-opacity="1.0" fill-opacity="0.0" stroke="rgb(0,0,0)" stroke-width="0.9999999999999997" fill="rgb(0,0,0)" stroke-linecap="square" stroke-miterlimit="10.0"><path d="M 27.5840,550.0000 h 752.6208 "/></g><defs></defs><g stroke-linejoin="miter" stroke-opacity="1.0" fill-opacity="0.0" stroke="rgb(0,0,0)" stroke-width="0.9999999999999997" fill="rgb(0,0,0)" stroke-linecap="butt" stroke-miterlimit="10.0"><path d="M 27.5840,550.0000 v -2.0000 "/></g><defs></defs><g stroke-linejoin="miter" stroke-opacity="1.0" fill-opacity="0.0" stroke="rgb(0,0,0)" stroke-width="0.9999999999999997" fill="rgb(0,0,0)" stroke-linecap="butt" stroke-miterlimit="10.0"><path d="M 102.8461,550.0000 v -2.0000 "/></g><defs></defs><g stroke-linejoin="miter" stroke-opacity="1.0" fill-opacity="0.0" stroke="rgb(0,0,0)" stroke-width="0.9999999999999997" fill="rgb(0,0,0)" stroke-linecap="butt" stroke-miterlimit="10.0"><path d="M 178.1082,550.0000 v -2.0000 "/></g><defs></defs><g stroke-linejoin="miter" stroke-opacity="1.0" fill-opacity="0.0" stroke="rgb(0,0,0)" stroke-width="0.9999999999999997" fill="rgb(0,0,0)" stroke-linecap="butt" stroke-miterlimit="10.0"><path d="M 253.3703,550.0000 v -2.0000 "/></g><defs></defs><g stroke-linejoin="miter" stroke-opacity="1.0" fill-opacity="0.0" stroke="rgb(0,0,0)" stroke-width="0.9999999999999997" fill="rgb(0,0,0)" stroke-linecap="butt" stroke-miterlimit="10.0"><path d="M 328.6324,550.0000 v -2.0000 "/></g><defs></defs><g stroke-linejoin="miter" stroke-opacity="1.0" fill-opacity="0.0" stroke="rgb(0,0,0)" stroke-width="0.9999999999999997" fill="rgb(0,0,0)" stroke-linecap="butt" stroke-miterlimit="10.0"><path d="M 403.8944,550.0000 v -2.0000 "/></g><defs></defs><g stroke-linejoin="miter" stroke-opacity="1.0" fill-opacity="0.0" stroke="rgb(0,0,0)" stroke-width="0.9999999999999997" fill="rgb(0,0,0)" stroke-linecap="butt" stroke-miterlimit="10.0"><path d="M 479.1565,550.0000 v -2.0000 "/></g><defs></defs><g stroke-linejoin="miter" stroke-opacity="1.0" fill-opacity="0.0" stroke="rgb(0,0,0)" stroke-width="0.9999999999999997" fill="rgb(0,0,0)" stroke-linecap="butt" stroke-miterlimit="10.0"><path d="M 554.4186,550.0000 v -2.0000 "/></g><defs></defs><g stroke-linejoin="miter" stroke-opacity="1.0" fill-opacity="0.0" stroke="rgb(0,0,0)" stroke-width="0.9999999999999997" fill="rgb(0,0,0)" stroke-linecap="butt" stroke-miterlimit="10.0"><path d="M 629.6807,550.0000 v -2.0000 "/></g><defs></defs><g stroke-linejoin="miter" stroke-opacity="1.0" fill-opacity="0.0" stroke="rgb(0,0,0)" stroke-width="0.9999999999999997" fill="rgb(0,0,0)" stroke-linecap="butt" stroke-miterlimit="10.0"><path d="M 704.9428,550.0000 v -2.0000 "/></g><defs></defs><g stroke-linejoin="miter" stroke-opacity="1.0" fill-opacity="0.0" stroke="rgb(0,0,0)" stroke-width="0.9999999999999997" fill="rgb(0,0,0)" stroke-linecap="butt" stroke-miterlimit="10.0"><path d="M 780.2048,550.0000 v -2.0000 "/></g><defs></defs><g stroke-linejoin="miter" stroke-opacity="1.0" fill-opacity="0.0" stroke="rgb(0,0,0)" stroke-width="0.9999999999999997" fill="rgb(0,0,0)" stroke-linecap="butt" stroke-miterlimit="10.0"><path d="M 27.5840,550.0000 v -5.0000 "/></g><defs></defs><g stroke-linejoin="miter" stroke-opacity="1.0" fill-opacity="0.0" stroke="rgb(0,0,0)" stroke-width="0.9999999999999997" fill="rgb(0,0,0)" stroke-linecap="butt" stroke-miterlimit="10.0"><path d="M 215.7392,550.0000 v -5.0000 "/></g><defs></defs><g stroke-linejoin="miter" stroke-opacity="1.0" fill-opacity="0.0" stroke="rgb(0,0,0)" stroke-width="0.9999999999999997" fill="rgb(0,0,0)" stroke-linecap="butt" stroke-miterlimit="10.0"><path d="M 403.8944,550.0000 v -5.0000 "/></g><defs></defs><g stroke-linejoin="miter" stroke-opacity="1.0" fill-opacity="0.0" stroke="rgb(0,0,0)" stroke-width="0.9999999999999997" fill="rgb(0,0,0)" stroke-linecap="butt" stroke-miterlimit="10.0"><path d="M 592.0496,550.0000 v -5.0000 "/></g><defs></defs><g stroke-linejoin="miter" stroke-opacity="1.0" fill-opacity="0.0" stroke="rgb(0,0,0)" stroke-width="0.9999999999999997" fill="rgb(0,0,0)" stroke-linecap="butt" stroke-miterlimit="10.0"><path d="M 780.2048,550.0000 v -5.0000 "/></g><defs></defs><g stroke-linejoin="bevel" stroke-opacity="0.0" fill-opacity="1.0" stroke="rgb(0,0,0)" stroke-width="0.0" fill="rgb(0,0,0)" stroke-linecap="butt" stroke-miterlimit="10.0"><path d="M 25.4359,570.0000 ZM 28.0515,570.1261 c -1.0189,-0.0000 -1.5861,-0.9034 -1.5861 -0.9034c -0.5672,-0.9034 -0.5672,-2.5945 -0.5672 -2.5945c 0.0000,-1.6912 0.5672,-2.5735 0.5672 -2.5735c 0.5672,-0.8824 1.5861,-0.8824 1.5861 -0.8824c 1.0084,0.0000 1.5756,0.8824 1.5756 0.8824c 0.5672,0.8824 0.5672,2.5735 0.5672 2.5735c 0.0000,1.6912 -0.5672,2.5945 -0.5672 2.5945c -0.5672,0.9034 -1.5756,0.9034 -1.5756 0.9034ZM 28.0515,570.1261 ZM 28.0515,569.4328 c 0.2941,0.0000 0.5305,-0.1628 0.5305 -0.1628c 0.2363,-0.1628 0.4097,-0.5042 0.4097 -0.5042c 0.1733,-0.3414 0.2679,-0.8718 0.2679 -0.8718c 0.0945,-0.5305 0.0945,-1.2658 0.0945 -1.2658c 0.0000,-0.7353 -0.0945,-1.2605 -0.0945 -1.2605c -0.0945,-0.5252 -0.2679,-0.8561 -0.2679 -0.8561c -0.1733,-0.3309 -0.4097,-0.4884 -0.4097 -0.4884c -0.2363,-0.1576 -0.5305,-0.1576 -0.5305 -0.1576c -0.2941,-0.0000 -0.5357,0.1576 -0.5357 0.1576c -0.2416,0.1576 -0.4149,0.4884 -0.4149 0.4884c -0.1733,0.3309 -0.2679,0.8561 -0.2679 0.8561c -0.0945,0.5252 -0.0945,1.2605 -0.0945 1.2605c 0.0000,1.4706 0.3624,2.1376 0.3624 2.1376c 0.3624,0.6670 0.9506,0.6670 0.9506 0.6670Z"/></g><defs></defs><g stroke-linejoin="bevel" stroke-opacity="0.0" fill-opacity="1.0" stroke="rgb(0,0,0)" stroke-width="0.0" fill="rgb(0,0,0)" stroke-linecap="butt" stroke-miterlimit="10.0"><path d="M 208.3285,570.0000 ZM 208.7487,569.4853 c 0.7563,-0.7563 1.3445,-1.3655 1.3445 -1.3655c 0.5882,-0.6092 0.9874,-1.1292 0.9874 -1.1292c 0.3992,-0.5200 0.6092,-0.9559 0.6092 -0.9559c 0.2101,-0.4359 0.2101,-0.8456 0.2101 -0.8456c 0.0000,-0.5777 -0.3151,-0.9454 -0.3151 -0.9454c -0.3151,-0.3676 -0.9559,-0.3676 -0.9559 -0.3676c -0.4202,-0.0000 -0.7773,0.2363 -0.7773 0.2363c -0.3571,0.2363 -0.6513,0.5725 -0.6513 0.5725l -0.4937,-0.4937 c 0.4202,-0.4622 0.8929,-0.7405 0.8929 -0.7405c 0.4727,-0.2784 1.1345,-0.2784 1.1345 -0.2784c 0.9349,0.0000 1.4706,0.5410 1.4706 0.5410c 0.5357,0.5410 0.5357,1.4338 0.5357 1.4338c 0.0000,0.4727 -0.2048,0.9506 -0.2048 0.9506c -0.2048,0.4779 -0.5672,0.9874 -0.5672 0.9874c -0.3624,0.5095 -0.8613,1.0609 -0.8613 1.0609c -0.4989,0.5515 -1.0977,1.1712 -1.0977 1.1712c 0.2731,-0.0210 0.5672,-0.0420 0.5672 -0.0420c 0.2941,-0.0210 0.5567,-0.0210 0.5567 -0.0210h 1.9433 v 0.7458 h -4.3277 v -0.5147 ZM 213.5491,570.0000 ZM 214.2319,568.6450 c 0.2941,0.3046 0.6985,0.5357 0.6985 0.5357c 0.4044,0.2311 0.9926,0.2311 0.9926 0.2311c 0.3046,0.0000 0.5725,-0.1103 0.5725 -0.1103c 0.2679,-0.1103 0.4674,-0.3099 0.4674 -0.3099c 0.1996,-0.1996 0.3151,-0.4832 0.3151 -0.4832c 0.1155,-0.2836 0.1155,-0.6303 0.1155 -0.6303c 0.0000,-0.6933 -0.3887,-1.0819 -0.3887 -1.0819c -0.3887,-0.3887 -1.0399,-0.3887 -1.0399 -0.3887c -0.3466,-0.0000 -0.5935,0.1050 -0.5935 0.1050c -0.2468,0.1050 -0.5515,0.3046 -0.5515 0.3046l -0.4622,-0.2941 l 0.2206,-3.2248 h 3.3508 v 0.7458 h -2.5945 l -0.1786,1.9853 c 0.2416,-0.1261 0.4832,-0.1996 0.4832 -0.1996c 0.2416,-0.0735 0.5462,-0.0735 0.5462 -0.0735c 0.4307,0.0000 0.8088,0.1261 0.8088 0.1261c 0.3782,0.1261 0.6618,0.3834 0.6618 0.3834c 0.2836,0.2574 0.4464,0.6513 0.4464 0.6513c 0.1628,0.3939 0.1628,0.9401 0.1628 0.9401c 0.0000,0.5462 -0.1891,0.9664 -0.1891 0.9664c -0.1891,0.4202 -0.5042,0.7090 -0.5042 0.7090c -0.3151,0.2889 -0.7195,0.4412 -0.7195 0.4412c -0.4044,0.1523 -0.8456,0.1523 -0.8456 0.1523c -0.3992,-0.0000 -0.7300,-0.0788 -0.7300 -0.0788c -0.3309,-0.0788 -0.5987,-0.2048 -0.5987 -0.2048c -0.2679,-0.1261 -0.4832,-0.2889 -0.4832 -0.2889c -0.2153,-0.1628 -0.3834,-0.3414 -0.3834 -0.3414ZM 218.7697,570.0000 ZM 221.3852,570.1261 c -1.0189,-0.0000 -1.5861,-0.9034 -1.5861 -0.9034c -0.5672,-0.9034 -0.5672,-2.5945 -0.5672 -2.5945c 0.0000,-1.6912 0.5672,-2.5735 0.5672 -2.5735c 0.5672,-0.8824 1.5861,-0.8824 1.5861 -0.8824c 1.0084,0.0000 1.5756,0.8824 1.5756 0.8824c 0.5672,0.8824 0.5672,2.5735 0.5672 2.5735c 0.0000,1.6912 -0.5672,2.5945 -0.5672 2.5945c -0.5672,0.9034 -1.5756,0.9034 -1.5756 0.9034ZM 221.3852,570.1261 ZM 221.3852,569.4328 c 0.2941,0.0000 0.5305,-0.1628 0.5305 -0.1628c 0.2363,-0.1628 0.4097,-0.5042 0.4097 -0.5042c 0.1733,-0.3414 0.2679,-0.8718 0.2679 -0.8718c 0.0945,-0.5305 0.0945,-1.2658 0.0945 -1.2658c 0.0000,-0.7353 -0.0945,-1.2605 -0.0945 -1.2605c -0.0945,-0.5252 -0.2679,-0.8561 -0.2679 -0.8561c -0.1733,-0.3309 -0.4097,-0.4884 -0.4097 -0.4884c -0.2363,-0.1576 -0.5305,-0.1576 -0.5305 -0.1576c -0.2941,-0.0000 -0.5357,0.1576 -0.5357 0.1576c -0.2416,0.1576 -0.4149,0.4884 -0.4149 0.4884c -0.1733,0.3309 -0.2679,0.8561 -0.2679 0.8561c -0.0945,0.5252 -0.0945,1.2605 -0.0945 1.2605c 0.0000,1.4706 0.3624,2.1376 0.3624 2.1376c 0.3624,0.6670 0.9506,0.6670 0.9506 0.6670Z"/></g><defs></defs><g stroke-linejoin="bevel" stroke-opacity="0.0" fill-opacity="1.0" stroke="rgb(0,0,0)" stroke-width="0.0" fill="rgb(0,0,0)" stroke-linecap="butt" stroke-miterlimit="10.0"><path d="M 396.4259,570.0000 ZM 397.1087,568.6450 c 0.2941,0.3046 0.6985,0.5357 0.6985 0.5357c 0.4044,0.2311 0.9926,0.2311 0.9926 0.2311c 0.3046,0.0000 0.5725,-0.1103 0.5725 -0.1103c 0.2679,-0.1103 0.4674,-0.3099 0.4674 -0.3099c 0.1996,-0.1996 0.3151,-0.4832 0.3151 -0.4832c 0.1155,-0.2836 0.1155,-0.6303 0.1155 -0.6303c 0.0000,-0.6933 -0.3887,-1.0819 -0.3887 -1.0819c -0.3887,-0.3887 -1.0399,-0.3887 -1.0399 -0.3887c -0.3466,-0.0000 -0.5935,0.1050 -0.5935 0.1050c -0.2468,0.1050 -0.5515,0.3046 -0.5515 0.3046l -0.4622,-0.2941 l 0.2206,-3.2248 h 3.3508 v 0.7458 h -2.5945 l -0.1786,1.9853 c 0.2416,-0.1261 0.4832,-0.1996 0.4832 -0.1996c 0.2416,-0.0735 0.5462,-0.0735 0.5462 -0.0735c 0.4307,0.0000 0.8088,0.1261 0.8088 0.1261c 0.3782,0.1261 0.6618,0.3834 0.6618 0.3834c 0.2836,0.2574 0.4464,0.6513 0.4464 0.6513c 0.1628,0.3939 0.1628,0.9401 0.1628 0.9401c 0.0000,0.5462 -0.1891,0.9664 -0.1891 0.9664c -0.1891,0.4202 -0.5042,0.7090 -0.5042 0.7090c -0.3151,0.2889 -0.7195,0.4412 -0.7195 0.4412c -0.4044,0.1523 -0.8456,0.1523 -0.8456 0.1523c -0.3992,-0.0000 -0.7300,-0.0788 -0.7300 -0.0788c -0.3309,-0.0788 -0.5987,-0.2048 -0.5987 -0.2048c -0.2679,-0.1261 -0.4832,-0.2889 -0.4832 -0.2889c -0.2153,-0.1628 -0.3834,-0.3414 -0.3834 -0.3414ZM 401.6465,570.0000 ZM 404.2621,570.1261 c -1.0189,-0.0000 -1.5861,-0.9034 -1.5861 -0.9034c -0.5672,-0.9034 -0.5672,-2.5945 -0.5672 -2.5945c 0.0000,-1.6912 0.5672,-2.5735 0.5672 -2.5735c 0.5672,-0.8824 1.5861,-0.8824 1.5861 -0.8824c 1.0084,0.0000 1.5756,0.8824 1.5756 0.8824c 0.5672,0.8824 0.5672,2.5735 0.5672 2.5735c 0.0000,1.6912 -0.5672,2.5945 -0.5672 2.5945c -0.5672,0.9034 -1.5756,0.9034 -1.5756 0.9034ZM 404.2621,570.1261 ZM 404.2621,569.4328 c 0.2941,0.0000 0.5305,-0.1628 0.5305 -0.1628c 0.2363,-0.1628 0.4097,-0.5042 0.4097 -0.5042c 0.1733,-0.3414 0.2679,-0.8718 0.2679 -0.8718c 0.0945,-0.5305 0.0945,-1.2658 0.0945 -1.2658c 0.0000,-0.7353 -0.0945,-1.2605 -0.0945 -1.2605c -0.0945,-0.5252 -0.2679,-0.8561 -0.2679 -0.8561c -0.1733,-0.3309 -0.4097,-0.4884 -0.4097 -0.4884c -0.2363,-0.1576 -0.5305,-0.1576 -0.5305 -0.1576c -0.2941,-0.0000 -0.5357,0.1576 -0.5357 0.1576c -0.2416,0.1576 -0.4149,0.4884 -0.4149 0.4884c -0.1733,0.3309 -0.2679,0.8561 -0.2679 0.8561c -0.0945,0.5252 -0.0945,1.2605 -0.0945 1.2605c 0.0000,1.4706 0.3624,2.1376 0.3624 2.1376c 0.3624,0.6670 0.9506,0.6670 0.9506 0.6670ZM 406.8671,570.0000 ZM 409.4827,570.1261 c -1.0189,-0.0000 -1.5861,-0.9034 -1.5861 -0.9034c -0.5672,-0.9034 -0.5672,-2.5945 -0.5672 -2.5945c 0.0000,-1.6912 0.5672,-2.5735 0.5672 -2.5735c 0.5672,-0.8824 1.5861,-0.8824 1.5861 -0.8824c 1.0084,0.0000 1.5756,0.8824 1.5756 0.8824c 0.5672,0.8824 0.5672,2.5735 0.5672 2.5735c 0.0000,1.6912 -0.5672,2.5945 -0.5672 2.5945c -0.5672,0.9034 -1.5756,0.9034 -1.5756 0.9034ZM 409.4827,570.1261 ZM 409.4827,569.4328 c 0.2941,0.0000 0.5305,-0.1628 0.5305 -0.1628c 0.2363,-0.1628 0.4097,-0.5042 0.4097 -0.5042c 0.1733,-0.3414 0.2679,-0.8718 0.2679 -0.8718c 0.0945,-0.5305 0.0945,-1.2658 0.0945 -1.2658c 0.0000,-0.7353 -0.0945,-1.2605 -0.0945 -1.2605c -0.0945,-0.5252 -0.2679,-0.8561 -0.2679 -0.8561c -0.1733,-0.3309 -0.4097,-0.4884 -0.4097 -0.4884c -0.2363,-0.1576 -0.5305,-0.1576 -0.5305 -0.1576c -0.2941,-0.0000 -0.5357,0.1576 -0.5357 0.1576c -0.2416,0.1576 -0.4149,0.4884 -0.4149 0.4884c -0.1733,0.3309 -0.2679,0.8561 -0.2679 0.8561c -0.0945,0.5252 -0.0945,1.2605 -0.0945 1.2605c 0.0000,1.4706 0.3624,2.1376 0.3624 2.1376c 0.3624,0.6670 0.9506,0.6670 0.9506 0.6670Z"/></g><defs></defs><g stroke-linejoin="bevel" stroke-opacity="0.0" fill-opacity="1.0" stroke="rgb(0,0,0)" stroke-width="0.0" fill="rgb(0,0,0)" stroke-linecap="butt" stroke-miterlimit="10.0"><path d="M 584.6809,570.0000 ZM 586.5402,570.0000 c 0.0420,-0.9454 0.1681,-1.7332 0.1681 -1.7332c 0.1261,-0.7878 0.3519,-1.4968 0.3519 -1.4968c 0.2258,-0.7090 0.5777,-1.3708 0.5777 -1.3708c 0.3519,-0.6618 0.8456,-1.3550 0.8456 -1.3550h -3.3403 v -0.7458 h 4.3172 v 0.5357 c -0.5987,0.7563 -0.9716,1.4496 -0.9716 1.4496c -0.3729,0.6933 -0.5935,1.4128 -0.5935 1.4128c -0.2206,0.7195 -0.3204,1.5231 -0.3204 1.5231c -0.0998,0.8036 -0.1418,1.7805 -0.1418 1.7805h -0.8929 h 0.0000 ZM 589.9015,570.0000 ZM 590.5843,568.6450 c 0.2941,0.3046 0.6985,0.5357 0.6985 0.5357c 0.4044,0.2311 0.9926,0.2311 0.9926 0.2311c 0.3046,0.0000 0.5725,-0.1103 0.5725 -0.1103c 0.2679,-0.1103 0.4674,-0.3099 0.4674 -0.3099c 0.1996,-0.1996 0.3151,-0.4832 0.3151 -0.4832c 0.1155,-0.2836 0.1155,-0.6303 0.1155 -0.6303c 0.0000,-0.6933 -0.3887,-1.0819 -0.3887 -1.0819c -0.3887,-0.3887 -1.0399,-0.3887 -1.0399 -0.3887c -0.3466,-0.0000 -0.5935,0.1050 -0.5935 0.1050c -0.2468,0.1050 -0.5515,0.3046 -0.5515 0.3046l -0.4622,-0.2941 l 0.2206,-3.2248 h 3.3508 v 0.7458 h -2.5945 l -0.1786,1.9853 c 0.2416,-0.1261 0.4832,-0.1996 0.4832 -0.1996c 0.2416,-0.0735 0.5462,-0.0735 0.5462 -0.0735c 0.4307,0.0000 0.8088,0.1261 0.8088 0.1261c 0.3782,0.1261 0.6618,0.3834 0.6618 0.3834c 0.2836,0.2574 0.4464,0.6513 0.4464 0.6513c 0.1628,0.3939 0.1628,0.9401 0.1628 0.9401c 0.0000,0.5462 -0.1891,0.9664 -0.1891 0.9664c -0.1891,0.4202 -0.5042,0.7090 -0.5042 0.7090c -0.3151,0.2889 -0.7195,0.4412 -0.7195 0.4412c -0.4044,0.1523 -0.8456,0.1523 -0.8456 0.1523c -0.3992,-0.0000 -0.7300,-0.0788 -0.7300 -0.0788c -0.3309,-0.0788 -0.5987,-0.2048 -0.5987 -0.2048c -0.2679,-0.1261 -0.4832,-0.2889 -0.4832 -0.2889c -0.2153,-0.1628 -0.3834,-0.3414 -0.3834 -0.3414ZM 595.1221,570.0000 ZM 597.7377,570.1261 c -1.0189,-0.0000 -1.5861,-0.9034 -1.5861 -0.9034c -0.5672,-0.9034 -0.5672,-2.5945 -0.5672 -2.5945c 0.0000,-1.6912 0.5672,-2.5735 0.5672 -2.5735c 0.5672,-0.8824 1.5861,-0.8824 1.5861 -0.8824c 1.0084,0.0000 1.5756,0.8824 1.5756 0.8824c 0.5672,0.8824 0.5672,2.5735 0.5672 2.5735c 0.0000,1.6912 -0.5672,2.5945 -0.5672 2.5945c -0.5672,0.9034 -1.5756,0.9034 -1.5756 0.9034ZM 597.7377,570.1261 ZM 597.7377,569.4328 c 0.2941,0.0000 0.5305,-0.1628 0.5305 -0.1628c 0.2363,-0.1628 0.4097,-0.5042 0.4097 -0.5042c 0.1733,-0.3414 0.2679,-0.8718 0.2679 -0.8718c 0.0945,-0.5305 0.0945,-1.2658 0.0945 -1.2658c 0.0000,-0.7353 -0.0945,-1.2605 -0.0945 -1.2605c -0.0945,-0.5252 -0.2679,-0.8561 -0.2679 -0.8561c -0.1733,-0.3309 -0.4097,-0.4884 -0.4097 -0.4884c -0.2363,-0.1576 -0.5305,-0.1576 -0.5305 -0.1576c -0.2941,-0.0000 -0.5357,0.1576 -0.5357 0.1576c -0.2416,0.1576 -0.4149,0.4884 -0.4149 0.4884c -0.1733,0.3309 -0.2679,0.8561 -0.2679 0.8561c -0.0945,0.5252 -0.0945,1.2605 -0.0945 1.2605c 0.0000,1.4706 0.3624,2.1376 0.3624 2.1376c 0.3624,0.6670 0.9506,0.6670 0.9506 0.6670Z"/></g><defs></defs><g stroke-linejoin="bevel" stroke-opacity="0.0" fill-opacity="1.0" stroke="rgb(0,0,0)" stroke-width="0.0" fill="rgb(0,0,0)" stroke-linecap="butt" stroke-miterlimit="10.0"><path d="M 770.4097,570.0000 ZM 771.2395,569.2857 h 1.5336 v -4.9370 h -1.2185 v -0.5567 c 0.4622,-0.0840 0.8036,-0.2048 0.8036 -0.2048c 0.3414,-0.1208 0.6145,-0.2889 0.6145 -0.2889h 0.6618 v 5.9874 h 1.3866 v 0.7143 h -3.7815 v -0.7143 ZM 775.6303,570.0000 ZM 778.2458,570.1261 c -1.0189,-0.0000 -1.5861,-0.9034 -1.5861 -0.9034c -0.5672,-0.9034 -0.5672,-2.5945 -0.5672 -2.5945c 0.0000,-1.6912 0.5672,-2.5735 0.5672 -2.5735c 0.5672,-0.8824 1.5861,-0.8824 1.5861 -0.8824c 1.0084,0.0000 1.5756,0.8824 1.5756 0.8824c 0.5672,0.8824 0.5672,2.5735 0.5672 2.5735c 0.0000,1.6912 -0.5672,2.5945 -0.5672 2.5945c -0.5672,0.9034 -1.5756,0.9034 -1.5756 0.9034ZM 778.2458,570.1261 ZM 778.2458,569.4328 c 0.2941,0.0000 0.5305,-0.1628 0.5305 -0.1628c 0.2363,-0.1628 0.4097,-0.5042 0.4097 -0.5042c 0.1733,-0.3414 0.2679,-0.8718 0.2679 -0.8718c 0.0945,-0.5305 0.0945,-1.2658 0.0945 -1.2658c 0.0000,-0.7353 -0.0945,-1.2605 -0.0945 -1.2605c -0.0945,-0.5252 -0.2679,-0.8561 -0.2679 -0.8561c -0.1733,-0.3309 -0.4097,-0.4884 -0.4097 -0.4884c -0.2363,-0.1576 -0.5305,-0.1576 -0.5305 -0.1576c -0.2941,-0.0000 -0.5357,0.1576 -0.5357 0.1576c -0.2416,0.1576 -0.4149,0.4884 -0.4149 0.4884c -0.1733,0.3309 -0.2679,0.8561 -0.2679 0.8561c -0.0945,0.5252 -0.0945,1.2605 -0.0945 1.2605c 0.0000,1.4706 0.3624,2.1376 0.3624 2.1376c 0.3624,0.6670 0.9506,0.6670 0.9506 0.6670ZM 780.8508,570.0000 ZM 783.4664,570.1261 c -1.0189,-0.0000 -1.5861,-0.9034 -1.5861 -0.9034c -0.5672,-0.9034 -0.5672,-2.5945 -0.5672 -2.5945c 0.0000,-1.6912 0.5672,-2.5735 0.5672 -2.5735c 0.5672,-0.8824 1.5861,-0.8824 1.5861 -0.8824c 1.0084,0.0000 1.5756,0.8824 1.5756 0.8824c 0.5672,0.8824 0.5672,2.5735 0.5672 2.5735c 0.0000,1.6912 -0.5672,2.5945 -0.5672 2.5945c -0.5672,0.9034 -1.5756,0.9034 -1.5756 0.9034ZM 783.4664,570.1261 ZM 783.4664,569.4328 c 0.2941,0.0000 0.5305,-0.1628 0.5305 -0.1628c 0.2363,-0.1628 0.4097,-0.5042 0.4097 -0.5042c 0.1733,-0.3414 0.2679,-0.8718 0.2679 -0.8718c 0.0945,-0.5305 0.0945,-1.2658 0.0945 -1.2658c 0.0000,-0.7353 -0.0945,-1.2605 -0.0945 -1.2605c -0.0945,-0.5252 -0.2679,-0.8561 -0.2679 -0.8561c -0.1733,-0.3309 -0.4097,-0.4884 -0.4097 -0.4884c -0.2363,-0.1576 -0.5305,-0.1576 -0.5305 -0.1576c -0.2941,-0.0000 -0.5357,0.1576 -0.5357 0.1576c -0.2416,0.1576 -0.4149,0.4884 -0.4149 0.4884c -0.1733,0.3309 -0.2679,0.8561 -0.2679 0.8561c -0.0945,0.5252 -0.0945,1.2605 -0.0945 1.2605c 0.0000,1.4706 0.3624,2.1376 0.3624 2.1376c 0.3624,0.6670 0.9506,0.6670 0.9506 0.6670ZM 786.0714,570.0000 ZM 788.6870,570.1261 c -1.0189,-0.0000 -1.5861,-0.9034 -1.5861 -0.9034c -0.5672,-0.9034 -0.5672,-2.5945 -0.5672 -2.5945c 0.0000,-1.6912 0.5672,-2.5735 0.5672 -2.5735c 0.5672,-0.8824 1.5861,-0.8824 1.5861 -0.8824c 1.0084,0.0000 1.5756,0.8824 1.5756 0.8824c 0.5672,0.8824 0.5672,2.5735 0.5672 2.5735c 0.0000,1.6912 -0.5672,2.5945 -0.5672 2.5945c -0.5672,0.9034 -1.5756,0.9034 -1.5756 0.9034ZM 788.6870,570.1261 ZM 788.6870,569.4328 c 0.2941,0.0000 0.5305,-0.1628 0.5305 -0.1628c 0.2363,-0.1628 0.4097,-0.5042 0.4097 -0.5042c 0.1733,-0.3414 0.2679,-0.8718 0.2679 -0.8718c 0.0945,-0.5305 0.0945,-1.2658 0.0945 -1.2658c 0.0000,-0.7353 -0.0945,-1.2605 -0.0945 -1.2605c -0.0945,-0.5252 -0.2679,-0.8561 -0.2679 -0.8561c -0.1733,-0.3309 -0.4097,-0.4884 -0.4097 -0.4884c -0.2363,-0.1576 -0.5305,-0.1576 -0.5305 -0.1576c -0.2941,-0.0000 -0.5357,0.1576 -0.5357 0.1576c -0.2416,0.1576 -0.4149,0.4884 -0.4149 0.4884c -0.1733,0.3309 -0.2679,0.8561 -0.2679 0.8561c -0.0945,0.5252 -0.0945,1.2605 -0.0945 1.2605c 0.0000,1.4706 0.3624,2.1376 0.3624 2.1376c 0.3624,0.6670 0.9506,0.6670 0.9506 0.6670Z"/></g><defs></defs><g stroke-linejoin="round" stroke-opacity="1.0" fill-opacity="0.0" stroke="rgb(0,0,255)" stroke-width="0.9999999999999997" fill="rgb(0,0,0)" stroke-linecap="round" stroke-miterlimit="10.0"><path d="M 10.0000,585.0000 h 20.0000 "/></g><defs></defs><g stroke-linejoin="bevel" stroke-opacity="0.0" fill-opacity="1.0" stroke="rgb(0,0,0)" stroke-width="0.0" fill="rgb(0,0,0)" stroke-linecap="butt" stroke-miterlimit="10.0"><path d="M 35.0735,586.6071 ZM 36.0819,582.2059 h -0.7563 v -0.6513 l 0.7983,-0.0525 l 0.1050,-1.4286 h 0.7248 v 1.4286 h 1.3761 v 0.7038 h -1.3761 v 2.8361 c 0.0000,0.4727 0.1733,0.7300 0.1733 0.7300c 0.1733,0.2574 0.6145,0.2574 0.6145 0.2574c 0.1366,0.0000 0.2941,-0.0420 0.2941 -0.0420c 0.1576,-0.0420 0.2836,-0.0945 0.2836 -0.0945l 0.1681,0.6513 c -0.2101,0.0735 -0.4569,0.1313 -0.4569 0.1313c -0.2468,0.0578 -0.4884,0.0578 -0.4884 0.0578c -0.4097,-0.0000 -0.6880,-0.1261 -0.6880 -0.1261c -0.2784,-0.1261 -0.4517,-0.3466 -0.4517 -0.3466c -0.1733,-0.2206 -0.2468,-0.5357 -0.2468 -0.5357c -0.0735,-0.3151 -0.0735,-0.6933 -0.0735 -0.6933v -2.8256 ZM 38.6239,586.6071 ZM 39.9265,580.4517 c -0.2521,-0.0000 -0.4254,-0.1576 -0.4254 -0.1576c -0.1733,-0.1576 -0.1733,-0.3992 -0.1733 -0.3992c 0.0000,-0.2521 0.1733,-0.4044 0.1733 -0.4044c 0.1733,-0.1523 0.4254,-0.1523 0.4254 -0.1523c 0.2521,0.0000 0.4254,0.1523 0.4254 0.1523c 0.1733,0.1523 0.1733,0.4044 0.1733 0.4044c 0.0000,0.2416 -0.1733,0.3992 -0.1733 0.3992c -0.1733,0.1576 -0.4254,0.1576 -0.4254 0.1576ZM 39.9265,580.4517 ZM 39.4853,581.5021 h 0.8613 v 5.1050 h -0.8613 v -5.1050 ZM 41.2080,586.6071 ZM 42.0693,581.5021 h 0.7143 l 0.0735,0.7353 h 0.0315 c 0.3361,-0.3676 0.7300,-0.6145 0.7300 -0.6145c 0.3939,-0.2468 0.8561,-0.2468 0.8561 -0.2468c 0.5882,0.0000 0.9191,0.2574 0.9191 0.2574c 0.3309,0.2574 0.4884,0.7195 0.4884 0.7195c 0.3992,-0.4412 0.8036,-0.7090 0.8036 -0.7090c 0.4044,-0.2679 0.8771,-0.2679 0.8771 -0.2679c 0.7878,0.0000 1.1712,0.5042 1.1712 0.5042c 0.3834,0.5042 0.3834,1.4916 0.3834 1.4916v 3.2353 h -0.8613 v -3.1197 c 0.0000,-0.7248 -0.2311,-1.0452 -0.2311 -1.0452c -0.2311,-0.3204 -0.7143,-0.3204 -0.7143 -0.3204c -0.5777,-0.0000 -1.2815,0.7878 -1.2815 0.7878v 3.6975 h -0.8613 v -3.1197 c 0.0000,-0.7248 -0.2311,-1.0452 -0.2311 -1.0452c -0.2311,-0.3204 -0.7248,-0.3204 -0.7248 -0.3204c -0.5777,-0.0000 -1.2815,0.7878 -1.2815 0.7878v 3.6975 h -0.8613 v -5.1050 ZM 49.9160,586.6071 ZM 50.3992,584.0651 c 0.0000,-0.6303 0.1943,-1.1292 0.1943 -1.1292c 0.1943,-0.4989 0.5147,-0.8456 0.5147 -0.8456c 0.3204,-0.3466 0.7300,-0.5305 0.7300 -0.5305c 0.4097,-0.1838 0.8508,-0.1838 0.8508 -0.1838c 0.4832,0.0000 0.8666,0.1681 0.8666 0.1681c 0.3834,0.1681 0.6408,0.4832 0.6408 0.4832c 0.2574,0.3151 0.3939,0.7563 0.3939 0.7563c 0.1366,0.4412 0.1366,0.9874 0.1366 0.9874c 0.0000,0.2836 -0.0315,0.4727 -0.0315 0.4727h -3.4454 c 0.0525,0.8298 0.5095,1.3130 0.5095 1.3130c 0.4569,0.4832 1.1922,0.4832 1.1922 0.4832c 0.3676,0.0000 0.6775,-0.1103 0.6775 -0.1103c 0.3099,-0.1103 0.5935,-0.2889 0.5935 -0.2889l 0.3046,0.5672 c -0.3361,0.2101 -0.7458,0.3676 -0.7458 0.3676c -0.4097,0.1576 -0.9349,0.1576 -0.9349 0.1576c -0.5147,-0.0000 -0.9611,-0.1838 -0.9611 -0.1838c -0.4464,-0.1838 -0.7773,-0.5252 -0.7773 -0.5252c -0.3309,-0.3414 -0.5200,-0.8351 -0.5200 -0.8351c -0.1891,-0.4937 -0.1891,-1.1239 -0.1891 -1.1239ZM 50.3992,584.0651 ZM 53.9706,583.6765 c 0.0000,-0.7878 -0.3309,-1.2027 -0.3309 -1.2027c -0.3309,-0.4149 -0.9296,-0.4149 -0.9296 -0.4149c -0.2731,-0.0000 -0.5200,0.1103 -0.5200 0.1103c -0.2468,0.1103 -0.4464,0.3151 -0.4464 0.3151c -0.1996,0.2048 -0.3309,0.5042 -0.3309 0.5042c -0.1313,0.2994 -0.1733,0.6880 -0.1733 0.6880h 2.7311 ZM 57.2479,586.6071 ZM 57.7311,584.0651 c 0.0000,-0.6303 0.1943,-1.1292 0.1943 -1.1292c 0.1943,-0.4989 0.5147,-0.8456 0.5147 -0.8456c 0.3204,-0.3466 0.7300,-0.5305 0.7300 -0.5305c 0.4097,-0.1838 0.8508,-0.1838 0.8508 -0.1838c 0.4832,0.0000 0.8666,0.1681 0.8666 0.1681c 0.3834,0.1681 0.6408,0.4832 0.6408 0.4832c 0.2574,0.3151 0.3939,0.7563 0.3939 0.7563c 0.1366,0.4412 0.1366,0.9874 0.1366 0.9874c 0.0000,0.2836 -0.0315,0.4727 -0.0315 0.4727h -3.4454 c 0.0525,0.8298 0.5095,1.3130 0.5095 1.3130c 0.4569,0.4832 1.1922,0.4832 1.1922 0.4832c 0.3676,0.0000 0.6775,-0.1103 0.6775 -0.1103c 0.3099,-0.1103 0.5935,-0.2889 0.5935 -0.2889l 0.3046,0.5672 c -0.3361,0.2101 -0.7458,0.3676 -0.7458 0.3676c -0.4097,0.1576 -0.9349,0.1576 -0.9349 0.1576c -0.5147,-0.0000 -0.9611,-0.1838 -0.9611 -0.1838c -0.4464,-0.1838 -0.7773,-0.5252 -0.7773 -0.5252c -0.3309,-0.3414 -0.5200,-0.8351 -0.5200 -0.8351c -0.1891,-0.4937 -0.1891,-1.1239 -0.1891 -1.1239ZM 57.7311,584.0651 ZM 61.3025,583.6765 c 0.0000,-0.7878 -0.3309,-1.2027 -0.3309 -1.2027c -0.3309,-0.4149 -0.9296,-0.4149 -0.9296 -0.4149c -0.2731,-0.0000 -0.5200,0.1103 -0.5200 0.1103c -0.2468,0.1103 -0.4464,0.3151 -0.4464 0.3151c -0.1996,0.2048 -0.3309,0.5042 -0.3309 0.5042c -0.1313,0.2994 -0.1733,0.6880 -0.1733 0.6880h 2.7311 ZM 62.4580,586.6071 ZM 63.3193,581.5021 h 0.7143 l 0.0735,0.9244 h 0.0315 c 0.2626,-0.4832 0.6355,-0.7668 0.6355 -0.7668c 0.3729,-0.2836 0.8141,-0.2836 0.8141 -0.2836c 0.3046,0.0000 0.5462,0.1050 0.5462 0.1050l -0.1681,0.7563 c -0.1261,-0.0420 -0.2311,-0.0630 -0.2311 -0.0630c -0.1050,-0.0210 -0.2626,-0.0210 -0.2626 -0.0210c -0.3256,-0.0000 -0.6775,0.2626 -0.6775 0.2626c -0.3519,0.2626 -0.6145,0.9139 -0.6145 0.9139v 3.2773 h -0.8613 v -5.1050 ZM 66.1029,586.6071 ZM 66.9643,581.5021 h 0.7143 l 0.0735,0.9244 h 0.0315 c 0.2626,-0.4832 0.6355,-0.7668 0.6355 -0.7668c 0.3729,-0.2836 0.8141,-0.2836 0.8141 -0.2836c 0.3046,0.0000 0.5462,0.1050 0.5462 0.1050l -0.1681,0.7563 c -0.1261,-0.0420 -0.2311,-0.0630 -0.2311 -0.0630c -0.1050,-0.0210 -0.2626,-0.0210 -0.2626 -0.0210c -0.3256,-0.0000 -0.6775,0.2626 -0.6775 0.2626c -0.3519,0.2626 -0.6145,0.9139 -0.6145 0.9139v 3.2773 h -0.8613 v -5.1050 ZM 69.6429,586.6071 ZM 70.1261,584.0651 c 0.0000,-0.6408 0.1943,-1.1397 0.1943 -1.1397c 0.1943,-0.4989 0.5200,-0.8456 0.5200 -0.8456c 0.3256,-0.3466 0.7511,-0.5252 0.7511 -0.5252c 0.4254,-0.1786 0.8981,-0.1786 0.8981 -0.1786c 0.4727,0.0000 0.8981,0.1786 0.8981 0.1786c 0.4254,0.1786 0.7511,0.5252 0.7511 0.5252c 0.3256,0.3466 0.5200,0.8456 0.5200 0.8456c 0.1943,0.4989 0.1943,1.1397 0.1943 1.1397c 0.0000,0.6303 -0.1943,1.1292 -0.1943 1.1292c -0.1943,0.4989 -0.5200,0.8403 -0.5200 0.8403c -0.3256,0.3414 -0.7511,0.5200 -0.7511 0.5200c -0.4254,0.1786 -0.8981,0.1786 -0.8981 0.1786c -0.4727,-0.0000 -0.8981,-0.1786 -0.8981 -0.1786c -0.4254,-0.1786 -0.7511,-0.5200 -0.7511 -0.5200c -0.3256,-0.3414 -0.5200,-0.8403 -0.5200 -0.8403c -0.1943,-0.4989 -0.1943,-1.1292 -0.1943 -1.1292ZM 70.1261,584.0651 ZM 71.0189,584.0651 c 0.0000,0.4412 0.1050,0.7983 0.1050 0.7983c 0.1050,0.3571 0.2994,0.6145 0.2994 0.6145c 0.1943,0.2574 0.4674,0.3992 0.4674 0.3992c 0.2731,0.1418 0.5987,0.1418 0.5987 0.1418c 0.3256,0.0000 0.5987,-0.1418 0.5987 -0.1418c 0.2731,-0.1418 0.4674,-0.3992 0.4674 -0.3992c 0.1943,-0.2574 0.2994,-0.6145 0.2994 -0.6145c 0.1050,-0.3571 0.1050,-0.7983 0.1050 -0.7983c 0.0000,-0.4412 -0.1050,-0.8036 -0.1050 -0.8036c -0.1050,-0.3624 -0.2994,-0.6250 -0.2994 -0.6250c -0.1943,-0.2626 -0.4674,-0.4044 -0.4674 -0.4044c -0.2731,-0.1418 -0.5987,-0.1418 -0.5987 -0.1418c -0.3256,-0.0000 -0.5987,0.1418 -0.5987 0.1418c -0.2731,0.1418 -0.4674,0.4044 -0.4674 0.4044c -0.1943,0.2626 -0.2994,0.6250 -0.2994 0.6250c -0.1050,0.3624 -0.1050,0.8036 -0.1050 0.8036ZM 75.3361,586.6071 ZM 76.1975,581.5021 h 0.7143 l 0.0735,0.9244 h 0.0315 c 0.2626,-0.4832 0.6355,-0.7668 0.6355 -0.7668c 0.3729,-0.2836 0.8141,-0.2836 0.8141 -0.2836c 0.3046,0.0000 0.5462,0.1050 0.5462 0.1050l -0.1681,0.7563 c -0.1261,-0.0420 -0.2311,-0.0630 -0.2311 -0.0630c -0.1050,-0.0210 -0.2626,-0.0210 -0.2626 -0.0210c -0.3256,-0.0000 -0.6775,0.2626 -0.6775 0.2626c -0.3519,0.2626 -0.6145,0.9139 -0.6145 0.9139v 3.2773 h -0.8613 v -5.1050 Z"/></g></svg>