<?xml version="1.0" encoding="UTF-8"?>
<!DOCTYPE svg PUBLIC "-//W3C//DTD SVG 1.1//EN"
    "http://www.w3.org/Graphics/SVG/1.1/DTD/svg11.dtd"><svg xmlns="http://www.w3.org/2000/svg" height="600.0000" stroke-opacity="1" viewBox="0 0 800 600" font-size="1" width="800.0000" xmlns:xlink="http://www.w3.org/1999/xlink" stroke="rgb(0,0,0)" version="1.1"><defs></defs><defs></defs><g stroke-linejoin="bevel" stroke-opacity="0.0" fill-opacity="1.0" stroke="rgb(0,0,0)" stroke-width="0.0" fill="rgb(255,255,255)" stroke-linecap="butt" stroke-miterlimit="10.0"><path d="M 0.0000,0.0000 v 600.0000 h 800.0000 v -600.0000 Z"/></g><defs></defs><g stroke-linejoin="miter" stroke-opacity="1.0" fill-opacity="0.0" stroke="rgb(211,211,211)" stroke-width="0.9999999999999997" fill="rgb(0,0,0)" stroke-dashoffset="0.0" stroke-linecap="butt" stroke-miterlimit="10.0" stroke-dasharray="4.999999999999998,4.999999999999998"><path d="M 35.3887,15.0000 v 535.0000 "/></g><defs></defs><g stroke-linejoin="miter" stroke-opacity="1.0" fill-opacity="0.0" stroke="rgb(211,211,211)" stroke-width="0.9999999999999997" fill="rgb(0,0,0)" stroke-dashoffset="0.0" stroke-linecap="butt" stroke-miterlimit="10.0" stroke-dasharray="4.999999999999998,4.999999999999998"><path d="M 221.5927,15.0000 v 535.0000 "/></g><defs></defs><g stroke-linejoin="miter" stroke-opacity="1.0" fill-opacity="0.0" stroke="rgb(211,211,211)" stroke-width="0.9999999999999997" fill="rgb(0,0,0)" stroke-dashoffset="0.0" stroke-linecap="butt" stroke-miterlimit="10.0" stroke-dasharray="4.999999999999998,4.999999999999998"><path d="M 407.7967,15.0000 v 535.0000 "/></g><defs></defs><g stroke-linejoin="miter" stroke-opacity="1.0" fill-opacity="0.0" stroke="rgb(211,211,211)" stroke-width="0.9999999999999997" fill="rgb(0,0,0)" stroke-dashoffset="0.0" stroke-linecap="butt" stroke-miterlimit="10.0" stroke-dasharray="4.999999999999998,4.999999999999998"><path d="M 594.0008,15.0000 v 535.0000 "/></g><defs></defs><g stroke-linejoin="miter" stroke-opacity="1.0" fill-opacity="0.0" stroke="rgb(211,211,211)" stroke-width="0.9999999999999997" fill="rgb(0,0,0)" stroke-dashoffset="0.0" stroke-linecap="butt" stroke-miterlimit="10.0" stroke-dasharray="4.999999999999998,4.999999999999998"><path d="M 780.2048,15.0000 v 535.0000 "/></g><defs></defs><g stroke-linejoin="miter" stroke-opacity="1.0" fill-opacity="0.0" stroke="rgb(211,211,211)" stroke-width="0.9999999999999997" fill="rgb(0,0,0)" stroke-dashoffset="0.0" stroke-linecap="butt" stroke-miterlimit="10.0" stroke-dasharray="4.999999999999998,4.999999999999998"><path d="M 35.3887,550.0000 h 744.8162 "/></g><defs></defs><g stroke-linejoin="miter" stroke-opacity="1.0" fill-opacity="0.0" stroke="rgb(211,211,211)" stroke-width="0.9999999999999997" fill="rgb(0,0,0)" stroke-dashoffset="0.0" stroke-linecap="butt" stroke-miterlimit="10.0" stroke-dasharray="4.999999999999998,4.999999999999998"><path d="M 35.3887,416.2500 h 744.8162 "/></g><defs></defs><g stroke-linejoin="miter" stroke-opacity="1.0" fill-opacity="0.0" stroke="rgb(211,211,211)" stroke-width="0.9999999999999997" fill="rgb(0,0,0)" stroke-dashoffset="0.0" stroke-linecap="butt" stroke-miterlimit="10.0" stroke-dasharray="4.999999999999998,4.999999999999998"><path d="M 35.3887,282.5000 h 744.8162 "/></g><defs></defs><g stroke-linejoin="miter" stroke-opacity="1.0" fill-opacity="0.0" stroke="rgb(211,211,211)" stroke-width="0.9999999999999997" fill="rgb(0,0,0)" stroke-dashoffset="0.0" stroke-linecap="butt" stroke-miterlimit="10.0" stroke-dasharray="4.999999999999998,4.999999999999998"><path d="M 35.3887,148.7500 h 744.8162 "/></g><defs></defs><g stroke-linejoin="miter" stroke-opacity="1.0" fill-opacity="0.0" stroke="rgb(211,211,211)" stroke-width="0.9999999999999997" fill="rgb(0,0,0)" stroke-dashoffset="0.0" stroke-linecap="butt" stroke-miterlimit="10.0" stroke-dasharray="4.999999999999998,4.999999999999998"><path d="M 35.3887,15.0000 h 744.8162 "/></g><defs></defs><g stroke-linejoin="round" stroke-opacity="1.0" fill-opacity="0.0" stroke="rgb(0,0,255)" stroke-width="0.9999999999999997" fill="rgb(0,0,0)" stroke-linecap="round" stroke-miterlimit="10.0"><defs><clipPath id="myClip1"><path d="M 35.3887,15.0000 v 535.0000 h 744.8162 v -535.0000 Z"/></clipPath></defs><g clip-path="url(#myClip1)"><path d="M 36.1335,363.3063 l 0.7448,113.6400 l 0.7448,-205.0177 l 0.7448,-72.0603 l 0.7448,42.0774 l 0.7448,-17.2119 l 0.7448,-100.4727 l 0.7448,37.0395 l 0.7448,-101.0953 l 0.7448,221.4765 l 0.7448,-80.5436 l 0.7448,278.5720 l 0.7448,-343.0539 l 0.7448,96.5869 l 0.7448,291.0994 l 0.7448,-210.7521 l 0.7448,-199.9267 l 0.7448,220.2420 l 0.7448,-171.8635 l 0.7448,273.9453 l 0.7448,-269.0452 l 0.7448,112.3134 l 0.7448,38.7962 l 0.7448,-166.9351 l 0.7448,340.2595 l 0.7448,16.3899 l 0.7448,-289.0634 l 0.7448,83.0112 l 0.7448,-254.3227 l 0.7448,-9.0313 l 0.7448,386.5011 l 0.7448,-193.8805 l 0.7448,63.9864 l 0.7448,-213.3514 l 0.7448,83.7632 l 0.7448,272.2089 l 0.7448,-193.5549 l 0.7448,51.9004 l 0.7448,12.9257 l 0.7448,-126.7549 l 0.7448,267.0368 l 0.7448,67.3525 l 0.7448,-245.0646 l 0.7448,50.1349 l 0.7448,98.6332 l 0.7448,-72.7277 l 0.7448,-225.6775 l 0.7448,-85.1182 l 0.7448,299.5422 l 0.7448,-54.2962 l 0.7448,23.4764 l 0.7448,-64.1830 l 0.7448,153.5888 l 0.7448,-20.6296 l 0.7448,35.1141 l 0.7448,-377.6923 l 0.7448,341.2796 l 0.7448,-245.0361 l 0.7448,369.6866 l 0.7448,-53.7684 l 0.7448,-171.3744 l 0.7448,106.9098 l 0.7448,-65.8090 l 0.7448,-202.8695 l 0.7448,191.3437 l 0.7448,109.0076 l 0.7448,-376.3382 l 0.7448,125.6672 l 0.7448,-87.0292 l 0.7448,279.5753 l 0.7448,-28.5287 l 0.7448,189.8334 l 0.7448,-456.8023 l 0.7448,420.8310 l 0.7448,-67.7977 l 0.7448,-289.6666 l 0.7448,373.7712 l 0.7448,-447.1693 l 0.7448,188.8081 l 0.7448,-120.5702 l 0.7448,9.9336 l 0.7448,-55.0247 l 0.7448,293.3495 l 0.7448,-60.3970 l 0.7448,26.3966 l 0.7448,-5.2919 l 0.7448,0.3868 l 0.7448,-189.2956 l 0.7448,38.1391 l 0.7448,131.3222 l 0.7448,-180.6374 l 0.7448,92.6490 l 0.7448,-96.9556 l 0.7448,3.6860 l 0.7448,233.6018 l 0.7448,-171.0343 l 0.7448,254.1590 l 0.7448,-317.5305 l 0.7448,408.4572 l 0.7448,-404.7301 l 0.7448,-55.3821 l 0.7448,300.9769 l 0.7448,135.7829 l 0.7448,-173.4599 l 0.7448,71.8706 l 0.7448,24.2071 l 0.7448,-352.0845 l 0.7448,452.8440 l 0.7448,-218.6758 l 0.7448,-281.7802 l 0.7448,39.0793 l 0.7448,35.2246 l 0.7448,146.9666 l 0.7448,247.0376 l 0.7448,-436.8322 l 0.7448,-9.6192 l 0.7448,102.1960 l 0.7448,294.7942 l 0.7448,-343.6062 l 0.7448,119.3975 l 0.7448,156.6657 l 0.7448,67.3188 l 0.7448,-183.5806 l 0.7448,143.4094 l 0.7448,-115.3637 l 0.7448,121.4829 l 0.7448,-324.7757 l 0.7448,252.4407 l 0.7448,131.0079 l 0.7448,-254.0845 l 0.7448,93.3183 l 0.7448,-192.6229 l 0.7448,378.3774 l 0.7448,22.7109 l 0.7448,-57.5073 l 0.7448,-360.9177 l 0.7448,-8.5545 l 0.7448,-61.2954 l 0.7448,293.3094 l 0.7448,-267.2916 l 0.7448,35.2408 l 0.7448,256.8829 l 0.7448,-163.9375 l 0.7448,72.9834 l 0.7448,242.1837 l 0.7448,-432.9090 l 0.7448,179.7554 l 0.7448,135.2668 l 0.7448,-59.3063 l 0.7448,105.9716 l 0.7448,-355.7517 l 0.7448,216.1325 l 0.7448,81.4983 l 0.7448,132.1208 l 0.7448,-423.7536 l 0.7448,64.0150 l 0.7448,257.2983 l 0.7448,-117.4404 l 0.7448,-38.6213 l 0.7448,-193.4134 l 0.7448,102.3263 l 0.7448,354.2574 l 0.7448,-429.9181 l 0.7448,14.1809 l 0.7448,268.7300 l 0.7448,52.2780 l 0.7448,15.1696 l 0.7448,-311.4772 l 0.7448,354.5058 l 0.7448,-408.5552 l 0.7448,394.3103 l 0.7448,-320.5906 l 0.7448,392.3218 l 0.7448,-172.7293 l 0.7448,-203.3991 l 0.7448,-58.7435 l 0.7448,279.9187 l 0.7448,-122.8899 l 0.7448,262.7957 l 0.7448,-276.6862 l 0.7448,107.9042 l 0.7448,61.4405 l 0.7448,19.2195 l 0.7448,-178.0317 l 0.7448,-196.2470 l 0.7448,313.0847 l 0.7448,-4.0714 l 0.7448,84.4923 l 0.7448,-109.4535 l 0.7448,77.1082 l 0.7448,-236.7827 l 0.7448,2.0203 l 0.7448,274.1696 l 0.7448,-244.1823 l 0.7448,-159.8120 l 0.7448,471.0251 l 0.7448,-114.4346 l 0.7448,15.1781 l 0.7448,-149.5455 l 0.7448,26.9482 l 0.7448,-202.3975 l 0.7448,282.9332 l 0.7448,81.0663 l 0.7448,-161.6146 l 0.7448,-270.9818 l 0.7448,189.6425 l 0.7448,293.5671 l 0.7448,-469.7943 l 0.7448,317.1042 l 0.7448,-32.0626 l 0.7448,-244.8297 l 0.7448,139.6086 l 0.7448,37.2411 l 0.7448,63.9640 l 0.7448,-157.0954 l 0.7448,-31.9979 l 0.7448,-46.3315 l 0.7448,448.7181 l 0.7448,-291.3525 l 0.7448,-20.5945 l 0.7448,90.6625 l 0.7448,78.7881 l 0.7448,-287.2662 l 0.7448,180.7296 l 0.7448,-48.6752 l 0.7448,-24.1739 l 0.7448,41.3856 l 0.7448,-3.8930 l 0.7448,128.5129 l 0.7448,-84.7536 l 0.7448,95.7910 l 0.7448,-2.9852 l 0.7448,-356.2823 l 0.7448,422.3827 l 0.7448,-364.0581 l 0.7448,382.2893 l 0.7448,-276.9254 l 0.7448,328.5165 l 0.7448,-481.7653 l 0.7448,263.4059 l 0.7448,203.2930 l 0.7448,-427.7415 l 0.7448,99.3743 l 0.7448,19.1107 l 0.7448,105.3468 l 0.7448,-269.1900 l 0.7448,160.7920 l 0.7448,-168.4483 l 0.7448,339.4002 l 0.7448,-7.6218 l 0.7448,-284.3368 l 0.7448,364.5781 l 0.7448,-62.4319 l 0.7448,5.4537 l 0.7448,-167.4454 l 0.7448,-11.3859 l 0.7448,309.8659 l 0.7448,-292.6829 l 0.7448,-22.4159 l 0.7448,-74.8552 l 0.7448,-82.2352 l 0.7448,1.5936 l 0.7448,416.2632 l 0.7448,-240.1844 l 0.7448,179.8899 l 0.7448,-216.9314 l 0.7448,28.0586 l 0.7448,31.8659 l 0.7448,-162.0069 l 0.7448,175.4069 l 0.7448,137.1597 l 0.7448,-147.3133 l 0.7448,-63.4601 l 0.7448,72.9467 l 0.7448,168.4680 l 0.7448,-235.2031 l 0.7448,289.2430 l 0.7448,-418.7898 l 0.7448,334.2787 l 0.7448,69.4044 l 0.7448,-426.9718 l 0.7448,434.0684 l 0.7448,-28.9136 l 0.7448,77.9578 l 0.7448,9.6940 l 0.7448,-384.0650 l 0.7448,271.6758 l 0.7448,-279.5822 l 0.7448,151.3595 l 0.7448,-97.9892 l 0.7448,199.0660 l 0.7448,-6.6501 l 0.7448,109.2779 l 0.7448,-82.4062 l 0.7448,-285.9670 l 0.7448,313.8280 l 0.7448,6.2911 l 0.7448,-344.7224 l 0.7448,189.1814 l 0.7448,66.3834 l 0.7448,5.9934 l 0.7448,-270.1404 l 0.7448,-43.9742 l 0.7448,-11.9798 l 0.7448,11.5000 l 0.7448,166.0995 l 0.7448,-151.3960 l 0.7448,348.2490 l 0.7448,-77.2383 l 0.7448,-282.8682 l 0.7448,281.7555 l 0.7448,166.1291 l 0.7448,-65.9692 l 0.7448,-143.5247 l 0.7448,-8.9049 l 0.7448,-187.0888 l 0.7448,363.3497 l 0.7448,25.4205 l 0.7448,21.5565 l 0.7448,-244.1027 l 0.7448,203.5327 l 0.7448,-284.4212 l 0.7448,255.3679 l 0.7448,-35.9884 l 0.7448,-22.2151 l 0.7448,-285.4679 l 0.7448,110.7641 l 0.7448,-20.4480 l 0.7448,169.0308 l 0.7448,-187.4552 l 0.7448,354.4366 l 0.7448,-34.3581 l 0.7448,53.0547 l 0.7448,-500.3618 l 0.7448,20.3166 l 0.7448,349.0717 l 0.7448,-247.9887 l 0.7448,240.2213 l 0.7448,-265.1452 l 0.7448,105.5042 l 0.7448,21.5058 l 0.7448,175.5916 l 0.7448,-244.8602 l 0.7448,222.8410 l 0.7448,-119.8830 l 0.7448,-204.1308 l 0.7448,361.4023 l 0.7448,-269.8594 l 0.7448,256.1266 l 0.7448,-188.7233 l 0.7448,177.7019 l 0.7448,-165.1061 l 0.7448,117.3460 l 0.7448,-215.1178 l 0.7448,221.1095 l 0.7448,-295.2355 l 0.7448,190.0730 l 0.7448,-36.7180 l 0.7448,119.2606 l 0.7448,-192.1372 l 0.7448,-42.5849 l 0.7448,179.2230 l 0.7448,-273.0013 l 0.7448,118.3449 l 0.7448,39.9534 l 0.7448,338.5119 l 0.7448,-483.1645 l 0.7448,246.9082 l 0.7448,114.9734 l 0.7448,-29.7987 l 0.7448,-325.9272 l 0.7448,123.2142 l 0.7448,358.2300 l 0.7448,-3.7163 l 0.7448,-440.2326 l 0.7448,205.8411 l 0.7448,58.4095 l 0.7448,-236.0029 l 0.7448,-3.6398 l 0.7448,375.6922 l 0.7448,37.7568 l 0.7448,-327.1868 l 0.7448,-105.6107 l 0.7448,199.9858 l 0.7448,235.2323 l 0.7448,-404.2632 l 0.7448,47.7257 l 0.7448,209.1609 l 0.7448,18.2084 l 0.7448,-317.7867 l 0.7448,-33.3077 l 0.7448,79.8612 l 0.7448,80.0143 l 0.7448,108.0260 l 0.7448,192.0431 l 0.7448,-159.8845 l 0.7448,98.8882 l 0.7448,27.7484 l 0.7448,-429.8332 l 0.7448,232.2666 l 0.7448,-79.4207 l 0.7448,56.7698 l 0.7448,235.9985 l 0.7448,-70.4814 l 0.7448,-268.9004 l 0.7448,293.9779 l 0.7448,-362.3751 l 0.7448,36.1755 l 0.7448,46.4484 l 0.7448,-118.7675 l 0.7448,176.8554 l 0.7448,31.0584 l 0.7448,2.0729 l 0.7448,106.4739 l 0.7448,-280.3114 l 0.7448,-27.2243 l 0.7448,311.1562 l 0.7448,-142.8556 l 0.7448,-37.3970 l 0.7448,124.3028 l 0.7448,-188.5623 l 0.7448,-36.6442 l 0.7448,171.7149 l 0.7448,-145.9470 l 0.7448,-22.1536 l 0.7448,312.9925 l 0.7448,-242.8950 l 0.7448,-39.0429 l 0.7448,278.5142 l 0.7448,-192.8998 l 0.7448,153.5889 l 0.7448,-16.3398 l 0.7448,105.7670 l 0.7448,-206.2094 l 0.7448,232.5383 l 0.7448,-241.7532 l 0.7448,281.6664 l 0.7448,-252.1070 l 0.7448,230.8586 l 0.7448,-442.0112 l 0.7448,177.0657 l 0.7448,1.9092 l 0.7448,76.4959 l 0.7448,197.9531 l 0.7448,-395.8616 l 0.7448,-65.4971 l 0.7448,30.2787 l 0.7448,192.5474 l 0.7448,156.2430 l 0.7448,-212.0931 l 0.7448,87.0642 l 0.7448,202.6800 l 0.7448,-235.6203 l 0.7448,-177.1190 l 0.7448,271.3888 l 0.7448,-75.9551 l 0.7448,248.9428 l 0.7448,-355.4840 l 0.7448,-56.2342 l 0.7448,121.2704 l 0.7448,140.1176 l 0.7448,-328.7008 l 0.7448,321.7540 l 0.7448,-302.8448 l 0.7448,-1.0183 l 0.7448,-41.0168 l 0.7448,389.6352 l 0.7448,92.3274 l 0.7448,-397.8251 l 0.7448,257.5700 l 0.7448,54.9752 l 0.7448,-311.4749 l 0.7448,1.2511 l 0.7448,31.6522 l 0.7448,303.7891 l 0.7448,-173.8009 l 0.7448,23.2970 l 0.7448,53.0915 l 0.7448,-177.9898 l 0.7448,277.9044 l 0.7448,-140.5182 l 0.7448,-162.2232 l 0.7448,-112.1228 l 0.7448,425.6341 l 0.7448,-270.6559 l 0.7448,176.7803 l 0.7448,-215.0807 l 0.7448,261.2712 l 0.7448,0.4197 l 0.7448,-258.4932 l 0.7448,138.0295 l 0.7448,-224.2533 l 0.7448,434.5767 l 0.7448,-411.4089 l 0.7448,-51.8798 l 0.7448,339.2761 l 0.7448,-286.5757 l 0.7448,193.4423 l 0.7448,-188.7035 l 0.7448,-6.2781 l 0.7448,233.9321 l 0.7448,164.1207 l 0.7448,-408.9958 l 0.7448,433.1912 l 0.7448,-281.8333 l 0.7448,255.0194 l 0.7448,-160.3236 l 0.7448,-106.4099 l 0.7448,61.6200 l 0.7448,79.9757 l 0.7448,-169.2241 l 0.7448,-58.3333 l 0.7448,272.8085 l 0.7448,-102.6573 l 0.7448,-154.1094 l 0.7448,228.8367 l 0.7448,13.7543 l 0.7448,-259.8058 l 0.7448,84.1818 l 0.7448,312.2083 l 0.7448,-209.9842 l 0.7448,28.8382 l 0.7448,170.9940 l 0.7448,-138.9677 l 0.7448,-288.0116 l 0.7448,-13.1949 l 0.7448,115.2379 l 0.7448,-74.3737 l 0.7448,169.5473 l 0.7448,140.7875 l 0.7448,-223.7192 l 0.7448,-108.1017 l 0.7448,135.7012 l 0.7448,230.9751 l 0.7448,-235.3474 l 0.7448,-19.1128 l 0.7448,33.1056 l 0.7448,216.5827 l 0.7448,-30.9267 l 0.7448,-310.0318 l 0.7448,124.5036 l 0.7448,-129.7737 l 0.7448,180.1558 l 0.7448,53.2212 l 0.7448,84.2951 l 0.7448,-12.0297 l 0.7448,-195.0650 l 0.7448,-180.8372 l 0.7448,202.1087 l 0.7448,-160.8818 l 0.7448,334.9951 l 0.7448,35.1855 l 0.7448,-126.2970 l 0.7448,-168.0192 l 0.7448,172.2972 l 0.7448,-125.3825 l 0.7448,309.2569 l 0.7448,-378.2867 l 0.7448,232.3670 l 0.7448,34.8688 l 0.7448,24.9944 l 0.7448,-114.2158 l 0.7448,-12.2415 l 0.7448,100.5882 l 0.7448,21.1743 l 0.7448,-346.7869 l 0.7448,344.1245 l 0.7448,-327.1003 l 0.7448,207.8366 l 0.7448,77.2082 l 0.7448,-313.0844 l 0.7448,113.4356 l 0.7448,81.5158 l 0.7448,143.0048 l 0.7448,-214.3153 l 0.7448,-92.3533 l 0.7448,-73.9818 l 0.7448,458.5639 l 0.7448,-428.6291 l 0.7448,306.3019 l 0.7448,-255.1163 l 0.7448,235.6100 l 0.7448,84.8445 l 0.7448,-390.7578 l 0.7448,324.0212 l 0.7448,-45.9788 l 0.7448,33.7328 l 0.7448,-172.6978 l 0.7448,350.7031 l 0.7448,-167.0083 l 0.7448,-99.8854 l 0.7448,-169.0456 l 0.7448,242.2352 l 0.7448,-71.9162 l 0.7448,-155.1364 l 0.7448,71.7440 l 0.7448,307.3144 l 0.7448,4.0172 l 0.7448,-379.8090 l 0.7448,-21.2107 l 0.7448,327.9629 l 0.7448,-291.4892 l 0.7448,254.1597 l 0.7448,-117.0019 l 0.7448,-172.6826 l 0.7448,189.8589 l 0.7448,96.3140 l 0.7448,-18.9641 l 0.7448,-216.3591 l 0.7448,147.3025 l 0.7448,-93.7409 l 0.7448,24.7628 l 0.7448,132.5246 l 0.7448,-297.4203 l 0.7448,416.7340 l 0.7448,-347.3323 l 0.7448,57.1897 l 0.7448,-15.4775 l 0.7448,-25.9365 l 0.7448,160.3092 l 0.7448,-188.9440 l 0.7448,315.1130 l 0.7448,-4.1904 l 0.7448,74.4215 l 0.7448,-258.4960 l 0.7448,-109.7241 l 0.7448,-93.9166 l 0.7448,144.2446 l 0.7448,192.7852 l 0.7448,-270.3916 l 0.7448,151.9578 l 0.7448,146.8383 l 0.7448,-151.3360 l 0.7448,-189.9619 l 0.7448,357.4444 l 0.7448,-94.8844 l 0.7448,-188.8399 l 0.7448,178.4522 l 0.7448,-211.0801 l 0.7448,307.9943 l 0.7448,-19.7006 l 0.7448,-35.4401 l 0.7448,4.4464 l 0.7448,69.2801 l 0.7448,-191.2496 l 0.7448,292.0798 l 0.7448,-55.2678 l 0.7448,-263.4229 l 0.7448,-169.9592 l 0.7448,198.9763 l 0.7448,-94.4524 l 0.7448,194.6805 l 0.7448,154.5582 l 0.7448,-29.6872 l 0.7448,-365.4629 l 0.7448,327.5042 l 0.7448,-111.0021 l 0.7448,-116.3703 l 0.7448,-31.9495 l 0.7448,-99.8971 l 0.7448,213.9361 l 0.7448,-91.3289 l 0.7448,21.6731 l 0.7448,-11.3267 l 0.7448,-170.5996 l 0.7448,389.0891 l 0.7448,-310.0305 l 0.7448,417.5792 l 0.7448,-44.7897 l 0.7448,-278.8870 l 0.7448,224.6273 l 0.7448,-311.2288 l 0.7448,245.2105 l 0.7448,58.5204 l 0.7448,-140.8874 l 0.7448,190.7596 l 0.7448,-346.8286 l 0.7448,277.8572 l 0.7448,-364.5736 l 0.7448,208.4427 l 0.7448,174.3286 l 0.7448,-213.6980 l 0.7448,-90.4273 l 0.7448,331.6472 l 0.7448,-306.0654 l 0.7448,171.0185 l 0.7448,-253.6474 l 0.7448,22.0003 l 0.7448,51.9098 l 0.7448,236.9237 l 0.7448,-308.9676 l 0.7448,80.0026 l 0.7448,-18.0621 l 0.7448,72.0755 l 0.7448,149.3250 l 0.7448,110.7829 l 0.7448,-220.9391 l 0.7448,232.3086 l 0.7448,-141.5252 l 0.7448,14.2604 l 0.7448,-38.0990 l 0.7448,182.2721 l 0.7448,-288.5070 l 0.7448,342.4184 l 0.7448,-227.7891 l 0.7448,6.9676 l 0.7448,62.5964 l 0.7448,-58.6471 l 0.7448,-4.6374 l 0.7448,-26.9293 l 0.7448,-142.6248 l 0.7448,313.8828 l 0.7448,-320.6484 l 0.7448,363.4886 l 0.7448,-267.5636 l 0.7448,11.6913 l 0.7448,275.4967 l 0.7448,-175.4471 l 0.7448,-296.3275 l 0.7448,138.2121 l 0.7448,329.7428 l 0.7448,-423.0208 l 0.7448,15.6136 l 0.7448,265.8708 l 0.7448,-28.4837 l 0.7448,-245.2864 l 0.7448,55.5147 l 0.7448,323.2845 l 0.7448,-202.5681 l 0.7448,-37.6279 l 0.7448,-6.9688 l 0.7448,175.1496 l 0.7448,-215.6530 l 0.7448,165.6563 l 0.7448,-56.9137 l 0.7448,139.6929 l 0.7448,-20.3975 l 0.7448,-200.1474 l 0.7448,140.8973 l 0.7448,-157.7551 l 0.7448,-75.7203 l 0.7448,36.4890 l 0.7448,141.6005 l 0.7448,-71.1708 l 0.7448,11.3794 l 0.7448,154.4500 l 0.7448,10.5080 l 0.7448,-47.4063 l 0.7448,-46.3859 l 0.7448,-26.7571 l 0.7448,-0.5265 l 0.7448,-59.5849 l 0.7448,-65.1655 l 0.7448,356.5633 l 0.7448,-41.9887 l 0.7448,-443.6564 l 0.7448,69.4141 l 0.7448,125.9295 l 0.7448,-57.7122 l 0.7448,49.7552 l 0.7448,-148.1501 l 0.7448,158.3266 l 0.7448,185.0157 l 0.7448,-46.6994 l 0.7448,-60.8066 l 0.7448,109.3350 l 0.7448,-17.6090 l 0.7448,-119.3450 l 0.7448,250.9243 l 0.7448,-275.8168 l 0.7448,-167.5275 l 0.7448,35.4073 l 0.7448,289.2935 l 0.7448,-78.4271 l 0.7448,-175.5211 l 0.7448,291.3280 l 0.7448,-268.6899 l 0.7448,56.7328 l 0.7448,113.4793 l 0.7448,-76.3975 l 0.7448,179.0439 l 0.7448,-420.6364 l 0.7448,310.7628 l 0.7448,-1.6456 l 0.7448,-99.4458 l 0.7448,-88.0204 l 0.7448,-58.6815 l 0.7448,114.8687 l 0.7448,80.6250 l 0.7448,20.2767 l 0.7448,-284.7128 l 0.7448,281.1384 l 0.7448,-10.8056 l 0.7448,-232.5887 l 0.7448,-27.1189 l 0.7448,452.7363 l 0.7448,-51.4468 l 0.7448,45.7147 l 0.7448,-435.7744 l 0.7448,110.0660 l 0.7448,259.9733 l 0.7448,-200.3199 l 0.7448,14.4964 l 0.7448,-69.1472 l 0.7448,52.6047 l 0.7448,16.1097 l 0.7448,-181.6905 l 0.7448,92.6715 l 0.7448,118.4298 l 0.7448,197.6095 l 0.7448,69.1674 l 0.7448,-58.8635 l 0.7448,-365.3730 l 0.7448,318.5741 l 0.7448,-220.7799 l 0.7448,-43.3413 l 0.7448,268.7547 l 0.7448,-248.8776 l 0.7448,-153.4824 l 0.7448,446.8459 l 0.7448,-403.1542 l 0.7448,246.4522 l 0.7448,19.1650 l 0.7448,-39.5658 l 0.7448,-184.4228 l 0.7448,-63.7832 l 0.7448,284.4184 l 0.7448,196.1316 l 0.7448,-467.3741 l 0.7448,135.7462 l 0.7448,73.5972 l 0.7448,70.4697 l 0.7448,-11.2524 l 0.7448,-188.6944 l 0.7448,75.2072 l 0.7448,148.5949 l 0.7448,-83.1136 l 0.7448,-40.9791 l 0.7448,139.9696 l 0.7448,89.5220 l 0.7448,-76.2843 l 0.7448,-63.6747 l 0.7448,183.4034 l 0.7448,-8.3022 l 0.7448,-66.9123 l 0.7448,25.1808 l 0.7448,-20.3647 l 0.7448,-270.6751 l 0.7448,-54.1486 l 0.7448,89.8845 l 0.7448,134.7187 l 0.7448,-150.3910 l 0.7448,-71.5049 l 0.7448,354.7059 l 0.7448,-246.3482 l 0.7448,-103.1441 l 0.7448,247.0117 l 0.7448,-164.1134 l 0.7448,259.2756 l 0.7448,-315.5518 l 0.7448,-66.1812 l 0.7448,187.6812 l 0.7448,-24.7445 l 0.7448,47.6913 l 0.7448,98.9068 l 0.7448,-334.4992 l 0.7448,-31.5403 l 0.7448,87.7706 l 0.7448,141.3486 l 0.7448,-163.1920 l 0.7448,361.7230 l 0.7448,18.0328 l 0.7448,-84.2910 l 0.7448,-1.4856 l 0.7448,-89.6100 l 0.7448,144.8645 l 0.7448,-12.8042 l 0.7448,59.4922 l 0.7448,-114.6819 l 0.7448,-69.9507 l 0.7448,-249.7597 l 0.7448,96.3090 l 0.7448,-22.7025 l 0.7448,338.3194 l 0.7448,-338.4907 l 0.7448,64.7420 l 0.7448,81.4767 l 0.7448,231.9561 l 0.7448,-382.2193 l 0.7448,154.2595 l 0.7448,-53.0881 l 0.7448,65.3794 l 0.7448,15.3214 l 0.7448,-268.6630 l 0.7448,42.1641 l 0.7448,382.0401 l 0.7448,-139.2600 l 0.7448,-179.7838 l 0.7448,190.6281 l 0.7448,-181.0971 l 0.7448,-121.2447 l 0.7448,154.3069 l 0.7448,318.8773 l 0.7448,-453.0678 l 0.7448,163.6362 l 0.7448,270.6682 l 0.7448,-335.2755 l 0.7448,-72.2530 l 0.7448,289.2778 l 0.7448,-275.5461 l 0.7448,275.6177 l 0.7448,-183.1158 l 0.7448,72.3936 l 0.7448,78.2709 l 0.7448,23.6176 l 0.7448,72.2660 l 0.7448,-172.6297 l 0.7448,210.1417 l 0.7448,-361.6707 l 0.7448,114.0820 l 0.7448,-97.4612 l 0.7448,322.0674 l 0.7448,-284.9693 l 0.7448,208.9977 l 0.7448,-33.1435 l 0.7448,-248.5283 l 0.7448,22.1287 l 0.7448,35.1505 l 0.7448,339.1881 l 0.7448,-38.2142 l 0.7448,-71.5092 l 0.7448,133.6882 l 0.7448,-421.4479 l 0.7448,94.5286 l 0.7448,312.3778 l 0.7448,-345.6684 l 0.7448,151.0246 l 0.7448,-199.7591 l 0.7448,9.2020 l 0.7448,181.2892 l 0.7448,-50.9905 l 0.7448,-45.9956 l 0.7448,-165.9074 l 0.7448,199.3745 l 0.7448,242.2315 l 0.7448,5.9425 l 0.7448,-304.7072 l 0.7448,278.2775 l 0.7448,-248.7429 l 0.7448,-8.8844 l 0.7448,213.5907 l 0.7448,-368.4045 l 0.7448,-3.2709 l 0.7448,47.8961 l 0.7448,-40.8942 l 0.7448,1.2958 l 0.7448,372.4768 l 0.7448,-187.1256 l 0.7448,194.1937 l 0.7448,-249.2389 l 0.7448,338.7700 l 0.7448,-332.0017 l 0.7448,-9.5696 l 0.7448,301.8457 l 0.7448,-268.4363 l 0.7448,-17.5831 l 0.7448,20.6937 l 0.7448,182.2607 l 0.7448,79.9690 l 0.7448,36.5631 l 0.7448,-169.9194 l 0.7448,-63.8549 l 0.7448,-146.1463 l 0.7448,388.2972 l 0.7448,-205.6968 l 0.7448,-207.3601 l 0.7448,4.5724 l 0.7448,-22.6752 l 0.7448,399.6293 l 0.7448,-177.0175 l 0.7448,-237.4237 l 0.7448,283.1795 l 0.7448,-298.5852 l 0.7448,443.9132 l 0.7448,-67.6508 l 0.7448,76.4983 l 0.7448,-258.2292 l 0.7448,137.8226 l 0.7448,-215.1284 l 0.7448,241.8500 l 0.7448,-161.1010 l 0.7448,129.0382 l 0.7448,-153.9695 l 0.7448,149.7964 l 0.7448,-285.3882 l 0.7448,218.5143 l 0.7448,38.3645 l 0.7448,-117.2014 l 0.7448,86.8853 l 0.7448,174.1964 "/></g></g><defs></defs><g stroke-linejoin="miter" stroke-opacity="1.0" fill-opacity="0.0" stroke="rgb(0,0,0)" stroke-width="0.9999999999999997" fill="rgb(0,0,0)" stroke-linecap="square" stroke-miterlimit="10.0"><path d="M 35.3887,550.0000 v -535.0000 "/></g><defs></defs><g stroke-linejoin="miter" stroke-opacity="1.0" fill-opacity="0.0" stroke="rgb(0,0,0)" stroke-width="0.9999999999999997" fill="rgb(0,0,0)" stroke-linecap="butt" stroke-miterlimit="10.0"><path d="M 35.3887,550.0000 h 2.0000 "/></g><defs></defs><g stroke-linejoin="miter" stroke-opacity="1.0" fill-opacity="0.0" stroke="rgb(0,0,0)" stroke-width="0.9999999999999997" fill="rgb(0,0,0)" stroke-linecap="butt" stroke-miterlimit="10.0"><path d="M 35.3887,536.6250 h 2.0000 "/></g><defs></defs><g stroke-linejoin="miter" stroke-opacity="1.0" fill-opacity="0.0" stroke="rgb(0,0,0)" stroke-width="0.9999999999999997" fill="rgb(0,0,0)" stroke-linecap="butt" stroke-miterlimit="10.0"><path d="M 35.3887,523.2500 h 2.0000 "/></g><defs></defs><g stroke-linejoin="miter" stroke-opacity="1.0" fill-opacity="0.0" stroke="rgb(0,0,0)" stroke-width="0.9999999999999997" fill="rgb(0,0,0)" stroke-linecap="butt" stroke-miterlimit="10.0"><path d="M 35.3887,509.8750 h 2.0000 "/></g><defs></defs><g stroke-linejoin="miter" stroke-opacity="1.0" fill-opacity="0.0" stroke="rgb(0,0,0)" stroke-width="0.9999999999999997" fill="rgb(0,0,0)" stroke-linecap="butt" stroke-miterlimit="10.0"><path d="M 35.3887,496.5000 h 2.0000 "/></g><defs></defs><g stroke-linejoin="miter" stroke-opacity="1.0" fill-opacity="0.0" stroke="rgb(0,0,0)" stroke-width="0.9999999999999997" fill="rgb(0,0,0)" stroke-linecap="butt" stroke-miterlimit="10.0"><path d="M 35.3887,483.1250 h 2.0000 "/></g><defs></defs><g stroke-linejoin="miter" stroke-opacity="1.0" fill-opacity="0.0" stroke="rgb(0,0,0)" stroke-width="0.9999999999999997" fill="rgb(0,0,0)" stroke-linecap="butt" stroke-miterlimit="10.0"><path d="M 35.3887,469.7500 h 2.0000 "/></g><defs></defs><g stroke-linejoin="miter" stroke-opacity="1.0" fill-opacity="0.0" stroke="rgb(0,0,0)" stroke-width="0.9999999999999997" fill="rgb(0,0,0)" stroke-linecap="butt" stroke-miterlimit="10.0"><path d="M 35.3887,456.3750 h 2.0000 "/></g><defs></defs><g stroke-linejoin="miter" stroke-opacity="1.0" fill-opacity="0.0" stroke="rgb(0,0,0)" stroke-width="0.9999999999999997" fill="rgb(0,0,0)" stroke-linecap="butt" stroke-miterlimit="10.0"><path d="M 35.3887,443.0000 h 2.0000 "/></g><defs></defs><g stroke-linejoin="miter" stroke-opacity="1.0" fill-opacity="0.0" stroke="rgb(0,0,0)" stroke-width="0.9999999999999997" fill="rgb(0,0,0)" stroke-linecap="butt" stroke-miterlimit="10.0"><path d="M 35.3887,429.6250 h 2.0000 "/></g><defs></defs><g stroke-linejoin="miter" stroke-opacity="1.0" fill-opacity="0.0" stroke="rgb(0,0,0)" stroke-width="0.9999999999999997" fill="rgb(0,0,0)" stroke-linecap="butt" stroke-miterlimit="10.0"><path d="M 35.3887,416.2500 h 2.0000 "/></g><defs></defs><g stroke-linejoin="miter" stroke-opacity="1.0" fill-opacity="0.0" stroke="rgb(0,0,0)" stroke-width="0.9999999999999997" fill="rgb(0,0,0)" stroke-linecap="butt" stroke-miterlimit="10.0"><path d="M 35.3887,402.8750 h 2.0000 "/></g><defs></defs><g stroke-linejoin="miter" stroke-opacity="1.0" fill-opacity="0.0" stroke="rgb(0,0,0)" stroke-width="0.9999999999999997" fill="rgb(0,0,0)" stroke-linecap="butt" stroke-miterlimit="10.0"><path d="M 35.3887,389.5000 h 2.0000 "/></g><defs></defs><g stroke-linejoin="miter" stroke-opacity="1.0" fill-opacity="0.0" stroke="rgb(0,0,0)" stroke-width="0.9999999999999997" fill="rgb(0,0,0)" stroke-linecap="butt" stroke-miterlimit="10.0"><path d="M 35.3887,376.1250 h 2.0000 "/></g><defs></defs><g stroke-linejoin="miter" stroke-opacity="1.0" fill-opacity="0.0" stroke="rgb(0,0,0)" stroke-width="0.9999999999999997" fill="rgb(0,0,0)" stroke-linecap="butt" stroke-miterlimit="10.0"><path d="M 35.3887,362.7500 h 2.0000 "/></g><defs></defs><g stroke-linejoin="miter" stroke-opacity="1.0" fill-opacity="0.0" stroke="rgb(0,0,0)" stroke-width="0.9999999999999997" fill="rgb(0,0,0)" stroke-linecap="butt" stroke-miterlimit="10.0"><path d="M 35.3887,349.3750 h 2.0000 "/></g><defs></defs><g stroke-linejoin="miter" stroke-opacity="1.0" fill-opacity="0.0" stroke="rgb(0,0,0)" stroke-width="0.9999999999999997" fill="rgb(0,0,0)" stroke-linecap="butt" stroke-miterlimit="10.0"><path d="M 35.3887,336.0000 h 2.0000 "/></g><defs></defs><g stroke-linejoin="miter" stroke-opacity="1.0" fill-opacity="0.0" stroke="rgb(0,0,0)" stroke-width="0.9999999999999997" fill="rgb(0,0,0)" stroke-linecap="butt" stroke-miterlimit="10.0"><path d="M 35.3887,322.6250 h 2.0000 "/></g><defs></defs><g stroke-linejoin="miter" stroke-opacity="1.0" fill-opacity="0.0" stroke="rgb(0,0,0)" stroke-width="0.9999999999999997" fill="rgb(0,0,0)" stroke-linecap="butt" stroke-miterlimit="10.0"><path d="M 35.3887,309.2500 h 2.0000 "/></g><defs></defs><g stroke-linejoin="miter" stroke-opacity="1.0" fill-opacity="0.0" stroke="rgb(0,0,0)" stroke-width="0.9999999999999997" fill="rgb(0,0,0)" stroke-linecap="butt" stroke-miterlimit="10.0"><path d="M 35.3887,295.8750 h 2.0000 "/></g><defs></defs><g stroke-linejoin="miter" stroke-opacity="1.0" fill-opacity="0.0" stroke="rgb(0,0,0)" stroke-width="0.9999999999999997" fill="rgb(0,0,0)" stroke-linecap="butt" stroke-miterlimit="10.0"><path d="M 35.3887,282.5000 h 2.0000 "/></g><defs></defs><g stroke-linejoin="miter" stroke-opacity="1.0" fill-opacity="0.0" stroke="rgb(0,0,0)" stroke-width="0.9999999999999997" fill="rgb(0,0,0)" stroke-linecap="butt" stroke-miterlimit="10.0"><path d="M 35.3887,269.1250 h 2.0000 "/></g><defs></defs><g stroke-linejoin="miter" stroke-opacity="1.0" fill-opacity="0.0" stroke="rgb(0,0,0)" stroke-width="0.9999999999999997" fill="rgb(0,0,0)" stroke-linecap="butt" stroke-miterlimit="10.0"><path d="M 35.3887,255.7500 h 2.0000 "/></g><defs></defs><g stroke-linejoin="miter" stroke-opacity="1.0" fill-opacity="0.0" stroke="rgb(0,0,0)" stroke-width="0.9999999999999997" fill="rgb(0,0,0)" stroke-linecap="butt" stroke-miterlimit="10.0"><path d="M 35.3887,242.3750 h 2.0000 "/></g><defs></defs><g stroke-linejoin="miter" stroke-opacity="1.0" fill-opacity="0.0" stroke="rgb(0,0,0)" stroke-width="0.9999999999999997" fill="rgb(0,0,0)" stroke-linecap="butt" stroke-miterlimit="10.0"><path d="M 35.3887,229.0000 h 2.0000 "/></g><defs></defs><g stroke-linejoin="miter" stroke-opacity="1.0" fill-opacity="0.0" stroke="rgb(0,0,0)" stroke-width="0.9999999999999997" fill="rgb(0,0,0)" stroke-linecap="butt" stroke-miterlimit="10.0"><path d="M 35.3887,215.6250 h 2.0000 "/></g><defs></defs><g stroke-linejoin="miter" stroke-opacity="1.0" fill-opacity="0.0" stroke="rgb(0,0,0)" stroke-width="0.9999999999999997" fill="rgb(0,0,0)" stroke-linecap="butt" stroke-miterlimit="10.0"><path d="M 35.3887,202.2500 h 2.0000 "/></g><defs></defs><g stroke-linejoin="miter" stroke-opacity="1.0" fill-opacity="0.0" stroke="rgb(0,0,0)" stroke-width="0.9999999999999997" fill="rgb(0,0,0)" stroke-linecap="butt" stroke-miterlimit="10.0"><path d="M 35.3887,188.8750 h 2.0000 "/></g><defs></defs><g stroke-linejoin="miter" stroke-opacity="1.0" fill-opacity="0.0" stroke="rgb(0,0,0)" stroke-width="0.9999999999999997" fill="rgb(0,0,0)" stroke-linecap="butt" stroke-miterlimit="10.0"><path d="M 35.3887,175.5000 h 2.0000 "/></g><defs></defs><g stroke-linejoin="miter" stroke-opacity="1.0" fill-opacity="0.0" stroke="rgb(0,0,0)" stroke-width="0.9999999999999997" fill="rgb(0,0,0)" stroke-linecap="butt" stroke-miterlimit="10.0"><path d="M 35.3887,162.1250 h 2.0000 "/></g><defs></defs><g stroke-linejoin="miter" stroke-opacity="1.0" fill-opacity="0.0" stroke="rgb(0,0,0)" stroke-width="0.9999999999999997" fill="rgb(0,0,0)" stroke-linecap="butt" stroke-miterlimit="10.0"><path d="M 35.3887,148.7500 h 2.0000 "/></g><defs></defs><g stroke-linejoin="miter" stroke-opacity="1.0" fill-opacity="0.0" stroke="rgb(0,0,0)" stroke-width="0.9999999999999997" fill="rgb(0,0,0)" stroke-linecap="butt" stroke-miterlimit="10.0"><path d="M 35.3887,135.3750 h 2.0000 "/></g><defs></defs><g stroke-linejoin="miter" stroke-opacity="1.0" fill-opacity="0.0" stroke="rgb(0,0,0)" stroke-width="0.9999999999999997" fill="rgb(0,0,0)" stroke-linecap="butt" stroke-miterlimit="10.0"><path d="M 35.3887,122.0000 h 2.0000 "/></g><defs></defs><g stroke-linejoin="miter" stroke-opacity="1.0" fill-opacity="0.0" stroke="rgb(0,0,0)" stroke-width="0.9999999999999997" fill="rgb(0,0,0)" stroke-linecap="butt" stroke-miterlimit="10.0"><path d="M 35.3887,108.6250 h 2.0000 "/></g><defs></defs><g stroke-linejoin="miter" stroke-opacity="1.0" fill-opacity="0.0" stroke="rgb(0,0,0)" stroke-width="0.9999999999999997" fill="rgb(0,0,0)" stroke-linecap="butt" stroke-miterlimit="10.0"><path d="M 35.3887,95.2500 h 2.0000 "/></g><defs></defs><g stroke-linejoin="miter" stroke-opacity="1.0" fill-opacity="0.0" stroke="rgb(0,0,0)" stroke-width="0.9999999999999997" fill="rgb(0,0,0)" stroke-linecap="butt" stroke-miterlimit="10.0"><path d="M 35.3887,81.8750 h 2.0000 "/></g><defs></defs><g stroke-linejoin="miter" stroke-opacity="1.0" fill-opacity="0.0" stroke="rgb(0,0,0)" stroke-width="0.9999999999999997" fill="rgb(0,0,0)" stroke-linecap="butt" stroke-miterlimit="10.0"><path d="M 35.3887,68.5000 h 2.0000 "/></g><defs></defs><g stroke-linejoin="miter" stroke-opacity="1.0" fill-opacity="0.0" stroke="rgb(0,0,0)" stroke-width="0.9999999999999997" fill="rgb(0,0,0)" stroke-linecap="butt" stroke-miterlimit="10.0"><path d="M 35.3887,55.1250 h 2.0000 "/></g><defs></defs><g stroke-linejoin="miter" stroke-opacity="1.0" fill-opacity="0.0" stroke="rgb(0,0,0)" stroke-width="0.9999999999999997" fill="rgb(0,0,0)" stroke-linecap="butt" stroke-miterlimit="10.0"><path d="M 35.3887,41.7500 h 2.0000 "/></g><defs></defs><g stroke-linejoin="miter" stroke-opacity="1.0" fill-opacity="0.0" stroke="rgb(0,0,0)" stroke-width="0.9999999999999997" fill="rgb(0,0,0)" stroke-linecap="butt" stroke-miterlimit="10.0"><path d="M 35.3887,28.3750 h 2.0000 "/></g><defs></defs><g stroke-linejoin="miter" stroke-opacity="1.0" fill-opacity="0.0" stroke="rgb(0,0,0)" stroke-width="0.9999999999999997" fill="rgb(0,0,0)" stroke-linecap="butt" stroke-miterlimit="10.0"><path d="M 35.3887,15.0000 h 2.0000 "/></g><defs></defs><g stroke-linejoin="miter" stroke-opacity="1.0" fill-opacity="0.0" stroke="rgb(0,0,0)" stroke-width="0.9999999999999997" fill="rgb(0,0,0)" stroke-linecap="butt" stroke-miterlimit="10.0"><path d="M 35.3887,550.0000 h 5.0000 "/></g><defs></defs><g stroke-linejoin="miter" stroke-opacity="1.0" fill-opacity="0.0" stroke="rgb(0,0,0)" stroke-width="0.9999999999999997" fill="rgb(0,0,0)" stroke-linecap="butt" stroke-miterlimit="10.0"><path d="M 35.3887,416.2500 h 5.0000 "/></g><defs></defs><g stroke-linejoin="miter" stroke-opacity="1.0" fill-opacity="0.0" stroke="rgb(0,0,0)" stroke-width="0.9999999999999997" fill="rgb(0,0,0)" stroke-linecap="butt" stroke-miterlimit="10.0"><path d="M 35.3887,282.5000 h 5.0000 "/></g><defs></defs><g stroke-linejoin="miter" stroke-opacity="1.0" fill-opacity="0.0" stroke="rgb(0,0,0)" stroke-width="0.9999999999999997" fill="rgb(0,0,0)" stroke-linecap="butt" stroke-miterlimit="10.0"><path d="M 35.3887,148.7500 h 5.0000 "/></g><defs></defs><g stroke-linejoin="miter" stroke-opacity="1.0" fill-opacity="0.0" stroke="rgb(0,0,0)" stroke-width="0.9999999999999997" fill="rgb(0,0,0)" stroke-linecap="butt" stroke-miterlimit="10.0"><path d="M 35.3887,15.0000 h 5.0000 "/></g><defs></defs><g stroke-linejoin="bevel" stroke-opacity="0.0" fill-opacity="1.0" stroke="rgb(0,0,0)" stroke-width="0.0" fill="rgb(0,0,0)" stroke-linecap="butt" stroke-miterlimit="10.0"><path d="M 17.9412,553.4454 ZM 18.3718,550.4832 h 2.4160 v 0.6618 h -2.4160 v -0.6618 ZM 21.2080,553.4454 ZM 22.0378,552.7311 h 1.5336 v -4.9370 h -1.2185 v -0.5567 c 0.4622,-0.0840 0.8036,-0.2048 0.8036 -0.2048c 0.3414,-0.1208 0.6145,-0.2889 0.6145 -0.2889h 0.6618 v 5.9874 h 1.3866 v 0.7143 h -3.7815 v -0.7143 Z"/></g><defs></defs><g stroke-linejoin="bevel" stroke-opacity="0.0" fill-opacity="1.0" stroke="rgb(0,0,0)" stroke-width="0.0" fill="rgb(0,0,0)" stroke-linecap="butt" stroke-miterlimit="10.0"><path d="M 10.0000,419.6954 ZM 10.4307,416.7332 h 2.4160 v 0.6618 h -2.4160 v -0.6618 ZM 13.2668,419.6954 ZM 15.8824,419.8214 c -1.0189,-0.0000 -1.5861,-0.9034 -1.5861 -0.9034c -0.5672,-0.9034 -0.5672,-2.5945 -0.5672 -2.5945c 0.0000,-1.6912 0.5672,-2.5735 0.5672 -2.5735c 0.5672,-0.8824 1.5861,-0.8824 1.5861 -0.8824c 1.0084,0.0000 1.5756,0.8824 1.5756 0.8824c 0.5672,0.8824 0.5672,2.5735 0.5672 2.5735c 0.0000,1.6912 -0.5672,2.5945 -0.5672 2.5945c -0.5672,0.9034 -1.5756,0.9034 -1.5756 0.9034ZM 15.8824,419.8214 ZM 15.8824,419.1282 c 0.2941,0.0000 0.5305,-0.1628 0.5305 -0.1628c 0.2363,-0.1628 0.4097,-0.5042 0.4097 -0.5042c 0.1733,-0.3414 0.2679,-0.8718 0.2679 -0.8718c 0.0945,-0.5305 0.0945,-1.2658 0.0945 -1.2658c 0.0000,-0.7353 -0.0945,-1.2605 -0.0945 -1.2605c -0.0945,-0.5252 -0.2679,-0.8561 -0.2679 -0.8561c -0.1733,-0.3309 -0.4097,-0.4884 -0.4097 -0.4884c -0.2363,-0.1576 -0.5305,-0.1576 -0.5305 -0.1576c -0.2941,-0.0000 -0.5357,0.1576 -0.5357 0.1576c -0.2416,0.1576 -0.4149,0.4884 -0.4149 0.4884c -0.1733,0.3309 -0.2679,0.8561 -0.2679 0.8561c -0.0945,0.5252 -0.0945,1.2605 -0.0945 1.2605c 0.0000,1.4706 0.3624,2.1376 0.3624 2.1376c 0.3624,0.6670 0.9506,0.6670 0.9506 0.6670ZM 18.4874,419.6954 ZM 19.1702,419.1702 c 0.0000,-0.3046 0.1838,-0.4884 0.1838 -0.4884c 0.1838,-0.1838 0.4464,-0.1838 0.4464 -0.1838c 0.2521,0.0000 0.4359,0.1838 0.4359 0.1838c 0.1838,0.1838 0.1838,0.4884 0.1838 0.4884c 0.0000,0.2836 -0.1838,0.4674 -0.1838 0.4674c -0.1838,0.1838 -0.4359,0.1838 -0.4359 0.1838c -0.2626,-0.0000 -0.4464,-0.1838 -0.4464 -0.1838c -0.1838,-0.1838 -0.1838,-0.4674 -0.1838 -0.4674ZM 21.1029,419.6954 ZM 21.7857,418.3403 c 0.2941,0.3046 0.6985,0.5357 0.6985 0.5357c 0.4044,0.2311 0.9926,0.2311 0.9926 0.2311c 0.3046,0.0000 0.5725,-0.1103 0.5725 -0.1103c 0.2679,-0.1103 0.4674,-0.3099 0.4674 -0.3099c 0.1996,-0.1996 0.3151,-0.4832 0.3151 -0.4832c 0.1155,-0.2836 0.1155,-0.6303 0.1155 -0.6303c 0.0000,-0.6933 -0.3887,-1.0819 -0.3887 -1.0819c -0.3887,-0.3887 -1.0399,-0.3887 -1.0399 -0.3887c -0.3466,-0.0000 -0.5935,0.1050 -0.5935 0.1050c -0.2468,0.1050 -0.5515,0.3046 -0.5515 0.3046l -0.4622,-0.2941 l 0.2206,-3.2248 h 3.3508 v 0.7458 h -2.5945 l -0.1786,1.9853 c 0.2416,-0.1261 0.4832,-0.1996 0.4832 -0.1996c 0.2416,-0.0735 0.5462,-0.0735 0.5462 -0.0735c 0.4307,0.0000 0.8088,0.1261 0.8088 0.1261c 0.3782,0.1261 0.6618,0.3834 0.6618 0.3834c 0.2836,0.2574 0.4464,0.6513 0.4464 0.6513c 0.1628,0.3939 0.1628,0.9401 0.1628 0.9401c 0.0000,0.5462 -0.1891,0.9664 -0.1891 0.9664c -0.1891,0.4202 -0.5042,0.7090 -0.5042 0.7090c -0.3151,0.2889 -0.7195,0.4412 -0.7195 0.4412c -0.4044,0.1523 -0.8456,0.1523 -0.8456 0.1523c -0.3992,-0.0000 -0.7300,-0.0788 -0.7300 -0.0788c -0.3309,-0.0788 -0.5987,-0.2048 -0.5987 -0.2048c -0.2679,-0.1261 -0.4832,-0.2889 -0.4832 -0.2889c -0.2153,-0.1628 -0.3834,-0.3414 -0.3834 -0.3414Z"/></g><defs></defs><g stroke-linejoin="bevel" stroke-opacity="0.0" fill-opacity="1.0" stroke="rgb(0,0,0)" stroke-width="0.0" fill="rgb(0,0,0)" stroke-linecap="butt" stroke-miterlimit="10.0"><path d="M 21.0924,285.9454 ZM 23.7080,286.0714 c -1.0189,-0.0000 -1.5861,-0.9034 -1.5861 -0.9034c -0.5672,-0.9034 -0.5672,-2.5945 -0.5672 -2.5945c 0.0000,-1.6912 0.5672,-2.5735 0.5672 -2.5735c 0.5672,-0.8824 1.5861,-0.8824 1.5861 -0.8824c 1.0084,0.0000 1.5756,0.8824 1.5756 0.8824c 0.5672,0.8824 0.5672,2.5735 0.5672 2.5735c 0.0000,1.6912 -0.5672,2.5945 -0.5672 2.5945c -0.5672,0.9034 -1.5756,0.9034 -1.5756 0.9034ZM 23.7080,286.0714 ZM 23.7080,285.3782 c 0.2941,0.0000 0.5305,-0.1628 0.5305 -0.1628c 0.2363,-0.1628 0.4097,-0.5042 0.4097 -0.5042c 0.1733,-0.3414 0.2679,-0.8718 0.2679 -0.8718c 0.0945,-0.5305 0.0945,-1.2658 0.0945 -1.2658c 0.0000,-0.7353 -0.0945,-1.2605 -0.0945 -1.2605c -0.0945,-0.5252 -0.2679,-0.8561 -0.2679 -0.8561c -0.1733,-0.3309 -0.4097,-0.4884 -0.4097 -0.4884c -0.2363,-0.1576 -0.5305,-0.1576 -0.5305 -0.1576c -0.2941,-0.0000 -0.5357,0.1576 -0.5357 0.1576c -0.2416,0.1576 -0.4149,0.4884 -0.4149 0.4884c -0.1733,0.3309 -0.2679,0.8561 -0.2679 0.8561c -0.0945,0.5252 -0.0945,1.2605 -0.0945 1.2605c 0.0000,1.4706 0.3624,2.1376 0.3624 2.1376c 0.3624,0.6670 0.9506,0.6670 0.9506 0.6670Z"/></g><defs></defs><g stroke-linejoin="bevel" stroke-opacity="0.0" fill-opacity="1.0" stroke="rgb(0,0,0)" stroke-width="0.0" fill="rgb(0,0,0)" stroke-linecap="butt" stroke-miterlimit="10.0"><path d="M 13.2983,152.1954 ZM 15.9139,152.3214 c -1.0189,-0.0000 -1.5861,-0.9034 -1.5861 -0.9034c -0.5672,-0.9034 -0.5672,-2.5945 -0.5672 -2.5945c 0.0000,-1.6912 0.5672,-2.5735 0.5672 -2.5735c 0.5672,-0.8824 1.5861,-0.8824 1.5861 -0.8824c 1.0084,0.0000 1.5756,0.8824 1.5756 0.8824c 0.5672,0.8824 0.5672,2.5735 0.5672 2.5735c 0.0000,1.6912 -0.5672,2.5945 -0.5672 2.5945c -0.5672,0.9034 -1.5756,0.9034 -1.5756 0.9034ZM 15.9139,152.3214 ZM 15.9139,151.6282 c 0.2941,0.0000 0.5305,-0.1628 0.5305 -0.1628c 0.2363,-0.1628 0.4097,-0.5042 0.4097 -0.5042c 0.1733,-0.3414 0.2679,-0.8718 0.2679 -0.8718c 0.0945,-0.5305 0.0945,-1.2658 0.0945 -1.2658c 0.0000,-0.7353 -0.0945,-1.2605 -0.0945 -1.2605c -0.0945,-0.5252 -0.2679,-0.8561 -0.2679 -0.8561c -0.1733,-0.3309 -0.4097,-0.4884 -0.4097 -0.4884c -0.2363,-0.1576 -0.5305,-0.1576 -0.5305 -0.1576c -0.2941,-0.0000 -0.5357,0.1576 -0.5357 0.1576c -0.2416,0.1576 -0.4149,0.4884 -0.4149 0.4884c -0.1733,0.3309 -0.2679,0.8561 -0.2679 0.8561c -0.0945,0.5252 -0.0945,1.2605 -0.0945 1.2605c 0.0000,1.4706 0.3624,2.1376 0.3624 2.1376c 0.3624,0.6670 0.9506,0.6670 0.9506 0.6670ZM 18.5189,152.1954 ZM 19.2017,151.6702 c 0.0000,-0.3046 0.1838,-0.4884 0.1838 -0.4884c 0.1838,-0.1838 0.4464,-0.1838 0.4464 -0.1838c 0.2521,0.0000 0.4359,0.1838 0.4359 0.1838c 0.1838,0.1838 0.1838,0.4884 0.1838 0.4884c 0.0000,0.2836 -0.1838,0.4674 -0.1838 0.4674c -0.1838,0.1838 -0.4359,0.1838 -0.4359 0.1838c -0.2626,-0.0000 -0.4464,-0.1838 -0.4464 -0.1838c -0.1838,-0.1838 -0.1838,-0.4674 -0.1838 -0.4674ZM 21.1345,152.1954 ZM 21.8172,150.8403 c 0.2941,0.3046 0.6985,0.5357 0.6985 0.5357c 0.4044,0.2311 0.9926,0.2311 0.9926 0.2311c 0.3046,0.0000 0.5725,-0.1103 0.5725 -0.1103c 0.2679,-0.1103 0.4674,-0.3099 0.4674 -0.3099c 0.1996,-0.1996 0.3151,-0.4832 0.3151 -0.4832c 0.1155,-0.2836 0.1155,-0.6303 0.1155 -0.6303c 0.0000,-0.6933 -0.3887,-1.0819 -0.3887 -1.0819c -0.3887,-0.3887 -1.0399,-0.3887 -1.0399 -0.3887c -0.3466,-0.0000 -0.5935,0.1050 -0.5935 0.1050c -0.2468,0.1050 -0.5515,0.3046 -0.5515 0.3046l -0.4622,-0.2941 l 0.2206,-3.2248 h 3.3508 v 0.7458 h -2.5945 l -0.1786,1.9853 c 0.2416,-0.1261 0.4832,-0.1996 0.4832 -0.1996c 0.2416,-0.0735 0.5462,-0.0735 0.5462 -0.0735c 0.4307,0.0000 0.8088,0.1261 0.8088 0.1261c 0.3782,0.1261 0.6618,0.3834 0.6618 0.3834c 0.2836,0.2574 0.4464,0.6513 0.4464 0.6513c 0.1628,0.3939 0.1628,0.9401 0.1628 0.9401c 0.0000,0.5462 -0.1891,0.9664 -0.1891 0.9664c -0.1891,0.4202 -0.5042,0.7090 -0.5042 0.7090c -0.3151,0.2889 -0.7195,0.4412 -0.7195 0.4412c -0.4044,0.1523 -0.8456,0.1523 -0.8456 0.1523c -0.3992,-0.0000 -0.7300,-0.0788 -0.7300 -0.0788c -0.3309,-0.0788 -0.5987,-0.2048 -0.5987 -0.2048c -0.2679,-0.1261 -0.4832,-0.2889 -0.4832 -0.2889c -0.2153,-0.1628 -0.3834,-0.3414 -0.3834 -0.3414Z"/></g><defs></defs><g stroke-linejoin="bevel" stroke-opacity="0.0" fill-opacity="1.0" stroke="rgb(0,0,0)" stroke-width="0.0" fill="rgb(0,0,0)" stroke-linecap="butt" stroke-miterlimit="10.0"><path d="M 21.6071,18.4454 ZM 22.4370,17.7311 h 1.5336 v -4.9370 h -1.2185 v -0.5567 c 0.4622,-0.0840 0.8036,-0.2048 0.8036 -0.2048c 0.3414,-0.1208 0.6145,-0.2889 0.6145 -0.2889h 0.6618 v 5.9874 h 1.3866 v 0.7143 h -3.7815 v -0.7143 Z"/></g><defs></defs><g stroke-linejoin="miter" stroke-opacity="1.0" fill-opacity="0.0" stroke="rgb(0,0,0)" stroke-width="0.9999999999999997" fill="rgb(0,0,0)" stroke-linecap="square" stroke-miterlimit="10.0"><path d="M 35.3887,550.0000 h 744.8162 "/></g><defs></defs><g stroke-linejoin="miter" stroke-opacity="1.0" fill-opacity="0.0" stroke="rgb(0,0,0)" stroke-width="0.9999999999999997" fill="rgb(0,0,0)" stroke-linecap="butt" stroke-miterlimit="10.0"><path d="M 35.3887,550.0000 v -2.0000 "/></g><defs></defs><g stroke-linejoin="miter" stroke-opacity="1.0" fill-opacity="0.0" stroke="rgb(0,0,0)" stroke-width="0.9999999999999997" fill="rgb(0,0,0)" stroke-linecap="butt" stroke-miterlimit="10.0"><path d="M 109.8703,550.0000 v -2.0000 "/></g><defs></defs><g stroke-linejoin="miter" stroke-opacity="1.0" fill-opacity="0.0" stroke="rgb(0,0,0)" stroke-width="0.9999999999999997" fill="rgb(0,0,0)" stroke-linecap="butt" stroke-miterlimit="10.0"><path d="M 184.3519,550.0000 v -2.0000 "/></g><defs></defs><g stroke-linejoin="miter" stroke-opacity="1.0" fill-opacity="0.0" stroke="rgb(0,0,0)" stroke-width="0.9999999999999997" fill="rgb(0,0,0)" stroke-linecap="butt" stroke-miterlimit="10.0"><path d="M 258.8335,550.0000 v -2.0000 "/></g><defs></defs><g stroke-linejoin="miter" stroke-opacity="1.0" fill-opacity="0.0" stroke="rgb(0,0,0)" stroke-width="0.9999999999999997" fill="rgb(0,0,0)" stroke-linecap="butt" stroke-miterlimit="10.0"><path d="M 333.3151,550.0000 v -2.0000 "/></g><defs></defs><g stroke-linejoin="miter" stroke-opacity="1.0" fill-opacity="0.0" stroke="rgb(0,0,0)" stroke-width="0.9999999999999997" fill="rgb(0,0,0)" stroke-linecap="butt" stroke-miterlimit="10.0"><path d="M 407.7967,550.0000 v -2.0000 "/></g><defs></defs><g stroke-linejoin="miter" stroke-opacity="1.0" fill-opacity="0.0" stroke="rgb(0,0,0)" stroke-width="0.9999999999999997" fill="rgb(0,0,0)" stroke-linecap="butt" stroke-miterlimit="10.0"><path d="M 482.2784,550.0000 v -2.0000 "/></g><defs></defs><g stroke-linejoin="miter" stroke-opacity="1.0" fill-opacity="0.0" stroke="rgb(0,0,0)" stroke-width="0.9999999999999997" fill="rgb(0,0,0)" stroke-linecap="butt" stroke-miterlimit="10.0"><path d="M 556.7600,550.0000 v -2.0000 "/></g><defs></defs><g stroke-linejoin="miter" stroke-opacity="1.0" fill-opacity="0.0" stroke="rgb(0,0,0)" stroke-width="0.9999999999999997" fill="rgb(0,0,0)" stroke-linecap="butt" stroke-miterlimit="10.0"><path d="M 631.2416,550.0000 v -2.0000 "/></g><defs></defs><g stroke-linejoin="miter" stroke-opacity="1.0" fill-opacity="0.0" stroke="rgb(0,0,0)" stroke-width="0.9999999999999997" fill="rgb(0,0,0)" stroke-linecap="butt" stroke-miterlimit="10.0"><path d="M 705.7232,550.0000 v -2.0000 "/></g><defs></defs><g stroke-linejoin="miter" stroke-opacity="1.0" fill-opacity="0.0" stroke="rgb(0,0,0)" stroke-width="0.9999999999999997" fill="rgb(0,0,0)" stroke-linecap="butt" stroke-miterlimit="10.0"><path d="M 780.2048,550.0000 v -2.0000 "/></g><defs></defs><g stroke-linejoin="miter" stroke-opacity="1.0" fill-opacity="0.0" stroke="rgb(0,0,0)" stroke-width="0.9999999999999997" fill="rgb(0,0,0)" stroke-linecap="butt" stroke-miterlimit="10.0"><path d="M 35.3887,550.0000 v -5.0000 "/></g><defs></defs><g stroke-linejoin="miter" stroke-opacity="1.0" fill-opacity="0.0" stroke="rgb(0,0,0)" stroke-width="0.9999999999999997" fill="rgb(0,0,0)" stroke-linecap="butt" stroke-miterlimit="10.0"><path d="M 221.5927,550.0000 v -5.0000 "/></g><defs></defs><g stroke-linejoin="miter" stroke-opacity="1.0" fill-opacity="0.0" stroke="rgb(0,0,0)" stroke-width="0.9999999999999997" fill="rgb(0,0,0)" stroke-linecap="butt" stroke-miterlimit="10.0"><path d="M 407.7967,550.0000 v -5.0000 "/></g><defs></defs><g stroke-linejoin="miter" stroke-opacity="1.0" fill-opacity="0.0" stroke="rgb(0,0,0)" stroke-width="0.9999999999999997" fill="rgb(0,0,0)" stroke-linecap="butt" stroke-miterlimit="10.0"><path d="M 594.0008,550.0000 v -5.0000 "/></g><defs></defs><g stroke-linejoin="miter" stroke-opacity="1.0" fill-opacity="0.0" stroke="rgb(0,0,0)" stroke-width="0.9999999999999997" fill="rgb(0,0,0)" stroke-linecap="butt" stroke-miterlimit="10.0"><path d="M 780.2048,550.0000 v -5.0000 "/></g><defs></defs><g stroke-linejoin="bevel" stroke-opacity="0.0" fill-opacity="1.0" stroke="rgb(0,0,0)" stroke-width="0.0" fill="rgb(0,0,0)" stroke-linecap="butt" stroke-miterlimit="10.0"><path d="M 33.2405,570.0000 ZM 35.8561,570.1261 c -1.0189,-0.0000 -1.5861,-0.9034 -1.5861 -0.9034c -0.5672,-0.9034 -0.5672,-2.5945 -0.5672 -2.5945c 0.0000,-1.6912 0.5672,-2.5735 0.5672 -2.5735c 0.5672,-0.8824 1.5861,-0.8824 1.5861 -0.8824c 1.0084,0.0000 1.5756,0.8824 1.5756 0.8824c 0.5672,0.8824 0.5672,2.5735 0.5672 2.5735c 0.0000,1.6912 -0.5672,2.5945 -0.5672 2.5945c -0.5672,0.9034 -1.5756,0.9034 -1.5756 0.9034ZM 35.8561,570.1261 ZM 35.8561,569.4328 c 0.2941,0.0000 0.5305,-0.1628 0.5305 -0.1628c 0.2363,-0.1628 0.4097,-0.5042 0.4097 -0.5042c 0.1733,-0.3414 0.2679,-0.8718 0.2679 -0.8718c 0.0945,-0.5305 0.0945,-1.2658 0.0945 -1.2658c 0.0000,-0.7353 -0.0945,-1.2605 -0.0945 -1.2605c -0.0945,-0.5252 -0.2679,-0.8561 -0.2679 -0.8561c -0.1733,-0.3309 -0.4097,-0.4884 -0.4097 -0.4884c -0.2363,-0.1576 -0.5305,-0.1576 -0.5305 -0.1576c -0.2941,-0.0000 -0.5357,0.1576 -0.5357 0.1576c -0.2416,0.1576 -0.4149,0.4884 -0.4149 0.4884c -0.1733,0.3309 -0.2679,0.8561 -0.2679 0.8561c -0.0945,0.5252 -0.0945,1.2605 -0.0945 1.2605c 0.0000,1.4706 0.3624,2.1376 0.3624 2.1376c 0.3624,0.6670 0.9506,0.6670 0.9506 0.6670Z"/></g><defs></defs><g stroke-linejoin="bevel" stroke-opacity="0.0" fill-opacity="1.0" stroke="rgb(0,0,0)" stroke-width="0.0" fill="rgb(0,0,0)" stroke-linecap="butt" stroke-miterlimit="10.0"><path d="M 214.1820,570.0000 ZM 214.6022,569.4853 c 0.7563,-0.7563 1.3445,-1.3655 1.3445 -1.3655c 0.5882,-0.6092 0.9874,-1.1292 0.9874 -1.1292c 0.3992,-0.5200 0.6092,-0.9559 0.6092 -0.9559c 0.2101,-0.4359 0.2101,-0.8456 0.2101 -0.8456c 0.0000,-0.5777 -0.3151,-0.9454 -0.3151 -0.9454c -0.3151,-0.3676 -0.9559,-0.3676 -0.9559 -0.3676c -0.4202,-0.0000 -0.7773,0.2363 -0.7773 0.2363c -0.3571,0.2363 -0.6513,0.5725 -0.6513 0.5725l -0.4937,-0.4937 c 0.4202,-0.4622 0.8929,-0.7405 0.8929 -0.7405c 0.4727,-0.2784 1.1345,-0.2784 1.1345 -0.2784c 0.9349,0.0000 1.4706,0.5410 1.4706 0.5410c 0.5357,0.5410 0.5357,1.4338 0.5357 1.4338c 0.0000,0.4727 -0.2048,0.9506 -0.2048 0.9506c -0.2048,0.4779 -0.5672,0.9874 -0.5672 0.9874c -0.3624,0.5095 -0.8613,1.0609 -0.8613 1.0609c -0.4989,0.5515 -1.0977,1.1712 -1.0977 1.1712c 0.2731,-0.0210 0.5672,-0.0420 0.5672 -0.0420c 0.2941,-0.0210 0.5567,-0.0210 0.5567 -0.0210h 1.9433 v 0.7458 h -4.3277 v -0.5147 ZM 219.4026,570.0000 ZM 220.0853,568.6450 c 0.2941,0.3046 0.6985,0.5357 0.6985 0.5357c 0.4044,0.2311 0.9926,0.2311 0.9926 0.2311c 0.3046,0.0000 0.5725,-0.1103 0.5725 -0.1103c 0.2679,-0.1103 0.4674,-0.3099 0.4674 -0.3099c 0.1996,-0.1996 0.3151,-0.4832 0.3151 -0.4832c 0.1155,-0.2836 0.1155,-0.6303 0.1155 -0.6303c 0.0000,-0.6933 -0.3887,-1.0819 -0.3887 -1.0819c -0.3887,-0.3887 -1.0399,-0.3887 -1.0399 -0.3887c -0.3466,-0.0000 -0.5935,0.1050 -0.5935 0.1050c -0.2468,0.1050 -0.5515,0.3046 -0.5515 0.3046l -0.4622,-0.2941 l 0.2206,-3.2248 h 3.3508 v 0.7458 h -2.5945 l -0.1786,1.9853 c 0.2416,-0.1261 0.4832,-0.1996 0.4832 -0.1996c 0.2416,-0.0735 0.5462,-0.0735 0.5462 -0.0735c 0.4307,0.0000 0.8088,0.1261 0.8088 0.1261c 0.3782,0.1261 0.6618,0.3834 0.6618 0.3834c 0.2836,0.2574 0.4464,0.6513 0.4464 0.6513c 0.1628,0.3939 0.1628,0.9401 0.1628 0.9401c 0.0000,0.5462 -0.1891,0.9664 -0.1891 0.9664c -0.1891,0.4202 -0.5042,0.7090 -0.5042 0.7090c -0.3151,0.2889 -0.7195,0.4412 -0.7195 0.4412c -0.4044,0.1523 -0.8456,0.1523 -0.8456 0.1523c -0.3992,-0.0000 -0.7300,-0.0788 -0.7300 -0.0788c -0.3309,-0.0788 -0.5987,-0.2048 -0.5987 -0.2048c -0.2679,-0.1261 -0.4832,-0.2889 -0.4832 -0.2889c -0.2153,-0.1628 -0.3834,-0.3414 -0.3834 -0.3414ZM 224.6232,570.0000 ZM 227.2387,570.1261 c -1.0189,-0.0000 -1.5861,-0.9034 -1.5861 -0.9034c -0.5672,-0.9034 -0.5672,-2.5945 -0.5672 -2.5945c 0.0000,-1.6912 0.5672,-2.5735 0.5672 -2.5735c 0.5672,-0.8824 1.5861,-0.8824 1.5861 -0.8824c 1.0084,0.0000 1.5756,0.8824 1.5756 0.8824c 0.5672,0.8824 0.5672,2.5735 0.5672 2.5735c 0.0000,1.6912 -0.5672,2.5945 -0.5672 2.5945c -0.5672,0.9034 -1.5756,0.9034 -1.5756 0.9034ZM 227.2387,570.1261 ZM 227.2387,569.4328 c 0.2941,0.0000 0.5305,-0.1628 0.5305 -0.1628c 0.2363,-0.1628 0.4097,-0.5042 0.4097 -0.5042c 0.1733,-0.3414 0.2679,-0.8718 0.2679 -0.8718c 0.0945,-0.5305 0.0945,-1.2658 0.0945 -1.2658c 0.0000,-0.7353 -0.0945,-1.2605 -0.0945 -1.2605c -0.0945,-0.5252 -0.2679,-0.8561 -0.2679 -0.8561c -0.1733,-0.3309 -0.4097,-0.4884 -0.4097 -0.4884c -0.2363,-0.1576 -0.5305,-0.1576 -0.5305 -0.1576c -0.2941,-0.0000 -0.5357,0.1576 -0.5357 0.1576c -0.2416,0.1576 -0.4149,0.4884 -0.4149 0.4884c -0.1733,0.3309 -0.2679,0.8561 -0.2679 0.8561c -0.0945,0.5252 -0.0945,1.2605 -0.0945 1.2605c 0.0000,1.4706 0.3624,2.1376 0.3624 2.1376c 0.3624,0.6670 0.9506,0.6670 0.9506 0.6670Z"/></g><defs></defs><g stroke-linejoin="bevel" stroke-opacity="0.0" fill-opacity="1.0" stroke="rgb(0,0,0)" stroke-width="0.0" fill="rgb(0,0,0)" stroke-linecap="butt" stroke-miterlimit="10.0"><path d="M 400.3283,570.0000 ZM 401.0110,568.6450 c 0.2941,0.3046 0.6985,0.5357 0.6985 0.5357c 0.4044,0.2311 0.9926,0.2311 0.9926 0.2311c 0.3046,0.0000 0.5725,-0.1103 0.5725 -0.1103c 0.2679,-0.1103 0.4674,-0.3099 0.4674 -0.3099c 0.1996,-0.1996 0.3151,-0.4832 0.3151 -0.4832c 0.1155,-0.2836 0.1155,-0.6303 0.1155 -0.6303c 0.0000,-0.6933 -0.3887,-1.0819 -0.3887 -1.0819c -0.3887,-0.3887 -1.0399,-0.3887 -1.0399 -0.3887c -0.3466,-0.0000 -0.5935,0.1050 -0.5935 0.1050c -0.2468,0.1050 -0.5515,0.3046 -0.5515 0.3046l -0.4622,-0.2941 l 0.2206,-3.2248 h 3.3508 v 0.7458 h -2.5945 l -0.1786,1.9853 c 0.2416,-0.1261 0.4832,-0.1996 0.4832 -0.1996c 0.2416,-0.0735 0.5462,-0.0735 0.5462 -0.0735c 0.4307,0.0000 0.8088,0.1261 0.8088 0.1261c 0.3782,0.1261 0.6618,0.3834 0.6618 0.3834c 0.2836,0.2574 0.4464,0.6513 0.4464 0.6513c 0.1628,0.3939 0.1628,0.9401 0.1628 0.9401c 0.0000,0.5462 -0.1891,0.9664 -0.1891 0.9664c -0.1891,0.4202 -0.5042,0.7090 -0.5042 0.7090c -0.3151,0.2889 -0.7195,0.4412 -0.7195 0.4412c -0.4044,0.1523 -0.8456,0.1523 -0.8456 0.1523c -0.3992,-0.0000 -0.7300,-0.0788 -0.7300 -0.0788c -0.3309,-0.0788 -0.5987,-0.2048 -0.5987 -0.2048c -0.2679,-0.1261 -0.4832,-0.2889 -0.4832 -0.2889c -0.2153,-0.1628 -0.3834,-0.3414 -0.3834 -0.3414ZM 405.5488,570.0000 ZM 408.1644,570.1261 c -1.0189,-0.0000 -1.5861,-0.9034 -1.5861 -0.9034c -0.5672,-0.9034 -0.5672,-2.5945 -0.5672 -2.5945c 0.0000,-1.6912 0.5672,-2.5735 0.5672 -2.5735c 0.5672,-0.8824 1.5861,-0.8824 1.5861 -0.8824c 1.0084,0.0000 1.5756,0.8824 1.5756 0.8824c 0.5672,0.8824 0.5672,2.5735 0.5672 2.5735c 0.0000,1.6912 -0.5672,2.5945 -0.5672 2.5945c -0.5672,0.9034 -1.5756,0.9034 -1.5756 0.9034ZM 408.1644,570.1261 ZM 408.1644,569.4328 c 0.2941,0.0000 0.5305,-0.1628 0.5305 -0.1628c 0.2363,-0.1628 0.4097,-0.5042 0.4097 -0.5042c 0.1733,-0.3414 0.2679,-0.8718 0.2679 -0.8718c 0.0945,-0.5305 0.0945,-1.2658 0.0945 -1.2658c 0.0000,-0.7353 -0.0945,-1.2605 -0.0945 -1.2605c -0.0945,-0.5252 -0.2679,-0.8561 -0.2679 -0.8561c -0.1733,-0.3309 -0.4097,-0.4884 -0.4097 -0.4884c -0.2363,-0.1576 -0.5305,-0.1576 -0.5305 -0.1576c -0.2941,-0.0000 -0.5357,0.1576 -0.5357 0.1576c -0.2416,0.1576 -0.4149,0.4884 -0.4149 0.4884c -0.1733,0.3309 -0.2679,0.8561 -0.2679 0.8561c -0.0945,0.5252 -0.0945,1.2605 -0.0945 1.2605c 0.0000,1.4706 0.3624,2.1376 0.3624 2.1376c 0.3624,0.6670 0.9506,0.6670 0.9506 0.6670ZM 410.7694,570.0000 ZM 413.3850,570.1261 c -1.0189,-0.0000 -1.5861,-0.9034 -1.5861 -0.9034c -0.5672,-0.9034 -0.5672,-2.5945 -0.5672 -2.5945c 0.0000,-1.6912 0.5672,-2.5735 0.5672 -2.5735c 0.5672,-0.8824 1.5861,-0.8824 1.5861 -0.8824c 1.0084,0.0000 1.5756,0.8824 1.5756 0.8824c 0.5672,0.8824 0.5672,2.5735 0.5672 2.5735c 0.0000,1.6912 -0.5672,2.5945 -0.5672 2.5945c -0.5672,0.9034 -1.5756,0.9034 -1.5756 0.9034ZM 413.3850,570.1261 ZM 413.3850,569.4328 c 0.2941,0.0000 0.5305,-0.1628 0.5305 -0.1628c 0.2363,-0.1628 0.4097,-0.5042 0.4097 -0.5042c 0.1733,-0.3414 0.2679,-0.8718 0.2679 -0.8718c 0.0945,-0.5305 0.0945,-1.2658 0.0945 -1.2658c 0.0000,-0.7353 -0.0945,-1.2605 -0.0945 -1.2605c -0.0945,-0.5252 -0.2679,-0.8561 -0.2679 -0.8561c -0.1733,-0.3309 -0.4097,-0.4884 -0.4097 -0.4884c -0.2363,-0.1576 -0.5305,-0.1576 -0.5305 -0.1576c -0.2941,-0.0000 -0.5357,0.1576 -0.5357 0.1576c -0.2416,0.1576 -0.4149,0.4884 -0.4149 0.4884c -0.1733,0.3309 -0.2679,0.8561 -0.2679 0.8561c -0.0945,0.5252 -0.0945,1.2605 -0.0945 1.2605c 0.0000,1.4706 0.3624,2.1376 0.3624 2.1376c 0.3624,0.6670 0.9506,0.6670 0.9506 0.6670Z"/></g><defs></defs><g stroke-linejoin="bevel" stroke-opacity="0.0" fill-opacity="1.0" stroke="rgb(0,0,0)" stroke-width="0.0" fill="rgb(0,0,0)" stroke-linecap="butt" stroke-miterlimit="10.0"><path d="M 586.6321,570.0000 ZM 588.4913,570.0000 c 0.0420,-0.9454 0.1681,-1.7332 0.1681 -1.7332c 0.1261,-0.7878 0.3519,-1.4968 0.3519 -1.4968c 0.2258,-0.7090 0.5777,-1.3708 0.5777 -1.3708c 0.3519,-0.6618 0.8456,-1.3550 0.8456 -1.3550h -3.3403 v -0.7458 h 4.3172 v 0.5357 c -0.5987,0.7563 -0.9716,1.4496 -0.9716 1.4496c -0.3729,0.6933 -0.5935,1.4128 -0.5935 1.4128c -0.2206,0.7195 -0.3204,1.5231 -0.3204 1.5231c -0.0998,0.8036 -0.1418,1.7805 -0.1418 1.7805h -0.8929 h 0.0000 ZM 591.8527,570.0000 ZM 592.5355,568.6450 c 0.2941,0.3046 0.6985,0.5357 0.6985 0.5357c 0.4044,0.2311 0.9926,0.2311 0.9926 0.2311c 0.3046,0.0000 0.5725,-0.1103 0.5725 -0.1103c 0.2679,-0.1103 0.4674,-0.3099 0.4674 -0.3099c 0.1996,-0.1996 0.3151,-0.4832 0.3151 -0.4832c 0.1155,-0.2836 0.1155,-0.6303 0.1155 -0.6303c 0.0000,-0.6933 -0.3887,-1.0819 -0.3887 -1.0819c -0.3887,-0.3887 -1.0399,-0.3887 -1.0399 -0.3887c -0.3466,-0.0000 -0.5935,0.1050 -0.5935 0.1050c -0.2468,0.1050 -0.5515,0.3046 -0.5515 0.3046l -0.4622,-0.2941 l 0.2206,-3.2248 h 3.3508 v 0.7458 h -2.5945 l -0.1786,1.9853 c 0.2416,-0.1261 0.4832,-0.1996 0.4832 -0.1996c 0.2416,-0.0735 0.5462,-0.0735 0.5462 -0.0735c 0.4307,0.0000 0.8088,0.1261 0.8088 0.1261c 0.3782,0.1261 0.6618,0.3834 0.6618 0.3834c 0.2836,0.2574 0.4464,0.6513 0.4464 0.6513c 0.1628,0.3939 0.1628,0.9401 0.1628 0.9401c 0.0000,0.5462 -0.1891,0.9664 -0.1891 0.9664c -0.1891,0.4202 -0.5042,0.7090 -0.5042 0.7090c -0.3151,0.2889 -0.7195,0.4412 -0.7195 0.4412c -0.4044,0.1523 -0.8456,0.1523 -0.8456 0.1523c -0.3992,-0.0000 -0.7300,-0.0788 -0.7300 -0.0788c -0.3309,-0.0788 -0.5987,-0.2048 -0.5987 -0.2048c -0.2679,-0.1261 -0.4832,-0.2889 -0.4832 -0.2889c -0.2153,-0.1628 -0.3834,-0.3414 -0.3834 -0.3414ZM 597.0733,570.0000 ZM 599.6888,570.1261 c -1.0189,-0.0000 -1.5861,-0.9034 -1.5861 -0.9034c -0.5672,-0.9034 -0.5672,-2.5945 -0.5672 -2.5945c 0.0000,-1.6912 0.5672,-2.5735 0.5672 -2.5735c 0.5672,-0.8824 1.5861,-0.8824 1.5861 -0.8824c 1.0084,0.0000 1.5756,0.8824 1.5756 0.8824c 0.5672,0.8824 0.5672,2.5735 0.5672 2.5735c 0.0000,1.6912 -0.5672,2.5945 -0.5672 2.5945c -0.5672,0.9034 -1.5756,0.9034 -1.5756 0.9034ZM 599.6888,570.1261 ZM 599.6888,569.4328 c 0.2941,0.0000 0.5305,-0.1628 0.5305 -0.1628c 0.2363,-0.1628 0.4097,-0.5042 0.4097 -0.5042c 0.1733,-0.3414 0.2679,-0.8718 0.2679 -0.8718c 0.0945,-0.5305 0.0945,-1.2658 0.0945 -1.2658c 0.0000,-0.7353 -0.0945,-1.2605 -0.0945 -1.2605c -0.0945,-0.5252 -0.2679,-0.8561 -0.2679 -0.8561c -0.1733,-0.3309 -0.4097,-0.4884 -0.4097 -0.4884c -0.2363,-0.1576 -0.5305,-0.1576 -0.5305 -0.1576c -0.2941,-0.0000 -0.5357,0.1576 -0.5357 0.1576c -0.2416,0.1576 -0.4149,0.4884 -0.4149 0.4884c -0.1733,0.3309 -0.2679,0.8561 -0.2679 0.8561c -0.0945,0.5252 -0.0945,1.2605 -0.0945 1.2605c 0.0000,1.4706 0.3624,2.1376 0.3624 2.1376c 0.3624,0.6670 0.9506,0.6670 0.9506 0.6670Z"/></g><defs></defs><g stroke-linejoin="bevel" stroke-opacity="0.0" fill-opacity="1.0" stroke="rgb(0,0,0)" stroke-width="0.0" fill="rgb(0,0,0)" stroke-linecap="butt" stroke-miterlimit="10.0"><path d="M 770.4097,570.0000 ZM 771.2395,569.2857 h 1.5336 v -4.9370 h -1.2185 v -0.5567 c 0.4622,-0.0840 0.8036,-0.2048 0.8036 -0.2048c 0.3414,-0.1208 0.6145,-0.2889 0.6145 -0.2889h 0.6618 v 5.9874 h 1.3866 v 0.7143 h -3.7815 v -0.7143 ZM 775.6303,570.0000 ZM 778.2458,570.1261 c -1.0189,-0.0000 -1.5861,-0.9034 -1.5861 -0.9034c -0.5672,-0.9034 -0.5672,-2.5945 -0.5672 -2.5945c 0.0000,-1.6912 0.5672,-2.5735 0.5672 -2.5735c 0.5672,-0.8824 1.5861,-0.8824 1.5861 -0.8824c 1.0084,0.0000 1.5756,0.8824 1.5756 0.8824c 0.5672,0.8824 0.5672,2.5735 0.5672 2.5735c 0.0000,1.6912 -0.5672,2.5945 -0.5672 2.5945c -0.5672,0.9034 -1.5756,0.9034 -1.5756 0.9034ZM 778.2458,570.1261 ZM 778.2458,569.4328 c 0.2941,0.0000 0.5305,-0.1628 0.5305 -0.1628c 0.2363,-0.1628 0.4097,-0.5042 0.4097 -0.5042c 0.1733,-0.3414 0.2679,-0.8718 0.2679 -0.8718c 0.0945,-0.5305 0.0945,-1.2658 0.0945 -1.2658c 0.0000,-0.7353 -0.0945,-1.2605 -0.0945 -1.2605c -0.0945,-0.5252 -0.2679,-0.8561 -0.2679 -0.8561c -0.1733,-0.3309 -0.4097,-0.4884 -0.4097 -0.4884c -0.2363,-0.1576 -0.5305,-0.1576 -0.5305 -0.1576c -0.2941,-0.0000 -0.5357,0.1576 -0.5357 0.1576c -0.2416,0.1576 -0.4149,0.4884 -0.4149 0.4884c -0.1733,0.3309 -0.2679,0.8561 -0.2679 0.8561c -0.0945,0.5252 -0.0945,1.2605 -0.0945 1.2605c 0.0000,1.4706 0.3624,2.1376 0.3624 2.1376c 0.3624,0.6670 0.9506,0.6670 0.9506 0.6670ZM 780.8508,570.0000 ZM 783.4664,570.1261 c -1.0189,-0.0000 -1.5861,-0.9034 -1.5861 -0.9034c -0.5672,-0.9034 -0.5672,-2.5945 -0.5672 -2.5945c 0.0000,-1.6912 0.5672,-2.5735 0.5672 -2.5735c 0.5672,-0.8824 1.5861,-0.8824 1.5861 -0.8824c 1.0084,0.0000 1.5756,0.8824 1.5756 0.8824c 0.5672,0.8824 0.5672,2.5735 0.5672 2.5735c 0.0000,1.6912 -0.5672,2.5945 -0.5672 2.5945c -0.5672,0.9034 -1.5756,0.9034 -1.5756 0.9034ZM 783.4664,570.1261 ZM 783.4664,569.4328 c 0.2941,0.0000 0.5305,-0.1628 0.5305 -0.1628c 0.2363,-0.1628 0.4097,-0.5042 0.4097 -0.5042c 0.1733,-0.3414 0.2679,-0.8718 0.2679 -0.8718c 0.0945,-0.5305 0.0945,-1.2658 0.0945 -1.2658c 0.0000,-0.7353 -0.0945,-1.2605 -0.0945 -1.2605c -0.0945,-0.5252 -0.2679,-0.8561 -0.2679 -0.8561c -0.1733,-0.3309 -0.4097,-0.4884 -0.4097 -0.4884c -0.2363,-0.1576 -0.5305,-0.1576 -0.5305 -0.1576c -0.2941,-0.0000 -0.5357,0.1576 -0.5357 0.1576c -0.2416,0.1576 -0.4149,0.4884 -0.4149 0.4884c -0.1733,0.3309 -0.2679,0.8561 -0.2679 0.8561c -0.0945,0.5252 -0.0945,1.2605 -0.0945 1.2605c 0.0000,1.4706 0.3624,2.1376 0.3624 2.1376c 0.3624,0.6670 0.9506,0.6670 0.9506 0.6670ZM 786.0714,570.0000 ZM 788.6870,570.1261 c -1.0189,-0.0000 -1.5861,-0.9034 -1.5861 -0.9034c -0.5672,-0.9034 -0.5672,-2.5945 -0.5672 -2.5945c 0.0000,-1.6912 0.5672,-2.5735 0.5672 -2.5735c 0.5672,-0.8824 1.5861,-0.8824 1.5861 -0.8824c 1.0084,0.0000 1.5756,0.8824 1.5756 0.8824c 0.5672,0.8824 0.5672,2.5735 0.5672 2.5735c 0.0000,1.6912 -0.5672,2.5945 -0.5672 2.5945c -0.5672,0.9034 -1.5756,0.9034 -1.5756 0.9034ZM 788.6870,570.1261 ZM 788.6870,569.4328 c 0.2941,0.0000 0.5305,-0.1628 0.5305 -0.1628c 0.2363,-0.1628 0.4097,-0.5042 0.4097 -0.5042c 0.1733,-0.3414 0.2679,-0.8718 0.2679 -0.8718c 0.0945,-0.5305 0.0945,-1.2658 0.0945 -1.2658c 0.0000,-0.7353 -0.0945,-1.2605 -0.0945 -1.2605c -0.0945,-0.5252 -0.2679,-0.8561 -0.2679 -0.8561c -0.1733,-0.3309 -0.4097,-0.4884 -0.4097 -0.4884c -0.2363,-0.1576 -0.5305,-0.1576 -0.5305 -0.1576c -0.2941,-0.0000 -0.5357,0.1576 -0.5357 0.1576c -0.2416,0.1576 -0.4149,0.4884 -0.4149 0.4884c -0.1733,0.3309 -0.2679,0.8561 -0.2679 0.8561c -0.0945,0.5252 -0.0945,1.2605 -0.0945 1.2605c 0.0000,1.4706 0.3624,2.1376 0.3624 2.1376c 0.3624,0.6670 0.9506,0.6670 0.9506 0.6670Z"/></g><defs></defs><g stroke-linejoin="round" stroke-opacity="1.0" fill-opacity="0.0" stroke="rgb(0,0,255)" stroke-width="0.9999999999999997" fill="rgb(0,0,0)" stroke-linecap="round" stroke-miterlimit="10.0"><path d="M 10.0000,585.0000 h 20.0000 "/></g><defs></defs><g stroke-linejoin="bevel" stroke-opacity="0.0" fill-opacity="1.0" stroke="rgb(0,0,0)" stroke-width="0.0" fill="rgb(0,0,0)" stroke-linecap="butt" stroke-miterlimit="10.0"><path d="M 35.0735,586.6071 ZM 38.9496,583.8025 l -0.3256,-1.0504 c -0.1891,-0.5777 -0.3571,-1.1502 -0.3571 -1.1502c -0.1681,-0.5725 -0.3361,-1.1712 -0.3361 -1.1712h -0.0420 c -0.1576,0.5987 -0.3256,1.1712 -0.3256 1.1712c -0.1681,0.5725 -0.3571,1.1502 -0.3571 1.1502l -0.3256,1.0504 h 2.0693 ZM 38.9496,583.8025 ZM 39.1702,584.5063 h -2.5105 l -0.6618,2.1008 h -0.8929 l 2.3319,-6.8908 h 0.9874 l 2.3319,6.8908 h -0.9349 ZM 40.7878,586.6071 ZM 41.7332,579.7164 h 1.7227 c 1.5966,0.0000 2.4265,0.8824 2.4265 0.8824c 0.8298,0.8824 0.8298,2.5315 0.8298 2.5315c 0.0000,0.8193 -0.2101,1.4653 -0.2101 1.4653c -0.2101,0.6460 -0.6197,1.0924 -0.6197 1.0924c -0.4097,0.4464 -1.0084,0.6828 -1.0084 0.6828c -0.5987,0.2363 -1.3761,0.2363 -1.3761 0.2363h -1.7647 v -6.8908 ZM 41.7332,579.7164 ZM 43.3929,585.8929 c 1.2080,0.0000 1.8120,-0.7248 1.8120 -0.7248c 0.6040,-0.7248 0.6040,-2.0378 0.6040 -2.0378c 0.0000,-1.3130 -0.6040,-2.0063 -0.6040 -2.0063c -0.6040,-0.6933 -1.8120,-0.6933 -1.8120 -0.6933h -0.7878 v 5.4622 h 0.7878 ZM 47.2479,586.6071 ZM 48.1933,579.7164 h 3.9706 v 0.7353 h -3.0987 v 2.1639 h 2.6155 v 0.7458 h -2.6155 v 2.5000 h 3.2038 v 0.7458 h -4.0756 v -6.8908 ZM 52.7836,586.6071 ZM 52.7836,579.7164 h 0.9349 l 1.1029,3.7185 c 0.1891,0.6197 0.3309,1.1450 0.3309 1.1450c 0.1418,0.5252 0.3414,1.1345 0.3414 1.1345h 0.0420 c 0.1891,-0.6092 0.3361,-1.1345 0.3361 -1.1345c 0.1471,-0.5252 0.3256,-1.1450 0.3256 -1.1450l 1.1029,-3.7185 h 0.8929 l -2.1849,6.8908 h -1.0189 Z"/></g></svg>