<?xml version="1.0" encoding="UTF-8"?>
<!DOCTYPE svg PUBLIC "-//W3C//DTD SVG 1.1//EN"
    "http://www.w3.org/Graphics/SVG/1.1/DTD/svg11.dtd"><svg xmlns="http://www.w3.org/2000/svg" height="600.0000" stroke-opacity="1" viewBox="0 0 800 600" font-size="1" width="800.0000" xmlns:xlink="http://www.w3.org/1999/xlink" stroke="rgb(0,0,0)" version="1.1"><defs></defs><defs></defs><g stroke-linejoin="bevel" stroke-opacity="0.0" fill-opacity="1.0" stroke="rgb(0,0,0)" stroke-width="0.0" fill="rgb(255,255,255)" stroke-linecap="butt" stroke-miterlimit="10.0"><path d="M 0.0000,0.0000 v 600.0000 h 800.0000 v -600.0000 Z"/></g><defs></defs><g stroke-linejoin="miter" stroke-opacity="1.0" fill-opacity="0.0" stroke="rgb(211,211,211)" stroke-width="0.9999999999999997" fill="rgb(0,0,0)" stroke-dashoffset="0.0" stroke-linecap="butt" stroke-miterlimit="10.0" stroke-dasharray="4.999999999999998,4.999999999999998"><path d="M 35.3887,15.0000 v 535.0000 "/></g><defs></defs><g stroke-linejoin="miter" stroke-opacity="1.0" fill-opacity="0.0" stroke="rgb(211,211,211)" stroke-width="0.9999999999999997" fill="rgb(0,0,0)" stroke-dashoffset="0.0" stroke-linecap="butt" stroke-miterlimit="10.0" stroke-dasharray="4.999999999999998,4.999999999999998"><path d="M 221.5927,15.0000 v 535.0000 "/></g><defs></defs><g stroke-linejoin="miter" stroke-opacity="1.0" fill-opacity="0.0" stroke="rgb(211,211,211)" stroke-width="0.9999999999999997" fill="rgb(0,0,0)" stroke-dashoffset="0.0" stroke-linecap="butt" stroke-miterlimit="10.0" stroke-dasharray="4.999999999999998,4.999999999999998"><path d="M 407.7967,15.0000 v 535.0000 "/></g><defs></defs><g stroke-linejoin="miter" stroke-opacity="1.0" fill-opacity="0.0" stroke="rgb(211,211,211)" stroke-width="0.9999999999999997" fill="rgb(0,0,0)" stroke-dashoffset="0.0" stroke-linecap="butt" stroke-miterlimit="10.0" stroke-dasharray="4.999999999999998,4.999999999999998"><path d="M 594.0008,15.0000 v 535.0000 "/></g><defs></defs><g stroke-linejoin="miter" stroke-opacity="1.0" fill-opacity="0.0" stroke="rgb(211,211,211)" stroke-width="0.9999999999999997" fill="rgb(0,0,0)" stroke-dashoffset="0.0" stroke-linecap="butt" stroke-miterlimit="10.0" stroke-dasharray="4.999999999999998,4.999999999999998"><path d="M 780.2048,15.0000 v 535.0000 "/></g><defs></defs><g stroke-linejoin="miter" stroke-opacity="1.0" fill-opacity="0.0" stroke="rgb(211,211,211)" stroke-width="0.9999999999999997" fill="rgb(0,0,0)" stroke-dashoffset="0.0" stroke-linecap="butt" stroke-miterlimit="10.0" stroke-dasharray="4.999999999999998,4.999999999999998"><path d="M 35.3887,550.0000 h 744.8162 "/></g><defs></defs><g stroke-linejoin="miter" stroke-opacity="1.0" fill-opacity="0.0" stroke="rgb(211,211,211)" stroke-width="0.9999999999999997" fill="rgb(0,0,0)" stroke-dashoffset="0.0" stroke-linecap="butt" stroke-miterlimit="10.0" stroke-dasharray="4.999999999999998,4.999999999999998"><path d="M 35.3887,416.2500 h 744.8162 "/></g><defs></defs><g stroke-linejoin="miter" stroke-opacity="1.0" fill-opacity="0.0" stroke="rgb(211,211,211)" stroke-width="0.9999999999999997" fill="rgb(0,0,0)" stroke-dashoffset="0.0" stroke-linecap="butt" stroke-miterlimit="10.0" stroke-dasharray="4.999999999999998,4.999999999999998"><path d="M 35.3887,282.5000 h 744.8162 "/></g><defs></defs><g stroke-linejoin="miter" stroke-opacity="1.0" fill-opacity="0.0" stroke="rgb(211,211,211)" stroke-width="0.9999999999999997" fill="rgb(0,0,0)" stroke-dashoffset="0.0" stroke-linecap="butt" stroke-miterlimit="10.0" stroke-dasharray="4.999999999999998,4.999999999999998"><path d="M 35.3887,148.7500 h 744.8162 "/></g><defs></defs><g stroke-linejoin="miter" stroke-opacity="1.0" fill-opacity="0.0" stroke="rgb(211,211,211)" stroke-width="0.9999999999999997" fill="rgb(0,0,0)" stroke-dashoffset="0.0" stroke-linecap="butt" stroke-miterlimit="10.0" stroke-dasharray="4.999999999999998,4.999999999999998"><path d="M 35.3887,15.0000 h 744.8162 "/></g><defs></defs><g stroke-linejoin="round" stroke-opacity="1.0" fill-opacity="0.0" stroke="rgb(0,0,255)" stroke-width="0.9999999999999997" fill="rgb(0,0,0)" stroke-linecap="round" stroke-miterlimit="10.0"><defs><clipPath id="myClip1"><path d="M 35.3887,15.0000 v 535.0000 h 744.8162 v -535.0000 Z"/></clipPath></defs><g clip-path="url(#myClip1)"><path d="M 36.1335,398.8750 l 0.7448,-301.5413 l 0.7448,88.9154 l 0.7448,-90.5066 l 0.7448,81.7430 l 0.7448,-6.6428 l 0.7448,270.6404 l 0.7448,-318.4700 l 0.7448,384.4229 l 0.7448,-238.9718 l 0.7448,-128.4354 l 0.7448,-26.7726 l 0.7448,184.3724 l 0.7448,-25.6523 l 0.7448,240.7033 l 0.7448,-329.4596 l 0.7448,123.0682 l 0.7448,-259.4101 l 0.7448,110.0750 l 0.7448,303.2806 l 0.7448,65.5591 l 0.7448,-374.7111 l 0.7448,148.0994 l 0.7448,-119.4762 l 0.7448,212.3044 l 0.7448,-282.8682 l 0.7448,10.8851 l 0.7448,-82.4783 l 0.7448,306.6148 l 0.7448,118.5198 l 0.7448,-315.0758 l 0.7448,377.1154 l 0.7448,-179.0103 l 0.7448,68.4675 l 0.7448,11.8501 l 0.7448,93.9986 l 0.7448,-454.1307 l 0.7448,289.9421 l 0.7448,-240.6487 l 0.7448,8.3282 l 0.7448,214.1258 l 0.7448,-302.3948 l 0.7448,162.9075 l 0.7448,224.0364 l 0.7448,-1.6963 l 0.7448,-46.7147 l 0.7448,-64.5096 l 0.7448,-104.0004 l 0.7448,-173.3974 l 0.7448,385.2794 l 0.7448,-251.7185 l 0.7448,-18.1583 l 0.7448,-47.5453 l 0.7448,24.6799 l 0.7448,51.3308 l 0.7448,-94.4321 l 0.7448,39.1648 l 0.7448,395.0124 l 0.7448,-333.5909 l 0.7448,19.3405 l 0.7448,104.6694 l 0.7448,-89.6477 l 0.7448,-117.8771 l 0.7448,96.5546 l 0.7448,45.9897 l 0.7448,-108.5149 l 0.7448,174.1751 l 0.7448,154.3781 l 0.7448,-274.8673 l 0.7448,-56.7277 l 0.7448,180.6933 l 0.7448,-239.0389 l 0.7448,389.7546 l 0.7448,-230.8629 l 0.7448,233.2659 l 0.7448,0.4536 l 0.7448,-417.8371 l 0.7448,459.4049 l 0.7448,-285.2005 l 0.7448,-136.4881 l 0.7448,-49.5919 l 0.7448,287.4023 l 0.7448,-101.0157 l 0.7448,76.3073 l 0.7448,206.7584 l 0.7448,-220.4442 l 0.7448,-101.5570 l 0.7448,66.1965 l 0.7448,66.4068 l 0.7448,111.7898 l 0.7448,-40.0670 l 0.7448,36.9203 l 0.7448,39.2685 l 0.7448,-186.9452 l 0.7448,-171.2330 l 0.7448,233.1154 l 0.7448,76.8706 l 0.7448,-136.1612 l 0.7448,107.5888 l 0.7448,-50.4917 l 0.7448,-152.0078 l 0.7448,176.9166 l 0.7448,116.6335 l 0.7448,-117.9239 l 0.7448,-303.5820 l 0.7448,243.0167 l 0.7448,-164.6380 l 0.7448,369.7166 l 0.7448,-169.5423 l 0.7448,-169.6931 l 0.7448,134.7645 l 0.7448,150.9961 l 0.7448,-204.5821 l 0.7448,-122.9043 l 0.7448,222.9909 l 0.7448,-103.9190 l 0.7448,-72.9284 l 0.7448,327.3014 l 0.7448,-337.5770 l 0.7448,22.8275 l 0.7448,-136.5505 l 0.7448,351.7806 l 0.7448,-28.8660 l 0.7448,-145.8626 l 0.7448,176.2155 l 0.7448,92.4999 l 0.7448,-89.3602 l 0.7448,-8.9899 l 0.7448,-345.7059 l 0.7448,426.4476 l 0.7448,-413.9859 l 0.7448,12.8242 l 0.7448,222.6337 l 0.7448,-216.7097 l 0.7448,192.0202 l 0.7448,-75.9002 l 0.7448,268.3700 l 0.7448,52.4539 l 0.7448,-240.0418 l 0.7448,-171.0861 l 0.7448,366.1124 l 0.7448,-35.4704 l 0.7448,-345.0595 l 0.7448,348.5044 l 0.7448,-39.8170 l 0.7448,49.5781 l 0.7448,-327.7376 l 0.7448,33.9154 l 0.7448,220.6896 l 0.7448,40.9286 l 0.7448,-226.0268 l 0.7448,73.2180 l 0.7448,-10.0223 l 0.7448,205.0343 l 0.7448,-105.8386 l 0.7448,154.5269 l 0.7448,-28.1937 l 0.7448,-283.9332 l 0.7448,187.5762 l 0.7448,10.7842 l 0.7448,-132.6556 l 0.7448,155.4079 l 0.7448,-294.5468 l 0.7448,-30.9048 l 0.7448,291.3154 l 0.7448,-339.0541 l 0.7448,172.0339 l 0.7448,-167.5299 l 0.7448,82.8668 l 0.7448,119.0703 l 0.7448,107.1530 l 0.7448,-158.5239 l 0.7448,117.9519 l 0.7448,193.3783 l 0.7448,14.4303 l 0.7448,-97.6411 l 0.7448,-79.3965 l 0.7448,93.3583 l 0.7448,-198.9031 l 0.7448,162.2987 l 0.7448,109.6128 l 0.7448,-404.0902 l 0.7448,168.3966 l 0.7448,-42.5758 l 0.7448,181.8334 l 0.7448,68.1999 l 0.7448,-232.9249 l 0.7448,111.9551 l 0.7448,-260.7978 l 0.7448,93.3586 l 0.7448,180.0997 l 0.7448,-313.8101 l 0.7448,406.0153 l 0.7448,-307.6405 l 0.7448,154.2509 l 0.7448,219.7222 l 0.7448,-230.1379 l 0.7448,-237.4754 l 0.7448,211.2201 l 0.7448,-181.1472 l 0.7448,80.4213 l 0.7448,25.1691 l 0.7448,-135.2486 l 0.7448,287.1747 l 0.7448,-115.9817 l 0.7448,126.9375 l 0.7448,-228.0424 l 0.7448,233.5009 l 0.7448,-259.2328 l 0.7448,132.5748 l 0.7448,245.5875 l 0.7448,-56.0746 l 0.7448,-290.0527 l 0.7448,142.6654 l 0.7448,127.8559 l 0.7448,-154.3361 l 0.7448,-71.6549 l 0.7448,73.7479 l 0.7448,-54.8786 l 0.7448,-16.8583 l 0.7448,319.5731 l 0.7448,-349.6850 l 0.7448,324.8917 l 0.7448,-238.0607 l 0.7448,-15.3752 l 0.7448,169.2961 l 0.7448,-210.7282 l 0.7448,-33.1996 l 0.7448,332.9540 l 0.7448,-252.4355 l 0.7448,143.1723 l 0.7448,65.0533 l 0.7448,-301.3914 l 0.7448,329.5847 l 0.7448,-391.2792 l 0.7448,305.1135 l 0.7448,27.3048 l 0.7448,-262.6941 l 0.7448,128.2634 l 0.7448,-38.4903 l 0.7448,-65.8781 l 0.7448,225.5225 l 0.7448,-338.5207 l 0.7448,28.7610 l 0.7448,184.6637 l 0.7448,40.3648 l 0.7448,161.1098 l 0.7448,-334.3905 l 0.7448,124.9952 l 0.7448,-204.8705 l 0.7448,467.2928 l 0.7448,-410.9258 l 0.7448,-20.7178 l 0.7448,105.6339 l 0.7448,239.9139 l 0.7448,17.7938 l 0.7448,-400.2074 l 0.7448,54.6314 l 0.7448,207.5567 l 0.7448,-205.2810 l 0.7448,-42.1531 l 0.7448,269.5529 l 0.7448,-177.8550 l 0.7448,108.1987 l 0.7448,-59.6608 l 0.7448,194.4102 l 0.7448,23.8593 l 0.7448,-12.1497 l 0.7448,-69.6297 l 0.7448,-288.3676 l 0.7448,279.5460 l 0.7448,-107.6340 l 0.7448,-55.1134 l 0.7448,-152.1427 l 0.7448,68.0065 l 0.7448,247.1746 l 0.7448,11.9991 l 0.7448,-202.9205 l 0.7448,119.5509 l 0.7448,-34.2863 l 0.7448,-209.5420 l 0.7448,134.3032 l 0.7448,267.0691 l 0.7448,-215.6913 l 0.7448,41.5399 l 0.7448,53.1639 l 0.7448,105.3959 l 0.7448,-235.1874 l 0.7448,128.2144 l 0.7448,-268.2546 l 0.7448,40.5904 l 0.7448,150.2637 l 0.7448,189.3781 l 0.7448,72.3530 l 0.7448,-366.4865 l 0.7448,373.5225 l 0.7448,-285.4117 l 0.7448,76.1489 l 0.7448,220.8488 l 0.7448,-288.3779 l 0.7448,78.3473 l 0.7448,-16.0076 l 0.7448,186.1051 l 0.7448,-185.5740 l 0.7448,-78.4954 l 0.7448,164.8348 l 0.7448,-56.7937 l 0.7448,-34.0196 l 0.7448,-128.7042 l 0.7448,271.7281 l 0.7448,84.7449 l 0.7448,-297.1695 l 0.7448,1.5565 l 0.7448,279.1097 l 0.7448,-324.3287 l 0.7448,291.5679 l 0.7448,-218.4416 l 0.7448,-156.0794 l 0.7448,264.4420 l 0.7448,-141.1684 l 0.7448,44.9490 l 0.7448,-187.0612 l 0.7448,-32.8520 l 0.7448,189.0220 l 0.7448,103.7270 l 0.7448,209.2116 l 0.7448,-96.2952 l 0.7448,96.0807 l 0.7448,-280.2772 l 0.7448,98.5933 l 0.7448,-277.5673 l 0.7448,94.4692 l 0.7448,205.6437 l 0.7448,-223.9161 l 0.7448,146.2255 l 0.7448,225.5264 l 0.7448,-198.6022 l 0.7448,83.0173 l 0.7448,-339.4769 l 0.7448,232.5555 l 0.7448,-25.2893 l 0.7448,88.6379 l 0.7448,41.0227 l 0.7448,-326.4060 l 0.7448,61.2627 l 0.7448,-58.7659 l 0.7448,350.7999 l 0.7448,3.2277 l 0.7448,-173.5917 l 0.7448,-50.5437 l 0.7448,268.0087 l 0.7448,-255.2970 l 0.7448,141.2903 l 0.7448,29.3055 l 0.7448,-307.6351 l 0.7448,145.0789 l 0.7448,-49.7464 l 0.7448,-17.1809 l 0.7448,167.7198 l 0.7448,-4.6847 l 0.7448,-124.9785 l 0.7448,-35.2752 l 0.7448,135.1731 l 0.7448,87.2596 l 0.7448,141.6095 l 0.7448,-107.5998 l 0.7448,56.3189 l 0.7448,-260.9847 l 0.7448,-137.3846 l 0.7448,124.5364 l 0.7448,254.1120 l 0.7448,32.3422 l 0.7448,-373.0352 l 0.7448,399.5592 l 0.7448,-203.8997 l 0.7448,79.7440 l 0.7448,-347.0476 l 0.7448,-13.8254 l 0.7448,253.0336 l 0.7448,-150.7156 l 0.7448,254.5678 l 0.7448,-60.8257 l 0.7448,36.1366 l 0.7448,-209.4205 l 0.7448,78.6695 l 0.7448,206.8779 l 0.7448,-354.8533 l 0.7448,-53.1833 l 0.7448,118.2718 l 0.7448,38.4714 l 0.7448,-74.6390 l 0.7448,53.6210 l 0.7448,349.0282 l 0.7448,-368.2888 l 0.7448,200.9997 l 0.7448,13.0904 l 0.7448,139.3245 l 0.7448,-402.2935 l 0.7448,264.5280 l 0.7448,14.9065 l 0.7448,-102.0962 l 0.7448,-194.1932 l 0.7448,48.4569 l 0.7448,365.3092 l 0.7448,-81.8751 l 0.7448,23.0002 l 0.7448,73.3944 l 0.7448,-427.7846 l 0.7448,213.8480 l 0.7448,-158.1100 l 0.7448,285.8381 l 0.7448,0.1901 l 0.7448,-0.9256 l 0.7448,-220.4608 l 0.7448,-138.3933 l 0.7448,77.6038 l 0.7448,7.9301 l 0.7448,-83.6064 l 0.7448,220.3831 l 0.7448,-9.9951 l 0.7448,90.4977 l 0.7448,56.9885 l 0.7448,-233.5511 l 0.7448,-165.2562 l 0.7448,23.2152 l 0.7448,337.7447 l 0.7448,-332.6471 l 0.7448,408.0004 l 0.7448,18.2237 l 0.7448,-130.0499 l 0.7448,-107.8552 l 0.7448,-22.5911 l 0.7448,193.5726 l 0.7448,-100.6840 l 0.7448,96.6189 l 0.7448,-369.5275 l 0.7448,39.2534 l 0.7448,333.7889 l 0.7448,-386.1927 l 0.7448,113.1562 l 0.7448,56.6439 l 0.7448,300.6007 l 0.7448,-414.7935 l 0.7448,5.6592 l 0.7448,373.5450 l 0.7448,-272.2335 l 0.7448,-62.5847 l 0.7448,378.9324 l 0.7448,-216.9579 l 0.7448,226.6688 l 0.7448,-160.6961 l 0.7448,-211.6908 l 0.7448,273.2210 l 0.7448,47.3881 l 0.7448,-42.0509 l 0.7448,-95.2789 l 0.7448,-66.0534 l 0.7448,201.5992 l 0.7448,-184.2070 l 0.7448,205.3297 l 0.7448,-27.9644 l 0.7448,-278.9974 l 0.7448,339.0248 l 0.7448,-355.7277 l 0.7448,-123.5869 l 0.7448,320.8502 l 0.7448,-150.1321 l 0.7448,78.2017 l 0.7448,-121.9651 l 0.7448,274.7981 l 0.7448,62.8451 l 0.7448,-90.5901 l 0.7448,82.7187 l 0.7448,2.4774 l 0.7448,-350.9622 l 0.7448,170.4194 l 0.7448,-18.9906 l 0.7448,216.5659 l 0.7448,-268.4776 l 0.7448,-189.4195 l 0.7448,279.0234 l 0.7448,75.3846 l 0.7448,111.2346 l 0.7448,-266.6980 l 0.7448,-181.5218 l 0.7448,71.4152 l 0.7448,262.6722 l 0.7448,-311.9876 l 0.7448,-33.9527 l 0.7448,341.1708 l 0.7448,-150.5341 l 0.7448,275.8887 l 0.7448,-366.9394 l 0.7448,-11.2340 l 0.7448,-102.1008 l 0.7448,374.3519 l 0.7448,13.0747 l 0.7448,-146.4264 l 0.7448,-190.7390 l 0.7448,288.8965 l 0.7448,-174.4248 l 0.7448,138.4790 l 0.7448,144.9645 l 0.7448,-24.1405 l 0.7448,-247.6974 l 0.7448,195.6574 l 0.7448,-122.2510 l 0.7448,26.5733 l 0.7448,-237.6429 l 0.7448,217.5051 l 0.7448,-0.4954 l 0.7448,-135.2124 l 0.7448,220.0171 l 0.7448,98.5367 l 0.7448,37.8834 l 0.7448,-169.6397 l 0.7448,96.2696 l 0.7448,-323.2495 l 0.7448,-66.1464 l 0.7448,195.3564 l 0.7448,86.8448 l 0.7448,77.2379 l 0.7448,-385.1956 l 0.7448,221.1338 l 0.7448,-35.4748 l 0.7448,255.9840 l 0.7448,-367.6428 l 0.7448,275.0219 l 0.7448,-137.6715 l 0.7448,-55.7038 l 0.7448,-50.4243 l 0.7448,248.7647 l 0.7448,-325.6886 l 0.7448,316.6813 l 0.7448,-327.1643 l 0.7448,-20.4604 l 0.7448,372.2770 l 0.7448,45.8293 l 0.7448,-204.3609 l 0.7448,16.1606 l 0.7448,-133.7210 l 0.7448,-20.5421 l 0.7448,77.6374 l 0.7448,60.8282 l 0.7448,101.1542 l 0.7448,47.6199 l 0.7448,-20.9206 l 0.7448,-55.6472 l 0.7448,-284.9527 l 0.7448,54.9137 l 0.7448,182.1196 l 0.7448,150.3796 l 0.7448,-76.4237 l 0.7448,-19.5363 l 0.7448,-272.3815 l 0.7448,413.2332 l 0.7448,-75.5325 l 0.7448,-232.4060 l 0.7448,-24.2818 l 0.7448,209.7284 l 0.7448,-230.2232 l 0.7448,233.9181 l 0.7448,91.3969 l 0.7448,-142.1668 l 0.7448,-173.3194 l 0.7448,43.1103 l 0.7448,84.7221 l 0.7448,262.6226 l 0.7448,-191.1784 l 0.7448,-146.4395 l 0.7448,-101.0517 l 0.7448,427.7864 l 0.7448,-397.1094 l 0.7448,63.2861 l 0.7448,54.7890 l 0.7448,3.7299 l 0.7448,27.1043 l 0.7448,204.6851 l 0.7448,29.3767 l 0.7448,-112.8483 l 0.7448,-170.3957 l 0.7448,-134.5895 l 0.7448,40.0147 l 0.7448,-84.8162 l 0.7448,84.9757 l 0.7448,-42.8865 l 0.7448,333.3175 l 0.7448,18.7134 l 0.7448,70.0685 l 0.7448,-386.1910 l 0.7448,74.7477 l 0.7448,16.4085 l 0.7448,286.0311 l 0.7448,-443.5117 l 0.7448,406.3359 l 0.7448,54.3257 l 0.7448,-313.2377 l 0.7448,-49.8473 l 0.7448,327.9732 l 0.7448,-165.2891 l 0.7448,-160.8763 l 0.7448,334.8585 l 0.7448,-288.3791 l 0.7448,112.1586 l 0.7448,-241.8001 l 0.7448,28.5684 l 0.7448,297.5567 l 0.7448,43.2014 l 0.7448,-174.4281 l 0.7448,53.8492 l 0.7448,-249.8378 l 0.7448,224.7711 l 0.7448,-88.1778 l 0.7448,240.2352 l 0.7448,-164.4945 l 0.7448,175.5838 l 0.7448,-145.0717 l 0.7448,-82.4720 l 0.7448,168.1845 l 0.7448,-157.8823 l 0.7448,190.3468 l 0.7448,93.2716 l 0.7448,-392.9617 l 0.7448,351.5467 l 0.7448,-179.3456 l 0.7448,-18.4388 l 0.7448,-198.7368 l 0.7448,101.0044 l 0.7448,208.5288 l 0.7448,-308.8369 l 0.7448,206.4772 l 0.7448,205.3260 l 0.7448,-0.7153 l 0.7448,-418.3203 l 0.7448,19.5707 l 0.7448,217.7249 l 0.7448,-94.8878 l 0.7448,-149.2105 l 0.7448,49.7396 l 0.7448,322.7434 l 0.7448,-219.2689 l 0.7448,-143.6546 l 0.7448,106.0877 l 0.7448,-76.6775 l 0.7448,284.7438 l 0.7448,-205.0673 l 0.7448,134.1945 l 0.7448,27.9229 l 0.7448,-37.8481 l 0.7448,-85.3302 l 0.7448,168.0981 l 0.7448,56.9840 l 0.7448,-123.1196 l 0.7448,188.8970 l 0.7448,-319.4647 l 0.7448,-123.4490 l 0.7448,83.3693 l 0.7448,-43.5679 l 0.7448,147.4265 l 0.7448,-185.3767 l 0.7448,281.7202 l 0.7448,39.6031 l 0.7448,140.9157 l 0.7448,-40.1912 l 0.7448,-309.3308 l 0.7448,-21.4337 l 0.7448,-97.4247 l 0.7448,474.1603 l 0.7448,-11.3384 l 0.7448,-151.7405 l 0.7448,27.2963 l 0.7448,-269.0296 l 0.7448,-96.3028 l 0.7448,46.9518 l 0.7448,169.9913 l 0.7448,11.3366 l 0.7448,-31.5547 l 0.7448,-124.4240 l 0.7448,-15.7528 l 0.7448,239.9002 l 0.7448,-22.6259 l 0.7448,-195.5495 l 0.7448,237.0790 l 0.7448,81.9037 l 0.7448,102.9050 l 0.7448,-236.4584 l 0.7448,74.2031 l 0.7448,90.3498 l 0.7448,-185.6728 l 0.7448,-170.7359 l 0.7448,384.8913 l 0.7448,-363.4141 l 0.7448,373.4663 l 0.7448,-333.4928 l 0.7448,-129.1558 l 0.7448,165.9018 l 0.7448,53.4513 l 0.7448,-74.3001 l 0.7448,-135.5976 l 0.7448,89.3368 l 0.7448,331.0727 l 0.7448,-77.0829 l 0.7448,-84.0897 l 0.7448,-143.0406 l 0.7448,-80.9900 l 0.7448,403.2949 l 0.7448,-254.0394 l 0.7448,209.6133 l 0.7448,-37.1212 l 0.7448,-71.2444 l 0.7448,-248.6464 l 0.7448,176.8622 l 0.7448,140.1277 l 0.7448,-361.9678 l 0.7448,368.9000 l 0.7448,-39.7025 l 0.7448,6.8054 l 0.7448,-147.3271 l 0.7448,49.6398 l 0.7448,-226.6935 l 0.7448,278.0814 l 0.7448,70.0786 l 0.7448,-268.4415 l 0.7448,-56.2311 l 0.7448,152.4007 l 0.7448,237.7948 l 0.7448,-382.9990 l 0.7448,433.8640 l 0.7448,-414.7487 l 0.7448,193.6977 l 0.7448,96.7463 l 0.7448,-255.0109 l 0.7448,349.0762 l 0.7448,16.7360 l 0.7448,-125.9809 l 0.7448,7.1025 l 0.7448,-198.4696 l 0.7448,73.2901 l 0.7448,30.1625 l 0.7448,77.7133 l 0.7448,138.5918 l 0.7448,-410.6199 l 0.7448,237.6737 l 0.7448,-191.9174 l 0.7448,193.9440 l 0.7448,34.8595 l 0.7448,123.1113 l 0.7448,-5.6878 l 0.7448,-48.5294 l 0.7448,55.4710 l 0.7448,-432.3878 l 0.7448,349.2215 l 0.7448,-209.5062 l 0.7448,87.7883 l 0.7448,12.6008 l 0.7448,207.7970 l 0.7448,-23.3670 l 0.7448,-323.6828 l 0.7448,285.5456 l 0.7448,35.3978 l 0.7448,-407.9808 l 0.7448,256.9958 l 0.7448,-298.4322 l 0.7448,407.5141 l 0.7448,34.5864 l 0.7448,-250.0648 l 0.7448,-96.2994 l 0.7448,271.9445 l 0.7448,-256.5866 l 0.7448,34.5720 l 0.7448,274.9129 l 0.7448,-270.3377 l 0.7448,-47.0991 l 0.7448,24.0759 l 0.7448,373.3280 l 0.7448,-401.1597 l 0.7448,185.3338 l 0.7448,-202.7667 l 0.7448,397.0742 l 0.7448,-238.1441 l 0.7448,-125.9190 l 0.7448,200.4247 l 0.7448,90.6596 l 0.7448,-326.1852 l 0.7448,-60.8642 l 0.7448,232.4058 l 0.7448,-214.7441 l 0.7448,393.5652 l 0.7448,41.0422 l 0.7448,-26.3396 l 0.7448,-321.1082 l 0.7448,200.5374 l 0.7448,-93.3141 l 0.7448,-198.2236 l 0.7448,147.6229 l 0.7448,-32.4653 l 0.7448,-29.2055 l 0.7448,205.2621 l 0.7448,-107.2919 l 0.7448,86.0055 l 0.7448,55.3068 l 0.7448,71.0486 l 0.7448,-137.2542 l 0.7448,-42.7213 l 0.7448,-10.8058 l 0.7448,-172.2809 l 0.7448,331.5477 l 0.7448,-246.1254 l 0.7448,37.6237 l 0.7448,-169.2548 l 0.7448,4.5254 l 0.7448,255.1832 l 0.7448,-271.4237 l 0.7448,407.1916 l 0.7448,-404.4564 l 0.7448,172.8621 l 0.7448,11.2216 l 0.7448,-18.3079 l 0.7448,-93.7353 l 0.7448,238.4393 l 0.7448,-293.9784 l 0.7448,392.0075 l 0.7448,-412.3403 l 0.7448,286.0142 l 0.7448,-270.6989 l 0.7448,374.6058 l 0.7448,-339.9860 l 0.7448,303.3769 l 0.7448,45.4836 l 0.7448,-169.6328 l 0.7448,217.2259 l 0.7448,-37.3630 l 0.7448,-340.9516 l 0.7448,153.6046 l 0.7448,-84.9616 l 0.7448,114.5605 l 0.7448,-218.5880 l 0.7448,215.0644 l 0.7448,124.4041 l 0.7448,-262.2699 l 0.7448,106.9195 l 0.7448,-211.3207 l 0.7448,124.1302 l 0.7448,30.5817 l 0.7448,161.4274 l 0.7448,-149.6534 l 0.7448,157.5881 l 0.7448,-38.1340 l 0.7448,-71.1500 l 0.7448,162.7667 l 0.7448,-385.5823 l 0.7448,151.6084 l 0.7448,-131.8319 l 0.7448,338.2980 l 0.7448,-276.1426 l 0.7448,9.9421 l 0.7448,163.5748 l 0.7448,-25.2231 l 0.7448,200.1814 l 0.7448,-438.3606 l 0.7448,56.5081 l 0.7448,16.0601 l 0.7448,120.7238 l 0.7448,167.0647 l 0.7448,-248.4945 l 0.7448,111.3656 l 0.7448,176.2878 l 0.7448,64.0204 l 0.7448,-272.4260 l 0.7448,255.4322 l 0.7448,-17.4493 l 0.7448,-428.8539 l 0.7448,389.9187 l 0.7448,-201.2723 l 0.7448,46.0426 l 0.7448,-7.8724 l 0.7448,33.6833 l 0.7448,85.8851 l 0.7448,-26.6612 l 0.7448,-108.7089 l 0.7448,273.4736 l 0.7448,-160.5459 l 0.7448,-101.1570 l 0.7448,200.5751 l 0.7448,65.7036 l 0.7448,12.3460 l 0.7448,-131.5588 l 0.7448,51.5276 l 0.7448,-314.5828 l 0.7448,124.7563 l 0.7448,201.7846 l 0.7448,-251.2069 l 0.7448,20.6722 l 0.7448,147.1923 l 0.7448,-53.2936 l 0.7448,-99.1869 l 0.7448,88.0526 l 0.7448,-33.0802 l 0.7448,214.5302 l 0.7448,-466.4407 l 0.7448,56.4424 l 0.7448,-21.2396 l 0.7448,85.6581 l 0.7448,283.3792 l 0.7448,-260.0214 l 0.7448,-4.4332 l 0.7448,233.4993 l 0.7448,-322.4212 l 0.7448,188.1140 l 0.7448,228.5805 l 0.7448,-318.3314 l 0.7448,-18.3127 l 0.7448,-109.3534 l 0.7448,162.0342 l 0.7448,311.6652 l 0.7448,-370.0645 l 0.7448,14.0592 l 0.7448,-17.5951 l 0.7448,384.3694 l 0.7448,-115.5548 l 0.7448,-93.8472 l 0.7448,-253.0531 l 0.7448,393.2796 l 0.7448,-228.0893 l 0.7448,197.5677 l 0.7448,-81.3482 l 0.7448,-16.8584 l 0.7448,39.8793 l 0.7448,-317.9137 l 0.7448,73.8411 l 0.7448,360.6039 l 0.7448,-30.2939 l 0.7448,-64.3311 l 0.7448,-320.0861 l 0.7448,40.9780 l 0.7448,-12.0267 l 0.7448,359.1574 l 0.7448,-219.6506 l 0.7448,-153.2478 l 0.7448,51.5416 l 0.7448,192.1409 l 0.7448,-283.1275 l 0.7448,406.3523 l 0.7448,68.9821 l 0.7448,-280.6840 l 0.7448,14.7834 l 0.7448,256.0699 l 0.7448,-107.5161 l 0.7448,-215.3822 l 0.7448,148.3363 l 0.7448,-85.2721 l 0.7448,84.1114 l 0.7448,-172.4186 l 0.7448,241.4553 l 0.7448,-175.1024 l 0.7448,78.6095 l 0.7448,14.6510 l 0.7448,-54.2868 l 0.7448,-182.9772 l 0.7448,227.3409 l 0.7448,81.3679 l 0.7448,-154.1346 l 0.7448,-144.2929 l 0.7448,362.6245 l 0.7448,-182.7114 l 0.7448,14.9554 l 0.7448,-77.5264 l 0.7448,-32.8887 l 0.7448,132.5055 l 0.7448,-237.3486 l 0.7448,131.5233 l 0.7448,310.4954 l 0.7448,-324.8278 l 0.7448,249.9986 l 0.7448,61.1853 l 0.7448,-392.0964 l 0.7448,371.6925 l 0.7448,-280.0434 l 0.7448,163.2133 l 0.7448,28.5905 l 0.7448,-65.5151 l 0.7448,-136.3378 l 0.7448,-70.8027 l 0.7448,138.5454 l 0.7448,-35.9767 l 0.7448,-77.9423 l 0.7448,59.3605 l 0.7448,83.5517 l 0.7448,-52.8268 l 0.7448,-162.9254 l 0.7448,330.2682 l 0.7448,-233.6779 l 0.7448,213.4684 l 0.7448,-10.1784 l 0.7448,-111.6844 l 0.7448,207.0003 l 0.7448,-3.1752 l 0.7448,19.6767 l 0.7448,-61.0074 l 0.7448,-160.1544 "/></g></g><defs></defs><g stroke-linejoin="miter" stroke-opacity="1.0" fill-opacity="0.0" stroke="rgb(0,0,0)" stroke-width="0.9999999999999997" fill="rgb(0,0,0)" stroke-linecap="square" stroke-miterlimit="10.0"><path d="M 35.3887,550.0000 v -535.0000 "/></g><defs></defs><g stroke-linejoin="miter" stroke-opacity="1.0" fill-opacity="0.0" stroke="rgb(0,0,0)" stroke-width="0.9999999999999997" fill="rgb(0,0,0)" stroke-linecap="butt" stroke-miterlimit="10.0"><path d="M 35.3887,550.0000 h 2.0000 "/></g><defs></defs><g stroke-linejoin="miter" stroke-opacity="1.0" fill-opacity="0.0" stroke="rgb(0,0,0)" stroke-width="0.9999999999999997" fill="rgb(0,0,0)" stroke-linecap="butt" stroke-miterlimit="10.0"><path d="M 35.3887,536.6250 h 2.0000 "/></g><defs></defs><g stroke-linejoin="miter" stroke-opacity="1.0" fill-opacity="0.0" stroke="rgb(0,0,0)" stroke-width="0.9999999999999997" fill="rgb(0,0,0)" stroke-linecap="butt" stroke-miterlimit="10.0"><path d="M 35.3887,523.2500 h 2.0000 "/></g><defs></defs><g stroke-linejoin="miter" stroke-opacity="1.0" fill-opacity="0.0" stroke="rgb(0,0,0)" stroke-width="0.9999999999999997" fill="rgb(0,0,0)" stroke-linecap="butt" stroke-miterlimit="10.0"><path d="M 35.3887,509.8750 h 2.0000 "/></g><defs></defs><g stroke-linejoin="miter" stroke-opacity="1.0" fill-opacity="0.0" stroke="rgb(0,0,0)" stroke-width="0.9999999999999997" fill="rgb(0,0,0)" stroke-linecap="butt" stroke-miterlimit="10.0"><path d="M 35.3887,496.5000 h 2.0000 "/></g><defs></defs><g stroke-linejoin="miter" stroke-opacity="1.0" fill-opacity="0.0" stroke="rgb(0,0,0)" stroke-width="0.9999999999999997" fill="rgb(0,0,0)" stroke-linecap="butt" stroke-miterlimit="10.0"><path d="M 35.3887,483.1250 h 2.0000 "/></g><defs></defs><g stroke-linejoin="miter" stroke-opacity="1.0" fill-opacity="0.0" stroke="rgb(0,0,0)" stroke-width="0.9999999999999997" fill="rgb(0,0,0)" stroke-linecap="butt" stroke-miterlimit="10.0"><path d="M 35.3887,469.7500 h 2.0000 "/></g><defs></defs><g stroke-linejoin="miter" stroke-opacity="1.0" fill-opacity="0.0" stroke="rgb(0,0,0)" stroke-width="0.9999999999999997" fill="rgb(0,0,0)" stroke-linecap="butt" stroke-miterlimit="10.0"><path d="M 35.3887,456.3750 h 2.0000 "/></g><defs></defs><g stroke-linejoin="miter" stroke-opacity="1.0" fill-opacity="0.0" stroke="rgb(0,0,0)" stroke-width="0.9999999999999997" fill="rgb(0,0,0)" stroke-linecap="butt" stroke-miterlimit="10.0"><path d="M 35.3887,443.0000 h 2.0000 "/></g><defs></defs><g stroke-linejoin="miter" stroke-opacity="1.0" fill-opacity="0.0" stroke="rgb(0,0,0)" stroke-width="0.9999999999999997" fill="rgb(0,0,0)" stroke-linecap="butt" stroke-miterlimit="10.0"><path d="M 35.3887,429.6250 h 2.0000 "/></g><defs></defs><g stroke-linejoin="miter" stroke-opacity="1.0" fill-opacity="0.0" stroke="rgb(0,0,0)" stroke-width="0.9999999999999997" fill="rgb(0,0,0)" stroke-linecap="butt" stroke-miterlimit="10.0"><path d="M 35.3887,416.2500 h 2.0000 "/></g><defs></defs><g stroke-linejoin="miter" stroke-opacity="1.0" fill-opacity="0.0" stroke="rgb(0,0,0)" stroke-width="0.9999999999999997" fill="rgb(0,0,0)" stroke-linecap="butt" stroke-miterlimit="10.0"><path d="M 35.3887,402.8750 h 2.0000 "/></g><defs></defs><g stroke-linejoin="miter" stroke-opacity="1.0" fill-opacity="0.0" stroke="rgb(0,0,0)" stroke-width="0.9999999999999997" fill="rgb(0,0,0)" stroke-linecap="butt" stroke-miterlimit="10.0"><path d="M 35.3887,389.5000 h 2.0000 "/></g><defs></defs><g stroke-linejoin="miter" stroke-opacity="1.0" fill-opacity="0.0" stroke="rgb(0,0,0)" stroke-width="0.9999999999999997" fill="rgb(0,0,0)" stroke-linecap="butt" stroke-miterlimit="10.0"><path d="M 35.3887,376.1250 h 2.0000 "/></g><defs></defs><g stroke-linejoin="miter" stroke-opacity="1.0" fill-opacity="0.0" stroke="rgb(0,0,0)" stroke-width="0.9999999999999997" fill="rgb(0,0,0)" stroke-linecap="butt" stroke-miterlimit="10.0"><path d="M 35.3887,362.7500 h 2.0000 "/></g><defs></defs><g stroke-linejoin="miter" stroke-opacity="1.0" fill-opacity="0.0" stroke="rgb(0,0,0)" stroke-width="0.9999999999999997" fill="rgb(0,0,0)" stroke-linecap="butt" stroke-miterlimit="10.0"><path d="M 35.3887,349.3750 h 2.0000 "/></g><defs></defs><g stroke-linejoin="miter" stroke-opacity="1.0" fill-opacity="0.0" stroke="rgb(0,0,0)" stroke-width="0.9999999999999997" fill="rgb(0,0,0)" stroke-linecap="butt" stroke-miterlimit="10.0"><path d="M 35.3887,336.0000 h 2.0000 "/></g><defs></defs><g stroke-linejoin="miter" stroke-opacity="1.0" fill-opacity="0.0" stroke="rgb(0,0,0)" stroke-width="0.9999999999999997" fill="rgb(0,0,0)" stroke-linecap="butt" stroke-miterlimit="10.0"><path d="M 35.3887,322.6250 h 2.0000 "/></g><defs></defs><g stroke-linejoin="miter" stroke-opacity="1.0" fill-opacity="0.0" stroke="rgb(0,0,0)" stroke-width="0.9999999999999997" fill="rgb(0,0,0)" stroke-linecap="butt" stroke-miterlimit="10.0"><path d="M 35.3887,309.2500 h 2.0000 "/></g><defs></defs><g stroke-linejoin="miter" stroke-opacity="1.0" fill-opacity="0.0" stroke="rgb(0,0,0)" stroke-width="0.9999999999999997" fill="rgb(0,0,0)" stroke-linecap="butt" stroke-miterlimit="10.0"><path d="M 35.3887,295.8750 h 2.0000 "/></g><defs></defs><g stroke-linejoin="miter" stroke-opacity="1.0" fill-opacity="0.0" stroke="rgb(0,0,0)" stroke-width="0.9999999999999997" fill="rgb(0,0,0)" stroke-linecap="butt" stroke-miterlimit="10.0"><path d="M 35.3887,282.5000 h 2.0000 "/></g><defs></defs><g stroke-linejoin="miter" stroke-opacity="1.0" fill-opacity="0.0" stroke="rgb(0,0,0)" stroke-width="0.9999999999999997" fill="rgb(0,0,0)" stroke-linecap="butt" stroke-miterlimit="10.0"><path d="M 35.3887,269.1250 h 2.0000 "/></g><defs></defs><g stroke-linejoin="miter" stroke-opacity="1.0" fill-opacity="0.0" stroke="rgb(0,0,0)" stroke-width="0.9999999999999997" fill="rgb(0,0,0)" stroke-linecap="butt" stroke-miterlimit="10.0"><path d="M 35.3887,255.7500 h 2.0000 "/></g><defs></defs><g stroke-linejoin="miter" stroke-opacity="1.0" fill-opacity="0.0" stroke="rgb(0,0,0)" stroke-width="0.9999999999999997" fill="rgb(0,0,0)" stroke-linecap="butt" stroke-miterlimit="10.0"><path d="M 35.3887,242.3750 h 2.0000 "/></g><defs></defs><g stroke-linejoin="miter" stroke-opacity="1.0" fill-opacity="0.0" stroke="rgb(0,0,0)" stroke-width="0.9999999999999997" fill="rgb(0,0,0)" stroke-linecap="butt" stroke-miterlimit="10.0"><path d="M 35.3887,229.0000 h 2.0000 "/></g><defs></defs><g stroke-linejoin="miter" stroke-opacity="1.0" fill-opacity="0.0" stroke="rgb(0,0,0)" stroke-width="0.9999999999999997" fill="rgb(0,0,0)" stroke-linecap="butt" stroke-miterlimit="10.0"><path d="M 35.3887,215.6250 h 2.0000 "/></g><defs></defs><g stroke-linejoin="miter" stroke-opacity="1.0" fill-opacity="0.0" stroke="rgb(0,0,0)" stroke-width="0.9999999999999997" fill="rgb(0,0,0)" stroke-linecap="butt" stroke-miterlimit="10.0"><path d="M 35.3887,202.2500 h 2.0000 "/></g><defs></defs><g stroke-linejoin="miter" stroke-opacity="1.0" fill-opacity="0.0" stroke="rgb(0,0,0)" stroke-width="0.9999999999999997" fill="rgb(0,0,0)" stroke-linecap="butt" stroke-miterlimit="10.0"><path d="M 35.3887,188.8750 h 2.0000 "/></g><defs></defs><g stroke-linejoin="miter" stroke-opacity="1.0" fill-opacity="0.0" stroke="rgb(0,0,0)" stroke-width="0.9999999999999997" fill="rgb(0,0,0)" stroke-linecap="butt" stroke-miterlimit="10.0"><path d="M 35.3887,175.5000 h 2.0000 "/></g><defs></defs><g stroke-linejoin="miter" stroke-opacity="1.0" fill-opacity="0.0" stroke="rgb(0,0,0)" stroke-width="0.9999999999999997" fill="rgb(0,0,0)" stroke-linecap="butt" stroke-miterlimit="10.0"><path d="M 35.3887,162.1250 h 2.0000 "/></g><defs></defs><g stroke-linejoin="miter" stroke-opacity="1.0" fill-opacity="0.0" stroke="rgb(0,0,0)" stroke-width="0.9999999999999997" fill="rgb(0,0,0)" stroke-linecap="butt" stroke-miterlimit="10.0"><path d="M 35.3887,148.7500 h 2.0000 "/></g><defs></defs><g stroke-linejoin="miter" stroke-opacity="1.0" fill-opacity="0.0" stroke="rgb(0,0,0)" stroke-width="0.9999999999999997" fill="rgb(0,0,0)" stroke-linecap="butt" stroke-miterlimit="10.0"><path d="M 35.3887,135.3750 h 2.0000 "/></g><defs></defs><g stroke-linejoin="miter" stroke-opacity="1.0" fill-opacity="0.0" stroke="rgb(0,0,0)" stroke-width="0.9999999999999997" fill="rgb(0,0,0)" stroke-linecap="butt" stroke-miterlimit="10.0"><path d="M 35.3887,122.0000 h 2.0000 "/></g><defs></defs><g stroke-linejoin="miter" stroke-opacity="1.0" fill-opacity="0.0" stroke="rgb(0,0,0)" stroke-width="0.9999999999999997" fill="rgb(0,0,0)" stroke-linecap="butt" stroke-miterlimit="10.0"><path d="M 35.3887,108.6250 h 2.0000 "/></g><defs></defs><g stroke-linejoin="miter" stroke-opacity="1.0" fill-opacity="0.0" stroke="rgb(0,0,0)" stroke-width="0.9999999999999997" fill="rgb(0,0,0)" stroke-linecap="butt" stroke-miterlimit="10.0"><path d="M 35.3887,95.2500 h 2.0000 "/></g><defs></defs><g stroke-linejoin="miter" stroke-opacity="1.0" fill-opacity="0.0" stroke="rgb(0,0,0)" stroke-width="0.9999999999999997" fill="rgb(0,0,0)" stroke-linecap="butt" stroke-miterlimit="10.0"><path d="M 35.3887,81.8750 h 2.0000 "/></g><defs></defs><g stroke-linejoin="miter" stroke-opacity="1.0" fill-opacity="0.0" stroke="rgb(0,0,0)" stroke-width="0.9999999999999997" fill="rgb(0,0,0)" stroke-linecap="butt" stroke-miterlimit="10.0"><path d="M 35.3887,68.5000 h 2.0000 "/></g><defs></defs><g stroke-linejoin="miter" stroke-opacity="1.0" fill-opacity="0.0" stroke="rgb(0,0,0)" stroke-width="0.9999999999999997" fill="rgb(0,0,0)" stroke-linecap="butt" stroke-miterlimit="10.0"><path d="M 35.3887,55.1250 h 2.0000 "/></g><defs></defs><g stroke-linejoin="miter" stroke-opacity="1.0" fill-opacity="0.0" stroke="rgb(0,0,0)" stroke-width="0.9999999999999997" fill="rgb(0,0,0)" stroke-linecap="butt" stroke-miterlimit="10.0"><path d="M 35.3887,41.7500 h 2.0000 "/></g><defs></defs><g stroke-linejoin="miter" stroke-opacity="1.0" fill-opacity="0.0" stroke="rgb(0,0,0)" stroke-width="0.9999999999999997" fill="rgb(0,0,0)" stroke-linecap="butt" stroke-miterlimit="10.0"><path d="M 35.3887,28.3750 h 2.0000 "/></g><defs></defs><g stroke-linejoin="miter" stroke-opacity="1.0" fill-opacity="0.0" stroke="rgb(0,0,0)" stroke-width="0.9999999999999997" fill="rgb(0,0,0)" stroke-linecap="butt" stroke-miterlimit="10.0"><path d="M 35.3887,15.0000 h 2.0000 "/></g><defs></defs><g stroke-linejoin="miter" stroke-opacity="1.0" fill-opacity="0.0" stroke="rgb(0,0,0)" stroke-width="0.9999999999999997" fill="rgb(0,0,0)" stroke-linecap="butt" stroke-miterlimit="10.0"><path d="M 35.3887,550.0000 h 5.0000 "/></g><defs></defs><g stroke-linejoin="miter" stroke-opacity="1.0" fill-opacity="0.0" stroke="rgb(0,0,0)" stroke-width="0.9999999999999997" fill="rgb(0,0,0)" stroke-linecap="butt" stroke-miterlimit="10.0"><path d="M 35.3887,416.2500 h 5.0000 "/></g><defs></defs><g stroke-linejoin="miter" stroke-opacity="1.0" fill-opacity="0.0" stroke="rgb(0,0,0)" stroke-width="0.9999999999999997" fill="rgb(0,0,0)" stroke-linecap="butt" stroke-miterlimit="10.0"><path d="M 35.3887,282.5000 h 5.0000 "/></g><defs></defs><g stroke-linejoin="miter" stroke-opacity="1.0" fill-opacity="0.0" stroke="rgb(0,0,0)" stroke-width="0.9999999999999997" fill="rgb(0,0,0)" stroke-linecap="butt" stroke-miterlimit="10.0"><path d="M 35.3887,148.7500 h 5.0000 "/></g><defs></defs><g stroke-linejoin="miter" stroke-opacity="1.0" fill-opacity="0.0" stroke="rgb(0,0,0)" stroke-width="0.9999999999999997" fill="rgb(0,0,0)" stroke-linecap="butt" stroke-miterlimit="10.0"><path d="M 35.3887,15.0000 h 5.0000 "/></g><defs></defs><g stroke-linejoin="bevel" stroke-opacity="0.0" fill-opacity="1.0" stroke="rgb(0,0,0)" stroke-width="0.0" fill="rgb(0,0,0)" stroke-linecap="butt" stroke-miterlimit="10.0"><path d="M 17.9412,553.4454 ZM 18.3718,550.4832 h 2.4160 v 0.6618 h -2.4160 v -0.6618 ZM 21.2080,553.4454 ZM 22.0378,552.7311 h 1.5336 v -4.9370 h -1.2185 v -0.5567 c 0.4622,-0.0840 0.8036,-0.2048 0.8036 -0.2048c 0.3414,-0.1208 0.6145,-0.2889 0.6145 -0.2889h 0.6618 v 5.9874 h 1.3866 v 0.7143 h -3.7815 v -0.7143 Z"/></g><defs></defs><g stroke-linejoin="bevel" stroke-opacity="0.0" fill-opacity="1.0" stroke="rgb(0,0,0)" stroke-width="0.0" fill="rgb(0,0,0)" stroke-linecap="butt" stroke-miterlimit="10.0"><path d="M 10.0000,419.6954 ZM 10.4307,416.7332 h 2.4160 v 0.6618 h -2.4160 v -0.6618 ZM 13.2668,419.6954 ZM 15.8824,419.8214 c -1.0189,-0.0000 -1.5861,-0.9034 -1.5861 -0.9034c -0.5672,-0.9034 -0.5672,-2.5945 -0.5672 -2.5945c 0.0000,-1.6912 0.5672,-2.5735 0.5672 -2.5735c 0.5672,-0.8824 1.5861,-0.8824 1.5861 -0.8824c 1.0084,0.0000 1.5756,0.8824 1.5756 0.8824c 0.5672,0.8824 0.5672,2.5735 0.5672 2.5735c 0.0000,1.6912 -0.5672,2.5945 -0.5672 2.5945c -0.5672,0.9034 -1.5756,0.9034 -1.5756 0.9034ZM 15.8824,419.8214 ZM 15.8824,419.1282 c 0.2941,0.0000 0.5305,-0.1628 0.5305 -0.1628c 0.2363,-0.1628 0.4097,-0.5042 0.4097 -0.5042c 0.1733,-0.3414 0.2679,-0.8718 0.2679 -0.8718c 0.0945,-0.5305 0.0945,-1.2658 0.0945 -1.2658c 0.0000,-0.7353 -0.0945,-1.2605 -0.0945 -1.2605c -0.0945,-0.5252 -0.2679,-0.8561 -0.2679 -0.8561c -0.1733,-0.3309 -0.4097,-0.4884 -0.4097 -0.4884c -0.2363,-0.1576 -0.5305,-0.1576 -0.5305 -0.1576c -0.2941,-0.0000 -0.5357,0.1576 -0.5357 0.1576c -0.2416,0.1576 -0.4149,0.4884 -0.4149 0.4884c -0.1733,0.3309 -0.2679,0.8561 -0.2679 0.8561c -0.0945,0.5252 -0.0945,1.2605 -0.0945 1.2605c 0.0000,1.4706 0.3624,2.1376 0.3624 2.1376c 0.3624,0.6670 0.9506,0.6670 0.9506 0.6670ZM 18.4874,419.6954 ZM 19.1702,419.1702 c 0.0000,-0.3046 0.1838,-0.4884 0.1838 -0.4884c 0.1838,-0.1838 0.4464,-0.1838 0.4464 -0.1838c 0.2521,0.0000 0.4359,0.1838 0.4359 0.1838c 0.1838,0.1838 0.1838,0.4884 0.1838 0.4884c 0.0000,0.2836 -0.1838,0.4674 -0.1838 0.4674c -0.1838,0.1838 -0.4359,0.1838 -0.4359 0.1838c -0.2626,-0.0000 -0.4464,-0.1838 -0.4464 -0.1838c -0.1838,-0.1838 -0.1838,-0.4674 -0.1838 -0.4674ZM 21.1029,419.6954 ZM 21.7857,418.3403 c 0.2941,0.3046 0.6985,0.5357 0.6985 0.5357c 0.4044,0.2311 0.9926,0.2311 0.9926 0.2311c 0.3046,0.0000 0.5725,-0.1103 0.5725 -0.1103c 0.2679,-0.1103 0.4674,-0.3099 0.4674 -0.3099c 0.1996,-0.1996 0.3151,-0.4832 0.3151 -0.4832c 0.1155,-0.2836 0.1155,-0.6303 0.1155 -0.6303c 0.0000,-0.6933 -0.3887,-1.0819 -0.3887 -1.0819c -0.3887,-0.3887 -1.0399,-0.3887 -1.0399 -0.3887c -0.3466,-0.0000 -0.5935,0.1050 -0.5935 0.1050c -0.2468,0.1050 -0.5515,0.3046 -0.5515 0.3046l -0.4622,-0.2941 l 0.2206,-3.2248 h 3.3508 v 0.7458 h -2.5945 l -0.1786,1.9853 c 0.2416,-0.1261 0.4832,-0.1996 0.4832 -0.1996c 0.2416,-0.0735 0.5462,-0.0735 0.5462 -0.0735c 0.4307,0.0000 0.8088,0.1261 0.8088 0.1261c 0.3782,0.1261 0.6618,0.3834 0.6618 0.3834c 0.2836,0.2574 0.4464,0.6513 0.4464 0.6513c 0.1628,0.3939 0.1628,0.9401 0.1628 0.9401c 0.0000,0.5462 -0.1891,0.9664 -0.1891 0.9664c -0.1891,0.4202 -0.5042,0.7090 -0.5042 0.7090c -0.3151,0.2889 -0.7195,0.4412 -0.7195 0.4412c -0.4044,0.1523 -0.8456,0.1523 -0.8456 0.1523c -0.3992,-0.0000 -0.7300,-0.0788 -0.7300 -0.0788c -0.3309,-0.0788 -0.5987,-0.2048 -0.5987 -0.2048c -0.2679,-0.1261 -0.4832,-0.2889 -0.4832 -0.2889c -0.2153,-0.1628 -0.3834,-0.3414 -0.3834 -0.3414Z"/></g><defs></defs><g stroke-linejoin="bevel" stroke-opacity="0.0" fill-opacity="1.0" stroke="rgb(0,0,0)" stroke-width="0.0" fill="rgb(0,0,0)" stroke-linecap="butt" stroke-miterlimit="10.0"><path d="M 21.0924,285.9454 ZM 23.7080,286.0714 c -1.0189,-0.0000 -1.5861,-0.9034 -1.5861 -0.9034c -0.5672,-0.9034 -0.5672,-2.5945 -0.5672 -2.5945c 0.0000,-1.6912 0.5672,-2.5735 0.5672 -2.5735c 0.5672,-0.8824 1.5861,-0.8824 1.5861 -0.8824c 1.0084,0.0000 1.5756,0.8824 1.5756 0.8824c 0.5672,0.8824 0.5672,2.5735 0.5672 2.5735c 0.0000,1.6912 -0.5672,2.5945 -0.5672 2.5945c -0.5672,0.9034 -1.5756,0.9034 -1.5756 0.9034ZM 23.7080,286.0714 ZM 23.7080,285.3782 c 0.2941,0.0000 0.5305,-0.1628 0.5305 -0.1628c 0.2363,-0.1628 0.4097,-0.5042 0.4097 -0.5042c 0.1733,-0.3414 0.2679,-0.8718 0.2679 -0.8718c 0.0945,-0.5305 0.0945,-1.2658 0.0945 -1.2658c 0.0000,-0.7353 -0.0945,-1.2605 -0.0945 -1.2605c -0.0945,-0.5252 -0.2679,-0.8561 -0.2679 -0.8561c -0.1733,-0.3309 -0.4097,-0.4884 -0.4097 -0.4884c -0.2363,-0.1576 -0.5305,-0.1576 -0.5305 -0.1576c -0.2941,-0.0000 -0.5357,0.1576 -0.5357 0.1576c -0.2416,0.1576 -0.4149,0.4884 -0.4149 0.4884c -0.1733,0.3309 -0.2679,0.8561 -0.2679 0.8561c -0.0945,0.5252 -0.0945,1.2605 -0.0945 1.2605c 0.0000,1.4706 0.3624,2.1376 0.3624 2.1376c 0.3624,0.6670 0.9506,0.6670 0.9506 0.6670Z"/></g><defs></defs><g stroke-linejoin="bevel" stroke-opacity="0.0" fill-opacity="1.0" stroke="rgb(0,0,0)" stroke-width="0.0" fill="rgb(0,0,0)" stroke-linecap="butt" stroke-miterlimit="10.0"><path d="M 13.2983,152.1954 ZM 15.9139,152.3214 c -1.0189,-0.0000 -1.5861,-0.9034 -1.5861 -0.9034c -0.5672,-0.9034 -0.5672,-2.5945 -0.5672 -2.5945c 0.0000,-1.6912 0.5672,-2.5735 0.5672 -2.5735c 0.5672,-0.8824 1.5861,-0.8824 1.5861 -0.8824c 1.0084,0.0000 1.5756,0.8824 1.5756 0.8824c 0.5672,0.8824 0.5672,2.5735 0.5672 2.5735c 0.0000,1.6912 -0.5672,2.5945 -0.5672 2.5945c -0.5672,0.9034 -1.5756,0.9034 -1.5756 0.9034ZM 15.9139,152.3214 ZM 15.9139,151.6282 c 0.2941,0.0000 0.5305,-0.1628 0.5305 -0.1628c 0.2363,-0.1628 0.4097,-0.5042 0.4097 -0.5042c 0.1733,-0.3414 0.2679,-0.8718 0.2679 -0.8718c 0.0945,-0.5305 0.0945,-1.2658 0.0945 -1.2658c 0.0000,-0.7353 -0.0945,-1.2605 -0.0945 -1.2605c -0.0945,-0.5252 -0.2679,-0.8561 -0.2679 -0.8561c -0.1733,-0.3309 -0.4097,-0.4884 -0.4097 -0.4884c -0.2363,-0.1576 -0.5305,-0.1576 -0.5305 -0.1576c -0.2941,-0.0000 -0.5357,0.1576 -0.5357 0.1576c -0.2416,0.1576 -0.4149,0.4884 -0.4149 0.4884c -0.1733,0.3309 -0.2679,0.8561 -0.2679 0.8561c -0.0945,0.5252 -0.0945,1.2605 -0.0945 1.2605c 0.0000,1.4706 0.3624,2.1376 0.3624 2.1376c 0.3624,0.6670 0.9506,0.6670 0.9506 0.6670ZM 18.5189,152.1954 ZM 19.2017,151.6702 c 0.0000,-0.3046 0.1838,-0.4884 0.1838 -0.4884c 0.1838,-0.1838 0.4464,-0.1838 0.4464 -0.1838c 0.2521,0.0000 0.4359,0.1838 0.4359 0.1838c 0.1838,0.1838 0.1838,0.4884 0.1838 0.4884c 0.0000,0.2836 -0.1838,0.4674 -0.1838 0.4674c -0.1838,0.1838 -0.4359,0.1838 -0.4359 0.1838c -0.2626,-0.0000 -0.4464,-0.1838 -0.4464 -0.1838c -0.1838,-0.1838 -0.1838,-0.4674 -0.1838 -0.4674ZM 21.1345,152.1954 ZM 21.8172,150.8403 c 0.2941,0.3046 0.6985,0.5357 0.6985 0.5357c 0.4044,0.2311 0.9926,0.2311 0.9926 0.2311c 0.3046,0.0000 0.5725,-0.1103 0.5725 -0.1103c 0.2679,-0.1103 0.4674,-0.3099 0.4674 -0.3099c 0.1996,-0.1996 0.3151,-0.4832 0.3151 -0.4832c 0.1155,-0.2836 0.1155,-0.6303 0.1155 -0.6303c 0.0000,-0.6933 -0.3887,-1.0819 -0.3887 -1.0819c -0.3887,-0.3887 -1.0399,-0.3887 -1.0399 -0.3887c -0.3466,-0.0000 -0.5935,0.1050 -0.5935 0.1050c -0.2468,0.1050 -0.5515,0.3046 -0.5515 0.3046l -0.4622,-0.2941 l 0.2206,-3.2248 h 3.3508 v 0.7458 h -2.5945 l -0.1786,1.9853 c 0.2416,-0.1261 0.4832,-0.1996 0.4832 -0.1996c 0.2416,-0.0735 0.5462,-0.0735 0.5462 -0.0735c 0.4307,0.0000 0.8088,0.1261 0.8088 0.1261c 0.3782,0.1261 0.6618,0.3834 0.6618 0.3834c 0.2836,0.2574 0.4464,0.6513 0.4464 0.6513c 0.1628,0.3939 0.1628,0.9401 0.1628 0.9401c 0.0000,0.5462 -0.1891,0.9664 -0.1891 0.9664c -0.1891,0.4202 -0.5042,0.7090 -0.5042 0.7090c -0.3151,0.2889 -0.7195,0.4412 -0.7195 0.4412c -0.4044,0.1523 -0.8456,0.1523 -0.8456 0.1523c -0.3992,-0.0000 -0.7300,-0.0788 -0.7300 -0.0788c -0.3309,-0.0788 -0.5987,-0.2048 -0.5987 -0.2048c -0.2679,-0.1261 -0.4832,-0.2889 -0.4832 -0.2889c -0.2153,-0.1628 -0.3834,-0.3414 -0.3834 -0.3414Z"/></g><defs></defs><g stroke-linejoin="bevel" stroke-opacity="0.0" fill-opacity="1.0" stroke="rgb(0,0,0)" stroke-width="0.0" fill="rgb(0,0,0)" stroke-linecap="butt" stroke-miterlimit="10.0"><path d="M 21.6071,18.4454 ZM 22.4370,17.7311 h 1.5336 v -4.9370 h -1.2185 v -0.5567 c 0.4622,-0.0840 0.8036,-0.2048 0.8036 -0.2048c 0.3414,-0.1208 0.6145,-0.2889 0.6145 -0.2889h 0.6618 v 5.9874 h 1.3866 v 0.7143 h -3.7815 v -0.7143 Z"/></g><defs></defs><g stroke-linejoin="miter" stroke-opacity="1.0" fill-opacity="0.0" stroke="rgb(0,0,0)" stroke-width="0.9999999999999997" fill="rgb(0,0,0)" stroke-linecap="square" stroke-miterlimit="10.0"><path d="M 35.3887,550.0000 h 744.8162 "/></g><defs></defs><g stroke-linejoin="miter" stroke-opacity="1.0" fill-opacity="0.0" stroke="rgb(0,0,0)" stroke-width="0.9999999999999997" fill="rgb(0,0,0)" stroke-linecap="butt" stroke-miterlimit="10.0"><path d="M 35.3887,550.0000 v -2.0000 "/></g><defs></defs><g stroke-linejoin="miter" stroke-opacity="1.0" fill-opacity="0.0" stroke="rgb(0,0,0)" stroke-width="0.9999999999999997" fill="rgb(0,0,0)" stroke-linecap="butt" stroke-miterlimit="10.0"><path d="M 109.8703,550.0000 v -2.0000 "/></g><defs></defs><g stroke-linejoin="miter" stroke-opacity="1.0" fill-opacity="0.0" stroke="rgb(0,0,0)" stroke-width="0.9999999999999997" fill="rgb(0,0,0)" stroke-linecap="butt" stroke-miterlimit="10.0"><path d="M 184.3519,550.0000 v -2.0000 "/></g><defs></defs><g stroke-linejoin="miter" stroke-opacity="1.0" fill-opacity="0.0" stroke="rgb(0,0,0)" stroke-width="0.9999999999999997" fill="rgb(0,0,0)" stroke-linecap="butt" stroke-miterlimit="10.0"><path d="M 258.8335,550.0000 v -2.0000 "/></g><defs></defs><g stroke-linejoin="miter" stroke-opacity="1.0" fill-opacity="0.0" stroke="rgb(0,0,0)" stroke-width="0.9999999999999997" fill="rgb(0,0,0)" stroke-linecap="butt" stroke-miterlimit="10.0"><path d="M 333.3151,550.0000 v -2.0000 "/></g><defs></defs><g stroke-linejoin="miter" stroke-opacity="1.0" fill-opacity="0.0" stroke="rgb(0,0,0)" stroke-width="0.9999999999999997" fill="rgb(0,0,0)" stroke-linecap="butt" stroke-miterlimit="10.0"><path d="M 407.7967,550.0000 v -2.0000 "/></g><defs></defs><g stroke-linejoin="miter" stroke-opacity="1.0" fill-opacity="0.0" stroke="rgb(0,0,0)" stroke-width="0.9999999999999997" fill="rgb(0,0,0)" stroke-linecap="butt" stroke-miterlimit="10.0"><path d="M 482.2784,550.0000 v -2.0000 "/></g><defs></defs><g stroke-linejoin="miter" stroke-opacity="1.0" fill-opacity="0.0" stroke="rgb(0,0,0)" stroke-width="0.9999999999999997" fill="rgb(0,0,0)" stroke-linecap="butt" stroke-miterlimit="10.0"><path d="M 556.7600,550.0000 v -2.0000 "/></g><defs></defs><g stroke-linejoin="miter" stroke-opacity="1.0" fill-opacity="0.0" stroke="rgb(0,0,0)" stroke-width="0.9999999999999997" fill="rgb(0,0,0)" stroke-linecap="butt" stroke-miterlimit="10.0"><path d="M 631.2416,550.0000 v -2.0000 "/></g><defs></defs><g stroke-linejoin="miter" stroke-opacity="1.0" fill-opacity="0.0" stroke="rgb(0,0,0)" stroke-width="0.9999999999999997" fill="rgb(0,0,0)" stroke-linecap="butt" stroke-miterlimit="10.0"><path d="M 705.7232,550.0000 v -2.0000 "/></g><defs></defs><g stroke-linejoin="miter" stroke-opacity="1.0" fill-opacity="0.0" stroke="rgb(0,0,0)" stroke-width="0.9999999999999997" fill="rgb(0,0,0)" stroke-linecap="butt" stroke-miterlimit="10.0"><path d="M 780.2048,550.0000 v -2.0000 "/></g><defs></defs><g stroke-linejoin="miter" stroke-opacity="1.0" fill-opacity="0.0" stroke="rgb(0,0,0)" stroke-width="0.9999999999999997" fill="rgb(0,0,0)" stroke-linecap="butt" stroke-miterlimit="10.0"><path d="M 35.3887,550.0000 v -5.0000 "/></g><defs></defs><g stroke-linejoin="miter" stroke-opacity="1.0" fill-opacity="0.0" stroke="rgb(0,0,0)" stroke-width="0.9999999999999997" fill="rgb(0,0,0)" stroke-linecap="butt" stroke-miterlimit="10.0"><path d="M 221.5927,550.0000 v -5.0000 "/></g><defs></defs><g stroke-linejoin="miter" stroke-opacity="1.0" fill-opacity="0.0" stroke="rgb(0,0,0)" stroke-width="0.9999999999999997" fill="rgb(0,0,0)" stroke-linecap="butt" stroke-miterlimit="10.0"><path d="M 407.7967,550.0000 v -5.0000 "/></g><defs></defs><g stroke-linejoin="miter" stroke-opacity="1.0" fill-opacity="0.0" stroke="rgb(0,0,0)" stroke-width="0.9999999999999997" fill="rgb(0,0,0)" stroke-linecap="butt" stroke-miterlimit="10.0"><path d="M 594.0008,550.0000 v -5.0000 "/></g><defs></defs><g stroke-linejoin="miter" stroke-opacity="1.0" fill-opacity="0.0" stroke="rgb(0,0,0)" stroke-width="0.9999999999999997" fill="rgb(0,0,0)" stroke-linecap="butt" stroke-miterlimit="10.0"><path d="M 780.2048,550.0000 v -5.0000 "/></g><defs></defs><g stroke-linejoin="bevel" stroke-opacity="0.0" fill-opacity="1.0" stroke="rgb(0,0,0)" stroke-width="0.0" fill="rgb(0,0,0)" stroke-linecap="butt" stroke-miterlimit="10.0"><path d="M 33.2405,570.0000 ZM 35.8561,570.1261 c -1.0189,-0.0000 -1.5861,-0.9034 -1.5861 -0.9034c -0.5672,-0.9034 -0.5672,-2.5945 -0.5672 -2.5945c 0.0000,-1.6912 0.5672,-2.5735 0.5672 -2.5735c 0.5672,-0.8824 1.5861,-0.8824 1.5861 -0.8824c 1.0084,0.0000 1.5756,0.8824 1.5756 0.8824c 0.5672,0.8824 0.5672,2.5735 0.5672 2.5735c 0.0000,1.6912 -0.5672,2.5945 -0.5672 2.5945c -0.5672,0.9034 -1.5756,0.9034 -1.5756 0.9034ZM 35.8561,570.1261 ZM 35.8561,569.4328 c 0.2941,0.0000 0.5305,-0.1628 0.5305 -0.1628c 0.2363,-0.1628 0.4097,-0.5042 0.4097 -0.5042c 0.1733,-0.3414 0.2679,-0.8718 0.2679 -0.8718c 0.0945,-0.5305 0.0945,-1.2658 0.0945 -1.2658c 0.0000,-0.7353 -0.0945,-1.2605 -0.0945 -1.2605c -0.0945,-0.5252 -0.2679,-0.8561 -0.2679 -0.8561c -0.1733,-0.3309 -0.4097,-0.4884 -0.4097 -0.4884c -0.2363,-0.1576 -0.5305,-0.1576 -0.5305 -0.1576c -0.2941,-0.0000 -0.5357,0.1576 -0.5357 0.1576c -0.2416,0.1576 -0.4149,0.4884 -0.4149 0.4884c -0.1733,0.3309 -0.2679,0.8561 -0.2679 0.8561c -0.0945,0.5252 -0.0945,1.2605 -0.0945 1.2605c 0.0000,1.4706 0.3624,2.1376 0.3624 2.1376c 0.3624,0.6670 0.9506,0.6670 0.9506 0.6670Z"/></g><defs></defs><g stroke-linejoin="bevel" stroke-opacity="0.0" fill-opacity="1.0" stroke="rgb(0,0,0)" stroke-width="0.0" fill="rgb(0,0,0)" stroke-linecap="butt" stroke-miterlimit="10.0"><path d="M 214.1820,570.0000 ZM 214.6022,569.4853 c 0.7563,-0.7563 1.3445,-1.3655 1.3445 -1.3655c 0.5882,-0.6092 0.9874,-1.1292 0.9874 -1.1292c 0.3992,-0.5200 0.6092,-0.9559 0.6092 -0.9559c 0.2101,-0.4359 0.2101,-0.8456 0.2101 -0.8456c 0.0000,-0.5777 -0.3151,-0.9454 -0.3151 -0.9454c -0.3151,-0.3676 -0.9559,-0.3676 -0.9559 -0.3676c -0.4202,-0.0000 -0.7773,0.2363 -0.7773 0.2363c -0.3571,0.2363 -0.6513,0.5725 -0.6513 0.5725l -0.4937,-0.4937 c 0.4202,-0.4622 0.8929,-0.7405 0.8929 -0.7405c 0.4727,-0.2784 1.1345,-0.2784 1.1345 -0.2784c 0.9349,0.0000 1.4706,0.5410 1.4706 0.5410c 0.5357,0.5410 0.5357,1.4338 0.5357 1.4338c 0.0000,0.4727 -0.2048,0.9506 -0.2048 0.9506c -0.2048,0.4779 -0.5672,0.9874 -0.5672 0.9874c -0.3624,0.5095 -0.8613,1.0609 -0.8613 1.0609c -0.4989,0.5515 -1.0977,1.1712 -1.0977 1.1712c 0.2731,-0.0210 0.5672,-0.0420 0.5672 -0.0420c 0.2941,-0.0210 0.5567,-0.0210 0.5567 -0.0210h 1.9433 v 0.7458 h -4.3277 v -0.5147 ZM 219.4026,570.0000 ZM 220.0853,568.6450 c 0.2941,0.3046 0.6985,0.5357 0.6985 0.5357c 0.4044,0.2311 0.9926,0.2311 0.9926 0.2311c 0.3046,0.0000 0.5725,-0.1103 0.5725 -0.1103c 0.2679,-0.1103 0.4674,-0.3099 0.4674 -0.3099c 0.1996,-0.1996 0.3151,-0.4832 0.3151 -0.4832c 0.1155,-0.2836 0.1155,-0.6303 0.1155 -0.6303c 0.0000,-0.6933 -0.3887,-1.0819 -0.3887 -1.0819c -0.3887,-0.3887 -1.0399,-0.3887 -1.0399 -0.3887c -0.3466,-0.0000 -0.5935,0.1050 -0.5935 0.1050c -0.2468,0.1050 -0.5515,0.3046 -0.5515 0.3046l -0.4622,-0.2941 l 0.2206,-3.2248 h 3.3508 v 0.7458 h -2.5945 l -0.1786,1.9853 c 0.2416,-0.1261 0.4832,-0.1996 0.4832 -0.1996c 0.2416,-0.0735 0.5462,-0.0735 0.5462 -0.0735c 0.4307,0.0000 0.8088,0.1261 0.8088 0.1261c 0.3782,0.1261 0.6618,0.3834 0.6618 0.3834c 0.2836,0.2574 0.4464,0.6513 0.4464 0.6513c 0.1628,0.3939 0.1628,0.9401 0.1628 0.9401c 0.0000,0.5462 -0.1891,0.9664 -0.1891 0.9664c -0.1891,0.4202 -0.5042,0.7090 -0.5042 0.7090c -0.3151,0.2889 -0.7195,0.4412 -0.7195 0.4412c -0.4044,0.1523 -0.8456,0.1523 -0.8456 0.1523c -0.3992,-0.0000 -0.7300,-0.0788 -0.7300 -0.0788c -0.3309,-0.0788 -0.5987,-0.2048 -0.5987 -0.2048c -0.2679,-0.1261 -0.4832,-0.2889 -0.4832 -0.2889c -0.2153,-0.1628 -0.3834,-0.3414 -0.3834 -0.3414ZM 224.6232,570.0000 ZM 227.2387,570.1261 c -1.0189,-0.0000 -1.5861,-0.9034 -1.5861 -0.9034c -0.5672,-0.9034 -0.5672,-2.5945 -0.5672 -2.5945c 0.0000,-1.6912 0.5672,-2.5735 0.5672 -2.5735c 0.5672,-0.8824 1.5861,-0.8824 1.5861 -0.8824c 1.0084,0.0000 1.5756,0.8824 1.5756 0.8824c 0.5672,0.8824 0.5672,2.5735 0.5672 2.5735c 0.0000,1.6912 -0.5672,2.5945 -0.5672 2.5945c -0.5672,0.9034 -1.5756,0.9034 -1.5756 0.9034ZM 227.2387,570.1261 ZM 227.2387,569.4328 c 0.2941,0.0000 0.5305,-0.1628 0.5305 -0.1628c 0.2363,-0.1628 0.4097,-0.5042 0.4097 -0.5042c 0.1733,-0.3414 0.2679,-0.8718 0.2679 -0.8718c 0.0945,-0.5305 0.0945,-1.2658 0.0945 -1.2658c 0.0000,-0.7353 -0.0945,-1.2605 -0.0945 -1.2605c -0.0945,-0.5252 -0.2679,-0.8561 -0.2679 -0.8561c -0.1733,-0.3309 -0.4097,-0.4884 -0.4097 -0.4884c -0.2363,-0.1576 -0.5305,-0.1576 -0.5305 -0.1576c -0.2941,-0.0000 -0.5357,0.1576 -0.5357 0.1576c -0.2416,0.1576 -0.4149,0.4884 -0.4149 0.4884c -0.1733,0.3309 -0.2679,0.8561 -0.2679 0.8561c -0.0945,0.5252 -0.0945,1.2605 -0.0945 1.2605c 0.0000,1.4706 0.3624,2.1376 0.3624 2.1376c 0.3624,0.6670 0.9506,0.6670 0.9506 0.6670Z"/></g><defs></defs><g stroke-linejoin="bevel" stroke-opacity="0.0" fill-opacity="1.0" stroke="rgb(0,0,0)" stroke-width="0.0" fill="rgb(0,0,0)" stroke-linecap="butt" stroke-miterlimit="10.0"><path d="M 400.3283,570.0000 ZM 401.0110,568.6450 c 0.2941,0.3046 0.6985,0.5357 0.6985 0.5357c 0.4044,0.2311 0.9926,0.2311 0.9926 0.2311c 0.3046,0.0000 0.5725,-0.1103 0.5725 -0.1103c 0.2679,-0.1103 0.4674,-0.3099 0.4674 -0.3099c 0.1996,-0.1996 0.3151,-0.4832 0.3151 -0.4832c 0.1155,-0.2836 0.1155,-0.6303 0.1155 -0.6303c 0.0000,-0.6933 -0.3887,-1.0819 -0.3887 -1.0819c -0.3887,-0.3887 -1.0399,-0.3887 -1.0399 -0.3887c -0.3466,-0.0000 -0.5935,0.1050 -0.5935 0.1050c -0.2468,0.1050 -0.5515,0.3046 -0.5515 0.3046l -0.4622,-0.2941 l 0.2206,-3.2248 h 3.3508 v 0.7458 h -2.5945 l -0.1786,1.9853 c 0.2416,-0.1261 0.4832,-0.1996 0.4832 -0.1996c 0.2416,-0.0735 0.5462,-0.0735 0.5462 -0.0735c 0.4307,0.0000 0.8088,0.1261 0.8088 0.1261c 0.3782,0.1261 0.6618,0.3834 0.6618 0.3834c 0.2836,0.2574 0.4464,0.6513 0.4464 0.6513c 0.1628,0.3939 0.1628,0.9401 0.1628 0.9401c 0.0000,0.5462 -0.1891,0.9664 -0.1891 0.9664c -0.1891,0.4202 -0.5042,0.7090 -0.5042 0.7090c -0.3151,0.2889 -0.7195,0.4412 -0.7195 0.4412c -0.4044,0.1523 -0.8456,0.1523 -0.8456 0.1523c -0.3992,-0.0000 -0.7300,-0.0788 -0.7300 -0.0788c -0.3309,-0.0788 -0.5987,-0.2048 -0.5987 -0.2048c -0.2679,-0.1261 -0.4832,-0.2889 -0.4832 -0.2889c -0.2153,-0.1628 -0.3834,-0.3414 -0.3834 -0.3414ZM 405.5488,570.0000 ZM 408.1644,570.1261 c -1.0189,-0.0000 -1.5861,-0.9034 -1.5861 -0.9034c -0.5672,-0.9034 -0.5672,-2.5945 -0.5672 -2.5945c 0.0000,-1.6912 0.5672,-2.5735 0.5672 -2.5735c 0.5672,-0.8824 1.5861,-0.8824 1.5861 -0.8824c 1.0084,0.0000 1.5756,0.8824 1.5756 0.8824c 0.5672,0.8824 0.5672,2.5735 0.5672 2.5735c 0.0000,1.6912 -0.5672,2.5945 -0.5672 2.5945c -0.5672,0.9034 -1.5756,0.9034 -1.5756 0.9034ZM 408.1644,570.1261 ZM 408.1644,569.4328 c 0.2941,0.0000 0.5305,-0.1628 0.5305 -0.1628c 0.2363,-0.1628 0.4097,-0.5042 0.4097 -0.5042c 0.1733,-0.3414 0.2679,-0.8718 0.2679 -0.8718c 0.0945,-0.5305 0.0945,-1.2658 0.0945 -1.2658c 0.0000,-0.7353 -0.0945,-1.2605 -0.0945 -1.2605c -0.0945,-0.5252 -0.2679,-0.8561 -0.2679 -0.8561c -0.1733,-0.3309 -0.4097,-0.4884 -0.4097 -0.4884c -0.2363,-0.1576 -0.5305,-0.1576 -0.5305 -0.1576c -0.2941,-0.0000 -0.5357,0.1576 -0.5357 0.1576c -0.2416,0.1576 -0.4149,0.4884 -0.4149 0.4884c -0.1733,0.3309 -0.2679,0.8561 -0.2679 0.8561c -0.0945,0.5252 -0.0945,1.2605 -0.0945 1.2605c 0.0000,1.4706 0.3624,2.1376 0.3624 2.1376c 0.3624,0.6670 0.9506,0.6670 0.9506 0.6670ZM 410.7694,570.0000 ZM 413.3850,570.1261 c -1.0189,-0.0000 -1.5861,-0.9034 -1.5861 -0.9034c -0.5672,-0.9034 -0.5672,-2.5945 -0.5672 -2.5945c 0.0000,-1.6912 0.5672,-2.5735 0.5672 -2.5735c 0.5672,-0.8824 1.5861,-0.8824 1.5861 -0.8824c 1.0084,0.0000 1.5756,0.8824 1.5756 0.8824c 0.5672,0.8824 0.5672,2.5735 0.5672 2.5735c 0.0000,1.6912 -0.5672,2.5945 -0.5672 2.5945c -0.5672,0.9034 -1.5756,0.9034 -1.5756 0.9034ZM 413.3850,570.1261 ZM 413.3850,569.4328 c 0.2941,0.0000 0.5305,-0.1628 0.5305 -0.1628c 0.2363,-0.1628 0.4097,-0.5042 0.4097 -0.5042c 0.1733,-0.3414 0.2679,-0.8718 0.2679 -0.8718c 0.0945,-0.5305 0.0945,-1.2658 0.0945 -1.2658c 0.0000,-0.7353 -0.0945,-1.2605 -0.0945 -1.2605c -0.0945,-0.5252 -0.2679,-0.8561 -0.2679 -0.8561c -0.1733,-0.3309 -0.4097,-0.4884 -0.4097 -0.4884c -0.2363,-0.1576 -0.5305,-0.1576 -0.5305 -0.1576c -0.2941,-0.0000 -0.5357,0.1576 -0.5357 0.1576c -0.2416,0.1576 -0.4149,0.4884 -0.4149 0.4884c -0.1733,0.3309 -0.2679,0.8561 -0.2679 0.8561c -0.0945,0.5252 -0.0945,1.2605 -0.0945 1.2605c 0.0000,1.4706 0.3624,2.1376 0.3624 2.1376c 0.3624,0.6670 0.9506,0.6670 0.9506 0.6670Z"/></g><defs></defs><g stroke-linejoin="bevel" stroke-opacity="0.0" fill-opacity="1.0" stroke="rgb(0,0,0)" stroke-width="0.0" fill="rgb(0,0,0)" stroke-linecap="butt" stroke-miterlimit="10.0"><path d="M 586.6321,570.0000 ZM 588.4913,570.0000 c 0.0420,-0.9454 0.1681,-1.7332 0.1681 -1.7332c 0.1261,-0.7878 0.3519,-1.4968 0.3519 -1.4968c 0.2258,-0.7090 0.5777,-1.3708 0.5777 -1.3708c 0.3519,-0.6618 0.8456,-1.3550 0.8456 -1.3550h -3.3403 v -0.7458 h 4.3172 v 0.5357 c -0.5987,0.7563 -0.9716,1.4496 -0.9716 1.4496c -0.3729,0.6933 -0.5935,1.4128 -0.5935 1.4128c -0.2206,0.7195 -0.3204,1.5231 -0.3204 1.5231c -0.0998,0.8036 -0.1418,1.7805 -0.1418 1.7805h -0.8929 h 0.0000 ZM 591.8527,570.0000 ZM 592.5355,568.6450 c 0.2941,0.3046 0.6985,0.5357 0.6985 0.5357c 0.4044,0.2311 0.9926,0.2311 0.9926 0.2311c 0.3046,0.0000 0.5725,-0.1103 0.5725 -0.1103c 0.2679,-0.1103 0.4674,-0.3099 0.4674 -0.3099c 0.1996,-0.1996 0.3151,-0.4832 0.3151 -0.4832c 0.1155,-0.2836 0.1155,-0.6303 0.1155 -0.6303c 0.0000,-0.6933 -0.3887,-1.0819 -0.3887 -1.0819c -0.3887,-0.3887 -1.0399,-0.3887 -1.0399 -0.3887c -0.3466,-0.0000 -0.5935,0.1050 -0.5935 0.1050c -0.2468,0.1050 -0.5515,0.3046 -0.5515 0.3046l -0.4622,-0.2941 l 0.2206,-3.2248 h 3.3508 v 0.7458 h -2.5945 l -0.1786,1.9853 c 0.2416,-0.1261 0.4832,-0.1996 0.4832 -0.1996c 0.2416,-0.0735 0.5462,-0.0735 0.5462 -0.0735c 0.4307,0.0000 0.8088,0.1261 0.8088 0.1261c 0.3782,0.1261 0.6618,0.3834 0.6618 0.3834c 0.2836,0.2574 0.4464,0.6513 0.4464 0.6513c 0.1628,0.3939 0.1628,0.9401 0.1628 0.9401c 0.0000,0.5462 -0.1891,0.9664 -0.1891 0.9664c -0.1891,0.4202 -0.5042,0.7090 -0.5042 0.7090c -0.3151,0.2889 -0.7195,0.4412 -0.7195 0.4412c -0.4044,0.1523 -0.8456,0.1523 -0.8456 0.1523c -0.3992,-0.0000 -0.7300,-0.0788 -0.7300 -0.0788c -0.3309,-0.0788 -0.5987,-0.2048 -0.5987 -0.2048c -0.2679,-0.1261 -0.4832,-0.2889 -0.4832 -0.2889c -0.2153,-0.1628 -0.3834,-0.3414 -0.3834 -0.3414ZM 597.0733,570.0000 ZM 599.6888,570.1261 c -1.0189,-0.0000 -1.5861,-0.9034 -1.5861 -0.9034c -0.5672,-0.9034 -0.5672,-2.5945 -0.5672 -2.5945c 0.0000,-1.6912 0.5672,-2.5735 0.5672 -2.5735c 0.5672,-0.8824 1.5861,-0.8824 1.5861 -0.8824c 1.0084,0.0000 1.5756,0.8824 1.5756 0.8824c 0.5672,0.8824 0.5672,2.5735 0.5672 2.5735c 0.0000,1.6912 -0.5672,2.5945 -0.5672 2.5945c -0.5672,0.9034 -1.5756,0.9034 -1.5756 0.9034ZM 599.6888,570.1261 ZM 599.6888,569.4328 c 0.2941,0.0000 0.5305,-0.1628 0.5305 -0.1628c 0.2363,-0.1628 0.4097,-0.5042 0.4097 -0.5042c 0.1733,-0.3414 0.2679,-0.8718 0.2679 -0.8718c 0.0945,-0.5305 0.0945,-1.2658 0.0945 -1.2658c 0.0000,-0.7353 -0.0945,-1.2605 -0.0945 -1.2605c -0.0945,-0.5252 -0.2679,-0.8561 -0.2679 -0.8561c -0.1733,-0.3309 -0.4097,-0.4884 -0.4097 -0.4884c -0.2363,-0.1576 -0.5305,-0.1576 -0.5305 -0.1576c -0.2941,-0.0000 -0.5357,0.1576 -0.5357 0.1576c -0.2416,0.1576 -0.4149,0.4884 -0.4149 0.4884c -0.1733,0.3309 -0.2679,0.8561 -0.2679 0.8561c -0.0945,0.5252 -0.0945,1.2605 -0.0945 1.2605c 0.0000,1.4706 0.3624,2.1376 0.3624 2.1376c 0.3624,0.6670 0.9506,0.6670 0.9506 0.6670Z"/></g><defs></defs><g stroke-linejoin="bevel" stroke-opacity="0.0" fill-opacity="1.0" stroke="rgb(0,0,0)" stroke-width="0.0" fill="rgb(0,0,0)" stroke-linecap="butt" stroke-miterlimit="10.0"><path d="M 770.4097,570.0000 ZM 771.2395,569.2857 h 1.5336 v -4.9370 h -1.2185 v -0.5567 c 0.4622,-0.0840 0.8036,-0.2048 0.8036 -0.2048c 0.3414,-0.1208 0.6145,-0.2889 0.6145 -0.2889h 0.6618 v 5.9874 h 1.3866 v 0.7143 h -3.7815 v -0.7143 ZM 775.6303,570.0000 ZM 778.2458,570.1261 c -1.0189,-0.0000 -1.5861,-0.9034 -1.5861 -0.9034c -0.5672,-0.9034 -0.5672,-2.5945 -0.5672 -2.5945c 0.0000,-1.6912 0.5672,-2.5735 0.5672 -2.5735c 0.5672,-0.8824 1.5861,-0.8824 1.5861 -0.8824c 1.0084,0.0000 1.5756,0.8824 1.5756 0.8824c 0.5672,0.8824 0.5672,2.5735 0.5672 2.5735c 0.0000,1.6912 -0.5672,2.5945 -0.5672 2.5945c -0.5672,0.9034 -1.5756,0.9034 -1.5756 0.9034ZM 778.2458,570.1261 ZM 778.2458,569.4328 c 0.2941,0.0000 0.5305,-0.1628 0.5305 -0.1628c 0.2363,-0.1628 0.4097,-0.5042 0.4097 -0.5042c 0.1733,-0.3414 0.2679,-0.8718 0.2679 -0.8718c 0.0945,-0.5305 0.0945,-1.2658 0.0945 -1.2658c 0.0000,-0.7353 -0.0945,-1.2605 -0.0945 -1.2605c -0.0945,-0.5252 -0.2679,-0.8561 -0.2679 -0.8561c -0.1733,-0.3309 -0.4097,-0.4884 -0.4097 -0.4884c -0.2363,-0.1576 -0.5305,-0.1576 -0.5305 -0.1576c -0.2941,-0.0000 -0.5357,0.1576 -0.5357 0.1576c -0.2416,0.1576 -0.4149,0.4884 -0.4149 0.4884c -0.1733,0.3309 -0.2679,0.8561 -0.2679 0.8561c -0.0945,0.5252 -0.0945,1.2605 -0.0945 1.2605c 0.0000,1.4706 0.3624,2.1376 0.3624 2.1376c 0.3624,0.6670 0.9506,0.6670 0.9506 0.6670ZM 780.8508,570.0000 ZM 783.4664,570.1261 c -1.0189,-0.0000 -1.5861,-0.9034 -1.5861 -0.9034c -0.5672,-0.9034 -0.5672,-2.5945 -0.5672 -2.5945c 0.0000,-1.6912 0.5672,-2.5735 0.5672 -2.5735c 0.5672,-0.8824 1.5861,-0.8824 1.5861 -0.8824c 1.0084,0.0000 1.5756,0.8824 1.5756 0.8824c 0.5672,0.8824 0.5672,2.5735 0.5672 2.5735c 0.0000,1.6912 -0.5672,2.5945 -0.5672 2.5945c -0.5672,0.9034 -1.5756,0.9034 -1.5756 0.9034ZM 783.4664,570.1261 ZM 783.4664,569.4328 c 0.2941,0.0000 0.5305,-0.1628 0.5305 -0.1628c 0.2363,-0.1628 0.4097,-0.5042 0.4097 -0.5042c 0.1733,-0.3414 0.2679,-0.8718 0.2679 -0.8718c 0.0945,-0.5305 0.0945,-1.2658 0.0945 -1.2658c 0.0000,-0.7353 -0.0945,-1.2605 -0.0945 -1.2605c -0.0945,-0.5252 -0.2679,-0.8561 -0.2679 -0.8561c -0.1733,-0.3309 -0.4097,-0.4884 -0.4097 -0.4884c -0.2363,-0.1576 -0.5305,-0.1576 -0.5305 -0.1576c -0.2941,-0.0000 -0.5357,0.1576 -0.5357 0.1576c -0.2416,0.1576 -0.4149,0.4884 -0.4149 0.4884c -0.1733,0.3309 -0.2679,0.8561 -0.2679 0.8561c -0.0945,0.5252 -0.0945,1.2605 -0.0945 1.2605c 0.0000,1.4706 0.3624,2.1376 0.3624 2.1376c 0.3624,0.6670 0.9506,0.6670 0.9506 0.6670ZM 786.0714,570.0000 ZM 788.6870,570.1261 c -1.0189,-0.0000 -1.5861,-0.9034 -1.5861 -0.9034c -0.5672,-0.9034 -0.5672,-2.5945 -0.5672 -2.5945c 0.0000,-1.6912 0.5672,-2.5735 0.5672 -2.5735c 0.5672,-0.8824 1.5861,-0.8824 1.5861 -0.8824c 1.0084,0.0000 1.5756,0.8824 1.5756 0.8824c 0.5672,0.8824 0.5672,2.5735 0.5672 2.5735c 0.0000,1.6912 -0.5672,2.5945 -0.5672 2.5945c -0.5672,0.9034 -1.5756,0.9034 -1.5756 0.9034ZM 788.6870,570.1261 ZM 788.6870,569.4328 c 0.2941,0.0000 0.5305,-0.1628 0.5305 -0.1628c 0.2363,-0.1628 0.4097,-0.5042 0.4097 -0.5042c 0.1733,-0.3414 0.2679,-0.8718 0.2679 -0.8718c 0.0945,-0.5305 0.0945,-1.2658 0.0945 -1.2658c 0.0000,-0.7353 -0.0945,-1.2605 -0.0945 -1.2605c -0.0945,-0.5252 -0.2679,-0.8561 -0.2679 -0.8561c -0.1733,-0.3309 -0.4097,-0.4884 -0.4097 -0.4884c -0.2363,-0.1576 -0.5305,-0.1576 -0.5305 -0.1576c -0.2941,-0.0000 -0.5357,0.1576 -0.5357 0.1576c -0.2416,0.1576 -0.4149,0.4884 -0.4149 0.4884c -0.1733,0.3309 -0.2679,0.8561 -0.2679 0.8561c -0.0945,0.5252 -0.0945,1.2605 -0.0945 1.2605c 0.0000,1.4706 0.3624,2.1376 0.3624 2.1376c 0.3624,0.6670 0.9506,0.6670 0.9506 0.6670Z"/></g><defs></defs><g stroke-linejoin="round" stroke-opacity="1.0" fill-opacity="0.0" stroke="rgb(0,0,255)" stroke-width="0.9999999999999997" fill="rgb(0,0,0)" stroke-linecap="round" stroke-miterlimit="10.0"><path d="M 10.0000,585.0000 h 20.0000 "/></g><defs></defs><g stroke-linejoin="bevel" stroke-opacity="0.0" fill-opacity="1.0" stroke="rgb(0,0,0)" stroke-width="0.0" fill="rgb(0,0,0)" stroke-linecap="butt" stroke-miterlimit="10.0"><path d="M 35.0735,586.6071 ZM 36.0819,582.2059 h -0.7563 v -0.6513 l 0.7983,-0.0525 l 0.1050,-1.4286 h 0.7248 v 1.4286 h 1.3761 v 0.7038 h -1.3761 v 2.8361 c 0.0000,0.4727 0.1733,0.7300 0.1733 0.7300c 0.1733,0.2574 0.6145,0.2574 0.6145 0.2574c 0.1366,0.0000 0.2941,-0.0420 0.2941 -0.0420c 0.1576,-0.0420 0.2836,-0.0945 0.2836 -0.0945l 0.1681,0.6513 c -0.2101,0.0735 -0.4569,0.1313 -0.4569 0.1313c -0.2468,0.0578 -0.4884,0.0578 -0.4884 0.0578c -0.4097,-0.0000 -0.6880,-0.1261 -0.6880 -0.1261c -0.2784,-0.1261 -0.4517,-0.3466 -0.4517 -0.3466c -0.1733,-0.2206 -0.2468,-0.5357 -0.2468 -0.5357c -0.0735,-0.3151 -0.0735,-0.6933 -0.0735 -0.6933v -2.8256 ZM 38.6239,586.6071 ZM 39.9265,580.4517 c -0.2521,-0.0000 -0.4254,-0.1576 -0.4254 -0.1576c -0.1733,-0.1576 -0.1733,-0.3992 -0.1733 -0.3992c 0.0000,-0.2521 0.1733,-0.4044 0.1733 -0.4044c 0.1733,-0.1523 0.4254,-0.1523 0.4254 -0.1523c 0.2521,0.0000 0.4254,0.1523 0.4254 0.1523c 0.1733,0.1523 0.1733,0.4044 0.1733 0.4044c 0.0000,0.2416 -0.1733,0.3992 -0.1733 0.3992c -0.1733,0.1576 -0.4254,0.1576 -0.4254 0.1576ZM 39.9265,580.4517 ZM 39.4853,581.5021 h 0.8613 v 5.1050 h -0.8613 v -5.1050 ZM 41.2080,586.6071 ZM 42.0693,581.5021 h 0.7143 l 0.0735,0.7353 h 0.0315 c 0.3361,-0.3676 0.7300,-0.6145 0.7300 -0.6145c 0.3939,-0.2468 0.8561,-0.2468 0.8561 -0.2468c 0.5882,0.0000 0.9191,0.2574 0.9191 0.2574c 0.3309,0.2574 0.4884,0.7195 0.4884 0.7195c 0.3992,-0.4412 0.8036,-0.7090 0.8036 -0.7090c 0.4044,-0.2679 0.8771,-0.2679 0.8771 -0.2679c 0.7878,0.0000 1.1712,0.5042 1.1712 0.5042c 0.3834,0.5042 0.3834,1.4916 0.3834 1.4916v 3.2353 h -0.8613 v -3.1197 c 0.0000,-0.7248 -0.2311,-1.0452 -0.2311 -1.0452c -0.2311,-0.3204 -0.7143,-0.3204 -0.7143 -0.3204c -0.5777,-0.0000 -1.2815,0.7878 -1.2815 0.7878v 3.6975 h -0.8613 v -3.1197 c 0.0000,-0.7248 -0.2311,-1.0452 -0.2311 -1.0452c -0.2311,-0.3204 -0.7248,-0.3204 -0.7248 -0.3204c -0.5777,-0.0000 -1.2815,0.7878 -1.2815 0.7878v 3.6975 h -0.8613 v -5.1050 ZM 49.9160,586.6071 ZM 50.3992,584.0651 c 0.0000,-0.6303 0.1943,-1.1292 0.1943 -1.1292c 0.1943,-0.4989 0.5147,-0.8456 0.5147 -0.8456c 0.3204,-0.3466 0.7300,-0.5305 0.7300 -0.5305c 0.4097,-0.1838 0.8508,-0.1838 0.8508 -0.1838c 0.4832,0.0000 0.8666,0.1681 0.8666 0.1681c 0.3834,0.1681 0.6408,0.4832 0.6408 0.4832c 0.2574,0.3151 0.3939,0.7563 0.3939 0.7563c 0.1366,0.4412 0.1366,0.9874 0.1366 0.9874c 0.0000,0.2836 -0.0315,0.4727 -0.0315 0.4727h -3.4454 c 0.0525,0.8298 0.5095,1.3130 0.5095 1.3130c 0.4569,0.4832 1.1922,0.4832 1.1922 0.4832c 0.3676,0.0000 0.6775,-0.1103 0.6775 -0.1103c 0.3099,-0.1103 0.5935,-0.2889 0.5935 -0.2889l 0.3046,0.5672 c -0.3361,0.2101 -0.7458,0.3676 -0.7458 0.3676c -0.4097,0.1576 -0.9349,0.1576 -0.9349 0.1576c -0.5147,-0.0000 -0.9611,-0.1838 -0.9611 -0.1838c -0.4464,-0.1838 -0.7773,-0.5252 -0.7773 -0.5252c -0.3309,-0.3414 -0.5200,-0.8351 -0.5200 -0.8351c -0.1891,-0.4937 -0.1891,-1.1239 -0.1891 -1.1239ZM 50.3992,584.0651 ZM 53.9706,583.6765 c 0.0000,-0.7878 -0.3309,-1.2027 -0.3309 -1.2027c -0.3309,-0.4149 -0.9296,-0.4149 -0.9296 -0.4149c -0.2731,-0.0000 -0.5200,0.1103 -0.5200 0.1103c -0.2468,0.1103 -0.4464,0.3151 -0.4464 0.3151c -0.1996,0.2048 -0.3309,0.5042 -0.3309 0.5042c -0.1313,0.2994 -0.1733,0.6880 -0.1733 0.6880h 2.7311 ZM 57.2479,586.6071 ZM 57.7311,584.0651 c 0.0000,-0.6303 0.1943,-1.1292 0.1943 -1.1292c 0.1943,-0.4989 0.5147,-0.8456 0.5147 -0.8456c 0.3204,-0.3466 0.7300,-0.5305 0.7300 -0.5305c 0.4097,-0.1838 0.8508,-0.1838 0.8508 -0.1838c 0.4832,0.0000 0.8666,0.1681 0.8666 0.1681c 0.3834,0.1681 0.6408,0.4832 0.6408 0.4832c 0.2574,0.3151 0.3939,0.7563 0.3939 0.7563c 0.1366,0.4412 0.1366,0.9874 0.1366 0.9874c 0.0000,0.2836 -0.0315,0.4727 -0.0315 0.4727h -3.4454 c 0.0525,0.8298 0.5095,1.3130 0.5095 1.3130c 0.4569,0.4832 1.1922,0.4832 1.1922 0.4832c 0.3676,0.0000 0.6775,-0.1103 0.6775 -0.1103c 0.3099,-0.1103 0.5935,-0.2889 0.5935 -0.2889l 0.3046,0.5672 c -0.3361,0.2101 -0.7458,0.3676 -0.7458 0.3676c -0.4097,0.1576 -0.9349,0.1576 -0.9349 0.1576c -0.5147,-0.0000 -0.9611,-0.1838 -0.9611 -0.1838c -0.4464,-0.1838 -0.7773,-0.5252 -0.7773 -0.5252c -0.3309,-0.3414 -0.5200,-0.8351 -0.5200 -0.8351c -0.1891,-0.4937 -0.1891,-1.1239 -0.1891 -1.1239ZM 57.7311,584.0651 ZM 61.3025,583.6765 c 0.0000,-0.7878 -0.3309,-1.2027 -0.3309 -1.2027c -0.3309,-0.4149 -0.9296,-0.4149 -0.9296 -0.4149c -0.2731,-0.0000 -0.5200,0.1103 -0.5200 0.1103c -0.2468,0.1103 -0.4464,0.3151 -0.4464 0.3151c -0.1996,0.2048 -0.3309,0.5042 -0.3309 0.5042c -0.1313,0.2994 -0.1733,0.6880 -0.1733 0.6880h 2.7311 ZM 62.4580,586.6071 ZM 63.3193,581.5021 h 0.7143 l 0.0735,0.9244 h 0.0315 c 0.2626,-0.4832 0.6355,-0.7668 0.6355 -0.7668c 0.3729,-0.2836 0.8141,-0.2836 0.8141 -0.2836c 0.3046,0.0000 0.5462,0.1050 0.5462 0.1050l -0.1681,0.7563 c -0.1261,-0.0420 -0.2311,-0.0630 -0.2311 -0.0630c -0.1050,-0.0210 -0.2626,-0.0210 -0.2626 -0.0210c -0.3256,-0.0000 -0.6775,0.2626 -0.6775 0.2626c -0.3519,0.2626 -0.6145,0.9139 -0.6145 0.9139v 3.2773 h -0.8613 v -5.1050 ZM 66.1029,586.6071 ZM 66.9643,581.5021 h 0.7143 l 0.0735,0.9244 h 0.0315 c 0.2626,-0.4832 0.6355,-0.7668 0.6355 -0.7668c 0.3729,-0.2836 0.8141,-0.2836 0.8141 -0.2836c 0.3046,0.0000 0.5462,0.1050 0.5462 0.1050l -0.1681,0.7563 c -0.1261,-0.0420 -0.2311,-0.0630 -0.2311 -0.0630c -0.1050,-0.0210 -0.2626,-0.0210 -0.2626 -0.0210c -0.3256,-0.0000 -0.6775,0.2626 -0.6775 0.2626c -0.3519,0.2626 -0.6145,0.9139 -0.6145 0.9139v 3.2773 h -0.8613 v -5.1050 ZM 69.6429,586.6071 ZM 70.1261,584.0651 c 0.0000,-0.6408 0.1943,-1.1397 0.1943 -1.1397c 0.1943,-0.4989 0.5200,-0.8456 0.5200 -0.8456c 0.3256,-0.3466 0.7511,-0.5252 0.7511 -0.5252c 0.4254,-0.1786 0.8981,-0.1786 0.8981 -0.1786c 0.4727,0.0000 0.8981,0.1786 0.8981 0.1786c 0.4254,0.1786 0.7511,0.5252 0.7511 0.5252c 0.3256,0.3466 0.5200,0.8456 0.5200 0.8456c 0.1943,0.4989 0.1943,1.1397 0.1943 1.1397c 0.0000,0.6303 -0.1943,1.1292 -0.1943 1.1292c -0.1943,0.4989 -0.5200,0.8403 -0.5200 0.8403c -0.3256,0.3414 -0.7511,0.5200 -0.7511 0.5200c -0.4254,0.1786 -0.8981,0.1786 -0.8981 0.1786c -0.4727,-0.0000 -0.8981,-0.1786 -0.8981 -0.1786c -0.4254,-0.1786 -0.7511,-0.5200 -0.7511 -0.5200c -0.3256,-0.3414 -0.5200,-0.8403 -0.5200 -0.8403c -0.1943,-0.4989 -0.1943,-1.1292 -0.1943 -1.1292ZM 70.1261,584.0651 ZM 71.0189,584.0651 c 0.0000,0.4412 0.1050,0.7983 0.1050 0.7983c 0.1050,0.3571 0.2994,0.6145 0.2994 0.6145c 0.1943,0.2574 0.4674,0.3992 0.4674 0.3992c 0.2731,0.1418 0.5987,0.1418 0.5987 0.1418c 0.3256,0.0000 0.5987,-0.1418 0.5987 -0.1418c 0.2731,-0.1418 0.4674,-0.3992 0.4674 -0.3992c 0.1943,-0.2574 0.2994,-0.6145 0.2994 -0.6145c 0.1050,-0.3571 0.1050,-0.7983 0.1050 -0.7983c 0.0000,-0.4412 -0.1050,-0.8036 -0.1050 -0.8036c -0.1050,-0.3624 -0.2994,-0.6250 -0.2994 -0.6250c -0.1943,-0.2626 -0.4674,-0.4044 -0.4674 -0.4044c -0.2731,-0.1418 -0.5987,-0.1418 -0.5987 -0.1418c -0.3256,-0.0000 -0.5987,0.1418 -0.5987 0.1418c -0.2731,0.1418 -0.4674,0.4044 -0.4674 0.4044c -0.1943,0.2626 -0.2994,0.6250 -0.2994 0.6250c -0.1050,0.3624 -0.1050,0.8036 -0.1050 0.8036ZM 75.3361,586.6071 ZM 76.1975,581.5021 h 0.7143 l 0.0735,0.9244 h 0.0315 c 0.2626,-0.4832 0.6355,-0.7668 0.6355 -0.7668c 0.3729,-0.2836 0.8141,-0.2836 0.8141 -0.2836c 0.3046,0.0000 0.5462,0.1050 0.5462 0.1050l -0.1681,0.7563 c -0.1261,-0.0420 -0.2311,-0.0630 -0.2311 -0.0630c -0.1050,-0.0210 -0.2626,-0.0210 -0.2626 -0.0210c -0.3256,-0.0000 -0.6775,0.2626 -0.6775 0.2626c -0.3519,0.2626 -0.6145,0.9139 -0.6145 0.9139v 3.2773 h -0.8613 v -5.1050 Z"/></g></svg>